<svg xmlns="http://www.w3.org/2000/svg" xmlns:xlink="http://www.w3.org/1999/xlink" width="455.659pt" height="368.862pt" viewBox="0 0 455.659 368.862"><defs><path id="c" d="M0 3.5c0 .5.5625 1.01563 1.375 1.01563 1.59375 0 2.26563-1.17188 3.92188-4.01563.375-.64062 1.51562-2.60937 2.67187-4.51562 1.0625-1.75 2.25-3.5625 2.25-4.32813 0-.65625-.20312-1.04687-.34375-1.04687-.35937 0-1 .15625-1.46875.46875 0 0-.0625 1.92187-.25 2.57812-.29687 1.04688-1.39062 3.07813-2.625 5.20313h-.0625C5.32813-4 4.98438-7.9375 4.71875-9.3125l-.14062-.07812L1.4375-8.5l.0625.48438 1.28125-.04688c.39063 0 .46875.3125.625 1.28125.20313 1.45313.60938 5.04688.60938 6.54688 0 .54687-.01563 1.3125-.4375 2.29687-.32813.78125-.8125 1.34375-1.1875 1.34375-.67188 0-.76563-1.03125-1.4375-1.03125C.48438 2.375 0 2.96875 0 3.5m0 0"/><path id="d" d="M1.59375-2.67187h10.29688v-1.09375H1.59375Zm0-4.10938h10.29688v-1.10937H1.59375Zm0 0"/><path id="e" d="M.59375-.73437c0 .53125.4375.95312 1.20313.95312 1.26562 0 1.98437-1.28125 2.76562-2.53125l.75-1.23437h.04688L5.6875-2.0625C6.04688-.57812 6.39063.21875 7.34375.21875 8.71875.21875 9.4375-1.1875 10-2.32812l-.48437-.26563C9.0625-1.75 8.54688-.75 8.01563-.75c-.35938 0-.48438-.42187-.90625-2.09375l-.59375-2.45312c.67187-1.1875 1.625-2.6875 2.15625-2.6875.5625 0 .57812.29687 1.14062.29687.42188 0 .79688-.39062.79688-.89062 0-.57813-.4375-.8125-.95313-.8125-1 0-1.82812.89062-2.48437 1.95312l-.82813 1.26563H6.3125L5.54688-9.3125l-.09375-.07812-3.07813.9375L2.40625-8 3.875-8.10937c.3125 0 .4375.14062.625.9375l.65625 2.71875-.51562.89062c-.79688 1.375-1.5 2.34375-1.95313 2.34375-.53125 0-.67187-.45312-1.28125-.45312-.46875 0-.8125.48437-.8125.9375m0 0"/><path id="f" d="M.60938-9.34375c0 1.64063 1.64062 2.9375 5.375 2.9375C5.375-5.3125 4.92188-4.1875 4.92188-2.95312c0 2.0625 1.28125 3.17187 3.64062 3.17187 2.28125 0 4.67188-1.65625 4.67188-3.78125 0-1.28125-1.04688-1.96875-2.39063-1.96875-1.46875 0-3.20312 1.65625-3.20312 2.96875 0 .39063.29687 1.15625.85937 1.15625.15625 0 .375-.125.375-.3125 0-.23437-.4375-.25-.4375-.82812 0-.92188 1.34375-2.39063 2.40625-2.39063.76563 0 1.21875.29688 1.21875 1.03125 0 1.65625-1.59375 3.53125-3.5 3.53125-1.35937 0-2.04687-.73437-2.04687-1.96875 0-1.40625.96875-3.03125 1.70312-4.21875 4.15625-.64062 8.25-2.6875 8.25-5.29687 0-1-.79687-1.65625-1.875-1.65625-2.46875 0-6.1875 3.17187-8.25 6.45312-1.6875-.03125-4.4375-.0625-4.4375-2.04687 0-1.84375 2.23438-3.25 3.625-3.25.26563 0 .40625-.15625.40625-.32813 0-.15625-.14062-.26562-.29687-.26562-2.09375 0-5.03125 1.40625-5.03125 3.60937M8.59375-7.3125c1.375-2.40625 4.28125-5.60937 6-5.60937.65625 0 1.10938.375 1.10938 1 0 2.09375-3.28125 4-7.10938 4.60937m0 0"/><path id="i" d="M2.1875-1.25c0 .875.375 1.46875 1.4375 1.46875C5.42188.21875 7.39063-1.75 8.5-3.92187h.04688l-.625 2.125c-.09375.39062-.15625.70312-.15625.98437 0 .65625.3125 1.03125 1.01562 1.03125 1.34375 0 2.46875-1.28125 3.125-2.67187l-.4375-.28125C11.09375-2.09375 10.25-.75 9.73438-.75c-.23438 0-.34375-.17187-.34375-.42187 0-.15626.04687-.35938.10937-.57813l2-7.64062-1.67187.21875C9.29688-7.26562 8.98438-6.26562 8.5-5.14062 7.6875-3.25 6.04688-.75 4.5-.75c-.40625 0-.59375-.25-.59375-.75 0-.23437.03125-.53125.14063-.89062l1.78125-6.90625-.09375-.09375-3.40625.51562-.125.45313 1.1875.09375c.26562.03125.375.14062.375.35937 0 .14063-.04688.32813-.10938.54688L2.375-2.48437c-.125.4375-.1875.85937-.1875 1.23437m0 0"/><path id="o" d="M-7.17187-12.4375h3.8125L-4.125-11.25l.54688.48438c.75-.84375 1.625-1.4375 2.78125-1.9375v-.51563c-1.17188-.5-2.03125-1.09375-2.78125-1.9375l-.54688.53125.76563 1.1875h-3.8125Zm0 0"/><path id="p" d="M2.1875-.85937c0 .65625.32813 1.07812 1.07813 1.07812 1.35937 0 2.39062-1.28125 3.03125-2.6875l-.46875-.26562C5.5-2.0625 4.67188-.75 4.15625-.75c-.21875 0-.29687-.14062-.29687-.39062 0-.17188.04687-.39063.10937-.625l2.04688-7.53125-.10938-.09375-3.39062.51562-.125.45313 1.07812.09375c.32813.03125.46875.125.46875.39062 0 .10938-.01562.28125-.07812.46875l-1.5625 5.85938c-.09375.28124-.10938.51562-.10938.75m2.40625-11.28125c0 .6875.48438 1.04687 1.04688 1.04687.73437 0 1.1875-.48437 1.1875-1.25 0-.73437-.5-1.03125-1.01563-1.03125-.79687 0-1.21875.64063-1.21875 1.23438m0 0"/><path id="q" d="M-1.39062 3.32813c0 .98437 1.3125 1.1875 1.98437 1.1875.625 0 1.21875-.20313 1.67188-.60938.85937-.78125 1.375-1.96875 1.875-4.21875l1.95312-8.98437-.10937-.09375-3.5625.54687-.10938.48438c1.23438.0625 1.65625.09375 1.65625.39062 0 .14063-.03125.26563-.0625.42188L1.71875 2.96875c-.125.57813-.28125.85938-.53125.85938C.4375 3.82813.0625 2.375-.5 2.375c-.46875 0-.89062.59375-.89062.95313M4.3125-12.14062c0 .6875.48438 1.04687 1.04688 1.04687.73437 0 1.1875-.48437 1.1875-1.25 0-.73437-.5-1.03125-1.01563-1.03125-.79687 0-1.21875.64063-1.21875 1.23438m0 0"/><path id="g" d="M-.28125 2.35938c.01563.45312.57813.79687 1.28125.79687 1.375 0 2-1.07812 2.54688-3.54687L4.76563-5.875h1.64062l.14063-.54687H4.84375l.39063-1.59375c.23437-.875.45312-1.21875.76562-1.21875s.53125.26562.84375.92187c.07813.14063.1875.26563.42188.26563.29687 0 .70312-.26563.70312-.625 0-.5625-.71875-1.04688-1.57812-1.04688-1.65625 0-2.32813 1.1875-2.79688 2.85938l-.125.4375h-1.125l-.17187.54687h1.17187L1.8125 1.89063c-.125.67187-.25.76562-.375.76562-.14062 0-.34375-.125-.6875-.65625-.09375-.14062-.1875-.32812-.39062-.32812-.3125 0-.64063.32812-.64063.6875m0 0"/><path id="j" d="M.53125-4.375c0 2.5625.78125 4.53125 3.01563 4.53125 2.21875 0 3-1.96875 3-4.53125s-.78125-4.53125-3-4.53125C1.3125-8.90625.53125-6.9375.53125-4.375m1.5 0c0-1.98437.3125-4.04687 1.51563-4.04687 1.1875 0 1.5 2.0625 1.5 4.04687s-.3125 4.04688-1.5 4.04688c-1.20313 0-1.51563-2.0625-1.51563-4.04688m0 0"/><path id="k" d="M1.42188 0H5.8125v-.40625L4.76563-.5c-.29688-.03125-.4375-.125-.4375-.60937v-7.73438L4.25-8.90625l-2.8125.46875v.35938l1.125.14062c.25.04688.34375.14063.34375.54688v6.28125c0 .48437-.125.57812-.4375.60937l-1.04687.09375Zm0 0"/><path id="l" d="M.375-.15625.53125 0h5.54688l.46875-1.875-.39063-.0625c-.29687.70313-.54687.79688-1.0625.79688H1.73438c.21874-.625.90625-1.5 2.1875-2.35938C5.23438-4.39062 6.1875-5 6.1875-6.4375c0-1.82812-1.23437-2.46875-2.6875-2.46875-1.78125 0-2.79687 1.03125-2.79687 1.82813 0 .46875.53125.6875.8125.6875.25 0 .375-.125.4375-.39063.20312-.90625.6875-1.64062 1.46875-1.64062.90625 0 1.20312.79687 1.20312 1.75 0 1.26562-.5625 2.09375-1.79687 3.15625C1.15625-2.07812.57813-1.125.375-.15625m0 0"/><path id="m" d="M.35938-1.39062c0 .54687.85937 1.54687 2.84375 1.54687 1.95312 0 3.17187-.95312 3.17187-2.625 0-1.78125-1.54687-2.25-2.21875-2.32812v-.04688C4.85938-4.96875 6-5.48437 6-6.78125c0-1.53125-1.26562-2.125-2.65625-2.125-1.67187 0-2.64062.9375-2.64062 1.60938 0 .4375.51562.67187.73437.67187.1875 0 .29688-.125.375-.3125.29688-.92187.73438-1.48437 1.45313-1.48437.96875 0 1.20312.92187 1.20312 1.625 0 .6875-.21875 1.76562-1.29687 1.76562-.59375 0-.98438-.14062-1.17188-.14062-.20312 0-.26562.15625-.26562.40625s.0625.40625.26562.40625c.1875 0 .57813-.14063 1.17188-.14063 1.01562 0 1.64062.82813 1.64062 2.09375 0 1.5-.70312 2.07813-1.59375 2.07813-.79687 0-1.34375-.60938-1.60937-1.45313-.09376-.25-.23438-.39062-.4375-.39062-.29688 0-.8125.28125-.8125.78125m0 0"/><path id="n" d="m.26563-2.64062.15625.3125H3.9375V-1c0 .42188-.15625.48438-.45312.51563l-.84375.07812V0H6.25v-.40625l-.60937-.0625c-.28125-.04687-.375-.10937-.375-.53125v-1.32812h1.34375v-.6875H5.26563V-8.75H4.15625C2.89063-6.89062 1.46875-4.67187.26563-2.64062m1.0625-.375C2.0625-4.375 2.96875-5.85937 3.9375-7.39062v4.375Zm0 0"/><path id="h" d="M.89063-6.46875c0 2.09375.57812 3.82813 1.59375 4.9375C3.54688-.35937 5.07813.28125 7.125.28125s3.57813-.64062 4.64063-1.8125c1.01562-1.10937 1.59375-2.84375 1.59375-4.9375s-.57813-3.82812-1.59375-4.9375c-1.0625-1.17187-2.59375-1.82812-4.64063-1.82812s-3.57812.65625-4.64062 1.82812C1.46875-10.29687.89063-8.5625.89063-6.46875m2.09375 0c0-2.75.8125-6.10937 4.14062-6.10937s4.14063 3.35937 4.14063 6.10937S10.45313-.375 7.125-.375 2.98438-3.71875 2.98438-6.46875m0 0"/><clipPath id="a"><path d="M113 28h2v340.65625h-2Zm0 0"/></clipPath><clipPath id="b"><path d="M43 14h369v354.65625H43Zm0 0"/></clipPath></defs><path fill="none" stroke="#000" stroke-miterlimit="10" stroke-width=".99553" d="M.49612 311.50781h395.56242"/><path fill="none" stroke="#000" stroke-linecap="round" stroke-linejoin="round" stroke-miterlimit="10" stroke-width=".99553" d="M393.76953 308.03906c.50781 2.08203 1.64453 3.0625 2.78906 3.46875-1.14453.40235-2.28125 1.38672-2.78906 3.46875"/><g clip-path="url(#a)"><path fill="none" stroke="#000" stroke-miterlimit="10" stroke-width=".99553" d="M113.80078 368.15624V29.24614"/></g><path fill="none" stroke="#000" stroke-linecap="round" stroke-linejoin="round" stroke-miterlimit="10" stroke-width=".99553" d="M110.33203 31.53516c2.07813-.50782 3.0625-1.64453 3.46875-2.78516.40235 1.14063 1.38672 2.27734 3.46484 2.78516"/><path fill="none" stroke="#000" stroke-miterlimit="10" stroke-width=".99553" d="M113.80078 311.50781h55.65233"/><path fill="none" stroke="#000" stroke-linecap="round" stroke-linejoin="round" stroke-miterlimit="10" stroke-width=".99553" d="M167.16406 308.03906c.51172 2.08203 1.64453 3.0625 2.78906 3.46875-1.14453.40235-2.27734 1.38672-2.78906 3.46875"/><path fill="none" stroke="#000" stroke-miterlimit="10" stroke-width=".99553" d="M113.80078 311.50781v-55.65624"/><path fill="none" stroke="#000" stroke-linecap="round" stroke-linejoin="round" stroke-miterlimit="10" stroke-width=".99553" d="M110.33203 258.14062c2.07813-.5078 3.0625-1.64453 3.46875-2.78906.40235 1.14453 1.38672 2.28125 3.46484 2.78906"/><g clip-path="url(#b)"><path fill="none" stroke="#000" stroke-miterlimit="10" stroke-width=".99553" d="m57.14845 368.15624 42.48827-42.48827 14.16406-14.16016 14.16015-14.16406L142.125 283.1797l14.16405-14.16015 14.16016-14.16406 14.16406-14.16406 14.16406-14.16015 14.16015-14.16406 14.16406-14.16406L241.2656 184.043l14.16015-14.16406 14.16406-14.16406 14.16406-14.16015 14.16016-14.16406 14.16406-14.16406 14.16406-14.16015L340.4023 84.9024l14.16406-14.16406 14.16406-14.16016 14.16015-14.16405 14.16406-14.16407"/></g><path fill="none" stroke="red" stroke-miterlimit="10" stroke-width=".99553" d="m40.15236 293.59375 2.39453-9.0664 2.39453-6.70703 2.39453-5.57813 2.39453-4.8789 2.39453-4.39062 2.39453-4.02735 2.39453-3.73828 2.39453-3.5039 2.39454-3.3125 2.39453-3.14453 2.39453-3.0039 2.39453-2.875 2.39453-2.76954 2.39453-2.66797 2.39453-2.57812 2.39453-2.5 2.39453-2.42578 2.39453-2.35938 2.39453-2.29687 2.39453-2.23828 2.39453-2.1875 2.39454-2.13672 2.39453-2.08984 2.39453-2.04688 2.39453-2.00781 2.39453-1.96484 2.39453-1.9336 2.39062-1.89453 2.39453-1.86328 2.39454-1.83203 2.39453-1.80469 2.39453-1.77734 2.39453-1.7461 2.39453-1.72265 2.39453-1.69922 2.39453-1.67187 2.39453-1.65235 2.39453-1.6328 2.39453-1.60938 2.39453-1.58594 2.39453-1.57031 2.39453-1.55078 2.39454-1.53516 2.39453-1.51562 2.39453-1.4961 2.39453-1.48437 2.39453-1.46485 2.39453-1.45312 2.39453-1.4375 2.39453-1.42187 2.39453-1.41016 2.39453-1.39453 2.39453-1.3789 2.39453-1.3711 2.39453-1.35547 2.39454-1.34375 2.39453-1.33203 2.39453-1.32422 2.39453-1.3086 2.39453-1.30077 2.39453-1.28516 2.39453-1.27734 2.39453-1.26953 2.39453-1.25782 2.39453-1.25 2.39453-1.23828 2.39453-1.23046 2.39454-1.21876 2.39453-1.21093 2.39453-1.20313 2.39453-1.1953 2.39453-1.1875 2.39453-1.17579 2.39453-1.17188 2.39453-1.16406 2.39453-1.15234 2.39453-1.14844 2.39453-1.14062 2.39453-1.13281 2.39453-1.125 2.39454-1.1172 2.39453-1.11327 2.39453-1.10547 2.39453-1.09766 2.39453-1.09375 2.39453-1.08593 2.39453-1.07813 2.39453-1.07422 2.39063-1.0664 2.39453-1.0625 2.39453-1.0547 2.39453-1.05077 2.39453-1.04688 4.78906-2.0703 2.39453-1.02735 2.39453-1.02344 2.39453-1.01562 2.39453-1.01172 2.39453-1.00782 2.39454-1.0039 2.39453-.9961 2.39453-.99218 2.39453-.98828 2.39453-.98438 2.39453-.97656 2.39453-.97266 2.39453-.96875 4.78906-1.92968 4.78906-1.90625 4.78907-1.89063 4.78906-1.875 4.78906-1.85937 4.78906-1.84375 4.78906-1.82813 4.78906-1.8125 4.78906-1.79687 2.39454-.89453 2.39453-.89063 2.39453-.88672 4.78906-1.76562 4.78906-1.75 2.39453-.8711 2.39453-.86718 2.39453-.86328 4.78906-1.71875 2.39454-.85547 2.39453-.85156 2.39453-.84766 4.78906-1.6875 2.39453-.83984 4.78906-1.67188 2.39453-.83203 2.39453-.82812 2.39453-.82422"/><use xlink:href="#c" x="404.68315" y="16.10297"/><use xlink:href="#d" x="419.91459" y="16.10297"/><use xlink:href="#e" x="437.25653" y="16.10297"/><use xlink:href="#f" x="404.68315" y="69.72884"/><use xlink:href="#g" x="419.95372" y="74.10956"/><use xlink:href="#h" x="91.91122" y="332.37928"/><use xlink:href="#i" x="28.95133" y="328.53616"/><use xlink:href="#j" x="41.25612" y="332.91688"/><use xlink:href="#i" x="178.08073" y="328.53616"/><use xlink:href="#k" x="190.38552" y="332.91688"/><use xlink:href="#i" x="121.43013" y="242.84429"/><use xlink:href="#k" x="133.73492" y="247.22501"/><use xlink:href="#i" x="85.60194" y="164.17516"/><use xlink:href="#l" x="97.90673" y="168.55388"/><use xlink:href="#i" x="253.3564" y="328.53616"/><use xlink:href="#l" x="265.66119" y="332.91688"/><use xlink:href="#i" x="85.60194" y="118.26851"/><use xlink:href="#m" x="97.90673" y="122.64924"/><use xlink:href="#i" x="299.1861" y="328.53616"/><use xlink:href="#m" x="311.49089" y="332.91688"/><use xlink:href="#i" x="85.60194" y="99.36666"/><use xlink:href="#n" x="97.90673" y="103.74738"/><use xlink:href="#i" x="318.1649" y="328.53616"/><use xlink:href="#n" x="330.46969" y="332.91688"/><use xlink:href="#o" x="146.47338" y="334.29085"/><use xlink:href="#p" x="138.31149" y="338.49171"/><use xlink:href="#o" x="107.18279" y="286.39769"/><use xlink:href="#q" x="99.21875" y="290.59855"/><path fill="none" stroke="#000" stroke-dasharray=".9955327900000001 1.9910555875" stroke-miterlimit="10" stroke-width=".99553" d="M113.80078 161.6641h56.64843m93.19139 149.84371V161.6641M57.14845 311.50781v-56.65233m113.30075 56.65233v-56.65233m93.1914-139.02341H113.80078m195.67184 0V311.5078m18.97656-214.65229h-214.6484m214.6484 0v214.6523"/><path fill="none" stroke="#000" stroke-dasharray="2.9865883775 2.9865883775" stroke-miterlimit="10" stroke-width=".99553" d="M57.14845 254.85548H170.4492m0 0v-93.19139m0 .00001h93.1914m0 0v-45.83203m0 0h45.83202m0 0V96.8555m0 .00001h18.97656m0 0v-7.42187m0 0h7.42187"/></svg>