<svg xmlns="http://www.w3.org/2000/svg" xmlns:xlink="http://www.w3.org/1999/xlink" width="208.211pt" height="285.755pt" viewBox="0 0 208.211 285.755"><defs><path id="a" d="M1 0h3.34375v-6.53125h4.1875v-.9375h-4.1875v-4.51562h5.20313v-.9375H1Zm.92188-.9375v-11.04687h1.48437V-.9375Zm0 0"/><path id="b" d="M.375-.15625.53125 0H6.0625l.46875-1.85937-.39062-.07813c-.3125.70313-.54688.79688-1.07813.79688H1.73438c.20312-.625.90625-1.5 2.17187-2.34375 1.3125-.89063 2.26563-1.5 2.26563-2.9375 0-1.8125-1.23438-2.45313-2.6875-2.45313C1.70313-8.875.6875-7.84375.6875-7.0625c0 .48438.54688.70313.82813.70313.25 0 .375-.14063.42187-.39063.21875-.92187.70313-1.64062 1.46875-1.64062.90625 0 1.20313.79687 1.20313 1.73437 0 1.26563-.5625 2.09375-1.79688 3.15625C1.15625-2.0625.5625-1.125.375-.15625m0 0"/><path id="c" d="M1.10938 0h3.5v-.34375l-.78125-.0625C3.59375-.42187 3.48438-.5 3.48438-.875v-6.03125l-.07813-.07812-2.26562.375v.29687l.8125.125c.21874.03125.29687.10938.29687.4375v4.875c0 .375-.10937.45313-.34375.46875l-.79687.0625Zm0 0"/><path id="d" d="M.3125-.14062.4375 0H4.875l.39063-1.54687-.32813-.0625c-.25.54687-.4375.625-.85937.625H1.46875c.17188-.45313.65625-1.125 1.6875-1.76563 1.07813-.6875 1.79688-1.1875 1.79688-2.29687 0-1.4375-.98438-1.9375-2.15625-1.9375-1.375 0-2.25.76562-2.25 1.46875 0 .39062.45312.57812.70312.57812.20313 0 .3125-.10937.35938-.32812.17187-.75.54687-1.3125 1.125-1.3125.65625 0 .89062.59375.89062 1.32812 0 .90625-.375 1.60938-1.375 2.45313C.90625-1.65625.4375-.89062.3125-.14062m0 0"/><path id="e" d="m.21875-2.0625.14063.25H3.0625v1.03125c0 .29688-.10937.35938-.3125.39063l-.65625.04687V0h2.89063v-.34375L4.51563-.375c-.21875-.04687-.28125-.10937-.28125-.40625V-1.8125h1.03125v-.57812H4.23438v-4.46875H3.25c-1.01562 1.5-2.10937 3.21875-3.03125 4.79687m.89063-.32812c.5625-1.03125 1.23437-2.15625 1.95312-3.32813v3.32813Zm0 0"/><path id="f" d="M.40625-3.25c0 2.15625.76563 3.375 2.48438 3.375 1.65625 0 2.4375-1.03125 2.4375-2.35937 0-1.40625-.89063-2.14063-1.98438-2.14063-.75 0-1.32812.46875-1.65625.875.01563-1.60937.42188-3.07812 1.375-3.07812.45313 0 .76563.40625.9375 1.04687.04688.14063.15625.25.34375.25.25 0 .65625-.1875.65625-.53125 0-.45312-.5625-1.17187-1.85937-1.17187-1.6875 0-2.73438 1.25-2.73438 3.73437m1.28125.84375c0-.625.42188-1.29687 1.1875-1.29687.60938 0 1.17188.51562 1.17188 1.6875 0 1.01562-.32813 1.73437-1.125 1.73437-.82813 0-1.23438-.95312-1.23438-2.125m0 0"/><path id="g" d="M.3125-1.125c0 .42188.60938 1.25 2.25 1.25 1.5625 0 2.53125-.73437 2.53125-2.04687 0-1.42188-1.23437-1.76563-1.73437-1.82813v-.04687c.5625-.10938 1.45312-.48438 1.45312-1.48438 0-1.26562-1.0625-1.70312-2.14062-1.70312-1.29688 0-2.125.70312-2.125 1.29687 0 .375.45312.54688.64062.54688.17188 0 .28125-.09375.32813-.26563.23437-.73437.57812-1.17187 1.10937-1.17187.71875 0 .875.75.875 1.26562 0 .5-.14062 1.375-.95312 1.375-.45313 0-.76563-.125-.9375-.125-.17188 0-.23438.125-.23438.34375 0 .20313.0625.34375.23438.34375.17187 0 .48437-.125.9375-.125C3.25-3.5 3.75-2.95312 3.75-1.89062 3.75-.75 3.26563-.28126 2.59375-.28126c-.57812 0-.98437-.4375-1.23437-1.1875-.0625-.1875-.1875-.29687-.35938-.29687-.28125 0-.6875.21874-.6875.64062m0 0"/></defs><use xlink:href="#a" x="88.52255" y="19.9553"/><use xlink:href="#b" x="98.58641" y="24.32275"/><use xlink:href="#c" x="105.63172" y="20.22428"/><use xlink:href="#d" x="111.25424" y="20.22428"/><use xlink:href="#a" x="176.05286" y="104.67427"/><use xlink:href="#b" x="186.11673" y="109.03973"/><use xlink:href="#e" x="193.16203" y="104.94126"/><use xlink:href="#a" x="6.61593" y="104.67427"/><use xlink:href="#b" x="16.67979" y="109.03973"/><use xlink:href="#f" x="23.7251" y="104.94126"/><use xlink:href="#a" x="6.61593" y="189.39224"/><use xlink:href="#b" x="16.67979" y="193.75969"/><use xlink:href="#g" x="23.7251" y="189.66122"/><use xlink:href="#a" x="91.3339" y="189.39224"/><use xlink:href="#b" x="101.39776" y="193.75969"/><use xlink:href="#d" x="108.44306" y="189.66122"/><use xlink:href="#a" x="94.56266" y="274.1102"/><use xlink:href="#b" x="104.62653" y="278.47765"/><path fill="none" stroke="#000" stroke-miterlimit="10" stroke-width=".397" d="M103.71094 254.17578v-53.40235m-16.16016 53.40235L38.3867 200.77343m-19.39452-31.31641v-53.40235m65.32813 53.40235-45.9336-53.40235m84.71485 53.40235 45.93751-53.40235M38.38671 84.73826l43.125-53.40235m87.52736 53.40235-43.125-53.40235"/></svg>