<svg xmlns="http://www.w3.org/2000/svg" xmlns:xlink="http://www.w3.org/1999/xlink" width="618.111pt" height="159.202pt" viewBox="0 0 618.111 159.202"><defs><path id="a" d="M.79688-5.3125c0 1.85938.60937 3.39063 1.57812 4.21875C3.46875-.14062 5 .28125 6.71875.28125c1.375 0 2.875-.32812 3.95313-.71875l.89062-3.76562c.15625-.64063.25-.89063.57813-.9375l.8125-.07813.10937-.53125H8.15625l-.10937.53125 1.39062.125c.26563.01563.375.14063.375.4375 0 .10938-.01562.25-.0625.45313l-.67187 2.8125C8.9375-.85937 8.70313-.375 6.76563-.375 4.5-.375 2.85938-1.89062 2.85938-5.17187c0-2.98438 1.4375-7.35938 5.90625-7.35938 2.4375 0 2.85937 1.42188 2.96875 3.1875h.5625l.67187-2.90625c-1.125-.625-2.625-.9375-4.1875-.9375-2.85937 0-4.92187 1.03125-6.21875 2.70313C1.32813-8.92187.79688-6.95312.79688-5.3125m0 0"/><path id="c" d="M.79688-3.60937C.79688-1.40625 2.5.07813 4.71875.21875L3.8125 4.5l1.78125-.51562.8125-3.76563c3.64063-.20312 6.20313-3.3125 6.20313-6.60937 0-2.32813-1.45313-2.96875-3.125-2.96875-1.59375 0-3.01563 1.85937-3.5 3.92187C5.59375-3.73437 5.15625-1.90625 4.875-.51562c-1.76562-.125-2.34375-1.07813-2.34375-2.4375 0-2 .57813-4.03125 2.17188-5.84375L4.5-9.15625C1.89063-7.76562.79688-5.95312.79688-3.60937m5.75 3.15625L7.6875-5.75c.26563-1.1875.85938-2.95312 2.01563-2.95312.85937 0 1.10937.96875 1.10937 2.04687 0 2.8125-1.10937 6.125-4.26562 6.20313m0 0"/><path id="d" d="M1.60938-5.25c0 4.20313.95312 8.8125 4.89062 8.98438v-.5625c-1.32812-.25-3.40625-1.90625-3.40625-8.42188 0-6.48437 1.98438-8.14062 3.40625-8.4375v-.54687C2.5625-14.07812 1.60938-9.45312 1.60938-5.25m0 0"/><path id="e" d="M1.10938 3.17188v.5625C5.0625 3.5625 6.01563-1.04687 6.01563-5.25s-.95313-8.82812-4.90625-8.98437v.54687c1.42187.29688 3.40625 1.95313 3.40625 8.4375 0 6.51563-2.07813 8.17188-3.40625 8.42188m0 0"/><path id="g" d="M1.70313 3.73438h1.25L8.0625-14.23438H6.82813Zm0 0"/><path id="k" d="M.65625-.45312c0 .4375.57813.67187.84375.67187 1 0 1.6875-1.23437 2.03125-2.0625.4375-1.09375 1.0625-3.4375 1.625-6.09375H7.5L6.28125-2.29687c-.0625.39062-.09375.75-.09375 1.04687 0 .95313.29688 1.46875.96875 1.46875 1.375 0 2.40625-1.03125 3.0625-2.59375l-.4375-.26562C9.29688-1.6875 8.54688-.73437 8.125-.73437c-.21875 0-.26562-.21876-.26562-.54688 0-.20312.01562-.46875.04687-.70312l1.25-5.95313h1.625l.76563-1.42187c-.54688.14062-1.3125.20312-2.1875.20312H4.0625c-.95312 0-2.26562.46875-2.96875 1.60938l.29688.32812c.75-.57812 1.71875-.71875 2.71875-.71875C3.3125-4.65625 2.75-1.70312 1.70313-1.53125 1.23438-1.45312.65625-1.17187.65625-.45312m0 0"/><path id="b" d="M1.42188 0h4.35937v-.40625L4.75-.5c-.29687-.03125-.4375-.125-.4375-.60937v-7.6875l-.07812-.0625-2.8125.46875v.34375l1.125.15625c.25.03125.34375.14062.34375.53125v6.25c0 .48437-.125.57812-.4375.60937l-1.03125.09375Zm0 0"/><path id="f" d="M.375-.15625.53125 0h5.51563l.46875-1.85937-.39063-.0625c-.29687.6875-.53125.78125-1.0625.78125H1.73438c.20312-.625.90625-1.5 2.17187-2.34375 1.3125-.89063 2.25-1.5 2.25-2.92188 0-1.82812-1.23437-2.45312-2.67187-2.45312-1.78125 0-2.79688 1.01562-2.79688 1.8125 0 .46875.54688.6875.82813.6875.25 0 .375-.14063.42187-.39063.21875-.90625.70313-1.625 1.46875-1.625.90625 0 1.20313.78125 1.20313 1.73438 0 1.25-.57813 2.09375-1.79688 3.14062C1.15625-2.0625.5625-1.125.375-.15625m0 0"/><path id="l" d="M.6875-3.71875C.6875-.35937 3.17188.1875 4.82813.1875c.95312 0 2.04687-.20312 2.84375-.54687l.60937-2.54688c.10938-.45312.17188-.64062.42188-.67187l.5625-.0625.09375-.39063H5.76563l-.09375.39063.95312.09375c.17188.01562.25.09375.25.29687 0 .09375-.01562.20313-.04687.34375L6.375-1c-.10937.42188-.26562.6875-1.48437.6875-1.5625 0-2.5625-1.01562-2.5625-3.1875 0-2.14062 1-5.23437 3.96875-5.23437 1.625 0 1.98437 1 2.0625 2.26562h.42187l.45313-2.10937c-.78125-.45313-1.85938-.65625-2.90625-.65625-4.5 0-5.64063 3.53125-5.64063 5.51562m0 0"/><path id="n" d="M1.14063 2.60938H2.125L5.70313-9.96875h-.98438Zm0 0"/><path id="r" d="M1.125-3.67187c0 2.8125.70313 6.17187 3.34375 6.28125v-.4375C3.5625 2 2.28125.6875 2.28125-3.67187c0-4.34375 1.25-5.67188 2.1875-5.85938v-.4375C1.82813-9.84375 1.125-6.5 1.125-3.67187m0 0"/><path id="s" d="M.5625-2.4375C.5625-.92187 1.65625.07813 3.32813.15625l-.625 3 1.45312-.375.5625-2.625C7.40625.01563 9.07813-2.125 9.07813-4.42187c0-1.64063-1.04688-2.10938-2.20313-2.10938-1.25 0-2.3125 1.20313-2.65625 2.73438-.28125 1.17187-.5625 2.45312-.76562 3.40625-1.14063-.07813-1.5625-.76563-1.5625-1.70313 0-1.35937.48437-2.84375 1.5-4.03125l-.17188-.28125C1.32813-5.4375.5625-4.125.5625-2.4375M4.82813-.35937 5.625-4.03125c.17188-.8125.59375-2.01562 1.34375-2.01562.5625 0 .73438.625.73438 1.3125 0 1.92187-.76563 4.3125-2.875 4.375m0 0"/><path id="t" d="M.79688 2.17188v.4375C3.42188 2.5 4.15625-.85937 4.15625-3.67187c0-2.82813-.73437-6.17188-3.35937-6.29688v.4375C1.75-9.34375 3-8 3-3.67187 3 .6875 1.67188 2.01563.79688 2.17188m0 0"/><path id="h" d="M.375 0h4.54688v-.53125C3.59375-.64062 3.53125-.67187 3.53125-1.625v-3.10937h.03125C4.34375-3.53125 5.65625-1.90625 6.625-.90625c.6875.6875 1.40625.90625 2 .95313l1.40625.04687V-.4375C9.48438-.59375 9-.85937 8.42188-1.42187c-1.14063-1.14063-2.59375-2.92188-3.3125-3.9375-.09375-.14063-.125-.21875.04687-.40625.89063-1.03125 1.5-1.57813 2.14063-2.04688s1.09375-.67187 2.1875-.79687v-.53125h-1.9375c-.625 0-.8125.09375-1.1875.5625C5.82813-7.9375 4-5.625 3.5625-5h-.03125v-8.71875l-.14062-.09375-2.92188.45313v.46875l.70313.0625c.46875.0625.59375.15625.59375.875V-1.625c0 .95313-.04688.98438-1.39063 1.09375Zm0 0"/><path id="i" d="M.90625-4.5c0 2.95313 1.28125 4.71875 4.3125 4.71875 2.0625 0 3.125-1.15625 3.625-2.625l-.5625-.29687C7.76563-1.60937 7.0625-.73437 5.59375-.73437c-2.32812 0-2.78125-2.21875-2.73437-4.15625h5.375c.39062 0 .73437-.10938.73437-.71875 0-1.09375-.35937-3.75-3.78125-3.75C2.28125-9.35937.90625-7.29687.90625-4.5M2.875-5.60937c0-.78125.28125-3.09375 2.21875-3.09375 1.73438 0 1.92188 1.76562 1.92188 2.5 0 .35937-.10938.59375-.625.59375Zm0 0"/><path id="j" d="M.59375 0h4.92188v-.53125C3.84375-.64062 3.75-.67187 3.75-1.625v-4.35937c0-1.4375.625-1.92188 1.0625-1.92188.29688 0 .625.10938 1.15625.40625.14063.07813.28125.10938.375.10938.45313 0 .85938-.48438.85938-1.0625 0-.40625-.26563-.90625-1-.90625-.67188 0-1.21875.39062-2.45313 1.48437l-.21875-1.48437-2.84375.46875v.46875l.70313.09375C1.85938-8.25 2-8.17187 2-7.5v5.875C2-.67187 1.90625-.64062.59375-.53125Zm0 0"/><path id="m" d="M1.10938 0h3.5v-.34375l-.79688-.0625C3.59375-.42187 3.48438-.5 3.48438-.875v-6.03125l-.07813-.0625-2.26562.375v.29688l.8125.10937c.21874.03125.29687.125.29687.45313V-.875c0 .375-.10937.45313-.35937.46875l-.78125.0625Zm0 0"/><path id="o" d="M.26563 0H3.4375v-.375c-.92187-.0625-.96875-.09375-.96875-.76562V-3.3125H2.5c.53125.84375 1.45313 1.98438 2.14063 2.67188C5.125-.15625 5.625 0 6.03125.03124l.98438.03125v-.375C6.625-.42187 6.29688-.59375 5.89063-1c-.79688-.79687-1.8125-2.03125-2.3125-2.75-.0625-.09375-.09375-.15625.03125-.28125.625-.73437 1.04687-1.10937 1.5-1.4375.4375-.32812.76562-.46875 1.51562-.54687v-.375H5.28125c-.4375 0-.5625.0625-.82812.375C4.07813-5.54687 2.79688-3.9375 2.5-3.5h-.03125v-6.09375L2.375-9.67187l-2.04687.3125v.34375l.48437.03125c.34375.04687.42188.125.42188.625v7.21875c0 .67187-.03126.70312-.96875.76562Zm0 0"/><path id="p" d="M.64063-3.15625c0 2.07813.89062 3.3125 3.01562 3.3125 1.4375 0 2.1875-.8125 2.53125-1.82812l-.39062-.21876c-.35938.76563-.85938 1.375-1.89063 1.375C2.29688-.51562 1.96875-2.0625 2-3.42186h3.76563c.26562 0 .5-.07813.5-.5 0-.76563-.25-2.625-2.625-2.625-2.04688 0-3 1.4375-3 3.39062m1.375-.76562c0-.54688.1875-2.17188 1.54687-2.17188 1.20313 0 1.34375 1.23438 1.34375 1.75 0 .25-.07812.42188-.4375.42188Zm0 0"/><path id="q" d="M.42188 0h3.4375v-.375C2.6875-.4375 2.625-.46875 2.625-1.14062V-4.1875c0-1 .4375-1.34375.75-1.34375.20313 0 .42188.07813.79688.28125.10937.0625.20312.07813.26562.07813.32813 0 .59375-.34375.59375-.73438 0-.29687-.17187-.64062-.6875-.64062-.46875 0-.85937.28125-1.71875 1.03125l-.15625-1.03125-1.98437.32812v.32813l.48437.0625c.32813.0625.4375.10937.4375.57812v4.10938c0 .67187-.07812.70312-.98437.76562Zm0 0"/></defs><use xlink:href="#a" x="86.74881" y="34.02346"/><use xlink:href="#b" x="100.01233" y="38.38559"/><use xlink:href="#c" x="315.63552" y="34.47917"/><use xlink:href="#d" x="329.41452" y="34.47917"/><use xlink:href="#a" x="337.02767" y="34.47917"/><use xlink:href="#b" x="350.2918" y="38.84131"/><use xlink:href="#e" x="358.51658" y="34.47917"/><use xlink:href="#a" x="588.03014" y="34.02346"/><use xlink:href="#f" x="601.29366" y="38.38559"/><use xlink:href="#a" x="174.66911" y="147.29966"/><use xlink:href="#b" x="187.93263" y="151.6618"/><use xlink:href="#g" x="196.1574" y="147.29966"/><use xlink:href="#h" x="208.13536" y="147.29966"/><use xlink:href="#i" x="217.88971" y="147.29966"/><use xlink:href="#j" x="227.46562" y="147.29966"/><use xlink:href="#d" x="234.7022" y="147.29966"/><use xlink:href="#c" x="242.31534" y="147.29966"/><use xlink:href="#e" x="256.09434" y="147.29966"/><path fill="none" stroke="#000" stroke-miterlimit="10" stroke-width=".39651" d="M115.24218 29.61328h192.996"/><path fill="none" stroke="#000" stroke-linecap="round" stroke-linejoin="round" stroke-miterlimit="10" stroke-width=".39651" d="M306.375 27.23438c.375 1.42578 1.21484 2.10156 2.0586 2.3789-.84376.27735-1.6836.94922-2.0586 2.3789"/><use xlink:href="#c" x="205.2548" y="15.96597"/><path fill="none" stroke="#000" stroke-miterlimit="10" stroke-width=".39651" d="M97.49219 45.39062c0 46.75779 23.41405 97.04292 69.7773 97.04292"/><path fill="none" stroke="#000" stroke-linecap="round" stroke-linejoin="round" stroke-miterlimit="10" stroke-width=".39651" d="M162.94531 140.05469c.37891 1.42578 1.21875 2.10156 2.0625 2.3789-.84375.27735-1.68359.95313-2.0625 2.3789m2.46094-4.7578c.375 1.42578 1.21484 2.10156 2.0625 2.3789-.84766.27735-1.6875.95313-2.0625 2.3789"/><use xlink:href="#k" x="7.70701" y="86.64768"/><use xlink:href="#l" x="18.84916" y="91.00981"/><use xlink:href="#m" x="28.29979" y="94.06251"/><use xlink:href="#n" x="34.74946" y="91.00981"/><use xlink:href="#o" x="43.13343" y="91.00981"/><use xlink:href="#p" x="49.96148" y="91.00981"/><use xlink:href="#q" x="56.66462" y="91.00981"/><use xlink:href="#r" x="61.72823" y="91.00981"/><use xlink:href="#s" x="66.98804" y="91.00981"/><use xlink:href="#t" x="76.88315" y="91.00981"/><path fill="none" stroke="#000" stroke-dasharray="2.9739157383 2.9739157383" stroke-miterlimit="10" stroke-width=".39651" d="M270.71476 142.43354c46.69529 0 70.17184-49.75388 70.17184-96.05464"/><path fill="none" stroke="#000" stroke-linecap="round" stroke-linejoin="round" stroke-miterlimit="10" stroke-width=".39651" d="M338.50781 48.24219c1.42578-.375 2.10157-1.21485 2.3789-2.0586.27735.84375.94923 1.6836 2.37891 2.0586"/><path fill="none" stroke="#000" stroke-miterlimit="10" stroke-width="1.09053" d="M355.52734 86.1875h13.35938"/><use xlink:href="#c" x="355.52557" y="99.36294"/><path fill="none" stroke="#000" stroke-miterlimit="10" stroke-width=".39651" d="M375.12095 29.61328h205.51553"/><path fill="none" stroke="#000" stroke-linecap="round" stroke-miterlimit="10" stroke-width=".39651" d="M375.1211 29.61328h-.35938c-.78906 0-1.42578-.79297-1.42578-1.42969 0-.79296.63672-1.42578 1.42578-1.42578"/><path fill="none" stroke="#000" stroke-linecap="round" stroke-linejoin="round" stroke-miterlimit="10" stroke-width=".39651" d="M578.77344 27.23438c.375 1.42578 1.21484 2.10156 2.0586 2.3789-.84376.27735-1.6836.94922-2.0586 2.3789"/></svg>