<svg xmlns="http://www.w3.org/2000/svg" xmlns:xlink="http://www.w3.org/1999/xlink" width="198.824pt" height="198.824pt" viewBox="0 0 198.824 198.824"><defs><path id="a" d="M.59375-.73437c0 .53125.4375.95312 1.20313.95312 1.26562 0 1.98437-1.28125 2.76562-2.53125l.75-1.23437h.04688L5.6875-2.0625C6.04688-.57812 6.39063.21875 7.34375.21875 8.71875.21875 9.4375-1.1875 10-2.32812l-.48437-.26563C9.0625-1.75 8.54688-.75 8.01563-.75c-.35938 0-.48438-.42187-.90625-2.09375l-.59375-2.45312c.67187-1.1875 1.625-2.6875 2.15625-2.6875.5625 0 .57812.29687 1.14062.29687.42188 0 .79688-.39062.79688-.89062 0-.57813-.4375-.8125-.95313-.8125-1 0-1.82812.89062-2.48437 1.95312l-.82813 1.26563H6.3125L5.54688-9.3125l-.09375-.07812-3.07813.9375L2.40625-8 3.875-8.10937c.3125 0 .4375.14062.625.9375l.65625 2.71875-.51562.89062c-.79688 1.375-1.5 2.34375-1.95313 2.34375-.53125 0-.67187-.45312-1.28125-.45312-.46875 0-.8125.48437-.8125.9375m0 0"/><path id="b" d="M1.60938-5.28125c0 4.21875.95312 8.85938 4.92187 9.03125v-.5625c-1.32812-.26562-3.42187-1.90625-3.42187-8.46875 0-6.5 1.98437-8.15625 3.42187-8.45312v-.5625C2.5625-14.14062 1.60938-9.5 1.60938-5.28125m0 0"/><path id="c" d="M1.79688-2.84375c0 2.625 1.6875 3.0625 2.78125 3.0625 1.375 0 3.03125-.59375 4.29687-2.67187l-.4375-.375c-.67187.875-1.6875 2.125-3.07812 2.125-1.3125 0-1.71875-1.10938-1.71875-2.57813 0-.10937 0-.15625.01562-.29687C6.8125-4.21875 8.1875-4.98437 8.98438-5.73437c.65625-.65625.79687-1.26563.79687-1.79688 0-.98437-.79687-1.85937-2.34375-1.85937-1.6875 0-3.0625.84375-4.09375 2.125-1 1.21875-1.54687 2.84375-1.54687 4.42187m1.90625-1.375c.3125-2.26562 1.73437-4.51562 3.21875-4.51562C7.57813-8.73437 8-8.29687 8-7.64062c0 1.3125-1.125 2.75-4.29687 3.42187m0 0"/><path id="e" d="M1.10938 3.1875V3.75c3.96875-.17187 4.92187-4.8125 4.92187-9.03125s-.95312-8.85937-4.92187-9.01562v.5625c1.4375.29687 3.42187 1.95312 3.42187 8.45312 0 6.5625-2.07812 8.20313-3.42187 8.46875m0 0"/><path id="l" d="M1.59375-4.73437h10.29688v-1.09375H1.59375Zm0 0"/><path id="m" d="M.29688-3.96875c0 2.23438 2.21875 4.17188 4.28125 4.17188 2.625 0 4.29687-2.625 4.625-3.15625.35937.6875 2.15625 3.17187 5.0625 3.17187 3.46875 0 4.46875-2.625 4.46875-4.84375s-2.09376-4-4.15626-4c-2.5 0-3.84374 1.79688-4.64062 2.89063-.73437-1.1875-2.375-2.84375-4.95312-2.84375-3.40625 0-4.6875 2.40625-4.6875 4.60937m1.17187.0625c0-1.85937 1.3125-3.34375 2.89063-3.34375 1.875 0 3.4375 1.96875 4.3125 3.375C7.96875-2.60937 6.625-.65625 4.51563-.65625c-1.34375 0-3.04688-1.54687-3.04688-3.25m9-.98437C11.1875-6.17187 12.54688-7.75 14.65625-7.75c1.34375 0 2.98438 1.35938 2.98438 3.04688 0 1.89062-1.01563 3.625-2.82813 3.625-1.9375 0-3.46875-2.14063-4.34375-3.8125m0 0"/><path id="n" d="M1.59375-4.73437H6.1875v4.59375h1.09375v-4.59375h4.60938v-1.09375H7.28125v-4.60938H6.1875v4.60938H1.59375Zm0 0"/><path id="d" d="M.45313-.5625c0 .39063.32812.71875.89062.71875.875 0 1.35938-.84375 1.89063-1.71875l.5-.85937h.03125l.23437 1c.23438 1 .48438 1.57812 1.1875 1.57812C6.21875.15625 6.78125-.875 7.17188-1.75l-.34375-.20312c-.3125.625-.70313 1.34375-1.0625 1.34375-.25 0-.34375-.28126-.59375-1.29688l-.46875-1.85937c.45312-.78125 1.0625-1.71875 1.42187-1.71875.39063 0 .46875.21875.85938.21875.3125 0 .59375-.3125.59375-.70313 0-.42187-.3125-.60937-.6875-.60937-.67188 0-1.25.5625-1.70313 1.28125l-.59375.90625h-.01562l-.51563-2.125L4-6.57812l-2.29687.65625.03124.34375.95313-.0625c.23438 0 .34375.09375.46875.59375L3.625-3.09375l-.35937.64063C2.76563-1.57812 2.3125-.9375 2-.9375c-.39062 0-.51562-.34375-.92187-.34375-.35938 0-.625.35938-.625.71875m0 0"/><path id="f" d="M.57813-.1875C.57813-.125.73437 0 .92188 0c.10937 0 .3125-.03125.34375-.10937l2.34375-6c.07812-.1875.09375-.29688.09375-.35938 0-.28125-.42188-.39062-.82813-.39062-.39062 0-1.01562.15625-1.0625.40625Zm0 0"/><path id="o" d="M.39063-3.125C.39063-1.25.9375.10938 2.48438.10938 4.01563.10938 4.57813-1.25 4.57813-3.125s-.5625-3.23437-2.09375-3.23437C.9375-6.35937.39063-5 .39063-3.125m.9375 0c0-1.51562.26562-2.90625 1.15625-2.90625.875 0 1.14062 1.39063 1.14062 2.90625 0 1.51563-.26562 2.90625-1.14062 2.90625-.89063 0-1.15625-1.39062-1.15625-2.90625m0 0"/><path id="p" d="M.79688-2.375h2.29687v2.3125h.54688V-2.375H5.9375v-.54687H3.64063v-2.29688h-.54688v2.29688H.79688Zm0 0"/><path id="q" d="M.15625-1.98437C.15625-.85937 1.25.09375 2.29688.09375c1.3125 0 2.14062-1.3125 2.29687-1.5625.1875.32813 1.09375 1.57813 2.54688 1.57813 1.73437 0 2.21875-1.3125 2.21875-2.42188s-1.03125-2-2.07813-2c-1.23437 0-1.92187.90625-2.3125 1.45313-.375-.60938-1.1875-1.4375-2.48437-1.4375-1.70313 0-2.32813 1.21875-2.32813 2.3125m.57813.03124c0-.9375.65625-1.67187 1.45312-1.67187.92188 0 1.71875.98438 2.15625 1.6875-.35937.64063-1.03125 1.60938-2.07812 1.60938-.6875 0-1.53125-.78125-1.53125-1.625m4.5-.5c.35937-.625 1.03125-1.42187 2.09375-1.42187.67187 0 1.48437.6875 1.48437 1.53125 0 .9375-.5 1.8125-1.40625 1.8125-.96875 0-1.73437-1.07812-2.17187-1.92187m0 0"/><clipPath id="g"><path d="M0 56h198.64844v2H0Zm0 0"/></clipPath><clipPath id="h"><path d="M0 113h198.64844v1H0Zm0 0"/></clipPath><clipPath id="i"><path d="M0 198h198.64844v.64844H0Zm0 0"/></clipPath><clipPath id="j"><path d="M0 0h198.64844v198.64844H0Zm0 0"/></clipPath><clipPath id="k"><path d="M84 0h2v198.64844h-2Zm0 0"/></clipPath></defs><use xlink:href="#a" x="36.97727" y="33.10969"/><use xlink:href="#b" x="22.33823" y="90.70171"/><use xlink:href="#c" x="29.98277" y="90.70171"/><use xlink:href="#d" x="40.99171" y="82.73876"/><use xlink:href="#e" x="50.32345" y="90.70171"/><use xlink:href="#f" x="57.96869" y="82.73876"/><use xlink:href="#c" x="32.50922" y="163.1276"/><use xlink:href="#d" x="43.51948" y="155.16465"/><g clip-path="url(#g)"><path fill="none" stroke="#000" stroke-miterlimit="10" stroke-width=".39815" d="M.19922 56.84377H198.4493"/></g><g clip-path="url(#h)"><path fill="none" stroke="#000" stroke-miterlimit="10" stroke-width=".39815" d="M.19922 113.48833H198.4493"/></g><g clip-path="url(#i)"><path fill="none" stroke="#000" stroke-miterlimit="10" stroke-width=".39815" d="M.19922 198.4532H198.4493"/></g><g clip-path="url(#j)"><path fill="none" stroke="#000" stroke-miterlimit="10" stroke-width=".39815" d="M.19922.19922V198.4532H198.4493V.1992Zm0 0"/></g><g clip-path="url(#k)"><path fill="none" stroke="#000" stroke-miterlimit="10" stroke-width=".39815" d="M85.1641.19922V198.4532"/></g><use xlink:href="#l" x="97.20995" y="32.72104"/><use xlink:href="#m" x="110.66753" y="32.72104"/><use xlink:href="#n" x="153.85281" y="33.62723"/><use xlink:href="#m" x="167.31038" y="33.62723"/><use xlink:href="#n" x="135.07743" y="90.379"/><path fill="#FFF" d="M109.01563 194.46875h8.9375v-10.44922h-8.9375Zm0 0"/><use xlink:href="#o" x="111.00574" y="192.36772"/><path fill="#FFF" d="M109.01563 194.46875h8.9375v-10.44922h-8.9375Zm0 0"/><use xlink:href="#o" x="111.00574" y="192.36772"/><path fill="#FFF" d="M160 126.77344h20.25781v-9.30469H160Zm0 0"/><use xlink:href="#p" x="161.98961" y="124.67264"/><use xlink:href="#q" x="168.71839" y="124.67264"/><path fill="#FFF" d="M160 126.77344h20.25781v-9.30469H160Zm0 0"/><use xlink:href="#p" x="161.98961" y="124.67264"/><use xlink:href="#q" x="168.71839" y="124.67264"/><path fill="none" stroke="#000" stroke-miterlimit="10" stroke-width=".39815" d="m120.85552 180.50789 40.84767-48.39455"/><path d="M163.24219 130.28906c-.79297.6289-2.2539 1.74219-3.70703 2.07813 1.47656-.05469 2.08593.45703 2.28125 1.92578.08593-1.49219.9375-3.11719 1.42578-4.0039m0 0"/></svg>