<svg xmlns="http://www.w3.org/2000/svg" xmlns:xlink="http://www.w3.org/1999/xlink" width="365.654pt" height="368.047pt" viewBox="0 0 365.654 368.047"><defs><path id="b" d="M.59375-.73437c0 .53125.4375.95312 1.1875.95312 1.28125 0 2-1.26562 2.76563-2.53125l.76562-1.21875h.03125L5.6875-2.0625C6.04688-.57812 6.375.21875 7.32813.21875c1.375 0 2.09375-1.40625 2.65625-2.54687l-.48438-.25C9.04688-1.75 8.53125-.75 8.01563-.75c-.35938 0-.5-.42187-.92188-2.09375L6.5-5.28125c.67188-1.20312 1.625-2.6875 2.17188-2.6875s.5625.29688 1.125.29688c.42187 0 .79687-.39063.79687-.89063 0-.57812-.4375-.8125-.95312-.8125-1 0-1.82813.89063-2.48438 1.9375l-.8125 1.28125h-.04687l-.75-3.14062-.09375-.07813-3.09375.92188.04687.46875L3.875-8.09375c.29688 0 .4375.14063.60938.9375l.65625 2.70313-.51563.89062c-.79687 1.375-1.48437 2.34375-1.9375 2.34375-.54687 0-.6875-.45312-1.28125-.45312-.46875 0-.8125.48437-.8125.9375m0 0"/><path id="d" d="M0 3.5c0 .5.5625 1.01563 1.375 1.01563 1.59375 0 2.26563-1.17188 3.90625-4.01563.39063-.64062 1.51563-2.60937 2.67188-4.51562 1.0625-1.75 2.25-3.5625 2.25-4.3125 0-.65625-.20313-1.04688-.34375-1.04688-.35938 0-1 .15625-1.46875.46875 0 0-.0625 1.90625-.23438 2.5625-.3125 1.0625-1.40625 3.07813-2.625 5.20313h-.0625C5.32813-4 4.96875-7.9375 4.70313-9.29687l-.125-.07813-3.14063.89063.04688.46875 1.29687-.03125c.375 0 .45313.3125.625 1.26562.1875 1.45313.60938 5.04688.60938 6.54688 0 .54687-.01563 1.3125-.4375 2.29687-.34375.78125-.8125 1.34375-1.1875 1.34375-.6875 0-.76563-1.04687-1.4375-1.04687C.48438 2.35938 0 2.96875 0 3.5m0 0"/><path id="f" d="M1.6875-5.26562c0 2.14062 1.57813 3.71875 3.73438 3.71875 2.09375 0 3.65625-1.57813 3.65625-3.71875 0-2.09375-1.5625-3.65625-3.65625-3.65625-2.15625 0-3.73438 1.5625-3.73438 3.65625m0 0"/><path id="i" d="M1.3125-2c0 1.10938.51563 2.21875 1.78125 2.21875 2.01563 0 3.75-2.3125 4.84375-4.21875h.03125l-.64062 2.125c-.10938.42188-.1875.78125-.1875 1.07813 0 .65625.3125 1.01562 1.01562 1.01562 1.40625 0 2.45313-1.26562 3.09375-2.6875l-.4375-.25C10.46875-2.0625 9.64063-.75 9.125-.75c-.21875 0-.29687-.14062-.29687-.35937 0-.1875.0625-.40625.10937-.65625l1.96875-7.45313h-1.5625l-.07812.23438c-.32813-.21875-.875-.39063-1.375-.39063C3.4375-9.375 1.3125-4.46875 1.3125-2m1.84375-.04687c0-2.04688 1.82813-6.67188 4.78125-6.67188.45313 0 .84375.15625 1.125.40625-.34375 1.39063-1 3.25-1.98437 4.73438C6.01563-1.98437 4.875-.75 3.96875-.75c-.60937 0-.8125-.5625-.8125-1.29687m0 0"/><path id="j" d="M-.39062 3.4375C-.375 4.04688.4375 4.51563 1.3125 4.51563 3.1875 4.51563 3.96875 3 4.75-.57812l1.73438-7.875h2.35937l.17188-.70313H6.59375l.51563-2.10937c.35937-1.42188.71875-1.95313 1.23437-1.95313.5 0 .84375.42188 1.25 1.3125.10938.1875.25.3125.51563.3125.39062 0 .92187-.32812.92187-.8125 0-.79687-1.01562-1.45312-2.125-1.45312-2.20312 0-3.125 1.5625-3.84375 4.01562l-.1875.6875H3.26563l-.21875.70313h1.65625L2.54688 2.5625c-.21875 1.15625-.42188 1.26563-.59375 1.26563-.20313 0-.5-.125-1-.90625C.8125 2.75.70313 2.5.45313 2.5c-.40625 0-.84375.46875-.84375.9375m0 0"/><path id="k" d="M1.60938-5.26562c0 4.21875.95312 8.84375 4.90625 9V3.1875C5.1875 2.92188 3.09375 1.26563 3.09375-5.26562c0-6.5 2-8.15625 3.42188-8.45313v-.54687c-3.95313.15625-4.90625 4.78125-4.90625 9m0 0"/><path id="l" d="M1.10938 3.1875v.54688c3.95312-.15625 4.90625-4.78125 4.90625-9s-.95313-8.84375-4.90625-9v.54687c1.4375.29688 3.42187 1.95313 3.42187 8.45313 0 6.53125-2.09375 8.1875-3.42187 8.45312m0 0"/><path id="g" d="M.53125-4.35937c0 2.54687.78125 4.51562 3 4.51562s3-1.96875 3-4.51562c0-2.5625-.78125-4.53125-3-4.53125s-3 1.96875-3 4.53125m1.5 0c0-1.98438.3125-4.04688 1.5-4.04688 1.20313 0 1.5 2.0625 1.5 4.04688 0 1.96875-.29687 4.03125-1.5 4.03125-1.1875 0-1.5-2.0625-1.5-4.03125m0 0"/><path id="h" d="M1.42188 0h4.375v-.40625L4.75-.5c-.28125-.03125-.42187-.125-.42187-.60937V-8.8125l-.09375-.07812-2.79688.48437v.34375l1.125.15625c.25.03125.32813.125.32813.53125v6.26563c0 .48437-.125.57812-.42188.60937l-1.04687.09375Zm0 0"/><clipPath id="a"><path d="M.30078 310H340v1H.30078Zm0 0"/></clipPath><clipPath id="c"><path d="M57 27h1v340.09766h-1Zm0 0"/></clipPath><clipPath id="e"><path d="M.30078 12H295v355.09766H.30078Zm0 0"/></clipPath></defs><g clip-path="url(#a)"><path fill="none" stroke="#000" stroke-miterlimit="10" stroke-width=".39747" d="M.69533 310.26953h338.8866"/></g><path fill="none" stroke="#000" stroke-linecap="round" stroke-linejoin="round" stroke-miterlimit="10" stroke-width=".39747" d="M337.71485 307.88281c.375 1.4336 1.21874 2.10938 2.0664 2.38672-.84766.27734-1.6914.95313-2.0664 2.38672"/><use xlink:href="#b" x="346.99691" y="314.85074"/><g clip-path="url(#c)"><path fill="none" stroke="#000" stroke-miterlimit="10" stroke-width=".39747" d="M57.24219 366.81639V27.92979"/></g><path fill="none" stroke="#000" stroke-linecap="round" stroke-linejoin="round" stroke-miterlimit="10" stroke-width=".39747" d="M54.85938 29.80078c1.42968-.3789 2.10546-1.21875 2.3828-2.07031.27735.85156.95313 1.6914 2.38673 2.07031"/><use xlink:href="#d" x="51.56987" y="16.00456"/><g clip-path="url(#e)"><path fill="none" stroke="#007F7F" stroke-miterlimit="10" stroke-width=".79495" d="m.69533 362.5742 11.78125 2.80078 11.78124 1.32422 11.78125-.14453 11.77734-1.6211 11.78125-3.09374 11.78124-4.5625 11.78125-6.03906 11.77734-7.50781 11.78124-8.98437 11.78125-10.45313 11.78125-11.92968 11.77733-13.39843 11.78125-14.8711 11.78125-16.34764 11.78124-17.8164 11.78125-19.28906 11.77734-20.7617 11.78124-22.23828 11.78125-23.70703 11.78125-25.17967 11.77734-26.65234 11.78124-28.12499L271.64446 54.379l11.78124-31.0703"/></g><path fill="none" stroke="#000" stroke-miterlimit="10" stroke-width=".39747" d="m130.75388 360.87889 6.36328-13.35937 6.35937-13.35547 6.35938-13.35937 6.36327-13.35546 12.71875-26.71874 6.36328-13.35546 6.35937-13.35937 6.36328-13.35938 6.35937-13.35546 6.35938-13.35937 6.36328-13.35546 6.35937-13.35937 6.36328-13.35938 6.35937-13.35546 6.35937-13.35937 6.36328-13.35546 6.35938-13.35937 6.35937-13.35547 6.36328-13.35937 6.35937-13.35937 6.36328-13.35546 12.71874-26.71874"/><use xlink:href="#f" x="221.50684" y="163.46972"/><path fill="none" stroke="#000" stroke-miterlimit="10" stroke-width=".39747" d="M226.88666 304.61328v11.3125"/><use xlink:href="#b" x="217.26483" y="332.32649"/><use xlink:href="#g" x="228.25637" y="336.69917"/><path fill="none" stroke="#000" stroke-miterlimit="10" stroke-width=".39747" d="M154.85544 304.61328v11.3125"/><use xlink:href="#b" x="150.89069" y="332.32649"/><use xlink:href="#h" x="161.88223" y="336.69917"/><path fill="none" stroke="#000" stroke-miterlimit="10" stroke-width=".39747" d="M132.21091 315.92578v-11.3125"/><use xlink:href="#i" x="126.38714" y="297.37499"/><path fill="none" stroke="#000" stroke-dasharray="2.9811188186 2.9811188186" stroke-miterlimit="10" stroke-width=".39747" d="M226.88666 310.26953V159.00396"/><use xlink:href="#j" x="173.69664" y="147.46117"/><use xlink:href="#k" x="185.36257" y="147.46117"/><use xlink:href="#b" x="192.99412" y="147.46117"/><use xlink:href="#g" x="203.98422" y="151.83385"/><use xlink:href="#l" x="212.23086" y="147.46117"/></svg>