<svg xmlns="http://www.w3.org/2000/svg" xmlns:xlink="http://www.w3.org/1999/xlink" width="698.21pt" height="481.55pt" viewBox="0 0 698.21 481.55"><defs><path id="a" d="M.59375-.73437c0 .53125.4375.95312 1.20313.95312 1.26562 0 1.98437-1.28125 2.76562-2.53125l.75-1.23437h.04688L5.6875-2.0625C6.04688-.57812 6.39063.21875 7.34375.21875 8.71875.21875 9.4375-1.1875 10-2.32812l-.48437-.26563C9.0625-1.75 8.54688-.75 8.01563-.75c-.35938 0-.48438-.42187-.90625-2.09375l-.59375-2.45312c.67187-1.1875 1.625-2.6875 2.15625-2.6875.5625 0 .57812.29687 1.14062.29687.42188 0 .79688-.39062.79688-.89062 0-.57813-.4375-.8125-.95313-.8125-1 0-1.82812.89062-2.48437 1.95312l-.82813 1.26563H6.3125L5.54688-9.3125l-.09375-.07812-3.07813.9375L2.40625-8 3.875-8.10937c.3125 0 .4375.14062.625.9375l.65625 2.71875-.51562.89062c-.79688 1.375-1.5 2.34375-1.95313 2.34375-.53125 0-.67187-.45312-1.28125-.45312-.46875 0-.8125.48437-.8125.9375m0 0"/><path id="b" d="M0 3.5c0 .5.5625 1.01563 1.375 1.01563 1.59375 0 2.26563-1.17188 3.92188-4.01563.375-.64062 1.51562-2.60937 2.67187-4.51562 1.0625-1.75 2.25-3.5625 2.25-4.32813 0-.65625-.20312-1.04687-.34375-1.04687-.35937 0-1 .15625-1.46875.46875 0 0-.0625 1.92187-.25 2.57812-.29687 1.04688-1.39062 3.07813-2.625 5.20313h-.0625C5.32813-4 4.98438-7.9375 4.71875-9.3125l-.14062-.07812L1.4375-8.5l.0625.48438 1.28125-.04688c.39063 0 .46875.3125.625 1.28125.20313 1.45313.60938 5.04688.60938 6.54688 0 .54687-.01563 1.3125-.4375 2.29687-.32813.78125-.8125 1.34375-1.1875 1.34375-.67188 0-.76563-1.03125-1.4375-1.03125C.48438 2.375 0 2.96875 0 3.5m0 0"/><path id="d" d="M1.59375-2.67187h10.29688v-1.09375H1.59375Zm0-4.10938h10.29688v-1.10937H1.59375Zm0 0"/><path id="e" d="m.48438-6.6875.4375.28125c.46875-.95312 1.32812-1.95312 1.75-1.95312.1875 0 .29687.17187.29687.53125 0 .875-.73437 3.45312-.73437 4.5625 0 2.48437.96875 3.48437 3.40625 3.48437 0 .17188-.6875 3.875-.6875 4.14063.0625.15625.10937.15625.32812.15625.23438 0 .26563 0 .39063-.10938.07812-.10937.73437-2.79687 1.09375-4.1875 1.89062 0 3.48437-1.5 4.32812-3.07812 1.15625-2.20313 1.15625-5.25 3.17188-6.125 0-.09375-.07813-.40625-.07813-.40625-.75 0-1.75.07812-2.51562.8125-.96875.89062-.70313 5.29687-2.59375 6.96875C7.85938-.5625 7.5625-.51562 6.96875-.51562c0 0 2.10938-8.6875 2.53125-10.04688-.32812 0-1.57812.375-1.92187.53125-.375 2.14063-1.8125 9.51563-1.8125 9.51563-1.5 0-1.78125-.59375-1.78125-2.59375 0-1.39063.71875-3.29688.71875-4.95313 0-.73437-.21875-1.32812-.98438-1.32812-1.375 0-2.6875 1.03125-3.23437 2.70312m0 0"/><path id="g" d="M1.60938-5.28125c0 4.21875.95312 8.85938 4.92187 9.03125v-.5625c-1.32812-.26562-3.42187-1.90625-3.42187-8.46875 0-6.5 1.98437-8.15625 3.42187-8.45312v-.5625C2.5625-14.14062 1.60938-9.5 1.60938-5.28125m0 0"/><path id="h" d="M1.10938 3.1875V3.75c3.96875-.17187 4.92187-4.8125 4.92187-9.03125s-.95312-8.85937-4.92187-9.01562v.5625c1.4375.29687 3.42187 1.95312 3.42187 8.45312 0 6.5625-2.07812 8.20313-3.42187 8.46875m0 0"/><path id="i" d="M.79688-3.625c0 2.21875 1.71875 3.70313 3.9375 3.84375l-.90625 4.29688L5.60938 4 6.4375.21875c3.65625-.20312 6.21875-3.32812 6.21875-6.625 0-2.35937-1.45312-2.98437-3.14062-2.98437-1.59375 0-3.03125 1.85937-3.5 3.9375-.40625 1.70312-.84375 3.54687-1.125 4.9375-1.76563-.125-2.34375-1.07813-2.34375-2.45313 0-2.01562.57812-4.03125 2.17187-5.875l-.20312-.35937C1.89063-7.79687.79688-5.96875.79688-3.625M6.5625-.45312l1.15625-5.3125c.26563-1.20313.85938-2.96875 2.01563-2.96875.875 0 1.10937.96875 1.10937 2.04687 0 2.82813-1.10937 6.15625-4.28125 6.23438m0 0"/><path id="f" d="M1.42188 0H5.8125v-.40625L4.76563-.5c-.29688-.03125-.4375-.125-.4375-.60937v-7.73438L4.25-8.90625l-2.8125.46875v.35938l1.125.14062c.25.04688.34375.14063.34375.54688v6.28125c0 .48437-.125.57812-.4375.60937l-1.04687.09375Zm0 0"/><path id="j" d="M1.0625-3.26562h7.29688V-4.125H1.0625Zm0 0"/><path id="k" d="M.375-.15625.53125 0h5.54688l.46875-1.875-.39063-.0625c-.29687.70313-.54687.79688-1.0625.79688H1.73438c.21874-.625.90625-1.5 2.1875-2.35938C5.23438-4.39062 6.1875-5 6.1875-6.4375c0-1.82812-1.23437-2.46875-2.6875-2.46875-1.78125 0-2.79687 1.03125-2.79687 1.82813 0 .46875.53125.6875.8125.6875.25 0 .375-.125.4375-.39063.20312-.90625.6875-1.64062 1.46875-1.64062.90625 0 1.20312.79687 1.20312 1.75 0 1.26562-.5625 2.09375-1.79687 3.15625C1.15625-2.07812.57813-1.125.375-.15625m0 0"/><clipPath id="c"><path d="M121 105h485v376.05469H121Zm0 0"/></clipPath></defs><path fill="none" stroke="#000" stroke-miterlimit="10" stroke-width=".39805" d="M19.26556 424.02734h622.52746"/><path fill="none" stroke="#000" stroke-linecap="round" stroke-linejoin="round" stroke-miterlimit="10" stroke-width=".39805" d="M639.92187 421.63672c.37891 1.4336 1.22266 2.10937 2.07032 2.39062-.84766.27735-1.6914.95313-2.07032 2.38672"/><use xlink:href="#a" x="649.22043" y="428.61347"/><path fill="none" stroke="#000" stroke-miterlimit="10" stroke-width=".39805" d="M359.04297 480.65626V28.01946"/><path fill="none" stroke="#000" stroke-linecap="round" stroke-linejoin="round" stroke-miterlimit="10" stroke-width=".39805" d="M356.65625 29.89063c1.4336-.37891 2.10938-1.22266 2.38672-2.07032.28125.84766.95703 1.6914 2.39062 2.07032"/><use xlink:href="#b" x="353.36318" y="16.07524"/><g clip-path="url(#c)"><path fill="none" stroke="#007F7F" stroke-miterlimit="10" stroke-width=".79611" d="M217.47263 195.24214c9.07813 6.35938 19.82032 9.39063 28.3125 2.26563 93.69534-93.69142 283.7774-120.08987 339.77741 0 33.78516 72.44923-34.53516 156.00784-113.25783 169.89066-89.78908 15.83203-136.7305-72.46095-226.51957-56.63283-78.72268 13.88282-113.25784 89.95315-113.25784 169.89066"/></g><path fill="none" stroke="#000" stroke-miterlimit="10" stroke-width=".39805" d="m217.17576 311.03513-61.70314 56.09377"/><path fill="none" stroke="#000" stroke-linecap="round" stroke-linejoin="round" stroke-miterlimit="10" stroke-width=".39803" d="M214.1875 310.52734c1.24219.8047 2.32031.73829 3.13672.375-.4414.77735-.60938 1.84375.07422 3.16016m-58.93359 53.57422c-1.2461-.80469-2.32422-.73828-3.14063-.375.4414-.77735.60937-1.84375-.07422-3.15625"/><use xlink:href="#a" x="6.63349" y="327.6517"/><use xlink:href="#d" x="22.33677" y="327.6517"/><use xlink:href="#e" x="39.67208" y="327.6517"/><use xlink:href="#f" x="53.06496" y="332.02875"/><use xlink:href="#g" x="61.32162" y="327.6517"/><use xlink:href="#a" x="68.96428" y="327.6517"/><use xlink:href="#h" x="80.80642" y="327.6517"/><use xlink:href="#d" x="92.31021" y="327.6517"/><use xlink:href="#i" x="109.64552" y="327.6517"/><use xlink:href="#j" x="123.49527" y="319.68871"/><use xlink:href="#f" x="132.91326" y="319.68871"/><use xlink:href="#f" x="122.08287" y="332.97168"/><use xlink:href="#g" x="141.17127" y="327.6517"/><use xlink:href="#b" x="148.81393" y="327.6517"/><use xlink:href="#h" x="160.17841" y="327.6517"/><use xlink:href="#b" x="6.63349" y="351.53468"/><use xlink:href="#d" x="21.85911" y="351.53468"/><use xlink:href="#i" x="39.19441" y="351.53468"/><use xlink:href="#f" x="51.63058" y="355.91173"/><use xlink:href="#g" x="59.88924" y="351.53468"/><use xlink:href="#a" x="67.5319" y="351.53468"/><use xlink:href="#h" x="79.37404" y="351.53468"/><path fill="none" stroke="#000" stroke-miterlimit="10" stroke-width=".39805" d="M410.41017 369.66405h78.48439"/><path fill="none" stroke="#000" stroke-linecap="round" stroke-linejoin="round" stroke-miterlimit="10" stroke-width=".39805" d="M412.28125 372.05078c-.3789-1.4336-1.22266-2.10937-2.07031-2.38672.84765-.28125 1.6914-.95703 2.07031-2.39062m74.74219 0c.3789 1.4336 1.21875 2.10937 2.07031 2.39062-.85156.27735-1.6914.95313-2.07031 2.38672"/><use xlink:href="#b" x="409.45971" y="394.93457"/><use xlink:href="#d" x="424.68532" y="394.93457"/><use xlink:href="#i" x="442.02063" y="394.93457"/><use xlink:href="#k" x="454.4588" y="399.31362"/><use xlink:href="#g" x="462.71545" y="394.93457"/><use xlink:href="#a" x="470.35811" y="394.93457"/><use xlink:href="#h" x="482.20026" y="394.93457"/><path fill="none" stroke="#000" stroke-miterlimit="10" stroke-width=".39805" d="M594.62504 276.3906v-78.4844"/><path fill="none" stroke="#000" stroke-linecap="round" stroke-linejoin="round" stroke-miterlimit="10" stroke-width=".39805" d="M597.01172 274.51953c-1.4336.3789-2.10938 1.22266-2.38672 2.07031-.28125-.84765-.95703-1.6914-2.39063-2.0703m0-74.7422c1.4336-.3789 2.10938-1.22265 2.39063-2.0703.27734.84765.95313 1.6914 2.38672 2.0703"/><use xlink:href="#a" x="609.44843" y="242.03857"/><use xlink:href="#d" x="625.15171" y="242.03857"/><use xlink:href="#e" x="642.48701" y="242.03857"/><use xlink:href="#k" x="655.8799" y="246.41562"/><use xlink:href="#g" x="664.13655" y="242.03857"/><use xlink:href="#b" x="671.77921" y="242.03857"/><use xlink:href="#h" x="683.14369" y="242.03857"/></svg>