<svg xmlns="http://www.w3.org/2000/svg" xmlns:xlink="http://www.w3.org/1999/xlink" width="331.738pt" height="345.74pt" viewBox="0 0 331.738 345.74"><defs><path id="a" d="M1.6875-5.28125c0 2.15625 1.57813 3.73438 3.75 3.73438 2.09375 0 3.65625-1.57813 3.65625-3.73438 0-2.07812-1.5625-3.65625-3.65625-3.65625-2.17187 0-3.75 1.57813-3.75 3.65625m0 0"/></defs><use xlink:href="#a" x="314.06896" y="177.20957"/><use xlink:href="#a" x="196.6407" y="15.58122"/><use xlink:href="#a" x="6.63576" y="77.31946"/><use xlink:href="#a" x="6.63576" y="277.10068"/><use xlink:href="#a" x="196.6407" y="338.83792"/><path fill="#66CEF5" fill-opacity=".2" stroke="#000" stroke-miterlimit="10" stroke-width=".39819" d="M319.45706 172.73828 202.02736 11.10935 12.0195 72.84765v199.78518l190.00784 61.73829 117.4297-161.63284"/><use xlink:href="#a" x="255.35433" y="96.3954"/><use xlink:href="#a" x="101.63873" y="46.44984"/><use xlink:href="#a" x="6.63576" y="177.20957"/><use xlink:href="#a" x="101.63873" y="307.9693"/><use xlink:href="#a" x="255.35433" y="258.02375"/><path fill="#66CEF5" fill-opacity=".2" stroke="#000" stroke-miterlimit="10" stroke-width=".39819" d="M260.7422 91.92577 107.02343 41.98045 12.01951 172.73828l95.00392 130.76174L260.7422 253.5547V91.92577"/><use xlink:href="#a" x="178.49703" y="71.42312"/><use xlink:href="#a" x="54.13724" y="111.83021"/><use xlink:href="#a" x="54.13724" y="242.58894"/><use xlink:href="#a" x="178.49703" y="282.99602"/><use xlink:href="#a" x="255.35433" y="177.20957"/><path fill="#66CEF5" fill-opacity=".2" stroke="#000" stroke-miterlimit="10" stroke-width=".39819" d="m183.88282 66.9531-124.3633 40.40627V238.1211l124.3633 40.40626 76.85938-105.78908-76.85938-105.78517"/><use xlink:href="#a" x="116.31713" y="91.62617"/><use xlink:href="#a" x="54.13724" y="177.20957"/><use xlink:href="#a" x="116.31713" y="262.79298"/><use xlink:href="#a" x="216.92568" y="230.1028"/><use xlink:href="#a" x="216.92568" y="124.31635"/><path fill="#66CEF5" fill-opacity=".2" stroke="#000" stroke-miterlimit="10" stroke-width=".39819" d="m121.70312 87.15624-62.1836 85.58204 62.1836 85.58595 100.6094-32.6914V119.84764l-100.6094-32.69141"/><use xlink:href="#a" x="85.22669" y="134.41837"/><use xlink:href="#a" x="85.22669" y="220.00078"/><use xlink:href="#a" x="166.62141" y="246.44789"/><use xlink:href="#a" x="216.92568" y="177.20957"/><use xlink:href="#a" x="166.62141" y="107.97126"/><path fill="#66CEF5" fill-opacity=".2" stroke="#000" stroke-miterlimit="10" stroke-width=".39819" d="M90.61327 129.94921v85.58205l81.39455 26.44922 50.3047-69.2422L172.00781 103.5l-81.39455 26.44922"/><use xlink:href="#a" x="85.22669" y="177.20957"/><use xlink:href="#a" x="125.92455" y="233.22433"/><use xlink:href="#a" x="191.77354" y="211.82923"/><use xlink:href="#a" x="191.77354" y="142.59091"/><use xlink:href="#a" x="125.92455" y="121.19481"/><path fill="#66CEF5" fill-opacity=".2" stroke="#000" stroke-miterlimit="10" stroke-width=".39819" d="m90.61327 172.73828 40.69532 56.01564 65.85157-21.39454v-69.2383l-65.85157-21.39843-40.69532 56.01563"/><use xlink:href="#a" x="105.57562" y="205.21745"/><use xlink:href="#a" x="158.84855" y="222.52678"/><use xlink:href="#a" x="191.77354" y="177.20957"/><use xlink:href="#a" x="158.84855" y="131.89236"/><use xlink:href="#a" x="105.57562" y="149.20169"/><path fill="#66CEF5" fill-opacity=".2" stroke="#000" stroke-miterlimit="10" stroke-width=".39819" d="m110.96093 200.7461 53.27345 17.3125 32.92578-45.32032-32.92578-45.31641-53.27345 17.3086v56.01563"/><use xlink:href="#a" x="132.21258" y="213.87162"/><use xlink:href="#a" x="175.31154" y="199.86768"/><use xlink:href="#a" x="175.31154" y="154.55147"/><use xlink:href="#a" x="132.21258" y="140.54753"/><use xlink:href="#a" x="105.57562" y="177.20957"/><path fill="#66CEF5" fill-opacity=".2" stroke="#000" stroke-miterlimit="10" stroke-width=".39819" d="m137.59765 209.40235 43.09767-14.0039v-45.31642l-43.09767-14.00391-26.63672 36.66016 26.63672 36.66407"/><use xlink:href="#a" x="153.76156" y="206.87015"/><use xlink:href="#a" x="175.31154" y="177.20957"/><use xlink:href="#a" x="153.76156" y="147.549"/><use xlink:href="#a" x="118.8941" y="158.87805"/><use xlink:href="#a" x="118.8941" y="195.5411"/><path fill="#66CEF5" fill-opacity=".2" stroke="#000" stroke-miterlimit="10" stroke-width=".39819" d="m159.14844 202.40235 21.54688-29.66407-21.54688-29.66016-34.8711 11.33203v36.66017l34.8711 11.33203"/><use xlink:href="#a" x="164.53605" y="192.03986"/><use xlink:href="#a" x="164.53605" y="162.37929"/><use xlink:href="#a" x="136.32733" y="153.21352"/><use xlink:href="#a" x="118.8941" y="177.20957"/><use xlink:href="#a" x="136.32733" y="201.20562"/><path fill="#66CEF5" fill-opacity=".2" stroke="#000" stroke-miterlimit="10" stroke-width=".39819" d="M169.92188 187.57032v-29.66017l-28.20704-9.16797-17.4375 23.9961 17.4375 23.9961 28.20704-9.16406"/><use xlink:href="#a" x="164.53605" y="177.20957"/><use xlink:href="#a" x="150.43219" y="157.7969"/><use xlink:href="#a" x="127.61122" y="165.21205"/><use xlink:href="#a" x="127.61122" y="189.2071"/><use xlink:href="#a" x="150.43219" y="196.62224"/><path fill="#66CEF5" fill-opacity=".2" stroke="#000" stroke-miterlimit="10" stroke-width=".39819" d="m169.92188 172.73828-14.10547-19.41016-22.82032 7.41407v23.9961l22.82032 7.41406 14.10547-19.41407"/></svg>