<svg xmlns="http://www.w3.org/2000/svg" xmlns:xlink="http://www.w3.org/1999/xlink" width="396.85pt" height="283.464pt" viewBox="0 0 396.85 283.464"><defs><clipPath id="a"><path d="M.30078 169H396v2H.30078Zm0 0"/></clipPath><clipPath id="b"><path d="M391 168h5.40234v4H391Zm0 0"/></clipPath><clipPath id="c"><path d="M391 167h5.40234v5H391Zm0 0"/></clipPath><clipPath id="d"><path d="M197 29h2v253.92969h-2Zm0 0"/></clipPath><clipPath id="e"><path d="M73 0h250v282.92969H73Zm0 0"/></clipPath><path id="f" d="M.60938-9.32812c0 1.625 1.64062 2.92187 5.375 2.92187C5.375-5.3125 4.90625-4.17187 4.90625-2.9375c0 2.04688 1.29688 3.15625 3.64063 3.15625 2.29687 0 4.6875-1.65625 4.6875-3.78125 0-1.26562-1.0625-1.96875-2.39063-1.96875-1.46875 0-3.20312 1.65625-3.20312 2.96875 0 .39063.29687 1.15625.85937 1.15625.15625 0 .375-.125.375-.29687 0-.25-.4375-.26563-.4375-.84375 0-.92188 1.32813-2.39063 2.40625-2.39063.75 0 1.20313.29688 1.20313 1.03125 0 1.65625-1.57813 3.53125-3.5 3.53125C7.20313-.375 6.5-1.10937 6.5-2.34375c0-1.39062.98438-3.03125 1.71875-4.21875 4.15625-.64062 8.23438-2.6875 8.23438-5.29687 0-.98438-.79688-1.64063-1.875-1.64063-2.46875 0-6.1875 3.15625-8.23438 6.4375-1.6875-.01562-4.4375-.0625-4.4375-2.04687 0-1.82813 2.23438-3.25 3.625-3.25.25 0 .39063-.15625.39063-.3125s-.14063-.28125-.29688-.28125c-2.07812 0-5.01562 1.42187-5.01562 3.625m7.98437 2.03125c1.375-2.40625 4.28125-5.60938 5.98438-5.60938.65625 0 1.10937.375 1.10937.98438 0 2.09375-3.28125 4-7.09375 4.625m0 0"/><path id="g" d="M.65625 0h5.82813c5.75 0 7.1875-3.35937 7.1875-6.70312 0-3.0625-1.35938-6.21875-6.8125-6.21875H.65625v.53125c1.65625.125 1.6875.14062 1.6875 1.1875v9.46875c0 1.0625-.03125 1.07812-1.6875 1.20312Zm3.54688-2.34375v-8.875c0-.96875.15625-1.07812 2.15625-1.07812 3.96875 0 5.21875 2.51562 5.21875 5.67187 0 4.71875-2.3125 5.96875-5.45313 5.96875-1.625 0-1.92187-.21875-1.92187-1.6875m0 0"/></defs><g clip-path="url(#a)"><path fill="none" stroke="#000" stroke-miterlimit="10" stroke-width=".7955" d="M.29681 169.75781h394.67591"/></g><g clip-path="url(#b)"><path d="M396.0039 169.75781c-1.29296-.25781-2.58202-.77734-4.13671-1.67969 1.55469 1.16016 1.55469 2.19532 0 3.35938 1.55469-.90625 2.84375-1.42187 4.13672-1.67969m0 0"/></g><g clip-path="url(#c)"><path fill="none" stroke="#000" stroke-linejoin="round" stroke-miterlimit="10" stroke-width=".7955" d="M396.0039 169.75781c-1.29296-.25781-2.58203-.77734-4.13671-1.67968 1.55468 1.16015 1.55468 2.1953 0 3.35937 1.55468-.90625 2.84375-1.42187 4.13672-1.67969Zm0 0"/></g><g clip-path="url(#d)"><path fill="none" stroke="#000" stroke-miterlimit="10" stroke-width=".7955" d="M198.35156 282.92972V29.72262"/></g><path stroke="#000" stroke-linejoin="round" stroke-miterlimit="10" stroke-width=".7955" d="M198.35156 28.6875c-.26172 1.29297-.77734 2.58594-1.6836 4.13672 1.16407-1.55078 2.19923-1.55078 3.3633 0-.90626-1.55078-1.42188-2.84375-1.6797-4.13672Zm0 0"/><g clip-path="url(#e)"><path fill="none" stroke="#00007F" stroke-miterlimit="10" stroke-width=".7955" d="m85.17574 284.62894 2.28516-2.25781 2.28906-2.25781 2.28516-2.25782 4.57032-4.50781 2.28906-2.2539 2.28516-2.25 2.28515-2.25391 2.28516-2.2461 2.28516-2.25 2.28906-2.2461 6.85547-6.72656 2.28516-2.23828 2.28906-2.23828 4.57032-4.46875 2.28515-2.23047 2.28516-2.22657 2.28906-2.22656 4.57032-4.4375 2.28515-2.21485 2.28516-2.21093 2.28906-2.20704 2.28516-2.20312 2.28516-2.19532 2.28516-2.1914 2.28906-2.1875 4.57031-4.35157 2.28516-2.16406 2.28516-2.15625 2.28906-2.14453 2.28516-2.13672 2.28515-2.125 2.28516-2.10547 2.28516-2.09375 2.28906-2.07813 2.28516-2.05469 2.28516-2.03125 2.28515-2.00781 2.28516-1.97656 2.28906-1.9336 2.28516-1.89453 2.28516-1.84375 2.28515-1.77734 2.28516-1.69922 2.28906-1.59766 2.28516-1.47656 2.28516-1.3086 2.28515-1.08984 2.28516-.78516 2.28906-.35156 2.28516.3086 2.28516 1.36718 2.28516 3.25 2.28906 7.08594 2.28516 17.03907 2.28515 60.70314 2.28516-1032.7308 2.28516 815.22292 2.28906 42.25392 2.28516 13.66016 2.28515 5.90625 2.28516 2.70704 2.28516 1.0703 2.28906.12891 2.28516-.46484 2.28515-.86719 2.28516-1.14843 2.28516-1.35157 2.28906-1.5039 2.28516-1.625 2.28516-1.71876 2.28515-1.79296 2.28516-1.85547 2.28906-1.90235 2.28516-1.94922 2.28516-1.98047 2.28515-2.01562 2.28516-2.03516 2.28906-2.0625 2.28516-2.08203 2.28516-2.09375 2.28516-2.11329 2.28906-2.125 2.28516-2.14062 2.28515-2.14844 2.28516-2.15625 2.28516-2.16797 2.28906-2.17188 2.28516-2.18359 2.28515-2.1875 2.28516-2.1914 2.28516-2.19923 2.28906-2.20312 2.28516-2.20703"/></g><use xlink:href="#f" x="302.86452" y="46.14774" fill="#00007F"/><path fill="none" stroke="red" stroke-miterlimit="10" stroke-width=".7955" d="M311.52348 56.582 113.46872 254.63675"/><use xlink:href="#g" x="91.4892" y="247.21155" fill="red"/></svg>