<svg xmlns="http://www.w3.org/2000/svg" xmlns:xlink="http://www.w3.org/1999/xlink" width="412.696pt" height="142.529pt" viewBox="0 0 412.696 142.529"><defs><clipPath id="a"><path d="M.52734 84H396v2H.52734Zm0 0"/></clipPath><clipPath id="b"><path d="M198 1h2v141.0586h-2Zm0 0"/></clipPath><clipPath id="d"><path d="M.52734 14H408v123H.52734Zm0 0"/></clipPath><clipPath id="f"><path d="M.52734 28H398v2H.52734Zm0 0"/></clipPath><path id="c" d="M.65625 0h9.6875l.21875-3.34375h-.54687C9.625-.89062 8.625-.65625 6.65625-.65625c-.9375 0-1.60937-.01562-2.01562-.17187C4.25-1 4.1875-1.32812 4.1875-2.25v-8.9375c0-1.04687.0625-1.0625 1.79688-1.1875v-.53125H.65625v.53125c1.64063.125 1.6875.14063 1.6875 1.1875v9.45313c0 1.0625-.04687 1.07812-1.6875 1.20312Zm0 0"/><path id="g" d="M.65625 0h5.8125c5.75 0 7.17188-3.35937 7.17188-6.6875 0-3.0625-1.34375-6.21875-6.79688-6.21875H.65625v.53125c1.64063.125 1.6875.14063 1.6875 1.1875v9.45313c0 1.0625-.04687 1.07812-1.6875 1.20312ZM4.1875-2.34375v-8.85937c0-.96875.15625-1.0625 2.17188-1.0625 3.95312 0 5.20312 2.5 5.20312 5.65625 0 4.70312-2.3125 5.95312-5.45312 5.95312-1.625 0-1.92188-.21875-1.92188-1.6875m0 0"/><path id="h" d="M.89063-6.45312c0 2.07812.57812 3.8125 1.59375 4.92187C3.53125-.35937 5.0625.28125 7.10938.28125s3.57812-.64062 4.625-1.8125C12.75-2.64062 13.32813-4.375 13.32813-6.45312c0-2.09375-.57813-3.8125-1.59375-4.92188-1.04688-1.17187-2.57813-1.82812-4.625-1.82812s-3.57813.65625-4.625 1.82812C1.46875-10.26562.89063-8.54687.89063-6.45312m2.09375 0c0-2.73438.8125-6.09375 4.125-6.09375s4.125 3.35937 4.125 6.09375S10.42188-.375 7.10938-.375s-4.125-3.34375-4.125-6.07812m0 0"/><path id="e" d="M.60938-9.3125c0 1.625 1.64062 2.92188 5.375 2.92188-.625 1.09375-1.07813 2.21875-1.07813 3.45312 0 2.04688 1.29688 3.15625 3.64063 3.15625 2.28125 0 4.65625-1.65625 4.65625-3.78125 0-1.26562-1.04688-1.95312-2.375-1.95312C9.35938-5.51562 7.625-3.875 7.625-2.5625c0 .39063.29688 1.15625.85938 1.15625.15625 0 .375-.125.375-.29687 0-.25-.4375-.26563-.4375-.84375 0-.90625 1.32812-2.375 2.40625-2.375.75 0 1.20312.29687 1.20312 1.03125C12.03125-2.25 10.45313-.375 8.54688-.375 7.1875-.375 6.5-1.10937 6.5-2.34375c0-1.39062.96875-3.01562 1.70313-4.20312 4.15625-.64063 8.21875-2.6875 8.21875-5.29688 0-.98437-.79688-1.64062-1.85938-1.64062-2.46875 0-6.1875 3.15625-8.23437 6.4375-1.6875-.01563-4.42188-.0625-4.42188-2.04688 0-1.82812 2.21875-3.23437 3.60938-3.23437.26562 0 .40625-.15625.40625-.32813 0-.15625-.14063-.26562-.29688-.26562-2.09375 0-5.01562 1.40625-5.01562 3.60937m7.96875 2.03125c1.375-2.40625 4.26562-5.60937 5.98437-5.60937.65625 0 1.10938.375 1.10938 1 0 2.07812-3.28125 3.98437-7.09375 4.60937m0 0"/></defs><g clip-path="url(#a)"><path fill="none" stroke="#000" stroke-miterlimit="10" stroke-width=".79439" d="M1.12115 85.15625h394.11707"/></g><path stroke="#000" stroke-linejoin="round" stroke-miterlimit="10" stroke-width=".79439" d="M396.27344 85.15625c-1.29297-.25781-2.58203-.77344-4.13281-1.67969 1.55078 1.16407 1.55078 2.19531 0 3.35938 1.55078-.90625 2.83984-1.42188 4.1328-1.67969Zm0 0"/><g clip-path="url(#b)"><path fill="none" stroke="#000" stroke-miterlimit="10" stroke-width=".79439" d="M198.89453 141.66405V1.82425"/></g><path stroke="#000" stroke-linejoin="round" stroke-miterlimit="10" stroke-width=".79439" d="M198.89453.79297c-.25781 1.29297-.77344 2.58203-1.67578 4.13281 1.16016-1.55078 2.1914-1.55078 3.35547 0-.90235-1.55078-1.42188-2.83984-1.67969-4.13281Zm0 0"/><use xlink:href="#c" x="190.77745" y="23.80334"/><g clip-path="url(#d)"><path fill="none" stroke="#00007F" stroke-miterlimit="10" stroke-width=".79439" d="m1.12115 26.02345 7.99219-.03906 3.99218-.01562 7.99219-.03125 3.9961-.01172 3.99218-.00781 3.99609-.00782 3.9961-.0039h3.99609l3.99218.0039 3.9961.00782 3.99609.01562 3.99609.02344 3.99219.02734 3.99609.04297 3.9961.05078 3.99608.0625 3.99219.08203 3.9961.10157 3.99608.12109 3.9961.15234 3.99218.1836 3.9961.22265 3.99609.26953 3.9961.32813 3.99218.40234 3.99609.48438 3.9961.59765 3.99609.73438 3.99218.90234 3.9961 1.11719 3.99609 1.38672 3.99609 1.73828 3.99219 2.1836 3.99609 2.7617 3.9961 3.5 3.99608 4.45313 3.99219 5.65625 3.9961 7.13281 3.99609 8.84375 3.99609 10.60156 3.99218 12.01953 3.9961 12.39452 3.99609 10.99219 3.9961 7.48828 3.99218 2.58203 3.9961-2.33594 3.99608-5.98047 3.9961-7.92578 3.99218-8.45702 3.9961-8.11328 3.99609-7.33203 3.99609-6.42188 3.99219-5.53906 3.99609-4.74218 3.9961-4.04297 3.99608-3.46484 3.9961-2.97266 3.99218-2.5664 3.9961-2.22266 3.99609-1.9375 3.99609-1.69922 3.99219-1.49609 3.99609-1.32422 3.9961-1.17578 3.99608-1.05469 3.9922-.9453 3.99608-.85157 3.9961-.77344 3.99609-.69922 3.99219-.63672 3.99609-.58593 3.99609-.53516 3.9961-.49219 3.99218-.45312 3.9961-.41797 3.99608-.39063 3.9961-.35937 3.99218-.33984 3.9961-.3125 3.99609-.29297 3.9961-.27344 3.99218-.25781 3.99609-.24219 3.9961-.23047 3.99608-.21484 3.9922-.20313 3.99608-.1914 3.9961-.1797 3.99609-.17577 3.99218-.16016 3.9961-.15625 3.99609-.14844 3.9961-.14062 3.99218-.13281 3.9961-.1289 3.99608-.125 3.9961-.11329"/></g><use xlink:href="#e" x="388.02762" y="54.50588" fill="#00007F"/><g clip-path="url(#f)"><path fill="none" stroke="red" stroke-miterlimit="10" stroke-width="1.1916" d="M396.66791 28.64845H1.12115"/></g><use xlink:href="#g" x="8.93437" y="49.36985" fill="red"/><use xlink:href="#h" x="180.48447" y="102.92189"/></svg>