<svg xmlns="http://www.w3.org/2000/svg" xmlns:xlink="http://www.w3.org/1999/xlink" width="326.781pt" height="357.339pt" viewBox="0 0 326.781 357.339"><defs><path id="a" d="m-.04687-4.23437.3125.0625c.125.03125.23437.125.34375.375C1.15625-2.5 1.70313-1.10937 2.20313.17188c.07812.20312.10937.4375.0625.625-.0625.21874-.15625.45312-.375.45312-.10938 0-.23438-.04687-.34375-.14062-.17188-.125-.25-.20313-.40625-.20313-.3125 0-.60938.40625-.60938.76563 0 .35937.40625.57812.76563.57812.65625 0 1.0625-.35937 1.57812-1.6875.54688-1.45312 1.09375-2.82812 1.64063-4.15625.17187-.40625.29687-.57812.54687-.60937l.20313-.03125v-.34375H3.375v.34375l.39063.07812c.125.01563.1875.09375.14062.26563C3.64063-3 3.34375-2.125 3.04688-1.25h-.01563c-.3125-.85937-.64062-1.73437-.9375-2.60937-.0625-.1875-.04687-.28125.10938-.29688l.34375-.07812v-.34375H-.04687Zm0 0"/><path id="b" d="M.45313-1.25c0 .6875.4375 1.35938 1.39062 1.35938.59375 0 1.01563-.3125 1.34375-.53125.10938.28125.28125.53125.73438.53125.48437 0 1.0625-.15625 1.35937-.28126v-.3125c-.125.01563-.32812 0-.46875-.04687-.125-.03125-.29687-.14062-.29687-.6875V-3.375c0-.59375-.07813-1.3125-1.73438-1.3125-1.375 0-2.21875.54688-2.21875 1.15625 0 .40625.59375.57813.82813.57813.20312 0 .3125-.14063.39062-.375.26563-.79688.57813-.9375.82813-.9375.26562 0 .53125.15625.53125.70312v.48438c-.32813.23437-1.10938.45312-1.70313.65625C.70313-2.15625.45313-1.78125.45313-1.25M1.875-1.40625c0-.4375.15625-.65625.4375-.8125s.59375-.28125.82813-.39062V-1.25c-.01563.5-.3125.64063-.5625.64063-.375 0-.70313-.29688-.70313-.79688m0 0"/><path id="c" d="M.65625-1.89062H3.125v-.89063H.65625Zm0 0"/><path id="d" d="M.34375-4.10937h.54688v3.01562c0 .85938.625 1.20313 1.15625 1.20313.39062 0 .96875-.17188 1.48437-.5L3.4375-.6875c-.125.0625-.3125.09375-.53125.09375-.35937 0-.59375-.26562-.59375-.85937v-2.65625h.96875v-.46875H2.3125V-5.75h-.54687L.9375-4.57812H.34375Zm0 0"/><path id="e" d="M.70313-5.90625c0 .4375.32812.8125.84375.8125.51562 0 .875-.375.875-.8125s-.32813-.82812-.875-.82812c-.51563 0-.84375.39062-.84375.82812M.29688 0H2.9375v-.35937c-.54687-.03125-.625-.0625-.625-.45313V-4.625L2.25-4.6875l-1.90625.26563v.34375l.32813.04687c.15624.01563.23437.09375.23437.46875v2.75c0 .39063-.07812.42188-.60937.45313Zm0 0"/><path id="f" d="M.23438 0h2.625v-.35937C2.3125-.39062 2.25-.42187 2.25-.8125v-6.04687l-.07812-.0625-1.875.25v.32812l.3125.04688c.15624.03125.21874.10937.21874.5V-.8125c0 .39063-.0625.42188-.59374.45313Zm0 0"/><path id="g" d="M.375-2.28125c0 1.48438.70313 2.39063 2.40625 2.39063 1.70313 0 2.42188-.90625 2.42188-2.39063 0-1.5-.71875-2.40625-2.42188-2.40625S.375-3.78125.375-2.28125m1.46875 0c0-1.25.26563-1.98437.9375-1.98437.67188 0 .9375.73437.9375 1.98437S3.45313-.3125 2.78125-.3125c-.67187 0-.9375-.71875-.9375-1.96875m0 0"/><path id="h" d="M.29688 0H3.125v-.35937c-.71875-.03125-.8125-.0625-.8125-.45313v-2.07812c0-.48438.07813-.71875.3125-.71875.14063 0 .28125.07812.5.20312q.16406.14063.42188.14063c.1875 0 .375-.09375.48437-.23438.09375-.14062.14063-.32812.14063-.53125 0-.40625-.25-.65625-.64063-.65625-.39062 0-.6875.25-1.23437.82813l-.125-.82813-1.82813.26563v.34375l.32813.04687c.15624.01563.23437.09375.23437.46875v2.75c0 .39063-.07812.42188-.60937.45313Zm0 0"/><path id="i" d="M.375-2.20312c0 1.35937.70313 2.3125 1.875 2.3125.35938 0 .84375-.17188 1.35938-.57813V0h2v-.35937c-.53125-.03125-.59375-.0625-.59375-.45313v-6.04687l-.0625-.0625-1.90625.25v.32812l.32812.04688c.15625.03125.23438.10937.23438.5v1.21875c-.20313-.07813-.48438-.10938-.79688-.10938-.70312 0-1.32812.20313-1.75.60938C.625-3.67187.375-3.04687.375-2.20312m1.46875-.1875c0-1.375.51563-1.875 1.04688-1.875.35937 0 .54687.1875.64062.375.09375.14062.07813.34375.07813.54687v1.92188c0 .375-.14063.8125-.73438.8125-.60937 0-1.03125-.59375-1.03125-1.78125m0 0"/><path id="j" d="M.375-2.28125C.375-1.01562.92188.10938 2.65625.10938 3.76563.10938 4.375-.42187 4.6875-1.25l-.32812-.1875c-.28125.53125-.6875.82813-1.25.82813-.9375 0-1.26563-.76563-1.26563-1.75h2.42188c.34375 0 .5-.07813.5-.39063 0-.76562-.29688-1.9375-2.09375-1.9375C1-4.6875.375-3.59375.375-2.28125m1.46875-.51562c0-.6875.1875-1.46875.79688-1.46875.5625 0 .65625.71875.65625 1.15625 0 .25-.0625.3125-.28125.3125Zm0 0"/><path id="k" d="M.23438-5.4375c0 .40625.48437.64063.79687.64063.29688 0 .4375-.10938.5-.34375.1875-.78125.39063-1.03125.625-1.03125s.375.3125.375.71875c0 .51562-.26562.98437-.875 1.375-.65625.39062-.79687.73437-.79687 1 0 .67187.60937.98437 1.28125.98437.54687 0 1.03125-.20312 1.40625-.45312l-.09375-.25c-.10938.03125-.25.04687-.4375.04687-.375 0-.57813-.21875-.57813-.48437 0-.28125.21875-.59375.6875-.82813.39063-.20312.98438-.5.98438-1.17187 0-.92188-.82813-1.375-1.92188-1.375-1.32812 0-1.95312.70312-1.95312 1.17187M1.28125-.75c0 .51563.34375.85938.85938.85938.51562 0 .875-.34375.875-.85938 0-.51562-.35938-.875-.875-.875-.51563 0-.85938.35938-.85938.875m0 0"/><path id="l" d="M.45313-3.23437c0 2.09375 1.03125 3.375 3.1875 3.375 2.14062 0 3.1875-1.28125 3.1875-3.375 0-2.10938-1.04688-3.375-3.1875-3.375-2.15625 0-3.1875 1.26562-3.1875 3.375m1.65625 0c0-1.14063.15625-2.9375 1.53125-2.9375S5.17188-4.375 5.17188-3.23437c0 1.125-.15625 2.95312-1.53125 2.95312-1.35938 0-1.53125-1.82812-1.53125-2.95312m0 0"/><path id="m" d="M.3125-6.10937c.64063.03125.71875.07812.71875.54687v3.45313c0 1.625.8125 2.25 2.6875 2.25 1.73438 0 2.6875-.625 2.70313-2.25V-5.5625c0-.46875.0625-.51562.70312-.54687v-.34375H4.20313v.34375c.64062.03125.71875.07812.71875.54687v3.59375c0 1.0625-.34375 1.6875-1.20313 1.6875-.84375 0-1.1875-.625-1.1875-1.6875V-5.5625c0-.46875.07813-.51562.71875-.54687v-.34375H.3125Zm0 0"/><path id="n" d="M.35938 0h2.96875v-.35937c-.67188-.03125-.71875-.0625-.71875-.54688V-5.5625c0-.46875.04687-.51562.71875-.54687v-.34375H.35938v.34375c.67187.03125.75.07812.75.54687v4.65625c0 .48438-.07813.51563-.75.54688Zm0 0"/><path id="o" d="M1.8125-5.0625 2-4.76562l1.71875-.96875c.32813-.1875.64063-.375.64063-.60938 0-.25-.26563-.57812-.5-.57812-.1875 0-.34375.10937-.6875.46875ZM.375-2.28125C.375-1.01562.92188.10938 2.65625.10938 3.76563.10938 4.375-.42187 4.6875-1.25l-.32812-.1875c-.28125.53125-.6875.82813-1.25.82813-.9375 0-1.26563-.76563-1.26563-1.75h2.42188c.34375 0 .5-.07813.5-.39063 0-.76562-.29688-1.9375-2.09375-1.9375C1-4.6875.375-3.59375.375-2.28125m1.46875-.51562c0-.6875.1875-1.46875.79688-1.46875.5625 0 .65625.71875.65625 1.15625 0 .25-.0625.3125-.28125.3125Zm0 0"/><path id="p" d="M.23438 1.78125v.35938h2.78125v-.35938c-.6875-.01562-.76563-.0625-.76563-.45312V0c.17188.0625.46875.10938.73438.10938 1.375 0 2.48437-.48438 2.48437-2.53125 0-1.54688-.8125-2.26563-1.6875-2.26563-.65625 0-1.0625.29688-1.53125.64063l-.15625-.64063-1.79687.26563v.34375l.3125.04687c.15624.01563.21874.09375.21874.46875v4.89063c0 .39062-.0625.4375-.59374.45312M2.25-1.42187v-1.46875c0-.20313 0-.39063.0625-.51563.10938-.34375.375-.5625.76563-.5625.4375 0 .92187.23438.92187 1.75C4-1.04687 3.73438-.3125 3.01563-.3125c-.40625 0-.625-.21875-.71875-.625C2.26563-1.07812 2.25-1.25 2.25-1.42187m0 0"/><path id="q" d="M.29688 0h2.5v-.35937L2.625-.375c-.20312-.01562-.3125-.04687-.3125-.35937v-2.23438c0-.20312.03125-.40625.10938-.54687.10937-.23438.35937-.45313.75-.45313.46875 0 .71875.29688.75.84375v2.39063c0 .3125-.10938.34375-.29688.35937l-.20312.01563V0H5.9375v-.35937c-.54687-.03125-.625-.0625-.625-.45313V-3.25c0-.875-.4375-1.4375-1.39062-1.4375-.54688 0-1 .28125-1.60938.64063l-.125-.64063-1.84375.26563v.34375l.32813.04687c.15624.01563.23437.09375.23437.46875v2.75c0 .39063-.07812.42188-.60937.45313Zm0 0"/><path id="x" d="M.3125 0h2.26563v-.35937l-.54688-.03125c-.25-.03125-.35937-.17188-.375-.5-.04687-.34375-.04687-.70313-.04687-1.46875v-2.875h.03124C2.79689-3.5 3.92188-1.73437 5.03126 0H6.0625v-4.10937c0-.76563 0-1.125.04688-1.45313.01562-.32812.10937-.46875.32812-.5l.32813-.04687v-.34375h-2.25v.34375l.51562.04687c.26563.01563.375.17188.40625.5.03125.32813.03125.6875.03125 1.45313v2.09375H5.4375C4.4375-3.5 3.45313-4.98437 2.5-6.45312H.29688v.34375c.67187.03125.73437.07812.73437.54687v3.20313c0 .76562-.01562 1.14062-.0625 1.46875-.03125.32812-.10937.46875-.32812.5L.3125-.35937Zm0 0"/><path id="v" d="M.29688 0h2.5v-.35937L2.625-.375c-.20312-.01562-.3125-.04687-.3125-.35937v-2.23438c0-.20312.03125-.40625.10938-.54687.10937-.23438.35937-.45313.75-.45313.46875 0 .71875.29688.75.84375v2.39063c0 .3125-.10938.34375-.29688.35937l-.20312.01563V0H5.9375v-.35937c-.54687-.03125-.625-.0625-.625-.45313V-3.25c0-.875-.4375-1.4375-1.39062-1.4375-.54688 0-1 .28125-1.60938.64063l-.125-.64063-1.84375.26563v.34375l.32813.04687c.15624.01563.23437.09375.23437.46875v2.75c0 .39063-.07812.42188-.60937.45313Zm0 0"/><path id="A" d="M-.20312 0h2.1875v-.35937l-.5625-.03125C1.21875-.42187 1.20312-.53125 1.25-.73437c.10938-.51563.26563-1.01563.4375-1.5625h1.82813L4-.73437c.0625.20312.03125.3125-.17187.32812l-.53125.04688V0H6.25v-.35937c-.48437-.01563-.60937-.0625-.73437-.45313L3.67188-6.45312H2.5L1.42188-3.3125c-.34375.95313-.64063 1.90625-.875 2.46875-.15626.39063-.23438.45313-.75.48438Zm2.04687-2.75.76563-2.42187H2.625L3.35938-2.75Zm0 0"/><path id="E" d="M.45313-3.17187c0 2 1.01562 3.3125 3.40625 3.3125.65625 0 1.64062-.10938 2.1875-.45313l.10937-1.8125h-.35937C5.45313-1.10937 5.04688-.28125 4-.28125c-1.67187 0-1.89062-1.98437-1.89062-3.03125 0-.6875.125-2.85937 1.8125-2.85937 1.20312 0 1.51562.96875 1.73437 1.65625h.35938V-6.1875C5.45313-6.53125 4.46875-6.60937 4-6.60937c-1.3125 0-2.20312.375-2.75.98437-.5625.64063-.79687 1.51563-.79687 2.45313m0 0"/><path id="w" d="M.15625 1.25v.25H2.125v-.25c-.48437-.01562-.54687-.04687-.54687-.3125V0c.10937.04688.32812.07813.51562.07813.96875 0 1.75-.34375 1.75-1.76563 0-1.09375-.57812-1.60937-1.1875-1.60937-.46875 0-.75.21875-1.07812.45312l-.10938-.45312-1.26562.20312v.23438l.23437.03125c.09375.01562.14063.0625.14063.32812V.9375c0 .26563-.04688.29688-.42188.3125M1.57813-1v-1.03125c0-.14062 0-.26562.03124-.35937.09376-.25.26563-.39063.54688-.39063.29688 0 .64063.17188.64063 1.23438 0 .8125-.17188 1.32812-.67188 1.32812-.29687 0-.45312-.15625-.51562-.4375C1.59375-.76562 1.57812-.875 1.57812-1m0 0"/><path id="B" d="M.20313 0h1.76562v-.25l-.125-.01562c-.14062-.01563-.23437-.03125-.23437-.25v-1.5625c0-.14063.03124-.29688.07812-.375.09375-.17188.26563-.32813.53125-.32813.34375 0 .51563.20313.53125.59375v1.67188c0 .21874-.07812.23437-.21875.25L2.39063-.25V0h1.76562v-.25c-.375-.01562-.42187-.04687-.42187-.32812v-1.70313c-.01563-.60937-.3125-1.01562-.98438-1.01562-.39062 0-.70312.20312-1.14062.45312l-.07813-.45312L.25-3.09375v.23438l.21875.03125c.10938.01562.17188.0625.17188.32812v1.92188c0 .28124-.0625.3125-.4375.32812Zm0 0"/><clipPath id="r"><path d="M.1914 256H58v14H.1914Zm0 0"/></clipPath><clipPath id="s"><path d="M.1914 255H58v16H.1914Zm0 0"/></clipPath><clipPath id="t"><path d="M.1914 340H58v15H.1914Zm0 0"/></clipPath><clipPath id="u"><path d="M.1914 340H58v16H.1914Zm0 0"/></clipPath><clipPath id="y"><path d="M142 339h57v17.67969h-57Zm0 0"/></clipPath><clipPath id="z"><path d="M141 338h59v18.67969h-59Zm0 0"/></clipPath><clipPath id="C"><path d="M268 86h58.3711v15H268Zm0 0"/></clipPath><clipPath id="D"><path d="M268 169h58.3711v18H268Zm0 0"/></clipPath></defs><path fill="#CFC" stroke="#000" stroke-miterlimit="10" stroke-width=".79554" d="M164.30858 16.21485h68.67971V.39844h-68.6797Zm0 0"/><use xlink:href="#a" x="167.62267" y="10.64331"/><use xlink:href="#b" x="174.67314" y="10.64331"/><use xlink:href="#c" x="179.85409" y="10.64331"/><use xlink:href="#d" x="183.60307" y="10.64331"/><use xlink:href="#c" x="187.15317" y="10.64331"/><use xlink:href="#e" x="190.90215" y="10.64331"/><use xlink:href="#f" x="193.95503" y="10.64331"/><use xlink:href="#g" x="198.99677" y="10.64331"/><use xlink:href="#h" x="204.5556" y="10.64331"/><use xlink:href="#i" x="208.57307" y="10.64331"/><use xlink:href="#h" x="214.3109" y="10.64331"/><use xlink:href="#j" x="218.32838" y="10.64331"/><use xlink:href="#k" x="225.31918" y="10.64331"/><path fill="#B2D9D9" stroke="#000" stroke-miterlimit="10" stroke-width=".79554" d="M71.32417 99.87894h56.58987V86.50003H71.32417Zm0 0"/><use xlink:href="#l" x="90.43545" y="96.42563"/><use xlink:href="#m" x="97.69475" y="96.42563"/><use xlink:href="#n" x="105.1231" y="96.42563"/><path fill="none" stroke="#000" stroke-miterlimit="10" stroke-width=".79554" d="M188.96484 16.61328 109.84372 84.418"/><path d="m107.8789 86.10156 4.48829-1.1211-2.52344-.5625-.16797-2.57812"/><path fill="#B2FFB2" stroke="#000" stroke-miterlimit="10" stroke-width=".79554" d="M70.72652 185.92194h57.78517v-15.69922H70.72652Zm0 0"/><use xlink:href="#h" x="74.04277" y="180.45819"/><use xlink:href="#o" x="78.24919" y="180.45819"/><use xlink:href="#p" x="83.18153" y="180.45819"/><use xlink:href="#o" x="89.02875" y="180.45819"/><use xlink:href="#d" x="93.9611" y="180.45819"/><use xlink:href="#e" x="97.51119" y="180.45819"/><use xlink:href="#d" x="100.56408" y="180.45819"/><use xlink:href="#e" x="104.11417" y="180.45819"/><use xlink:href="#g" x="107.16706" y="180.45819"/><use xlink:href="#q" x="112.72589" y="180.45819"/><use xlink:href="#k" x="120.84039" y="180.45819"/><path fill="none" stroke="#000" stroke-miterlimit="10" stroke-width=".79554" d="M99.61715 100.27738v66.96487"/><path d="m99.61719 169.82813 2.07031-4.13672-2.07031 1.55078-2.0664-1.55078"/><g clip-path="url(#r)"><path fill="#B2D9D9" d="M.58984 269.64844h56.58594v-13.38281H.58984Zm0 0"/></g><g clip-path="url(#s)"><path fill="none" stroke="#000" stroke-miterlimit="10" stroke-width=".79554" d="M.58977 269.64853h56.58596v-13.38281H.58977Zm0 0"/></g><use xlink:href="#l" x="19.7003" y="266.19061"/><use xlink:href="#m" x="26.9596" y="266.19061"/><use xlink:href="#n" x="34.38795" y="266.19061"/><path fill="none" stroke="#000" stroke-miterlimit="10" stroke-width=".79554" d="M92.74996 186.32038 36.43744 253.8829"/><path d="m34.78516 255.86719 4.23437-1.85156-2.58203-.13282-.59375-2.51562"/><g clip-path="url(#t)"><path fill="#CCF" d="M.58984 354.78516h56.58594v-13.89063H.58984Zm0 0"/></g><g clip-path="url(#u)"><path fill="none" stroke="#000" stroke-miterlimit="10" stroke-width=".79554" d="M.58977 354.78528h56.58596v-13.89062H.58977Zm0 0"/></g><use xlink:href="#v" x="23.51125" y="351.46786"/><use xlink:href="#w" x="29.56704" y="347.49022"/><path fill="none" stroke="#000" stroke-miterlimit="10" stroke-width=".79554" d="M28.88275 270.04697v67.8633"/><path d="m28.88281 340.4961 2.0664-4.13673-2.0664 1.55079-2.07031-1.55079"/><path fill="#B2D9D9" stroke="#000" stroke-miterlimit="10" stroke-width=".79554" d="M142.05857 269.64853h56.58987v-13.38281h-56.58987Zm0 0"/><use xlink:href="#x" x="159.72428" y="266.19061"/><use xlink:href="#l" x="166.72503" y="266.19061"/><use xlink:href="#x" x="173.98433" y="266.19061"/><path fill="none" stroke="#000" stroke-miterlimit="10" stroke-width=".79554" d="m106.48434 186.32038 56.31252 67.56252"/><path d="m164.45313 255.86719-1.0586-4.5-.59766 2.51562-2.58203.13281"/><g clip-path="url(#y)"><path fill="#CCF" d="M142.0586 356.28516h56.58984v-16.89063h-56.58985Zm0 0"/></g><g clip-path="url(#z)"><path fill="none" stroke="#000" stroke-miterlimit="10" stroke-width=".79554" d="M142.05857 356.28529h56.58987v-16.89064h-56.58987Zm0 0"/></g><use xlink:href="#A" x="164.88374" y="351.15344"/><use xlink:href="#w" x="170.98944" y="345.98999"/><use xlink:href="#B" x="170.98944" y="352.96709"/><path fill="none" stroke="#000" stroke-miterlimit="10" stroke-width=".79554" d="M170.35546 270.04697v66.3633"/><path d="m170.35547 338.9961 2.0664-4.13673-2.0664 1.55079-2.07031-1.55079"/><path fill="#B2D9D9" d="M269.38672 99.8789h56.58594V86.5h-56.58594Zm0 0"/><g clip-path="url(#C)"><path fill="none" stroke="#000" stroke-miterlimit="10" stroke-width=".79554" d="M269.38675 99.87894h56.58595V86.50003h-56.58595Zm0 0"/></g><use xlink:href="#x" x="287.04776" y="96.42563"/><use xlink:href="#l" x="294.04851" y="96.42563"/><use xlink:href="#x" x="301.30781" y="96.42563"/><path fill="none" stroke="#000" stroke-miterlimit="10" stroke-width=".79554" d="M208.33203 16.61328 287.45706 84.418"/><path d="m289.41797 86.10156-1.79297-4.26172-.16797 2.57813-2.52344.5625"/><path fill="#CCF" d="M269.38672 186.51953h56.58594v-16.89062h-56.58594Zm0 0"/><g clip-path="url(#D)"><path fill="none" stroke="#000" stroke-miterlimit="10" stroke-width=".79554" d="M269.38675 186.5196h56.58595v-16.89063h-56.58595Zm0 0"/></g><use xlink:href="#E" x="291.99361" y="181.38847"/><use xlink:href="#w" x="298.52753" y="176.22502"/><use xlink:href="#B" x="298.52753" y="183.20212"/><path fill="none" stroke="#000" stroke-miterlimit="10" stroke-width=".79554" d="M297.67972 100.27738v66.36721"/><path d="m297.67969 169.23047 2.07031-4.13672-2.07031 1.55078-2.0664-1.55078"/></svg>