<svg xmlns="http://www.w3.org/2000/svg" xmlns:xlink="http://www.w3.org/1999/xlink" width="680.713pt" height="170.577pt" viewBox="0 0 680.713 170.577"><defs><path id="a" d="M.59375-.73437c0 .53125.4375.95312 1.1875.95312 1.28125 0 2-1.26562 2.76563-2.53125l.76562-1.21875h.03125L5.6875-2.0625C6.04688-.57812 6.375.21875 7.32813.21875c1.375 0 2.09375-1.40625 2.65625-2.54687l-.48438-.25C9.04688-1.75 8.53125-.75 8.01563-.75c-.35938 0-.5-.42187-.92188-2.09375L6.5-5.28125c.67188-1.20312 1.625-2.6875 2.17188-2.6875s.5625.29688 1.125.29688c.42187 0 .79687-.39063.79687-.89063 0-.57812-.4375-.8125-.95312-.8125-1 0-1.82813.89063-2.48438 1.9375l-.8125 1.28125h-.04687l-.75-3.14062-.09375-.07813-3.09375.92188.04687.46875L3.875-8.09375c.29688 0 .4375.14063.60938.9375l.65625 2.70313-.51563.89062c-.79687 1.375-1.48437 2.34375-1.9375 2.34375-.54687 0-.6875-.45312-1.28125-.45312-.46875 0-.8125.48437-.8125.9375m0 0"/><path id="b" d="M-.39062 3.4375C-.375 4.04688.4375 4.51563 1.3125 4.51563 3.1875 4.51563 3.96875 3 4.75-.57812l1.73438-7.875h2.35937l.17188-.70313H6.59375l.51563-2.10937c.35937-1.42188.71875-1.95313 1.23437-1.95313.5 0 .84375.42188 1.25 1.3125.10938.1875.25.3125.51563.3125.39062 0 .92187-.32812.92187-.8125 0-.79687-1.01562-1.45312-2.125-1.45312-2.20312 0-3.125 1.5625-3.84375 4.01562l-.1875.6875H3.26563l-.21875.70313h1.65625L2.54688 2.5625c-.21875 1.15625-.42188 1.26563-.59375 1.26563-.20313 0-.5-.125-1-.90625C.8125 2.75.70313 2.5.45313 2.5c-.40625 0-.84375.46875-.84375.9375m0 0"/><path id="c" d="M1.60938-5.26562c0 4.21875.95312 8.84375 4.90625 9V3.1875C5.1875 2.92188 3.09375 1.26563 3.09375-5.26562c0-6.5 2-8.15625 3.42188-8.45313v-.54687c-3.95313.15625-4.90625 4.78125-4.90625 9m0 0"/><path id="d" d="M1.10938 3.1875v.54688c3.95312-.15625 4.90625-4.78125 4.90625-9s-.95313-8.84375-4.90625-9v.54687c1.4375.29688 3.42187 1.95313 3.42187 8.45313 0 6.53125-2.09375 8.1875-3.42187 8.45312m0 0"/><path id="i" d="M1.59375-4.73437h10.26563v-1.09375H1.59375Zm0 0"/><path id="j" d="M.29688-3.95312C.29688-1.73437 2.5.20313 4.57813.20313c2.60937 0 4.28125-2.625 4.60937-3.14063.35938.67188 2.15625 3.15625 5.0625 3.15625 3.45313 0 4.45313-2.625 4.45313-4.82812 0-2.23438-2.09376-4-4.15626-4-2.48437 0-3.82812 1.79687-4.625 2.89062-.73437-1.20312-2.375-2.84375-4.95312-2.84375-3.40625 0-4.67187 2.40625-4.67187 4.60938m1.17187.0625c0-1.875 1.3125-3.34375 2.89063-3.34375 1.85937 0 3.4375 1.96875 4.3125 3.35937C7.95313-2.60937 6.625-.65625 4.51563-.65625c-1.35938 0-3.04688-1.54687-3.04688-3.23437m8.98438-1c.71875-1.26563 2.0625-2.84375 4.17187-2.84375 1.35938 0 2.98438 1.35937 2.98438 3.04687 0 1.89063-1.01563 3.60938-2.82813 3.60938-1.92187 0-3.45312-2.14063-4.32812-3.8125m0 0"/><path id="k" d="M2.03125 0h6.14063v-.53125L6.59375-.67187c-.39062-.04688-.60937-.1875-.60937-.92188v-11l-.09375-.10937-3.85938.65625v.45312l1.75.21875c.3125.04688.4375.1875.4375.71875v9.0625c0 .73438-.1875.875-.625.92188l-1.5625.14062Zm0 0"/><path id="l" d="M.5-.17187.70313 0h7.71875l.64062-2.46875-.51562-.09375c-.39063 1.01563-.78125 1.15625-1.53125 1.15625H2.25c.29688-.98437 1.40625-2.3125 3.14063-3.5625C7.17188-6.28125 8.5625-7.10937 8.5625-9.20312c0-2.60938-1.71875-3.5-3.6875-3.5-2.5625 0-3.875 1.54687-3.875 2.53125 0 .625.70313.9375 1.03125.9375.32813 0 .45313-.20313.53125-.53125.29688-1.26563 1.03125-2.28125 2.1875-2.28125 1.4375 0 1.84375 1.1875 1.84375 2.5625 0 2.01562-1.01562 3.14062-2.64062 4.57812C1.65625-2.90625.85938-1.625.5-.17187m0 0"/><path id="m" d="M1.59375-4.73437H6.1875v4.59375h1.09375v-4.59375h4.57813v-1.09375H7.28125v-4.59375H6.1875v4.59375H1.59375Zm0 0"/><path id="n" d="M.39063-3.125C.39063-1.25.9375.10938 2.46875.10938 4.01563.10938 4.57813-1.25 4.57813-3.125c0-1.85937-.5625-3.21875-2.10938-3.21875C.9375-6.34375.39063-4.98437.39063-3.125m.9375 0c0-1.51562.26562-2.89062 1.14062-2.89062.89063 0 1.15625 1.375 1.15625 2.89062 0 1.53125-.26562 2.90625-1.15625 2.90625-.875 0-1.14062-1.375-1.14062-2.90625m0 0"/><path id="r" d="M1.01563 0h3.0625v-.26562l-.78125-.07813c-.20313-.01562-.3125-.07812-.3125-.45312v-5.5l-.04688-.04688-1.92187.32813v.21875l.875.10937c.15624.01563.21874.09375.21874.35938v4.53125c0 .1875-.01562.29687-.07812.35937-.04687.0625-.14062.09375-.23437.09375l-.78125.07813Zm0 0"/><path id="p" d="M.79688-2.35937h2.29687V-.0625h.54688v-2.29687H5.9375v-.54688H3.64063v-2.29687h-.54688v2.29687H.79688Zm0 0"/><path id="q" d="M.15625-1.98437c0 1.125 1.09375 2.07812 2.125 2.07812 1.3125 0 2.15625-1.3125 2.3125-1.5625C4.76563-1.14062 5.67188.10938 7.125.10938c1.73438 0 2.21875-1.3125 2.21875-2.42188S8.3125-4.29687 7.28125-4.29687c-1.25 0-1.92187.89062-2.32812 1.4375-.35938-.59375-1.17188-1.42188-2.46875-1.42188-1.70313 0-2.32813 1.20313-2.32813 2.29688m.57813.03124c0-.92187.65625-1.67187 1.4375-1.67187.9375 0 1.71875.98438 2.15625 1.6875C3.96875-1.29687 3.3125-.32812 2.25-.32812c-.67187 0-1.51562-.78125-1.51562-1.625m4.5-.48437c.34375-.64062 1.03125-1.42187 2.07812-1.42187.67188 0 1.48438.67187 1.48438 1.51562 0 .9375-.5 1.8125-1.40625 1.8125-.96875 0-1.71875-1.07812-2.15625-1.90625m0 0"/><clipPath id="e"><path d="M.69922 56h679.02734v1H.69922Zm0 0"/></clipPath><clipPath id="f"><path d="M.69922 169h679.02734v1.15625H.69922Zm0 0"/></clipPath><clipPath id="g"><path d="M.69922 0h679.02734v170.15625H.69922Zm0 0"/></clipPath><clipPath id="h"><path d="M113 0h2v170.15625h-2Zm0 0"/></clipPath><clipPath id="o"><path d="M311 56h2v114.15625h-2Zm0 0"/></clipPath></defs><use xlink:href="#a" x="51.75618" y="33.05703"/><use xlink:href="#b" x="38.07012" y="118.18393"/><use xlink:href="#c" x="49.73732" y="118.18393"/><use xlink:href="#a" x="57.3697" y="118.18393"/><use xlink:href="#d" x="69.19592" y="118.18393"/><g clip-path="url(#e)"><path fill="none" stroke="#000" stroke-miterlimit="10" stroke-width=".39752" d="M.89844 56.74998h678.6404"/></g><g clip-path="url(#f)"><path fill="none" stroke="#000" stroke-miterlimit="10" stroke-width=".39752" d="M.89844 169.85932h678.6404"/></g><g clip-path="url(#g)"><path fill="none" stroke="#000" stroke-miterlimit="10" stroke-width=".39752" d="M.89844.19922v169.6601h678.6404V.19922Zm0 0"/></g><g clip-path="url(#h)"><path fill="none" stroke="#000" stroke-miterlimit="10" stroke-width=".39752" d="M114.00387.19922v169.6601"/></g><use xlink:href="#i" x="126.03099" y="32.66899"/><use xlink:href="#j" x="139.46716" y="32.66899"/><use xlink:href="#i" x="300.26991" y="34.82564"/><use xlink:href="#k" x="313.70608" y="34.82564"/><use xlink:href="#l" x="476.64652" y="34.82564"/><use xlink:href="#m" x="635.00483" y="33.57374"/><use xlink:href="#j" x="648.441" y="33.57374"/><path fill="#FFF" d="M137.82031 165.88281h8.92188v-10.4336h-8.92188Zm0 0"/><use xlink:href="#n" x="139.80483" y="163.78484"/><path fill="#FFF" d="M137.82031 165.88281h8.92188v-10.4336h-8.92188Zm0 0"/><use xlink:href="#n" x="139.80483" y="163.78484"/><g clip-path="url(#o)"><path fill="none" stroke="#000" stroke-miterlimit="10" stroke-width="1.39133" d="M311.9413 57.14842v112.31246"/></g><path fill="none" stroke="#FFF" stroke-miterlimit="10" stroke-width=".59628" d="M311.9413 57.14842v112.31246"/><path fill="#FFF" d="M288.32422 69.4375h20.22265v-9.29297h-20.22265Zm0 0"/><use xlink:href="#p" x="290.30761" y="67.34001"/><use xlink:href="#q" x="297.0257" y="67.34001"/><path fill="#FFF" d="M315.33203 166.46484h20.22656v-9.29297h-20.22656Zm0 0"/><use xlink:href="#p" x="317.31763" y="164.3674"/><use xlink:href="#q" x="324.03572" y="164.3674"/><path fill="none" stroke="#000" stroke-miterlimit="10" stroke-width=".39752" d="m150.42573 155.66792 133.48434-81.957"/><path d="M285.9414 72.46484c-.94921.35157-2.68359.94922-4.16796.8086 1.42187.41406 1.83594 1.08984 1.5625 2.54297.54687-1.38672 1.86328-2.66407 2.60547-3.35157m0 0"/><path fill="#FFF" d="M477.14063 165.88281h8.92187v-10.4336h-8.92187Zm0 0"/><use xlink:href="#n" x="479.12039" y="163.78484"/><path fill="#FFF" d="M477.14063 165.88281h8.92187v-10.4336h-8.92187Zm0 0"/><use xlink:href="#n" x="479.12039" y="163.78484"/><path fill="none" stroke="#000" stroke-miterlimit="10" stroke-width=".39752" d="m339.53114 161.7148 131.24606-.96876"/><path d="M473.16406 160.72656c-.9961-.1914-2.78906-.57422-3.98437-1.46094 1 1.08594 1.0039 1.88282.01953 2.98438 1.1875-.90625 2.97265-1.3164 3.96484-1.52344m0 0"/><path fill="#FFF" d="M646.80078 71.05469h8.92188V60.72656h-8.92188Zm0 0"/><use xlink:href="#r" x="648.77867" y="69.06473"/><path fill="#FFF" d="M646.80078 71.05469h8.92188V60.72656h-8.92188Zm0 0"/><use xlink:href="#r" x="648.77867" y="69.06473"/><path fill="none" stroke="#000" stroke-miterlimit="10" stroke-width=".39752" d="m489.785 156.0937 151.20698-84.47653"/><path d="M643.07422 70.45313c-.96094.3125-2.71875.83593-4.19531.63671 1.40234.47266 1.78906 1.16407 1.45312 2.60547.60547-1.36328 1.97266-2.58203 2.74219-3.24219m0 0"/></svg>