<svg xmlns="http://www.w3.org/2000/svg" xmlns:xlink="http://www.w3.org/1999/xlink" width="428.528pt" height="227.17pt" viewBox="0 0 428.528 227.17"><defs><path id="a" d="M1.6875-5.26562c0 2.14062 1.5625 3.71875 3.73438 3.71875 2.07812 0 3.65625-1.57813 3.65625-3.71875 0-2.07813-1.57813-3.65625-3.65625-3.65625-2.17188 0-3.73438 1.57812-3.73438 3.65625m0 0"/><path id="b" d="M1.78125.21875 3.4375 0c.53125-1.90625.875-2.92187 1.34375-4.07812.70313-1.60938 2.48438-4.32813 4-4.32813.46875 0 .6875.32813.6875.79688 0 .15625-.01562.34375-.07812.54687L7.78125-1.60937c-.07812.28124-.10937.53125-.10937.75 0 .65625.3125 1.07812 1.0625 1.07812 1.39062 0 2.45312-1.26562 3.07812-2.6875l-.45312-.25C11.01563-2.0625 10.20313-.75 9.6875-.75c-.21875 0-.29687-.14062-.29687-.375 0-.1875.04687-.40625.10937-.64062l1.46875-4.90625c.10938-.42188.1875-.8125.1875-1.17188 0-.89062-.4375-1.53125-1.53125-1.53125-1.78125 0-3.73437 1.98438-4.84375 4.17188h-.0625L5.9375-9.28125 5.84375-9.375l-3.42187.51563-.125.45312 1.17187.10938c.28125.01562.39063.14062.39063.32812 0 .14063-.04688.32813-.10938.5625Zm0 0"/><path id="c" d="M1.59375-4.71875h10.26563V-5.8125H1.59375Zm0 0"/><path id="d" d="M2.03125 0h6.125v-.53125l-1.5625-.14062c-.39062-.04688-.60937-.1875-.60937-.92188v-11L5.875-12.6875l-3.84375.65625v.45313l1.73438.21875c.32812.04687.4375.17187.4375.71875v9.04687c0 .73438-.17188.875-.60938.92188l-1.5625.14062Zm0 0"/><path id="e" d="M1.59375-4.71875h4.57813v4.57813h1.09375v-4.57813h4.59375V-5.8125H7.26563v-4.59375H6.17188v4.59375H1.59375Zm0 0"/><path id="f" d="M.59375-.73437c0 .53125.4375.95312 1.1875.95312 1.28125 0 1.98438-1.26562 2.76563-2.51562l.75-1.23438h.04687L5.6875-2.0625C6.03125-.57812 6.375.21875 7.32813.21875c1.375 0 2.07812-1.40625 2.64062-2.54687l-.46875-.25C9.03125-1.75 8.51563-.75 8-.75c-.35937 0-.5-.42187-.90625-2.09375L6.5-5.28125c.67188-1.1875 1.625-2.6875 2.15625-2.6875.5625 0 .57813.29688 1.14063.29688.40625 0 .78125-.39063.78125-.89063 0-.57812-.4375-.8125-.95313-.8125-.98437 0-1.8125.89063-2.46875 1.95313l-.82812 1.26562h-.03125l-.75-3.14062L5.4375-9.375l-3.07812.9375.04687.45313L3.875-8.07812c.29688 0 .4375.14062.60938.92187l.65625 2.70313-.51563.89062c-.79687 1.375-1.48437 2.34375-1.9375 2.34375-.54687 0-.6875-.45312-1.28125-.45312-.46875 0-.8125.48437-.8125.9375m0 0"/><path id="g" d="M-.39062 3.4375C-.375 4.04688.4375 4.51563 1.3125 4.51563 3.17188 4.51563 3.96875 3 4.75-.57812L6.46875-8.4375h2.375l.17188-.71875H6.59375l.51563-2.10937c.35937-1.40625.71875-1.9375 1.23437-1.9375.5 0 .82813.40625 1.25 1.3125.09375.17187.23438.3125.51563.3125.375 0 .90625-.34375.90625-.8125 0-.79688-1-1.45313-2.125-1.45313-2.20313 0-3.10938 1.54688-3.82813 4.01563l-.20312.67187H3.25l-.21875.71875h1.67188l-2.15625 11c-.21875 1.15625-.42188 1.26563-.59375 1.26563-.20313 0-.5-.14063-1-.90625C.8125 2.73438.6875 2.5.45313 2.5c-.40625 0-.84375.45313-.84375.9375m0 0"/><path id="h" d="M1.60938-5.26562c0 4.21875.95312 8.84375 4.90625 9v-.5625c-1.32813-.25-3.42188-1.90625-3.42188-8.4375 0-6.48438 1.98438-8.14063 3.42188-8.4375v-.5625c-3.95313.17187-4.90625 4.79687-4.90625 9m0 0"/><path id="i" d="M1.10938 3.17188v.5625c3.95312-.15625 4.90625-4.78125 4.90625-9 0-4.20313-.95313-8.82813-4.90625-9v.5625c1.4375.29687 3.42187 1.95312 3.42187 8.4375 0 6.53125-2.09375 8.1875-3.42187 8.4375m0 0"/></defs><path fill="none" stroke="#000" stroke-miterlimit="10" stroke-width=".39705" d="M47.94922.19523c48.01564 169.461 217.47664 225.9493 330.44934 112.9766"/><use xlink:href="#a" x="50.67071" y="29.22124"/><use xlink:href="#b" x="7.16168" y="44.46454"/><use xlink:href="#c" x="22.94461" y="44.46454"/><use xlink:href="#d" x="39.1246" y="44.46454"/><use xlink:href="#a" x="183.44261" y="167.05464"/><use xlink:href="#b" x="168.9944" y="178.98206"/><use xlink:href="#a" x="280.48505" y="171.46752"/><use xlink:href="#b" x="264.17763" y="184.42717"/><use xlink:href="#e" x="279.96056" y="184.42717"/><use xlink:href="#f" x="296.14055" y="184.42717"/><use xlink:href="#a" x="318.97741" y="157.21758"/><use xlink:href="#b" x="331.36216" y="172.45989"/><use xlink:href="#e" x="347.1451" y="172.45989"/><use xlink:href="#d" x="363.32508" y="172.45989"/><use xlink:href="#g" x="382.18248" y="133.7284"/><use xlink:href="#h" x="393.83605" y="133.7284"/><use xlink:href="#f" x="401.4595" y="133.7284"/><use xlink:href="#i" x="413.27188" y="133.7284"/><path fill="none" stroke="#000" stroke-miterlimit="10" stroke-width=".39705" d="m56.03907 24.76165 132.77739 137.83598m0 0 97.043 4.41016m-97.043-4.41016 135.5352-9.83984"/></svg>