<svg xmlns="http://www.w3.org/2000/svg" xmlns:xlink="http://www.w3.org/1999/xlink" width="863.792pt" height="598.238pt" viewBox="0 0 863.792 598.238"><defs><path id="a" d="M.375 0h4.5625v-.53125C3.60938-.64062 3.54688-.67187 3.54688-1.625v-12.15625l-.14063-.09375-2.92187.45313v.48437l.6875.0625c.48437.0625.59375.15625.59375.875v10.375c0 .95313-.03126.98438-1.39063 1.09375Zm0 0"/><path id="b" d="M1.71875-12.25c0 .6875.46875 1.15625 1.14063 1.15625C3.54688-11.09375 4-11.5625 4-12.25c0-.67187-.45312-1.125-1.14062-1.125-.67188 0-1.14063.45313-1.14063 1.125M.59375 0h4.5625v-.53125C3.82813-.64062 3.76563-.67187 3.76563-1.625v-7.65625L3.625-9.39062l-2.92187.46875v.46875l.6875.09375c.48437.07812.625.15625.625.82812V-1.625c0 .95313-.0625.98438-1.42188 1.09375Zm0 0"/><path id="c" d="M.59375 0h4.5625v-.53125C3.82813-.64062 3.76563-.67187 3.76563-1.625v-4.39062c0-.46875 0-.73438.14062-.98438.35938-.76562 1.17188-1.375 2.20313-1.375 1.60937 0 1.8125 1.17188 1.8125 2.32813V-1.625c0 .95313-.0625.98438-1.40625 1.09375V0h4.54687v-.53125C9.73438-.64062 9.67188-.67187 9.67188-1.625v-4.39062c0-.46875.01562-.71875.14062-1.01563.28125-.75 1.07813-1.34375 2.125-1.34375 1.1875 0 1.89063.65625 1.89063 2.32813V-1.625c0 .95313-.04688.98438-1.40625 1.09375V0H17v-.53125c-1.32812-.10937-1.40625-.14062-1.40625-1.09375v-4.78125c0-1.89062-1.01562-2.98437-2.79687-2.98437-1.53125 0-2.625 1.01562-3.28125 1.42187-.45313-.875-1.17188-1.42187-2.48438-1.42187-1.4375 0-2.60937.95312-3.26562 1.42187l-.1875-1.42187-2.875.46875v.46875l.6875.09375c.48437.07812.625.15625.625.82812V-1.625c0 .95313-.0625.98438-1.42188 1.09375Zm0 0"/><path id="d" d="M.45313-.5625c0 .39063.32812.71875.89062.71875.875 0 1.35938-.84375 1.89063-1.71875l.5-.85937h.03125l.23437 1c.23438 1 .48438 1.57812 1.1875 1.57812C6.21875.15625 6.78125-.875 7.17188-1.75l-.34375-.20312c-.3125.625-.70313 1.34375-1.0625 1.34375-.25 0-.34375-.28126-.59375-1.29688l-.46875-1.85937c.45312-.78125 1.0625-1.71875 1.42187-1.71875.39063 0 .46875.21875.85938.21875.3125 0 .59375-.3125.59375-.70313 0-.42187-.3125-.60937-.6875-.60937-.67188 0-1.25.5625-1.70313 1.28125l-.59375.90625h-.01562l-.51563-2.125L4-6.57812l-2.29687.65625.03124.34375.95313-.0625c.23438 0 .34375.09375.46875.59375L3.625-3.09375l-.35937.64063C2.76563-1.57812 2.3125-.9375 2-.9375c-.39062 0-.51562-.34375-.92187-.34375-.35938 0-.625.35938-.625.71875m0 0"/><path id="e" d="M1.03125-3.26562h8.95313c-.10938.20312-.39063.57812-.75.92187l.28125.42188c.60937-.5 1.64062-1.28125 2.54687-1.53125v-.48438c-.90625-.25-1.95312-1.03125-2.54687-1.53125l-.29688.42188c.3125.28125.59375.65625.76563.92187H1.03125Zm0 0"/><path id="f" d="M1.10938-3.26562h3.17187v3.17187h.875v-3.17187h3.17188v-.875H5.15625v-3.15625h-.875v3.15625H1.10938Zm0 0"/><path id="g" d="M.1875-2.8125C.1875-1.21875 1.75.14063 3.23438.14063c1.76562 0 2.92187-1.6875 3.23437-2.15625.3125.53125 1.57813 2.17187 3.5625 2.17187 2.42188 0 3.17188-1.82812 3.17188-3.45312 0-1.57813-1.5-2.82813-2.96875-2.82813C8.5-6.125 7.54688-4.92187 7-4.15625c-.53125-.82812-1.70312-1.95312-3.48437-1.95312C.89063-6.10937.1875-4.0625.1875-2.8125m.92188.03125c0-1.28125.90625-2.29687 1.98437-2.29687 1.29688 0 2.375 1.40625 2.95313 2.3125-.5.89062-1.40625 2.20312-2.84375 2.20312-.92188 0-2.09375-1.0625-2.09375-2.21875m6.3125-.70312c.5-.875 1.42187-1.9375 2.85937-1.9375.92188 0 2.04688.92187 2.04688 2.07812 0 1.3125-.70313 2.5-1.9375 2.5-1.34375 0-2.40625-1.54687-2.96875-2.64062m0 0"/><path id="h" d="M-.39062 3.4375c.01562.625.82812 1.07813 1.70312 1.07813C3.1875 4.51563 3.98438 3 4.75-.57812l1.73438-7.875h2.375l.17187-.71875H6.60938l.51562-2.10938c.35938-1.42187.71875-1.95312 1.23438-1.95312.5 0 .84375.42187 1.25 1.3125.10937.17187.25.3125.51562.3125.39063 0 .92188-.32813.92188-.8125 0-.79688-1.01563-1.45313-2.125-1.45313-2.21875 0-3.125 1.54688-3.84375 4.01563l-.20313.6875H3.26563l-.21875.71875h1.67187L2.54688 2.5625c-.21875 1.15625-.42188 1.28125-.59375 1.28125-.20313 0-.5-.14062-1-.92187-.14063-.17188-.25-.40625-.5-.40625-.40625 0-.84375.45312-.84375.92187m0 0"/><path id="i" d="M1.60938-5.28125c0 4.21875.95312 8.85938 4.92187 9.03125v-.5625c-1.32812-.26562-3.42187-1.90625-3.42187-8.46875 0-6.5 1.98437-8.15625 3.42187-8.45312v-.5625C2.5625-14.14062 1.60938-9.5 1.60938-5.28125m0 0"/><path id="j" d="M.59375-.73437c0 .53125.4375.95312 1.20313.95312 1.26562 0 1.98437-1.28125 2.76562-2.53125l.75-1.23437h.04688L5.6875-2.0625C6.04688-.57812 6.39063.21875 7.34375.21875 8.71875.21875 9.4375-1.1875 10-2.32812l-.48437-.26563C9.0625-1.75 8.54688-.75 8.01563-.75c-.35938 0-.48438-.42187-.90625-2.09375l-.59375-2.45312c.67187-1.1875 1.625-2.6875 2.15625-2.6875.5625 0 .57812.29687 1.14062.29687.42188 0 .79688-.39062.79688-.89062 0-.57813-.4375-.8125-.95313-.8125-1 0-1.82812.89062-2.48437 1.95312l-.82813 1.26563H6.3125L5.54688-9.3125l-.09375-.07812-3.07813.9375L2.40625-8 3.875-8.10937c.3125 0 .4375.14062.625.9375l.65625 2.71875-.51562.89062c-.79688 1.375-1.5 2.34375-1.95313 2.34375-.53125 0-.67187-.45312-1.28125-.45312-.46875 0-.8125.48437-.8125.9375m0 0"/><path id="k" d="M1.10938 3.1875V3.75c3.96875-.17187 4.92187-4.8125 4.92187-9.03125s-.95312-8.85937-4.92187-9.01562v.5625c1.4375.29687 3.42187 1.95312 3.42187 8.45312 0 6.5625-2.07812 8.20313-3.42187 8.46875m0 0"/><path id="l" d="M.29688-3.96875c0 2.23438 2.21875 4.17188 4.28125 4.17188 2.625 0 4.29687-2.625 4.625-3.15625.35937.6875 2.15625 3.17187 5.0625 3.17187 3.46875 0 4.46875-2.625 4.46875-4.84375s-2.09376-4-4.15626-4c-2.5 0-3.84374 1.79688-4.64062 2.89063-.73437-1.1875-2.375-2.84375-4.95312-2.84375-3.40625 0-4.6875 2.40625-4.6875 4.60937m1.17187.0625c0-1.85937 1.3125-3.34375 2.89063-3.34375 1.875 0 3.4375 1.96875 4.3125 3.375C7.96875-2.60937 6.625-.65625 4.51563-.65625c-1.34375 0-3.04688-1.54687-3.04688-3.25m9-.98437C11.1875-6.17187 12.54688-7.75 14.65625-7.75c1.34375 0 2.98438 1.35938 2.98438 3.04688 0 1.89062-1.01563 3.625-2.82813 3.625-1.9375 0-3.46875-2.14063-4.34375-3.8125m0 0"/><path id="m" d="M1.625 0h.6875l.57813-1.09375C3.21875-.3125 4.15625.21875 5.23438.21875c2.1875 0 3.78125-1.45312 4.70312-3.10937.9375-1.64063 1.23438-3.29688 1.23438-4.14063 0-1.39062-.60938-2.35937-2-2.35937-1.40625 0-3.28125 1.28125-4.71875 3.85937h-.03125l2.0625-8.26562-.07813-.07813-3.34375.4375L2.95313-13 4-12.875c.3125.03125.45313.09375.45313.375 0 .14063-.01563.29688-.07813.53125Zm2.3125-2.03125c0-.89062.40625-2.1875 1-3.28125.82813-1.5 2.25-3.10937 3.40625-3.10937.6875 0 1 .48437 1 1.54687 0 1.35938-1.125 6.4375-3.875 6.4375-.95312 0-1.53125-.65625-1.53125-1.59375m0 0"/><path id="D" d="M0 3.5c0 .5.5625 1.01563 1.375 1.01563 1.59375 0 2.26563-1.17188 3.92188-4.01563.375-.64062 1.51562-2.60937 2.67187-4.51562 1.0625-1.75 2.25-3.5625 2.25-4.32813 0-.65625-.20312-1.04687-.34375-1.04687-.35937 0-1 .15625-1.46875.46875 0 0-.0625 1.92187-.25 2.57812-.29687 1.04688-1.39062 3.07813-2.625 5.20313h-.0625C5.32813-4 4.98438-7.9375 4.71875-9.3125l-.14062-.07812L1.4375-8.5l.0625.48438 1.28125-.04688c.39063 0 .46875.3125.625 1.28125.20313 1.45313.60938 5.04688.60938 6.54688 0 .54687-.01563 1.3125-.4375 2.29687-.32813.78125-.8125 1.34375-1.1875 1.34375-.67188 0-.76563-1.03125-1.4375-1.03125C.48438 2.375 0 2.96875 0 3.5m0 0"/><path id="E" d="M1.59375-2.67187h10.29688v-1.09375H1.59375Zm0-4.10938h10.29688v-1.10937H1.59375Zm0 0"/><path id="F" d="M.78125-6.25C.78125-2.51562 1.875.21875 4.95313.21875c3.09375 0 4.20312-2.73437 4.20312-6.46875 0-3.75-1.10937-6.46875-4.20312-6.46875C1.875-12.71875.78125-10 .78125-6.25m1.89063 0c0-3.04687.51562-5.8125 2.28125-5.8125C6.73438-12.0625 7.25-9.29687 7.25-6.25S6.73438-.4375 4.95313-.4375c-1.76563 0-2.28125-2.76562-2.28125-5.8125m0 0"/><path id="G" d="M1.3125-2.01562c0 1.125.51563 2.23437 1.79688 2.23437 2 0 3.73437-2.3125 4.82812-4.21875h.04688l-.64063 2.125c-.125.42188-.20312.78125-.20312 1.07813 0 .65625.32812 1.01562 1.01562 1.01562 1.42188 0 2.46875-1.28125 3.10938-2.6875l-.4375-.26562C10.48438-2.0625 9.65625-.75 9.14063-.75c-.21875 0-.29688-.14062-.29688-.35937 0-.1875.04688-.40625.10938-.65625l1.96875-7.46875h-1.5625L9.28125-9c-.32812-.21875-.875-.39062-1.375-.39062-4.46875 0-6.59375 4.90625-6.59375 7.375m1.85938-.03125c0-2.04688 1.82812-6.6875 4.76562-6.6875.46875 0 .85938.15625 1.14063.40625-.34375 1.40625-1 3.25-1.98438 4.75C6.03125-1.98437 4.875-.75 3.98438-.75c-.625 0-.8125-.5625-.8125-1.29687m0 0"/><path id="H" d="M1.59375-2.67187h3.73438L4.21875 1.09375h1.20313l1.09375-3.76562h5.375v-1.09375h-5.0625l.875-3.01563h4.1875v-1.10937h-3.875L9.10938-11.625H7.9375L6.84375-7.89062h-5.25v1.10937h4.9375l-.875 3.01563h-4.0625Zm0 0"/><path id="O" d="M.59375-5.0625c0 3.09375 1.78125 5.34375 5.5 5.34375 3.29688 0 4.92188-1.6875 5.95313-3.54687C13.0625-5.09375 13.23438-7 13.23438-7.75c0-3.82812-2.32813-5.48437-5.40625-5.48437-2.98438 0-4.84375 1.65625-5.9375 3.4375C.85938-8.0625.59375-6.29687.59375-5.0625m1.96875.76563c0-1.57813.29688-3.32813 1.15625-5.14063.85938-1.76562 2.1875-3.14062 4.1875-3.14062 2.04688 0 3.35938 1.21875 3.35938 3.85937 0 1.07813-.09375 2.60938-.875 4.59375-.78125 2.01563-2.04688 3.75-4.48438 3.75C3.875-.375 2.5625-1.6875 2.5625-4.29687m0 0"/><path id="P" d="M1.59375-4.73437h10.29688v-1.09375H1.59375Zm0 0"/><path id="T" d="M1.59375-4.73437H6.1875v4.59375h1.09375v-4.59375h4.60938v-1.09375H7.28125v-4.60938H6.1875v4.60938H1.59375Zm0 0"/><path id="o" d="M.92188-2.42187c0 1.39062.92187 2.64062 2.6875 2.64062 1.09375 0 2.1875-.71875 2.78125-1.10937.26562.6875.57812 1.10937 1.23437 1.10937.70313 0 1.48438-.20312 2.20313-.5625l-.10938-.4375c-.26562.0625-.6875.07813-.95312 0-.34375-.07812-.65625-.40625-.65625-1.59375v-4.53125c0-1.09375-.25-2.48437-3.07813-2.48437-2.10937 0-3.78125 1.09375-3.78125 2.125 0 .59375.70313.875 1.0625.875.39063 0 .5-.20313.59375-.51563.42188-1.39062 1.17188-1.82812 1.9375-1.82812.73438 0 1.5625.375 1.5625 1.85937v.78125c-.46875.48438-2.28125.95313-3.76562 1.4375C1.29688-4.23437.92188-3.29687.92188-2.42187M2.8125-2.6875c0-.875.39063-1.32812 1.45313-1.73437.75-.28125 1.71875-.64063 2.14062-.89063v2.64063c0 1.51562-1.15625 1.89062-1.89062 1.89062-1.15625 0-1.70313-.8125-1.70313-1.90625m0 0"/><path id="p" d="m.875-3.125.20313 2.45313c.67187.59375 1.8125.89062 2.90625.89062 2.21875 0 3.5-1.17187 3.5-2.76562 0-1.65625-1.01563-2.39063-2.95313-2.98438-.76562-.23437-1.98437-.64062-1.98437-1.6875 0-.98437.73437-1.51562 1.67187-1.51562 1.32813 0 1.96875 1.03125 2.10938 2.17187H6.875v-2.20312c-.625-.45313-1.57812-.625-2.42187-.625-2.03125 0-3.39063.95312-3.39063 2.71875 0 1.5625 1.26563 2.25 2.8125 2.73437.84375.25 2.01563.67188 2.01563 1.95313 0 .95312-.73438 1.54687-1.73438 1.54687-1.51562 0-2.35937-1.09375-2.75-2.6875Zm0 0"/><path id="q" d="M-.09375-8.625c.89063.04688 1.09375.17188 1.42188.98438.9375 2.25 2.46875 6.20312 2.9375 7.5.10937.3125.15625.59375.15625.92187 0 .4375-.1875.98438-.45313 1.59375-.28125.60938-.625.79688-.82812.79688-.17188 0-.35938-.0625-.6875-.40625-.1875-.15625-.34375-.25-.5625-.25-.35938 0-.8125.51562-.8125 1.04687 0 .45313.51562.95313 1.29687.95313.75 0 1.70313-.21875 2.65625-2.98438C6.1875-1.79687 7.92188-6.34375 8.5-7.65625c.34375-.76562.4375-.90625 1.375-.96875v-.54687H6.29688v.54687l.96875.07813c.3125.04687.35937.26562.26562.64062-.28125 1.125-1.26562 3.9375-2.07812 6.1875h-.03125c-.85938-2.26562-1.625-4.26562-2.3125-6.25-.125-.32812-.15625-.54687.28125-.59375l.8125-.0625v-.54687H-.09375Zm0 0"/><path id="r" d="M.59375 0h4.5625v-.53125C3.82813-.64062 3.76563-.67187 3.76563-1.625v-4.39062c0-.46875 0-.73438.14062-.98438.35938-.76562 1.17188-1.375 2.20313-1.375 1.60937 0 1.8125 1.17188 1.8125 2.32813V-1.625c0 .95313-.0625.98438-1.40625 1.09375V0h4.54687v-.53125C9.73438-.64062 9.67188-.67187 9.67188-1.625v-4.39062c0-.46875.01562-.71875.14062-1.01563.28125-.75 1.07813-1.34375 2.125-1.34375 1.1875 0 1.89063.65625 1.89063 2.32813V-1.625c0 .95313-.04688.98438-1.40625 1.09375V0H17v-.53125c-1.32812-.10937-1.40625-.14062-1.40625-1.09375v-4.78125c0-1.89062-1.01562-2.98437-2.79687-2.98437-1.53125 0-2.625 1.01562-3.28125 1.42187-.45313-.875-1.17188-1.42187-2.48438-1.42187-1.4375 0-2.60937.95312-3.26562 1.42187l-.1875-1.42187-2.875.46875v.46875l.6875.09375c.48437.07812.625.15625.625.82812V-1.625c0 .95313-.0625.98438-1.42188 1.09375Zm0 0"/><path id="s" d="M.48438 3.76563v.53125H5.3125v-.53125C3.75 3.65625 3.625 3.625 3.625 2.67188v-2.875c.39063.21875 1.29688.42187 2.14063.42187 2.53125 0 4.6875-1.15625 4.6875-5.01562 0-1.32813-.23438-4.59375-3.64063-4.59375-1.375 0-2.45312.90625-3.1875 1.39062l-.23437-1.39062-2.82813.46875v.46875l.71875.09375c.46875.07812.59375.15625.59375.82812V2.67188c0 .95312-.07812.98437-1.39062 1.09375M3.625-2.95312v-3.0625c0-.46875.09375-.71875.25-1.04688.4375-.85937 1.21875-1.3125 2.21875-1.3125.75 0 2.42188.46875 2.42188 3.70313 0 2.73437-.875 4.23437-2.75 4.23437-.96875 0-1.70313-.5-2-1.35937-.125-.32813-.14063-.71875-.14063-1.15625m0 0"/><path id="t" d="M.57813-8.42187H1.9375v6.51562C1.9375 0 3.34375.21875 4 .21875c.95313 0 1.85938-.48437 2.39063-.8125L6.25-1c-.45312.1875-.85937.25-1.32812.25-.64063 0-1.23438-.46875-1.23438-1.875v-5.79687h2.40625v-.75H3.6875v-2.35938h-.54687l-1.125 2.35938H.57813Zm0 0"/><path id="u" d="M.92188-4.57812c0 3.03125 1.48437 4.79687 4.5 4.79687 3 0 4.46875-1.76562 4.46875-4.79687s-1.46875-4.8125-4.46875-4.8125c-3.01563 0-4.5 1.78125-4.5 4.8125m1.9375 0c0-2.59375.84375-4.15625 2.5625-4.15625 1.70312 0 2.54687 1.5625 2.54687 4.15625S7.125-.4375 5.42188-.4375c-1.71875 0-2.5625-1.54687-2.5625-4.14062m0 0"/><path id="v" d="M.92188-4.51562c0 2.96875 1.26562 4.73437 4.3125 4.73437C7.3125.21875 8.375-.9375 8.875-2.40625l-.54687-.29687C7.79688-1.60937 7.09375-.73437 5.60938-.73437c-2.32813 0-2.78125-2.23438-2.75-4.1875h5.40625c.39062 0 .73437-.09375.73437-.71875 0-1.09375-.35937-3.75-3.78125-3.75-2.92187 0-4.29687 2.0625-4.29687 4.875m1.96875-1.125c0-.76563.28125-3.09375 2.21875-3.09375 1.73437 0 1.9375 1.76562 1.9375 2.5 0 .35937-.125.59375-.64063.59375Zm0 0"/><path id="w" d="M.39063 0H4.9375v-.53125C3.64063-.64062 3.54688-.71875 3.54688-1.625v-4.39062c0-.46875 0-.71875.15625-.98438.39062-.76562 1.25-1.375 2.25-1.375 1.26562 0 1.96875.6875 1.96875 2.32813V-1.625c0 .90625-.09375.98438-1.40625 1.09375V0h4.54687v-.53125C9.78125-.64062 9.67188-.71875 9.67188-1.625v-4.78125c0-1.89062-1.03125-2.98437-2.76563-2.98437-1.375 0-2.20312.65625-3.39062 1.42187v-5.8125l-.125-.09375-2.90625.45313v.48437l.6875.07813c.48437.07812.59375.17187.59375.85937v10.375c0 .90625-.04688.98438-1.375 1.09375Zm0 0"/><path id="x" d="M.59375 0h4.9375v-.53125C3.85938-.64062 3.76563-.67187 3.76563-1.625v-4.39062c0-1.42188.64062-1.92188 1.07812-1.92188.29688 0 .60938.10938 1.14063.40625.14062.09375.28125.10938.39062.10938.45313 0 .84375-.48438.84375-1.0625 0-.40625-.25-.90625-.98437-.90625C5.54688-9.39062 5-9 3.76563-7.90625l-.21875-1.48437-2.84375.46875v.46875l.6875.09375c.48437.07812.625.15625.625.82812V-1.625c0 .95313-.10938.98438-1.42188 1.09375Zm0 0"/><path id="y" d="M1.39063-4.04687h4.57812v-1.3125H1.39063Zm0 0"/><path id="z" d="M1.71875-12.25c0 .6875.46875 1.15625 1.14063 1.15625C3.54688-11.09375 4-11.5625 4-12.25c0-.67187-.45312-1.125-1.14062-1.125-.67188 0-1.14063.45313-1.14063 1.125M.59375 0h4.5625v-.53125C3.82813-.64062 3.76563-.67187 3.76563-1.625v-7.65625L3.625-9.39062l-2.92187.46875v.46875l.6875.09375c.48437.07812.625.15625.625.82812V-1.625c0 .95313-.0625.98438-1.42188 1.09375Zm0 0"/><path id="A" d="M.35938-.28125.5 0h7.95313l.1875-2.85937H8.0625c-.29687 1.75-.9375 2.20312-3 2.20312H2.64063c1.89062-2.75 3.84375-5.5 5.84375-8.23437l-.15625-.28125h-7.1875v2.78125h.57812c.23438-1.71875.625-2.125 2.65625-2.125H6.25C4.3125-5.76562 2.375-3.03125.35938-.28125m0 0"/><path id="B" d="M.59375 0h4.5625v-.53125C3.82813-.64062 3.76563-.67187 3.76563-1.625v-4.39062c0-.46875.01562-.71875.17187-1.01563C4.34375-7.76562 5.17188-8.375 6.17188-8.375c1.26562 0 1.96875.6875 1.96875 2.32813V-1.625c0 .95313-.0625.98438-1.40625 1.09375V0h4.57812v-.53125C9.96875-.64062 9.89063-.67187 9.89063-1.625v-4.78125c0-1.89062-1.03125-2.98437-2.75-2.98437-1.39063 0-2.25.67187-3.39063 1.42187l-.26562-1.42187-2.78125.46875v.46875l.6875.09375c.48437.07812.625.15625.625.82812V-1.625c0 .95313-.0625.98438-1.42188 1.09375Zm0 0"/><path id="C" d="M.375 0h4.5625v-.53125C3.60938-.64062 3.54688-.67187 3.54688-1.625v-12.15625l-.14063-.09375-2.92187.45313v.48437l.6875.0625c.48437.0625.59375.15625.59375.875v10.375c0 .95313-.03126.98438-1.39063 1.09375Zm0 0"/><path id="K" d="M.65625 0h5.79688C9.29688 0 11.125-1.01562 11.125-3.625c0-2.20312-1.5625-3.1875-3.375-3.42187v-.04688c1.75-.34375 2.78125-1.45312 2.78125-2.875 0-1.04687-.40625-1.8125-1.15625-2.3125-.73437-.48437-1.8125-.65625-3.29687-.65625H.65625v.53125c1.65625.125 1.6875.14063 1.6875 1.20313v9.46875c0 1.0625-.03125 1.07812-1.6875 1.20312Zm3.54688-2.09375v-4.5625h1.32812C7.85938-6.65625 9.14063-5.5 9.14063-3.5c0 2.25-1.53125 2.84375-3.15625 2.84375-1.48438 0-1.78125-.28125-1.78125-1.4375m0-5.21875v-4.04687c0-.79688.0625-.9375 1.51562-.9375 1.375 0 2.85938.51562 2.85938 2.4375 0 1.84375-1.17188 2.54687-3.125 2.54687Zm0 0"/><path id="L" d="M.65625 0h5.51563v-.53125c-1.9375-.125-1.96875-.14062-1.96875-1.20312V-5.3125H5.25c.85938 0 1.70313-.07812 2.39063-.23437C9.07813-5.9375 10.75-6.92187 10.75-9.28125c0-1.40625-.64062-2.40625-1.46875-2.92187-.90625-.5625-2.09375-.73438-3.40625-.73438H.65625v.53125c1.65625.125 1.6875.14063 1.6875 1.20313v9.46875c0 1.0625-.03125 1.07812-1.6875 1.20312Zm3.54688-6.70312v-4.90625c0-.51563.20312-.6875 1.40625-.6875 1.9375 0 3.10937 1.10937 3.10937 3.14062 0 2.34375-1.53125 3.1875-3.14062 3.1875-1.09375 0-1.375-.04687-1.375-.73437m0 0"/><path id="M" d="M.92188-4.40625c0 2.78125 1.45312 4.625 3.92187 4.625 1.01563 0 1.85938-.45312 2.875-1.28125v.92188L7.89063 0h3.01562v-.53125C9.57813-.64062 9.51563-.67187 9.51563-1.625v-12.15625L9.375-13.875l-2.9375.45313v.48437l.70313.0625c.48437.0625.60937.15625.60937.875v3.0625c-.53125-.28125-1.21875-.45312-2.07812-.45312-1.53125 0-2.6875.5-3.46875 1.28125C1.40625-7.26562.92188-6.03125.92188-4.40625m1.9375-.21875c0-2.42187.89062-4.10937 2.79687-4.10937.875 0 1.59375.39062 1.92188 1.17187C7.75-7.25 7.75-6.96875 7.75-6.46875v3.28125c0 .42188 0 .73438-.125 1.0625-.375.96875-1.1875 1.34375-2.17187 1.34375-1.70313 0-2.59375-1.6875-2.59375-3.84375m0 0"/><path id="N" d="M.92188-4.5C.92188-1.375 2.45313.21875 5.25.21875c1.3125 0 3.09375-.67187 3.60938-2.6875l-.5625-.26562C7.71875-1.40625 6.98438-.75 5.60938-.75c-2.21875 0-2.75-2.32812-2.75-4.09375 0-2.78125 1.10937-3.89062 2.39062-3.89062.85938 0 1.40625.60937 1.78125 1.625.10938.29687.23438.48437.59375.48437.375 0 1.09375-.25 1.09375-.95312 0-.85938-1.23437-1.8125-3.26562-1.8125C2.04688-9.39062.92188-6.98437.92188-4.5m0 0"/><path id="Q" d="m1.35938-9.14062.3125.29687c.9375-.84375 2.20312-2.10937 2.20312-3.4375 0-1.01562-.60937-1.59375-1.23437-1.59375-.54688 0-.89063.40625-.89063.89063 0 .6875.625 1.0625.625 1.75 0 .71875-.4375 1.42187-1.01562 2.09375m0 0"/><path id="R" d="M.01563 0h3.59375v-.53125l-.78125-.10937c-.26563-.03126-.26563-.25-.14063-.45313.42188-.79687 1.01563-1.6875 1.65625-2.67187H4.375l1.67188 2.60937c.20312.3125.14062.48438-.14063.51563l-.76562.10937V0h4.375v-.53125C8.67188-.57812 8.375-.64062 7.90625-1.3125c-.85937-1.23437-1.75-2.53125-2.57812-3.84375.625-.9375 1.34375-1.89062 2.07812-2.76562.48438-.59375.73438-.65625 1.625-.70313v-.54687H5.54688v.54687l.75.0625c.29687.04688.25.23438.10937.4375-.4375.71875-.9375 1.5-1.48437 2.35938h-.03125l-1.5625-2.34375c-.15625-.21875-.10938-.4375.17187-.46875l.5625-.04688v-.54687H.15625v.54687c.76563.04688.92188.0625 1.375.6875.78125 1.09375 1.59375 2.29688 2.39063 3.5-.70313 1.01563-1.40625 2.0625-2.1875 3.07813C1.25-.70312.84375-.59375.01563-.53125Zm0 0"/><path id="W" d="M.92188-4.35937c0 2.98437 1.625 4.57812 3.89062 4.57812C5.875.21875 6.76563-.28125 7.75-1v3.67188c0 .95312-.10937.98437-1.5 1.09375v.53125h4.65625v-.53125C9.60938 3.65625 9.51563 3.625 9.51563 2.67188v-12.0625H9l-.79687.57812c-.71875-.40625-1.67188-.57812-2.46875-.57812-1.5 0-2.6875.45312-3.5 1.28125-.82813.84375-1.3125 2.0625-1.3125 3.75m1.9375-.23438c0-2.3125.79687-4.14062 2.71875-4.14062.96875 0 1.67187.32812 2.03125 1.29687.10937.29688.14062.60938.14062 1.0625v3.17188c0 .42187 0 .73437-.125 1.03125-.35937 1-1.07812 1.39062-2.10937 1.39062-1.85938 0-2.65625-1.70312-2.65625-3.8125m0 0"/><path id="X" d="m.48438-8.45312.70312.09375c.48438.07812.60938.15625.60938.82812v4.9375c0 2.15625 1.26562 2.8125 2.65625 2.8125 1.59375 0 2.89062-1.07812 3.4375-1.32812L8.0625 0h3v-.53125C9.78125-.64062 9.65625-.67187 9.65625-1.625v-7.65625l-.14062-.10937-2.92188.46875v.46875l.71875.09375c.46875.07812.59375.15625.59375.82812v4.23438c0 .51562-.0625.92187-.15625 1.10937-.4375.85938-1.3125 1.40625-2.29687 1.40625-1.09375 0-1.89063-.6875-1.89063-2.14062v-6.35938l-.14062-.10937-2.9375.46875Zm0 0"/><clipPath id="n"><path d="M674 171h189.14063v68H674Zm0 0"/></clipPath><clipPath id="I"><path d="M.44531 364H184v56H.44531Zm0 0"/></clipPath><clipPath id="J"><path d="M.44531 359H190v67H.44531Zm0 0"/></clipPath><clipPath id="S"><path d="M23 536h195v61.47656H23Zm0 0"/></clipPath><clipPath id="U"><path d="M255 541h184v56.47656H255Zm0 0"/></clipPath><clipPath id="V"><path d="M249 536h196v61.47656H249Zm0 0"/></clipPath><clipPath id="Y"><path d="M481 541h184v56.47656H481Zm0 0"/></clipPath><clipPath id="Z"><path d="M476 536h195v61.47656H476Zm0 0"/></clipPath></defs><path fill="#CCF" stroke="#000" stroke-miterlimit="10" stroke-width=".39799" d="M636.5508.19922H481.73045V45.4961h154.82033Zm0 0"/><use xlink:href="#a" x="524.68381" y="24.30304"/><use xlink:href="#b" x="529.8976" y="24.30304"/><use xlink:href="#c" x="535.33028" y="24.30304"/><use xlink:href="#d" x="516.44231" y="35.52675"/><use xlink:href="#e" x="524.88386" y="35.52675"/><use xlink:href="#f" x="537.97802" y="35.52675"/><use xlink:href="#g" x="547.39467" y="35.52675"/><use xlink:href="#h" x="563.03496" y="24.30304"/><use xlink:href="#i" x="574.71622" y="24.30304"/><use xlink:href="#j" x="582.3578" y="24.30304"/><use xlink:href="#k" x="594.19826" y="24.30304"/><path fill="#CCF" stroke="#000" stroke-miterlimit="10" stroke-width=".39799" d="M424.31639 88.75782H269.49606v45.29688h154.82033Zm0 0"/><use xlink:href="#l" x="337.36541" y="115.60475"/><path fill="#CCF" stroke="#000" stroke-miterlimit="10" stroke-width=".39799" d="M848.7891 88.75782H693.96877v45.29688H848.7891Zm0 0"/><use xlink:href="#m" x="765.59495" y="118.2314"/><path fill="#FCC" stroke="#000" stroke-miterlimit="10" stroke-width=".39799" d="M434.80077 177.31642H259.01168c-2.02734 0-3.67187 1.64454-3.67187 3.67188v48.15235c0 2.02734 1.64453 3.67188 3.67187 3.67188h175.78909c2.02734 0 3.66797-1.64454 3.66797-3.67188V180.9883c0-2.02734-1.64063-3.67188-3.66797-3.67188Zm0 0"/><use xlink:href="#a" x="310.06318" y="212.00796"/><use xlink:href="#b" x="315.27697" y="212.00796"/><use xlink:href="#c" x="320.70965" y="212.00796"/><use xlink:href="#d" x="301.82168" y="223.22966"/><use xlink:href="#e" x="310.26324" y="223.22966"/><use xlink:href="#f" x="323.35739" y="223.22966"/><use xlink:href="#g" x="332.77405" y="223.22966"/><use xlink:href="#h" x="350.80129" y="198.2355"/><use xlink:href="#i" x="362.48255" y="198.2355"/><use xlink:href="#j" x="370.12413" y="198.2355"/><use xlink:href="#k" x="381.96459" y="198.2355"/><path fill="none" stroke="#000" stroke-miterlimit="10" stroke-width="1.09461" d="M350.80078 206.73437h38.8047"/><use xlink:href="#j" x="364.50184" y="225.95619"/><path fill="#FCC" d="M859.27344 177.3164H683.48437c-2.02734 0-3.67187 1.64454-3.67187 3.67188v48.19531c0 2.02344 1.64453 3.66797 3.67188 3.66797h175.78906c2.02734 0 3.67187-1.64453 3.67187-3.66797v-48.1953c0-2.02735-1.64453-3.67188-3.67187-3.67188m0 0"/><g clip-path="url(#n)"><path fill="none" stroke="#000" stroke-miterlimit="10" stroke-width=".39799" d="M859.27347 177.31642H683.4844c-2.02734 0-3.67188 1.64454-3.67188 3.67188v48.19532c0 2.02344 1.64454 3.66797 3.67188 3.66797h175.78908c2.02735 0 3.67188-1.64453 3.67188-3.66797V180.9883c0-2.02734-1.64453-3.67188-3.67188-3.67188Zm0 0"/></g><use xlink:href="#o" x="705.27479" y="197.81903"/><use xlink:href="#p" x="715.04565" y="197.81903"/><use xlink:href="#q" x="723.18473" y="197.81903"/><use xlink:href="#r" x="732.63719" y="197.81903"/><use xlink:href="#s" x="749.89044" y="197.81903"/><use xlink:href="#t" x="761.2533" y="197.81903"/><use xlink:href="#u" x="767.68097" y="197.81903"/><use xlink:href="#t" x="778.46674" y="197.81903"/><use xlink:href="#v" x="784.89442" y="197.81903"/><use xlink:href="#w" x="801.13276" y="197.81903"/><use xlink:href="#u" x="812.47572" y="197.81903"/><use xlink:href="#x" x="823.26149" y="197.81903"/><use xlink:href="#y" x="830.16676" y="197.81903"/><use xlink:href="#z" x="710.49214" y="221.69861"/><use xlink:href="#A" x="715.92482" y="221.69861"/><use xlink:href="#u" x="724.78029" y="221.69861"/><use xlink:href="#B" x="735.56606" y="221.69861"/><use xlink:href="#t" x="747.12792" y="221.69861"/><use xlink:href="#o" x="753.5556" y="221.69861"/><use xlink:href="#C" x="763.32646" y="221.69861"/><use xlink:href="#v" x="768.54024" y="221.69861"/><use xlink:href="#D" x="784.78351" y="221.69861"/><use xlink:href="#E" x="801.67856" y="221.69861"/><use xlink:href="#m" x="820.68299" y="221.69861"/><path fill="#CCF" stroke="#000" stroke-miterlimit="10" stroke-width=".39799" d="M169.61323 276.07425H14.7929v45.29688h154.82033Zm0 0"/><use xlink:href="#F" x="87.25399" y="304.96755"/><path fill="#CCF" stroke="#000" stroke-miterlimit="10" stroke-width=".39799" d="M424.31639 276.07425H269.49606v45.29688h154.82033Zm0 0"/><use xlink:href="#G" x="321.92907" y="304.52911"/><use xlink:href="#H" x="341.4708" y="304.52911"/><use xlink:href="#F" x="361.96773" y="304.52911"/><path fill="#CCF" stroke="#000" stroke-miterlimit="10" stroke-width=".39799" d="M679.01955 276.07425H524.1992v45.29688h154.82034Zm0 0"/><use xlink:href="#l" x="592.06499" y="302.91716"/><g clip-path="url(#I)"><path fill="#FCC" d="M180.09766 364.63281H4.30859c-2.02734 0-3.67187 1.64453-3.67187 3.67188v47.41797c0 2.02343 1.64453 3.66796 3.67187 3.66796h175.78907c2.02734 0 3.66797-1.64453 3.66797-3.66796v-47.41797c0-2.02735-1.64063-3.67188-3.66797-3.67188m0 0"/></g><g clip-path="url(#J)"><path fill="none" stroke="#000" stroke-miterlimit="10" stroke-width=".39799" d="M180.09761 364.63285H4.30853c-2.02735 0-3.67188 1.64454-3.67188 3.67188v47.41797c0 2.02344 1.64453 3.66797 3.67188 3.66797H180.0976c2.02735 0 3.66797-1.64453 3.66797-3.66797v-47.41797c0-2.02734-1.64062-3.67188-3.66797-3.67188Zm0 0"/></g><use xlink:href="#K" x="38.67087" y="385.13144"/><use xlink:href="#L" x="50.75013" y="385.13144"/><use xlink:href="#M" x="68.60037" y="385.13144"/><use xlink:href="#v" x="79.78413" y="385.13144"/><use xlink:href="#M" x="96.02247" y="385.13144"/><use xlink:href="#z" x="107.20624" y="385.13144"/><use xlink:href="#x" x="112.63892" y="385.13144"/><use xlink:href="#v" x="119.54419" y="385.13144"/><use xlink:href="#N" x="129.15586" y="385.13144"/><use xlink:href="#y" x="138.42923" y="385.13144"/><use xlink:href="#t" x="50.8933" y="409.01103"/><use xlink:href="#z" x="57.32098" y="409.01103"/><use xlink:href="#u" x="62.75366" y="409.01103"/><use xlink:href="#B" x="73.53942" y="409.01103"/><use xlink:href="#i" x="91.73328" y="409.01103"/><use xlink:href="#O" x="99.37485" y="409.01103"/><use xlink:href="#j" x="114.0411" y="409.01103"/><use xlink:href="#k" x="125.88156" y="409.01103"/><path fill="#FCC" stroke="#000" stroke-miterlimit="10" stroke-width=".39799" d="M434.80077 364.63285H259.01168c-2.02734 0-3.67187 1.64454-3.67187 3.67188v37.95704c0 2.02734 1.64453 3.66796 3.67187 3.66796h175.78909c2.02734 0 3.66797-1.64062 3.66797-3.66796v-37.95704c0-2.02734-1.64063-3.67188-3.66797-3.67188Zm0 0"/><use xlink:href="#a" x="283.48903" y="388.73285"/><use xlink:href="#b" x="288.70281" y="388.73285"/><use xlink:href="#c" x="294.1355" y="388.73285"/><use xlink:href="#d" x="275.24753" y="399.95656"/><use xlink:href="#e" x="283.68908" y="399.95656"/><use xlink:href="#f" x="296.78324" y="399.95656"/><use xlink:href="#g" x="306.19989" y="399.95656"/><use xlink:href="#i" x="319.629" y="388.73285"/><use xlink:href="#h" x="328.06657" y="388.73285"/><use xlink:href="#i" x="339.74783" y="388.73285"/><use xlink:href="#j" x="347.38941" y="388.73285"/><use xlink:href="#k" x="359.22987" y="388.73285"/><use xlink:href="#P" x="369.99573" y="388.73285"/><use xlink:href="#G" x="386.57237" y="388.73285"/><use xlink:href="#j" x="399.06953" y="388.73285"/><use xlink:href="#k" x="410.90999" y="388.73285"/><path fill="#FCC" stroke="#000" stroke-miterlimit="10" stroke-width=".39799" d="M689.50392 364.63285H513.71093c-2.02344 0-3.66797 1.64454-3.66797 3.67188v48.19141c0 2.02735 1.64453 3.67188 3.66797 3.67188h175.793c2.02734 0 3.66796-1.64453 3.66796-3.67188v-48.19141c0-2.02734-1.64062-3.67188-3.66797-3.67188Zm0 0"/><use xlink:href="#K" x="548.07002" y="385.13144"/><use xlink:href="#L" x="560.14928" y="385.13144"/><use xlink:href="#M" x="577.99952" y="385.13144"/><use xlink:href="#v" x="589.18328" y="385.13144"/><use xlink:href="#M" x="605.42163" y="385.13144"/><use xlink:href="#z" x="616.60539" y="385.13144"/><use xlink:href="#x" x="622.03807" y="385.13144"/><use xlink:href="#v" x="628.94335" y="385.13144"/><use xlink:href="#N" x="638.55502" y="385.13144"/><use xlink:href="#y" x="647.82839" y="385.13144"/><use xlink:href="#t" x="560.53015" y="409.01103"/><use xlink:href="#z" x="566.95783" y="409.01103"/><use xlink:href="#u" x="572.39051" y="409.01103"/><use xlink:href="#B" x="583.17628" y="409.01103"/><use xlink:href="#i" x="601.37213" y="409.01103"/><use xlink:href="#O" x="609.01371" y="409.01103"/><use xlink:href="#D" x="623.67996" y="409.01103"/><use xlink:href="#k" x="635.04282" y="409.01103"/><path fill="#CCF" stroke="#000" stroke-miterlimit="10" stroke-width=".39799" d="M197.92183 453.19146H43.10541v45.29688h154.81642Zm0 0"/><use xlink:href="#m" x="114.73798" y="482.66122"/><path fill="#CCF" stroke="#000" stroke-miterlimit="10" stroke-width=".39799" d="M424.31639 453.19146H269.49606v45.29688h154.82033Zm0 0"/><use xlink:href="#B" x="297.83176" y="480.62081"/><use xlink:href="#Q" x="307.90113" y="480.62081"/><use xlink:href="#v" x="311.78162" y="480.62081"/><use xlink:href="#R" x="321.39328" y="480.62081"/><use xlink:href="#z" x="330.46765" y="480.62081"/><use xlink:href="#p" x="335.90033" y="480.62081"/><use xlink:href="#t" x="344.03941" y="480.62081"/><use xlink:href="#v" x="350.46708" y="480.62081"/><use xlink:href="#s" x="366.70543" y="480.62081"/><use xlink:href="#o" x="378.06829" y="480.62081"/><use xlink:href="#p" x="387.83916" y="480.62081"/><path fill="#CCF" stroke="#000" stroke-miterlimit="10" stroke-width=".39799" d="M650.70704 453.19146H495.88671v45.29688h154.82033Zm0 0"/><use xlink:href="#l" x="563.75505" y="480.03456"/><path fill="#FCC" d="M208.41016 541.7539H32.61719c-2.02735 0-3.66797 1.64063-3.66797 3.66797v45.84766c0 2.02344 1.64062 3.66797 3.66797 3.66797h175.79297c2.02343 0 3.66797-1.64453 3.66797-3.66797v-45.84766c0-2.02734-1.64454-3.66796-3.66797-3.66796m0 0"/><g clip-path="url(#S)"><path fill="none" stroke="#000" stroke-miterlimit="10" stroke-width=".39799" d="M208.41011 541.75397H32.61712c-2.02734 0-3.66796 1.64062-3.66796 3.66797v45.84766c0 2.02344 1.64062 3.66797 3.66796 3.66797h175.793c2.02343 0 3.66796-1.64453 3.66796-3.66797v-45.84766c0-2.02735-1.64453-3.66797-3.66797-3.66797Zm0 0"/></g><use xlink:href="#o" x="75.90244" y="559.89983"/><use xlink:href="#p" x="85.67331" y="559.89983"/><use xlink:href="#q" x="93.81238" y="559.89983"/><use xlink:href="#r" x="103.26485" y="559.89983"/><use xlink:href="#s" x="120.51809" y="559.89983"/><use xlink:href="#t" x="131.88095" y="559.89983"/><use xlink:href="#u" x="138.30863" y="559.89983"/><use xlink:href="#t" x="149.0944" y="559.89983"/><use xlink:href="#v" x="155.52207" y="559.89983"/><use xlink:href="#D" x="73.13996" y="583.77942"/><use xlink:href="#E" x="90.9703" y="583.77942"/><use xlink:href="#G" x="110.92993" y="583.77942"/><use xlink:href="#j" x="123.42709" y="583.77942"/><use xlink:href="#T" x="139.06844" y="583.77942"/><use xlink:href="#m" x="156.32168" y="583.77942"/><g clip-path="url(#U)"><path fill="#FCC" d="M434.80078 541.7539H259.01172c-2.02735 0-3.67188 1.64063-3.67188 3.66797v48.19532c0 2.02734 1.64453 3.66797 3.67188 3.66797h175.78906c2.02735 0 3.66797-1.64063 3.66797-3.66797v-48.19532c0-2.02734-1.64062-3.66796-3.66797-3.66796m0 0"/></g><g clip-path="url(#V)"><path fill="none" stroke="#000" stroke-miterlimit="10" stroke-width=".39799" d="M434.80077 541.75397H259.01168c-2.02734 0-3.67187 1.64062-3.67187 3.66797v48.19532c0 2.02734 1.64453 3.66797 3.67187 3.66797h175.78909c2.02734 0 3.66797-1.64063 3.66797-3.66797v-48.19532c0-2.02735-1.64063-3.66797-3.66797-3.66797Zm0 0"/></g><use xlink:href="#M" x="273.64357" y="562.24784"/><use xlink:href="#z" x="284.82734" y="562.24784"/><use xlink:href="#x" x="290.26002" y="562.24784"/><use xlink:href="#v" x="297.14539" y="562.24784"/><use xlink:href="#N" x="306.75706" y="562.24784"/><use xlink:href="#t" x="316.03043" y="562.24784"/><use xlink:href="#z" x="322.45811" y="562.24784"/><use xlink:href="#u" x="327.89079" y="562.24784"/><use xlink:href="#B" x="338.67655" y="562.24784"/><use xlink:href="#o" x="356.86509" y="562.24784"/><use xlink:href="#p" x="366.63596" y="562.24784"/><use xlink:href="#q" x="374.77503" y="562.24784"/><use xlink:href="#r" x="384.2275" y="562.24784"/><use xlink:href="#s" x="401.48074" y="562.24784"/><use xlink:href="#y" x="412.8436" y="562.24784"/><use xlink:href="#t" x="283.34521" y="586.12743"/><use xlink:href="#u" x="289.77289" y="586.12743"/><use xlink:href="#t" x="300.55866" y="586.12743"/><use xlink:href="#z" x="306.98633" y="586.12743"/><use xlink:href="#W" x="312.41902" y="586.12743"/><use xlink:href="#X" x="323.46348" y="586.12743"/><use xlink:href="#v" x="334.78654" y="586.12743"/><use xlink:href="#D" x="351.031" y="586.12743"/><use xlink:href="#E" x="367.74694" y="586.12743"/><use xlink:href="#G" x="386.57228" y="586.12743"/><use xlink:href="#j" x="399.06944" y="586.12743"/><g clip-path="url(#Y)"><path fill="#FCC" d="M661.1914 541.7539H485.40235c-2.02734 0-3.67187 1.64063-3.67187 3.66797v48.19532c0 2.02734 1.64453 3.66797 3.67187 3.66797h175.78907c2.02734 0 3.67187-1.64063 3.67187-3.66797v-48.19532c0-2.02734-1.64453-3.66796-3.67187-3.66796m0 0"/></g><g clip-path="url(#Z)"><path fill="none" stroke="#000" stroke-miterlimit="10" stroke-width=".39799" d="M661.19142 541.75397H485.40234c-2.02735 0-3.67188 1.64062-3.67188 3.66797v48.19532c0 2.02734 1.64453 3.66797 3.67188 3.66797h175.78908c2.02734 0 3.67187-1.64063 3.67187-3.66797v-48.19532c0-2.02735-1.64453-3.66797-3.67187-3.66797Zm0 0"/></g><use xlink:href="#K" x="519.76008" y="562.24784"/><use xlink:href="#L" x="531.83934" y="562.24784"/><use xlink:href="#M" x="549.68958" y="562.24784"/><use xlink:href="#v" x="560.87334" y="562.24784"/><use xlink:href="#M" x="577.11169" y="562.24784"/><use xlink:href="#z" x="588.29545" y="562.24784"/><use xlink:href="#x" x="593.72813" y="562.24784"/><use xlink:href="#v" x="600.63341" y="562.24784"/><use xlink:href="#N" x="610.24508" y="562.24784"/><use xlink:href="#y" x="619.51845" y="562.24784"/><use xlink:href="#t" x="522.28487" y="586.12743"/><use xlink:href="#z" x="528.71255" y="586.12743"/><use xlink:href="#u" x="534.14523" y="586.12743"/><use xlink:href="#B" x="544.93099" y="586.12743"/><use xlink:href="#D" x="563.12485" y="586.12743"/><use xlink:href="#E" x="580.69649" y="586.12743"/><use xlink:href="#G" x="600.39742" y="586.12743"/><use xlink:href="#j" x="612.89458" y="586.12743"/><path fill="none" stroke="#000" stroke-miterlimit="10" stroke-width=".39799" d="m503.92187 45.89453-101.8086 42.46485m212.25002-42.46485 101.8086 42.46485m-369.26567 46.09376v42.46875m424.47271-42.46875v42.46875M270.3984 233.21096l-115.54298 42.46485m192.0508-42.46485v42.46485m76.50783-42.46485 115.53907 42.46485M92.20307 321.76957v42.46485m254.70315-42.46485v42.46485m254.70316-42.46485v42.46485m-313.60941 46.09375L179.4023 452.79302m167.50392-42.46485v42.46485m58.90236-42.46485 108.59767 42.46485m-393.89458 46.09376v42.46875m226.39455-42.46875v42.46875m226.39066-42.46875v42.46875"/></svg>