<svg xmlns="http://www.w3.org/2000/svg" xmlns:xlink="http://www.w3.org/1999/xlink" width="396.848pt" height="277.794pt" viewBox="0 0 396.848 277.794"><defs><path id="f" d="M1.60938-5.28125c0 4.21875.95312 8.85938 4.92187 9.03125v-.5625c-1.32812-.26562-3.42187-1.90625-3.42187-8.46875 0-6.5 1.98437-8.15625 3.42187-8.45312v-.5625C2.5625-14.14062 1.60938-9.5 1.60938-5.28125m0 0"/><path id="g" d="M0 0h5.73438C9.46875 0 11.64063-1.35937 13-3.39062 14.07813-5 14.25-6.5625 14.25-7.6875c0-1.51562-.53125-3.01562-1.60937-3.92187-1.09375-.90625-2.76563-1.32813-4.84375-1.32813H2.76563l-.125.53125 1.125.07813c.3125.03125.4375.1875.4375.48437 0 .125-.01563.28125-.0625.45313L1.90625-1.54687c-.14062.60937-.29687.84375-.75.89062l-1.0625.125Zm3.70313-1.375c0-.07812 0-.15625.01562-.23437l2.25-10c.15625-.64063.42188-.6875 2.04688-.6875 3.90625.07812 4.23437 2.70312 4.23437 4.1875 0 1.625-.39062 3.125-1.21875 4.53125C9.95313-1.82812 8.35938-.65625 5.25-.65625c-.90625 0-1.54687-.125-1.54687-.71875m0 0"/><path id="k" d="M1.10938 3.1875V3.75c3.96875-.17187 4.92187-4.8125 4.92187-9.03125s-.95312-8.85937-4.92187-9.01562v.5625c1.4375.29687 3.42187 1.95312 3.42187 8.45312 0 6.5625-2.07812 8.20313-3.42187 8.46875m0 0"/><path id="l" d="M0 0h4.42188l.09375-.53125-.73438-.0625c-.5625-.04687-.85937-.1875-.85937-.57812 0-1 .1875-1.5625.40625-2.54688l1.70312-7.625h.04688l2.25 11.125h.51562l7.28125-11.125h.04688L12.875-1.54687c-.15625.625-.32812.84375-.79687.89062l-1.01563.125L10.95313 0h5.09375l.09374-.53125-1.09374-.125c-.34375-.01562-.46875-.1875-.46875-.48437 0-.10938.01562-.25.04687-.40625l2.25-9.84375c.17188-.625.29688-.89063.78125-.9375l1.03125-.07813.14063-.53125h-3.65626c-1 1.70313-2.10937 3.375-3.25 5.10938L8.625-2.76562h-.0625L7.5-7.96875c-.375-1.6875-.75-3.29687-1.0625-4.96875h-3.625l-.125.53125 1.09375.10938c.3125.01562.48438.17187.48438.5 0 .10937-.03125.25-.0625.40625L2.42188-3.71875c-.21875.98438-.4375 1.70313-.65625 2.32813-.21876.59375-.54688.73437-1.09375.79687l-.57813.0625Zm0 0"/><path id="n" d="M0 0h5.3125l.10938-.53125-1.29688-.125c-.32812-.01562-.46875-.15625-.46875-.45312 0-.125.03125-.26563.0625-.4375l.84375-3.6875h1.39063c1.59375 0 3.0625-.21875 4.14062-.875 1.1875-.73438 1.89063-2.01563 1.89063-3.40625 0-1.28125-.59375-2.25-1.51563-2.76563-.875-.5-2.0625-.65625-3.29687-.65625H2.78125l-.14062.53125 1.125.07813c.3125.03125.45312.1875.45312.5 0 .125-.01562.26562-.0625.4375l-2.25 9.84375c-.15625.625-.3125.84375-.76562.89062l-1.04688.125Zm4.8125-6.29687c0-.10938.03125-.23438.0625-.39063l1.14063-4.95312c.10937-.48438.23437-.65625 1.1875-.65625 1.85937 0 2.8125.875 2.8125 2.46875 0 2.65625-1.5 3.9375-4.03125 3.9375-.95313 0-1.17188-.09375-1.17188-.40625m0 0"/><path id="h" d="M.5625-8.67187c.79688.0625.92188.10937 1.04688.60937l1.25 4.10938c.04687.125.0625.23437.0625.35937 0 .10938-.03125.21875-.0625.375l-.46875 2.125c-.07813.39063-.20313.5625-.54688.60938L.9375-.40625.84375 0H5l.09375-.40625L4.125-.48437C3.89063-.5 3.8125-.57812 3.8125-.78125c0-.07812 0-.1875.03125-.3125L4.32813-3.25c.10937-.34375.25-.60937.39062-.82812.96875-1.40625 2.26563-3.125 2.95313-3.90625.42187-.46875.57812-.59375 1.39062-.67188l.0625-.40625H6.04688l-.07813.40625.57813.04688c.25.03125.35937.07812.35937.23437 0 .21875-1.75 2.71875-2.71875 4.0625h-.03125S3.01563-8.15625 3.01563-8.32812c0-.14063.0625-.23438.26562-.25l.70313-.07813.09375-.40625H.64063Zm0 0"/><path id="i" d="M1.14063 2.625H2.125L5.73438-10h-1Zm0 0"/><path id="j" d="M-.42187 0h3.32812L3-.40625l-.76562-.07812C2.03125-.51562 2-.57812 2-.6875 2-.875 3.5625-2.89062 4.40625-3.90625h.04688C4.79688-3.125 5.75-.95312 5.75-.71875c0 .14063-.09375.23438-.28125.25l-.6875.0625L4.70313 0H8.4375l.07813-.40625c-.84375-.0625-1.07813-.125-1.32813-.6875-.375-.79687-1.14062-2.59375-1.73437-3.98437C6.32813-6.125 7.67188-7.5625 8.40625-8.25c.29688-.26562.54688-.34375 1.28125-.40625l.09375-.40625h-3.0625l-.07812.40625.48437.04688c.21875.03125.29688.0625.29688.20312 0 .1875-1.42188 1.875-2.20313 2.76563H5.1875c-.28125-.64063-1.07812-2.54688-1.07812-2.75 0-.125.07812-.17188.28125-.1875l.6875-.07813.0625-.40625H1.59375l-.10937.40625C2.25-8.57812 2.5-8.5625 2.6875-8.10937c.40625.90625.96875 2.39062 1.5 3.59375C3.17188-3.3125 1.89063-1.8125 1.14063-1c-.42188.4375-.65625.51563-1.46875.59375Zm0 0"/><path id="m" d="M1.42188 0H5.8125v-.40625L4.76563-.5c-.29688-.03125-.4375-.125-.4375-.60937v-7.73438L4.25-8.90625l-2.8125.46875v.35938l1.125.14062c.25.04688.34375.14063.34375.54688v6.28125c0 .48437-.125.57812-.4375.60937l-1.04687.09375Zm0 0"/><path id="o" d="M.375-.15625.53125 0h5.54688l.46875-1.875-.39063-.0625c-.29687.70313-.54687.79688-1.0625.79688H1.73438c.21874-.625.90625-1.5 2.1875-2.35938C5.23438-4.39062 6.1875-5 6.1875-6.4375c0-1.82812-1.23437-2.46875-2.6875-2.46875-1.78125 0-2.79687 1.03125-2.79687 1.82813 0 .46875.53125.6875.8125.6875.25 0 .375-.125.4375-.39063.20312-.90625.6875-1.64062 1.46875-1.64062.90625 0 1.20312.79687 1.20312 1.75 0 1.26562-.5625 2.09375-1.79687 3.15625C1.15625-2.07812.57813-1.125.375-.15625m0 0"/><path id="p" d="M.35938-1.39062c0 .54687.85937 1.54687 2.84375 1.54687 1.95312 0 3.17187-.95312 3.17187-2.625 0-1.78125-1.54687-2.25-2.21875-2.32812v-.04688C4.85938-4.96875 6-5.48437 6-6.78125c0-1.53125-1.26562-2.125-2.65625-2.125-1.67187 0-2.64062.9375-2.64062 1.60938 0 .4375.51562.67187.73437.67187.1875 0 .29688-.125.375-.3125.29688-.92187.73438-1.48437 1.45313-1.48437.96875 0 1.20312.92187 1.20312 1.625 0 .6875-.21875 1.76562-1.29687 1.76562-.59375 0-.98438-.14062-1.17188-.14062-.20312 0-.26562.15625-.26562.40625s.0625.40625.26562.40625c.1875 0 .57813-.14063 1.17188-.14063 1.01562 0 1.64062.82813 1.64062 2.09375 0 1.5-.70312 2.07813-1.59375 2.07813-.79687 0-1.34375-.60938-1.60937-1.45313-.09376-.25-.23438-.39062-.4375-.39062-.29688 0-.8125.28125-.8125.78125m0 0"/><path id="q" d="m.26563-2.64062.15625.3125H3.9375V-1c0 .42188-.15625.48438-.45312.51563l-.84375.07812V0H6.25v-.40625l-.60937-.0625c-.28125-.04687-.375-.10937-.375-.53125v-1.32812h1.34375v-.6875H5.26563V-8.75H4.15625C2.89063-6.89062 1.46875-4.67187.26563-2.64062m1.0625-.375C2.0625-4.375 2.96875-5.85937 3.9375-7.39062v4.375Zm0 0"/><clipPath id="a"><path d="M.07031 237H396v2H.07031Zm0 0"/></clipPath><clipPath id="b"><path d="M392 236h4.625v4H392Zm0 0"/></clipPath><clipPath id="c"><path d="M391 235h5.625v6H391Zm0 0"/></clipPath><clipPath id="d"><path d="M39 1h2v276.58984h-2Zm0 0"/></clipPath><clipPath id="e"><path d="M.07031 42H335v194H.07031Zm0 0"/></clipPath></defs><g clip-path="url(#a)"><path fill="none" stroke="#000" stroke-miterlimit="10" stroke-width=".79642" d="M.07031 237.9336h395.125"/></g><g clip-path="url(#b)"><path d="M396.23047 237.9336c-1.29297-.26173-2.58594-.77735-4.14063-1.6836 1.5547 1.16406 1.5547 2.19922 0 3.36328 1.5547-.90234 2.84766-1.42187 4.14063-1.67969m0 0"/></g><g clip-path="url(#c)"><path fill="none" stroke="#000" stroke-linejoin="round" stroke-miterlimit="10" stroke-width=".79642" d="M396.23047 237.9336c-1.29297-.26172-2.58594-.77735-4.14063-1.6836 1.5547 1.16406 1.5547 2.19922 0 3.36328 1.5547-.90234 2.84766-1.42187 4.14063-1.67969Zm0 0"/></g><g clip-path="url(#d)"><path fill="none" stroke="#000" stroke-miterlimit="10" stroke-width=".79642" d="M39.72656 277.58984V1.4297"/></g><path stroke="#000" stroke-linejoin="round" stroke-miterlimit="10" stroke-width=".79642" d="M39.72656.39453c-.25781 1.29297-.77734 2.58984-1.6836 4.14063 1.16798-1.55079 2.20313-1.55079 3.3672 0-.90625-1.55079-1.42579-2.84766-1.6836-4.14063Zm0 0"/><g clip-path="url(#e)"><path fill="none" stroke="red" stroke-miterlimit="10" stroke-width="1.19465" d="m.07031 218.10547 3.20313-1.60156 3.20703-1.60157 3.20312-1.60546 9.60938-4.8047L22.5 206.89064l9.60937-4.8047 3.20704-1.60546 9.60937-4.80469 3.20703-1.60156 12.8125-6.40625 3.20703-1.60156 3.20313-1.60547 6.40625-3.20313 3.20703-1.60156 12.8125-6.40625 3.20703-1.60156 3.20313-1.60547 6.40625-3.20313 3.20703-1.60156 9.60937-4.80469 3.20703-1.60156 3.20313-1.60547 9.60937-4.80469 3.20704-1.60156 9.60937-4.80469 3.20703-1.60156 3.20313-1.60156 3.20312-1.60547 6.40625-3.20312 3.20703-1.60157 9.60938-4.80468 3.20703-1.60157 3.20313-1.60547 6.40624-3.20312 3.20704-1.60156 12.8125-6.40625 3.20703-1.60547 9.60937-4.80469 3.20703-1.60156 12.8125-6.40625 3.20703-1.60156 3.20313-1.60547 6.40625-3.20313 3.20703-1.60156 9.60938-4.80469 3.20703-1.60156 3.20312-1.60547 9.60938-4.80469 3.20703-1.60156 9.60937-4.80469 3.20704-1.60156 3.20312-1.60156 3.20313-1.60547 6.40625-3.20313 3.20703-1.60156 9.60937-4.80469 3.20703-1.60156"/></g><use xlink:href="#f" x="325.09507" y="81.63546"/><use xlink:href="#g" x="332.7407" y="81.63546"/><use xlink:href="#h" x="346.79697" y="86.01422"/><use xlink:href="#i" x="356.804" y="86.01422"/><use xlink:href="#j" x="363.67512" y="86.01422"/><use xlink:href="#k" x="374.22264" y="81.63546"/><path fill="none" stroke="#00F" stroke-dasharray="2.9866182658000002 2.9866182658000002" stroke-miterlimit="10" stroke-width="1.19465" d="M79.38281 138.79297v-19.82813"/><use xlink:href="#l" x="66.63073" y="106.75583" fill="#00F"/><use xlink:href="#m" x="83.87195" y="111.13459" fill="#00F"/><path fill="none" stroke="#000" stroke-dasharray="2.9866182658000002 2.9866182658000002" stroke-miterlimit="10" stroke-width="1.19465" d="M79.38281 138.79297v47.58594"/><use xlink:href="#n" x="70.25405" y="190.66161"/><use xlink:href="#m" x="80.24863" y="195.04037"/><path fill="none" stroke="#00F" stroke-dasharray="2.9866182658000002 2.9866182658000002" stroke-miterlimit="10" stroke-width="1.19465" d="M119.03906 158.6211V79.3086"/><use xlink:href="#l" x="106.28533" y="67.10024" fill="#00F"/><use xlink:href="#o" x="123.52854" y="71.47899" fill="#00F"/><path fill="none" stroke="#000" stroke-dasharray="2.9866182658000002 2.9866182658000002" stroke-miterlimit="10" stroke-width="1.19465" d="M119.03906 79.3086v91.21093"/><use xlink:href="#n" x="109.90964" y="174.79938"/><use xlink:href="#o" x="119.90423" y="179.18013"/><path fill="none" stroke="#00F" stroke-dasharray="2.9866182658000002 2.9866182658000002" stroke-miterlimit="10" stroke-width="1.19465" d="M158.69531 138.79297v59.48437"/><use xlink:href="#l" x="166.52366" y="185.91314" fill="#00F"/><use xlink:href="#p" x="183.76687" y="190.29389" fill="#00F"/><use xlink:href="#n" x="149.56523" y="126.43024"/><use xlink:href="#p" x="159.55982" y="130.809"/><path fill="none" stroke="#00F" stroke-dasharray="2.9866182658000002 2.9866182658000002" stroke-miterlimit="10" stroke-width="1.19465" d="M257.83594 91.20703v67.41406"/><use xlink:href="#l" x="265.66214" y="146.41043" fill="#00F"/><use xlink:href="#q" x="282.90535" y="150.79118" fill="#00F"/><use xlink:href="#n" x="231.74429" y="78.99642"/><use xlink:href="#q" x="241.74088" y="83.37717"/></svg>