<svg xmlns="http://www.w3.org/2000/svg" xmlns:xlink="http://www.w3.org/1999/xlink" width="440.643pt" height="366.972pt" viewBox="0 0 440.643 366.972"><defs><path id="a" d="M.75-1.90625c0 .84375 1.3125 2.125 3.75 2.125 3.07813 0 4.48438-1.875 4.48438-4.23437 0-2.64063-1.64063-3.96875-3.875-3.96875-1.03125 0-2.14063.4375-2.73438.98437l-.03125-.03125.42188-3.5c.0625-.48437.1875-.53125.53125-.53125h4.67187l.45313-1.28125L8.32813-12.5H2.0625l-.17187.17188-.375 6.25.45312.25C2.75-6.73437 3.5-7.17187 4.51563-7.17187c1.20312 0 2.51562.875 2.51562 3.34375C7.03125-1.89062 6.25-.4375 4.625-.4375c-1.32812 0-1.98437-.9375-2.35937-2.01562-.09375-.28125-.28125-.45313-.53125-.45313-.375 0-.98438.375-.98438 1m0 0"/><path id="b" d="M2.03125 0H8.1875v-.53125L6.60938-.67187c-.40625-.04688-.625-.1875-.625-.92188V-12.625l-.09375-.09375-3.85938.65625v.45313l1.75.21875c.3125.04687.4375.1875.4375.71875v9.07812c0 .35938-.03125.57813-.15625.71875-.09375.14063-.26562.17188-.45312.20313l-1.57813.14062Zm0 0"/><path id="c" d="M.78125-6.25C.78125-2.51562 1.875.21875 4.95313.21875c3.09375 0 4.20312-2.73437 4.20312-6.46875 0-3.75-1.10937-6.46875-4.20312-6.46875C1.875-12.71875.78125-10 .78125-6.25m1.89063 0c0-3.04687.51562-5.8125 2.28125-5.8125C6.73438-12.0625 7.25-9.29687 7.25-6.25S6.73438-.4375 4.95313-.4375c-1.76563 0-2.28125-2.76562-2.28125-5.8125m0 0"/><path id="d" d="M.5-.17187.70313 0H8.4375l.64063-2.46875-.51563-.09375c-.40625 1.01563-.78125 1.15625-1.53125 1.15625H2.25c.29688-.98437 1.40625-2.3125 3.14063-3.57812 1.79687-1.3125 3.1875-2.14063 3.1875-4.23438 0-2.60937-1.73438-3.5-3.70313-3.5-2.5625 0-3.875 1.54688-3.875 2.53125 0 .625.71875.9375 1.03125.9375.34375 0 .45313-.20312.53125-.53125.29688-1.26562 1.04688-2.28125 2.1875-2.28125 1.4375 0 1.85938 1.1875 1.85938 2.5625 0 2.01563-1.01563 3.15625-2.64063 4.57813C1.65625-2.90625.85938-1.625.5-.17187m0 0"/><path id="e" d="m.35938-3.75.15625.40625h5.09375v1.90625c0 .64063-.1875.73438-.65625.78125l-1.1875.125V0h4.9375v-.53125l-.84375-.10937c-.4375-.0625-.54688-.15626-.54688-.79688v-1.90625h1.90625v-.875H7.3125V-12.5h-1.375c-1.75 2.59375-3.875 5.82813-5.57812 8.75m1.35937-.46875C2.82813-6.25 4.14063-8.42187 5.57813-10.6875h.03125v6.46875Zm0 0"/><path id="f" d="M.8125-5.76562c0 4.03125 1.48438 5.98437 4.28125 5.98437 2.76563 0 4.25-1.67187 4.25-4.21875 0-2.53125-1.5625-3.90625-3.57812-3.90625-1.46875 0-2.5625 1-3.0625 1.60938h-.03125c.01562-4.10938 1.1875-5.76563 2.875-5.76563.85937 0 1.48437.71875 1.76562 1.79688.04688.21875.1875.39062.46875.39062.42188 0 1-.34375 1-.85937 0-.75-.92187-1.98438-3.17187-1.98438-2.96875 0-4.79688 2.28125-4.79688 6.95313m1.89063 1.34375c0-1.125.85937-2.53125 2.4375-2.53125 1.17187 0 2.32812 1.07812 2.32812 3.23437 0 1.96875-.76562 3.28125-2.32812 3.28125-1.64063 0-2.4375-1.73437-2.4375-3.98437m0 0"/><path id="g" d="M.78125-3.40625c0 1.89063 1.15625 3.625 4.17188 3.625 3.03125 0 4.1875-1.73437 4.1875-3.625 0-1.90625-1.20313-3-2.46875-3.29687V-6.75c1.125-.29687 2.04687-1.25 2.04687-2.78125 0-2.03125-1.60937-3.1875-3.76562-3.1875-2.14063 0-3.76563 1.15625-3.76563 3.1875C1.1875-8 2.15625-7.04687 3.26563-6.75v.04688C2.01563-6.40625.78125-5.3125.78125-3.40625m1.85938.0625c0-1.71875.82812-2.98437 2.3125-2.98437 1.5 0 2.3125 1.26562 2.3125 2.98437 0 1.65625-.73438 2.90625-2.3125 2.90625-1.5625 0-2.3125-1.25-2.3125-2.90625M3-9.57812c0-1.4375.6875-2.48438 1.95313-2.48438 1.28125 0 1.95312 1.04688 1.95312 2.48438C6.90625-8.29687 6.3125-7 4.95313-7 3.60938-7 3-8.29687 3-9.57812m0 0"/><path id="h" d="M0-.59375v-5.01562h-.71875L-.75-5.25c-.04687.39063-.10937.625-.71875.625H-5.9375c-.40625 0-.82812-.07812-1.09375-.21875-.46875-.23437-.9375-.73437-.9375-1.5 0-.96875.60938-1.45312 1.71875-1.5h4.78125c.60938 0 .67188.20313.71875.59375l.03125.40625H0v-5.04687h-.71875c-.0625 1.07812-.14062 1.23437-.90625 1.23437h-4.89062c-1.75.03125-2.875.875-2.875 2.8125 0 1.09375.54687 1.98438 1.28125 3.21875l-1.28125.25.53125 3.67188h.67187l.10938-.65625c.03125-.29688.17187-.45313.9375-.45313H-1.625c.76563 0 .84375.14063.90625 1.21875Zm0 0"/><path id="i" d="M-4.57812-.73437c2.98437 0 4.79687-1.4375 4.79687-4.84375s-1.8125-4.85938-4.79687-4.85938-4.8125 1.45313-4.8125 4.85938S-7.5625-.73437-4.57812-.73437m0-2.96875c-2.51563 0-3.96875-.53125-3.96875-1.875 0-1.32813 1.45312-1.85938 3.96875-1.85938s3.9375.53125 3.9375 1.85938c0 1.34375-1.42188 1.875-3.9375 1.875m0 0"/><path id="j" d="M-8.23437-.70312v-1.09375h6.04687c1.70313 0 2.40625-1.25 2.40625-2.29688 0-.78125-.34375-1.9375-1-3l-.59375.20313c.125.26562.20313.64062.20313 1.0625 0 .71875-.54688 1.20312-1.73438 1.20312h-5.32812v-1.9375h-.9375v1.9375h-2.35938v1.07813l2.35938 1.65625v1.1875Zm0 0"/><path id="k" d="M-4.57812-.73437c2.54687 0 4.79687-1.10938 4.79687-4.57813 0-2.23437-1.07812-3.45312-2.73437-4.07812l-.375.67187c1.07812.5625 1.67187 1.35938 1.67187 2.48438 0 1.875-1.53125 2.53125-3.5 2.53125V-8.5625c0-.67187-.17187-1-.78125-1-1.53125 0-3.89062.60938-3.89062 4.20313 0 3.375 2.1875 4.625 4.8125 4.625m-1.03125-2.96875c-1.35938 0-2.9375-.35938-2.9375-1.57813 0-1.125 1.4375-1.32812 2.3125-1.32812.51562 0 .625.14062.625.57812Zm0 0"/><path id="l" d="m-3.46875-.8125 2.79688-.21875c.65625-.71875.89062-2.14062.89062-3.1875 0-2.29687-1-3.84375-3.03125-3.84375-1.60937 0-2.39062 1.03125-3.04687 2.75C-6.25-4.21875-6.6875-3.42187-7.4375-3.42187c-.57812 0-1.10937-.42188-1.10937-1.20313 0-.95312.89062-1.75 2.29687-2.10937v-.6875h-2.48437c-.48438.76562-.65625 1.82812-.65625 2.79687 0 2.29688 1.0625 3.70313 2.95312 3.70313 1.375 0 2.25-1.09375 2.875-2.73438.34375-.96875.89063-1.89062 1.79688-1.89062.70312 0 1.125.46875 1.125 1.28125 0 1.23437-1.29688 2.25-2.82813 2.73437Zm0 0"/><path id="m" d="M-4.42187-.73437c2.73437 0 4.64062-1.42188 4.64062-3.78125 0-.70313-.35937-1.6875-1.15625-2.70313H0V-11.25h-.71875c-.0625 1.07813-.14062 1.21875-.90625 1.21875H-13.75l-.125.125.5 3.79688h.67188l.10937-.65625c.04688-.29688.21875-.45313.96875-.45313h2.46875c-.1875.40625-.23437.95313-.23437 1.57813 0 1.40625.40625 2.65625 1.20312 3.51562.82813.875 2.07813 1.39063 3.76563 1.39063m-.375-2.96875c-2.75 0-3.75-1.03125-3.75-2.09375 0-.71875.39062-1.09375.76562-1.26563.28125-.1875.67188-.15625 1.07813-.15625h3.85937c.75 0 1.625.26563 1.625 1.46875 0 1.21875-1.1875 2.04688-3.57812 2.04688m0 0"/><path id="n" d="M0-.60937v-5.54688h-.71875C-.78125-4.8125-.85937-4.64062-1.625-4.64062h-6.60937v-1.95313h-.9375v1.95313c-.90625 0-2.45313.375-3.15625.375-.46875 0-.6875-.1875-.6875-.40625 0-.3125.32812-.54688 1.39062-1.09375.34375-.1875.5625-.39063.5625-.84375 0-.59375-.4375-1.375-1.07812-1.375-.70313 0-1.73438.70312-1.73438 2.75 0 2.0625 1.32813 3.42187 3.90625 3.42187h.79688v1.17188h.9375V-1.8125H-1.625c.76563 0 .84375.125.90625 1.20313Zm0 0"/><path id="o" d="M0-.59375V-6.25h-.71875C-.79687-4.8125-.85937-4.625-1.625-4.625h-4.17187c-.96875 0-1.42188-.17187-1.42188-.625 0-.29687.15625-.57812.39063-1 .17187-.23437.29687-.5.29687-.85937 0-.375-.20312-.75-.46875-.95313-.28125-.20312-.65625-.29687-1.07812-.29687-.79688 0-1.3125.51562-1.3125 1.29687 0 .76563.51562 1.375 1.64062 2.46875l-1.64062.25.53125 3.64063h.67187l.10938-.65625c.03125-.29688.17187-.45313.9375-.45313H-1.625c.76563 0 .84375.14063.90625 1.21875Zm0 0"/><path id="p" d="M-2.51562-.89062c1.40625 0 2.73437-.90625 2.73437-2.79688 0-1.1875-.64062-2.03125-1.07812-2.6875.57812-.23437 1.07812-.57812 1.07812-1.46875 0-.96875-.3125-2.125-.5625-2.75l-.60937.03125c.01562.23438 0 .65625-.10938.92188-.07812.25-.29687.60937-1.39062.60937h-4.3125c-1.17188 0-2.625.15625-2.625 3.45313 0 2.75 1.09375 4.46875 2.29687 4.46875.82813 0 1.1875-1.20313 1.1875-1.67188 0-.42187-.29687-.625-.76562-.79687-1.59375-.51563-1.875-1.14063-1.875-1.65625 0-.53125.32812-1.0625 1.40625-1.0625h.98437c.46875.65625.90625 2.21875 1.3125 3.4375.53125 1.46875 1.26563 1.96875 2.32813 1.96875M-2.8125-3.75c-.875 0-1.3125-.3125-1.625-.875-.3125-.57812-.57812-1.20312-.78125-1.67187h2.70313c1.01562.04687 1.28125.625 1.28125 1.14062 0 .73438-.57813 1.40625-1.57813 1.40625m0 0"/><path id="q" d="M-4.51562-.73437c2.96875 0 4.51562-1.5625 4.6875-3.92188l1.54687.95313.15625-.07813c.03125-.42187.21875-1.23437.98438-1.23437.79687 0 1.07812.70312 1.07812 1.75h.59375c.04688-.3125.0625-.5625.0625-.92188 0-.875-.21875-2.79687-1.90625-2.79687-1.21875 0-1.51562 1.25-1.59375 1.82812l-.92187-.57812c-.125-1.375-.76563-2.8125-2.79688-3.4375l-.29687.65625c1.26562.625 1.70312 1.375 1.70312 2.40625 0 1.21875-.8125 2.40625-3.73437 2.40625-2.51563 0-3.59375-.8125-3.59375-1.59375 0-.65625.60937-.96875 1.71875-1.29688.4375-.14062.65625-.4375.65625-.90625 0-.65625-.34375-1.53125-1.15625-1.53125-1.32813 0-2.0625 1.82813-2.0625 3.53125 0 1.45313.4375 2.67188 1.25 3.48438.78125.78125 1.98437 1.28125 3.625 1.28125m0 0"/><path id="r" d="M-11.84375-1.40625c.89063 0 1.65625-.64062 1.65625-1.70312 0-1.03125-.76562-1.75-1.65625-1.75-.875 0-1.625.67187-1.625 1.75 0 1.0625.75 1.70312 1.625 1.70312M0-.59375V-5.875h-.71875c-.0625 1.07813-.14062 1.25-.90625 1.25h-7.65625l-.10937.10938.53125 3.8125h.67187l.10938-.65625c.03125-.29688.17187-.45313.9375-.45313H-1.625c.76563 0 .84375.14063.90625 1.21875Zm0 0"/><path id="s" d="M.59375 0h5.01563v-.71875L5.25-.75c-.39062-.04687-.625-.10937-.625-.71875V-5.9375c0-.40625.07813-.82812.21875-1.09375.23438-.46875.73438-.9375 1.5-.9375.96875 0 1.45313.60938 1.5 1.71875v4.78125c0 .60938-.20312.67188-.59375.71875l-.40625.03125V0h5.04688v-.71875c-1.07813-.0625-1.23438-.14062-1.23438-.90625v-4.89062c-.03125-1.75-.875-2.875-2.8125-2.875-1.09375 0-1.98437.54687-3.21875 1.28125l-.25-1.28125-3.67187.53125v.67187l.65625.10938c.29687.03125.45312.17187.45312.9375V-1.625c0 .76563-.14062.84375-1.21875.90625Zm0 0"/><path id="t" d="M.73438-4.57812c0 2.98437 1.4375 4.79687 4.84375 4.79687s4.85937-1.8125 4.85937-4.79687-1.45312-4.8125-4.85937-4.8125S.73438-7.5625.73438-4.57812m2.96875 0c0-2.51563.53125-3.96875 1.875-3.96875 1.32812 0 1.85937 1.45312 1.85937 3.96875s-.53125 3.9375-1.85937 3.9375c-1.34375 0-1.875-1.42188-1.875-3.9375m0 0"/><path id="u" d="M.70313-8.23437h1.09375v6.04687c0 1.70313 1.25 2.40625 2.29687 2.40625.78125 0 1.9375-.34375 3-1L6.89063-1.375c-.26563.125-.64063.20313-1.0625.20313-.71875 0-1.20313-.54688-1.20313-1.73438v-5.32812h1.9375v-.9375H4.625v-2.35938H3.54688L1.89063-9.17187H.70313Zm0 0"/><path id="v" d="M.73438-4.57812c0 2.54687 1.10937 4.79687 4.57812 4.79687 2.23438 0 3.45313-1.07812 4.07813-2.73437l-.67188-.375c-.5625 1.07812-1.35937 1.67187-2.48437 1.67187-1.875 0-2.53125-1.53125-2.53125-3.5H8.5625c.67188 0 1-.17187 1-.78125 0-1.53125-.60937-3.89062-4.20312-3.89062-3.375 0-4.625 2.1875-4.625 4.8125m2.96875-1.03125c0-1.35938.35937-2.9375 1.57812-2.9375 1.125 0 1.32813 1.4375 1.32813 2.3125 0 .51562-.14063.625-.57813.625Zm0 0"/><path id="w" d="m.8125-3.46875.21875 2.79688c.71875.65625 2.14063.89062 3.1875.89062 2.29688 0 3.84375-1 3.84375-3.03125 0-1.60937-1.03125-2.39062-2.75-3.04687C4.21875-6.25 3.42188-6.6875 3.42188-7.4375c0-.57812.42187-1.10937 1.20312-1.10937.95313 0 1.75.89062 2.10938 2.29687h.6875v-2.48437c-.76563-.48438-1.82813-.65625-2.79688-.65625-2.29687 0-3.70312 1.0625-3.70312 2.95312 0 1.375 1.09375 2.25 2.73437 2.875.96875.34375 1.89063.89063 1.89063 1.79688 0 .70312-.46875 1.125-1.28125 1.125-1.23438 0-2.25-1.29688-2.73438-2.82813Zm0 0"/><path id="x" d="M.73438-4.42187c0 2.73437 1.42187 4.64062 3.78125 4.64062.70312 0 1.6875-.35937 2.70312-1.15625V0H11.25v-.71875c-1.07812-.0625-1.21875-.14062-1.21875-.90625V-13.75l-.125-.125-3.79687.5v.67188l.65625.10937c.29687.04688.45312.21875.45312.96875v2.46875c-.40625-.1875-.95312-.23437-1.57812-.23437-1.40625 0-2.65625.40625-3.51563 1.20312C1.25-7.35937.73438-6.10937.73438-4.42187m2.96875-.375c0-2.75 1.03125-3.75 2.09375-3.75.71875 0 1.09375.39062 1.26562.76562.1875.28125.15625.67188.15625 1.07813v3.85937c0 .75-.26562 1.625-1.46875 1.625-1.21875 0-2.04687-1.1875-2.04687-3.57812m0 0"/><path id="y" d="M.59375 0h5.01563v-.71875L5.25-.75c-.39062-.04687-.625-.10937-.625-.71875v-4.32812c0-1.625.92188-2.17188 1.75-2.17188.90625 0 1.34375.78125 1.34375 1.8125v4.6875c0 .60938-.21875.67188-.60937.71875l-.375.03125V0h4.8125v-.71875l-.375-.03125c-.40625-.04687-.60938-.10937-.60938-.71875v-4.32812c0-1.625.84375-2.17188 1.65625-2.17188.92188 0 1.42188.78125 1.42188 1.8125v4.6875c0 .60938-.20313.67188-.60938.71875l-.39062.03125V0h5.03125v-.71875c-1.0625-.0625-1.1875-.14062-1.1875-.90625v-4.85937c0-1.73438-.95313-2.90625-2.95313-2.90625-1.28125 0-2.46875.89062-3.26562 1.40625-.375-.67188-1.125-1.40625-2.51563-1.40625-1.21875 0-2.09375.625-3.125 1.28125l-.25-1.28125-3.67187.53125v.67187l.65625.10938c.29687.03125.45312.17187.45312.9375V-1.625c0 .76563-.14062.84375-1.21875.90625Zm0 0"/><path id="z" d="M.89063-2.51562c0 1.40625.90625 2.73437 2.79687 2.73437 1.1875 0 2.03125-.64062 2.6875-1.07812.23438.57812.57813 1.07812 1.46875 1.07812.96875 0 2.125-.3125 2.75-.5625l-.03125-.60937c-.23437.01562-.65625 0-.92187-.10938-.25-.07812-.60938-.29687-.60938-1.39062v-4.3125c0-1.17188-.15625-2.625-3.45312-2.625-2.75 0-4.46875 1.09375-4.46875 2.29687 0 .82813 1.20312 1.1875 1.67187 1.1875.42188 0 .625-.29687.79688-.76562.51562-1.59375 1.14062-1.875 1.65625-1.875.53125 0 1.0625.32812 1.0625 1.40625v.98437c-.65625.46875-2.21875.90625-3.4375 1.3125C1.39063-4.3125.89063-3.57812.89063-2.51562M3.75-2.8125c0-.875.3125-1.3125.875-1.625.57813-.3125 1.20313-.57812 1.67188-.78125v2.70313C6.25-1.5 5.67188-1.23437 5.15625-1.23437 4.42188-1.23437 3.75-1.8125 3.75-2.8125m0 0"/><path id="A" d="M.45313 0h5.0625v-.71875L5.09375-.75c-.39062-.04687-.57812-.10937-.57812-.71875V-5.9375c0-.40625.01562-.82812.15625-1.09375.25-.46875.78125-.9375 1.5625-.9375.95312 0 1.46875.64063 1.46875 1.76563v4.73437c0 .60938-.20313.67188-.59375.71875l-.40625.03125V0H11.75v-.71875c-1.07812-.0625-1.20312-.14062-1.20312-.90625v-4.85937c0-1.75-.90625-2.90625-2.89063-2.90625-1.10937 0-1.96875.54687-3.14062 1.28125V-13.75l-.15625-.125-3.76563.5v.67188l.64063.10937c.29687.04688.4375.21875.4375.96875v10c0 .76563-.14063.84375-1.21875.90625Zm0 0"/><path id="B" d="M1.6875-5.28125c0 2.15625 1.57813 3.73438 3.75 3.73438 2.09375 0 3.65625-1.57813 3.65625-3.73438 0-2.07812-1.5625-3.65625-3.65625-3.65625-2.17187 0-3.75 1.57813-3.75 3.65625m0 0"/><path id="C" d="M1.01563-5c0 3.79688.9375 8.21875 4.5 8.375v-.5C4.3125 2.64063 2.4375.89063 2.4375-5c0-5.85937 1.79688-7.59375 3.07813-7.875v-.5c-3.5625.15625-4.5 4.57813-4.5 8.375m0 0"/><path id="D" d="M.45313-.15625.625 0h6.96875l.57813-2.21875-.46875-.09375C7.34375-1.39062 7-1.26562 6.32813-1.26562H2.03125c.26563-.89063 1.26563-2.07813 2.82813-3.21875 1.60937-1.17188 2.85937-1.9375 2.85937-3.8125 0-2.34375-1.54687-3.15625-3.32812-3.15625-2.3125 0-3.5 1.40625-3.5 2.28125 0 .5625.65625.84375.9375.84375.29687 0 .40625-.1875.48437-.46875.26563-1.15625.9375-2.0625 1.96875-2.0625 1.29688 0 1.67188 1.07812 1.67188 2.3125 0 1.8125-.92188 2.82812-2.39063 4.125C1.48438-2.60937.76563-1.46875.45313-.15625m0 0"/><path id="E" d="M5.17188-5c0-3.79687-.92188-8.21875-4.48438-8.375v.5c1.28125.28125 3.07813 2.01563 3.07813 7.875C3.76563.89063 1.875 2.64063.6875 2.875v.5C4.25 3.21875 5.17188-1.20312 5.17188-5m0 0"/></defs><path fill="none" stroke="#000" stroke-miterlimit="10" stroke-width=".39818" d="M83.85156 319.13672h339.89047M83.85156 302.14454h339.89047M83.85156 285.14845h339.89047M83.85156 268.15237h339.89047M83.85156 251.16019h339.89047M83.85156 234.1641h339.89047M83.85156 217.17192h339.89047M83.85156 200.17584h339.89047M83.85156 183.17975h339.89047M83.85156 166.18757h339.89047M83.85156 149.1915h339.89047M83.85156 132.1993h339.89047M83.85156 115.20322h339.89047M83.85156 98.20714h339.89047M83.85156 81.21496h339.89047M83.85156 64.21887h339.89047M83.85156 47.2267h339.89047M83.85156 30.23061h339.89047M83.85156 13.24233h339.89047M83.85156 319.13672V13.23452m16.99218 305.9022V13.23452m16.99609 305.9022V13.23452m16.99608 305.9022V13.23452m16.99218 305.9022V13.23452m16.99609 305.9022V13.23452m16.99218 305.9022V13.23452m16.99608 305.9022V13.23452m16.99609 305.9022V13.23452m16.99218 305.9022V13.23452m16.99608 305.9022V13.23452m16.99218 305.9022V13.23452m16.99609 305.9022V13.23452m16.99609 305.9022V13.23452m16.99217 305.9022V13.23452m16.99609 305.9022V13.23452m16.99218 305.9022V13.23452m16.99608 305.9022V13.23452m16.99219 305.9022V13.23452m16.99608 305.9022V13.23452m16.98827 305.9022V13.23452"/><path fill="none" stroke="#000" stroke-miterlimit="10" stroke-width=".79636" d="M100.84374 317.4375v3.39844m0-3.39844v3.39844m0-3.39844v3.39844m0-3.39844v3.39844m0-3.39844v3.39844m67.98044-3.39844v3.39844"/><use xlink:href="#a" x="163.86424" y="340.77157"/><path fill="none" stroke="#000" stroke-miterlimit="10" stroke-width=".79636" d="M100.84374 317.4375v3.39844m0-3.39844v3.39844m0-3.39844v3.39844m0-3.39844v3.39844m152.95306-3.39844v3.39844"/><use xlink:href="#b" x="243.87841" y="340.99139"/><use xlink:href="#c" x="253.79317" y="340.99139"/><path fill="none" stroke="#000" stroke-miterlimit="10" stroke-width=".79636" d="M100.84374 317.4375v3.39844m0-3.39844v3.39844m0-3.39844v3.39844m0-3.39844v3.39844m237.92567-3.39844v3.39844"/><use xlink:href="#b" x="328.84957" y="340.99139"/><use xlink:href="#a" x="338.76433" y="340.99139"/><path fill="none" stroke="#000" stroke-miterlimit="10" stroke-width=".79636" d="M100.84374 317.4375v3.39844m0-3.39844v3.39844m0-3.39844v3.39844m0-3.39844v3.39844m0-3.39844v3.39844m322.89829-3.39844v3.39844"/><use xlink:href="#d" x="413.82173" y="340.99139"/><use xlink:href="#c" x="423.73649" y="340.99139"/><path fill="none" stroke="#000" stroke-miterlimit="10" stroke-width=".79636" d="M84.69922 319.13672H83"/><use xlink:href="#c" x="65.65381" y="325.38903"/><path fill="none" stroke="#000" stroke-miterlimit="10" stroke-width=".79636" d="M84.69922 285.14845H83"/><use xlink:href="#d" x="65.65381" y="291.50948"/><path fill="none" stroke="#000" stroke-miterlimit="10" stroke-width=".79636" d="M84.69922 251.16019H83"/><use xlink:href="#e" x="65.65381" y="257.41211"/><path fill="none" stroke="#000" stroke-miterlimit="10" stroke-width=".79636" d="M84.69922 217.17192H83"/><use xlink:href="#f" x="65.65381" y="223.42364"/><path fill="none" stroke="#000" stroke-miterlimit="10" stroke-width=".79636" d="M84.69922 183.17975H83"/><use xlink:href="#g" x="65.65381" y="189.43518"/><path fill="none" stroke="#000" stroke-miterlimit="10" stroke-width=".79636" d="M84.69922 149.19149H83"/><use xlink:href="#b" x="55.73884" y="155.44572"/><use xlink:href="#c" x="65.6536" y="155.44572"/><path fill="none" stroke="#000" stroke-miterlimit="10" stroke-width=".79636" d="M84.69922 115.20322H83"/><use xlink:href="#b" x="55.73884" y="121.56717"/><use xlink:href="#d" x="65.6536" y="121.56717"/><path fill="none" stroke="#000" stroke-miterlimit="10" stroke-width=".79636" d="M84.69922 81.21496H83"/><use xlink:href="#b" x="55.73884" y="87.5787"/><use xlink:href="#e" x="65.6536" y="87.5787"/><path fill="none" stroke="#000" stroke-miterlimit="10" stroke-width=".79636" d="M84.69922 47.2267H83"/><use xlink:href="#b" x="55.73884" y="53.48033"/><use xlink:href="#f" x="65.6536" y="53.48033"/><path fill="none" stroke="#000" stroke-miterlimit="10" stroke-width=".79636" d="M84.69922 13.23452H83"/><use xlink:href="#b" x="55.73884" y="19.49187"/><use xlink:href="#g" x="65.6536" y="19.49187"/><use xlink:href="#h" x="20.51238" y="256.27003"/><use xlink:href="#i" x="20.51238" y="244.14536"/><use xlink:href="#j" x="20.51238" y="233.01614"/><use xlink:href="#k" x="20.51238" y="225.90858"/><use xlink:href="#l" x="20.51238" y="216.03364"/><use xlink:href="#m" x="20.51238" y="203.39133"/><use xlink:href="#k" x="20.51238" y="191.90375"/><use xlink:href="#n" x="20.51238" y="177.90762"/><use xlink:href="#o" x="20.51238" y="171.3376"/><use xlink:href="#p" x="20.51238" y="162.91603"/><use xlink:href="#h" x="20.51238" y="152.54336"/><use xlink:href="#q" x="20.51238" y="140.41869"/><use xlink:href="#p" x="20.51238" y="130.98175"/><use xlink:href="#r" x="20.51238" y="120.60908"/><use xlink:href="#l" x="20.51238" y="114.49698"/><use xlink:href="#s" x="120.72419" y="359.95503"/><use xlink:href="#t" x="132.84886" y="359.95503"/><use xlink:href="#u" x="143.97808" y="359.95503"/><use xlink:href="#v" x="151.08564" y="359.95503"/><use xlink:href="#w" x="160.96058" y="359.95503"/><use xlink:href="#x" x="173.60289" y="359.95503"/><use xlink:href="#v" x="185.09047" y="359.95503"/><use xlink:href="#y" x="199.08661" y="359.95503"/><use xlink:href="#z" x="217.02475" y="359.95503"/><use xlink:href="#u" x="227.39742" y="359.95503"/><use xlink:href="#A" x="234.50498" y="359.95503"/><use xlink:href="#w" x="246.5102" y="359.95503"/><use xlink:href="#B" x="197.42505" y="187.65262"/><use xlink:href="#B" x="214.41928" y="136.66993"/><use xlink:href="#B" x="248.40775" y="170.65839"/><use xlink:href="#C" x="243.13202" y="181.3847"/><use xlink:href="#D" x="249.33173" y="181.3847"/><use xlink:href="#E" x="258.25502" y="181.3847"/><use xlink:href="#B" x="248.40775" y="119.6757"/><use xlink:href="#B" x="265.40198" y="102.68147"/><use xlink:href="#B" x="282.39621" y="170.65839"/><use xlink:href="#B" x="282.39621" y="136.66993"/><use xlink:href="#B" x="316.38467" y="102.68147"/><use xlink:href="#B" x="333.3789" y="34.70454"/></svg>