<svg xmlns="http://www.w3.org/2000/svg" xmlns:xlink="http://www.w3.org/1999/xlink" width="617.546pt" height="463.768pt" viewBox="0 0 617.546 463.768"><defs><path id="b" d="M.29688.9375c.01562.79688.89062 1.32813 2.14062 1.32813 1.375 0 2.375-.53125 2.375-1.59375 0-.76563-.625-1.23438-1.67187-1.48438-.82813-.20312-1.125-.29687-1.125-.54687 0-.15626.15625-.26563.35937-.32813.20313.01563.375.01563.53125.01563 1.3125 0 2.125-.67188 2.125-1.65625 0-.25-.07812-.46875-.1875-.625l.75-.125.29688-.625-.04688-.07813-1.35937.35938c-.26563-.15625-.75-.28125-1.21875-.28125-1.65625 0-2.14063.96875-2.14063 1.73437 0 .625.51563 1.0625.84375 1.17188-.375.125-.96875.375-.96875.76562 0 .32813.375.60938.76563.73438C1.125-.20312.29688.17188.29688.9375m1.0625-.09375c0-.64062.54687-.92187.84375-.96875.57812.07813 1.625.29688 1.625 1.0625 0 .67188-.5625.95313-1.17188.95313-.71875 0-1.29687-.39063-1.29687-1.04688m.89062-3.625c0-.60937.3125-1.53125 1.0625-1.53125.26563 0 .67188.125.67188.67188 0 .85937-.4375 1.59375-1.0625 1.59375-.45313 0-.67188-.3125-.67188-.73438m0 0"/><path id="c" d="M1.01563 0h3.1875v-.3125L3.48438-.375c-.20313-.01562-.3125-.07812-.3125-.42187v-5.5l-.0625-.0625-2.07813.34375V-5.75l.75.10938c.20313.03125.26563.10937.26563.40625v4.4375c0 .34375-.09375.40625-.3125.42187l-.71875.0625Zm0 0"/><path id="d" d="M.09375 0H2.8125l.0625-.3125-.51562-.03125C2.20313-.35937 2.125-.42187 2.125-.57812c0-.0625.03125-.15626.04688-.26563l.53125-2.34375h2.8125L4.96875-.84375C4.89063-.5 4.82813-.375 4.57813-.35937l-.48438.04687L4.04688 0h2.71875l.0625-.3125-.51563-.03125c-.15625-.01562-.23437-.09375-.23437-.25 0-.0625.01562-.14062.04687-.25l1.07813-4.79687c.07812-.3125.15625-.45313.40625-.48438l.46875-.03125.07812-.3125H5.4375l-.09375.3125.53125.03125c.15625.01563.21875.09375.21875.25 0 .0625-.01562.14063-.03125.23438l-.45312 2.0625h-2.8125L3.25-5.64062c.07813-.3125.15625-.45313.40625-.48438l.46875-.03125.07813-.3125H1.48438l-.07813.3125.51563.03125c.15624.01563.23437.09375.23437.25 0 .0625-.03125.14063-.04687.23438L1.03125-.84375C.95313-.5.875-.375.625-.35937L.15625-.3125Zm0 0"/><path id="e" d="M.28125-.125.39063 0H4.4375l.35938-1.40625L4.5-1.46875c-.23437.5-.40625.57813-.78125.57813h-2.375C1.5-1.3125 1.9375-1.92187 2.875-2.51562c.98438-.625 1.64063-1.0625 1.64063-2.07813 0-1.3125-.89063-1.76562-1.96875-1.76562C1.29688-6.35937.5-5.65625.5-5.03125c0 .35938.42188.53125.64063.53125.1875 0 .28124-.09375.32812-.29687.15625-.6875.48438-1.1875 1.01563-1.1875.60937 0 .8125.53125.8125 1.20312 0 .8125-.32813 1.45313-1.25 2.23438C.82813-1.5.39063-.8125.28124-.125m0 0"/><path id="f" d="M.28125-1.03125c0 .39063.5625 1.14063 2.0625 1.14063 1.42188 0 2.29688-.67188 2.29688-1.85938 0-1.29687-1.125-1.60937-1.57813-1.65625v-.04687c.51563-.09375 1.3125-.45313 1.3125-1.35938 0-1.15625-.96875-1.54687-1.95312-1.54687C1.25-6.35937.5-5.71875.5-5.1875c0 .34375.40625.51563.57813.51563.17187 0 .25-.09375.3125-.25.20312-.67188.51562-1.0625 1-1.0625.65625 0 .79687.67187.79687 1.14062 0 .45313-.125 1.25-.875 1.25-.40625 0-.6875-.10937-.84375-.10937-.17187 0-.21875.10937-.21875.3125 0 .1875.04688.3125.21875.3125.15625 0 .4375-.10938.84375-.10938.65625 0 1.10938.5 1.10938 1.46875 0 1.03125-.45313 1.45313-1.0625 1.45313-.53125 0-.89063-.39063-1.10938-1.0625-.0625-.1875-.17187-.28126-.34375-.28126-.25 0-.625.20313-.625.57813m0 0"/><path id="g" d="m.20313-1.875.125.21875h2.46875v.95313c0 .26562-.09375.32812-.28125.34375l-.60938.04687V0h2.64063v-.3125l-.4375-.03125c-.1875-.03125-.25-.09375-.25-.35937v-.95313h.9375v-.53125h-.9375V-6.25h-.89063C2.03125-4.875 1.04688-3.32812.20313-1.875m.8125-.3125c.5-.9375 1.125-1.96875 1.78125-3.03125v3.03125Zm0 0"/><path id="h" d="M.42188-1.03125c0 .39063.54687 1.14063 1.96875 1.14063 1.625 0 2.28125-.95313 2.28125-2.125 0-1.09375-.625-2-2-2-.5625 0-1.09375.25-1.42188.51562l.1875-1.53125c.03125-.28125.07813-.3125.29688-.3125H4.125l.29688-.8125-.0625-.09375H1.03125l-.07812.09375L.75-3.0625l.3125.20313c.375-.4375.73438-.65625 1.21875-.65625.60938 0 1.1875.45312 1.1875 1.625 0 .95312-.3125 1.625-1.03125 1.625-.54687 0-.85937-.39063-1.07812-1.0625C1.29688-1.5 1.1875-1.60938 1-1.60938c-.25 0-.57812.23438-.57812.57813m0 0"/><path id="j" d="M.89063.10938 1.71875 0c.23438-.95312.375-1.46875.625-2.0625.28125-.71875 1.20313-2.14062 2.01563-2.14062.21875 0 .34375.14062.34375.375q0 .11718-.04688.28125L3.89063-.89062c-.04688.15624-.07813.32812-.07813.45312 0 .34375.17188.54688.5625.54688.65625 0 1.17188-.64063 1.5-1.34375l-.23437-.125c-.17188.32812-.57813.98437-.84375.98437-.10938 0-.15625-.07812-.15625-.1875 0-.07812.03125-.1875.0625-.32812l.73437-2.45313c.07813-.21875.10938-.42187.10938-.60937 0-.4375-.21875-.75-.75-.75-.89063 0-1.89063.96875-2.48438 2.09375h-.01562l1.03125-4.28125-.04688-.04688-1.67187.21875-.0625.21875.53125.0625c.15625.01563.23437.04688.23437.1875 0 .0625-.01562.15625-.04687.26563Zm0 0"/><path id="i" d="M0 0h5.10938l.125-.53125L4.125-.60937c-.32812-.03126-.46875-.20313-.46875-.5 0-.125.03125-.28126.0625-.4375L4.89063-6.75h.04687C5.79688-5 6.70313-3.125 7.84375-1.57812 8.73438-.35937 9.5625.04688 10.98438.07813l.92187.01562.14063-.54687c-1.07813-.10938-1.51563-.60938-2.1875-1.4375-1.26563-1.57813-2.53125-3.84375-3.3125-5.5 1.6875-1.40625 3.25-2.70313 4.95312-3.89063 1.07813-.76562 1.51563-1.01562 3.03125-1.125l.07813-.53125H9.95313l-.07813.53125.71875.0625c.20313.01563.25.09375.25.21875 0 .10938-.09375.23438-.28125.40625l-5.53125 4.75h-.07812l1-4.42187c.14062-.57813.3125-.89063.79687-.9375l1.03125-.07813.125-.53125h-5.125l-.14062.53125 1.125.07813c.3125.03125.45312.21875.45312.53125 0 .10937-.01562.25-.0625.40625l-2.25 9.84375c-.14062.59375-.3125.84375-.76562.89062l-1.04688.125Zm0 0"/><path id="k" d="M.65625-.45312c0 .4375.57813.67187.85938.67187 1 0 1.6875-1.23437 2.03125-2.0625.4375-1.10937 1.07812-3.45312 1.625-6.125h2.35937L6.3125-2.3125c-.0625.40625-.10937.76563-.10937 1.0625 0 .95313.3125 1.46875.98437 1.46875 1.375 0 2.40625-1.03125 3.0625-2.60937l-.4375-.25C9.34375-1.6875 8.57813-.73437 8.15625-.73437c-.21875 0-.26562-.21876-.26562-.5625 0-.20313.01562-.45313.04687-.6875l1.26563-5.98438h1.625l.75-1.42187c-.53125.14062-1.3125.1875-2.1875.1875h-5.3125c-.95313 0-2.26563.48437-2.98438 1.625l.29688.32812c.76562-.57812 1.73437-.71875 2.73437-.71875-.79687 3.29688-1.35937 6.25-2.40625 6.4375-.48437.07813-1.0625.35938-1.0625 1.07813m0 0"/><path id="o" d="M1.60938-5.28125c0 4.21875.95312 8.85938 4.92187 9.03125v-.5625c-1.32812-.26562-3.42187-1.90625-3.42187-8.46875 0-6.5 1.98437-8.15625 3.42187-8.45312v-.5625C2.5625-14.14062 1.60938-9.5 1.60938-5.28125m0 0"/><path id="p" d="M1.10938 3.1875V3.75c3.96875-.17187 4.92187-4.8125 4.92187-9.03125s-.95312-8.85937-4.92187-9.01562v.5625c1.4375.29687 3.42187 1.95312 3.42187 8.45312 0 6.5625-2.07812 8.20313-3.42187 8.46875m0 0"/><path id="z" d="M.79688-5.32812c0 1.85937.60937 3.39062 1.59375 4.23437 1.09375.95313 2.625 1.375 4.35937 1.375 1.375 0 2.89063-.32812 3.95313-.71875l.90625-3.78125c.15625-.64062.25-.89062.57812-.9375L13-5.23437l.125-.53125H8.1875l-.10937.53125 1.39062.125c.26563.01562.39063.125.39063.4375 0 .10937-.03125.25-.0625.45312l-.6875 2.82813c-.125.53125-.375 1.01562-2.32813 1.01562-2.26562 0-3.92187-1.51562-3.92187-4.82812 0-2.98438 1.45312-7.375 5.9375-7.375 2.45312 0 2.875 1.4375 2.98437 3.20312h.5625l.67188-2.92187c-1.125-.625-2.625-.9375-4.20313-.9375-2.85937 0-4.9375 1.03125-6.25 2.70312C1.32813-8.95312.79688-6.98437.79688-5.32812m0 0"/><path id="C" d="m1.59375-4.0625.45313.21875c.40625-.89062.9375-1.70312 1.59375-1.70312 1.25 0 4.35937 1.82812 6.1875 1.82812 1.64062 0 1.96875-1.8125 2.09375-2.79687L11.45313-6.75c-.34375.89063-.89063 1.76563-1.5625 1.76563-1.34375 0-4.5625-1.89063-6.375-1.89063-.95313 0-1.79688 1.85938-1.92188 2.8125m0 0"/><path id="E" d="M.59375 1.79688c0 1.67187 1.75 2.71875 4.125 2.71875 2.53125 0 4.5625-1.07813 4.5625-3.125 0-1.39063-1.0625-2.40625-3.26562-2.92188C4.4375-1.90625 3.75-2.17187 3.75-2.6875c0-.35937.34375-.60937.8125-.73437.375.0625.73438.0625 1.01563.0625 2.60937 0 4.03125-1.42188 4.03125-3.34375 0-.5-.14063-.98438-.375-1.29688l1.5625-.23437.625-1.1875-.10938-.15625-2.71875.73437c-.46875-.3125-1.40625-.54687-2.32812-.54687-3.0625 0-3.96875 2.10937-3.96875 3.4375 0 1.39062 1.03125 2.125 1.57812 2.32812-.57812.23438-1.71875.65625-1.71875 1.42188 0 .67187.8125 1.20312 1.32813 1.40625C2.20313-.57814.59375.23438.59375 1.79688M2.32813 1.625c0-1.34375 1.1875-1.98437 1.96875-2.10937C5.46875-.3125 7.6875.17188 7.6875 1.75c0 1.42188-1.15625 2.125-2.54687 2.125-1.64063 0-2.8125-.89062-2.8125-2.25m1.71875-7.26562c0-1.17188.59375-3.09375 2.35937-3.09375.5625 0 1.5.28125 1.5 1.5625 0 1.73437-.92187 3.15625-2.3125 3.15625-1 0-1.54687-.6875-1.54687-1.625m0 0"/><path id="F" d="M1.79688.21875 3.42188 0c.5-1.90625.78125-2.95312 1.25-4.125.5625-1.45312 2.42187-4.29687 4.04687-4.29687.4375 0 .67188.29687.67188.78125 0 .15625-.01563.32812-.07813.53125l-1.53125 5.3125c-.09375.34375-.15625.65625-.15625.92187 0 .70313.35938 1.09375 1.14063 1.09375 1.28125 0 2.34375-1.28125 2.98437-2.6875l-.46875-.26562C10.95313-2.0625 10.10938-.75 9.59375-.75c-.21875 0-.29687-.14062-.29687-.35937 0-.1875.04687-.40625.125-.65625l1.46875-4.92188c.14062-.4375.20312-.84375.20312-1.21875 0-.875-.42187-1.48437-1.5-1.48437-1.76562 0-3.78125 1.92187-4.96875 4.17187h-.04687l2.09375-8.57812-.10938-.07813-3.35937.4375-.125.4375 1.07812.125c.32813.03125.46875.09375.46875.375 0 .14063-.03125.29688-.09375.53125Zm0 0"/><path id="G" d="M1.6875-5c1.29688.48438 3.75 2.32813 6.03125 4.35938l.35938-.45313-1.46875-1.57812H28.3125l-1.51562 1.57812.42187.42188C29.34375-2.59375 31.76563-4.4375 33.15625-5v-.54687c-1.28125-.48438-3.71875-2.34375-6-4.35938l-.35937.4375 1.46874 1.57813H6.5625l1.51563-1.57813-.4375-.40625c-2.125 1.90625-4.5625 3.76563-5.95313 4.32813Zm2.54688-.29687 1.42187-1.48438H29.1875L30.64063-5.25l-1.42188 1.48438H5.6875Zm0 0"/><path id="H" d="M1.3125-5.25c0 2.6875 1.3125 4.85938 4.40625 4.85938h3.92188v-1.07813H5.71875c-2.32812 0-3.04687-1.60937-3.23437-3.26562h5.40625v-1.09375H2.48438c.20312-1.67188.875-3.20313 3.23437-3.20313h3.92188V-10.125H5.71875c-3.10937 0-4.40625 2.1875-4.40625 4.875m0 0"/><path id="I" d="M0 0h5.10938l.125-.53125L4.125-.60937c-.32812-.03126-.46875-.1875-.46875-.48438 0-.14062.03125-.28125.0625-.45312l1.07813-4.84375h6.25L9.95313-1.54687c-.15625.625-.34375.84375-.79688.89062l-1.03125.125L8.01563 0h5.125L13.25-.53125l-1.09375-.07812c-.32812-.03126-.46875-.1875-.46875-.5 0-.125.01563-.26563.0625-.4375L14-11.39062c.15625-.60938.29688-.89063.76563-.9375l1.04687-.07813.10938-.53125H10.8125l-.14062.53125 1.10937.07813c.32813.03125.46875.20312.46875.53125 0 .10937-.03125.25-.0625.40625l-.95312 4.29687h-6.25l.96875-4.29687c.15625-.60938.3125-.89063.79687-.9375l1.03125-.07813.125-.53125h-5.125l-.14062.53125 1.125.07813c.3125.03125.45312.20312.45312.53125 0 .10937-.01562.25-.0625.40625l-2.25 9.84375c-.15625.625-.3125.84375-.76562.89062l-1.04688.125Zm0 0"/><path id="J" d="M1.71875 3.75h1.25l5.14063-18.04687H6.84375Zm0 0"/><path id="l" d="M.0625 0h3.71875L3.875-.40625l-.75-.04687c-.21875-.01563-.32812-.125-.32812-.34375 0-.09376.01562-.20313.04687-.34375l.75-3.3125h4.125l-.75 3.3125c-.10937.4375-.21875.64062-.5625.67187l-.6875.0625L5.625 0h3.71875l.09375-.40625-.73437-.04687c-.25-.01563-.34375-.125-.34375-.35938 0-.07812.03125-.1875.0625-.32812l1.54687-6.78125c.10938-.4375.1875-.65625.54688-.67188l.6875-.0625.09375-.40625H7.57813l-.09375.40625.75.0625c.21875.01563.32812.125.32812.34375 0 .07813-.03125.20313-.0625.32813l-.64062 2.9375H3.71875l.65625-2.9375c.10938-.4375.21875-.65625.57813-.67188l.67187-.0625.10938-.40625H2.01563l-.10938.40625.75.0625c.23438.01563.32813.125.32813.34375 0 .07813-.01563.20313-.04688.32813L1.39063-1.14062c-.10938.4375-.21876.64062-.54688.67187l-.6875.0625Zm0 0"/><path id="m" d="M1.0625-3.26562h7.29688V-4.125H1.0625Zm0 0"/><path id="n" d="M1.42188 0H5.8125v-.40625L4.76563-.5c-.29688-.03125-.4375-.125-.4375-.60937v-7.73438L4.25-8.90625l-2.8125.46875v.35938l1.125.14062c.25.04688.34375.14063.34375.54688v6.28125c0 .48437-.125.57812-.4375.60937l-1.04687.09375Zm0 0"/><path id="q" d="M.65625 0h5.51563v-.53125c-1.9375-.125-1.96875-.14062-1.96875-1.20312V-5.3125H5.25c.85938 0 1.70313-.07812 2.39063-.23437C9.07813-5.9375 10.75-6.92187 10.75-9.28125c0-1.40625-.64062-2.40625-1.46875-2.92187-.90625-.5625-2.09375-.73438-3.40625-.73438H.65625v.53125c1.65625.125 1.6875.14063 1.6875 1.20313v9.46875c0 1.0625-.03125 1.07812-1.6875 1.20312Zm3.54688-6.70312v-4.90625c0-.51563.20312-.6875 1.40625-.6875 1.9375 0 3.10937 1.10937 3.10937 3.14062 0 2.34375-1.53125 3.1875-3.14062 3.1875-1.09375 0-1.375-.04687-1.375-.73437m0 0"/><path id="r" d="M.92188-2.42187c0 1.39062.92187 2.64062 2.6875 2.64062 1.09375 0 2.1875-.71875 2.78125-1.10937.26562.6875.57812 1.10937 1.23437 1.10937.70313 0 1.48438-.20312 2.20313-.5625l-.10938-.4375c-.26562.0625-.6875.07813-.95312 0-.34375-.07812-.65625-.40625-.65625-1.59375v-4.53125c0-1.09375-.25-2.48437-3.07813-2.48437-2.10937 0-3.78125 1.09375-3.78125 2.125 0 .59375.70313.875 1.0625.875.39063 0 .5-.20313.59375-.51563.42188-1.39062 1.17188-1.82812 1.9375-1.82812.73438 0 1.5625.375 1.5625 1.85937v.78125c-.46875.48438-2.28125.95313-3.76562 1.4375C1.29688-4.23437.92188-3.29687.92188-2.42187M2.8125-2.6875c0-.875.39063-1.32812 1.45313-1.73437.75-.28125 1.71875-.64063 2.14062-.89063v2.64063c0 1.51562-1.15625 1.89062-1.89062 1.89062-1.15625 0-1.70313-.8125-1.70313-1.90625m0 0"/><path id="s" d="M.59375 0h4.9375v-.53125C3.85938-.64062 3.76563-.67187 3.76563-1.625v-4.39062c0-1.42188.64062-1.92188 1.07812-1.92188.29688 0 .60938.10938 1.14063.40625.14062.09375.28125.10938.39062.10938.45313 0 .84375-.48438.84375-1.0625 0-.40625-.25-.90625-.98437-.90625C5.54688-9.39062 5-9 3.76563-7.90625l-.21875-1.48437-2.84375.46875v.46875l.6875.09375c.48437.07812.625.15625.625.82812V-1.625c0 .95313-.10938.98438-1.42188 1.09375Zm0 0"/><path id="t" d="M.57813-8.42187H1.9375v6.51562C1.9375 0 3.34375.21875 4 .21875c.95313 0 1.85938-.48437 2.39063-.8125L6.25-1c-.45312.1875-.85937.25-1.32812.25-.64063 0-1.23438-.46875-1.23438-1.875v-5.79687h2.40625v-.75H3.6875v-2.35938h-.54687l-1.125 2.35938H.57813Zm0 0"/><path id="u" d="M1.71875-12.25c0 .6875.46875 1.15625 1.14063 1.15625C3.54688-11.09375 4-11.5625 4-12.25c0-.67187-.45312-1.125-1.14062-1.125-.67188 0-1.14063.45313-1.14063 1.125M.59375 0h4.5625v-.53125C3.82813-.64062 3.76563-.67187 3.76563-1.625v-7.65625L3.625-9.39062l-2.92187.46875v.46875l.6875.09375c.48437.07812.625.15625.625.82812V-1.625c0 .95313-.0625.98438-1.42188 1.09375Zm0 0"/><path id="v" d="M.92188-4.57812c0 3.03125 1.48437 4.79687 4.5 4.79687 3 0 4.46875-1.76562 4.46875-4.79687s-1.46875-4.8125-4.46875-4.8125c-3.01563 0-4.5 1.78125-4.5 4.8125m1.9375 0c0-2.59375.84375-4.15625 2.5625-4.15625 1.70312 0 2.54687 1.5625 2.54687 4.15625S7.125-.4375 5.42188-.4375c-1.71875 0-2.5625-1.54687-2.5625-4.14062m0 0"/><path id="w" d="M.59375 0h4.5625v-.53125C3.82813-.64062 3.76563-.67187 3.76563-1.625v-4.39062c0-.46875.01562-.71875.17187-1.01563C4.34375-7.76562 5.17188-8.375 6.17188-8.375c1.26562 0 1.96875.6875 1.96875 2.32813V-1.625c0 .95313-.0625.98438-1.40625 1.09375V0h4.57812v-.53125C9.96875-.64062 9.89063-.67187 9.89063-1.625v-4.78125c0-1.89062-1.03125-2.98437-2.75-2.98437-1.39063 0-2.25.67187-3.39063 1.42187l-.26562-1.42187-2.78125.46875v.46875l.6875.09375c.48437.07812.625.15625.625.82812V-1.625c0 .95313-.0625.98438-1.42188 1.09375Zm0 0"/><path id="x" d="M.92188-4.40625c0 2.78125 1.45312 4.625 3.92187 4.625 1.01563 0 1.85938-.45312 2.875-1.28125v.92188L7.89063 0h3.01562v-.53125C9.57813-.64062 9.51563-.67187 9.51563-1.625v-12.15625L9.375-13.875l-2.9375.45313v.48437l.70313.0625c.48437.0625.60937.15625.60937.875v3.0625c-.53125-.28125-1.21875-.45312-2.07812-.45312-1.53125 0-2.6875.5-3.46875 1.28125C1.40625-7.26562.92188-6.03125.92188-4.40625m1.9375-.21875c0-2.42187.89062-4.10937 2.79687-4.10937.875 0 1.59375.39062 1.92188 1.17187C7.75-7.25 7.75-6.96875 7.75-6.46875v3.28125c0 .42188 0 .73438-.125 1.0625-.375.96875-1.1875 1.34375-2.17187 1.34375-1.70313 0-2.59375-1.6875-2.59375-3.84375m0 0"/><path id="y" d="M.92188-4.51562c0 2.96875 1.26562 4.73437 4.3125 4.73437C7.3125.21875 8.375-.9375 8.875-2.40625l-.54687-.29687C7.79688-1.60937 7.09375-.73437 5.60938-.73437c-2.32813 0-2.78125-2.23438-2.75-4.1875h5.40625c.39062 0 .73437-.09375.73437-.71875 0-1.09375-.35937-3.75-3.78125-3.75-2.92187 0-4.29687 2.0625-4.29687 4.875m1.96875-1.125c0-.76563.28125-3.09375 2.21875-3.09375 1.73437 0 1.9375 1.76562 1.9375 2.5 0 .35937-.125.59375-.64063.59375Zm0 0"/><path id="A" d="m.875-3.125.20313 2.45313c.67187.59375 1.8125.89062 2.90625.89062 2.21875 0 3.5-1.17187 3.5-2.76562 0-1.65625-1.01563-2.39063-2.95313-2.98438-.76562-.23437-1.98437-.64062-1.98437-1.6875 0-.98437.73437-1.51562 1.67187-1.51562 1.32813 0 1.96875 1.03125 2.10938 2.17187H6.875v-2.20312c-.625-.45313-1.57812-.625-2.42187-.625-2.03125 0-3.39063.95312-3.39063 2.71875 0 1.5625 1.26563 2.25 2.8125 2.73437.84375.25 2.01563.67188 2.01563 1.95313 0 .95312-.73438 1.54687-1.73438 1.54687-1.51562 0-2.35937-1.09375-2.75-2.6875Zm0 0"/><path id="B" d="M.375 0h4.5625v-.53125C3.60938-.64062 3.54688-.67187 3.54688-1.625v-12.15625l-.14063-.09375-2.92187.45313v.48437l.6875.0625c.48437.0625.59375.15625.59375.875v10.375c0 .95313-.03126.98438-1.39063 1.09375Zm0 0"/><path id="D" d="M2.29688-12.71875c0 .39063.46875.71875 1.03125 1.01563L6.15625-10.125l.28125-.39062-2.21875-2.25c-.5625-.57813-.89062-.76563-1.21875-.76563-.26562 0-.70312.4375-.70312.8125M.48438-8.45312l.70312.09375c.48438.07812.60938.15625.60938.82812v4.9375c0 2.15625 1.26562 2.8125 2.65625 2.8125 1.59375 0 2.89062-1.07812 3.4375-1.32812L8.0625 0h3v-.53125C9.78125-.64062 9.65625-.67187 9.65625-1.625v-7.65625l-.14062-.10937-2.92188.46875v.46875l.71875.09375c.46875.07812.59375.15625.59375.82812v4.23438c0 .51562-.0625.92187-.15625 1.10937-.4375.85938-1.3125 1.40625-2.29687 1.40625-1.09375 0-1.89063-.6875-1.89063-2.14062v-6.35938l-.14062-.10937-2.9375.46875Zm0 0"/><clipPath id="a"><path d="M0 75h389v388.48047H0Zm0 0"/></clipPath></defs><path fill="#E5F2F2" stroke="#000" stroke-miterlimit="10" stroke-width=".1991" d="M334.60541 181.8828c-9.16796-51.99607-86.85153-81.76168-173.51556-66.48044C74.42973 130.68361 11.60944 185.22265 20.7774 237.21872c9.16797 51.99608 86.85153 81.7617 173.51556 66.48045 86.66013-15.28125 149.48042-69.81638 140.31245-121.81636Zm0 0"/><g clip-path="url(#a)"><path fill="none" stroke="#000" stroke-miterlimit="10" stroke-width=".39821" d="M382.59758 272.0859c0-105.59762-85.60153-191.19915-191.19915-191.19915C85.80082 80.88675.19538 166.48828.19538 272.0859c0 105.59761 85.60544 191.19915 191.20305 191.19915 105.59762 0 191.19915-85.60154 191.19915-191.19915Zm0 0"/></g><path fill="#E5F2F2" stroke="#000" stroke-miterlimit="10" stroke-width=".1991" d="M500.68347 112.62502c-15.27733-12.8203-43.56248-4.26953-63.17185 19.09765-19.60936 23.37108-23.11718 52.70701-7.83593 65.52732 15.27734 12.82421 43.55858 4.27343 63.16794-19.09765 19.60937-23.36718 23.12109-52.7031 7.83984-65.52732Zm0 0"/><use xlink:href="#b" x="481.35412" y="129.36137"/><use xlink:href="#c" x="486.45038" y="132.05939"/><use xlink:href="#d" x="492.17417" y="129.36137"/><use xlink:href="#b" x="436.2263" y="144.02559"/><use xlink:href="#e" x="441.32255" y="146.72361"/><use xlink:href="#d" x="447.04635" y="144.02559"/><use xlink:href="#b" x="436.2263" y="191.41975"/><use xlink:href="#f" x="441.32255" y="194.11776"/><use xlink:href="#d" x="447.04635" y="191.41975"/><use xlink:href="#b" x="481.35412" y="206.19289"/><use xlink:href="#g" x="486.45038" y="208.78298"/><use xlink:href="#d" x="492.17417" y="206.19289"/><use xlink:href="#b" x="509.24462" y="167.75015"/><use xlink:href="#h" x="514.34087" y="170.33825"/><use xlink:href="#d" x="520.06666" y="167.75015"/><path fill="none" stroke="#000" stroke-miterlimit="10" stroke-width=".39821" d="M541.92955 165.86328c0-35.1992-28.53124-63.73435-63.73044-63.73435s-63.73435 28.53515-63.73435 63.73435 28.53514 63.73435 63.73435 63.73435c35.1992 0 63.73044-28.53514 63.73044-63.73435Zm0 0"/><use xlink:href="#i" x="471.1856" y="172.28482"/><path fill="#CCE5E5" stroke="#CCE5E5" stroke-miterlimit="10" stroke-width=".39821" d="M216.89061 165.86328c0-25.81249-20.92577-46.73826-46.73826-46.73826-25.8125 0-46.73827 20.92577-46.73827 46.73826 0 25.8125 20.92578 46.73827 46.73827 46.73827s46.73826-20.92578 46.73826-46.73827Zm0 0"/><path fill="none" stroke="#000" stroke-miterlimit="10" stroke-width=".1991" d="M170.15235 165.86328C213.40233 47.0313 447.38662.15241 490.5702 118.7969"/><path fill="none" stroke="#000" stroke-linecap="round" stroke-linejoin="round" stroke-miterlimit="10" stroke-width=".1991" d="M491.88281 116.47266c-1.02734.73046-1.3125 1.6289-1.27734 2.41406-.48047-.625-1.27735-1.1289-2.53516-1.02734"/><path fill="#CCE5E5" stroke="#CCE5E5" stroke-miterlimit="10" stroke-width=".39821" d="M323.11323 208.35155c0-25.8125-20.92577-46.73827-46.73827-46.73827s-46.73826 20.92578-46.73826 46.73827 20.92577 46.73826 46.73826 46.73826c25.8125 0 46.73827-20.92577 46.73827-46.73826Zm0 0"/><path fill="none" stroke="#000" stroke-miterlimit="10" stroke-width=".1991" d="M276.37496 208.35155c24.67187-67.78513 144.4687-142.49214 169.07025-74.8945"/><path fill="none" stroke="#000" stroke-linecap="round" stroke-linejoin="round" stroke-miterlimit="10" stroke-width=".1991" d="M446.76172 131.13672c-1.03125.73047-1.3164 1.6289-1.28125 2.41406-.48047-.625-1.27344-1.1289-2.53516-1.02734"/><path fill="#CCE5E5" stroke="#CCE5E5" stroke-miterlimit="10" stroke-width=".39821" d="M142.53517 240.21872c0-25.81249-20.92577-46.73826-46.73826-46.73826-25.8125 0-46.73827 20.92577-46.73827 46.73826 0 25.8125 20.92578 46.73827 46.73827 46.73827s46.73826-20.92578 46.73826-46.73827Zm0 0"/><path fill="none" stroke="#000" stroke-miterlimit="10" stroke-width=".1991" d="M95.7969 240.21872c47.3828-130.17964 302.33583-189.31243 349.64831-59.31638"/><path fill="none" stroke="#000" stroke-linecap="round" stroke-linejoin="round" stroke-miterlimit="10" stroke-width=".1991" d="M446.76172 178.58203c-1.03125.73047-1.3164 1.625-1.28125 2.41406-.48047-.625-1.27344-1.1289-2.53516-1.02734"/><path fill="none" stroke="#000" stroke-dasharray="2.9866182658000002 2.9866182658000002" stroke-miterlimit="10" stroke-width=".39821" d="M216.89061 165.86328c0-25.81249-20.92577-46.73826-46.73826-46.73826-25.8125 0-46.73827 20.92577-46.73827 46.73826 0 25.8125 20.92578 46.73827 46.73827 46.73827s46.73826-20.92578 46.73826-46.73827Zm0 0"/><use xlink:href="#b" x="168.79091" y="137.67726"/><use xlink:href="#c" x="173.88716" y="140.37527"/><use xlink:href="#j" x="179.61096" y="137.67726"/><use xlink:href="#c" x="185.48464" y="140.37527"/><use xlink:href="#b" x="133.1631" y="149.25375"/><use xlink:href="#c" x="138.25936" y="151.95176"/><use xlink:href="#j" x="143.98315" y="149.25375"/><use xlink:href="#e" x="149.85683" y="151.95176"/><use xlink:href="#b" x="133.1631" y="186.65925"/><use xlink:href="#c" x="138.25936" y="189.35726"/><use xlink:href="#j" x="143.98315" y="186.65925"/><use xlink:href="#f" x="149.85683" y="189.35726"/><use xlink:href="#b" x="168.79091" y="198.2907"/><use xlink:href="#c" x="173.88716" y="200.98871"/><use xlink:href="#j" x="179.61096" y="198.2907"/><use xlink:href="#g" x="185.48464" y="200.87879"/><use xlink:href="#b" x="190.80972" y="167.98398"/><use xlink:href="#c" x="195.90598" y="170.68199"/><use xlink:href="#j" x="201.62977" y="167.98398"/><use xlink:href="#h" x="207.50345" y="170.57208"/><path fill="none" stroke="#000" stroke-dasharray="2.9866182658000002 2.9866182658000002" stroke-miterlimit="10" stroke-width=".39821" d="M323.11323 208.35155c0-25.8125-20.92577-46.73827-46.73827-46.73827s-46.73826 20.92578-46.73826 46.73827 20.92577 46.73826 46.73826 46.73826c25.8125 0 46.73827-20.92577 46.73827-46.73826Zm0 0"/><use xlink:href="#b" x="275.01182" y="180.16602"/><use xlink:href="#e" x="280.10807" y="182.86404"/><use xlink:href="#j" x="285.83187" y="180.16602"/><use xlink:href="#c" x="291.70555" y="182.86404"/><use xlink:href="#b" x="239.38401" y="191.74251"/><use xlink:href="#e" x="244.48027" y="194.44053"/><use xlink:href="#j" x="250.20406" y="191.74251"/><use xlink:href="#e" x="256.07774" y="194.44053"/><use xlink:href="#b" x="239.38401" y="229.14801"/><use xlink:href="#e" x="244.48027" y="231.84603"/><use xlink:href="#j" x="250.20406" y="229.14801"/><use xlink:href="#f" x="256.07774" y="231.84603"/><use xlink:href="#b" x="275.01182" y="240.77846"/><use xlink:href="#e" x="280.10807" y="243.47648"/><use xlink:href="#j" x="285.83187" y="240.77846"/><use xlink:href="#g" x="291.70555" y="243.36856"/><use xlink:href="#b" x="297.03063" y="210.47274"/><use xlink:href="#e" x="302.12689" y="213.17076"/><use xlink:href="#j" x="307.85268" y="210.47274"/><use xlink:href="#h" x="313.72636" y="213.06084"/><path fill="none" stroke="#000" stroke-dasharray="2.9866182658000002 2.9866182658000002" stroke-miterlimit="10" stroke-width=".39821" d="M142.53517 240.21872c0-25.81249-20.92577-46.73826-46.73826-46.73826-25.8125 0-46.73827 20.92577-46.73827 46.73826 0 25.8125 20.92578 46.73827 46.73827 46.73827s46.73826-20.92578 46.73826-46.73827Zm0 0"/><use xlink:href="#b" x="94.43557" y="211.97763"/><use xlink:href="#f" x="99.53383" y="214.67565"/><use xlink:href="#j" x="105.25762" y="211.97763"/><use xlink:href="#c" x="111.1313" y="214.67565"/><use xlink:href="#b" x="58.80777" y="223.55412"/><use xlink:href="#f" x="63.90602" y="226.25214"/><use xlink:href="#j" x="69.62981" y="223.55412"/><use xlink:href="#e" x="75.50349" y="226.25214"/><use xlink:href="#b" x="58.80777" y="261.01458"/><use xlink:href="#f" x="63.90602" y="263.7106"/><use xlink:href="#j" x="69.62981" y="261.01458"/><use xlink:href="#f" x="75.50349" y="263.7106"/><use xlink:href="#b" x="94.43557" y="272.59007"/><use xlink:href="#f" x="99.53383" y="275.28809"/><use xlink:href="#j" x="105.25762" y="272.59007"/><use xlink:href="#g" x="111.1313" y="275.18017"/><use xlink:href="#b" x="116.45439" y="242.28435"/><use xlink:href="#f" x="121.55264" y="244.98237"/><use xlink:href="#j" x="127.27643" y="242.28435"/><use xlink:href="#h" x="133.15011" y="244.87245"/><path fill="none" stroke="#000" stroke-dasharray="2.9866182658000002 2.9866182658000002" stroke-miterlimit="10" stroke-width=".39821" d="M312.49214 346.44134c0-25.8125-20.92577-46.73827-46.73827-46.73827s-46.73826 20.92578-46.73826 46.73827 20.92577 46.73826 46.73826 46.73826c25.8125 0 46.73827-20.92577 46.73827-46.73826Zm0 0"/><use xlink:href="#b" x="264.38963" y="318.2535"/><use xlink:href="#g" x="269.48588" y="320.8416"/><use xlink:href="#j" x="275.21167" y="318.2535"/><use xlink:href="#c" x="281.08336" y="320.95152"/><use xlink:href="#b" x="228.76182" y="329.82999"/><use xlink:href="#g" x="233.85808" y="332.41809"/><use xlink:href="#j" x="239.58187" y="329.82999"/><use xlink:href="#e" x="245.45555" y="332.52801"/><use xlink:href="#b" x="228.76182" y="367.23549"/><use xlink:href="#g" x="233.85808" y="369.82359"/><use xlink:href="#j" x="239.58187" y="367.23549"/><use xlink:href="#f" x="245.45555" y="369.93351"/><use xlink:href="#b" x="264.38963" y="378.9209"/><use xlink:href="#g" x="269.48588" y="381.509"/><use xlink:href="#j" x="275.21167" y="378.9209"/><use xlink:href="#g" x="281.08336" y="381.509"/><use xlink:href="#b" x="286.40844" y="348.56022"/><use xlink:href="#g" x="291.5047" y="351.14832"/><use xlink:href="#j" x="297.23049" y="348.56022"/><use xlink:href="#h" x="303.10417" y="351.14832"/><path fill="none" stroke="#000" stroke-dasharray="2.9866182658000002 2.9866182658000002" stroke-miterlimit="10" stroke-width=".39821" d="M185.02344 378.30851c0-25.81249-20.92578-46.73826-46.73827-46.73826s-46.73826 20.92577-46.73826 46.73826c0 25.8125 20.92577 46.73827 46.73826 46.73827 25.8125 0 46.73827-20.92578 46.73827-46.73827Zm0 0"/><use xlink:href="#b" x="136.92434" y="350.12008"/><use xlink:href="#h" x="142.02059" y="352.70817"/><use xlink:href="#j" x="147.74638" y="350.12008"/><use xlink:href="#c" x="153.62006" y="352.81809"/><use xlink:href="#b" x="101.29653" y="361.69657"/><use xlink:href="#h" x="106.39278" y="364.28466"/><use xlink:href="#j" x="112.11657" y="361.69657"/><use xlink:href="#e" x="117.99026" y="364.39458"/><use xlink:href="#b" x="101.29653" y="399.10107"/><use xlink:href="#h" x="106.39278" y="401.69116"/><use xlink:href="#j" x="112.11657" y="399.10107"/><use xlink:href="#f" x="117.99026" y="401.79908"/><use xlink:href="#b" x="136.92434" y="410.73252"/><use xlink:href="#h" x="142.02059" y="413.32061"/><use xlink:href="#j" x="147.74638" y="410.73252"/><use xlink:href="#g" x="153.62006" y="413.32061"/><use xlink:href="#b" x="158.94315" y="380.4258"/><use xlink:href="#h" x="164.0394" y="383.01589"/><use xlink:href="#j" x="169.76519" y="380.4258"/><use xlink:href="#h" x="175.63888" y="383.01589"/><use xlink:href="#k" x="360.35908" y="83.39516"/><use xlink:href="#l" x="371.54885" y="87.77594"/><use xlink:href="#k" x="171.23611" y="277.78226"/><use xlink:href="#m" x="183.97875" y="269.81811"/><use xlink:href="#n" x="193.40046" y="269.81811"/><use xlink:href="#l" x="182.42589" y="283.25823"/><use xlink:href="#o" x="201.66174" y="277.78226"/><use xlink:href="#i" x="209.30743" y="277.78226"/><use xlink:href="#p" x="225.1563" y="277.78226"/><use xlink:href="#q" x="409.66483" y="413.52746"/><use xlink:href="#r" x="420.21747" y="413.52746"/><use xlink:href="#s" x="429.99359" y="413.52746"/><use xlink:href="#t" x="437.42026" y="413.52746"/><use xlink:href="#u" x="443.8514" y="413.52746"/><use xlink:href="#t" x="449.28701" y="413.52746"/><use xlink:href="#u" x="455.71814" y="413.52746"/><use xlink:href="#v" x="461.15375" y="413.52746"/><use xlink:href="#w" x="471.94532" y="413.52746"/><use xlink:href="#x" x="487.71455" y="413.52746"/><use xlink:href="#y" x="498.90433" y="413.52746"/><use xlink:href="#z" x="512.72106" y="413.52746"/><use xlink:href="#A" x="530.44204" y="413.52746"/><use xlink:href="#y" x="538.58549" y="413.52746"/><use xlink:href="#B" x="548.20233" y="413.52746"/><use xlink:href="#v" x="553.41892" y="413.52746"/><use xlink:href="#w" x="564.21048" y="413.52746"/><use xlink:href="#C" x="579.97962" y="413.52746"/><use xlink:href="#v" x="409.66483" y="437.4199"/><use xlink:href="#D" x="420.4564" y="437.4199"/><use xlink:href="#E" x="435.98548" y="437.4199"/><use xlink:href="#C" x="452.51131" y="437.4199"/><use xlink:href="#F" x="469.83357" y="437.4199"/><use xlink:href="#G" x="490.32162" y="437.4199"/><use xlink:href="#E" x="532.93039" y="437.4199"/><use xlink:href="#m" x="545.60689" y="429.45575"/><use xlink:href="#n" x="555.02861" y="429.45575"/><use xlink:href="#F" x="563.28989" y="437.4199"/><use xlink:href="#H" x="580.13429" y="437.4199"/><use xlink:href="#I" x="595.10709" y="437.4199"/><use xlink:href="#z" x="564.66388" y="213.62842"/><use xlink:href="#J" x="579.01945" y="213.62842"/><use xlink:href="#I" x="588.8354" y="213.62842"/></svg>