<svg xmlns="http://www.w3.org/2000/svg" xmlns:xlink="http://www.w3.org/1999/xlink" width="478.84pt" height="396.311pt" viewBox="0 0 478.84 396.311"><defs><path id="b" d="M.59375-.73437c0 .53125.4375.95312 1.20313.95312 1.26562 0 1.98437-1.26562 2.76562-2.53125l.75-1.23437h.03125L5.6875-2.0625C6.04688-.57812 6.39063.21875 7.34375.21875c1.375 0 2.07813-1.40625 2.64063-2.54687l-.48438-.25C9.04688-1.75 8.53125-.75 8.01563-.75c-.35938 0-.5-.42187-.92188-2.09375L6.5-5.29687c.6875-1.1875 1.64063-2.67188 2.17188-2.67188.5625 0 .57812.29688 1.14062.29688.40625 0 .79688-.40625.79688-.90625 0-.57813-.4375-.8125-.96875-.8125-.98438 0-1.82813.89062-2.48438 1.95312l-.8125 1.26563H6.3125L5.54688-9.3125l-.09375-.07812-3.09375.9375L2.40625-8 3.875-8.09375c.29688 0 .4375.14063.625.9375l.65625 2.70313-.51562.89062c-.79688 1.375-1.5 2.34375-1.95313 2.34375-.54687 0-.67187-.45312-1.28125-.45312-.46875 0-.8125.48437-.8125.9375m0 0"/><path id="d" d="M0 3.5c0 .5.5625 1.01563 1.375 1.01563 1.59375 0 2.26563-1.17188 3.92188-4.01563.375-.64062 1.5-2.60937 2.65625-4.51562 1.07812-1.75 2.25-3.5625 2.25-4.3125 0-.65625-.20313-1.0625-.34375-1.0625-.35938 0-.98438.15625-1.46875.48437 0 0-.0625 1.90625-.23438 2.5625-.29687 1.04688-1.39062 3.07813-2.625 5.20313h-.0625c-.14062-2.85938-.5-6.79688-.75-8.17188l-.14062-.07812L1.4375-8.5l.04688.48438 1.29687-.04688c.375 0 .45313.32813.625 1.28125.1875 1.45313.60938 5.04688.60938 6.54688 0 .54687-.01563 1.3125-.4375 2.29687-.34375.78125-.8125 1.34375-1.1875 1.34375-.6875 0-.76563-1.04687-1.4375-1.04687C.48438 2.35938 0 2.96875 0 3.5m0 0"/><path id="e" d="M2.46875 3.73438H3.5625v-18.01563H2.46875Zm0 0"/><path id="f" d="M2.03125 0h6.14063v-.53125l-1.5625-.14062c-.40625-.04688-.625-.1875-.625-.92188v-11.01562l-.09375-.09375-3.85938.65625v.45312l1.75.21875c.3125.03125.4375.17188.4375.71875v9.0625c0 .73438-.1875.875-.625.92188l-1.5625.14062Zm0 0"/><path id="g" d="M1.59375-4.73437H11.875v-1.09375H1.59375Zm0 0"/><path id="h" d="M1.39063-2.01562C1.39063-.375 2.25.21875 3.15625.21875 4.71875.21875 6.60938-1.23437 8-3.5625h.0625L6.20313 4.51563l1.75-.35938 3.32812-13.98437h-.71875l-.79687.85937c-.29688-.15625-.95313-.42187-1.82813-.42187-4.65625 0-6.54687 4.8125-6.54687 7.375m1.84375-.29688c0-1.82812 1.625-6.42187 4.71875-6.42187.59375 0 1.01562.20312 1.29687.40625C8.79688-6.1875 8-4.28125 6.98438-2.92187 5.95313-1.57812 4.90625-.75 4.14063-.75c-.67188 0-.90625-.6875-.90625-1.5625m0 0"/><path id="m" d="M1.6875-5.26562c0 2.14062 1.57813 3.71875 3.75 3.71875 2.07813 0 3.65625-1.57813 3.65625-3.71875 0-2.09375-1.57812-3.67188-3.65625-3.67188-2.17187 0-3.75 1.57813-3.75 3.67188m0 0"/><path id="n" d="M2.1875-.85937c0 .65625.3125 1.07812 1.07813 1.07812 1.34375 0 2.39062-1.26562 3.01562-2.6875l-.45312-.25C5.48438-2.0625 4.67188-.75 4.15625-.75c-.21875 0-.29687-.14062-.29687-.39062 0-.17188.04687-.39063.09375-.625L6-9.28125l-.09375-.10937L2.5-8.875l-.10937.46875 1.07812.09375c.32813.01563.46875.125.46875.375 0 .125-.01562.28125-.07812.48438L2.28125-1.60937c-.07812.28124-.09375.51562-.09375.75m2.40625-11.28125c0 .70312.48438 1.0625 1.03125 1.0625.73438 0 1.20313-.5 1.20313-1.25 0-.73438-.5-1.03125-1.01563-1.03125-.79687 0-1.21875.625-1.21875 1.21875m0 0"/><path id="o" d="M.75-2.82812c0 1.5625.73438 2.6875 3.17188 2.98437.71875.125 1.54687.15625 1.54687.64063C5.46875 1.82813 4.4375 2.625 4 3.0625l.23438.35938c.92187-.5625 2.78125-1.95313 2.78125-3.5 0-.84375-.57813-1.01563-2.14063-1.35938-1.5-.3125-2.48437-1.1875-2.48437-2.46875 0-.98437.57812-3.45312 3.5625-3.45312.39062 0 .60937.125.89062.125.35938 0 .53125-.26563.53125-.71875 0-.21875-.09375-.29688-.3125-.29688-.40625 0-.40625.10938-.95312.10938-1.0625 0-1.28125-.67188-1.28125-1.28125 0-1.01563.35937-1.79688 1.375-2.45313.26562.0625.59375.07813.875.07813.85937 0 1.79687-.15625 1.79687-1.17188 0-.15625-.125-.26562-.51562-.26562-.79688 0-1.42188.09375-2.48438.82812-.625-.40625-.96875-.54687-.96875-.84375 0-.15625.0625-.29687.21875-.51562l-.29687-.14063c-.625.20313-1.1875.4375-1.1875.875 0 .48438.64062.67188 1.73437 1-1.28125.9375-2.07812 1.48438-2.07812 2.5 0 .6875.48437 1.45313 2.10937 1.75C1.10938-6.84375.75-5.09375.75-2.82812m0 0"/><path id="i" d="m.46875 4.45313.96875.5L9.75-11.03125l-.96875-.5Zm0 0"/><path id="j" d="M1.98438-2.17187C1.25-.78125 1.375.5625 3.40625 1.95313c.57813.4375 1.29688.85937 1.0625 1.28125C4 4.15625 2.71875 4.375 2.14063 4.5625l.03125.42188c1.09375-.07813 3.375-.45313 4.07812-1.8125C6.64063 2.42188 6.20313 2 4.98438.96875 3.8125.01563 3.34375-1.21875 3.92188-2.35937c.46875-.875 2.10937-2.79688 4.75-1.42188.34375.17188.5.39063.75.51563.3125.17187.59375.01562.79687-.375.09375-.20313.04688-.3125-.14062-.40625-.35938-.1875-.40625-.09375-.89063-.34375-.9375-.5-.84375-1.1875-.5625-1.73438.46875-.90625 1.15625-1.4375 2.35938-1.54687.20312.17187.5.34375.75.46875.76562.40625 1.65625.6875 2.125-.20313.07812-.14062.01562-.28125-.32813-.46875-.71875-.375-1.3125-.57812-2.57812-.40625-.375-.65625-.60938-.9375-.46875-1.20312.0625-.14063.17187-.23438.42187-.35938l-.20312-.25c-.64063-.125-1.25-.17187-1.45313.21875-.21875.4375.25.89063 1.07813 1.6875-1.57813.23438-2.53125.34375-3 1.25C7-6.32812 7.09375-5.42187 8.39063-4.40625c-4.25-1.15625-5.35938.23438-6.40625 2.23438m0 0"/><path id="k" d="m3.59375-3.46875 9.125 4.75.5-.96875-9.125-4.75Zm0 0"/><path id="l" d="M2.17188-1.14062c-.76563 1.45312-.26563 2.35937.53125 2.78125 1.39062.71875 3.71875.3125 6.03125-1.10938l.0625.03125-5.375 6.29688 1.70312.5 9.40625-10.875-.625-.32813-1.10937.40625c-.17188-.28125-.64063-.82812-1.40625-1.21875C7.25-6.8125 3.34375-3.42187 2.17188-1.14062m1.76562.59375c.84375-1.625 4.40625-4.95313 7.14063-3.53125.53125.28125.8125.65625.96875.95312C10.65625-1.42187 9.07813-.10937 7.53125.625c-1.51562.71875-2.82812.96875-3.51562.60938C3.42188.9375 3.53125.21874 3.9375-.54687m0 0"/><clipPath id="a"><path d="M.33594 225H454v1H.33594Zm0 0"/></clipPath><clipPath id="c"><path d="M170 27h1v368.625h-1Zm0 0"/></clipPath></defs><g clip-path="url(#a)"><path fill="none" stroke="#000" stroke-miterlimit="10" stroke-width=".39781" d="M.53133 225.64062H452.8944"/></g><path fill="none" stroke="#000" stroke-linecap="round" stroke-linejoin="round" stroke-miterlimit="10" stroke-width=".39781" d="M451.02734 223.2539c.37891 1.4336 1.21875 2.10938 2.06641 2.38672-.84766.27735-1.6875.95313-2.0664 2.38672"/><use xlink:href="#b" x="460.31796" y="230.22574"/><g clip-path="url(#c)"><path fill="none" stroke="#000" stroke-miterlimit="10" stroke-width=".39781" d="M170.3164 395.4257V27.95713"/></g><path fill="none" stroke="#000" stroke-linecap="round" stroke-linejoin="round" stroke-miterlimit="10" stroke-width=".39781" d="M167.92969 29.82422c1.4336-.3789 2.10937-1.21875 2.38672-2.0664.28125.84765.95703 1.6875 2.38671 2.0664"/><use xlink:href="#d" x="164.63901" y="16.01715"/><path fill="none" stroke="#FF7F00" stroke-miterlimit="10" stroke-width=".79562" d="M283.50776 225.64062H396.6991"/><g fill="#FF7F00"><use xlink:href="#e" x="313.38042" y="247.34698"/><use xlink:href="#f" x="319.4073" y="247.34698"/></g><use xlink:href="#g" x="332.05778" y="247.34698" fill="#FF7F00"/><use xlink:href="#h" x="348.2687" y="247.34698" fill="#FF7F00"/><use xlink:href="#e" x="360.77995" y="247.34698" fill="#FF7F00"/><path fill="none" stroke="#007F7F" stroke-miterlimit="10" stroke-width=".79562" d="m250.35543 145.6016 146.34368 80.03902"/><g fill="#007F7F"><use xlink:href="#i" x="310.53337" y="168.72367"/><use xlink:href="#j" x="315.879" y="171.50637"/></g><use xlink:href="#k" x="327.22303" y="177.41157" fill="#007F7F"/><use xlink:href="#l" x="341.60155" y="184.8964" fill="#007F7F"/><use xlink:href="#i" x="352.69859" y="190.67303" fill="#007F7F"/><use xlink:href="#m" x="164.93749" y="116.91773"/><use xlink:href="#n" x="177.34492" y="105.2061"/><use xlink:href="#m" x="278.12671" y="230.10595"/><use xlink:href="#f" x="290.53414" y="245.3784"/><path fill="none" stroke="#000" stroke-miterlimit="10" stroke-width=".39781" d="M283.50776 225.64062c0-62.51559-50.67576-113.19135-113.19135-113.19135-62.5117 0-113.18745 50.67576-113.18745 113.19135s50.67576 113.19136 113.18745 113.19136c62.5156 0 113.19135-50.67576 113.19135-113.19136Zm0 0"/><use xlink:href="#m" x="391.31592" y="230.10595"/><use xlink:href="#h" x="390.56024" y="242.49442"/><use xlink:href="#m" x="244.97434" y="150.0691"/><use xlink:href="#o" x="257.38177" y="135.15503"/></svg>