<svg xmlns="http://www.w3.org/2000/svg" xmlns:xlink="http://www.w3.org/1999/xlink" width="365.454pt" height="367.965pt" viewBox="0 0 365.454 367.965"><defs><path id="a" d="M.59375-.73437c0 .53125.4375.95312 1.20313.95312 1.26562 0 1.98437-1.26562 2.76562-2.53125l.75-1.23437h.03125L5.6875-2.0625C6.04688-.57812 6.39063.21875 7.34375.21875c1.375 0 2.07813-1.40625 2.64063-2.54687l-.48438-.25C9.04688-1.75 8.53125-.75 8.01563-.75c-.35938 0-.5-.42187-.92188-2.09375L6.5-5.29687c.6875-1.1875 1.64063-2.67188 2.17188-2.67188.5625 0 .57812.29688 1.14062.29688.40625 0 .79688-.40625.79688-.90625 0-.57813-.4375-.8125-.96875-.8125-.98438 0-1.82813.89062-2.48438 1.95312l-.8125 1.26563H6.3125L5.54688-9.3125l-.09375-.07812-3.09375.9375L2.40625-8 3.875-8.09375c.29688 0 .4375.14063.625.9375l.65625 2.70313-.51562.89062c-.79688 1.375-1.5 2.34375-1.95313 2.34375-.54687 0-.67187-.45312-1.28125-.45312-.46875 0-.8125.48437-.8125.9375m0 0"/><path id="c" d="M0 3.5c0 .5.5625 1.01563 1.375 1.01563 1.59375 0 2.26563-1.17188 3.92188-4.01563.375-.64062 1.5-2.60937 2.65625-4.51562 1.07812-1.75 2.25-3.5625 2.25-4.3125 0-.65625-.20313-1.0625-.34375-1.0625-.35938 0-.98438.15625-1.46875.48437 0 0-.0625 1.90625-.23438 2.5625-.29687 1.04688-1.39062 3.07813-2.625 5.20313h-.0625c-.14062-2.85938-.5-6.79688-.75-8.17188l-.14062-.07812L1.4375-8.5l.04688.48438 1.29687-.04688c.375 0 .45313.32813.625 1.28125.1875 1.45313.60938 5.04688.60938 6.54688 0 .54687-.01563 1.3125-.4375 2.29687-.34375.78125-.8125 1.34375-1.1875 1.34375-.6875 0-.76563-1.04687-1.4375-1.04687C.48438 2.35938 0 2.96875 0 3.5m0 0"/><path id="d" d="M1.6875-5.26562c0 2.14062 1.57813 3.71875 3.75 3.71875 2.07813 0 3.65625-1.57813 3.65625-3.71875 0-2.09375-1.57812-3.67188-3.65625-3.67188-2.17187 0-3.75 1.57813-3.75 3.67188m0 0"/><path id="g" d="M1.59375-4.73437H11.875v-1.09375H1.59375Zm0 0"/><path id="e" d="M.9375-1.40625c0 .78125.35938 1.5625 1.26563 1.5625 1.4375 0 2.59375-1.60937 3.34375-2.90625h.01562l-.39062 1.40625q-.14063.42188-.14063.75c0 .5.25.75.76563.75 1.04687 0 1.79687-.92187 2.28125-1.9375l-.34375-.20312c-.26563.5-.8125 1.375-1.15625 1.375-.15625 0-.20313-.09376-.20313-.25 0-.10938.03125-.28126.07813-.45313L7.8125-6.45312H6.54688l-.0625.14062c-.21875-.14062-.60938-.26562-.95313-.26562-3.125 0-4.59375 3.45312-4.59375 5.17187m1.46875-.04687c0-1.42188 1.25-4.60938 3.17188-4.60938.3125 0 .5625.09375.75.25-.23438.96875-.6875 2.26563-1.375 3.3125C4.25-1.42187 3.5-.60937 2.92188-.60937c-.40625 0-.51563-.35938-.51563-.84375m0 0"/><path id="f" d="M.375-.15625.53125 0H6.0625l.48438-1.85937-.39063-.07813c-.3125.70313-.54687.79688-1.07812.79688H1.73438c.21874-.625.90625-1.5 2.17187-2.35938C5.23438-4.39062 6.1875-5 6.1875-6.4375c0-1.8125-1.25-2.45312-2.6875-2.45312-1.78125 0-2.79687 1.03125-2.79687 1.8125 0 .48437.53125.70312.8125.70312.25 0 .375-.14062.4375-.39062.20312-.92188.6875-1.64063 1.45312-1.64063.92188 0 1.21875.79688 1.21875 1.73438 0 1.26562-.57812 2.10937-1.79687 3.15625C1.15625-2.07812.57813-1.125.375-.15625m0 0"/><clipPath id="b"><path d="M169 28h2v339.67188h-2Zm0 0"/></clipPath></defs><path fill="none" stroke="#000" stroke-miterlimit="10" stroke-width=".39791" d="M.19535 197.64844h339.25774"/><path fill="none" stroke="#000" stroke-linecap="round" stroke-linejoin="round" stroke-miterlimit="10" stroke-width=".39791" d="M337.58203 195.26172c.3789 1.4336 1.22266 2.10937 2.07031 2.38672-.84765.27734-1.6914.95703-2.0703 2.38672"/><use xlink:href="#a" x="346.87775" y="202.23523"/><g clip-path="url(#b)"><path fill="none" stroke="#000" stroke-miterlimit="10" stroke-width=".39791" d="M170.02344 367.47653V28.21878"/></g><path fill="none" stroke="#000" stroke-linecap="round" stroke-linejoin="round" stroke-miterlimit="10" stroke-width=".39791" d="M167.63672 30.08984c1.4336-.3789 2.10937-1.21875 2.38672-2.0703.27734.85155.95703 1.6914 2.38672 2.0703"/><use xlink:href="#c" x="164.34347" y="16.27905"/><path fill="none" stroke="#000" stroke-miterlimit="10" stroke-width=".39791" d="M.19535 84.42971h339.65618M.19535 310.86717h339.65618"/><path fill="#B2B2FF" fill-opacity=".3" d="M.19531 310.86719V84.42969h339.65625v226.4375Zm0 0"/><use xlink:href="#d" x="164.64202" y="88.89956"/><use xlink:href="#e" x="179.44091" y="62.40214"/><path fill="none" stroke="#000" stroke-miterlimit="10" stroke-width="1.09437" d="M179.4414 65.1289h8.50782"/><use xlink:href="#f" x="180.16583" y="77.40373"/><use xlink:href="#d" x="164.64202" y="315.33226"/><use xlink:href="#g" x="177.05248" y="332.46666"/><use xlink:href="#e" x="192.89082" y="324.46861"/><path fill="none" stroke="#000" stroke-miterlimit="10" stroke-width="1.09437" d="M192.89063 327.19531h8.5078"/><use xlink:href="#f" x="193.61373" y="339.4702"/></svg>