<svg xmlns="http://www.w3.org/2000/svg" xmlns:xlink="http://www.w3.org/1999/xlink" width="402.776pt" height="136.458pt" viewBox="0 0 402.776 136.458"><defs><path id="a" d="M.59375-.73437c0 .53125.4375.95312 1.1875.95312 1.28125 0 1.98438-1.26562 2.76563-2.51562l.75-1.23438h.04687l.32813 1.46875C6.03125-.57812 6.375.21875 7.32813.21875c1.35937 0 2.07812-1.40625 2.64062-2.54687l-.48437-.25C9.03125-1.75 8.51563-.75 8-.75c-.35937 0-.5-.42187-.92187-2.09375l-.59375-2.4375c.67187-1.1875 1.625-2.67187 2.17187-2.67187s.57813.29687 1.125.29687c.42188 0 .79688-.40625.79688-.89062 0-.57813-.4375-.8125-.95313-.8125-1 0-1.82812.89062-2.48437 1.9375l-.8125 1.26562h-.03125l-.76563-3.125-.09375-.07812-3.07812.92187.04687.45313L3.875-8.07812c.29688 0 .4375.14062.60938.9375l.65625 2.70312-.51563.89063C3.82813-2.1875 3.14063-1.20312 2.67188-1.20312c-.53125 0-.67188-.46875-1.26563-.46875-.46875 0-.8125.48437-.8125.9375m0 0"/><path id="b" d="M-.39062 3.4375C-.375 4.04688.4375 4.5 1.3125 4.5 3.17188 4.5 3.96875 3 4.75-.57812L6.46875-8.4375h2.35938l.1875-.70312H6.59375L7.10938-11.25c.35937-1.40625.70312-1.95312 1.21875-1.95312.5 0 .84375.42187 1.25 1.3125.10937.1875.25.32812.51562.32812.39063 0 .92188-.34375.92188-.8125 0-.79687-1.01563-1.45312-2.125-1.45312-2.20313 0-3.10938 1.54687-3.82813 4l-.20312.6875H3.25l-.21875.70312h1.67188l-2.15625 11C2.32813 3.70313 2.125 3.82813 1.9375 3.82813s-.48437-.14063-.98437-.90625C.8125 2.73438.6875 2.5.45313 2.5c-.40625 0-.84375.45313-.84375.9375m0 0"/><path id="d" d="M1.60938-5.26562c0 4.21875.95312 8.84375 4.90625 9v-.5625c-1.34375-.25-3.42188-1.90625-3.42188-8.4375 0-6.48438 1.98438-8.125 3.42188-8.42188v-.5625c-3.95313.15625-4.90625 4.78125-4.90625 8.98438m0 0"/><path id="e" d="M1.10938 3.17188v.5625c3.95312-.15625 4.90625-4.78125 4.90625-9 0-4.20313-.95313-8.82813-4.90625-8.98438v.5625c1.4375.29688 3.42187 1.9375 3.42187 8.42188 0 6.53125-2.09375 8.1875-3.42187 8.4375m0 0"/><path id="i" d="M1.59375-4.71875h10.25V-5.8125h-10.25Zm0 0"/><path id="j" d="M.29688-3.95312C.29688-1.71875 2.5.20313 4.5625.20313c2.625 0 4.28125-2.625 4.60938-3.14063.35937.67188 2.15625 3.15625 5.0625 3.15625 3.45312 0 4.4375-2.625 4.4375-4.82812 0-2.21875-2.07813-3.98438-4.14063-3.98438-2.48437 0-3.82812 1.78125-4.625 2.875-.73437-1.1875-2.35937-2.82812-4.9375-2.82812-3.40625 0-4.67187 2.39062-4.67187 4.59375m1.17187.0625c0-1.85938 1.3125-3.32813 2.875-3.32813 1.875 0 3.4375 1.95313 4.3125 3.34375C7.9375-2.59375 6.60938-.65625 4.5-.65625c-1.34375 0-3.03125-1.54687-3.03125-3.23437M10.4375-4.875c.71875-1.28125 2.0625-2.84375 4.17188-2.84375 1.34375 0 2.96875 1.34375 2.96875 3.03125 0 1.89063-1.01563 3.60938-2.8125 3.60938-1.92188 0-3.45313-2.14063-4.32813-3.79688m0 0"/><path id="k" d="M2.03125 0h6.125v-.53125l-1.5625-.14062c-.40625-.04688-.625-.1875-.625-.92188v-10.98437L5.875-12.6875l-3.84375.65625v.46875l1.73438.21875c.32812.03125.4375.17188.4375.70313v9.04687c0 .73438-.17188.875-.60938.92188l-1.5625.14062Zm0 0"/><path id="l" d="M1.59375-4.71875h4.57813v4.57813h1.09375v-4.57813h4.57812V-5.8125H7.26563v-4.57812H6.17188v4.57812H1.59375Zm0 0"/><path id="m" d="M.78125-6.23437C.78125-2.5 1.85938.21875 4.9375.21875S9.125-2.5 9.125-6.23437 8.01563-12.6875 4.9375-12.6875.78125-9.96875.78125-6.23437m1.875 0c0-3.03125.51563-5.79688 2.28125-5.79688 1.76563 0 2.28125 2.76563 2.28125 5.79688 0 3.04687-.51562 5.79687-2.28125 5.79687-1.76562 0-2.28125-2.75-2.28125-5.79687m0 0"/><path id="c" d="M.57813-.1875C.57813-.125.73437 0 .92188 0c.10937 0 .3125-.03125.34375-.10937l2.32812-5.96875c.09375-.20313.09375-.3125.09375-.35938 0-.28125-.42187-.39062-.82812-.39062-.39063 0-1.01563.14062-1.04688.39062Zm0 0"/><path id="n" d="M.79688-2.35937h5.125v-.54688h-5.125Zm0 0"/><path id="o" d="M.15625-1.96875c0 1.10938 1.09375 2.0625 2.125 2.0625 1.3125 0 2.14063-1.29687 2.29688-1.5625C4.76563-1.125 5.67188.10938 7.10938.10938c1.73437 0 2.23437-1.3125 2.23437-2.40625 0-1.10938-1.04687-2-2.07812-2-1.25 0-1.92188.89062-2.3125 1.4375-.375-.59375-1.1875-1.42188-2.46875-1.42188-1.70313 0-2.32813 1.20313-2.32813 2.3125m.57813.03125c0-.9375.65625-1.67187 1.4375-1.67187.9375 0 1.71875.98437 2.15625 1.67187C3.96875-1.29687 3.29688-.32812 2.25-.32812c-.67187 0-1.51562-.76563-1.51562-1.60938m4.48437-.5C5.57813-3.07812 6.25-3.85937 7.29688-3.85937c.6875 0 1.5.67187 1.5 1.51562 0 .9375-.51563 1.8125-1.42188 1.8125-.95312 0-1.71875-1.07812-2.15625-1.90625m0 0"/><path id="p" d="M.25-.09375.34375 0h3.85938l.32812-1.23437-.26562-.04688c-.20313.5-.39063.57813-.76563.57813H1.125c.14063-.48438.70313-1.15625 1.5625-1.78125.89063-.65625 1.59375-1.0625 1.59375-2.10938 0-1.29687-.875-1.75-1.84375-1.75C1.15625-6.34375.5-5.5625.5-5.07812c0 .3125.35938.46875.51563.46875.17187 0 .21874-.10938.26562-.26563.14063-.625.51563-1.14062 1.09375-1.14062.70313 0 .92188.59375.92188 1.28125 0 1-.51563 1.5625-1.32813 2.28125C.82813-1.45312.42188-.8125.25-.09375m0 0"/><path id="q" d="M.79688-2.35937h2.28125V-.0625H3.625v-2.29687h2.29688v-.54688H3.625v-2.29687h-.54687v2.29687H.79688Zm0 0"/><clipPath id="f"><path d="M6 135h391v.91797H6Zm0 0"/></clipPath><clipPath id="g"><path d="M6 0h391v135.91797H6Zm0 0"/></clipPath><clipPath id="h"><path d="M56 0h2v135.91797h-2Zm0 0"/></clipPath></defs><use xlink:href="#a" x="26.0564" y="21.71276"/><use xlink:href="#b" x="9.87268" y="56.15297"/><use xlink:href="#c" x="21.52241" y="48.2145"/><use xlink:href="#d" x="26.56239" y="56.15297"/><use xlink:href="#a" x="34.18343" y="56.15297"/><use xlink:href="#e" x="45.99207" y="56.15297"/><use xlink:href="#b" x="12.39267" y="106.71115"/><use xlink:href="#d" x="24.04254" y="106.71115"/><use xlink:href="#a" x="31.66358" y="106.71115"/><use xlink:href="#e" x="43.47222" y="106.71115"/><path fill="none" stroke="#000" stroke-miterlimit="10" stroke-width=".39692" d="M6.33203 34.07813h389.62899M6.33203 67.96095h389.62899"/><g clip-path="url(#f)"><path fill="none" stroke="#000" stroke-miterlimit="10" stroke-width=".39692" d="M6.33203 135.72268h389.62899"/></g><g clip-path="url(#g)"><path fill="none" stroke="#000" stroke-miterlimit="10" stroke-width=".39692" d="M6.33203.19922v135.52346h389.62899V.19922Zm0 0"/></g><g clip-path="url(#h)"><path fill="none" stroke="#000" stroke-miterlimit="10" stroke-width=".39692" d="M57.15236.19922v135.52346"/></g><use xlink:href="#i" x="57.87004" y="21.32629"/><use xlink:href="#j" x="71.28624" y="21.32629"/><use xlink:href="#i" x="164.09014" y="23.47874"/><use xlink:href="#k" x="177.50635" y="23.47874"/><use xlink:href="#k" x="272.44278" y="23.47874"/><use xlink:href="#l" x="362.80387" y="22.22871"/><use xlink:href="#j" x="376.22007" y="22.22871"/><use xlink:href="#l" x="118.19842" y="56.21472"/><path fill="none" stroke="#000" stroke-dasharray=".39692194000000003 1.9846595020000002" stroke-miterlimit="10" stroke-width=".39692" d="M175.73832 34.07813v33.88282"/><use xlink:href="#m" x="170.78754" y="57.24861"/><use xlink:href="#i" x="219.83274" y="53.92282"/><path fill="none" stroke="#000" stroke-dasharray=".39692194000000003 1.9846595020000002" stroke-miterlimit="10" stroke-width=".39692" d="M277.37896 34.07813v33.88282"/><use xlink:href="#m" x="272.42584" y="57.24861"/><use xlink:href="#l" x="321.46706" y="56.21472"/><path fill="#FFF" d="M63.9961 131.7539h20.1953v-8.3789H63.9961Zm0 0"/><use xlink:href="#n" x="65.98182" y="129.65701"/><use xlink:href="#o" x="72.68992" y="129.65701"/><path fill="#FFF" d="M63.9961 131.7539h20.1953v-8.3789H63.9961Zm0 0"/><use xlink:href="#n" x="65.98182" y="129.65701"/><use xlink:href="#o" x="72.68992" y="129.65701"/><path fill="#FFF" d="M171.28125 82.23828h8.91016v-10.3086h-8.91016Zm0 0"/><use xlink:href="#p" x="173.26371" y="80.25324"/><path fill="#FFF" d="M171.28125 82.23828h8.91016v-10.3086h-8.91016Zm0 0"/><use xlink:href="#p" x="173.26371" y="80.25324"/><path fill="none" stroke="#000" stroke-miterlimit="10" stroke-width=".39692" d="m87.94924 120.6758 77.4336-38.45703"/><path d="M167.51563 81.16016c-.98047.26171-2.75391.70312-4.21875.42968 1.375.53907 1.72656 1.25 1.32421 2.66797.66797-1.32812 2.09375-2.48047 2.89453-3.09765m0 0"/><path fill="#FFF" d="M269.57031 131.7539h15.61719v-10.3125h-15.61719Zm0 0"/><use xlink:href="#n" x="271.55132" y="129.76558"/><use xlink:href="#p" x="278.25942" y="129.76558"/><path fill="#FFF" d="M269.57031 131.7539h15.61719v-10.3125h-15.61719Zm0 0"/><use xlink:href="#n" x="271.55132" y="129.76558"/><use xlink:href="#p" x="278.25942" y="129.76558"/><path fill="none" stroke="#000" stroke-miterlimit="10" stroke-width=".39692" d="m183.95707 81.08986 79.69533 38.82423"/><path d="M265.79297 120.95703c-.80469-.60937-2.23828-1.75-2.91797-3.07422.41406 1.41406.0664 2.1289-1.30078 2.67578 1.46094-.28125 3.23828.14454 4.21875.39844m0 0"/><path fill="#FFF" d="M368.92578 81.20703h20.1914V71.9297h-20.1914Zm0 0"/><use xlink:href="#q" x="370.90469" y="79.11277"/><use xlink:href="#o" x="377.61279" y="79.11277"/><path fill="#FFF" d="M368.92578 81.20703h20.1914V71.9297h-20.1914Zm0 0"/><use xlink:href="#q" x="370.90469" y="79.11277"/><use xlink:href="#o" x="377.61279" y="79.11277"/><path fill="none" stroke="#000" stroke-miterlimit="10" stroke-width=".39692" d="M288.94537 120.89456 363.0118 84.4336"/><path d="M365.14844 83.3789c-.97656.26172-2.75781.69532-4.21875.41797 1.3711.54297 1.72265 1.25391 1.3164 2.67188.67188-1.32812 2.09766-2.47266 2.90235-3.08984m0 0"/></svg>