<svg xmlns="http://www.w3.org/2000/svg" xmlns:xlink="http://www.w3.org/1999/xlink" width="318.079pt" height="227.37pt" viewBox="0 0 318.079 227.37"><defs><path id="c" d="M.89063-6.45312c0 2.07812.57812 3.8125 1.59375 4.92187C3.53125-.35937 5.0625.28125 7.10938.28125S10.6875-.35937 11.75-1.53125c1.01563-1.10937 1.59375-2.84375 1.59375-4.92187 0-2.09375-.57812-3.82813-1.59375-4.9375-1.0625-1.17188-2.59375-1.82813-4.64062-1.82813s-3.57813.65625-4.625 1.82813C1.46875-10.28125.89063-8.54687.89063-6.45312m2.09375 0c0-2.75.8125-6.10938 4.125-6.10938 3.32812 0 4.14062 3.35938 4.14062 6.10938 0 2.73437-.8125 6.07812-4.14062 6.07812-3.3125 0-4.125-3.34375-4.125-6.07812m0 0"/><path id="e" d="M.60938-9.32812c0 1.64062 1.64062 2.92187 5.375 2.92187-.625 1.09375-1.07813 2.23438-1.07813 3.46875 0 2.04688 1.29688 3.15625 3.64063 3.15625 2.28125 0 4.67187-1.65625 4.67187-3.78125 0-1.26562-1.0625-1.96875-2.39062-1.96875C9.35938-5.53125 7.625-3.875 7.625-2.5625c0 .39063.3125 1.15625.85938 1.15625.15625 0 .375-.125.375-.29687 0-.25-.4375-.26563-.4375-.84375 0-.90625 1.34375-2.375 2.40625-2.375.76562 0 1.21875.29687 1.21875 1.03125 0 1.64062-1.59375 3.51562-3.5 3.51562C7.1875-.375 6.5-1.10937 6.5-2.34375c0-1.39062.96875-3.01562 1.70313-4.21875 4.15625-.625 8.23437-2.67187 8.23437-5.28125 0-1-.79687-1.65625-1.875-1.65625-2.45312 0-6.17187 3.17188-8.21875 6.4375-1.6875-.01562-4.4375-.04687-4.4375-2.04687 0-1.82813 2.23438-3.23438 3.625-3.23438.25 0 .39063-.15625.39063-.3125s-.14063-.28125-.29688-.28125c-2.09375 0-5.01562 1.40625-5.01562 3.60938m7.98437 2.03125c1.35938-2.40625 4.26563-5.60938 5.96875-5.60938.65625 0 1.125.39063 1.125 1 0 2.09375-3.28125 4-7.09375 4.60938m0 0"/><path id="g" d="m2.3125-5.98437.25.35937c.29688-.125.84375-.21875 1.03125-.21875.07813.17188 4.21875 9.8125 4.21875 9.8125h.73438l10.375-21.70312c.09374-.1875.14062-.26563.14062-.32813 0-.20312-.10937-.71875-.375-.71875-.14062 0-.29687.25-.42187.5L8.75 1.6875 4.90625-7.28125c-.07812-.15625-.09375-.26562-.23437-.26562-.0625 0-.07813.01562-.26563.15625Zm0 0"/><path id="h" d="M.5-1.90625c0 .79688 1.28125 2.125 3.9375 2.125 2.70313 0 4.40625-1.375 4.40625-3.75 0-2.51562-2.14062-3.25-3.17187-3.34375v-.07812c1-.15625 2.60937-.92188 2.60937-2.76563 0-2.0625-1.60937-2.98437-3.60937-2.98437C2.20313-12.70312 1-11.26562 1-10.46875c0 .57813.65625.89063.90625.89063.23438 0 .375-.14063.45313-.375.42187-1.28125 1.125-2.09375 2.17187-2.09375C6-12.04687 6.375-10.75 6.375-9.70312c0 1.10937-.39062 2.53125-1.98437 2.53125-.89063 0-1.40625-.1875-1.625-.1875-.23438 0-.34375.1875-.34375.51562 0 .32813.10937.53125.34375.53125.21875 0 .73437-.1875 1.625-.1875C5.98438-6.5 6.875-5.0625 6.875-3.4375c0 2.21875-1.09375 3-2.42187 3-1.23438 0-2.04688-.90625-2.40625-1.96875-.125-.35937-.29688-.53125-.5625-.53125C1.15625-2.9375.5-2.57812.5-1.90625m0 0"/><path id="f" d="M-.28125 2.34375c.01563.46875.57813.8125 1.28125.8125 1.35938 0 1.98438-1.07812 2.53125-3.54687L4.75-5.875h1.64063l.14062-.53125h-1.6875L5.23438-8c.21875-.875.4375-1.20312.76562-1.20312.29688 0 .51563.25.82813.92187.07812.125.1875.25.42187.25.29688 0 .70313-.25.70313-.625 0-.5625-.71875-1.03125-1.57813-1.03125-1.64062 0-2.3125 1.17188-2.78125 2.84375l-.125.4375h-1.125l-.17187.53125h1.17187L1.8125 1.89063c-.125.67187-.25.76562-.375.76562-.14062 0-.35937-.125-.6875-.67187-.09375-.14063-.1875-.3125-.39062-.3125-.3125 0-.64063.32812-.64063.67187m0 0"/><clipPath id="a"><path d="M0 .01563h317V182H0Zm0 0"/></clipPath><clipPath id="b"><path d="M180 46h2v180.72656h-2Zm0 0"/></clipPath><clipPath id="d"><path d="M83 34h200v192.72656H83Zm0 0"/></clipPath></defs><g clip-path="url(#a)"><path fill="none" stroke="#DFDFDF" stroke-miterlimit="10" stroke-width=".39735" d="M.19529 181.10938h316.57035M.1953 135.88281h316.57035M.1953 90.66015h316.57035M.1953 45.43358h316.57035M.1953.22654h316.57035M.1953 181.10938V.21092m45.22656 180.89846V.21092m45.22267 180.89846V.21092m45.22266 180.89846V.21092m45.22657 180.89846V.21092m45.22266 180.89846V.21092m45.22267 180.89846V.21092m45.21094 180.89846V.21092"/></g><path fill="none" stroke="#000" stroke-miterlimit="10" stroke-width=".79471" d="M45.42185 135.88281h269.9141"/><path stroke="#000" stroke-linejoin="round" stroke-miterlimit="10" stroke-width=".79471" d="M316.36719 135.88281c-1.28906-.25781-2.58203-.77344-4.13281-1.67969 1.55078 1.16407 1.55078 2.19532 0 3.35938 1.55078-.90234 2.84375-1.42188 4.1328-1.67969Zm0 0"/><g clip-path="url(#b)"><path fill="none" stroke="#000" stroke-miterlimit="10" stroke-width=".79471" d="M181.09375 226.33204V46.86717"/></g><path stroke="#000" stroke-linejoin="round" stroke-miterlimit="10" stroke-width=".79471" d="M181.09375 45.83203c-.25781 1.29297-.77734 2.58203-1.67969 4.13281 1.16016-1.55078 2.19531-1.55078 3.35547 0-.90234-1.55078-1.41797-2.83984-1.67578-4.1328Zm0 0"/><use xlink:href="#c" x="159.84816" y="156.11415"/><g clip-path="url(#d)"><path fill="none" stroke="#00007F" stroke-miterlimit="10" stroke-width=".79471" d="m95.16796 188.29688 3.59765-26.57422 3.60157-23.44532 3.59765-20.44922 3.60157-17.59766 3.59765-14.875 3.59766-12.29688 3.60156-9.85156 3.59766-7.54297 3.60156-5.3711 3.59766-3.33593 3.60156-1.4414 3.59766.32421 3.60156 1.94531 3.59766 3.4336 3.59766 4.78515L152.7578 62l3.59766 7.07422 3.60156 8.01562 3.59765 8.82032 3.60157 9.48437 3.59765 10.01173 3.59766 10.41015 3.60157 10.66407 3.59765 10.78125 3.60156 10.76562 3.59766 10.61329 3.60156 10.32031 3.59766 9.89063 3.60156 9.32812 3.59766 8.625 3.59766 7.78907 3.60156 6.8125 3.59766 5.69922 3.60156 4.45313 3.59766 3.0664 3.60156 1.54688 3.59766-.11719 3.60156-1.91016 3.59766-3.84375 3.59765-5.91015 3.60157-8.1211 3.59765-10.46094 3.60157-12.9414 3.59765-15.5625 3.60157-18.3086 3.59765-21.20313 3.60157-24.23048 3.59765-27.39453 3.59766-30.69532"/></g><use xlink:href="#e" x="278.95229" y="48.45487" fill="#00007F"/><use xlink:href="#f" x="294.19017" y="52.82422" fill="#00007F"/><use xlink:href="#g" x="257.25512" y="166.44224"/><path fill="none" stroke="#000" stroke-miterlimit="10" stroke-width="1.09284" d="M275.92969 148.21484h9.89453"/><use xlink:href="#h" x="275.93104" y="166.51204"/></svg>