<svg xmlns="http://www.w3.org/2000/svg" xmlns:xlink="http://www.w3.org/1999/xlink" width="170.876pt" height="147.45pt" viewBox="0 0 170.876 147.45"><defs><path id="b" d="M-7.14062-12.40625h3.78125l-.75 1.1875.53125.48438c.76562-.82813 1.64062-1.4375 2.78125-1.92188v-.51562c-1.17188-.5-2.01563-1.09375-2.78125-1.92188l-.53125.51563.75 1.1875h-3.78125Zm0 0"/><path id="c" d="M2.1875-.85937C2.1875-.20312 2.5.21874 3.25.21874c1.35938 0 2.39063-1.26562 3.01563-2.67187l-.45313-.26563C5.48438-2.0625 4.65625-.75 4.14063-.75c-.21875 0-.29688-.14062-.29688-.375 0-.1875.04688-.40625.10938-.64062L6-9.26562l-.10937-.09375L2.5-8.84375l-.125.45313 1.07813.09375c.34375.01562.46875.125.46875.375 0 .125-.01563.28125-.07813.48437l-1.5625 5.82813c-.07812.28124-.09375.51562-.09375.75m2.39063-11.25c0 .70312.48437 1.0625 1.03125 1.0625.73437 0 1.20312-.5 1.20312-1.25 0-.73438-.5-1.03125-1.01562-1.03125-.79688 0-1.21875.625-1.21875 1.21875m0 0"/><path id="d" d="M-1.39062 3.3125c0 1 1.3125 1.1875 1.98437 1.1875.60938 0 1.21875-.1875 1.67188-.60937C3.10938 3.10938 3.625 1.92188 4.125-.3125l1.95313-8.95312-.10938-.09375-3.54687.54687-.125.48438c1.23437.04687 1.65625.09375 1.65625.39062 0 .14063-.03125.26563-.0625.42188L1.70313 2.95313c-.10938.57812-.28126.85937-.51563.85937-.75 0-1.125-1.45312-1.6875-1.45312-.46875 0-.89062.59375-.89062.95312M4.3125-12.10937c0 .70312.46875 1.0625 1.03125 1.0625.73438 0 1.1875-.5 1.1875-1.25 0-.73438-.5-1.03125-1.01562-1.03125-.79688 0-1.20313.625-1.20313 1.21875m0 0"/><path id="e" d="M.89063-6.45312c0 2.09375.57812 3.8125 1.59375 4.92187C3.53125-.35937 5.0625.28125 7.10938.28125c2.03125 0 3.5625-.64062 4.625-1.8125 1-1.10937 1.57812-2.82812 1.57812-4.92187 0-2.07813-.57812-3.8125-1.57812-4.92188-1.0625-1.17187-2.59375-1.82812-4.625-1.82812-2.04688 0-3.57813.65625-4.625 1.82812C1.46875-10.26562.89063-8.53125.89063-6.45312m2.09375 0c0-2.73438.8125-6.09375 4.125-6.09375s4.125 3.35937 4.125 6.09375c0 2.75-.8125 6.07812-4.125 6.07812s-4.125-3.32812-4.125-6.07812m0 0"/><clipPath id="a"><path d="M.2539 112h170.2422v2H.2539Zm0 0"/></clipPath><clipPath id="f"><path d="M84 56h2v57.35938h-2Zm0 0"/></clipPath></defs><g clip-path="url(#a)"><path fill="none" stroke="#000" stroke-miterlimit="10" stroke-width=".79405" d="M.65233 113.35937H170.1016"/></g><path fill="none" stroke="#000" stroke-miterlimit="10" stroke-width=".79405" d="M57.13281 113.35937V.39451"/><path fill="none" stroke="red" stroke-miterlimit="10" stroke-width=".79405" d="M57.13281 113.35937h26.8125"/><path fill="red" stroke="red" stroke-linejoin="round" stroke-miterlimit="10" stroke-width=".79405" d="M84.98047 113.35937c-1.29297-.2578-2.58203-.77343-4.1289-1.67578 1.54687 1.16016 1.54687 2.19532 0 3.35547 1.54687-.90234 2.83593-1.41797 4.1289-1.67969Zm0 0"/><use xlink:href="#b" x="75.59372" y="135.87916" fill="red"/><use xlink:href="#c" x="67.45408" y="140.06754" fill="red"/><path fill="none" stroke="red" stroke-miterlimit="10" stroke-width=".79405" d="M57.13281 113.35937V58.30858"/><path fill="red" stroke="red" stroke-linejoin="round" stroke-miterlimit="10" stroke-width=".79405" d="M57.13281 57.27344c-.25781 1.29297-.77344 2.58203-1.67578 4.1289 1.16016-1.54687 2.19531-1.54687 3.35547 0-.90234-1.54687-1.41797-2.83593-1.67969-4.1289Zm0 0"/><use xlink:href="#b" x="50.73644" y="88.32654" fill="red"/><use xlink:href="#d" x="42.79606" y="92.51491" fill="red"/><use xlink:href="#e" x="35.90775" y="133.57575"/><g clip-path="url(#f)"><path fill="none" stroke="#000" stroke-dasharray="2.9777115524 2.9777115524" stroke-miterlimit="10" stroke-width=".79405" d="M85.375 56.8789v56.48047"/></g><path fill="none" stroke="#000" stroke-dasharray="2.9777115524 2.9777115524" stroke-miterlimit="10" stroke-width=".79405" d="M85.375 56.8789H57.13282"/></svg>