<svg xmlns="http://www.w3.org/2000/svg" xmlns:xlink="http://www.w3.org/1999/xlink" width="188.322pt" height="196.203pt" viewBox="0 0 188.322 196.203"><defs><path id="a" d="M.90625-2.42187c0 1.39062.9375 2.64062 2.6875 2.64062C4.6875.21875 5.78125-.5 6.375-.89062c.25.6875.57813 1.10937 1.21875 1.10937.70313 0 1.5-.20312 2.20313-.5625l-.10938-.4375c-.26562.0625-.67187.09375-.95312 0-.34375-.07812-.65625-.40625-.65625-1.57812v-4.53125c0-1.09375-.23438-2.46875-3.0625-2.46875C2.92188-9.35937 1.25-8.28125 1.25-7.25c0 .60938.6875.875 1.04688.875.40625 0 .5-.1875.59375-.51562.42187-1.39063 1.17187-1.82813 1.9375-1.82813.73437 0 1.5625.39063 1.5625 1.875v.76563c-.48438.48437-2.28125.95312-3.75 1.4375C1.29688-4.23437.90625-3.29687.90625-2.42187m1.89063-.25c0-.875.39062-1.34375 1.45312-1.73438.75-.28125 1.71875-.64062 2.14063-.89062v2.64062c0 1.5-1.15625 1.875-1.89063 1.875-1.14062 0-1.70312-.8125-1.70312-1.89062m0 0"/><path id="b" d="M2.03125 0h6.125v-.53125l-1.5625-.14062c-.40625-.04688-.625-.1875-.625-.92188v-10.98437L5.875-12.6875l-3.84375.65625v.46875l1.73438.21875c.32812.03125.4375.17188.4375.70313v9.04687c0 .35938-.03125.57813-.15625.71875-.09375.14063-.25.1875-.45313.20313l-1.5625.14062Zm0 0"/><path id="c" d="M.5-.17187.6875 0h7.71875l.64063-2.45312-.51563-.10938C8.14063-1.54687 7.76563-1.40625 7-1.40625H2.25c.29688-.96875 1.40625-2.29687 3.125-3.5625C7.15625-6.26562 8.54688-7.10937 8.54688-9.1875c0-2.59375-1.71875-3.5-3.6875-3.5C2.29688-12.6875 1-11.125 1-10.15625c0 .625.70313.92188 1.03125.92188.32813 0 .45313-.1875.53125-.51563.29688-1.26562 1.03125-2.28125 2.1875-2.28125 1.42188 0 1.84375 1.20313 1.84375 2.5625 0 2-1.01562 3.14063-2.64062 4.5625C1.64063-2.89062.85938-1.625.5-.17187m0 0"/><path id="d" d="M.5-1.90625c0 .79688 1.28125 2.125 3.92188 2.125 2.70312 0 4.40625-1.375 4.40625-3.75 0-2.5-2.14063-3.23437-3.17188-3.32812v-.09375c1.01563-.15625 2.625-.90625 2.625-2.75 0-2.0625-1.60937-2.98438-3.625-2.98438C2.20313-12.6875 1-11.25 1-10.45312c0 .57812.64063.89062.90625.89062.23438 0 .375-.14062.45313-.375.42187-1.28125 1.10937-2.09375 2.17187-2.09375C6-12.03125 6.375-10.73437 6.375-9.6875c0 1.10938-.40625 2.53125-1.98437 2.53125-.89063 0-1.40625-.1875-1.625-.1875-.25 0-.34375.1875-.34375.51563 0 .3125.09375.51562.34375.51562.21875 0 .73437-.17187 1.625-.17187 1.57812 0 2.46875 1.42187 2.46875 3.04687 0 2.23438-1.07813 3-2.42188 3-1.21875 0-2.03125-.90625-2.39062-1.96875-.125-.35937-.29688-.53125-.5625-.53125C1.15625-2.9375.5-2.57812.5-1.90625m0 0"/><path id="e" d="m.375-12.90625.71875.0625c.46875.0625.59375.15625.59375.875V.07813l.34375.14062L2.76563-.5c.64062.375 1.4375.71875 2.82812.71875 2.48438 0 4.64063-1.1875 4.64063-5 0-1.15625-.23438-4.57812-3.59375-4.57812-1.40625 0-2.51563.90625-3.20313 1.32812v-5.70312l-.14062-.09375L.375-13.375Zm3.0625 9.875V-6c0-.46875.01563-.75.17188-1.04687.45312-.89063 1.23437-1.3125 2.28125-1.3125.78125 0 2.40625.4375 2.40625 3.70312 0 2.73438-.82813 4.21875-2.6875 4.21875-.98438 0-1.70313-.5-2.03125-1.42187-.125-.34375-.14063-.71875-.14063-1.17188m0 0"/></defs><use xlink:href="#a" x="86.4812" y="158.79695"/><path fill="none" stroke="#000" stroke-miterlimit="10" stroke-width=".39689" d="m13.66797 102.4336 65.80466 43.87107"/><use xlink:href="#b" x="171.10644" y="188.79509"/><path fill="none" stroke="#000" stroke-miterlimit="10" stroke-width=".39689" d="m103.23825 158.18357 60.85936 20.28906"/><use xlink:href="#c" x="171.10644" y="160.56377"/><path fill="none" stroke="#000" stroke-miterlimit="10" stroke-width=".39689" d="M103.23825 154.22264h60.85936"/><use xlink:href="#d" x="171.10644" y="132.22289"/><path fill="none" stroke="#000" stroke-miterlimit="10" stroke-width=".39689" d="m103.23825 150.2656 60.85936-20.29295"/><use xlink:href="#e" x="85.77606" y="48.1026"/><path fill="none" stroke="#000" stroke-miterlimit="10" stroke-width=".39689" d="M13.66797 93.08594 78.7656 49.68361"/><use xlink:href="#b" x="171.10644" y="75.86782"/><path fill="none" stroke="#000" stroke-miterlimit="10" stroke-width=".39689" d="m103.94138 45.4883 60.15623 20.05859"/><use xlink:href="#c" x="171.10644" y="47.63649"/><path fill="none" stroke="#000" stroke-miterlimit="10" stroke-width=".39689" d="M103.94138 41.2969h60.15623"/><use xlink:href="#d" x="171.10644" y="19.29562"/><path fill="none" stroke="#000" stroke-miterlimit="10" stroke-width=".39689" d="M103.94138 37.10158 164.0976 17.0469"/></svg>