<svg xmlns="http://www.w3.org/2000/svg" xmlns:xlink="http://www.w3.org/1999/xlink" width="103.92pt" height="110.187pt" viewBox="0 0 103.92 110.187"><defs><path id="a" d="M.90625-2.40625c0 1.375.9375 2.625 2.67188 2.625C4.67188.21875 5.75-.5 6.34375-.89062c.26563.6875.57813 1.10937 1.23438 1.10937.6875 0 1.48437-.20312 2.1875-.5625l-.10938-.42187c-.26562.04687-.67187.07812-.95312 0-.32813-.07813-.65625-.42188-.65625-1.59375v-4.5c0-1.09375-.23438-2.48438-3.04688-2.48438-2.09375 0-3.75 1.09375-3.75 2.125 0 .59375.6875.875 1.04688.875.39062 0 .5-.20312.59375-.51562C3.29688-8.25 4.0625-8.6875 4.8125-8.6875c.71875 0 1.5625.375 1.5625 1.85938v.78125c-.48437.46875-2.28125.9375-3.75 1.42187C1.28125-4.21875.90625-3.28125.90625-2.40625m1.89063-.26562c0-.875.39062-1.32813 1.4375-1.71875.75-.28125 1.71875-.64063 2.14062-.89063v2.625c0 1.51563-1.15625 1.89063-1.89062 1.89063-1.14063 0-1.6875-.8125-1.6875-1.90625m0 0"/><path id="b" d="m.375-12.85937.71875.0625c.46875.0625.59375.15625.59375.875v12l.32813.14062L2.75-.5c.65625.375 1.4375.71875 2.82813.71875 2.46875 0 4.625-1.1875 4.625-4.98437 0-1.15625-.23438-4.57813-3.57813-4.57813-1.40625 0-2.51562.92188-3.20312 1.32813v-5.67188l-.14063-.09375-2.90625.45313Zm3.04688 9.82812v-2.9375c0-.48437.01562-.75.17187-1.04687.46875-.89063 1.23438-1.3125 2.28125-1.3125.76563 0 2.39063.4375 2.39063 3.67187 0 2.73438-.82813 4.21875-2.67188 4.21875-.98437 0-1.70312-.5-2.03125-1.42187-.125-.34375-.14062-.71875-.14062-1.17188m0 0"/></defs><use xlink:href="#a" x="86.49419" y="102.5702"/><path fill="none" stroke="#000" stroke-miterlimit="10" stroke-width=".39558" d="m13.92188 59.29688 65.58596 32.79297"/><use xlink:href="#b" x="85.79138" y="20.37864"/><path fill="none" stroke="#000" stroke-miterlimit="10" stroke-width=".39558" d="M13.92188 52.3086 78.8047 19.86326"/></svg>