<svg xmlns="http://www.w3.org/2000/svg" xmlns:xlink="http://www.w3.org/1999/xlink" width="421.338pt" height="423.979pt" viewBox="0 0 421.338 423.979"><defs><path id="c" d="M.20313 0H9.9375l.96875-3.28125h-.5625C9.39063-.96875 8.54688-.65625 6.25-.65625c-2.21875 0-2.32812-.28125-2.32812-.78125 0-.1875.0625-.46875.14062-.84375l.95313-4.10937h2.4375c1.39062 0 1.65625.28125 1.65625 1.09375 0 .17187 0 .32812-.01563.51562h.54688l.875-3.89062H9.9375C9.46875-7.375 9.26563-7.07812 7.625-7.07812H5.17188l1.04687-4.65625c.10938-.45313.21875-.5625.54688-.5625h2.25c1.82812 0 2.20312.48437 2.20312 1.5 0 .45312-.0625.96875-.0625.96875h.5625l.6875-3.09375h-9.4375l-.14062.53125 1.125.07812c.32812.01563.46875.15625.46875.45313 0 .125-.03125.26562-.0625.4375L2.125-1.54687c-.15625.625-.3125.84375-.76562.89062l-1.0625.125Zm0 0"/><path id="h" d="M.59375-3.46875c0 2.14063.73438 3.70313 3.04688 3.70313 3.42187 0 4.89062-3.45313 5.6875-7.03125.21875-1.09375.39062-2.25.39062-3.3125 0-2.0625-.67187-3.75-3.01562-3.75-4.46875 0-6.10938 6.65625-6.10938 10.39062m1.6875.67188c0-1.29688.29688-2.82813.51563-3.90625h4.6875C7-4.5 5.96875-.3125 3.76563-.3125c-1.14063 0-1.48438-1.09375-1.48438-2.48437m.6875-4.57813C3.29688-8.96875 4.3125-13.25 6.5625-13.25c1.17188 0 1.51563 1.15625 1.51563 2.51563 0 1.20312-.28125 2.57812-.4375 3.35937Zm0 0"/><path id="i" d="M1.6875-5.26562c0 2.14062 1.57813 3.71875 3.75 3.71875 2.07813 0 3.65625-1.57813 3.65625-3.71875 0-2.09375-1.57812-3.67188-3.65625-3.67188-2.17187 0-3.75 1.57813-3.75 3.67188m0 0"/><path id="j" d="M.59375-.73437c0 .53125.4375.95312 1.20313.95312 1.26562 0 1.98437-1.26562 2.76562-2.53125l.75-1.23437h.03125L5.6875-2.0625C6.04688-.57812 6.39063.21875 7.34375.21875c1.375 0 2.07813-1.40625 2.64063-2.54687l-.48438-.25C9.04688-1.75 8.53125-.75 8.01563-.75c-.35938 0-.5-.42187-.92188-2.09375L6.5-5.29687c.6875-1.1875 1.64063-2.67188 2.17188-2.67188.5625 0 .57812.29688 1.14062.29688.40625 0 .79688-.40625.79688-.90625 0-.57813-.4375-.8125-.96875-.8125-.98438 0-1.82813.89062-2.48438 1.95312l-.8125 1.26563H6.3125L5.54688-9.3125l-.09375-.07812-3.09375.9375L2.40625-8 3.875-8.09375c.29688 0 .4375.14063.625.9375l.65625 2.70313-.51562.89062c-.79688 1.375-1.5 2.34375-1.95313 2.34375-.54687 0-.67187-.45312-1.28125-.45312-.46875 0-.8125.48437-.8125.9375m0 0"/><path id="k" d="M-.35937 0h4.21875l.125-.53125L2.9375-.64062c-.23437-.01563-.32812-.14063-.32812-.3125 0-.09376.03125-.23438.09375-.375C3.32813-2.53125 3.92188-3.73437 4.60938-5H8.8125l.45313 3.85938s-.09375.46875-.5.5l-.98438.10937L7.67188 0h4.59375l.125-.53125-.71875-.0625c-.57813-.0625-.65625-.32812-.75-1.09375l-1.375-11.23437H8.21875l-3.14062 5.5C4.125-5.75 2.5625-2.96875 1.875-1.84375 1.26563-.875.95313-.67187.375-.60937l-.60937.07812ZM5-5.70312l3.03125-5.5.6875 5.5Zm0 0"/><path id="l" d="M1.3125-5.25c0 2.04688.75 3.78125 2.46875 4.5l-.51562 1.96875L4.3125 1.25l.48438-1.73437c.28125.0625.57812.09375.90625.09375H9.625v-1.07813H5.70313c-.21875 0-.4375-.01562-.60938-.04687l.875-3.21875H7.875v-1.09375H6.26563l.875-3.20313H9.625V-10.125H7.4375l.48438-1.67187H6.78125L6.32813-10.125h-.625c-3.09375 0-4.39063 2.1875-4.39063 4.875m1.17188.51563h2.375l-.78125 2.90625C3-2.39062 2.625-3.5625 2.48438-4.73437m0-1.09375C2.75-7.5 3.14063-9.01562 6.04688-9.03125l-.89063 3.20313Zm0 0"/><path id="p" d="M1.60938-5.26562c0 4.21875.95312 8.84375 4.92187 9V3.1875C5.1875 2.92188 3.10938 1.26563 3.10938-5.26562c0-6.51563 1.98437-8.15625 3.42187-8.45313v-.5625C2.5625-14.125 1.60938-9.48437 1.60938-5.26562m0 0"/><path id="q" d="M1 0h3.35938v-5.25h1.17187L8.54688 0h3.40625L8.875-5.40625c1.67188-.51562 2.6875-2.17187 2.6875-3.70312 0-2.17188-1.65625-3.84375-3.92187-3.84375H1Zm.92188-.9375v-11.07812h1.5V-.9375Zm2.4375-5.25v-5.82812h3.3125v5.82812Zm2.28125.9375h1.5l2.375 4.3125H9.03125Zm1.96875-1.0625v-5.625c1.25.34375 2.04687 1.67188 2.04687 2.82813 0 1.1875-.89062 2.60937-2.04687 2.79687m0 0"/><path id="r" d="M1.10938 3.1875v.54688c3.96875-.15625 4.92187-4.78125 4.92187-9s-.95312-8.85938-4.92187-9.01563v.5625c1.4375.29688 3.42187 1.9375 3.42187 8.45313 0 6.53125-2.07812 8.1875-3.42187 8.45312m0 0"/><path id="d" d="M1.0625-3.25h7.29688v-.875H1.0625Zm0 0"/><path id="e" d="M1.42188 0H5.8125v-.40625L4.76563-.5c-.29688-.03125-.4375-.125-.4375-.60937v-7.71875L4.25-8.89062l-2.8125.46875v.34375l1.125.15625c.25.04687.32813.14062.32813.54687v6.26563c0 .48437-.125.57812-.42188.60937l-1.04687.09375Zm0 0"/><path id="o" d="M.35938-1.39062c0 .54687.85937 1.54687 2.84375 1.54687 1.95312 0 3.15625-.95312 3.15625-2.625 0-1.78125-1.54688-2.25-2.20313-2.32812v-.04688c.70313-.125 1.82813-.64062 1.82813-1.92187 0-1.53125-1.25-2.125-2.64063-2.125-1.67187 0-2.64062.92187-2.64062 1.59375 0 .45312.51562.6875.73437.6875.1875 0 .29688-.125.375-.32813.29688-.92187.73438-1.46875 1.4375-1.46875.98438 0 1.21875.92188 1.21875 1.60938 0 .70312-.21875 1.76562-1.29687 1.76562-.59375 0-.98438-.14062-1.1875-.14062-.1875 0-.26563.15625-.26563.40625s.07813.40625.26563.40625c.20312 0 .59375-.14063 1.1875-.14063 1 0 1.625.84375 1.625 2.09375 0 1.5-.6875 2.07813-1.57813 2.07813-.79687 0-1.34375-.60938-1.625-1.45313-.07812-.25-.21875-.39062-.42187-.39062-.29688 0-.8125.28125-.8125.78125m0 0"/><path id="m" d="m.9375-3.84375.17188 3.01563C1.92188-.0625 3.5.28124 4.8125.28124c3.29688 0 4.60938-1.89062 4.60938-3.79687 0-2.21875-1.48438-3.26563-3.67188-4.0625l-.625-.21875c-1.25-.48438-2.28125-1.26563-2.28125-2.39063 0-1.375.8125-2.39062 2.39063-2.39062 1.60937 0 2.5.92187 2.79687 2.8125h.57813v-2.625c-.64063-.5-1.89063-.84375-3.15625-.84375-2.29688 0-4.3125 1.15625-4.3125 3.625 0 1.96875 1.5625 2.98437 3.53125 3.6875l.34375.14062c.8125.3125 2.60937 1.14063 2.60937 2.8125C7.625-1.35937 6.57813-.375 4.90625-.375c-1.75 0-2.89062-1.375-3.375-3.46875Zm0 0"/><path id="n" d="M.89063-6.46875c0 2.09375.57812 3.82813 1.59375 4.9375C3.54688-.35937 5.07813.28125 7.125.28125s3.57813-.64062 4.625-1.8125c1.01563-1.10937 1.59375-2.84375 1.59375-4.9375 0-2.07812-.57812-3.8125-1.59375-4.92187-1.04687-1.1875-2.57812-1.84375-4.625-1.84375s-3.57812.65625-4.64062 1.84375C1.46875-10.28125.89063-8.54687.89063-6.46875m2.09375 0c0-2.73437.8125-6.10937 4.14062-6.10937 3.3125 0 4.14063 3.375 4.14063 6.10937 0 2.75-.82813 6.09375-4.14063 6.09375-3.32812 0-4.14062-3.34375-4.14062-6.09375m0 0"/><clipPath id="a"><path d="M80 314h340.67578v1H80Zm0 0"/></clipPath><clipPath id="b"><path d="M418 311h2.67578v6H418Zm0 0"/></clipPath><clipPath id="f"><path d="M23 286h142v137.63672H23Zm0 0"/></clipPath><clipPath id="g"><path d="M28 419h4v4.63672h-4Zm0 0"/></clipPath></defs><g clip-path="url(#a)"><path fill="none" stroke="#000" stroke-miterlimit="10" stroke-width=".39787" d="M80.85158 314.3086h339.23037"/></g><g clip-path="url(#b)"><path fill="none" stroke="#000" stroke-linecap="round" stroke-linejoin="round" stroke-miterlimit="10" stroke-width=".39787" d="M418.21484 311.92188c.375 1.43359 1.21875 2.10937 2.06641 2.38671-.84766.27735-1.6914.95313-2.0664 2.38672"/></g><path fill="none" stroke="#000" stroke-miterlimit="10" stroke-width=".39787" d="M137.45703 370.91405V31.68367"/><path fill="none" stroke="#000" stroke-linecap="round" stroke-linejoin="round" stroke-miterlimit="10" stroke-width=".39787" d="M135.07031 33.55469c1.4336-.3789 2.10938-1.22266 2.38672-2.07032.28125.84766.95703 1.69141 2.38672 2.07032"/><use xlink:href="#c" x="122.61635" y="19.88433"/><use xlink:href="#d" x="134.63147" y="24.26146"/><use xlink:href="#e" x="144.04532" y="24.26146"/><g clip-path="url(#f)"><path fill="none" stroke="#000" stroke-miterlimit="10" stroke-width=".39787" d="M159.25 292.51563 28.77736 422.98825"/></g><g clip-path="url(#g)"><path fill="none" stroke="#000" stroke-linecap="round" stroke-linejoin="round" stroke-miterlimit="10" stroke-width=".39787" d="M31.78906 423.35547c-1.28125-.7461-2.35547-.6289-3.15234-.22656.40234-.79688.51953-1.8711-.22656-3.14844"/></g><path fill="none" stroke="#007F7F" stroke-dasharray="2.9841375369 2.9841375369" stroke-miterlimit="10" stroke-width=".39787" d="M93.87892 131.4688c62.5156 0 132.70309-19.51171 156.7734-43.57811 24.0664-24.0703-7.10157-43.57811-69.61718-43.57811-62.5156 0-132.70308 19.5078-156.76948 43.5781-24.0664 24.0664 7.09765 43.57812 69.61326 43.57812Zm0 0"/><path fill="none" stroke="#007F7F" stroke-miterlimit="10" stroke-width=".39787" d="M125.82813 109.34771 128 109.19537l2.1836-.17969 2.1914-.20703 2.20313-.23828 2.20312-.26172 2.20312-.28906 2.20313-.3164 2.19922-.34376 2.1914-.36718 2.17969-.39454 2.16406-.41796 2.14844-.44141 2.1289-.46484 2.10938-.4922 2.08203-.51171 2.05469-.53125 2.02734-.55469 1.99219-.57421 1.95312-.59375 1.91797-.61329 1.8789-.6289 1.83203-.64844 1.78907-.66406 1.3711-.53125"/><path fill="none" stroke="#007F7F" stroke-linecap="round" stroke-linejoin="round" stroke-miterlimit="10" stroke-width=".39785" d="M172.59766 97.38281c.87109 1.19922 1.90234 1.52344 2.79297 1.47266-.6875.57031-1.22657 1.5039-1.0586 2.97656"/><use xlink:href="#h" x="154.19573" y="121.47971" fill="#007F7F"/><path fill="none" stroke="#000" stroke-miterlimit="10" stroke-width=".39787" d="m137.45703 87.89069-23.2578 42.91014m23.2578-42.91014 76.23435 21.78515M137.45703 314.3086l-23.26171-183.50386"/><use xlink:href="#i" x="108.81603" y="135.27503" fill="#FF7F00"/><use xlink:href="#j" x="95.76953" y="123.56144" fill="#FF7F00"/><path fill="none" stroke="#000" stroke-dasharray="2.9841375369 2.9841375369" stroke-miterlimit="10" stroke-width=".39787" d="m137.45703 314.3086 76.23826-204.62885"/><use xlink:href="#i" x="208.3147" y="114.14823" fill="#FF7F00"/><path fill="none" stroke="#000" stroke-dasharray="2.9841375369 2.9841375369" stroke-miterlimit="10" stroke-width=".39787" d="M213.6953 109.67975v226.4179"/><path fill="none" stroke="#000" stroke-miterlimit="10" stroke-width=".39787" d="m137.45703 314.3086 76.23826 21.78905"/><use xlink:href="#i" x="208.3147" y="340.56448" fill="#FF7F00"/><use xlink:href="#k" x="220.7242" y="356.05714" fill="#FF7F00"/><use xlink:href="#j" x="234.35161" y="356.05714" fill="#FF7F00"/><use xlink:href="#k" x="204.305" y="392.22532"/><use xlink:href="#l" x="221.79184" y="392.22532"/><use xlink:href="#m" x="236.76999" y="392.22532"/><use xlink:href="#n" x="246.87615" y="392.22532"/><use xlink:href="#o" x="261.11973" y="396.60244"/><use xlink:href="#p" x="269.37476" y="392.22532"/><use xlink:href="#q" x="277.01407" y="392.22532"/><use xlink:href="#r" x="289.38815" y="392.22532"/></svg>