<svg xmlns="http://www.w3.org/2000/svg" xmlns:xlink="http://www.w3.org/1999/xlink" width="340.556pt" height="372.727pt" viewBox="0 0 340.556 372.727"><defs><path id="c" d="M.59375-3.46875c0 2.14063.73438 3.70313 3.04688 3.70313 3.42187 0 4.90625-3.45313 5.70312-7.04688.21875-1.09375.39063-2.25.39063-3.29687 0-2.07813-.67188-3.76563-3.03125-3.76563-4.46875 0-6.10938 6.67188-6.10938 10.40625m1.70313.65625c0-1.28125.29687-2.82812.51562-3.89062h4.67188C7-4.5 5.96875-.3125 3.76563-.3125c-1.14063 0-1.46875-1.09375-1.46875-2.5m.67187-4.57812C3.29688-8.98437 4.3125-13.25 6.5625-13.25c1.1875 0 1.51563 1.14063 1.51563 2.5 0 1.21875-.28125 2.59375-.4375 3.35938Zm0 0"/><path id="d" d="M1.6875-5.28125c0 2.15625 1.57813 3.73438 3.75 3.73438 2.09375 0 3.65625-1.57813 3.65625-3.73438 0-2.07812-1.5625-3.65625-3.65625-3.65625-2.17187 0-3.75 1.57813-3.75 3.65625m0 0"/><path id="e" d="M.59375-.73437c0 .53125.4375.95312 1.20313.95312 1.26562 0 1.98437-1.28125 2.76562-2.53125l.75-1.23437h.04688L5.6875-2.0625C6.04688-.57812 6.39063.21875 7.34375.21875 8.71875.21875 9.4375-1.1875 10-2.32812l-.48437-.26563C9.0625-1.75 8.54688-.75 8.01563-.75c-.35938 0-.48438-.42187-.90625-2.09375l-.59375-2.45312c.67187-1.1875 1.625-2.6875 2.15625-2.6875.5625 0 .57812.29687 1.14062.29687.42188 0 .79688-.39062.79688-.89062 0-.57813-.4375-.8125-.95313-.8125-1 0-1.82812.89062-2.48437 1.95312l-.82813 1.26563H6.3125L5.54688-9.3125l-.09375-.07812-3.07813.9375L2.40625-8 3.875-8.10937c.3125 0 .4375.14062.625.9375l.65625 2.71875-.51562.89062c-.79688 1.375-1.5 2.34375-1.95313 2.34375-.53125 0-.67187-.45312-1.28125-.45312-.46875 0-.8125.48437-.8125.9375m0 0"/><path id="f" d="M-.35937 0h4.21875l.125-.53125-1.03125-.10937c-.25-.01563-.34375-.14063-.34375-.3125q0-.16407.09375-.375C3.32813-2.53125 3.92188-3.75 4.625-5h4.1875l.46875 3.85938s-.10937.46875-.5.5l-1 .10937L7.6875 0h4.59375l.125-.53125-.71875-.0625c-.57812-.0625-.65625-.32812-.76562-1.09375l-1.35938-11.25H8.21875L5.07813-7.42187C4.125-5.75 2.5625-2.96875 1.875-1.84375 1.28125-.875.95313-.67187.375-.60937l-.60937.07812ZM5-5.71875l3.04688-5.48437.67187 5.48437Zm0 0"/><path id="g" d="M1.3125-5.25c0 2.6875 1.3125 4.85938 4.40625 4.85938h3.92188v-1.07813H5.71875c-2.32812 0-3.04687-1.60937-3.23437-3.26562h5.40625v-1.09375H2.48438c.20312-1.67188.875-3.20313 3.23437-3.20313h3.92188V-10.125H5.71875c-3.10937 0-4.40625 2.1875-4.40625 4.875m0 0"/><path id="k" d="M1.60938-5.28125c0 4.21875.95312 8.85938 4.92187 9.03125v-.5625c-1.32812-.26562-3.42187-1.90625-3.42187-8.46875 0-6.5 1.98437-8.15625 3.42187-8.45312v-.5625C2.5625-14.14062 1.60938-9.5 1.60938-5.28125m0 0"/><path id="l" d="M1 0h3.35938v-5.25h1.17187L8.5625 0h3.40625L8.875-5.42187c1.67188-.51563 2.6875-2.15625 2.6875-3.6875 0-2.17188-1.65625-3.84375-3.92187-3.84375H1Zm.9375-.9375v-11.07812h1.48438V-.9375Zm2.42188-5.25v-5.82812H7.6875v5.82812Zm2.29687.9375h1.48438l2.39062 4.3125h-1.5ZM8.625-6.3125v-5.625c1.25.32813 2.04688 1.67188 2.04688 2.82813 0 1.1875-.89063 2.59375-2.04688 2.79687m0 0"/><path id="m" d="M1.10938 3.1875V3.75c3.96875-.17187 4.92187-4.8125 4.92187-9.03125s-.95312-8.85937-4.92187-9.01562v.5625c1.4375.29687 3.42187 1.95312 3.42187 8.45312 0 6.5625-2.07812 8.20313-3.42187 8.46875m0 0"/><path id="h" d="m.9375-3.84375.17188 3C1.9375-.0625 3.5.28125 4.8125.28125c3.3125 0 4.625-1.89062 4.625-3.79687 0-2.21875-1.5-3.26563-3.6875-4.0625l-.60937-.21875C3.875-8.28125 2.84375-9.07812 2.84375-10.1875c0-1.375.8125-2.39062 2.39063-2.39062 1.60937 0 2.51562.90625 2.8125 2.79687H8.625v-2.625c-.64062-.5-1.89062-.82812-3.17187-.82812-2.28125 0-4.3125 1.15625-4.3125 3.625 0 1.96875 1.5625 2.98437 3.53125 3.67187l.34375.14063c.8125.32812 2.60937 1.15625 2.60937 2.82812C7.625-1.35937 6.59375-.375 4.92188-.375c-1.75 0-2.90625-1.375-3.39063-3.46875Zm0 0"/><path id="i" d="M.89063-6.46875c0 2.09375.57812 3.82813 1.59375 4.9375C3.54688-.35937 5.07813.28125 7.125.28125s3.57813-.64062 4.64063-1.8125c1.01562-1.10937 1.59375-2.84375 1.59375-4.9375s-.57813-3.82812-1.59375-4.9375c-1.0625-1.17187-2.59375-1.82812-4.64063-1.82812s-3.57812.65625-4.64062 1.82812C1.46875-10.29687.89063-8.5625.89063-6.46875m2.09375 0c0-2.75.8125-6.10937 4.14062-6.10937s4.14063 3.35937 4.14063 6.10937S10.45313-.375 7.125-.375 2.98438-3.71875 2.98438-6.46875m0 0"/><path id="j" d="M.375-.15625.53125 0H6.0625l.48438-1.85937-.39063-.07813c-.3125.70313-.54687.79688-1.07812.79688H1.73438c.21874-.625.90625-1.5 2.17187-2.35938C5.23438-4.39062 6.1875-5 6.1875-6.4375c0-1.8125-1.25-2.45312-2.6875-2.45312-1.78125 0-2.79687 1.03125-2.79687 1.8125 0 .48437.53125.70312.8125.70312.25 0 .375-.14062.4375-.39062.20312-.92188.6875-1.64063 1.45312-1.64063.92188 0 1.21875.79688 1.21875 1.73438 0 1.26562-.57812 2.10937-1.79687 3.15625C1.15625-2.07812.57813-1.125.375-.15625m0 0"/><clipPath id="a"><path d="M56 .10547h2V341h-2Zm0 0"/></clipPath><clipPath id="b"><path d="M54 .10547h6V3h-6Zm0 0"/></clipPath></defs><path fill="none" stroke="#000" stroke-miterlimit="10" stroke-width=".39798" d="M.19922 283.40234h339.32033"/><path fill="none" stroke="#000" stroke-linecap="round" stroke-linejoin="round" stroke-miterlimit="10" stroke-width=".39798" d="M337.64844 281.01172c.3789 1.4336 1.21875 2.10937 2.07031 2.39062-.85156.27735-1.6914.95313-2.07031 2.38672"/><g clip-path="url(#a)"><path fill="none" stroke="#000" stroke-miterlimit="10" stroke-width=".39798" d="M56.8164 340.01953V.6992"/></g><g clip-path="url(#b)"><path fill="none" stroke="#000" stroke-linecap="round" stroke-linejoin="round" stroke-miterlimit="10" stroke-width=".39798" d="M54.42969 2.57031C55.86329 2.19141 56.53906 1.35156 56.8164.5c.28125.85156.95703 1.6914 2.39062 2.07031"/></g><path fill="none" stroke="#007F7F" stroke-dasharray="2.984944521 2.984944521" stroke-miterlimit="10" stroke-width=".39798" d="m279.85939 322.72656 2.41406-17.95312.99219-18.07813-.46094-18.10156-1.91016-18.01172-3.33593-17.80078-4.75782-17.48047-6.1211-17.04297-7.48437-16.4961-8.76953-15.84765-10-15.08985-11.1914-14.25-12.27344-13.3164-13.31641-12.27735-14.2461-11.1875-15.09765-10-15.84766-8.76953-16.49219-7.48438-17.04687-6.125-17.47657-4.7539-17.80078-3.33204-18.00781-1.91015-18.10547-.46485-18.07813.99219-17.94922 2.41797"/><path fill="none" stroke="#007F7F" stroke-miterlimit="10" stroke-width=".39798" d="m112.57813 273.57031-.39453-2.01953-.46875-2.0039-.54297-1.98829-.60938-1.96484-.68359-1.9414-.7539-1.91798-.82423-1.88672-.88671-1.85546-.95704-1.82422-1.02343-1.78516-1.08594-1.75-1.14844-1.70703-1.21484-1.66406-1.26953-1.6211-1.33203-1.57031L98 244.54687l-1.4414-1.46875-1.4922-1.41797-1.53905-1.36328-1.59375-1.3086-1.63672-1.24609-1.6836-1.1875-1.72265-1.125-1.42188-.85546"/><path fill="none" stroke="#007F7F" stroke-linecap="round" stroke-linejoin="round" stroke-miterlimit="10" stroke-width=".39797" d="M85.83594 237.58203c.41797-1.42187.04687-2.4336-.53907-3.11328.8711.20313 1.94141.0586 3.00782-.97656"/><use xlink:href="#c" x="111.92807" y="247.99814" fill="#007F7F"/><path fill="none" stroke="#000" stroke-miterlimit="10" stroke-width=".39798" d="m56.8164 283.40234 223.04299-39.32812"/><use xlink:href="#d" x="274.47316" y="248.54144" fill="#FF7F00"/><use xlink:href="#e" x="286.88597" y="248.66128" fill="#FF7F00"/><path fill="none" stroke="#000" stroke-miterlimit="10" stroke-width=".39798" d="M56.8164 283.40234 170.0586 87.26561"/><use xlink:href="#d" x="164.67331" y="91.73288" fill="#FF7F00"/><use xlink:href="#f" x="177.08612" y="80.01615" fill="#FF7F00"/><use xlink:href="#e" x="190.71717" y="80.01615" fill="#FF7F00"/><use xlink:href="#f" x="123.68275" y="361.33738"/><use xlink:href="#g" x="141.17426" y="361.33738"/><use xlink:href="#h" x="156.15641" y="361.33738"/><use xlink:href="#i" x="166.26527" y="361.33738"/><use xlink:href="#j" x="180.51266" y="365.71567"/><use xlink:href="#k" x="188.76989" y="361.33738"/><use xlink:href="#l" x="196.41124" y="361.33738"/><use xlink:href="#m" x="208.78862" y="361.33738"/></svg>