<svg xmlns="http://www.w3.org/2000/svg" xmlns:xlink="http://www.w3.org/1999/xlink" width="305.458pt" height="144.72pt" viewBox="0 0 305.458 144.72"><defs><path id="a" d="M.20313 0H5.625l.125-.53125-1.40625-.10937C4-.65625 3.85938-.8125 3.85938-1.09375c0-.125.01562-.23437.0625-.39062l1.03125-4.625H7.4375c1.375 0 1.625.26562 1.625 1.0625 0 .15625 0 .32812-.01562.53125h.5625l.875-3.92188h-.5625c-.46875 1.3125-.6875 1.60938-2.34375 1.60938H5.10938l1.10937-4.89063c.125-.46875.21875-.57812.5625-.57812H9.0625c1.84375 0 2.20313.48437 2.20313 1.46875 0 .48437-.0625.98437-.0625.98437h.57812l.6875-3.07812h-9.5l-.125.53125 1.10938.09375c.32812.03125.46875.1875.46875.48437 0 .09375-.03125.23438-.0625.375L2.125-1.48437c-.14062.54687-.3125.8125-.76562.84375l-1.0625.10937Zm0 0"/><path id="b" d="M.20313 0H9.9375l.96875-3.28125h-.5625C9.39063-.96875 8.54688-.65625 6.25-.65625c-2.21875 0-2.32812-.28125-2.32812-.78125 0-.1875.0625-.46875.14062-.84375l.95313-4.10937h2.4375c1.39062 0 1.65625.28125 1.65625 1.09375 0 .17187 0 .32812-.01563.51562h.54688l.875-3.89062H9.9375C9.46875-7.375 9.26563-7.07812 7.625-7.07812H5.17188l1.04687-4.65625c.10938-.45313.21875-.5625.54688-.5625h2.25c1.82812 0 2.20312.48437 2.20312 1.5 0 .45312-.0625.96875-.0625.96875h.5625l.6875-3.09375h-9.4375l-.14062.53125 1.125.07812c.32812.01563.46875.15625.46875.45313 0 .125-.03125.26562-.0625.4375L2.125-1.54687c-.15625.625-.3125.84375-.76562.89062l-1.0625.125Zm0 0"/><path id="c" d="M1.70313 3.73438h1.26562l5.125-18.01563h-1.25Zm0 0"/><path id="d" d="M2.1875-1.25c0 .875.375 1.46875 1.4375 1.46875 1.78125 0 3.75-1.96875 4.875-4.14062h.03125l-.60937 2.125C7.8125-1.40625 7.75-1.09375 7.75-.8125c0 .65625.32813 1.03125 1.01563 1.03125 1.35937 0 2.46875-1.26562 3.125-2.67187l-.4375-.26563C11.07813-2.09375 10.25-.75 9.71875-.75c-.23437 0-.32812-.17187-.32812-.42187 0-.15626.03125-.35938.09375-.57813L11.5-9.39062l-1.67187.21875C9.28125-7.26562 8.96875-6.26562 8.5-5.125 7.67188-3.23437 6.04688-.75 4.5-.75c-.40625 0-.59375-.25-.59375-.73437 0-.25.03125-.54688.125-.90625l1.79688-6.89063-.09375-.10937-3.40625.51562-.125.46875L3.375-8.3125c.28125.01563.39063.14063.39063.35938 0 .14062-.04688.3125-.10938.53125l-1.29687 4.9375C2.25-2.04687 2.1875-1.625 2.1875-1.25m0 0"/><path id="e" d="M1.67188 2.625h.875V-10h-.875Zm0 0"/><path id="f" d="M.17188 0h3.92187l.07813-.40625L3.25-.46875c-.25-.01562-.35937-.125-.35937-.34375 0-.07812.03125-.15625.0625-.26562l.6875-3.1875h1.6875c.90625 0 1.10937.23437 1.10937.8125 0 .07812 0 .21875-.01562.32812h.40625l.64062-2.8125h-.42187C6.6875-5 6.51563-4.79687 5.4375-4.79687H3.76563l.76562-3.375C4.625-8.5 4.6875-8.5625 4.95313-8.5625h1.45312c1.25 0 1.5.35938 1.51563 1.04688 0 .29687 0 .54687-.01563.6875h.4375l.48438-2.21875H2.10938l-.09375.40625.75.0625c.23437.01562.32812.125.32812.34375 0 .07812-.03125.17187-.0625.28125L1.5-1.09375c-.09375.40625-.21875.59375-.54687.625L.25-.40625Zm0 0"/></defs><use xlink:href="#a" x="47.55948" y="22.10024"/><use xlink:href="#a" x="47.55948" y="135.26729"/><use xlink:href="#b" x="160.73651" y="135.26729"/><use xlink:href="#b" x="160.73651" y="22.10024"/><use xlink:href="#b" x="262.1503" y="134.0736"/><use xlink:href="#c" x="275.83242" y="134.0736"/><use xlink:href="#a" x="285.63661" y="134.0736"/><use xlink:href="#b" x="262.1503" y="20.90655"/><use xlink:href="#c" x="275.83242" y="20.90655"/><use xlink:href="#a" x="285.63661" y="20.90655"/><path fill="none" stroke="#000" stroke-miterlimit="10" stroke-width="1.09388" d="M239.91406 66.32422h12.6875"/><use xlink:href="#d" x="239.91332" y="79.53811"/><use xlink:href="#d" x="126.74627" y="76.8044"/><use xlink:href="#d" x="6.65262" y="73.41696"/><use xlink:href="#e" x="18.94285" y="77.79249"/><use xlink:href="#f" x="23.16084" y="77.79249"/><path fill="none" stroke="#000" stroke-miterlimit="10" stroke-width=".39773" d="M69.20313 15.63671h84.10937"/><path fill="none" stroke="#000" stroke-linecap="round" stroke-miterlimit="10" stroke-width=".39773" d="M69.20312 15.63672h-.35937c-.79297 0-1.42969-.79688-1.42969-1.4336a1.4254 1.4254 0 0 1 1.42969-1.42968"/><path fill="none" stroke="#000" stroke-linecap="round" stroke-linejoin="round" stroke-miterlimit="10" stroke-width=".39773" d="M151.44531 13.25c.375 1.42969 1.21875 2.10547 2.0664 2.38672-.84765.27734-1.6914.95312-2.0664 2.38672"/><path fill="none" stroke="#000" stroke-miterlimit="10" stroke-width=".39773" d="M69.20313 128.80469h84.10937"/><path fill="none" stroke="#000" stroke-linecap="round" stroke-miterlimit="10" stroke-width=".39773" d="M69.20312 128.80469h-.35937c-.79297 0-1.42969-.79688-1.42969-1.4336a1.4254 1.4254 0 0 1 1.42969-1.42968"/><path fill="none" stroke="#000" stroke-linecap="round" stroke-linejoin="round" stroke-miterlimit="10" stroke-width=".39773" d="M151.44531 126.41797c.375 1.42969 1.21875 2.10547 2.0664 2.38672-.84765.27734-1.6914.95312-2.0664 2.38672"/><path fill="none" stroke="#000" stroke-miterlimit="10" stroke-width=".39773" d="M180.3711 128.80469h74.35938"/><path fill="none" stroke="#000" stroke-linecap="round" stroke-linejoin="round" stroke-miterlimit="10" stroke-width=".39773" d="M250.39453 126.41797c.375 1.42969 1.21875 2.10547 2.0664 2.38672-.84765.27734-1.6914.95312-2.0664 2.38672m2.46484-4.77344c.37891 1.42969 1.21875 2.10547 2.06641 2.38672-.84766.27734-1.6875.95312-2.0664 2.38672"/><path fill="none" stroke="#000" stroke-miterlimit="10" stroke-width=".39773" d="M180.3711 15.63671h74.35938"/><path fill="none" stroke="#000" stroke-linecap="round" stroke-linejoin="round" stroke-miterlimit="10" stroke-width=".39773" d="M250.39453 13.25c.375 1.42969 1.21875 2.10547 2.0664 2.38672-.84765.27734-1.6914.95312-2.0664 2.38672m2.46484-4.77344c.37891 1.42969 1.21875 2.10547 2.06641 2.38672-.84766.27734-1.6875.95312-2.0664 2.38672"/><path fill="none" stroke="#000" stroke-miterlimit="10" stroke-width=".39773" d="M53.875 29.125v85.79297"/><path fill="none" stroke="#000" stroke-linecap="round" stroke-linejoin="round" stroke-miterlimit="10" stroke-width=".39773" d="M56.25781 113.04688c-1.42969.3789-2.10547 1.21875-2.38281 2.0703-.28125-.85155-.95703-1.6914-2.38672-2.0703"/><path fill="none" stroke="#000" stroke-miterlimit="10" stroke-width=".39773" d="M167.04297 29.125v85.79297"/><path fill="none" stroke="#000" stroke-linecap="round" stroke-linejoin="round" stroke-miterlimit="10" stroke-width=".39773" d="M169.42969 113.04688c-1.4336.3789-2.10938 1.21875-2.38672 2.0703-.28125-.85155-.95703-1.6914-2.38672-2.0703"/><path fill="none" stroke="#000" stroke-miterlimit="10" stroke-width=".39773" d="M280.21095 31.67187v80.69922"/><path fill="none" stroke="#000" stroke-linecap="round" stroke-linejoin="round" stroke-miterlimit="10" stroke-width=".39773" d="M282.59766 110.5c-1.4336.3789-2.10938 1.22266-2.38672 2.07031-.28125-.84765-.95703-1.6914-2.38672-2.07031"/></svg>