<svg xmlns="http://www.w3.org/2000/svg" xmlns:xlink="http://www.w3.org/1999/xlink" width="283.863pt" height="150.295pt" viewBox="0 0 283.863 150.295"><defs><clipPath id="a"><path d="M.59375 126H227v1H.59375Zm0 0"/></clipPath><clipPath id="c"><path d="M.59375 8H63v125H.59375Zm0 0"/></clipPath><clipPath id="e"><path d="M220 7h63.13281v126H220Zm0 0"/></clipPath><clipPath id="f"><path d="M57 13h226.13281v1H57Zm0 0"/></clipPath><clipPath id="g"><path d="M.59375 8h282.53906v125H.59375Zm0 0"/></clipPath><path id="b" d="M.59375-.73437c0 .53125.4375.95312 1.1875.95312 1.26563 0 1.98438-1.26562 2.76563-2.51562l.75-1.23438h.03125l.34375 1.46875C6.03125-.57812 6.35938.21875 7.3125.21875c1.375 0 2.09375-1.40625 2.64063-2.53125l-.46875-.26562C9.01563-1.75 8.5-.75 7.98438-.75c-.34375 0-.48438-.42187-.90625-2.07812l-.59375-2.45313c.67187-1.1875 1.625-2.67187 2.15625-2.67187.5625 0 .57812.29687 1.14062.29687.40625 0 .78125-.39062.78125-.89062 0-.57813-.4375-.8125-.95312-.8125-.98438 0-1.8125.89062-2.46875 1.9375l-.8125 1.28125h-.04688l-.75-3.14063-.09375-.07812-3.07812.9375.04687.45312 1.45313-.09375c.29687 0 .4375.125.625.92188l.65625 2.70312-.51563.89063C3.82813-2.1875 3.14063-1.20312 2.67188-1.20312c-.53125 0-.67188-.46875-1.26563-.46875-.46875 0-.8125.48437-.8125.9375m0 0"/><path id="d" d="M0 3.48438C0 3.98438.5625 4.5 1.375 4.5c1.57813 0 2.25-1.17187 3.90625-4 .375-.64062 1.5-2.60937 2.65625-4.5C9-5.75 10.17188-7.54687 10.17188-8.3125c0-.65625-.20313-1.04687-.34375-1.04687-.34375 0-.98438.15625-1.45313.46875 0 0-.0625 1.90625-.25 2.5625C7.82813-5.28125 6.73438-3.25 5.51563-1.125h-.0625c-.14063-2.85937-.5-6.78125-.75-8.15625l-.14063-.07812-3.14062.89062.0625.48438 1.29687-.04688c.375 0 .45313.3125.60938 1.26563C3.59375-5.3125 4-1.71875 4-.23437c0 .54687-.01562 1.3125-.4375 2.29687-.32812.76563-.8125 1.32813-1.1875 1.32813-.67187 0-.75-1.03125-1.42187-1.03125-.48438 0-.95313.59375-.95313 1.125m0 0"/><path id="h" d="M1.59375-4.71875h4.57813v4.57813H7.25v-4.57813h4.59375V-5.8125H7.25v-4.57812H6.17188v4.57812H1.59375Zm0 0"/><path id="i" d="M1.59375-4.71875h10.25V-5.8125h-10.25Zm0 0"/></defs><g clip-path="url(#a)"><path fill="none" stroke="red" stroke-miterlimit="10" stroke-width=".39664" d="M.79297 126.39844h225.32028"/></g><path fill="none" stroke="red" stroke-linecap="round" stroke-linejoin="round" stroke-miterlimit="10" stroke-width=".39664" d="M224.2461 124.01953c.3789 1.42578 1.21874 2.10156 2.0625 2.3789-.84376.27735-1.6836.95313-2.0625 2.37891"/><use xlink:href="#b" x="220.82344" y="142.76532" fill="red"/><g clip-path="url(#c)"><path fill="none" stroke="red" stroke-miterlimit="10" stroke-width=".39664" d="m.79297 126.39844 56.25-112.5039"/></g><path fill="none" stroke="red" stroke-linecap="round" stroke-linejoin="round" stroke-miterlimit="10" stroke-width=".39661" d="M54.08203 14.5c1.44531.30078 2.42578-.14844 3.05078-.78125-.1289.8789.09766 1.9336 1.20703 2.90625"/><use xlink:href="#d" x="38.88985" y="15.97108" fill="red"/><g clip-path="url(#e)"><path fill="none" stroke="#000" stroke-dasharray="2.9748721639 2.9748721639" stroke-miterlimit="10" stroke-width=".39664" d="m226.50778 126.39844 56.42968-112.85936"/></g><g clip-path="url(#f)"><path fill="none" stroke="#000" stroke-dasharray="2.9748721639 2.9748721639" stroke-miterlimit="10" stroke-width=".39664" d="M57.22265 13.53908h225.71481"/></g><g clip-path="url(#g)"><path fill="none" stroke="#00ADEF" stroke-miterlimit="10" stroke-width=".39664" d="M.79297 126.39844 282.57027 13.6875"/></g><path fill="none" stroke="#00ADEF" stroke-linecap="round" stroke-linejoin="round" stroke-miterlimit="10" stroke-width=".39662" d="M279.95313 12.17188c.8828 1.18359 1.91015 1.5 2.80078 1.4414-.6836.57422-1.21094 1.51172-1.03125 2.97656"/><use xlink:href="#b" x="171.6282" y="33.41526" fill="#00ADEF"/><use xlink:href="#h" x="186.16524" y="33.41526" fill="#00ADEF"/><use xlink:href="#d" x="202.32853" y="33.41526" fill="#00ADEF"/><path fill="none" stroke="#007F7F" stroke-miterlimit="10" stroke-width=".39664" d="m57.22265 13.53908 168.957 112.6406"/><path fill="none" stroke="#007F7F" stroke-linecap="round" stroke-linejoin="round" stroke-miterlimit="10" stroke-width=".39662" d="M225.94531 123.16406c-.47656 1.39844-.15234 2.42188.39844 3.125-.85937-.23828-1.92969-.14453-3.03515.83594"/><use xlink:href="#b" x="137.77201" y="114.71988" fill="#007F7F"/><use xlink:href="#i" x="152.30905" y="114.71988" fill="#007F7F"/><use xlink:href="#d" x="168.47234" y="114.71988" fill="#007F7F"/></svg>