<svg xmlns="http://www.w3.org/2000/svg" xmlns:xlink="http://www.w3.org/1999/xlink" width="303.139pt" height="392.313pt" viewBox="0 0 303.139 392.313"><defs><path id="a" d="M.6875-1.25C.54688-.71875 1.15625.45313 3.07813.9375c1.875.46875 3.28125-.15625 3.6875-1.78125.4375-1.71875-.95313-2.5625-1.59375-2.79687l.01562-.0625c.73438.04687 1.95313-.17188 2.26563-1.40625.375-1.46875-.70313-2.375-2.04688-2.70313-1.625-.40625-2.8125.26563-2.96875.92188-.10937.42187.34375.78125.5625.82812.1875.04688.32813-.04687.4375-.21875.5-.82812 1.0625-1.25 1.75-1.09375.95313.25.95313 1.1875.78125 1.875-.15625.67188-.64062 1.67188-1.67187 1.40625-.57813-.14062-.92188-.375-1.125-.42187-.17188-.04688-.28125.09375-.34375.32812-.0625.25-.01563.39063.15625.4375.20312.04688.60937.03125 1.1875.17188.96875.25 1.375 1.1875 1.0625 2.40625C4.875.28124 4.0625.6875 3.20313.46875c-.78125-.1875-1.15625-.92187-1.21875-1.8125-.01563-.25-.125-.4375-.3125-.48437-.29688-.0625-.875.09374-.98438.57812m0 0"/><path id="b" d="m.89063-2.48437.07812.32812L4.375-1.3125 4.0625-.01562c-.10937.40625-.28125.42187-.57812.39062L2.65625.25 2.5625.64063l3.48438.875.09375-.39063L5.5625.90625C5.32813.79688 5.23438.70313 5.34375.29688L5.65625-1l1.29688.32813.17187-.64063-1.29687-.32812 1.39062-5.5625-1.07812-.26563c-1.67188 1.5-3.60938 3.3125-5.25 4.98438m1.125-.09375c1.04687-1.15625 2.28125-2.375 3.57812-3.625l-1.04687 4.25Zm0 0"/><path id="c" d="m1.375-.34375 4.25-1.0625-.09375-.39062-1.04687.15624c-.28125.04688-.4375-.01562-.54688-.48437l-1.875-7.46875-.10937-.0625L-.64062-8.5l.07812.32813 1.125-.125c.26563-.03125.34375.04687.45313.4375l1.51562 6.07812c.10938.46875.03125.59375-.26562.70313l-.98438.34375Zm0 0"/><path id="d" d="m-.39062-2.60937.23437.23437L3.25-3.21875l.3125 1.29688c.10938.40625-.03125.51562-.32812.60937l-.76563.28125.09375.39063 3.48438-.875-.09375-.39063-.60938.09375c-.26562.01563-.39062-.01562-.5-.42187l-.3125-1.29688 1.29688-.32812L5.65625-4.5l-1.29687.32813-1.39063-5.5625-1.07812.26562C1.125-7.375.28124-4.875-.39062-2.60937m.9375-.625c.39062-1.5.90625-3.15625 1.48437-4.875l1.04688 4.25Zm0 0"/><path id="e" d="M.95313-1.09375c-.25.5.07812 1.78125 1.84375 2.67188 1.73437.85937 3.25.54687 4-.9375.78125-1.57813-.39063-2.70313-.95313-3.0625l.03125-.04688c.6875.20313 1.9375.23438 2.51563-.90625.67187-1.35937-.1875-2.45312-1.4375-3.07812-1.48438-.75-2.78125-.34375-3.09375.25-.1875.39062.17187.82812.375.9375.17187.09375.32812.03125.48437-.10938.65625-.70312 1.32813-1 1.95313-.6875.875.4375.67187 1.375.35937 2-.3125.60938-1 1.46875-1.9375 1-.53125-.26562-.82812-.5625-1-.65625-.17187-.09375-.32812.01563-.4375.23438s-.09375.375.07813.46875c.17187.09375.57812.15625 1.10937.42187.89063.4375 1.09375 1.46875.53125 2.57813-.67187 1.34375-1.5625 1.5625-2.35937 1.15625C2.3125.78125 2.09375 0 2.21875-.875c.04688-.26562-.01562-.45312-.20312-.53125-.26563-.14062-.84375-.125-1.0625.3125m0 0"/><path id="f" d="m1.40625-2.21875.01563.32813L4.5625-.32812 3.96875.85938c-.1875.375-.35937.35937-.64062.25L2.54688.82812l-.1875.35938 3.21875 1.59375.1875-.35937-.53125-.32813c-.20313-.17187-.26563-.26562-.07813-.64062L5.75.26563 6.9375.875l.29688-.60937-1.1875-.60938 2.5625-5.125-1-.48437C5.65625-4.875 3.375-3.51562 1.40625-2.21875m1.125.125c1.26563-.89062 2.73438-1.8125 4.28125-2.75L4.85938-.9375Zm0 0"/><path id="g" d="M1.26563-.64062 5.1875-2.59375 5-2.95312l-.96875.375c-.26562.10937-.4375.07812-.65625-.35938l-3.4375-6.875-.125-.03125-2.29687 1.6875.15625.29688 1.09375-.35938C-1-8.29687-.90625-8.25-.71875-7.89062l2.79688 5.59375c.21875.4375.15625.59375-.09375.73437L1.07813-1Zm0 0"/><path id="h" d="m-.9375-2.46875.26563.20313 3.14062-1.5625.59375 1.1875c.1875.375.07813.48437-.17187.65625l-.71875.4375.1875.35937 3.21875-1.59375-.1875-.35937-.5625.20312c-.26563.07813-.39063.07813-.57813-.29687l-.59375-1.1875 1.1875-.60938-.29687-.60937-1.1875.60937-2.5625-5.125-1 .48438C-.5-7.4375-.78125-4.82812-.9375-2.46875m.78125-.8125c.04688-1.54687.20313-3.28125.375-5.0625L2.17188-4.4375Zm0 0"/><path id="i" d="M1.23438-.73437C.84375-.34375.75.96875 2.15625 2.375 3.53125 3.75 5.0625 3.9375 6.25 2.75c1.25-1.25.5-2.6875.04688-3.20312L6.34375-.5c.60938.42188 1.76563.85938 2.67188-.04687 1.07812-1.07813.60937-2.39063-.375-3.375-1.17188-1.17188-2.53125-1.21875-3-.75-.3125.3125-.125.84375.04687 1.01562.14063.14063.29688.10938.48438.04688.85937-.45313 1.5625-.53125 2.0625-.03125.70312.70312.21875 1.5-.28125 2-.48438.48437-1.40625 1.09375-2.15625.34375-.42188-.42188-.60938-.79688-.75-.9375-.14063-.14063-.29688-.07813-.46875.09375-.17188.17187-.23438.32812-.09375.46875.14062.14062.51562.32812.9375.75.70312.70312.54687 1.73437-.32813 2.60937-1.0625 1.0625-1.95312.98438-2.57812.35938-.5625-.5625-.53125-1.375-.125-2.1875.125-.21875.10937-.42188-.03125-.5625-.20313-.20313-.76563-.39063-1.125-.03126m0 0"/><path id="j" d="m2.04688-1.67187-.10938.32812L4.40625 1.125l-.9375.9375c-.29687.29688-.45312.23438-.67187.04688l-.65625-.53125-.28125.28124 2.54687 2.54688.28125-.28125-.375-.46875c-.15625-.21875-.1875-.34375.10938-.64062l.9375-.9375.9375.9375.48437-.48438-.9375-.9375 4.04688-4.04687L9.09375-3.25c-2.20312.42188-4.76562.98438-7.04687 1.57813m1.01562.48437c1.46875-.4375 3.15625-.84375 4.92188-1.26562L4.89063.64063Zm0 0"/><path id="k" d="m1-1 3.09375-3.09375L3.8125-4.375 3-3.71875c-.21875.1875-.375.21875-.71875-.125l-5.45312-5.45312-.10938.01562-1.64062 2.32813.23437.23437.90625-.6875c.20313-.14062.32813-.14062.60938.14063l4.4375 4.4375c.34375.34375.3125.5.125.71875l-.67188.82812Zm0 0"/><path id="l" d="m-1.67187-2.04687.32812.10937L1.125-4.40625l.9375.9375c.29688.29688.23438.45313.04688.67188l-.53125.65625.28124.28125 2.54688-2.54688L4.125-4.6875l-.46875.375c-.21875.15625-.34375.1875-.64062-.10937l-.9375-.9375.9375-.9375-.48438-.48438-.9375.9375-4.04687-4.04687-.79688.79687c.42188 2.20313.98438 4.76563 1.57813 7.04688m.48437-1.01563c-.4375-1.46875-.84375-3.15625-1.26562-4.92187L.64063-4.89062Zm0 0"/><path id="m" d="M0 0h5.10938l.125-.53125-1.125-.10937c-.3125-.01563-.46875-.15626-.46875-.45313 0-.125.03125-.28125.07812-.45312l1.01563-4.53125h1.125c1.8125 0 2.07812.4375 2.07812 2.625C7.9375-1.1875 7.9375 0 9.89063 0h1.45312l.1875-.53125c-1.3125-.1875-1.76562-.25-1.76562-2.65625 0-1.90625-.17188-2.71875-1.71875-3.23437 2.28125-.3125 3.84375-1.64063 3.84375-3.5 0-1.32813-.57813-3-4.07813-3H2.78125l-.14062.54687 1.10937.07813c.32813.01562.46875.17187.46875.48437 0 .125-.03125.26563-.0625.4375l-2.25 9.82813c-.15625.65625-.3125.84375-.76562.89062l-1.04688.125Zm4.89063-6.73437 1.09375-4.82813c.14062-.54687.20312-.71875 1.60937-.71875 1.20313 0 2.34375.53125 2.34375 2.17188 0 2.21875-1.45312 3.375-3.85937 3.375Zm0 0"/><path id="o" d="m1.39063-12.375.75.07813c.4375.04687.60937.21875.70312.89062.21875 1.70313.4375 3.5625.67188 5.42188L4.3125 0h1.29688L9.375-6.4375c1.21875-2.0625 2.375-3.98437 3.125-5.125.42188-.64062.70313-.73437 1.6875-.8125l.10938-.54687h-4.125l-.09375.54687 1.03125.07813c.21875.01562.3125.09375.3125.25 0 .32812-1.39063 2.8125-2.95313 5.53125L5.78125-1.875l-.67187-4.96875c-.21875-1.64062-.57813-4.65625-.57813-5.04687 0-.21875.07813-.35938.34375-.39063l1.1875-.09375.09375-.54687H1.48438Zm0 0"/><clipPath id="n"><path d="M274 302h28.28125v28H274Zm0 0"/></clipPath><clipPath id="p"><path d="M274 206h28.28125v27H274Zm0 0"/></clipPath><clipPath id="q"><path d="M274 110h28.28125v27H274Zm0 0"/></clipPath><clipPath id="r"><path d="M274 14h28.28125v27H274Zm0 0"/></clipPath></defs><path fill="none" stroke="#000" stroke-miterlimit="10" stroke-width=".39737" d="m288.51563 364-96.1055-24.02735"/><use xlink:href="#a" x="233.18577" y="366.56276"/><path fill="none" stroke="#000" stroke-miterlimit="10" stroke-width="1.09289" d="m232.52734 369.20313 6.83985 1.71093"/><use xlink:href="#b" x="229.55262" y="381.09686"/><path fill="none" stroke="#000" stroke-miterlimit="10" stroke-width=".39737" d="m288.51563 315.9453-96.1055 24.02735"/><use xlink:href="#c" x="231.70602" y="307.47091"/><path fill="none" stroke="#000" stroke-miterlimit="10" stroke-width="1.09289" d="m232.36719 310.11328 6.83984-1.71093"/><use xlink:href="#d" x="235.33917" y="322.00502"/><path fill="none" stroke="#000" stroke-miterlimit="10" stroke-width=".39737" d="m288.51563 267.8906-96.1055-24.02735"/><use xlink:href="#a" x="233.18577" y="270.45673"/><path fill="none" stroke="#000" stroke-miterlimit="10" stroke-width="1.09289" d="m232.52734 273.09766 6.83985 1.71093"/><use xlink:href="#b" x="229.55262" y="284.99083"/><path fill="none" stroke="#000" stroke-miterlimit="10" stroke-width=".39737" d="m288.51563 219.83981-96.1055 24.02344"/><use xlink:href="#c" x="231.70602" y="211.36488"/><path fill="none" stroke="#000" stroke-miterlimit="10" stroke-width="1.09289" d="m232.36719 214.00781 6.83984-1.71093"/><use xlink:href="#d" x="235.33917" y="225.89899"/><path fill="none" stroke="#000" stroke-miterlimit="10" stroke-width=".39737" d="m288.51563 171.78511-96.1055-24.02735"/><use xlink:href="#a" x="233.18577" y="174.35169"/><path fill="none" stroke="#000" stroke-miterlimit="10" stroke-width="1.09289" d="m232.52734 176.99219 6.83985 1.71093"/><use xlink:href="#b" x="229.55262" y="188.8858"/><path fill="none" stroke="#000" stroke-miterlimit="10" stroke-width=".39737" d="m288.51563 123.73041-96.1055 24.02735"/><use xlink:href="#c" x="231.70602" y="115.25985"/><path fill="none" stroke="#000" stroke-miterlimit="10" stroke-width="1.09289" d="m232.36719 117.89844 6.83984-1.71094"/><use xlink:href="#d" x="235.33869" y="129.79202"/><path fill="none" stroke="#000" stroke-miterlimit="10" stroke-width=".39737" d="m288.51563 75.67962-96.1055-24.02735"/><use xlink:href="#a" x="233.18577" y="78.24566"/><path fill="none" stroke="#000" stroke-miterlimit="10" stroke-width="1.09289" d="m232.52734 80.88672 6.83985 1.71094"/><use xlink:href="#b" x="229.55262" y="92.77976"/><path fill="none" stroke="#000" stroke-miterlimit="10" stroke-width=".39737" d="m288.51563 27.62492-96.1055 24.02735"/><use xlink:href="#c" x="231.70602" y="19.15382"/><path fill="none" stroke="#000" stroke-miterlimit="10" stroke-width="1.09289" d="m232.36719 21.79297 6.83984-1.70703"/><use xlink:href="#d" x="235.33917" y="33.68792"/><path fill="none" stroke="#000" stroke-miterlimit="10" stroke-width=".39737" d="m192.41013 339.97265-96.1094-48.0547"/><use xlink:href="#e" x="134.09134" y="328.59611"/><path fill="none" stroke="#000" stroke-miterlimit="10" stroke-width="1.09282" d="m132.875 331.03125 6.30469 3.15234"/><use xlink:href="#f" x="127.39201" y="341.995"/><path fill="none" stroke="#000" stroke-miterlimit="10" stroke-width=".39737" d="m192.41013 243.86325-96.1094 48.0547"/><use xlink:href="#g" x="131.36633" y="249.79265"/><path fill="none" stroke="#000" stroke-miterlimit="10" stroke-width="1.09282" d="m132.58203 252.22656 6.3086-3.15234"/><use xlink:href="#h" x="138.06566" y="263.19153"/><path fill="none" stroke="#000" stroke-miterlimit="10" stroke-width=".39737" d="m192.41013 147.75776-96.1094-48.0547"/><use xlink:href="#e" x="134.09134" y="136.38505"/><path fill="none" stroke="#000" stroke-miterlimit="10" stroke-width="1.09282" d="m132.875 138.82031 6.30469 3.15235"/><use xlink:href="#f" x="127.39201" y="149.78393"/><path fill="none" stroke="#000" stroke-miterlimit="10" stroke-width=".39737" d="m192.41013 51.65227-96.1094 48.0508"/><use xlink:href="#g" x="131.36633" y="57.58158"/><path fill="none" stroke="#000" stroke-miterlimit="10" stroke-width="1.09282" d="m132.58203 60.01563 6.3086-3.15235"/><use xlink:href="#h" x="138.06566" y="70.98047"/><path fill="none" stroke="#000" stroke-miterlimit="10" stroke-width=".39737" d="M96.30074 291.91795.19524 195.81246"/><use xlink:href="#i" x="34.50993" y="252.62117"/><path fill="none" stroke="#000" stroke-miterlimit="10" stroke-width="1.0929" d="m32.58594 254.54687 4.98437 4.98438"/><use xlink:href="#j" x="23.91639" y="263.2147"/><path fill="none" stroke="#000" stroke-miterlimit="10" stroke-width=".39737" d="m96.30074 99.70306-96.1055 96.1094"/><use xlink:href="#k" x="30.20126" y="134.69812"/><path fill="none" stroke="#000" stroke-miterlimit="10" stroke-width="1.0929" d="m32.125 136.625 4.98828-4.98828"/><use xlink:href="#l" x="40.79479" y="145.29165"/><path fill="#FFF" d="M301.57422 350.91797h-26.11719v26.16015h26.11719Zm0 0"/><use xlink:href="#m" x="282.07782" y="370.45644"/><g clip-path="url(#n)"><path fill="#FFF" d="M302.28125 302.86719H274.75v26.15625h27.53125Zm0 0"/></g><use xlink:href="#o" x="281.37282" y="322.40292"/><path fill="#FFF" d="M301.57422 254.8125h-26.11719v26.16016h26.11719Zm0 0"/><use xlink:href="#m" x="282.07782" y="274.35041"/><g clip-path="url(#p)"><path fill="#FFF" d="M302.28125 206.75781H274.75v26.16016h27.53125Zm0 0"/></g><use xlink:href="#o" x="281.37282" y="226.29789"/><path fill="#FFF" d="M301.57422 158.70703h-26.11719v26.15625h26.11719Zm0 0"/><use xlink:href="#m" x="282.07782" y="178.24437"/><g clip-path="url(#q)"><path fill="#FFF" d="M302.28125 110.65234H274.75v26.16016h27.53125Zm0 0"/></g><use xlink:href="#o" x="281.37282" y="130.19186"/><path fill="#FFF" d="M301.57422 62.59766h-26.11719V88.7578h26.11719Zm0 0"/><use xlink:href="#m" x="282.07782" y="82.13934"/><g clip-path="url(#r)"><path fill="#FFF" d="M302.28125 14.54688H274.75v26.15625h27.53125Zm0 0"/></g><use xlink:href="#o" x="281.37282" y="34.08682"/><path fill="#FFF" d="M205.46875 326.89063h-26.1211v26.16015h26.1211Zm0 0"/><use xlink:href="#m" x="185.97278" y="346.42968"/><path fill="#FFF" d="M206.17578 230.78516h-27.53125v26.16015h27.53125Zm0 0"/><use xlink:href="#o" x="185.26679" y="250.32365"/><path fill="#FFF" d="M205.46875 134.67969h-26.1211v26.16015h26.1211Zm0 0"/><use xlink:href="#m" x="185.97278" y="154.21861"/><path fill="#FFF" d="M206.17578 38.57031h-27.53125v26.16016h27.53125Zm0 0"/><use xlink:href="#o" x="185.26679" y="58.11258"/><path fill="#FFF" d="M109.36328 278.83984h-26.1211V305h26.1211Zm0 0"/><use xlink:href="#m" x="89.86675" y="298.37716"/><path fill="#FFF" d="M110.0664 86.625H82.53517v26.16016h27.53125Zm0 0"/><use xlink:href="#o" x="89.16176" y="106.1661"/></svg>