<svg xmlns="http://www.w3.org/2000/svg" xmlns:xlink="http://www.w3.org/1999/xlink" width="185.556pt" height="98.04pt" viewBox="0 0 185.556 98.04"><defs><path id="c" d="M0 0h5.625c4.48438 0 5.39063-2.3125 5.39063-3.84375 0-1.95312-1.4375-2.8125-2.8125-3.0625l.03125-.04687c2.46875-.29688 3.5-1.6875 3.5-3.09375 0-1.5-.875-2.78125-4.29688-2.78125H2.75l-.125.53125 1.10938.09375c.3125.03125.45312.17187.45312.46875 0 .10937-.04687.26562-.07812.45312l-2.1875 9.73438c-.14063.625-.32813.84375-.78125.89062l-1.04688.125Zm3.70313-1.42187c0-.14063.03125-.28126.0625-.40625l1.0625-4.76563h.73437c1.84375 0 3.45313.53125 3.45313 2.64063 0 1.65625-1 3.29687-3.48438 3.29687-1.46875 0-1.82812-.29687-1.82812-.76562M4.96875-7.25l.96875-4.29687c.14063-.54688.23438-.65625 1.48438-.65625 1.5625 0 2.42187.79687 2.42187 2.09375 0 1.9375-1.60937 2.85937-3.67187 2.85937Zm0 0"/><path id="e" d="M1.9375-.95312c0 .67187.45313 1.17187 1.15625 1.17187.73438 0 1.15625-.5 1.17188-1.17187 0-.6875-.4375-1.20313-1.17188-1.20313-.70312 0-1.15625.51563-1.15625 1.20313m6.17188 0c0 .67187.45312 1.17187 1.17187 1.17187s1.14063-.5 1.15625-1.17187c0-.6875-.4375-1.20313-1.15625-1.20313s-1.17187.51563-1.17187 1.20313m6.17187 0c0 .67187.45313 1.17187 1.17188 1.17187.73437 0 1.14062-.5 1.15625-1.17187 0-.6875-.42188-1.20313-1.15626-1.20313-.71875 0-1.17187.51563-1.17187 1.20313m0 0"/><path id="i" d="M.20313 0H9.875l.9375-3.25h-.54687C9.3125-.96875 8.48438-.65625 6.20313-.65625c-2.20313 0-2.3125-.26562-2.3125-.76562 0-.20313.0625-.46875.14062-.84375l.9375-4.0625h2.4375c1.375 0 1.625.26562 1.625 1.07812 0 .15625 0 .3125-.01562.51563h.5625l.85937-3.875H9.875c-.48437 1.28125-.67187 1.57812-2.3125 1.57812H5.125l1.04688-4.60937c.10937-.45313.21875-.5625.53125-.5625H8.9375c1.8125 0 2.1875.48437 2.1875 1.48437 0 .45313-.04687.96875-.04687.96875h.54687l.6875-3.07812h-9.375l-.14062.53125 1.125.07812c.32812.01563.45312.15625.45312.45313 0 .125-.01562.26562-.04687.4375L2.10938-1.54687c-.15625.64062-.3125.85937-.76563.89062l-1.04687.125Zm0 0"/><path id="d" d="M.375-.15625.53125 0h5.48438l.46875-1.84375-.375-.07812c-.3125.6875-.54688.79687-1.0625.79687h-3.3125c.20312-.625.89062-1.5 2.14062-2.34375 1.3125-.875 2.25-1.48437 2.25-2.90625 0-1.8125-1.21875-2.45312-2.65625-2.45312-1.76562 0-2.78125 1.03125-2.78125 1.8125 0 .46875.54688.6875.8125.6875.25 0 .375-.14063.4375-.39063.20313-.90625.6875-1.625 1.45313-1.625.90625 0 1.1875.78125 1.1875 1.73438 0 1.25-.5625 2.07812-1.78125 3.125C1.14063-2.0625.5625-1.125.375-.15625m0 0"/><path id="f" d="M-.98437 2.29688c0 .67187.92187.84375 1.40625.84375.48437 0 1.03125-.15625 1.32812-.45313.57813-.51562.9375-1.375 1.28125-2.90625l1.35938-6.23437-.04688-.0625-2.625.39062-.09375.34375c.84375.0625 1.14063.09375 1.14063.28125 0 .09375-.03125.1875-.0625.29688L1.15625 2.09375c-.07812.35938-.1875.51563-.32812.51563-.51563 0-.71875-1-1.125-1s-.6875.40625-.6875.6875M3.03125-8.375c0 .51563.35938.79688.8125.79688.54688 0 .89063-.35938.89063-.9375 0-.54688-.375-.78125-.78125-.78125-.60938 0-.92188.48437-.92188.92187m0 0"/><path id="g" d="M1.40625 0h4.35938v-.40625L4.71875-.5c-.28125-.03125-.42187-.125-.42187-.60937V-8.75l-.07813-.07812-2.79687.46875v.34375l1.125.15625c.25.04687.32812.14062.32812.53125v6.21875c0 .48437-.125.57812-.4375.60937l-1.03125.09375Zm0 0"/><path id="h" d="M1.51563-.64062c0 .5.25.79687.8125.79687 1.01562 0 1.76562-.92187 2.23437-1.92187l-.34375-.20313c-.26562.48438-.8125 1.35938-1.15625 1.35938-.14062 0-.20312-.09376-.20312-.26563 0-.10937.03125-.25.0625-.42187l1.42187-5.15625-.09375-.0625-2.51562.35937-.07813.34375.75.0625c.21875.01563.29688.09375.29688.28125 0 .07813 0 .17188-.03125.3125L1.60938-1.1875c-.0625.20313-.09376.39063-.09376.54688M3.17188-8.375c0 .51563.35937.79688.8125.79688.54687 0 .89062-.35938.89062-.9375 0-.54688-.375-.78125-.78125-.78125-.60937 0-.92187.48437-.92187.92187m0 0"/><clipPath id="a"><path d="M.67969 0H184.4375v97.08984H.67969Zm0 0"/></clipPath><clipPath id="b"><path d="M87 37h97.4375v60.08984H87Zm0 0"/></clipPath></defs><g clip-path="url(#a)"><path fill="none" stroke="#000" stroke-miterlimit="10" stroke-width="1.18393" d="M183.84765 48.92188c0-26.15625-38.16796-47.35938-85.24609-47.35938S13.35938 22.76563 13.35938 48.92188s38.16406 47.35546 85.24218 47.35546 85.2461-21.19922 85.2461-47.35546Zm0 0"/></g><g clip-path="url(#b)"><path fill="none" stroke="#000" stroke-miterlimit="10" stroke-width=".78928" d="M98.60156 96.08203c19.08985-33.0664 47.15625-47.16015 85.33984-47.16015"/></g><path fill="none" stroke="#000" stroke-miterlimit="10" stroke-width=".78928" d="M98.60156 1.76172c-13.7539 23.82031 21.08985 40.58984 44.91406 54.34766"/><path fill="none" stroke="#000" stroke-miterlimit="10" stroke-width=".78928" d="M107.58594 32.30078c-17.39453 30.125-53.9961 19.16797-76.35547 45.8164"/><path fill="none" stroke="#000" stroke-miterlimit="10" stroke-width=".78928" d="M40.21094 13.88672c-27.64063 47.875 77.88672 36.58984 125.76562 64.23047"/><use xlink:href="#c" x="49.44333" y="35.19834"/><use xlink:href="#d" x="60.9863" y="39.53983"/><use xlink:href="#e" x="117.99706" y="27.43139"/><use xlink:href="#e" x="117.99706" y="81.32864"/><use xlink:href="#c" x="73.88896" y="83.03592"/><use xlink:href="#f" x="85.43193" y="87.37741"/><use xlink:href="#c" x="18.00319" y="53.16343"/><use xlink:href="#g" x="29.54616" y="57.50492"/><use xlink:href="#c" x="100.42413" y="57.57919"/><use xlink:href="#h" x="111.9671" y="61.92068"/><use xlink:href="#e" x="144.94617" y="63.36256"/><use xlink:href="#i" x="7.25642" y="19.40202"/></svg>