<svg xmlns="http://www.w3.org/2000/svg" xmlns:xlink="http://www.w3.org/1999/xlink" width="143.799pt" height="119.95pt" viewBox="0 0 143.799 119.95"><defs><clipPath id="a"><path d="M24 .0586h119.59766v119.78124H24Zm0 0"/></clipPath><clipPath id="b"><path d="M18 .0586h125.59766v119.78124H18Zm0 0"/></clipPath><path id="c" d="M-.35937 0h4.21875l.125-.53125L2.9375-.64062c-.23437-.01563-.32812-.14063-.32812-.3125 0-.09376.03125-.23438.09375-.375C3.32813-2.53125 3.92188-3.73437 4.60938-5H8.8125l.45313 3.85938s-.09375.46875-.5.5l-.98438.10937L7.67188 0h4.59375l.125-.53125-.71875-.0625c-.57813-.0625-.65625-.32812-.75-1.09375l-1.375-11.23437H8.21875l-3.14062 5.5C4.125-5.75 2.5625-2.96875 1.875-1.84375 1.26563-.875.95313-.67187.375-.60937l-.60937.07812ZM5-5.70312l3.03125-5.5.6875 5.5Zm0 0"/><path id="d" d="M.20313 0H9.9375l.96875-3.28125h-.5625C9.39063-.96875 8.54688-.65625 6.25-.65625c-2.21875 0-2.32812-.28125-2.32812-.78125 0-.1875.0625-.46875.14062-.84375l.95313-4.10937h2.4375c1.39062 0 1.65625.28125 1.65625 1.09375 0 .17187 0 .32812-.01563.51562h.54688l.875-3.89062H9.9375C9.46875-7.375 9.26563-7.07812 7.625-7.07812H5.17188l1.04687-4.65625c.10938-.45313.21875-.5625.54688-.5625h2.25c1.82812 0 2.20312.48437 2.20312 1.5 0 .45312-.0625.96875-.0625.96875h.5625l.6875-3.09375h-9.4375l-.14062.53125 1.125.07812c.32812.01563.46875.15625.46875.45313 0 .125-.03125.26562-.0625.4375L2.125-1.54687c-.15625.625-.3125.84375-.76562.89062l-1.0625.125Zm0 0"/></defs><g clip-path="url(#a)"><path fill="#FCC" d="M143.39844 59.94922c0-32.96875-26.72266-59.6914-59.6914-59.6914-32.96876 0-59.69532 26.72265-59.69532 59.6914s26.72656 59.69531 59.69531 59.69531 59.6914-26.72656 59.6914-59.69531m0 0"/></g><g clip-path="url(#b)"><path fill="none" stroke="#000" stroke-miterlimit="10" stroke-width=".39794" d="M143.39842 59.94922c0-32.96875-26.72265-59.6914-59.6914-59.6914-32.96874 0-59.6953 26.72265-59.6953 59.6914 0 32.96874 26.72656 59.6953 59.6953 59.6953s59.6914-26.72656 59.6914-59.6953Zm0 0"/></g><path fill="#FFE5CC" stroke="#000" stroke-miterlimit="10" stroke-width=".39794" d="M96.5664 59.94922c0-16.48437-13.35937-29.84765-29.84374-29.84765-16.48438 0-29.84766 13.36328-29.84766 29.84765s13.36328 29.84765 29.84766 29.84765c16.48437 0 29.84374-13.36328 29.84374-29.84765Zm0 0"/><use xlink:href="#c" x="60.30571" y="66.417"/><path fill="none" stroke="#000" stroke-miterlimit="10" stroke-width="1.09447" d="M114.08984 52.39063h12.83203"/><use xlink:href="#c" x="114.08853" y="69.15217"/><use xlink:href="#d" x="6.63173" y="66.417"/></svg>