<svg xmlns="http://www.w3.org/2000/svg" xmlns:xlink="http://www.w3.org/1999/xlink" width="207.253pt" height="119.95pt" viewBox="0 0 207.253 119.95"><defs><path id="c" d="M-.35937 0h4.21875l.10937-.53125L2.9375-.64062c-.23437-.01563-.32812-.14063-.32812-.3125 0-.09376.03125-.23438.09375-.375.60937-1.1875 1.20312-2.40625 1.90625-3.65625h4.1875L9.25-1.125s-.09375.45313-.48437.48438l-1 .10937L7.67188 0H12.25l.125-.53125-.71875-.0625c-.57812-.0625-.65625-.3125-.75-1.09375l-1.375-11.21875H8.20313l-3.14063 5.5c-.95312 1.67188-2.5 4.45313-3.20312 5.5625C1.26563-.875.95313-.67187.375-.60937l-.60937.07812Zm5.34375-5.70312 3.03125-5.48438.6875 5.48438Zm0 0"/><path id="d" d="M0 0h5.65625c4.51563 0 5.42188-2.32812 5.42188-3.875 0-1.96875-1.45313-2.8125-2.8125-3.07812l.01562-.03125c2.48438-.29688 3.53125-1.71875 3.53125-3.125 0-1.51563-.89062-2.79688-4.32812-2.79688H2.76563l-.125.53125 1.10937.10938c.32813.01562.45313.15625.45313.45312 0 .10938-.03125.28125-.07813.45313l-2.20312 9.8125c-.14063.60937-.3125.82812-.76563.89062l-1.0625.125Zm3.73438-1.4375c0-.125.01562-.26562.0625-.40625l1.0625-4.79687h.73437c1.85938 0 3.48438.54687 3.48438 2.67187 0 1.67188-1.01563 3.3125-3.51563 3.3125-1.46875 0-1.82812-.29687-1.82812-.78125M5-7.28125l.98438-4.34375c.125-.54687.23437-.64062 1.48437-.64062 1.5625 0 2.4375.78125 2.4375 2.09375 0 1.95312-1.625 2.89062-3.6875 2.89062Zm0 0"/><path id="e" d="M1.59375-3.45312c0 2.28125 2.4375 3.73437 5.125 3.73437 2.67188 0 5.14063-1.45312 5.14063-3.73437V-10.25h-1.09375v6.79688c0 1.5-2.25 2.67187-4.04688 2.67187-1.85937 0-4.03125-1.17187-4.03125-2.67187V-10.25H1.59375Zm0 0"/><clipPath id="a"><path d="M60 .1914h120v119.51954H60Zm0 0"/></clipPath><clipPath id="b"><path d="M55 .1914h131v119.51954H55Zm0 0"/></clipPath></defs><path fill="#FCC" stroke="#000" stroke-miterlimit="10" stroke-width=".39707" d="M122.80861 59.94922c0-26.31642-21.33595-47.64845-47.65236-47.64845S27.5078 33.6328 27.5078 59.94922s21.33203 47.65236 47.64845 47.65236 47.65236-21.33595 47.65236-47.65236Zm0 0"/><g clip-path="url(#a)"><path fill="#FCC" d="M179.91406 59.94922c0-32.89453-26.66797-59.5625-59.5625-59.5625-32.89844 0-59.5625 26.66797-59.5625 59.5625s26.66407 59.5625 59.5625 59.5625c32.89453 0 59.5625-26.66797 59.5625-59.5625m0 0"/></g><g clip-path="url(#b)"><path fill="none" stroke="#000" stroke-miterlimit="10" stroke-width=".39707" d="M179.9141 59.94922c0-32.89454-26.66798-59.56252-59.56252-59.56252-32.89845 0-59.56252 26.66798-59.56252 59.56252s26.66407 59.56252 59.56252 59.56252c32.89454 0 59.56252-26.66798 59.56252-59.56252Zm0 0"/></g><path fill="none" stroke="#000" stroke-miterlimit="10" stroke-width=".39707" d="M122.80861 59.94922c0-26.31642-21.33595-47.64845-47.65236-47.64845S27.5078 33.6328 27.5078 59.94922s21.33203 47.65236 47.64845 47.65236 47.65236-21.33595 47.65236-47.65236Zm0 0"/><use xlink:href="#c" x="6.61715" y="66.40283"/><use xlink:href="#d" x="187.68154" y="66.40283"/><use xlink:href="#c" x="66.90784" y="66.26333" fill="red"/><use xlink:href="#e" x="83.24746" y="66.26333" fill="red"/><use xlink:href="#d" x="99.42824" y="66.26333" fill="red"/></svg>