<svg xmlns="http://www.w3.org/2000/svg" xmlns:xlink="http://www.w3.org/1999/xlink" width="178.467pt" height="96.041pt" viewBox="0 0 178.467 96.041"><defs><path id="c" d="M.78125 0h6.89063c3.39062 0 5.5625-1.20312 5.5625-4.3125 0-2.625-1.875-3.78125-4.03125-4.0625v-.04687c2.09375-.4375 3.3125-1.73438 3.3125-3.4375 0-1.23438-.46875-2.15625-1.35938-2.75-.875-.5625-2.15625-.78125-3.9375-.78125H.78125v.64062c1.96875.14063 2.01563.17188 2.01563 1.42188V-2.0625c0 1.25-.04688 1.28125-2.01563 1.42188ZM5-2.48437v-5.42188h1.57813c2.76562 0 4.28125 1.375 4.28125 3.73438 0 2.6875-1.8125 3.39062-3.73438 3.39062C5.34375-.78125 5-1.10937 5-2.48437M5-8.6875v-4.82812c0-.95313.0625-1.10938 1.79688-1.10938 1.625 0 3.40625.60938 3.40625 2.90625 0 2.17188-1.39063 3.03125-3.71875 3.03125Zm0 0"/><path id="d" d="M-.64062 0h4.90625v-.64062L3.09375-.75c-.65625-.07812-.75-.3125-.5625-.90625.375-1.32812.82813-2.70312 1.34375-4.28125h5l1.5 4.25c.20313.64063.10938.875-.59375.95313l-1.01562.09374V0h5.70312v-.64062c-1.3125-.10938-1.54687-.1875-1.95312-1.34375L7.8125-15.39062H6.15625L3.82813-8.8125c-.6875 1.95313-1.625 4.59375-2.40625 6.64063C.95313-.96875.75-.70312-.64062-.64062ZM4.1875-6.79687c.71875-2.21875 1.5-4.40625 2.15625-6.35938h.07813l2.1875 6.35938Zm0 0"/><path id="e" d="M1.29688-.95312c0 .67187.45312 1.17187 1.17187 1.17187.73438 0 1.14063-.5 1.15625-1.17187 0-.6875-.42187-1.20313-1.15625-1.20313-.71875 0-1.17187.51563-1.17187 1.20313m0 0"/><path id="f" d="M2.01563 0h6.09375v-.53125l-1.5625-.14062c-.39063-.03126-.60938-.17188-.60938-.90625v-10.9375l-.09375-.09375-3.82812.65625V-11.5l1.73437.21875c.3125.03125.4375.17188.4375.70313v9c0 .35937-.04687.57812-.15625.70312-.10937.14063-.26562.1875-.45312.20313l-1.5625.14062Zm0 0"/><path id="g" d="M.8125-5.71875c0 4 1.45313 5.9375 4.23438 5.9375 2.75 0 4.20312-1.65625 4.20312-4.1875 0-2.5-1.53125-3.85937-3.53125-3.85937-1.45312 0-2.54687.98437-3.03125 1.59375h-.04687c.03125-4.09375 1.1875-5.71875 2.85937-5.71875.85938 0 1.46875.70312 1.75 1.76562.04688.21875.1875.40625.46875.40625.40625 0 .98438-.34375.98438-.85937 0-.75-.90625-1.96875-3.14063-1.96875-2.9375 0-4.75 2.26562-4.75 6.89062M2.6875-4.375c0-1.125.84375-2.51562 2.40625-2.51562 1.15625 0 2.3125 1.0625 2.3125 3.20312 0 1.95313-.75 3.25-2.3125 3.25-1.625 0-2.40625-1.71875-2.40625-3.9375m0 0"/><path id="h" d="M.76563-9.78125h.5l.17187-.40625c.23438-.51562.5-.78125 1.32813-.78125h5.01562C7.59375-10.29687 7.25-9.23437 5.75-7.07812 4.14063-4.79687 3.09375-2.71875 3.09375-.53125c0 .60938.4375.75 1.01563.75.53125 0 .92187-.15625.90625-.6875-.10938-2.45312.39062-4.4375 1.375-6.15625 1.1875-2.07812 2.17187-3.25 2.82812-5.57812l-.15625-.1875H1.34375Zm0 0"/><path id="i" d="M.75-1.89062C.75-1.04687 2.04688.21875 4.45313.21875c3.0625 0 4.45312-1.85937 4.45312-4.20312 0-2.60938-1.625-3.92188-3.82812-3.92188-1.03125 0-2.14063.42188-2.73438.95313l-.01562-.01563L2.75-10.4375c.04688-.46875.17188-.53125.53125-.53125h4.60938l.45312-1.26562-.09375-.15625H2.04688l-.17188.17187L1.5-6.01562l.45313.23437c.76562-.89062 1.51562-1.32812 2.53125-1.32812 1.17187 0 2.48437.875 2.48437 3.32812 0 1.90625-.76562 3.34375-2.39062 3.34375-1.29688 0-1.95313-.92187-2.32813-1.98437-.09375-.28125-.28125-.45313-.53125-.45313-.375 0-.96875.375-.96875.98438m0 0"/><path id="j" d="M.76563-6.20312c0 3.71875 1.09375 6.42187 4.14062 6.42187 3.0625 0 4.17188-2.70312 4.17188-6.42187 0-3.70313-1.10938-6.40625-4.17188-6.40625-3.04687 0-4.14062 2.70312-4.14062 6.40625m1.875 0c0-3.01563.51562-5.75 2.26562-5.75 1.76563 0 2.28125 2.73437 2.28125 5.75 0 3.03125-.51562 5.76562-2.28125 5.76562-1.75 0-2.26562-2.73437-2.26562-5.76562m0 0"/><clipPath id="a"><path d="M15 0h101v95.08984H15Zm0 0"/></clipPath><clipPath id="b"><path d="M46 0h118v95.08984H46Zm0 0"/></clipPath></defs><path fill="#FFB2B2" fill-opacity=".5" d="M104.7539 47.54688c0-21.70313-17.59374-39.29297-39.29296-39.29297-21.70313 0-39.29297 17.58984-39.29297 39.29297 0 21.69921 17.58984 39.29296 39.29297 39.29296 21.69922 0 39.29297-17.59375 39.29297-39.29296m0 0"/><g clip-path="url(#a)"><path fill="none" stroke="#000" stroke-miterlimit="10" stroke-width=".78913" d="M104.75387 47.54688c0-21.70312-17.59374-39.29296-39.29295-39.29296-21.70311 0-39.29295 17.58984-39.29295 39.29296 0 21.6992 17.58984 39.29295 39.29295 39.29295 21.69921 0 39.29295-17.59374 39.29295-39.29295Zm0 0"/></g><path fill="#B2FFB2" fill-opacity=".5" d="M151.90234 47.54688c0-26.04297-21.10937-47.15235-47.14843-47.15235-26.04297 0-47.15235 21.10938-47.15235 47.15235 0 26.03906 21.10938 47.15234 47.15235 47.15234 26.03906 0 47.14843-21.11328 47.14843-47.15234m0 0"/><g clip-path="url(#b)"><path fill="none" stroke="#000" stroke-miterlimit="10" stroke-width=".78913" d="M151.9023 47.54688c0-26.04296-21.10937-47.15233-47.14843-47.15233-26.04295 0-47.15232 21.10937-47.15232 47.15233 0 26.03905 21.10937 47.15232 47.15232 47.15232 26.03906 0 47.14842-21.11327 47.14842-47.15232Zm0 0"/></g><use xlink:href="#c" x="7.19369" y="55.24041" fill-opacity=".5"/><use xlink:href="#d" x="156.63547" y="55.24041" fill-opacity=".5"/><g fill-opacity=".5"><use xlink:href="#e" x="77.73729" y="65.52868"/><use xlink:href="#f" x="82.64964" y="65.52868"/></g><g fill-opacity=".5"><use xlink:href="#e" x="65.949" y="41.95309"/><use xlink:href="#g" x="70.86135" y="41.95309"/></g><g fill-opacity=".5"><use xlink:href="#e" x="30.58611" y="53.63246"/><use xlink:href="#h" x="35.49846" y="53.63246"/></g><g fill-opacity=".5"><use xlink:href="#e" x="117.02895" y="69.34853"/><use xlink:href="#i" x="121.9413" y="69.34853"/></g><g fill-opacity=".5"><use xlink:href="#e" x="117.02895" y="38.02432"/><use xlink:href="#j" x="121.9413" y="38.02432"/></g></svg>