<svg xmlns="http://www.w3.org/2000/svg" xmlns:xlink="http://www.w3.org/1999/xlink" width="519.143pt" height="253.603pt" viewBox="0 0 519.143 253.603"><defs><path id="a" d="M.65625 0h4.9375v-.53125C4.8125-.60937 4.375-.60937 4.23438-.82812c-.0625-.09376-.03125-.10938-.03125-.90625v-4.35938h1.26562c1.10938 0 1.98438.34375 2.3125 1.625.14063.51563.32813 2 .53125 2.85938C8.59375-.42187 9.32813 0 10.42188 0h1.51562v-.53125C10.48438-.70312 10.17188-1.73437 10-3c-.21875-1.67187-.54687-2.92187-2.54687-3.40625v-.03125C9.20313-6.78125 10.5-7.96875 10.5-9.75s-1.125-3.17187-4.39062-3.17187H.65625v.53125c1.65625.125 1.6875.14062 1.6875 1.1875v9.46875c0 1.0625-.03125 1.07812-1.6875 1.20312Zm3.54688-6.75v-4.60937c0-.78125.10937-.9375 1.34375-.9375 1.39062 0 2.96875.51562 2.96875 2.73437 0 1.96875-1.03125 2.8125-2.84375 2.8125Zm0 0"/><path id="b" d="M.92188-4.51562c0 2.96875 1.26562 4.73437 4.3125 4.73437 2.0625 0 3.14062-1.15625 3.64062-2.625l-.5625-.29687C7.79688-1.60937 7.07813-.73437 5.60938-.73437c-2.32813 0-2.78125-2.23438-2.75-4.17188H8.25c.40625 0 .73438-.10937.73438-.71875 0-1.09375-.35938-3.76562-3.76563-3.76562-2.9375 0-4.29687 2.07812-4.29687 4.875M2.89063-5.625c0-.78125.26562-3.10937 2.21875-3.10937 1.73437 0 1.9375 1.76562 1.9375 2.51562 0 .34375-.125.59375-.64063.59375Zm0 0"/><path id="d" d="M.65625 0H5.875v-.53125c-1.64062-.125-1.67187-.14062-1.67187-1.20312v-9.46875c0-1.04688.03125-1.0625 1.67187-1.1875v-.53125H.65625v.53125c1.65625.125 1.6875.14062 1.6875 1.1875v9.46875c0 1.0625-.03125 1.07812-1.6875 1.20312Zm0 0"/><path id="e" d="M.59375 0h4.5625v-.53125C3.8125-.64062 3.76563-.67187 3.76563-1.625V-6c0-.48437 0-.75.14062-1C4.25-7.75 5.07813-8.375 6.10938-8.375c1.60937 0 1.8125 1.17188 1.8125 2.32813V-1.625c0 .95313-.0625.98438-1.42188 1.09375V0h4.5625v-.53125C9.71875-.64062 9.67188-.67187 9.67188-1.625V-6c0-.48437.01562-.71875.14062-1.01562.26563-.76563 1.0625-1.35938 2.125-1.35938 1.17188 0 1.89063.65625 1.89063 2.32813V-1.625c0 .95313-.0625.98438-1.42188 1.09375V0h4.57813v-.53125c-1.32813-.10937-1.40626-.14062-1.40626-1.09375v-4.78125c0-1.89062-1.01562-2.98437-2.78124-2.98437-1.53125 0-2.625 1.01562-3.29688 1.4375-.45312-.875-1.17187-1.4375-2.48437-1.4375-1.42188 0-2.59375.95312-3.25 1.4375l-.1875-1.4375-2.875.48437v.45313l.6875.09375c.48437.07812.625.17187.625.84375V-1.625c0 .95313-.0625.98438-1.42188 1.09375Zm0 0"/><path id="f" d="M.79688 0h5.48437v-.5625C4.9375-.65625 4.45313-.79687 4.45313-1.95312v-9.78125c0-.42188.10937-.53125.57812-.53125h2.54688c1.70312 0 2.10937.4375 2.42187 2.32812h.54688v-3.03125H.8125v.5625c1.71875.14063 1.76563.26563 1.76563 1.39063V-1.875c0 1.20313-.3125 1.23438-1.78125 1.3125Zm0 0"/><path id="g" d="M1.60938-5.26562c0 4.21875.95312 8.84375 4.92187 9V3.1875C5.1875 2.92188 3.10938 1.26563 3.10938-5.26562c0-6.51563 1.98437-8.15625 3.42187-8.45313v-.5625C2.5625-14.125 1.60938-9.48437 1.60938-5.26562m0 0"/><path id="h" d="M0 0h5.10938l.125-.53125L4.125-.64062c-.32812-.01563-.48437-.15626-.48437-.45313 0-.125.04687-.28125.07812-.45312l1.01563-4.54688H5.875c1.79688 0 2.0625.4375 2.0625 2.625C7.9375-1.1875 7.9375 0 9.90625 0h1.45313l.17187-.53125c-1.3125-.1875-1.76562-.25-1.76562-2.65625 0-1.90625-.15625-2.71875-1.70313-3.23437 2.28125-.32813 3.82813-1.65625 3.82813-3.5 0-1.34375-.57813-3-4.07813-3H2.78125l-.14062.53125 1.125.07812c.3125.01563.45312.17188.45312.5 0 .10938-.01562.25-.0625.4375l-2.25 9.82813c-.15625.65625-.3125.84375-.76562.89062l-1.04688.125Zm4.89063-6.75 1.09375-4.82812c.14062-.53125.20312-.71875 1.60937-.71875 1.21875 0 2.34375.54687 2.34375 2.17187 0 2.23438-1.4375 3.375-3.84375 3.375Zm0 0"/><path id="i" d="M1.10938 3.1875v.54688c3.96875-.15625 4.92187-4.78125 4.92187-9s-.95312-8.85938-4.92187-9.01563v.5625c1.4375.29688 3.42187 1.9375 3.42187 8.45313 0 6.53125-2.07812 8.1875-3.42187 8.45312m0 0"/><path id="j" d="M1.6875-5.26562c0 2.14062 1.57813 3.71875 3.75 3.71875 2.07813 0 3.65625-1.57813 3.65625-3.71875 0-2.09375-1.57812-3.67188-3.65625-3.67188-2.17187 0-3.75 1.57813-3.75 3.67188m0 0"/><path id="k" d="M1.59375-4.73437H6.1875v4.59375h1.09375v-4.59375H11.875v-1.09375H7.28125v-4.59375H6.1875v4.59375H1.59375Zm0 0"/><path id="l" d="M2.1875-.85937c0 .65625.3125 1.07812 1.07813 1.07812 1.34375 0 2.39062-1.26562 3.01562-2.6875l-.45312-.25C5.48438-2.0625 4.67188-.75 4.15625-.75c-.21875 0-.29687-.14062-.29687-.39062 0-.17188.04687-.39063.09375-.625L6-9.28125l-.09375-.10937L2.5-8.875l-.10937.46875 1.07812.09375c.32813.01563.46875.125.46875.375 0 .125-.01562.28125-.07812.48438L2.28125-1.60937c-.07812.28124-.09375.51562-.09375.75m2.40625-11.28125c0 .70312.48438 1.0625 1.03125 1.0625.73438 0 1.20313-.5 1.20313-1.25 0-.73438-.5-1.03125-1.01563-1.03125-.79687 0-1.21875.625-1.21875 1.21875m0 0"/><path id="p" d="M1.59375-4.73437H11.875v-1.09375H1.59375Zm0 0"/><path id="m" d="M.5-1.96875C.5-.90625 1.125-.0625 2.73438.10938c.5625.07812 1.1875.125 1.1875.46875 0 .67187-.73438 1.28125-1.04688 1.5625l.1875.26562C3.70313 2.03125 5.17188 1 5.17188-.14062c0-.64063-.51563-.79688-1.54688-1.01563-.90625-.1875-1.71875-.65625-1.71875-1.5625 0-.76562.4375-2.29687 2.29688-2.4375.28125.01563.48437.10938.70312.10938.26563 0 .40625-.20313.40625-.53125 0-.17188-.07812-.23438-.23437-.23438-.28125 0-.34375.07813-.71875.07813-.65625 0-.84375-.46875-.84375-.89063 0-.67187.25-1.20312.90625-1.60937.20312.01562.51562.04687.73437.04687.54688 0 1.21875-.15625 1.21875-.82812 0-.14063-.125-.23438-.42187-.23438-.53125 0-.9375.04688-1.76563.5625-.4375-.26562-.65625-.32812-.65625-.5625 0-.14062.0625-.25.17188-.39062L3.42188-9.75c-.46875.14063-.89063.3125-.89063.64063 0 .375.53125.51562 1.23438.71875-.85938.59375-1.45313 1.03125-1.45313 1.73437 0 .48438.32813 1 1.40625 1.23438C.95313-4.65625.5-3.51562.5-1.96875m0 0"/><path id="n" d="M.375-.15625.53125 0H6.0625l.48438-1.85937-.39063-.07813c-.3125.70313-.54687.79688-1.07812.79688H1.73438c.21874-.625.90625-1.5 2.17187-2.35938C5.23438-4.39062 6.1875-5 6.1875-6.4375c0-1.8125-1.25-2.45312-2.6875-2.45312-1.78125 0-2.79687 1.03125-2.79687 1.8125 0 .48437.53125.70312.8125.70312.25 0 .375-.14062.4375-.39062.20312-.92188.6875-1.64063 1.45312-1.64063.92188 0 1.21875.79688 1.21875 1.73438 0 1.26562-.57812 2.10937-1.79687 3.15625C1.15625-2.07812.57813-1.125.375-.15625m0 0"/><path id="o" d="M.9375-1.40625c0 .78125.35938 1.5625 1.26563 1.5625 1.4375 0 2.59375-1.60937 3.34375-2.90625h.01562l-.39062 1.40625q-.14063.42188-.14063.75c0 .5.25.75.76563.75 1.04687 0 1.79687-.92187 2.28125-1.9375l-.34375-.20312c-.26563.5-.8125 1.375-1.15625 1.375-.15625 0-.20313-.09376-.20313-.25 0-.10938.03125-.28126.07813-.45313L7.8125-6.45312H6.54688l-.0625.14062c-.21875-.14062-.60938-.26562-.95313-.26562-3.125 0-4.59375 3.45312-4.59375 5.17187m1.46875-.04687c0-1.42188 1.25-4.60938 3.17188-4.60938.3125 0 .5625.09375.75.25-.23438.96875-.6875 2.26563-1.375 3.3125C4.25-1.42187 3.5-.60937 2.92188-.60937c-.40625 0-.51563-.35938-.51563-.84375m0 0"/><clipPath id="c"><path d="M256 26h2v227.19531h-2Zm0 0"/></clipPath></defs><path fill="none" stroke="#000" stroke-miterlimit="10" stroke-width=".39784" d="M30.56639 196.39844h452.40238"/><path fill="none" stroke="#000" stroke-linecap="round" stroke-linejoin="round" stroke-miterlimit="10" stroke-width=".39784" d="M481.09766 194.01172c.3789 1.42969 1.22265 2.10547 2.0703 2.38672-.84765.27734-1.6914.95312-2.0703 2.38672"/><use xlink:href="#a" x="490.39246" y="202.75312"/><use xlink:href="#b" x="502.04943" y="202.75312"/><g clip-path="url(#c)"><path fill="none" stroke="#000" stroke-miterlimit="10" stroke-width=".39784" d="M256.96484 252.9961V26.99608"/></g><path fill="none" stroke="#000" stroke-linecap="round" stroke-linejoin="round" stroke-miterlimit="10" stroke-width=".39784" d="M254.57812 28.86328c1.4336-.375 2.10938-1.21875 2.38672-2.0664.28125.84765.95703 1.6914 2.38672 2.0664"/><use xlink:href="#d" x="245.24914" y="19.57152"/><use xlink:href="#e" x="251.43569" y="19.57152"/><path fill="none" stroke="#EC008C" stroke-miterlimit="10" stroke-width=".39784" d="M87.16405 196.39844h339.60159V83.1953H87.16404Zm0 0h282.60549"/><path fill="none" stroke="#EC008C" stroke-linecap="round" stroke-linejoin="round" stroke-miterlimit="10" stroke-width=".39784" d="M367.89844 194.01172c.3789 1.42969 1.21875 2.10547 2.07031 2.38672-.85156.27734-1.6914.95312-2.07031 2.38672"/><path fill="none" stroke="#EC008C" stroke-miterlimit="10" stroke-width=".39784" d="M426.76564 196.39844v-84.50392"/><path fill="none" stroke="#EC008C" stroke-linecap="round" stroke-linejoin="round" stroke-miterlimit="10" stroke-width=".39784" d="M424.3789 113.76563c1.4336-.37891 2.10938-1.22266 2.38672-2.07032.27735.84766.95704 1.69141 2.38672 2.07032"/><path fill="none" stroke="#EC008C" stroke-miterlimit="10" stroke-width=".39784" d="M426.76564 83.1953H144.16405"/><path fill="none" stroke="#EC008C" stroke-linecap="round" stroke-linejoin="round" stroke-miterlimit="10" stroke-width=".39784" d="M146.03125 85.58594c-.375-1.4336-1.21875-2.10938-2.0664-2.39063.84765-.27734 1.6914-.95312 2.0664-2.38672"/><path fill="none" stroke="#EC008C" stroke-miterlimit="10" stroke-width=".39784" d="M87.16405 83.1953v84.50392"/><path fill="none" stroke="#EC008C" stroke-linecap="round" stroke-linejoin="round" stroke-miterlimit="10" stroke-width=".39784" d="M89.55078 165.82812c-1.42969.37891-2.10547 1.22266-2.38672 2.07032-.27734-.84766-.95312-1.6914-2.38672-2.07032"/><g fill="#EC008C"><use xlink:href="#f" x="433.7929" y="145.06934"/><use xlink:href="#g" x="445.21116" y="145.06934"/><use xlink:href="#h" x="452.84985" y="145.06934"/></g><use xlink:href="#i" x="465.97887" y="145.06934" fill="#EC008C"/><use xlink:href="#j" x="421.38338" y="200.86324"/><use xlink:href="#h" x="433.7929" y="216.35566"/><use xlink:href="#j" x="421.38338" y="87.66411"/><use xlink:href="#h" x="433.7929" y="69.01489"/><use xlink:href="#k" x="449.66706" y="69.01489"/><use xlink:href="#l" x="465.8794" y="69.01489"/><use xlink:href="#m" x="480.25819" y="59.69428"/><path fill="none" stroke="#000" stroke-miterlimit="10" stroke-width="1.09419" d="M475.89844 63.74219h15.57031"/><use xlink:href="#n" x="475.89939" y="76.01733"/><use xlink:href="#o" x="482.95922" y="76.01733"/><use xlink:href="#j" x="81.78699" y="87.66411"/><use xlink:href="#p" x="6.63005" y="69.01489"/><use xlink:href="#h" x="20.07735" y="69.01489"/><use xlink:href="#k" x="35.95151" y="69.01489"/><use xlink:href="#l" x="52.16385" y="69.01489"/><use xlink:href="#m" x="66.54315" y="59.69428"/><path fill="none" stroke="#000" stroke-miterlimit="10" stroke-width="1.09419" d="M62.1836 63.74219h15.5703"/><use xlink:href="#n" x="62.18435" y="76.01733"/><use xlink:href="#o" x="69.24418" y="76.01733"/><use xlink:href="#j" x="81.78699" y="200.86324"/><use xlink:href="#p" x="53.80218" y="216.35566"/><use xlink:href="#h" x="67.24947" y="216.35566"/><use xlink:href="#j" x="251.58568" y="87.66411"/><use xlink:href="#l" x="263.9942" y="69.01489"/><use xlink:href="#m" x="278.35849" y="59.69428"/><path fill="none" stroke="#000" stroke-miterlimit="10" stroke-width="1.09419" d="M274 63.74219h15.5664"/><use xlink:href="#n" x="273.99968" y="76.01733"/><use xlink:href="#o" x="281.05951" y="76.01733"/></svg>