<svg xmlns="http://www.w3.org/2000/svg" xmlns:xlink="http://www.w3.org/1999/xlink" width="308.761pt" height="311.471pt" viewBox="0 0 308.761 311.471"><defs><clipPath id="a"><path d="M.14063 168H284v2H.14063Zm0 0"/></clipPath><clipPath id="c"><path d="M141 27h2v283.9414h-2Zm0 0"/></clipPath><clipPath id="e"><path d="M84 27h2v283.9414h-2Zm0 0"/></clipPath><clipPath id="f"><path d="M198 27h1v283.9414h-1Zm0 0"/></clipPath><path id="b" d="M.59375-.73437c0 .53125.4375.95312 1.20313.95312 1.26562 0 1.98437-1.26562 2.76562-2.53125l.75-1.23437h.03125L5.6875-2.0625C6.04688-.57812 6.39063.21875 7.34375.21875c1.375 0 2.07813-1.40625 2.64063-2.54687l-.48438-.25C9.04688-1.75 8.53125-.75 8.01563-.75c-.35938 0-.5-.42187-.92188-2.09375L6.5-5.29687c.6875-1.1875 1.64063-2.67188 2.17188-2.67188.5625 0 .57812.29688 1.14062.29688.40625 0 .79688-.40625.79688-.90625 0-.57813-.4375-.8125-.96875-.8125-.98438 0-1.82813.89062-2.48438 1.95312l-.8125 1.26563H6.3125L5.54688-9.3125l-.09375-.07812-3.09375.9375L2.40625-8 3.875-8.09375c.29688 0 .4375.14063.625.9375l.65625 2.70313-.51562.89062c-.79688 1.375-1.5 2.34375-1.95313 2.34375-.54687 0-.67187-.45312-1.28125-.45312-.46875 0-.8125.48437-.8125.9375m0 0"/><path id="d" d="M0 3.5c0 .5.5625 1.01563 1.375 1.01563 1.59375 0 2.26563-1.17188 3.92188-4.01563.375-.64062 1.5-2.60937 2.65625-4.51562 1.07812-1.75 2.25-3.5625 2.25-4.3125 0-.65625-.20313-1.0625-.34375-1.0625-.35938 0-.98438.15625-1.46875.48437 0 0-.0625 1.90625-.23438 2.5625-.29687 1.04688-1.39062 3.07813-2.625 5.20313h-.0625c-.14062-2.85938-.5-6.79688-.75-8.17188l-.14062-.07812L1.4375-8.5l.04688.48438 1.29687-.04688c.375 0 .45313.32813.625 1.28125.1875 1.45313.60938 5.04688.60938 6.54688 0 .54687-.01563 1.3125-.4375 2.29687-.34375.78125-.8125 1.34375-1.1875 1.34375-.6875 0-.76563-1.04687-1.4375-1.04687C.48438 2.35938 0 2.96875 0 3.5m0 0"/></defs><g clip-path="url(#a)"><path fill="none" stroke="#000" stroke-miterlimit="10" stroke-width=".39782" d="M.33991 169.05469h282.5897"/></g><path fill="none" stroke="#000" stroke-linecap="round" stroke-linejoin="round" stroke-miterlimit="10" stroke-width=".39782" d="M281.0586 166.66406c.3789 1.4336 1.21874 2.10938 2.0703 2.39063-.85156.27734-1.6914.95312-2.0703 2.38672"/><use xlink:href="#b" x="290.35257" y="173.63809"/><g clip-path="url(#c)"><path fill="none" stroke="#000" stroke-miterlimit="10" stroke-width=".39782" d="M141.83203 310.5468V27.9571"/></g><path fill="none" stroke="#000" stroke-linecap="round" stroke-linejoin="round" stroke-miterlimit="10" stroke-width=".39782" d="M139.44531 29.82812c1.4336-.3789 2.10938-1.22265 2.38672-2.0703.27735.84765.95703 1.6914 2.38672 2.0703"/><use xlink:href="#d" x="136.15446" y="16.01879"/><g clip-path="url(#e)"><path fill="none" stroke="#007F7F" stroke-miterlimit="10" stroke-width=".79566" d="M85.2344 310.5468V27.55867"/></g><g clip-path="url(#f)"><path fill="none" stroke="#007F7F" stroke-miterlimit="10" stroke-width=".79566" d="M198.42966 310.5468V27.55867"/></g></svg>