<svg xmlns="http://www.w3.org/2000/svg" xmlns:xlink="http://www.w3.org/1999/xlink" width="309.11pt" height="311.272pt" viewBox="0 0 309.11 311.272"><defs><path id="a" d="M.59375-.73437c0 .53125.4375.95312 1.1875.95312 1.28125 0 2-1.26562 2.76563-2.53125l.76562-1.21875h.03125L5.6875-2.0625C6.04688-.57812 6.375.21875 7.32813.21875c1.375 0 2.09375-1.40625 2.65625-2.54687l-.48438-.25C9.04688-1.75 8.53125-.75 8.01563-.75c-.35938 0-.5-.42187-.92188-2.09375L6.5-5.28125c.67188-1.20312 1.625-2.6875 2.17188-2.6875s.5625.29688 1.125.29688c.42187 0 .79687-.39063.79687-.89063 0-.57812-.4375-.8125-.95312-.8125-1 0-1.82813.89063-2.48438 1.9375l-.8125 1.28125h-.04687l-.75-3.14062-.09375-.07813-3.09375.92188.04687.46875L3.875-8.09375c.29688 0 .4375.14063.60938.9375l.65625 2.70313-.51563.89062c-.79687 1.375-1.48437 2.34375-1.9375 2.34375-.54687 0-.6875-.45312-1.28125-.45312-.46875 0-.8125.48437-.8125.9375m0 0"/><path id="c" d="M0 3.5c0 .5.5625 1.01563 1.375 1.01563 1.59375 0 2.26563-1.17188 3.90625-4.01563.39063-.64062 1.51563-2.60937 2.67188-4.51562 1.0625-1.75 2.25-3.5625 2.25-4.3125 0-.65625-.20313-1.04688-.34375-1.04688-.35938 0-1 .15625-1.46875.46875 0 0-.0625 1.90625-.23438 2.5625-.3125 1.0625-1.40625 3.07813-2.625 5.20313h-.0625C5.32813-4 4.96875-7.9375 4.70313-9.29687l-.125-.07813-3.14063.89063.04688.46875 1.29687-.03125c.375 0 .45313.3125.625 1.26562.1875 1.45313.60938 5.04688.60938 6.54688 0 .54687-.01563 1.3125-.4375 2.29687-.34375.78125-.8125 1.34375-1.1875 1.34375-.6875 0-.76563-1.04687-1.4375-1.04687C.48438 2.35938 0 2.96875 0 3.5m0 0"/><clipPath id="b"><path d="M141 27h2v283.46094h-2Zm0 0"/></clipPath></defs><path fill="none" stroke="#000" stroke-miterlimit="10" stroke-width=".39736" d="M.54297 168.9375h282.2578"/><path fill="none" stroke="#000" stroke-linecap="round" stroke-linejoin="round" stroke-miterlimit="10" stroke-width=".39736" d="M280.9336 166.55469c.3789 1.42968 1.21874 2.10547 2.0664 2.38281-.84766.28125-1.6875.95312-2.0664 2.38672"/><use xlink:href="#a" x="290.2164" y="173.51752"/><g clip-path="url(#b)"><path fill="none" stroke="#000" stroke-miterlimit="10" stroke-width=".39736" d="M141.8711 310.26562V28.00782"/></g><path fill="none" stroke="#000" stroke-linecap="round" stroke-linejoin="round" stroke-miterlimit="10" stroke-width=".39736" d="M139.48828 29.875c1.42969-.375 2.10547-1.21875 2.38281-2.0664.27735.84765.95313 1.6914 2.38282 2.0664"/><use xlink:href="#c" x="136.19985" y="16.0838"/><path fill="none" stroke="#000" stroke-dasharray="2.9802520579 2.9802520579" stroke-miterlimit="10" stroke-width=".39736" d="M.38672 282.1953 283.35546 55.6797m-282.96874 0 282.96874 226.5156"/><path fill="none" stroke="#007F7F" stroke-miterlimit="10" stroke-width=".79472" d="M.39454 282.1953s7.23437-9.16015 9.80078-12.51171c2.5664-3.35547 6.42578-8.53125 8.69531-11.66406 2.26562-3.13281 5.66797-7.97656 7.65625-10.91406 1.99219-2.9375 4.96094-7.4922 6.6875-10.25782 1.73047-2.76953 4.29687-7.0664 5.77734-9.6875 1.48438-2.61718 3.66406-6.69921 4.91406-9.1953 1.2461-2.4922 3.0625-6.39063 4.08594-8.78126s2.48828-6.14062 3.30078-8.44922c.8086-2.30468 1.9375-5.93359 2.53907-8.17578.60156-2.24219 1.39843-5.78515 1.79687-7.98047.39844-2.1953.875-5.67968 1.07422-7.84765.19531-2.16797.35547-5.625.35547-7.78516 0-2.16015-.16016-5.60937-.35547-7.78125-.19922-2.16797-.67188-5.65625-1.07031-7.85156s-1.19532-5.73438-1.79688-7.97656-1.72656-5.8711-2.53906-8.17969c-.8086-2.30469-2.26953-6.05078-3.29688-8.4414-1.02343-2.39063-2.83593-6.29297-4.08593-8.78516-1.2461-2.4961-3.4297-6.57422-4.91016-9.19531-1.48437-2.6172-4.04297-6.91797-5.76953-9.6875-1.73047-2.76563-4.70312-7.3164-6.69531-10.25391-1.98828-2.9375-5.38672-7.78125-7.65625-10.91406-2.26953-3.1289-6.125-8.30469-8.6914-11.65625C7.64844 64.86719.41406 55.71094.41406 55.71094M283.34765 282.1953s-7.23437-9.16015-9.80078-12.51171c-2.5625-3.35547-6.42578-8.53125-8.6914-11.66406-2.26954-3.13281-5.66797-7.97656-7.66016-10.91406-1.98828-2.9375-4.95703-7.4922-6.6875-10.25782-1.73047-2.76953-4.29297-7.0664-5.77734-9.6875-1.48438-2.61718-3.66407-6.69921-4.91016-9.1953-1.25-2.4922-3.0625-6.39063-4.08984-8.78126-1.02344-2.39062-2.48829-6.14062-3.30079-8.44922-.80859-2.30468-1.93359-5.93359-2.53515-8.17578s-1.40234-5.78515-1.80078-7.98047c-.39844-2.1953-.875-5.67968-1.07032-7.84765-.19921-2.16797-.35546-5.625-.35546-7.78516 0-2.16015.15625-5.60937.35546-7.78125.19532-2.16797.67188-5.65625 1.06641-7.85156.39844-2.19531 1.19531-5.73438 1.79688-7.97656s1.73047-5.8711 2.53906-8.17969c.8086-2.30469 2.27344-6.05078 3.29687-8.4414s2.83594-6.29297 4.08594-8.78516c1.25-2.4961 3.42969-6.57422 4.91016-9.19531 1.48437-2.6172 4.04297-6.91797 5.77343-9.6875 1.72657-2.76563 4.69922-7.3164 6.69141-10.25391 1.98828-2.9375 5.38672-7.78125 7.65625-10.91406 2.26953-3.1289 6.125-8.30469 8.6914-11.65625 2.56641-3.35547 9.79688-12.51172 9.79688-12.51172"/></svg>