<svg xmlns="http://www.w3.org/2000/svg" xmlns:xlink="http://www.w3.org/1999/xlink" width="308.761pt" height="311.272pt" viewBox="0 0 308.761 311.272"><defs><clipPath id="a"><path d="M.24219 168H284v2H.24219Zm0 0"/></clipPath><clipPath id="c"><path d="M141 27h2v283.54688h-2Zm0 0"/></clipPath><path id="b" d="M.59375-.73437c0 .53125.4375.95312 1.1875.95312 1.28125 0 2-1.26562 2.76563-2.53125l.76562-1.21875h.03125L5.6875-2.0625C6.04688-.57812 6.375.21875 7.32813.21875c1.375 0 2.09375-1.40625 2.65625-2.54687l-.48438-.25C9.04688-1.75 8.53125-.75 8.01563-.75c-.35938 0-.5-.42187-.92188-2.09375L6.5-5.28125c.67188-1.20312 1.625-2.6875 2.17188-2.6875s.5625.29688 1.125.29688c.42187 0 .79687-.39063.79687-.89063 0-.57812-.4375-.8125-.95312-.8125-1 0-1.82813.89063-2.48438 1.9375l-.8125 1.28125h-.04687l-.75-3.14062-.09375-.07813-3.09375.92188.04687.46875L3.875-8.09375c.29688 0 .4375.14063.60938.9375l.65625 2.70313-.51563.89062c-.79687 1.375-1.48437 2.34375-1.9375 2.34375-.54687 0-.6875-.45312-1.28125-.45312-.46875 0-.8125.48437-.8125.9375m0 0"/><path id="d" d="M0 3.5c0 .5.5625 1.01563 1.375 1.01563 1.59375 0 2.26563-1.17188 3.90625-4.01563.39063-.64062 1.51563-2.60937 2.67188-4.51562 1.0625-1.75 2.25-3.5625 2.25-4.3125 0-.65625-.20313-1.04688-.34375-1.04688-.35938 0-1 .15625-1.46875.46875 0 0-.0625 1.90625-.23438 2.5625-.3125 1.0625-1.40625 3.07813-2.625 5.20313h-.0625C5.32813-4 4.96875-7.9375 4.70313-9.29687l-.125-.07813-3.14063.89063.04688.46875 1.29687-.03125c.375 0 .45313.3125.625 1.26562.1875 1.45313.60938 5.04688.60938 6.54688 0 .54687-.01563 1.3125-.4375 2.29687-.34375.78125-.8125 1.34375-1.1875 1.34375-.6875 0-.76563-1.04687-1.4375-1.04687C.48438 2.35938 0 2.96875 0 3.5m0 0"/></defs><g clip-path="url(#a)"><path fill="none" stroke="#000" stroke-miterlimit="10" stroke-width=".39757" d="M.43745 168.94531H282.8477"/></g><path fill="none" stroke="#000" stroke-linecap="round" stroke-linejoin="round" stroke-miterlimit="10" stroke-width=".39757" d="M280.97656 166.5586c.3789 1.43359 1.22266 2.10937 2.07032 2.38671-.84766.27735-1.69141.95313-2.07032 2.38672"/><use xlink:href="#b" x="290.26569" y="173.52716"/><g clip-path="url(#c)"><path fill="none" stroke="#000" stroke-miterlimit="10" stroke-width=".39757" d="M141.83984 310.3477V27.94136"/></g><path fill="none" stroke="#000" stroke-linecap="round" stroke-linejoin="round" stroke-miterlimit="10" stroke-width=".39757" d="M139.45703 29.8086c1.42969-.37891 2.10547-1.21876 2.38281-2.06641.27735.84765.95704 1.6875 2.38672 2.0664"/><use xlink:href="#d" x="136.1661" y="16.00856"/><path fill="none" stroke="#007F7F" stroke-miterlimit="10" stroke-width=".79515" d="M254.96488 168.94531c0-31.23829-50.64845-56.56252-113.12504-56.56252-62.47658 0-113.12113 25.32423-113.12113 56.56252s50.64455 56.56252 113.12113 56.56252c62.47659 0 113.12504-25.32423 113.12504-56.56252Zm0 0"/></svg>