<svg xmlns="http://www.w3.org/2000/svg" xmlns:xlink="http://www.w3.org/1999/xlink" width="326.285pt" height="287.05pt" viewBox="0 0 326.285 287.05"><defs><path id="c" d="M1.60938-5.26562c0 4.21875.95312 8.84375 4.90625 9v-.5625c-1.32813-.25-3.42188-1.90625-3.42188-8.4375 0-6.48438 1.98438-8.14063 3.42188-8.4375v-.5625c-3.95313.17187-4.90625 4.79687-4.90625 9m0 0"/><path id="d" d="m2.1875-8.40625 1.15625.10938c.26563.01562.34375.10937.34375.32812 0 .14063-.01562.32813-.07812.5625l-1.125 5.1875c-.07813.35938-.125.65625-.125.92188 0 1.0625.5625 1.51562 1.40625 1.51562C5.375.21875 6.98438-1.26562 8.28125-3c1.26563-1.70312 2.17188-3.76562 2.1875-4.92187 0-.73438-.42187-1.45313-.57812-1.45313-.45313 0-.96875.15625-1.375.40625.1875.64063.25 1.34375.25 2.3125C8.59375-4.10937 6.20313-.75 4.6875-.75c-.42187 0-.67187-.26562-.67187-.79687 0-.14063.01562-.3125.0625-.5l1.625-7.23438-.10938-.09375-3.29687.51563Zm0 0"/><path id="e" d="M1.59375-4.71875h4.57813v4.57813h1.09375v-4.57813h4.59375V-5.8125H7.26563v-4.59375H6.17188v4.59375H1.59375Zm0 0"/><path id="f" d="M2.03125 0h6.125v-.53125l-1.5625-.14062c-.39062-.04688-.60937-.1875-.60937-.92188v-11L5.875-12.6875l-3.84375.65625v.45313l1.73438.21875c.32812.04687.4375.17187.4375.71875v9.04687c0 .73438-.17188.875-.60938.92188l-1.5625.14062Zm0 0"/><path id="g" d="M1.59375-4.71875h10.26563V-5.8125H1.59375Zm0 0"/><path id="h" d="M2.1875-1.25c0 .875.375 1.46875 1.42188 1.46875 1.79687 0 3.76562-1.96875 4.875-4.125h.03125l-.60938 2.125c-.09375.375-.15625.6875-.15625.96875 0 .65625.3125 1.03125 1.01563 1.03125 1.34375 0 2.45312-1.26562 3.10937-2.65625l-.4375-.28125C11.0625-2.07812 10.23438-.75 9.71875-.75c-.25 0-.34375-.15625-.34375-.42187 0-.15626.03125-.35938.09375-.57813l2.01563-7.625-1.67188.21875C9.28125-7.25 8.95313-6.25 8.48438-5.125c-.8125 1.89063-2.45313 4.375-4 4.375-.39063 0-.59375-.25-.59375-.73437 0-.25.04687-.54688.14062-.90625L5.8125-9.28125 5.71875-9.375l-3.39062.51563-.125.45312 1.17187.10938c.28125.01562.375.14062.375.35937 0 .125-.03125.3125-.09375.53125L2.35938-2.48437C2.25-2.04687 2.1875-1.625 2.1875-1.25m0 0"/><path id="i" d="m.95313 2.28125.35937.35938c.9375-.875 2.28125-2.125 2.28125-3.59375 0-1-.53125-1.6875-1.25-1.6875-.57812 0-.9375.45312-.9375.9375 0 .67187.625 1.03125.625 1.82812 0 .76563-.48437 1.5-1.07812 2.15625m0 0"/><path id="j" d="M1.10938 3.17188v.5625c3.95312-.15625 4.90625-4.78125 4.90625-9 0-4.20313-.95313-8.82813-4.90625-9v.5625c1.4375.29687 3.42187 1.95312 3.42187 8.4375 0 6.53125-2.09375 8.1875-3.42187 8.4375m0 0"/><path id="k" d="M1.6875-5.26562c0 2.14062 1.5625 3.71875 3.73438 3.71875 2.07812 0 3.65625-1.57813 3.65625-3.71875 0-2.07813-1.57813-3.65625-3.65625-3.65625-2.17188 0-3.73438 1.57812-3.73438 3.65625m0 0"/><path id="l" d="M.78125-6.23437C.78125-2.5 1.85938.21875 4.9375.21875S9.14063-2.5 9.14063-6.23437s-1.125-6.45313-4.20313-6.45313S.78125-9.96875.78125-6.23437m1.875 0c0-3.04688.51563-5.79688 2.28125-5.79688 1.78125 0 2.29688 2.75 2.29688 5.79688 0 3.03125-.51563 5.79687-2.29688 5.79687-1.76562 0-2.28125-2.76562-2.28125-5.79687m0 0"/><clipPath id="a"><path d="M.1836 200H227v2H.1836Zm0 0"/></clipPath><clipPath id="b"><path d="M84 3h2v283.10156h-2Zm0 0"/></clipPath></defs><g clip-path="url(#a)"><path fill="none" stroke="#000" stroke-miterlimit="10" stroke-width=".39718" d="M.37894 201.14453H226.4062"/></g><g clip-path="url(#b)"><path fill="none" stroke="#000" stroke-miterlimit="10" stroke-width=".39718" d="M85.14063 285.90622V3.37117"/></g><path fill="none" stroke="#007F7F" stroke-miterlimit="10" stroke-width=".39718" d="M268.78509 229.39843 155.7734 3.37117m127.14059 197.77336H56.88673"/><path fill="none" stroke="#00ADEF" stroke-dasharray="2.9789668610000004 2.9789668610000004" stroke-miterlimit="10" stroke-width=".39718" d="M85.14063 201.14453 169.8984 31.62507m-28.2539 169.51946 56.5078-113.01167"/><use xlink:href="#c" x="176.91392" y="20.8779"/><use xlink:href="#d" x="184.53999" y="20.8779"/><use xlink:href="#e" x="198.97789" y="20.8779"/><use xlink:href="#f" x="215.16342" y="20.8779"/><use xlink:href="#g" x="227.81396" y="20.8779"/><use xlink:href="#h" x="243.9995" y="20.8779"/><use xlink:href="#i" x="257.1068" y="20.8779"/><use xlink:href="#d" x="264.25624" y="20.8779"/><use xlink:href="#e" x="278.714" y="20.8779"/><use xlink:href="#f" x="294.89954" y="20.8779"/><use xlink:href="#j" x="304.78959" y="20.8779"/><use xlink:href="#k" x="164.52592" y="36.08657"/><use xlink:href="#c" x="205.16742" y="77.3839"/><use xlink:href="#d" x="212.79349" y="77.3839"/><use xlink:href="#i" x="224.49076" y="77.3839"/><use xlink:href="#d" x="231.6402" y="77.3839"/><use xlink:href="#j" x="243.33748" y="77.3839"/><use xlink:href="#k" x="192.77942" y="92.59256"/><use xlink:href="#c" x="35.93948" y="222.42089"/><use xlink:href="#l" x="43.56555" y="222.42089"/><use xlink:href="#i" x="53.45561" y="222.42089"/><use xlink:href="#l" x="60.60505" y="222.42089"/><use xlink:href="#j" x="70.49511" y="222.42089"/><use xlink:href="#k" x="79.76743" y="205.60455"/><use xlink:href="#c" x="120.55345" y="222.42089"/><use xlink:href="#f" x="128.17952" y="222.42089"/><use xlink:href="#i" x="138.06958" y="222.42089"/><use xlink:href="#l" x="145.21902" y="222.42089"/><use xlink:href="#j" x="155.10907" y="222.42089"/><use xlink:href="#k" x="136.27342" y="205.60455"/><g fill="#007F7F"><use xlink:href="#c" x="261.67341" y="222.42089"/><use xlink:href="#h" x="269.29948" y="222.42089"/></g><use xlink:href="#d" x="282.40678" y="222.42089" fill="#007F7F"/><use xlink:href="#i" x="294.10406" y="222.42089" fill="#007F7F"/><g fill="#007F7F"><use xlink:href="#l" x="301.2535" y="222.42089"/><use xlink:href="#j" x="311.14356" y="222.42089"/></g><use xlink:href="#k" x="249.28441" y="205.60455" fill="#007F7F"/></svg>