<svg xmlns="http://www.w3.org/2000/svg" xmlns:xlink="http://www.w3.org/1999/xlink" width="346.948pt" height="287.05pt" viewBox="0 0 346.948 287.05"><defs><path id="c" d="M1.6875-5.26562c0 2.14062 1.5625 3.71875 3.73438 3.71875 2.07812 0 3.65625-1.57813 3.65625-3.71875 0-2.07813-1.57813-3.65625-3.65625-3.65625-2.17188 0-3.73438 1.57812-3.73438 3.65625m0 0"/><path id="d" d="M1.60938-5.26562c0 4.21875.95312 8.84375 4.90625 9v-.5625c-1.32813-.25-3.42188-1.90625-3.42188-8.4375 0-6.48438 1.98438-8.14063 3.42188-8.4375v-.5625c-3.95313.17187-4.90625 4.79687-4.90625 9m0 0"/><path id="e" d="M.59375-.73437c0 .53125.4375.95312 1.1875.95312 1.28125 0 1.98438-1.26562 2.76563-2.51562l.75-1.23438h.04687L5.6875-2.0625C6.03125-.57812 6.375.21875 7.32813.21875c1.375 0 2.07812-1.40625 2.64062-2.54687l-.46875-.25C9.03125-1.75 8.51563-.75 8-.75c-.35937 0-.5-.42187-.90625-2.09375L6.5-5.28125c.67188-1.1875 1.625-2.6875 2.15625-2.6875.5625 0 .57813.29688 1.14063.29688.40625 0 .78125-.39063.78125-.89063 0-.57812-.4375-.8125-.95313-.8125-.98437 0-1.8125.89063-2.46875 1.95313l-.82812 1.26562h-.03125l-.75-3.14062L5.4375-9.375l-3.07812.9375.04687.45313L3.875-8.07812c.29688 0 .4375.14062.60938.92187l.65625 2.70313-.51563.89062c-.79687 1.375-1.48437 2.34375-1.9375 2.34375-.54687 0-.6875-.45312-1.28125-.45312-.46875 0-.8125.48437-.8125.9375m0 0"/><path id="f" d="m.95313 2.28125.35937.35938c.9375-.875 2.28125-2.125 2.28125-3.59375 0-1-.53125-1.6875-1.25-1.6875-.57812 0-.9375.45312-.9375.9375 0 .67187.625 1.03125.625 1.82812 0 .76563-.48437 1.5-1.07812 2.15625m0 0"/><path id="g" d="M.78125-6.23437C.78125-2.5 1.85938.21875 4.9375.21875S9.14063-2.5 9.14063-6.23437s-1.125-6.45313-4.20313-6.45313S.78125-9.96875.78125-6.23437m1.875 0c0-3.04688.51563-5.79688 2.28125-5.79688 1.78125 0 2.29688 2.75 2.29688 5.79688 0 3.03125-.51563 5.79687-2.29688 5.79687-1.76562 0-2.28125-2.76562-2.28125-5.79687m0 0"/><path id="h" d="M1.10938 3.17188v.5625c3.95312-.15625 4.90625-4.78125 4.90625-9 0-4.20313-.95313-8.82813-4.90625-9v.5625c1.4375.29687 3.42187 1.95312 3.42187 8.4375 0 6.53125-2.09375 8.1875-3.42187 8.4375m0 0"/><path id="i" d="M1.375-5.26562c0 5.34375.95313 11.20312 4.90625 11.40625V5.4375C4.9375 5.125 2.85938 3.01563 2.85938-5.26562c0-8.23438 1.98437-10.32813 3.42187-10.70313v-.6875C2.32813-16.46875 1.375-10.60937 1.375-5.26562m0 0"/><path id="n" d="M1.375 5.4375v.70313C5.32813 5.9375 6.28125.07813 6.28125-5.26562S5.32813-16.46876 1.375-16.65626v.6875c1.42188.375 3.40625 2.46875 3.40625 10.70313C4.78125 3.01563 2.70313 5.125 1.375 5.4375m0 0"/><path id="o" d="m2.29688-5.98437.26562.35937c.29688-.10937.82813-.21875 1.03125-.21875.07813.1875 4.21875 9.8125 4.21875 9.8125h.73438l10.35937-21.6875c.09375-.1875.14063-.28125.14063-.32812 0-.20313-.09376-.71876-.375-.71876-.14063 0-.29688.25-.42188.5L8.73438 1.6875 4.90625-7.26562c-.07812-.15625-.09375-.28125-.23437-.28125-.0625 0-.07813.01562-.26563.15625Zm0 0"/><path id="p" d="M1.59375-4.71875h10.26563V-5.8125H1.59375Zm0 0"/><path id="j" d="M.4375-.5625c0 .39063.34375.71875.89063.71875.89062 0 1.375-.84375 1.89062-1.71875l.51563-.85937H3.75l.23438 1c.25 1 .5 1.57812 1.1875 1.57812C6.20313.15625 6.76563-.875 7.15625-1.75l-.34375-.20312C6.5-1.32812 6.125-.60937 5.75-.60937c-.25 0-.34375-.28126-.59375-1.29688L4.70313-3.75C5.14063-4.53125 5.75-5.48437 6.125-5.48437c.39063 0 .45313.23437.84375.23437.29688 0 .59375-.3125.59375-.70312 0-.4375-.3125-.60938-.6875-.60938-.67187 0-1.25.5625-1.70312 1.28125l-.57813.90625H4.5625l-.5-2.14062-.07812-.04688-2.28125.65625.01562.34375.96875-.0625c.23438 0 .34375.09375.45313.59375l.46875 1.9375-.35938.64063C2.75-1.57812 2.3125-.9375 2-.9375c-.39062 0-.51562-.34375-.92187-.34375-.35938 0-.64063.35938-.64063.71875m0 0"/><path id="k" d="M1.10938-3.25h3.15625v3.15625h.875V-3.25h3.15625v-.875H5.14063v-3.15625h-.875V-4.125H1.10938Zm0 0"/><path id="l" d="M1.42188 0h4.375v-.40625L4.75-.5c-.28125-.03125-.42187-.125-.42187-.60937V-8.8125l-.09375-.07812-2.79688.48437v.34375l1.125.15625c.25.03125.32813.125.32813.53125v6.26563c0 .48437-.125.57812-.42188.60937l-1.04687.09375Zm0 0"/><path id="m" d="M.375-.15625.53125 0H6.0625l.46875-1.85937-.39062-.07813c-.29688.70313-.53125.79688-1.0625.79688H1.73438c.21874-.625.90625-1.5 2.17187-2.34375C5.23438-4.375 6.17188-5 6.17188-6.42187c0-1.82813-1.23438-2.46875-2.6875-2.46875C1.70313-8.89062.6875-7.85937.6875-7.0625c0 .46875.54688.6875.82813.6875.25 0 .375-.14062.4375-.39062.20312-.90625.6875-1.64063 1.45312-1.64063.92188 0 1.20313.79688 1.20313 1.75 0 1.26563-.5625 2.09375-1.78125 3.15625C1.15625-2.07812.5625-1.125.375-.15625m0 0"/><clipPath id="a"><path d="M.54688 144H284v1H.54688Zm0 0"/></clipPath><clipPath id="b"><path d="M141 3h2v283.10156h-2Zm0 0"/></clipPath></defs><path fill="none" stroke="#007F7F" stroke-miterlimit="10" stroke-width=".39718" d="M311.52728 144.64063c0-46.81249-37.9453-84.7617-84.75778-84.7617s-84.76169 37.94921-84.76169 84.7617c0 46.81248 37.9492 84.75777 84.76169 84.75777 46.81248 0 84.75778-37.9453 84.75778-84.75777Zm0 0"/><g clip-path="url(#a)"><path fill="none" stroke="#000" stroke-miterlimit="10" stroke-width=".39718" d="M.74224 144.64063H283.2773"/></g><g clip-path="url(#b)"><path fill="none" stroke="#000" stroke-miterlimit="10" stroke-width=".39718" d="M142.00781 285.9062V3.37506"/></g><path fill="none" stroke="#007F7F" stroke-miterlimit="10" stroke-width=".39718" d="M255.0234 14.67583v259.92959"/><path fill="none" stroke="#00ADEF" stroke-dasharray="2.9789668610000004 2.9789668610000004" stroke-miterlimit="10" stroke-width=".39718" d="M142.00781 144.64063 255.0234 64.72659m-113.01559 79.91404 113.01558 79.91403"/><path fill="none" stroke="red" stroke-miterlimit="10" stroke-width=".39718" d="M255.0234 144.64063V127.6875h-16.95312v16.95312Zm0 0"/><use xlink:href="#c" x="249.6489" y="149.09855"/><use xlink:href="#d" x="262.03789" y="133.88989"/><use xlink:href="#e" x="269.66396" y="133.88989"/><use xlink:href="#f" x="281.4804" y="133.88989"/><use xlink:href="#g" x="288.62984" y="133.88989"/><use xlink:href="#h" x="298.5199" y="133.88989"/><use xlink:href="#c" x="249.6489" y="36.08657"/><use xlink:href="#d" x="262.03789" y="20.8779"/><use xlink:href="#e" x="269.66396" y="20.8779"/><use xlink:href="#f" x="281.4804" y="20.8779"/><use xlink:href="#e" x="288.62984" y="20.8779"/><use xlink:href="#h" x="300.44627" y="20.8779"/><use xlink:href="#c" x="136.63791" y="149.09855"/><use xlink:href="#d" x="92.80896" y="165.9149"/><use xlink:href="#g" x="100.43503" y="165.9149"/><use xlink:href="#f" x="110.32509" y="165.9149"/><use xlink:href="#g" x="117.47453" y="165.9149"/><use xlink:href="#h" x="127.36459" y="165.9149"/><use xlink:href="#c" x="221.3964" y="149.09855"/><use xlink:href="#i" x="196.5576" y="168.52327"/><use xlink:href="#j" x="205.81297" y="160.53969"/><use xlink:href="#k" x="214.2374" y="160.53969"/><use xlink:href="#l" x="223.63494" y="160.53969"/><path fill="none" stroke="#000" stroke-miterlimit="10" stroke-width="1.09238" d="M205.8125 163.26172h24.8711"/><use xlink:href="#m" x="214.72348" y="175.51214"/><use xlink:href="#f" x="233.06678" y="168.52327"/><use xlink:href="#g" x="240.21622" y="168.52327"/><use xlink:href="#n" x="250.10627" y="168.52327"/><use xlink:href="#c" x="249.6489" y="69.18702" fill="#007F7F"/><g fill="#007F7F"><use xlink:href="#d" x="262.03789" y="52.1514"/><use xlink:href="#e" x="269.66396" y="52.1514"/></g><use xlink:href="#f" x="281.4804" y="52.1514" fill="#007F7F"/><use xlink:href="#o" x="288.63188" y="53.74014" fill="#007F7F"/><path fill="none" stroke="#007F7F" stroke-miterlimit="10" stroke-width="1.09238" d="M307.30078 35.51953h11.3789"/><g fill="#007F7F"><use xlink:href="#e" x="307.3001" y="52.1514"/><use xlink:href="#h" x="318.67962" y="52.1514"/></g><use xlink:href="#c" x="249.6489" y="229.01009" fill="#007F7F"/><g fill="#007F7F"><use xlink:href="#d" x="262.03789" y="249.83815"/><use xlink:href="#e" x="269.66396" y="249.83815"/></g><use xlink:href="#f" x="281.4804" y="249.83815" fill="#007F7F"/><use xlink:href="#p" x="288.62984" y="249.83815" fill="#007F7F"/><use xlink:href="#o" x="302.05745" y="251.4269" fill="#007F7F"/><path fill="none" stroke="#007F7F" stroke-miterlimit="10" stroke-width="1.09238" d="M320.72266 233.20703h11.38281"/><g fill="#007F7F"><use xlink:href="#e" x="320.72367" y="249.83815"/><use xlink:href="#h" x="332.1032" y="249.83815"/></g></svg>