<svg xmlns="http://www.w3.org/2000/svg" xmlns:xlink="http://www.w3.org/1999/xlink" width="283.863pt" height="244.177pt" viewBox="0 0 283.863 244.177"><defs><path id="c" d="M0 0h5.29688l.10937-.53125-1.29687-.125c-.3125-.01562-.45313-.15625-.45313-.45312 0-.125.01563-.26563.0625-.4375l.82813-3.67188H5.9375c1.59375 0 3.0625-.21875 4.125-.875 1.20313-.73437 1.89063-2.01562 1.89063-3.40625 0-1.26562-.59375-2.23437-1.5-2.75-.875-.5-2.07813-.65625-3.29688-.65625h-4.375l-.14062.53125 1.10937.07813c.32813.03125.45313.1875.45313.5 0 .125-.01563.26562-.04688.4375l-2.25 9.8125c-.15625.64062-.3125.85937-.78125.89062l-1.03125.125Zm4.8125-6.28125c0-.10937.01563-.23437.04688-.39062L6-11.625c.10938-.46875.23438-.64062 1.1875-.64062 1.84375 0 2.79688.85937 2.79688 2.45312 0 2.65625-1.48438 3.9375-4 3.9375-.95313 0-1.17188-.10937-1.17188-.40625m0 0"/><path id="d" d="M1.6875-5.26562c0 2.14062 1.5625 3.71875 3.73438 3.71875 2.07812 0 3.65625-1.57813 3.65625-3.71875 0-2.07813-1.57813-3.65625-3.65625-3.65625-2.17188 0-3.73438 1.57812-3.73438 3.65625m0 0"/><path id="e" d="M1.1875-5.04687c0 2.78125 1.45313 4.875 4.4375 5.25.875 1.625 2.75 3.59375 5.09375 3.59375.48438 0 1.07813-.125 1.39063-.29688l-.0625-.32812C10.26563 3.15625 8.875 1.76563 7.8125.20313c3.78125-.54688 5.98438-4.29688 5.98438-7.92188 0-3.84375-2.3125-5.48437-5.39063-5.48437-4.8125 0-7.21875 4.42187-7.21875 8.15625m1.96875.75c0-3.32813 1.60938-8.25 5.32813-8.25 2.04687 0 3.35937 1.20312 3.35937 3.84375C11.84375-4.15625 9.71875-.375 6.5-.375c-2.03125 0-3.34375-1.3125-3.34375-3.92187m0 0"/><path id="f" d="M1.60938-5.26562c0 4.21875.95312 8.84375 4.90625 9v-.5625c-1.32813-.25-3.42188-1.90625-3.42188-8.4375 0-6.48438 1.98438-8.14063 3.42188-8.4375v-.5625c-3.95313.17187-4.90625 4.79687-4.90625 9m0 0"/><path id="g" d="M.78125-6.23437C.78125-2.5 1.85938.21875 4.9375.21875S9.14063-2.5 9.14063-6.23437s-1.125-6.45313-4.20313-6.45313S.78125-9.96875.78125-6.23437m1.875 0c0-3.04688.51563-5.79688 2.28125-5.79688 1.78125 0 2.29688 2.75 2.29688 5.79688 0 3.03125-.51563 5.79687-2.29688 5.79687-1.76562 0-2.28125-2.76562-2.28125-5.79687m0 0"/><path id="h" d="m.95313 2.28125.35937.35938c.9375-.875 2.28125-2.125 2.28125-3.59375 0-1-.53125-1.6875-1.25-1.6875-.57812 0-.9375.45312-.9375.9375 0 .67187.625 1.03125.625 1.82812 0 .76563-.48437 1.5-1.07812 2.15625m0 0"/><path id="i" d="M1.10938 3.17188v.5625c3.95312-.15625 4.90625-4.78125 4.90625-9 0-4.20313-.95313-8.82813-4.90625-9v.5625c1.4375.29687 3.42187 1.95312 3.42187 8.4375 0 6.53125-2.09375 8.1875-3.42187 8.4375m0 0"/><path id="j" d="M2.03125 0h6.125v-.53125l-1.5625-.14062c-.39062-.04688-.60937-.1875-.60937-.92188v-11L5.875-12.6875l-3.84375.65625v.45313l1.73438.21875c.32812.04687.4375.17187.4375.71875v9.04687c0 .73438-.17188.875-.60938.92188l-1.5625.14062Zm0 0"/><path id="k" d="M2.0625-5.26562c0 8.78125.73438 14.85937 4.51563 15.82812v-.53125C4.03125 8.45313 3.5625 2.17188 3.5625-5.26562c0-7.26563.40625-13.6875 3.01563-15.26563v-.5625c-3.64063 1.0625-4.51563 6.875-4.51563 15.82813m0 0"/><path id="n" d="M.67188 10.03125v.53125c3.78125-.96875 4.46875-7.04687 4.46875-15.82812 0-8.95313-.82813-14.76563-4.46875-15.82813v.5625c2.60937 1.57813 3 8 3 15.26563 0 7.4375-.45313 13.71875-3 15.29687m0 0"/><path id="l" d="M.6875 3.15625 2.01563 3 2.75-.125c.28125.17188.71875.28125 1.39063.28125 3.1875 0 4.09375-3.96875 4.09375-5 0-1.10937-.5-1.71875-1.46875-1.71875-1.03125 0-2.28125.95313-3.28125 2.82813h-.03125L4.1875-6.5l-.0625-.0625-2.53125.35938-.07812.34375.8125.07812c.1875.01563.25.10938.25.26563 0 .09375-.01563.20312-.0625.34375Zm2.1875-3.875c.17188-.8125.54688-2.125 1.04688-3.01562.60937-1.07813 1.48437-2.04688 2.1875-2.04688.4375 0 .65625.34375.65625.98438 0 1.04687-.79688 4.46875-2.78125 4.46875-.48438 0-.82813-.14063-1.10938-.39063m0 0"/><path id="m" d="M.96875-1.42187C.96875-.32812 1.57813.15624 2.25.15624c1.09375 0 2.35938-1.01562 3.34375-2.64062H5.625L4.34375 3.15625l1.39063-.25 2.29687-9.73437h-.54687l-.5625.5625c-.25-.125-.71875-.29688-1.35938-.29688-3.26562 0-4.59375 3.35938-4.59375 5.14063m1.48438-.1875c0-1.26563 1.09375-4.45313 3.17187-4.45313.375 0 .64063.10938.84375.25C6.14063-4.34375 5.5625-3 4.85938-2.0625c-.6875.9375-1.32813 1.45313-1.82813 1.45313-.4375 0-.57812-.46875-.57812-1m0 0"/><clipPath id="a"><path d="M.41016 158H283.3164v1H.41016Zm0 0"/></clipPath><clipPath id="b"><path d="M141 16h2v227.35547h-2Zm0 0"/></clipPath></defs><g clip-path="url(#a)"><path fill="none" stroke="#000" stroke-miterlimit="10" stroke-width=".39716" d="M.60544 158.40234h282.51568"/></g><g clip-path="url(#b)"><path fill="none" stroke="#000" stroke-miterlimit="10" stroke-width=".39716" d="M141.86328 243.16017V17.14451"/></g><path fill="none" stroke="#007F7F" stroke-miterlimit="10" stroke-width=".39716" d="m107.96093.19528 152.55862 203.4102m-33.90235 11.30078L82.53515 22.79685"/><use xlink:href="#c" x="233.63242" y="151.38874"/><use xlink:href="#d" x="221.24517" y="162.86307"/><use xlink:href="#e" x="148.87908" y="34.59041"/><use xlink:href="#d" x="136.49183" y="49.85795"/><use xlink:href="#f" x="92.66555" y="179.67839"/><use xlink:href="#g" x="100.29116" y="179.67839"/><use xlink:href="#h" x="110.18061" y="179.67839"/><use xlink:href="#g" x="117.32962" y="179.67839"/><use xlink:href="#i" x="127.21908" y="179.67839"/><use xlink:href="#d" x="136.49183" y="162.86307"/><use xlink:href="#f" x="92.66555" y="123.17584"/><use xlink:href="#g" x="100.29116" y="123.17584"/><use xlink:href="#h" x="110.18061" y="123.17584"/><use xlink:href="#j" x="117.32962" y="123.17584"/><use xlink:href="#i" x="127.21908" y="123.17584"/><use xlink:href="#d" x="136.49183" y="106.36051"/><use xlink:href="#k" x="161.67296" y="186.51037" fill="#007F7F"/><use xlink:href="#l" x="171.26463" y="176.45426" fill="#007F7F"/><path fill="none" stroke="#007F7F" stroke-miterlimit="10" stroke-width="1.09232" d="M171.26563 181.2461h8.91015"/><use xlink:href="#m" x="171.35433" y="193.49881" fill="#007F7F"/><use xlink:href="#h" x="182.55857" y="186.51037" fill="#007F7F"/><g fill="#007F7F"><use xlink:href="#g" x="189.70757" y="186.51037"/><use xlink:href="#n" x="199.59703" y="186.51037"/></g><use xlink:href="#d" x="178.86801" y="162.86307" fill="#007F7F"/></svg>