<svg xmlns="http://www.w3.org/2000/svg" xmlns:xlink="http://www.w3.org/1999/xlink" width="294.483pt" height="287.05pt" viewBox="0 0 294.483 287.05"><defs><path id="d" d="M1.60938-5.26562c0 4.21875.95312 8.84375 4.90625 9v-.5625c-1.32813-.25-3.42188-1.90625-3.42188-8.4375 0-6.48438 1.98438-8.14063 3.42188-8.4375v-.5625c-3.95313.17187-4.90625 4.79687-4.90625 9m0 0"/><path id="e" d="M2.03125 0h6.125v-.53125l-1.5625-.14062c-.39062-.04688-.60937-.1875-.60937-.92188v-11L5.875-12.6875l-3.84375.65625v.45313l1.73438.21875c.32812.04687.4375.17187.4375.71875v9.04687c0 .73438-.17188.875-.60938.92188l-1.5625.14062Zm0 0"/><path id="f" d="m.95313 2.28125.35937.35938c.9375-.875 2.28125-2.125 2.28125-3.59375 0-1-.53125-1.6875-1.25-1.6875-.57812 0-.9375.45312-.9375.9375 0 .67187.625 1.03125.625 1.82812 0 .76563-.48437 1.5-1.07812 2.15625m0 0"/><path id="g" d="M.78125-6.23437C.78125-2.5 1.85938.21875 4.9375.21875S9.14063-2.5 9.14063-6.23437s-1.125-6.45313-4.20313-6.45313S.78125-9.96875.78125-6.23437m1.875 0c0-3.04688.51563-5.79688 2.28125-5.79688 1.78125 0 2.29688 2.75 2.29688 5.79688 0 3.03125-.51563 5.79687-2.29688 5.79687-1.76562 0-2.28125-2.76562-2.28125-5.79687m0 0"/><path id="h" d="M1.10938 3.17188v.5625c3.95312-.15625 4.90625-4.78125 4.90625-9 0-4.20313-.95313-8.82813-4.90625-9v.5625c1.4375.29687 3.42187 1.95312 3.42187 8.4375 0 6.53125-2.09375 8.1875-3.42187 8.4375m0 0"/><path id="i" d="M1.6875-5.26562c0 2.14062 1.5625 3.71875 3.73438 3.71875 2.07812 0 3.65625-1.57813 3.65625-3.71875 0-2.07813-1.57813-3.65625-3.65625-3.65625-2.17188 0-3.73438 1.57812-3.73438 3.65625m0 0"/><path id="j" d="M2.1875-1.25c0 .875.375 1.46875 1.42188 1.46875 1.79687 0 3.76562-1.96875 4.875-4.125h.03125l-.60938 2.125c-.09375.375-.15625.6875-.15625.96875 0 .65625.3125 1.03125 1.01563 1.03125 1.34375 0 2.45312-1.26562 3.10937-2.65625l-.4375-.28125C11.0625-2.07812 10.23438-.75 9.71875-.75c-.25 0-.34375-.15625-.34375-.42187 0-.15626.03125-.35938.09375-.57813l2.01563-7.625-1.67188.21875C9.28125-7.25 8.95313-6.25 8.48438-5.125c-.8125 1.89063-2.45313 4.375-4 4.375-.39063 0-.59375-.25-.59375-.73437 0-.25.04687-.54688.14062-.90625L5.8125-9.28125 5.71875-9.375l-3.39062.51563-.125.45312 1.17187.10938c.28125.01562.375.14062.375.35937 0 .125-.03125.3125-.09375.53125L2.35938-2.48437C2.25-2.04687 2.1875-1.625 2.1875-1.25m0 0"/><path id="k" d="M1.59375-4.71875h10.26563V-5.8125H1.59375Zm0 0"/><path id="l" d="M1.0625-3.25h7.28125v-.85937H1.0625Zm0 0"/><path id="m" d="M1.42188 0h4.375v-.40625L4.75-.5c-.28125-.03125-.42187-.125-.42187-.60937V-8.8125l-.09375-.07812-2.79688.48437v.34375l1.125.15625c.25.03125.32813.125.32813.53125v6.26563c0 .48437-.125.57812-.42188.60937l-1.04687.09375Zm0 0"/><clipPath id="a"><path d="M.22656 197H227v2H.22656Zm0 0"/></clipPath><clipPath id="b"><path d="M93 51h125v235.10156H93Zm0 0"/></clipPath><clipPath id="c"><path d="M.22656 51H233v235.10156H.22656Zm0 0"/></clipPath></defs><g clip-path="url(#a)"><path fill="none" stroke="#000" stroke-miterlimit="10" stroke-width=".39718" d="M.42581 197.96875h226.02726"/></g><path fill="none" stroke="#000" stroke-miterlimit="10" stroke-width=".39718" d="M85.1875 282.73044V.19539"/><g clip-path="url(#b)"><path fill="none" stroke="#007F7F" stroke-miterlimit="10" stroke-width=".39718" d="M99.3125 282.73044 212.32417 56.70318"/></g><g clip-path="url(#c)"><path fill="none" stroke="#007F7F" stroke-miterlimit="10" stroke-width=".39718" d="M226.45307 56.70318.42581 282.73044"/></g><path fill="none" stroke="#00ADEF" stroke-dasharray="2.9789668610000004 2.9789668610000004" stroke-miterlimit="10" stroke-width=".39718" d="M28.67971 254.47654h84.75778"/><use xlink:href="#d" x="148.70765" y="219.24441"/><use xlink:href="#e" x="156.33372" y="219.24441"/><use xlink:href="#f" x="166.22377" y="219.24441"/><use xlink:href="#g" x="173.37321" y="219.24441"/><use xlink:href="#h" x="183.26327" y="219.24441"/><use xlink:href="#i" x="136.31965" y="202.42706"/><use xlink:href="#d" x="120.45515" y="275.7504"/><use xlink:href="#j" x="128.08122" y="275.7504"/><use xlink:href="#f" x="141.18852" y="275.7504"/><use xlink:href="#k" x="148.33796" y="275.7504"/><use xlink:href="#e" x="161.76302" y="275.7504"/><use xlink:href="#h" x="171.65308" y="275.7504"/><use xlink:href="#i" x="108.06615" y="258.93305"/><use xlink:href="#d" x="35.9857" y="187.21939"/><use xlink:href="#g" x="43.61177" y="187.21939"/><use xlink:href="#f" x="53.50183" y="187.21939"/><use xlink:href="#g" x="60.65127" y="187.21939"/><use xlink:href="#h" x="70.54133" y="187.21939"/><use xlink:href="#i" x="79.81365" y="202.42706"/><use xlink:href="#d" x="120.59967" y="130.7134"/><use xlink:href="#e" x="128.22574" y="130.7134"/><use xlink:href="#f" x="138.1158" y="130.7134"/><use xlink:href="#e" x="145.26524" y="130.7134"/><use xlink:href="#h" x="155.1553" y="130.7134"/><use xlink:href="#i" x="136.31965" y="145.92207"/><g fill="#007F7F"><use xlink:href="#d" x="205.21364" y="91.50416"/><use xlink:href="#j" x="212.83971" y="91.50416"/></g><g fill="#007F7F"><use xlink:href="#l" x="224.95431" y="83.56045"/><use xlink:href="#m" x="234.35185" y="83.56045"/></g><use xlink:href="#f" x="242.59194" y="91.50416" fill="#007F7F"/><use xlink:href="#j" x="249.74138" y="91.50416" fill="#007F7F"/><g fill="#007F7F"><use xlink:href="#l" x="261.85618" y="83.56045"/><use xlink:href="#m" x="271.25372" y="83.56045"/></g><use xlink:href="#h" x="279.49381" y="91.50416" fill="#007F7F"/><use xlink:href="#i" x="192.82564" y="89.41608" fill="#007F7F"/></svg>