<svg xmlns="http://www.w3.org/2000/svg" xmlns:xlink="http://www.w3.org/1999/xlink" width="283.863pt" height="170.477pt" viewBox="0 0 283.863 170.477"><defs><path id="c" d="M1.6875-5.26562c0 2.14062 1.5625 3.71875 3.73438 3.71875 2.07812 0 3.65625-1.57813 3.65625-3.71875 0-2.07813-1.57813-3.65625-3.65625-3.65625-2.17188 0-3.73438 1.57812-3.73438 3.65625m0 0"/><path id="d" d="M1.60938-5.26562c0 4.21875.95312 8.84375 4.90625 9v-.5625c-1.32813-.25-3.42188-1.90625-3.42188-8.4375 0-6.48438 1.98438-8.14063 3.42188-8.4375v-.5625c-3.95313.17187-4.90625 4.79687-4.90625 9m0 0"/><path id="e" d="M2.1875-1.25c0 .875.375 1.46875 1.42188 1.46875 1.79687 0 3.76562-1.96875 4.875-4.125h.03125l-.60938 2.125c-.09375.375-.15625.6875-.15625.96875 0 .65625.3125 1.03125 1.01563 1.03125 1.34375 0 2.45312-1.26562 3.10937-2.65625l-.4375-.28125C11.0625-2.07812 10.23438-.75 9.71875-.75c-.25 0-.34375-.15625-.34375-.42187 0-.15626.03125-.35938.09375-.57813l2.01563-7.625-1.67188.21875C9.28125-7.25 8.95313-6.25 8.48438-5.125c-.8125 1.89063-2.45313 4.375-4 4.375-.39063 0-.59375-.25-.59375-.73437 0-.25.04687-.54688.14062-.90625L5.8125-9.28125 5.71875-9.375l-3.39062.51563-.125.45312 1.17187.10938c.28125.01562.375.14062.375.35937 0 .125-.03125.3125-.09375.53125L2.35938-2.48437C2.25-2.04687 2.1875-1.625 2.1875-1.25m0 0"/><path id="f" d="m.95313 2.28125.35937.35938c.9375-.875 2.28125-2.125 2.28125-3.59375 0-1-.53125-1.6875-1.25-1.6875-.57812 0-.9375.45312-.9375.9375 0 .67187.625 1.03125.625 1.82812 0 .76563-.48437 1.5-1.07812 2.15625m0 0"/><path id="g" d="M.78125-6.23437C.78125-2.5 1.85938.21875 4.9375.21875S9.14063-2.5 9.14063-6.23437s-1.125-6.45313-4.20313-6.45313S.78125-9.96875.78125-6.23437m1.875 0c0-3.04688.51563-5.79688 2.28125-5.79688 1.78125 0 2.29688 2.75 2.29688 5.79688 0 3.03125-.51563 5.79687-2.29688 5.79687-1.76562 0-2.28125-2.76562-2.28125-5.79687m0 0"/><path id="h" d="M1.10938 3.17188v.5625c3.95312-.15625 4.90625-4.78125 4.90625-9 0-4.20313-.95313-8.82813-4.90625-9v.5625c1.4375.29687 3.42187 1.95312 3.42187 8.4375 0 6.53125-2.09375 8.1875-3.42187 8.4375m0 0"/><path id="i" d="M1.59375-4.71875h10.26563V-5.8125H1.59375Zm0 0"/><clipPath id="a"><path d="M.36719 84h282.99219v2H.36717Zm0 0"/></clipPath><clipPath id="b"><path d="M141 0h2v169.95703h-2Zm0 0"/></clipPath></defs><g clip-path="url(#a)"><path fill="none" stroke="#000" stroke-miterlimit="10" stroke-width=".39728" d="M.56243 84.97656h282.6017"/></g><g clip-path="url(#b)"><path fill="none" stroke="#000" stroke-miterlimit="10" stroke-width=".39728" d="M141.86328 169.75785V.19527"/></g><use xlink:href="#c" x="193.0098" y="89.43762"/><use xlink:href="#d" x="205.40079" y="74.22529"/><use xlink:href="#e" x="213.02869" y="74.22529"/><use xlink:href="#f" x="226.13915" y="74.22529"/><use xlink:href="#g" x="233.29032" y="74.22529"/><use xlink:href="#h" x="243.18276" y="74.22529"/><use xlink:href="#c" x="79.97059" y="89.43762" fill="#007F7F"/><g fill="#007F7F"><use xlink:href="#d" x="19.48515" y="74.22529"/><use xlink:href="#i" x="27.11305" y="74.22529"/><use xlink:href="#e" x="40.54135" y="74.22529"/></g><use xlink:href="#f" x="53.65181" y="74.22529" fill="#007F7F"/><g fill="#007F7F"><use xlink:href="#g" x="60.80297" y="74.22529"/><use xlink:href="#h" x="70.69541" y="74.22529"/></g><path fill="none" stroke="#007F7F" stroke-miterlimit="10" stroke-width=".39728" d="M198.38284 84.97656c0-31.21486-25.3047-56.51956-56.51956-56.51956S85.34372 53.7617 85.34372 84.97656s25.3047 56.51956 56.51956 56.51956 56.51956-25.3047 56.51956-56.51956Zm0 0"/></svg>