<svg xmlns="http://www.w3.org/2000/svg" xmlns:xlink="http://www.w3.org/1999/xlink" width="306.219pt" height="255.516pt" viewBox="0 0 306.219 255.516"><defs><path id="d" d="M1.60938-5.26562c0 4.21875.95312 8.84375 4.90625 9V3.1875C5.1875 2.92188 3.09375 1.26563 3.09375-5.26562c0-6.5 2-8.15625 3.42188-8.45313v-.54687c-3.95313.15625-4.90625 4.78125-4.90625 9m0 0"/><path id="e" d="M.78125-6.23437C.78125-2.5 1.875.21875 4.95313.21875S9.14063-2.5 9.14063-6.23437c0-3.75-1.10938-6.46875-4.1875-6.46875S.78125-9.98437.78125-6.23437m1.875 0c0-3.04688.53125-5.8125 2.29688-5.8125s2.28125 2.76562 2.28125 5.8125c0 3.03125-.51563 5.79687-2.28125 5.79687-1.76563 0-2.29688-2.76562-2.29688-5.79687m0 0"/><path id="f" d="m.95313 2.28125.35937.35938c.9375-.875 2.28125-2.125 2.28125-3.59375 0-1-.53125-1.6875-1.25-1.6875-.57812 0-.9375.45312-.9375.9375 0 .67187.625 1.03125.625 1.82812 0 .76563-.48437 1.5-1.07812 2.15625m0 0"/><path id="g" d="M2.1875-1.25c0 .875.375 1.46875 1.4375 1.46875 1.78125 0 3.75-1.96875 4.85938-4.14062h.04687l-.625 2.14062c-.09375.375-.15625.6875-.15625.96875 0 .65625.3125 1.03125 1.01563 1.03125 1.34375 0 2.46875-1.26562 3.125-2.65625l-.4375-.28125c-.375.625-1.21875 1.96875-1.73438 1.96875-.23437 0-.34375-.17187-.34375-.42187 0-.15626.04688-.35938.10938-.57813l2-7.625-1.67188.21875C9.28125-7.25 8.96875-6.26562 8.48438-5.125c-.8125 1.89063-2.4375 4.375-4 4.375-.39063 0-.59375-.25-.59375-.73437 0-.25.04687-.54688.14062-.90625l1.79688-6.89063-.10938-.09375-3.39062.51563-.125.45312L3.375-8.3125c.28125.03125.375.14063.375.35938 0 .14062-.03125.32812-.09375.54687L2.35938-2.48437C2.25-2.04687 2.1875-1.625 2.1875-1.25m0 0"/><path id="h" d="M1.10938 3.1875v.54688c3.95312-.15625 4.90625-4.78125 4.90625-9s-.95313-8.84375-4.90625-9v.54687c1.4375.29688 3.42187 1.95313 3.42187 8.45313 0 6.53125-2.09375 8.1875-3.42187 8.45312m0 0"/><path id="i" d="M1.6875-5.26562c0 2.14062 1.57813 3.71875 3.73438 3.71875 2.09375 0 3.65625-1.57813 3.65625-3.71875 0-2.09375-1.5625-3.65625-3.65625-3.65625-2.15625 0-3.73438 1.5625-3.73438 3.65625m0 0"/><path id="j" d="M1.59375-4.73437h10.26563v-1.09375H1.59375Zm0 0"/><path id="k" d="m2.1875-8.40625 1.15625.09375c.28125.03125.35938.125.35938.34375 0 .14063-.03125.3125-.07813.5625l-1.14062 5.1875c-.07813.34375-.125.65625-.125.92188 0 1.0625.5625 1.51562 1.42187 1.51562C5.39063.21875 7-1.26562 8.28125-3c1.28125-1.70312 2.17188-3.78125 2.1875-4.9375 0-.73437-.40625-1.4375-.57812-1.4375-.45313 0-.96875.15625-1.35938.39063.17188.65625.23438 1.35937.23438 2.32812C8.60938-4.10937 6.20313-.75 4.6875-.75c-.42187 0-.67187-.26562-.67187-.79687 0-.14063.01562-.32813.0625-.5l1.625-7.23438-.09375-.09375-3.29688.51563Zm0 0"/><path id="l" d="M1.59375-4.73437H6.1875v4.59375h1.09375v-4.59375h4.57813v-1.09375H7.28125v-4.59375H6.1875v4.59375H1.59375Zm0 0"/><clipPath id="a"><path d="M24 .08203h224V218H24Zm0 0"/></clipPath><clipPath id="b"><path d="M213 .08203h2V216h-2Zm0 0"/></clipPath><clipPath id="c"><path d="M157 28h1v226.94922h-1Zm0 0"/></clipPath></defs><g clip-path="url(#a)"><path fill="none" stroke="#007F7F" stroke-miterlimit="10" stroke-width=".39749" d="M242.16406.28125 30.10547 212.33985"/></g><g clip-path="url(#b)"><path fill="none" stroke="#007F7F" stroke-miterlimit="10" stroke-width=".39749" d="M213.89062.27735v214.89062"/></g><path fill="none" stroke="#00ADEF" stroke-dasharray="2.9812383718 2.9812383718" stroke-miterlimit="10" stroke-width=".39749" d="m213.89062 113.3789-56.55078 56.54688"/><path fill="none" stroke="#000" stroke-miterlimit="10" stroke-width=".39749" d="M15.96485 169.92578h282.74999"/><g clip-path="url(#c)"><path fill="none" stroke="#000" stroke-miterlimit="10" stroke-width=".39749" d="M157.33984 254.75V28.5547"/></g><use xlink:href="#d" x="104.8825" y="74.34722"/><use xlink:href="#e" x="112.51434" y="74.34722"/><use xlink:href="#f" x="122.41189" y="74.34722"/><use xlink:href="#g" x="129.56674" y="74.34722"/><use xlink:href="#h" x="142.68397" y="74.34722"/><use xlink:href="#i" x="151.96342" y="89.56641"/><use xlink:href="#d" x="6.62411" y="159.16988"/><use xlink:href="#j" x="14.25595" y="159.16988"/><use xlink:href="#g" x="27.69117" y="159.16988"/><use xlink:href="#f" x="40.8084" y="159.16988"/><use xlink:href="#e" x="47.96325" y="159.16988"/><use xlink:href="#h" x="57.8608" y="159.16988"/><use xlink:href="#i" x="67.14076" y="174.39007"/><use xlink:href="#d" x="220.90958" y="191.21914"/><use xlink:href="#k" x="228.54142" y="191.21914"/><use xlink:href="#f" x="240.24756" y="191.21914"/><use xlink:href="#e" x="247.40241" y="191.21914"/><use xlink:href="#h" x="257.29995" y="191.21914"/><use xlink:href="#i" x="208.5122" y="174.39007"/><use xlink:href="#d" x="220.90958" y="118.64624"/><use xlink:href="#k" x="228.54142" y="118.64624"/><use xlink:href="#f" x="240.24756" y="118.64624"/><use xlink:href="#k" x="247.40241" y="118.64624"/><use xlink:href="#h" x="259.10854" y="118.64624"/><use xlink:href="#i" x="208.5122" y="117.84129"/><g fill="#007F7F"><use xlink:href="#d" x="220.90958" y="33.82258"/><use xlink:href="#k" x="228.54142" y="33.82258"/></g><use xlink:href="#f" x="240.24756" y="33.82258" fill="#007F7F"/><use xlink:href="#g" x="247.40241" y="33.82258" fill="#007F7F"/><use xlink:href="#l" x="263.28221" y="33.82258" fill="#007F7F"/><use xlink:href="#k" x="279.46012" y="33.82258" fill="#007F7F"/><use xlink:href="#h" x="291.16626" y="33.82258" fill="#007F7F"/><use xlink:href="#i" x="208.5122" y="33.01763" fill="#007F7F"/></svg>