<svg xmlns="http://www.w3.org/2000/svg" xmlns:xlink="http://www.w3.org/1999/xlink" width="525.42pt" height="336.244pt" viewBox="0 0 525.42 336.244"><defs><path id="a" d="M-.53125 0h4.10938v-.53125l-.96875-.10937c-.5625-.0625-.64063-.25-.48438-.75.3125-1.10938.70313-2.26563 1.14063-3.59375h4.1875l1.25 3.57812c.1875.53125.09375.73438-.5.79688l-.84375.07812V0h4.78125v-.53125c-1.09375-.10937-1.28125-.17187-1.625-1.14062l-3.95313-11.25H5.17188L3.21875-7.39062c-.57812 1.625-1.375 3.85937-2.03125 5.5625C.79688-.8125.64063-.59375-.53125-.53125Zm4.04688-5.70312c.59375-1.875 1.25-3.70313 1.8125-5.34375h.0625l1.84375 5.34375Zm0 0"/><path id="b" d="M1.70313-12.21875c0 .67188.48437 1.14063 1.15625 1.14063.67187 0 1.14062-.46875 1.14062-1.14063 0-.6875-.46875-1.14062-1.14062-1.14062-.67188 0-1.15625.45312-1.15625 1.14062M.59375 0h4.54688v-.53125C3.8125-.64062 3.75-.67187 3.75-1.625v-7.64062L3.625-9.375l-2.92187.46875v.45313l.6875.10937C1.875-8.26562 2-8.1875 2-7.51562V-1.625C2-.67187 1.95313-.64062.59375-.53125Zm0 0"/><path id="c" d="M.59375 0h4.9375v-.53125C3.85938-.64062 3.75-.67187 3.75-1.625V-6c0-1.4375.64063-1.9375 1.07813-1.9375.29687 0 .625.125 1.15625.42188.14062.07812.28125.10937.375.10937.45312 0 .85937-.48437.85937-1.0625 0-.42187-.26562-.90625-1-.90625-.67187 0-1.23437.39063-2.46875 1.48438L3.53125-9.375l-2.82812.46875v.45313l.6875.10937C1.875-8.26562 2-8.1875 2-7.51562V-1.625C2-.67187 1.90625-.64062.59375-.53125Zm0 0"/><path id="d" d="M.92188-4.51562c0 2.96875 1.26562 4.73437 4.3125 4.73437 2.0625 0 3.14062-1.15625 3.625-2.625l-.54688-.29687C7.79688-1.60937 7.07813-.73437 5.60938-.73437c-2.32813 0-2.78125-2.23438-2.75-4.17188H8.25c.39063 0 .73438-.10937.73438-.71875 0-1.09375-.35938-3.75-3.78125-3.75-2.92188 0-4.28125 2.0625-4.28125 4.85938M2.875-5.625c0-.78125.28125-3.09375 2.23438-3.09375 1.73437 0 1.92187 1.76563 1.92187 2.5 0 .35938-.10937.59375-.625.59375Zm0 0"/><path id="e" d="M.92188-4.39062c0 2.76562 1.4375 4.60937 3.90625 4.60937 1.01562 0 1.875-.45312 2.89062-1.26562v.90625L7.875 0h3.01563v-.53125C9.5625-.64062 9.5-.67187 9.5-1.625V-13.75l-.14062-.10937-2.9375.46875v.46875l.71875.0625c.46875.0625.59375.15625.59375.875v3.0625c-.51563-.28125-1.21875-.45313-2.0625-.45313-1.53125 0-2.6875.48438-3.46875 1.28125C1.40625-7.25.92188-6.01562.92188-4.39062m1.9375-.21875c0-2.42188.875-4.10938 2.78125-4.10938.875 0 1.59375.39063 1.9375 1.17188.15625.3125.15625.59375.15625 1.09375v3.26562c0 .42188 0 .75-.125 1.0625-.375.96875-1.1875 1.34375-2.15625 1.34375-1.71875 0-2.59375-1.6875-2.59375-3.82812m0 0"/><path id="f" d="m.48438-8.45312.70312.10937c.48438.07813.59375.15625.59375.82813v4.9375C1.78125-.4375 3.0625.21875 4.45313.21875c1.59375 0 2.875-1.07812 3.42187-1.32812L8.04688 0h3v-.53125C9.76563-.64062 9.64063-.67187 9.64063-1.625v-7.64062L9.5-9.375l-2.92187.46875v.45313l.71875.10937c.46875.07813.59375.15625.59375.82813v4.21875c0 .51562-.0625.9375-.15625 1.10937-.4375.85938-1.3125 1.40625-2.28125 1.40625-1.09375 0-1.89063-.6875-1.89063-2.14062v-6.34375L3.42188-9.375l-2.9375.46875Zm0 0"/><path id="g" d="M.92188-4.48437C.92188-1.375 2.4375.21875 5.25.21875c1.3125 0 3.07813-.67187 3.59375-2.6875l-.5625-.25C7.71875-1.40625 6.96875-.75 5.60938-.75c-2.23438 0-2.75-2.32812-2.75-4.07812 0-2.78125 1.09375-3.89063 2.39062-3.89063.85938 0 1.39063.60938 1.76563 1.625.125.29688.23437.46875.59375.46875.375 0 1.09375-.23437 1.09375-.95312 0-.84375-1.23438-1.79688-3.25-1.79688-3.40625 0-4.53125 2.40625-4.53125 4.89063m0 0"/><path id="h" d="M.57813-8.40625h1.34375v6.5C1.92188 0 3.34375.21875 4 .21875c.95313 0 1.84375-.48437 2.375-.8125L6.23438-1c-.45313.1875-.84375.25-1.32813.25-.64062 0-1.23437-.46875-1.23437-1.875v-5.78125h2.40625v-.75H3.67188V-11.5h-.53125L2-9.15625H.57813Zm0 0"/><path id="i" d="M.92188-2.42187c0 1.39062.92187 2.64062 2.67187 2.64062C4.6875.21875 5.78125-.5 6.375-.89062c.26563.6875.57813 1.10937 1.23438 1.10937.70312 0 1.5-.20312 2.20312-.5625l-.10937-.4375c-.26563.0625-.6875.07813-.95313 0-.34375-.07812-.65625-.40625-.65625-1.57812v-4.53125c0-1.09375-.25-2.48438-3.0625-2.48438C2.92188-9.375 1.25-8.28125 1.25-7.25c0 .59375.70313.875 1.0625.875.39063 0 .48438-.20312.59375-.51562.40625-1.39063 1.17188-1.82813 1.92188-1.82813.73437 0 1.57812.375 1.57812 1.85938v.78125c-.48437.46875-2.29687.95312-3.76562 1.42187C1.29688-4.23437.92188-3.29687.92188-2.42187m1.875-.26563c0-.875.40625-1.32812 1.45312-1.71875.76563-.28125 1.73438-.64062 2.15625-.90625v2.65625c0 1.5-1.15625 1.875-1.89062 1.875-1.15625 0-1.71875-.8125-1.71875-1.90625m0 0"/><path id="j" d="M.59375 0h4.54688v-.53125C3.8125-.64062 3.75-.67187 3.75-1.625V-6c0-.48437.03125-.71875.1875-1.01562C4.32813-7.75 5.17188-8.375 6.15625-8.375c1.28125 0 1.96875.70313 1.96875 2.32813V-1.625c0 .95313-.0625.98438-1.40625 1.09375V0h4.5625v-.53125C9.95313-.64062 9.875-.67187 9.875-1.625v-4.78125c0-1.875-1.03125-2.96875-2.73437-2.96875-1.39063 0-2.25.67188-3.40625 1.42188l-.25-1.42188-2.78125.46875v.45313l.6875.10937C1.875-8.26562 2-8.1875 2-7.51562V-1.625C2-.67187 1.95313-.64062.59375-.53125Zm0 0"/><path id="k" d="M.78125 1.78125c0 1.89063 1.875 2.73438 4.04688 2.73438 1.10937 0 2.28125-.21875 3.1875-.76563C8.85938 3.23438 9.5 2.34375 9.5 1.1875c0-2.01562-1.60937-2.71875-3.60937-2.71875h-1.5c-1.34375 0-1.54688-.45312-1.54688-.8125 0-.53125.71875-.84375.95313-.92187.35937.04687.75.0625.95312.0625 1.76563 0 3.78125-.76563 3.78125-3.03125 0-.78125-.26562-1.4375-.57812-1.75l1.48437-.25.375-1.17188-.15625-.15625-2.375.76563C6.75-9.15625 5.70313-9.375 4.84375-9.375 1.98438-9.375 1-7.625 1-6.23437c0 1.75 1.14063 2.5625 2 2.78125v.03125c-1.01562.40625-1.70312.9375-1.70312 1.67187 0 .65625.75 1.35938 1.64062 1.45313v.03125C2.14063 0 .78125.4375.78125 1.78125m1.78125-.07812c0-.625.1875-1.10938.57813-1.40625.42187-.3125 1.03125-.4375 1.92187-.4375 1.65625 0 2.875.42187 2.875 1.8125C7.9375 3.15625 6.57813 3.875 5.25 3.875c-1.59375 0-2.6875-.8125-2.6875-2.17187m.34375-7.9375c0-1.85938.95313-2.48438 1.9375-2.48438.92188 0 1.875.67188 1.875 2.48438 0 1.5625-.79687 2.375-1.89062 2.375-1.04688 0-1.92188-.8125-1.92188-2.375m0 0"/><path id="l" d="M.375 0h4.54688v-.53125C3.59375-.64062 3.53125-.67187 3.53125-1.625V-13.75l-.125-.10937-2.92187.46875v.46875l.6875.0625c.48437.0625.59375.15625.59375.875V-1.625c0 .95313-.03126.98438-1.39063 1.09375Zm0 0"/><path id="m" d="m3.75-10.5.28125.39063 2.82813-1.57813c.54687-.29687 1.04687-.60937 1.04687-1.01562 0-.375-.45312-.8125-.73437-.8125-.3125 0-.64063.20312-1.1875.78125ZM.92188-4.51562c0 2.96875 1.26562 4.73437 4.3125 4.73437 2.0625 0 3.14062-1.15625 3.625-2.625l-.54688-.29687C7.79688-1.60937 7.07813-.73437 5.60938-.73437c-2.32813 0-2.78125-2.23438-2.75-4.17188H8.25c.39063 0 .73438-.10937.73438-.71875 0-1.09375-.35938-3.75-3.78125-3.75-2.92188 0-4.28125 2.0625-4.28125 4.85938M2.875-5.625c0-.78125.28125-3.09375 2.23438-3.09375 1.73437 0 1.92187 1.76563 1.92187 2.5 0 .35938-.10937.59375-.625.59375Zm0 0"/><path id="n" d="M2.0625-12.70312c0 .40625.5.71875 1.0625 1.01562l2.8125 1.57813.28125-.39063L4-12.73437c-.5625-.57813-.875-.78125-1.20312-.78125-.26563 0-.73438.4375-.73438.8125M.92188-2.42187c0 1.39062.92187 2.64062 2.67187 2.64062C4.6875.21875 5.78125-.5 6.375-.89062c.26563.6875.57813 1.10937 1.23438 1.10937.70312 0 1.5-.20312 2.20312-.5625l-.10937-.4375c-.26563.0625-.6875.07813-.95313 0-.34375-.07812-.65625-.40625-.65625-1.57812v-4.53125c0-1.09375-.25-2.48438-3.0625-2.48438C2.92188-9.375 1.25-8.28125 1.25-7.25c0 .59375.70313.875 1.0625.875.39063 0 .48438-.20312.59375-.51562.40625-1.39063 1.17188-1.82813 1.92188-1.82813.73437 0 1.57812.375 1.57812 1.85938v.78125c-.48437.46875-2.29687.95312-3.76562 1.42187C1.29688-4.23437.92188-3.29687.92188-2.42187m1.875-.26563c0-.875.40625-1.32812 1.45312-1.71875.76563-.28125 1.73438-.64062 2.15625-.90625v2.65625c0 1.5-1.15625 1.875-1.89062 1.875-1.15625 0-1.71875-.8125-1.71875-1.90625m0 0"/><path id="o" d="M1.42188 0H5.8125v-.40625L4.76563-.5c-.29688-.03125-.4375-.125-.4375-.60937v-7.71875L4.25-8.89062l-2.8125.46875v.34375l1.125.15625c.25.04687.32813.14062.32813.54687v6.26563c0 .48437-.125.57812-.42188.60937l-1.04687.09375Zm0 0"/><path id="p" d="M1.25.15625 2.625 0l2.29688-9.64062-.07813-.0625-2.48437.3125-.09375.34375L3-8.96875c.21875.03125.3125.07813.3125.26563 0 .07812-.01562.20312-.0625.34375Zm2.29688-3.60937c.21875.78125.53125 1.59375.85937 2.375.35938.8125.75 1.23437 1.40625 1.23437.875 0 1.48438-.73437 1.90625-1.875l-.35937-.17187c-.35938.75-.70313 1.25-1.03125 1.25-.21875 0-.39063-.25-.67188-.85938-.375-.8125-.71875-1.75-.96875-2.625C5.0625-4.5625 5.95313-5.5 6.375-5.5c.40625 0 .70313.39063 1.0625.39063.39063 0 .67188-.40625.67188-.79688 0-.35937-.1875-.67187-.71875-.67187-.59375 0-1.29688.53125-1.875 1.03125-.70313.625-1.46875 1.45312-1.96875 2.09375m0 0"/><path id="r" d="M1.125-3.6875c0 2.82813.71875 6.1875 3.35938 6.3125v-.4375C3.57813 2 2.28125.6875 2.28125-3.6875c0-4.35937 1.25-5.6875 2.20313-5.875V-10C1.84375-9.89062 1.125-6.51562 1.125-3.6875m0 0"/><path id="s" d="M1.10938-3.25h3.17187v3.15625h.875V-3.25H8.3125v-.89062H5.15625v-3.15625h-.875v3.15625H1.10938Zm0 0"/><path id="t" d="M.79688 2.1875v.4375C3.4375 2.5 4.15625-.85937 4.15625-3.6875S3.4375-9.89062.79688-10v.4375C1.75-9.375 3-8.03125 3-3.6875 3 .6875 1.6875 2.01563.79688 2.1875m0 0"/><path id="A" d="M.45313-.5625c0 .39063.32812.71875.89062.71875.875 0 1.35938-.84375 1.89063-1.71875l.5-.85937h.03125l.23437 1c.23438 1 .48438 1.57812 1.17188 1.57812 1.03125 0 1.60937-1.03125 2-1.90625l-.34375-.20312C6.5-1.32812 6.125-.60937 5.76563-.60937c-.25 0-.34375-.28126-.59375-1.29688l-.46875-1.85937c.45312-.76563 1.0625-1.71875 1.42187-1.71875.39063 0 .45313.21875.84375.21875.3125 0 .60938-.29688.60938-.6875 0-.4375-.32813-.625-.70313-.625-.67187 0-1.23437.5625-1.70312 1.28125l-.57813.90625H4.5625l-.5-2.125L4-6.57812l-2.29687.65625.01562.35937.96875-.07812c.23438 0 .34375.09375.45313.59375L3.625-3.09375l-.375.64063C2.75-1.57812 2.3125-.9375 2-.9375c-.39062 0-.51562-.34375-.92187-.34375-.35938 0-.625.35938-.625.71875m0 0"/><path id="q" d="M.82813-1.59375C.82813-.67187 1.21875.125 2.42188.125c.79687 0 1.375-.57812 1.8125-1.20312C4.28125-.25 4.60938.125 5.125.125c1.07813 0 1.6875-1.23437 1.8125-1.5625l-.28125-.14062c-.26562.48437-.73437.98437-.96875.98437-.32812 0-.34375-.51562-.34375-.89062s.03125-.85938.09375-1.28125L7.04688-5.0625h-.9375L5.34375-3.625c-.10937-1.17187-.53125-1.54687-1.57812-1.54687-1.6875 0-2.9375 1.6875-2.9375 3.57812m1.25.09375c0-1.03125.59375-3.25 1.6875-3.25.4375 0 .5625.64063.5625 1.35938 0 .4375-.03125.92187-.07813 1.32812-.4375.84375-1 1.64063-1.60937 1.64063-.46875 0-.5625-.53125-.5625-1.07813m0 0"/><path id="u" d="M1.6875-5.26562c0 2.14062 1.57813 3.71875 3.73438 3.71875 2.09375 0 3.65625-1.57813 3.65625-3.71875 0-2.09375-1.5625-3.65625-3.65625-3.65625-2.15625 0-3.73438 1.5625-3.73438 3.65625m0 0"/><path id="v" d="M1.78125.21875 3.51563 0l3.28125-13.76562-.07813-.09375-3.35937.4375-.09375.4375 1.04687.125c.3125.04687.45313.09375.45313.375 0 .14062-.01563.29687-.07813.54687Zm3.0625-5.20312c.35938 1.1875.79688 2.29687 1.3125 3.4375.54688 1.1875 1.09375 1.76562 2 1.76562 1.1875 0 2.01563-1.04687 2.57813-2.625L10.25-2.64062C9.73438-1.53125 9.26563-.79687 8.76563-.79687c-.3125 0-.57813-.35938-1.04688-1.32813-.57812-1.17187-1.04687-2.39062-1.40625-3.64062.53125-.59375 1.96875-2.1875 2.65625-2.1875.54688 0 .98438.5 1.45313.5.51562 0 .90625-.53125.90625-1.01563 0-.5-.23438-.90625-.96875-.90625-.76563 0-1.67188.59375-2.625 1.39063-1.0625.90625-2.01563 1.92187-2.89063 3m0 0"/><path id="w" d="M1.59375-4.73437H6.1875v4.59375h1.09375v-4.59375h4.57813v-1.09375H7.28125v-4.59375H6.1875v4.59375H1.59375Zm0 0"/><path id="x" d="M2.03125 0h6.14063v-.53125L6.59375-.67187c-.39062-.04688-.60937-.1875-.60937-.92188v-11l-.09375-.10937-3.85938.65625v.45312l1.75.21875c.3125.04688.4375.1875.4375.71875v9.0625c0 .73438-.1875.875-.625.92188l-1.5625.14062Zm0 0"/><path id="y" d="M0 3.5c0 .5.5625 1.01563 1.375 1.01563 1.59375 0 2.26563-1.17188 3.90625-4.01563.39063-.64062 1.51563-2.60937 2.67188-4.51562 1.0625-1.75 2.25-3.5625 2.25-4.3125 0-.65625-.20313-1.04688-.34375-1.04688-.35938 0-1 .15625-1.46875.46875 0 0-.0625 1.90625-.23438 2.5625-.3125 1.0625-1.40625 3.07813-2.625 5.20313h-.0625C5.32813-4 4.96875-7.9375 4.70313-9.29687l-.125-.07813-3.14063.89063.04688.46875 1.29687-.03125c.375 0 .45313.3125.625 1.26562.1875 1.45313.60938 5.04688.60938 6.54688 0 .54687-.01563 1.3125-.4375 2.29687-.34375.78125-.8125 1.34375-1.1875 1.34375-.6875 0-.76563-1.04687-1.4375-1.04687C.48438 2.35938 0 2.96875 0 3.5m0 0"/><path id="z" d="M1.59375-2.65625h10.26563V-3.75H1.59375Zm0-4.125h10.26563V-7.875H1.59375Zm0 0"/></defs><path fill="#7FD6F7" stroke="#7FD6F7" stroke-miterlimit="10" stroke-width=".39761" d="M232.75005 230.76562h-84.84768v-84.84768l84.8516-.0039Zm0 0"/><path fill="#33BDF2" stroke="#33BDF2" stroke-miterlimit="10" stroke-width=".39761" d="M232.75005 230.76562h-84.84768v-21.21094h84.84768Zm0 0"/><path fill="none" stroke="#00ADEF" stroke-miterlimit="10" stroke-width=".39761" d="M116.08205 13.55852s4.79297 34.73048 6.6289 45.58205c1.83985 10.84766 4.79298 24.73438 6.62892 32.60548 1.83984 7.875 4.79297 18.23829 6.6289 24.13282 1.83985 5.89453 4.79297 13.82422 6.62891 18.35157 1.83985 4.53125 4.79297 10.72656 6.62891 14.28125 1.83984 3.55078 4.79297 8.48438 6.6289 11.32813 1.83985 2.83985 4.79298 6.83985 6.62892 9.14453 1.83984 2.3086 4.79297 5.57813 6.6289 7.47657 1.83985 1.89844 4.79298 4.6289 6.62891 6.21094 1.83985 1.58203 4.78907 3.86328 6.62891 5.1914 1.83985 1.33204 4.78907 3.26563 6.62891 4.39845 1.83984 1.1289 4.78906 2.78125 6.6289 3.75 1.83985.96875 4.78907 2.39453 6.62892 3.23047 1.83984.83984 4.78906 2.07422 6.6289 2.80078 1.83985.72656 4.78907 1.8086 6.62891 2.44531s4.78907 1.58203 6.62891 2.14063 4.78907 1.39844 6.62891 1.89453 4.78907 1.23828 6.6289 1.67969c1.83985.4375 4.78907 1.09765 6.62892 1.49219 1.83984.39453 4.78906.98437 6.6289 1.33593 1.83985.35547 4.78907.88672 6.62891 1.20313 1.83985.32031 4.78907.79687 6.62891 1.08594 1.83985.28515 4.78907.71875 6.62891.98047 1.83985.2578 6.62891.88672 6.62891.88672"/><g fill="#7FD6F7"><use xlink:href="#a" x="286.97844" y="65.93475"/><use xlink:href="#b" x="298.82726" y="65.93475"/><use xlink:href="#c" x="304.25466" y="65.93475"/></g><use xlink:href="#d" x="311.13334" y="65.93475" fill="#7FD6F7"/><g fill="#7FD6F7"><use xlink:href="#e" x="324.93047" y="65.93475"/><use xlink:href="#f" x="336.10335" y="65.93475"/></g><use xlink:href="#c" x="351.61021" y="65.93475" fill="#7FD6F7"/><g fill="#7FD6F7"><use xlink:href="#d" x="358.48889" y="65.93475"/><use xlink:href="#g" x="368.09121" y="65.93475"/><use xlink:href="#h" x="377.35556" y="65.93475"/><use xlink:href="#i" x="383.77699" y="65.93475"/><use xlink:href="#j" x="393.53835" y="65.93475"/><use xlink:href="#k" x="405.08897" y="65.93475"/><use xlink:href="#l" x="414.79069" y="65.93475"/><use xlink:href="#d" x="419.9994" y="65.93475"/></g><g fill="#7FD6F7"><use xlink:href="#m" x="433.79653" y="65.93475"/><use xlink:href="#k" x="443.39885" y="65.93475"/><use xlink:href="#i" x="453.10057" y="65.93475"/><use xlink:href="#l" x="462.86194" y="65.93475"/><use xlink:href="#d" x="468.07065" y="65.93475"/></g><use xlink:href="#n" x="481.86777" y="65.93475" fill="#7FD6F7"/><use xlink:href="#o" x="503.34197" y="57.94272" fill="#7FD6F7"/><path fill="none" stroke="#7FD6F7" stroke-miterlimit="10" stroke-width="1.09354" d="M498.21094 60.66797h17.3164"/><use xlink:href="#p" x="498.20951" y="72.93302" fill="#7FD6F7"/><use xlink:href="#q" x="507.17336" y="68.82825" fill="#7FD6F7"/><g fill="#33BDF2"><use xlink:href="#a" x="61.35173" y="319.24921"/><use xlink:href="#b" x="73.20055" y="319.24921"/><use xlink:href="#c" x="78.62795" y="319.24921"/></g><use xlink:href="#d" x="85.50663" y="319.24921" fill="#33BDF2"/><g fill="#33BDF2"><use xlink:href="#e" x="99.30376" y="319.24921"/><use xlink:href="#f" x="110.47664" y="319.24921"/></g><use xlink:href="#c" x="125.9835" y="319.24921" fill="#33BDF2"/><g fill="#33BDF2"><use xlink:href="#d" x="132.86218" y="319.24921"/><use xlink:href="#g" x="142.4645" y="319.24921"/><use xlink:href="#h" x="151.72885" y="319.24921"/><use xlink:href="#i" x="158.15028" y="319.24921"/><use xlink:href="#j" x="167.91164" y="319.24921"/><use xlink:href="#k" x="179.46226" y="319.24921"/><use xlink:href="#l" x="189.16398" y="319.24921"/><use xlink:href="#d" x="194.3727" y="319.24921"/></g><g fill="#33BDF2"><use xlink:href="#m" x="208.16982" y="319.24921"/><use xlink:href="#k" x="217.77214" y="319.24921"/><use xlink:href="#i" x="227.47386" y="319.24921"/><use xlink:href="#l" x="237.23523" y="319.24921"/><use xlink:href="#d" x="242.44394" y="319.24921"/></g><use xlink:href="#n" x="256.24106" y="319.24921" fill="#33BDF2"/><use xlink:href="#o" x="291.2209" y="311.25718" fill="#33BDF2"/><path fill="none" stroke="#33BDF2" stroke-miterlimit="10" stroke-width="1.09354" d="M272.58203 313.98047h44.33203"/><g fill="#33BDF2"><use xlink:href="#r" x="272.5828" y="326.24748"/><use xlink:href="#p" x="277.85712" y="326.24748"/></g><g fill="#33BDF2"><use xlink:href="#s" x="286.81929" y="326.24748"/><use xlink:href="#o" x="296.22678" y="326.24748"/><use xlink:href="#t" x="303.2824" y="326.24748"/></g><use xlink:href="#q" x="308.55592" y="322.1427" fill="#33BDF2"/><path fill="none" stroke="#00ADEF" stroke-miterlimit="10" stroke-width=".39761" d="M402.44542 78.03901c-41.23439 71.4219-176.586 7.8711-190.836 88.69925"/><path fill="none" stroke="#00ADEF" stroke-linecap="round" stroke-linejoin="round" stroke-miterlimit="10" stroke-width=".3976" d="M214.28125 165.3086c-1.47266.125-2.28516.83593-2.70703 1.625-.125-.88673-.64453-1.83204-1.99219-2.45313"/><path fill="none" stroke="#00ADEF" stroke-miterlimit="10" stroke-width=".39761" d="M190.32426 298.64455c-15.30079-26.50782.0039-47.87892.0039-78.08987"/><path fill="none" stroke="#00ADEF" stroke-linecap="round" stroke-linejoin="round" stroke-miterlimit="10" stroke-width=".39761" d="M187.9414 222.42578c1.4336-.3789 2.10938-1.21875 2.38673-2.0664.27734.84765.95312 1.6875 2.38671 2.0664"/><use xlink:href="#u" x="142.52223" y="235.22912"/><use xlink:href="#v" x="141.73699" y="251.64621"/><use xlink:href="#u" x="227.36946" y="235.22912"/><use xlink:href="#v" x="212.03394" y="251.64621"/><use xlink:href="#w" x="227.34199" y="251.64621"/><use xlink:href="#x" x="243.54466" y="251.64621"/><use xlink:href="#u" x="142.52223" y="150.38189"/><use xlink:href="#u" x="227.36946" y="214.01681"/><use xlink:href="#u" x="57.67499" y="150.38189"/><use xlink:href="#o" x="41.45546" y="142.79295"/><path fill="none" stroke="#000" stroke-miterlimit="10" stroke-width="1.09354" d="M36.32422 145.51563h17.3164"/><use xlink:href="#p" x="36.323" y="157.78324"/><use xlink:href="#q" x="45.28485" y="153.67847"/><use xlink:href="#u" x="57.67499" y="214.01681"/><use xlink:href="#o" x="27.95082" y="205.19664"/><path fill="none" stroke="#000" stroke-miterlimit="10" stroke-width="1.09354" d="M9.3125 207.92187h44.33202"/><use xlink:href="#r" x="9.31273" y="220.18694"/><use xlink:href="#p" x="14.58705" y="220.18694"/><use xlink:href="#s" x="23.5353" y="220.18694"/><use xlink:href="#o" x="32.9428" y="220.18694"/><use xlink:href="#t" x="39.99842" y="220.18694"/><use xlink:href="#q" x="45.28585" y="216.08217"/><use xlink:href="#y" x="129.47057" y="23.51114" fill="#00ADEF"/><use xlink:href="#z" x="144.67922" y="23.51114" fill="#00ADEF"/><use xlink:href="#o" x="169.2651" y="15.51911" fill="#00ADEF"/><path fill="none" stroke="#00ADEF" stroke-miterlimit="10" stroke-width="1.09354" d="M164.39844 18.24219h16.78906"/><use xlink:href="#A" x="164.39804" y="30.5094" fill="#00ADEF"/><use xlink:href="#q" x="172.83108" y="26.40264" fill="#00ADEF"/><path fill="none" stroke="#000" stroke-dasharray="2.9821350208 2.9821350208" stroke-miterlimit="10" stroke-width=".39761" d="M232.75005 230.76562v-21.21094H63.0547"/><path fill="none" stroke="#000" stroke-dasharray="2.9821350208 2.9821350208" stroke-miterlimit="10" stroke-width=".39761" d="M147.90237 230.76562v-84.84768H63.0547"/><path fill="none" stroke="#000" stroke-miterlimit="10" stroke-width=".39761" d="M20.6289 230.76562h254.15242"/><path fill="none" stroke="#000" stroke-linecap="round" stroke-linejoin="round" stroke-miterlimit="10" stroke-width=".39761" d="M272.91016 228.3789c.3789 1.4336 1.21875 2.10938 2.0664 2.38672-.84765.27735-1.6875.95313-2.0664 2.38672"/><path fill="none" stroke="#000" stroke-miterlimit="10" stroke-width=".39761" d="M63.05469 273.19142V19.03899"/><path fill="none" stroke="#000" stroke-linecap="round" stroke-linejoin="round" stroke-miterlimit="10" stroke-width=".39761" d="M60.66797 20.90625c1.42969-.375 2.10547-1.21875 2.38672-2.0664.27734.84765.95312 1.6914 2.38281 2.0664"/></svg>