<svg xmlns="http://www.w3.org/2000/svg" xmlns:xlink="http://www.w3.org/1999/xlink" width="502.199pt" height="335.009pt" viewBox="0 0 502.199 335.009"><defs><path id="a" d="M-.53125 0h4.10938v-.53125l-.96875-.10937c-.5625-.04688-.64063-.25-.48438-.75C2.4375-2.5 2.8125-3.65625 3.25-4.98437h4.20313l1.25 3.57812c.17187.53125.09375.73438-.5.79688l-.85938.07812V0h4.79688v-.53125C11.04688-.64062 10.84375-.6875 10.5-1.67187L6.54688-12.90625H5.15625l-1.9375 5.51563c-.57812 1.625-1.375 3.85937-2.03125 5.5625C.79688-.8125.64063-.59375-.53125-.53125Zm4.04688-5.70312c.59375-1.85938 1.25-3.6875 1.8125-5.34375H5.375l1.85938 5.34375Zm0 0"/><path id="b" d="M1.70313-12.21875c0 .6875.48437 1.15625 1.15625 1.15625.67187 0 1.125-.46875 1.125-1.15625 0-.67187-.45313-1.125-1.125-1.125-.67188 0-1.15625.45313-1.15625 1.125M.59375 0h4.54688v-.53125C3.8125-.64062 3.75-.67187 3.75-1.625V-9.25l-.14062-.125-2.92188.48438v.45312l.70313.09375C1.85938-8.26562 2-8.1875 2-7.5v5.875C2-.67187 1.95313-.64062.59375-.53125Zm0 0"/><path id="c" d="M.59375 0h4.92188v-.53125C3.85938-.64062 3.75-.67187 3.75-1.625V-6c0-1.42187.64063-1.92187 1.07813-1.92187.29687 0 .60937.10937 1.15625.42187.125.07813.26562.09375.375.09375.45312 0 .84375-.48437.84375-1.04687 0-.42188-.25-.92188-.98438-.92188-.67187 0-1.23437.40625-2.46875 1.48438L3.53125-9.375.6875-8.89062v.45312l.70313.09375C1.85938-8.26562 2-8.1875 2-7.5v5.875C2-.67187 1.90625-.64062.59375-.53125Zm0 0"/><path id="d" d="M.90625-4.51562c0 2.96875 1.28125 4.73437 4.3125 4.73437 2.0625 0 3.14063-1.15625 3.64063-2.625l-.5625-.29687C7.78125-1.60937 7.0625-.73437 5.59375-.73437c-2.3125 0-2.78125-2.21875-2.73437-4.17188h5.375c.40625 0 .73437-.09375.73437-.71875 0-1.09375-.34375-3.75-3.76562-3.75-2.92188 0-4.29688 2.0625-4.29688 4.85938M2.875-5.625c0-.76562.28125-3.09375 2.23438-3.09375 1.71875 0 1.92187 1.76563 1.92187 2.5 0 .35938-.125.59375-.64062.59375Zm0 0"/><path id="e" d="M.90625-4.39062C.90625-1.625 2.35938.21875 4.82813.21875c1.01562 0 1.85937-.45312 2.875-1.26562v.90625L7.85938 0h3.03125v-.53125C9.54688-.64062 9.5-.67187 9.5-1.625V-13.75l-.14062-.09375-2.9375.45313v.48437l.70312.0625c.48438.04688.59375.15625.59375.875v3.04688C7.20313-9.1875 6.51563-9.375 5.65625-9.375c-1.53125 0-2.67187.5-3.45312 1.29688C1.40625-7.25.90625-6.01562.90625-4.39062m1.95313-.21875c0-2.42188.875-4.10938 2.78125-4.10938.875 0 1.59375.39063 1.92187 1.17188.15625.3125.15625.59375.15625 1.09375v3.28125c0 .40625 0 .73437-.10937 1.04687-.375.96875-1.1875 1.34375-2.17188 1.34375-1.70312 0-2.57812-1.6875-2.57812-3.82812m0 0"/><path id="f" d="m.48438-8.4375.70312.09375c.48438.07813.59375.15625.59375.84375v4.92188C1.78125-.4375 3.0625.21875 4.45313.21875c1.57812 0 2.875-1.07812 3.40625-1.32812L8.04688 0h3v-.53125C9.75-.64062 9.625-.67187 9.625-1.625V-9.25L9.5-9.375l-2.92187.48438v.45312l.70312.09375c.48438.07813.60938.15625.60938.84375v4.20313c0 .51562-.0625.9375-.17188 1.10937-.4375.85938-1.29687 1.40625-2.28125 1.40625-1.09375 0-1.875-.6875-1.875-2.14062V-9.25l-.14062-.125-2.9375.48438Zm0 0"/><path id="g" d="M.90625-4.48437C.90625-1.375 2.4375.21875 5.25.21875c1.29688 0 3.07813-.67187 3.59375-2.6875l-.5625-.25C7.70313-1.40625 6.96875-.75 5.59375-.75 3.375-.75 2.85938-3.07812 2.85938-4.82812c0-2.78125 1.09375-3.89063 2.39062-3.89063.84375 0 1.39063.60938 1.76563 1.625.10937.29688.23437.48438.59375.48438.375 0 1.09375-.23438 1.09375-.95313 0-.85937-1.23438-1.8125-3.26563-1.8125-3.39062 0-4.53125 2.40625-4.53125 4.89063m0 0"/><path id="h" d="M.57813-8.40625h1.34375v6.5c0 1.90625 1.42187 2.125 2.0625 2.125.95312 0 1.85937-.48437 2.39062-.8125L6.23438-1c-.45313.1875-.85938.25-1.32813.25-.64062 0-1.23437-.46875-1.23437-1.875v-5.78125h2.40625v-.75H3.67188V-11.5h-.53125L2-9.15625H.57813Zm0 0"/><path id="i" d="M.90625-2.42187c0 1.39062.9375 2.64062 2.6875 2.64062C4.6875.21875 5.78125-.5 6.375-.89062c.26563.6875.57813 1.10937 1.23438 1.10937.6875 0 1.48437-.20312 2.20312-.5625l-.125-.4375c-.25.0625-.67187.09375-.95312 0-.32813-.07812-.65625-.40625-.65625-1.57812v-4.53125c0-1.09375-.23438-2.48438-3.04688-2.48438C2.92188-9.375 1.25-8.28125 1.25-7.25c0 .59375.70313.875 1.04688.875.40625 0 .5-.20312.60937-.51562.40625-1.39063 1.17188-1.82813 1.92188-1.82813.73437 0 1.5625.375 1.5625 1.875v.76563c-.46875.48437-2.28125.95312-3.75 1.4375C1.29688-4.23437.90625-3.29687.90625-2.42187m1.89063-.26563c0-.875.40625-1.32812 1.45312-1.71875.75-.28125 1.73438-.64062 2.14063-.89062v2.64062c0 1.5-1.14063 1.875-1.875 1.875-1.15625 0-1.71875-.8125-1.71875-1.90625m0 0"/><path id="j" d="M.59375 0h4.54688v-.53125C3.8125-.64062 3.75-.67187 3.75-1.625V-6c0-.46875.01563-.71875.1875-1.01562.39063-.73438 1.21875-1.34375 2.21875-1.34375 1.26563 0 1.96875.6875 1.96875 2.32812V-1.625c0 .95313-.0625.98438-1.40625 1.09375V0h4.5625v-.53125C9.95313-.64062 9.875-.67187 9.875-1.625v-4.76562c0-1.89063-1.03125-2.98438-2.75-2.98438-1.39062 0-2.23437.67188-3.39062 1.4375L3.46875-9.375.6875-8.89062v.45312l.70313.09375C1.85938-8.26562 2-8.1875 2-7.5v5.875C2-.67187 1.95313-.64062.59375-.53125Zm0 0"/><path id="k" d="M.78125 1.78125c0 1.89063 1.875 2.73438 4.04688 2.73438C5.9375 4.51563 7.10938 4.29688 8 3.75c.85938-.51562 1.5-1.40625 1.5-2.5625 0-2.01562-1.60937-2.71875-3.625-2.71875H4.39063c-1.35938 0-1.54688-.45312-1.54688-.8125 0-.53125.71875-.82812.95313-.90625.35937.03125.75.04688.95312.04688 1.76563 0 3.76563-.76563 3.76563-3.03125 0-.78125-.25-1.4375-.57813-1.75l1.5-.23438.375-1.17187-.15625-.15625-2.39062.75C6.75-9.15625 5.70313-9.375 4.84375-9.375 1.98438-9.375 1-7.625 1-6.23437c0 1.75 1.14063 2.5625 2 2.78125v.03125c-1.01562.40625-1.70312.9375-1.70312 1.67187 0 .65625.75 1.35938 1.64062 1.45313v.03125C2.14063 0 .78125.4375.78125 1.78125m1.78125-.07812c0-.625.17188-1.10938.57813-1.40625.42187-.3125 1.03125-.4375 1.92187-.4375 1.65625 0 2.85938.42187 2.85938 1.8125C7.92188 3.15625 6.57813 3.875 5.25 3.875c-1.59375 0-2.6875-.8125-2.6875-2.17187m.34375-7.9375c0-1.84375.95313-2.48438 1.9375-2.48438.92188 0 1.875.67188 1.875 2.48438 0 1.5625-.79687 2.375-1.89062 2.375-1.0625 0-1.92188-.8125-1.92188-2.375m0 0"/><path id="l" d="M.375 0h4.54688v-.53125C3.59375-.64062 3.53125-.67187 3.53125-1.625V-13.75l-.14062-.09375-2.90625.45313v.48437l.6875.0625c.46875.04688.59375.15625.59375.875V-1.625c0 .95313-.03126.98438-1.39063 1.09375Zm0 0"/><path id="m" d="m3.75-10.48437.28125.375 2.8125-1.5625c.5625-.29688 1.0625-.625 1.0625-1.01563 0-.375-.45312-.8125-.73437-.8125-.32813 0-.64063.1875-1.1875.76563ZM.90625-4.51562c0 2.96875 1.28125 4.73437 4.3125 4.73437 2.0625 0 3.14063-1.15625 3.64063-2.625l-.5625-.29687C7.78125-1.60937 7.0625-.73437 5.59375-.73437c-2.3125 0-2.78125-2.21875-2.73437-4.17188h5.375c.40625 0 .73437-.09375.73437-.71875 0-1.09375-.34375-3.75-3.76562-3.75-2.92188 0-4.29688 2.0625-4.29688 4.85938M2.875-5.625c0-.76562.28125-3.09375 2.23438-3.09375 1.71875 0 1.92187 1.76563 1.92187 2.5 0 .35938-.125.59375-.64062.59375Zm0 0"/><path id="n" d="M2.0625-12.6875c0 .39063.5.71875 1.0625 1.01563l2.8125 1.5625.28125-.375-2.23437-2.25C3.4375-13.3125 3.125-13.5 2.79688-13.5c-.28125 0-.73438.4375-.73438.8125M.90625-2.42187c0 1.39062.9375 2.64062 2.6875 2.64062C4.6875.21875 5.78125-.5 6.375-.89062c.26563.6875.57813 1.10937 1.23438 1.10937.6875 0 1.48437-.20312 2.20312-.5625l-.125-.4375c-.25.0625-.67187.09375-.95312 0-.32813-.07812-.65625-.40625-.65625-1.57812v-4.53125c0-1.09375-.23438-2.48438-3.04688-2.48438C2.92188-9.375 1.25-8.28125 1.25-7.25c0 .59375.70313.875 1.04688.875.40625 0 .5-.20312.60937-.51562.40625-1.39063 1.17188-1.82813 1.92188-1.82813.73437 0 1.5625.375 1.5625 1.875v.76563c-.46875.48437-2.28125.95312-3.75 1.4375C1.29688-4.23437.90625-3.29687.90625-2.42187m1.89063-.26563c0-.875.40625-1.32812 1.45312-1.71875.75-.28125 1.73438-.64062 2.14063-.89062v2.64062c0 1.5-1.14063 1.875-1.875 1.875-1.15625 0-1.71875-.8125-1.71875-1.90625m0 0"/><path id="o" d="M1.42188 0h4.375v-.40625L4.75-.5c-.28125-.03125-.42187-.125-.42187-.60937V-8.8125l-.09375-.07812-2.79688.48437v.34375l1.125.15625c.25.03125.32813.125.32813.53125v6.26563c0 .48437-.125.57812-.42188.60937l-1.04687.09375Zm0 0"/><path id="p" d="M1.25.15625 2.60938 0l2.29687-9.64062-.0625-.04688-2.5.3125-.07812.34375L3-8.95312c.21875.03125.3125.0625.3125.26562 0 .07813-.01562.1875-.0625.34375Zm2.29688-3.60937c.21875.78125.53125 1.60937.85937 2.375C4.75-.26562 5.14063.15624 5.79688.15624c.875 0 1.48437-.73437 1.90625-1.85937l-.34375-.1875c-.35938.75-.71875 1.25-1.03125 1.25-.21875 0-.39063-.25-.6875-.85938-.375-.8125-.70313-1.73437-.95313-2.60937C5.0625-4.5625 5.95313-5.5 6.375-5.5c.39063 0 .6875.39063 1.04688.39063.39062 0 .6875-.39063.6875-.78125 0-.35938-.20313-.67188-.71875-.67188-.60938 0-1.29688.53125-1.89063 1.03125-.6875.60938-1.45312 1.4375-1.95312 2.07813m0 0"/><path id="q" d="M1.10938-3.25h3.15625v3.15625h.875V-3.25h3.15625v-.875H5.14063v-3.15625h-.875V-4.125H1.10938Zm0 0"/><path id="x" d="M.4375-.5625c0 .39063.34375.71875.89063.71875.89062 0 1.375-.84375 1.89062-1.71875l.51563-.85937H3.75l.23438 1c.25 1 .5 1.57812 1.1875 1.57812C6.20313.15625 6.76563-.875 7.15625-1.75l-.34375-.20312C6.5-1.32812 6.125-.60937 5.75-.60937c-.25 0-.34375-.28126-.59375-1.29688L4.70313-3.75C5.14063-4.53125 5.75-5.48437 6.125-5.48437c.39063 0 .45313.23437.84375.23437.29688 0 .59375-.3125.59375-.70312 0-.4375-.3125-.60938-.6875-.60938-.67187 0-1.25.5625-1.70312 1.28125l-.57813.90625H4.5625l-.5-2.14062-.07812-.04688-2.28125.65625.01562.34375.96875-.0625c.23438 0 .34375.09375.45313.59375l.46875 1.9375-.35938.64063C2.75-1.57812 2.3125-.9375 2-.9375c-.39062 0-.51562-.34375-.92187-.34375-.35938 0-.64063.35938-.64063.71875m0 0"/><path id="r" d="M1.6875-5.26562c0 2.14062 1.5625 3.71875 3.73438 3.71875 2.07812 0 3.65625-1.57813 3.65625-3.71875 0-2.07813-1.57813-3.65625-3.65625-3.65625-2.17188 0-3.73438 1.57812-3.73438 3.65625m0 0"/><path id="s" d="M1.78125.21875 3.51563 0l3.28125-13.76562-.07813-.07813-3.35937.4375-.10938.4375 1.0625.125c.3125.03125.45313.09375.45313.375 0 .14063-.01563.29688-.07813.53125Zm3.0625-5.20312c.35938 1.1875.79688 2.29687 1.3125 3.4375C6.6875-.35937 7.25.21874 8.14063.21874c1.1875 0 2.03125-1.04687 2.57812-2.625L10.25-2.64062c-.51562 1.10937-1 1.84375-1.48437 1.84375-.32813 0-.57813-.35938-1.0625-1.32813C7.125-3.29687 6.67188-4.51562 6.3125-5.76562c.51563-.59375 1.96875-2.17188 2.64063-2.17188.5625 0 1 .48438 1.45312.48438.51563 0 .90625-.53125.90625-1 0-.5-.23437-.92188-.96875-.92188-.75 0-1.67187.59375-2.625 1.39063-1.04687.92187-2 1.92187-2.875 3m0 0"/><path id="t" d="M1.59375-4.71875h4.57813v4.57813h1.09375v-4.57813h4.59375V-5.8125H7.26563v-4.59375H6.17188v4.59375H1.59375Zm0 0"/><path id="u" d="M2.03125 0h6.125v-.53125l-1.5625-.14062c-.39062-.04688-.60937-.1875-.60937-.92188v-11L5.875-12.6875l-3.84375.65625v.45313l1.73438.21875c.32812.04687.4375.17187.4375.71875v9.04687c0 .73438-.17188.875-.60938.92188l-1.5625.14062Zm0 0"/><path id="v" d="M0 3.5c0 .48438.5625 1.01563 1.375 1.01563 1.57813 0 2.26563-1.17188 3.90625-4.01563.375-.64062 1.51563-2.60937 2.65625-4.51562 1.07813-1.75 2.25-3.54688 2.25-4.3125 0-.64063-.20312-1.04688-.34375-1.04688-.34375 0-.98437.15625-1.46875.48438 0 0-.04687 1.90625-.23437 2.5625C7.84375-5.28125 6.75-3.25 5.51563-1.125h-.04688c-.14062-2.85937-.5-6.79687-.76562-8.17187L4.5625-9.375l-3.125.89063L1.48438-8l1.29687-.04687c.375 0 .45313.32812.60938 1.28125.20312 1.4375.625 5.03125.625 6.53125 0 .54687-.03125 1.3125-.4375 2.29687-.34375.78125-.8125 1.32813-1.1875 1.32813-.6875 0-.76563-1.03125-1.4375-1.03125C.48438 2.35938 0 2.95313 0 3.5m0 0"/><path id="w" d="M1.59375-2.65625h10.26563V-3.75H1.59375Zm0-4.10937h10.26563v-1.09375H1.59375Zm0 0"/></defs><path fill="#7FBFBF" stroke="#7FBFBF" stroke-miterlimit="10" stroke-width=".39732" d="M213.73444 230.60156h-84.7891v-84.7891h84.7891Zm0 0"/><path fill="#399" stroke="#399" stroke-miterlimit="10" stroke-width=".39732" d="M213.73444 230.60156h-84.7891v-42.39455h84.7891Zm0 0"/><path fill="none" stroke="#007F7F" stroke-miterlimit="10" stroke-width=".39732" d="M78.07033 18.62882S83.4336 47.72258 85.4922 56.6718c2.0586 8.95313 5.35938 20.09767 7.41798 26.47267s5.35937 14.70313 7.41797 19.47657 5.35937 11.21876 7.41797 14.9297c2.0586 3.71093 5.35938 8.84375 7.41797 11.8125 2.0586 2.96485 5.35938 7.14453 7.41797 9.57422 2.0586 2.42579 5.36329 5.89454 7.42188 7.91797 2.0586 2.02344 5.35938 4.94923 7.41797 6.66407 2.0586 1.71094 5.35938 4.21094 7.41797 5.67969s5.35938 3.6289 7.41798 4.90235c2.0586 1.27343 5.35937 3.16015 7.41797 4.27343s5.35938 2.77344 7.41797 3.75391c2.0586.98438 5.35938 2.45313 7.41797 3.32422 2.0586.875 5.36329 2.1875 7.42188 2.96875 2.0586.78125 5.35938 1.95704 7.41797 2.66407 2.0586.70312 5.35938 1.77734 7.41797 2.41406 2.0586.64063 5.35938 1.60156 7.41798 2.17969 2.05859.57812 5.35937 1.46484 7.41797 1.99219 2.0586.53125 5.35937 1.33984 7.41797 1.82422 2.0586.48437 5.36328 1.22265 7.42188 1.66797 2.0586.44922 5.35937 1.13281 7.41797 1.54297 2.0586.41406 5.35938 1.04297 7.41797 1.42578s5.35938.96875 7.41797 1.32422c2.0586.35156 7.41797 1.22656 7.41797 1.22656"/><g fill="#7FBFBF"><use xlink:href="#a" x="272.18313" y="65.88809"/><use xlink:href="#b" x="284.02357" y="65.88809"/><use xlink:href="#c" x="289.44713" y="65.88809"/></g><use xlink:href="#d" x="296.32094" y="65.88809" fill="#7FBFBF"/><g fill="#7FBFBF"><use xlink:href="#e" x="310.1083" y="65.88809"/><use xlink:href="#f" x="321.27328" y="65.88809"/></g><use xlink:href="#c" x="336.76916" y="65.88809" fill="#7FBFBF"/><g fill="#7FBFBF"><use xlink:href="#d" x="343.64298" y="65.88809"/><use xlink:href="#g" x="353.2385" y="65.88809"/><use xlink:href="#h" x="362.4963" y="65.88809"/><use xlink:href="#i" x="368.91318" y="65.88809"/><use xlink:href="#j" x="378.66764" y="65.88809"/><use xlink:href="#k" x="390.21008" y="65.88809"/><use xlink:href="#l" x="399.90494" y="65.88809"/><use xlink:href="#d" x="405.10997" y="65.88809"/></g><g fill="#7FBFBF"><use xlink:href="#m" x="418.89733" y="65.88809"/><use xlink:href="#k" x="428.49285" y="65.88809"/><use xlink:href="#i" x="438.18771" y="65.88809"/><use xlink:href="#l" x="447.94217" y="65.88809"/><use xlink:href="#d" x="453.14719" y="65.88809"/></g><use xlink:href="#n" x="466.93455" y="65.88809" fill="#7FBFBF"/><use xlink:href="#o" x="484.13415" y="57.90172" fill="#7FBFBF"/><path fill="none" stroke="#7FBFBF" stroke-miterlimit="10" stroke-width="1.09277" d="M483.26562 60.625h8.78516"/><use xlink:href="#p" x="483.26472" y="72.88141" fill="#7FBFBF"/><g fill="#399"><use xlink:href="#a" x="51.90275" y="320.25365"/><use xlink:href="#b" x="63.74319" y="320.25365"/><use xlink:href="#c" x="69.16675" y="320.25365"/></g><use xlink:href="#d" x="76.04056" y="320.25365" fill="#399"/><g fill="#399"><use xlink:href="#e" x="89.82792" y="320.25365"/><use xlink:href="#f" x="100.9929" y="320.25365"/></g><use xlink:href="#c" x="116.48878" y="320.25365" fill="#399"/><g fill="#399"><use xlink:href="#d" x="123.36259" y="320.25365"/><use xlink:href="#g" x="132.95812" y="320.25365"/><use xlink:href="#h" x="142.21591" y="320.25365"/><use xlink:href="#i" x="148.6328" y="320.25365"/><use xlink:href="#j" x="158.38726" y="320.25365"/><use xlink:href="#k" x="169.9297" y="320.25365"/><use xlink:href="#l" x="179.62456" y="320.25365"/><use xlink:href="#d" x="184.82958" y="320.25365"/></g><g fill="#399"><use xlink:href="#m" x="198.61694" y="320.25365"/><use xlink:href="#k" x="208.21247" y="320.25365"/><use xlink:href="#i" x="217.90733" y="320.25365"/><use xlink:href="#l" x="227.66178" y="320.25365"/><use xlink:href="#d" x="232.86681" y="320.25365"/></g><use xlink:href="#n" x="246.65417" y="320.25365" fill="#399"/><use xlink:href="#o" x="272.16319" y="312.26727" fill="#399"/><path fill="none" stroke="#399" stroke-miterlimit="10" stroke-width="1.09277" d="M262.98437 314.98828h25.40625"/><use xlink:href="#p" x="262.98434" y="327.24696" fill="#399"/><g fill="#399"><use xlink:href="#q" x="271.94017" y="327.24696"/><use xlink:href="#o" x="281.34101" y="327.24696"/></g><path fill="none" stroke="#007F7F" stroke-miterlimit="10" stroke-width=".39732" d="M383.30873 77.98431c-41.20314 71.37113-176.461 7.86329-190.6993 88.63285"/><path fill="none" stroke="#007F7F" stroke-linecap="round" stroke-linejoin="round" stroke-miterlimit="10" stroke-width=".39732" d="M195.28125 165.1914c-1.47656.125-2.28906.83594-2.70703 1.6211-.1289-.88281-.64844-1.82812-1.99219-2.44531"/><path fill="none" stroke="#007F7F" stroke-miterlimit="10" stroke-width=".39732" d="M171.3399 298.43362c-17.35939-30.06642 0-54.31252 0-88.63285"/><path fill="none" stroke="#007F7F" stroke-linecap="round" stroke-linejoin="round" stroke-miterlimit="10" stroke-width=".39732" d="M168.95703 211.66797c1.42969-.375 2.10547-1.21875 2.38281-2.0664.28125.84765.95313 1.6914 2.38672 2.0664"/><use xlink:href="#r" x="123.56975" y="235.06166"/><use xlink:href="#s" x="122.78507" y="251.46713"/><use xlink:href="#r" x="208.35694" y="235.06166"/><use xlink:href="#s" x="193.03227" y="251.46713"/><use xlink:href="#t" x="208.32949" y="251.46713"/><use xlink:href="#u" x="224.52069" y="251.46713"/><use xlink:href="#r" x="123.56975" y="150.27447"/><use xlink:href="#r" x="208.35694" y="192.66806"/><use xlink:href="#r" x="38.78256" y="150.27447"/><use xlink:href="#o" x="26.83391" y="142.6929"/><path fill="none" stroke="#000" stroke-miterlimit="10" stroke-width="1.09277" d="M25.96484 145.41406h8.78907"/><use xlink:href="#p" x="25.96448" y="157.67059"/><use xlink:href="#r" x="38.78256" y="192.66806"/><use xlink:href="#o" x="18.52449" y="185.08549"/><path fill="none" stroke="#000" stroke-miterlimit="10" stroke-width="1.09277" d="M9.34766 187.80469H34.7539"/><use xlink:href="#p" x="9.34763" y="200.06319"/><use xlink:href="#q" x="18.28955" y="200.06319"/><use xlink:href="#o" x="27.69039" y="200.06319"/><use xlink:href="#v" x="85.09058" y="23.4935" fill="#007F7F"/><use xlink:href="#w" x="100.28846" y="23.4935" fill="#007F7F"/><use xlink:href="#o" x="120.52775" y="15.50713" fill="#007F7F"/><path fill="none" stroke="#007F7F" stroke-miterlimit="10" stroke-width="1.09277" d="M119.99219 18.23047h8.125"/><use xlink:href="#x" x="119.99333" y="30.48682" fill="#007F7F"/><path fill="none" stroke="#000" stroke-dasharray="2.9800129515 2.9800129515" stroke-miterlimit="10" stroke-width=".39732" d="M213.73444 230.60156v-42.39455H44.15625"/><path fill="none" stroke="#000" stroke-dasharray="2.9800129515 2.9800129515" stroke-miterlimit="10" stroke-width=".39732" d="M128.94535 230.60156v-84.7891h-84.7891"/><path fill="none" stroke="#000" stroke-miterlimit="10" stroke-width=".39732" d="M1.7617 230.60156h253.97276"/><path fill="none" stroke="#000" stroke-linecap="round" stroke-linejoin="round" stroke-miterlimit="10" stroke-width=".39732" d="M253.86719 228.21875c.375 1.42969 1.21875 2.10547 2.0664 2.38281-.84765.27735-1.6914.95313-2.0664 2.38282"/><path fill="none" stroke="#000" stroke-miterlimit="10" stroke-width=".39732" d="M44.15625 272.99611V19.02335"/><path fill="none" stroke="#000" stroke-linecap="round" stroke-linejoin="round" stroke-miterlimit="10" stroke-width=".39732" d="M41.77344 20.89453c1.42969-.3789 2.10547-1.21875 2.38281-2.0664.27734.84765.95313 1.6875 2.38281 2.0664"/></svg>