<svg xmlns="http://www.w3.org/2000/svg" xmlns:xlink="http://www.w3.org/1999/xlink" width="439.683pt" height="366.267pt" viewBox="0 0 439.683 366.267"><defs><path id="a" d="M.78125-6.25C.78125-2.5 1.875.21875 4.95313.21875S9.15625-2.5 9.15625-6.25c0-3.73437-1.125-6.45312-4.20312-6.45312S.78125-9.98437.78125-6.25m1.89063 0c0-3.03125.51562-5.79687 2.28125-5.79687 1.76562 0 2.28125 2.76562 2.28125 5.79687 0 3.04688-.51563 5.8125-2.28125 5.8125-1.76563 0-2.28125-2.76562-2.28125-5.8125m0 0"/><path id="b" d="M.75-1.90625c0 .85938 1.3125 2.125 3.75 2.125 3.07813 0 4.46875-1.875 4.46875-4.23437 0-2.625-1.625-3.95313-3.85937-3.95313-1.03125 0-2.14063.4375-2.75.96875l-.01563-.01562.42188-3.5c.0625-.48438.17187-.54688.53125-.54688h4.65625l.45312-1.26562-.09375-.15625h-6.25l-.17187.17187-.375 6.25.45312.23438C2.75-6.71875 3.5-7.15625 4.51563-7.15625c1.1875 0 2.5.875 2.5 3.34375 0 1.92188-.76563 3.375-2.40625 3.375-1.3125 0-1.96875-.9375-2.34375-2.01562-.09375-.26563-.28125-.45313-.53125-.45313-.375 0-.98438.375-.98438 1m0 0"/><path id="c" d="M2.03125 0h6.14063v-.53125l-1.5625-.14062c-.40625-.04688-.625-.1875-.625-.92188v-11.01562l-.09375-.09375-3.85938.65625v.45312l1.75.21875c.3125.03125.4375.17188.4375.71875v9.0625c0 .35938-.04687.57813-.15625.71875-.10937.14063-.26562.17188-.46875.20313l-1.5625.14062Zm0 0"/><path id="d" d="M.5-.17187.70313 0H8.4375l.625-2.46875-.51562-.09375c-.39063 1.01563-.76563 1.15625-1.53125 1.15625H2.25c.29688-.98437 1.40625-2.3125 3.14063-3.5625 1.79687-1.3125 3.1875-2.15625 3.1875-4.23437 0-2.60938-1.73438-3.5-3.70313-3.5-2.5625 0-3.875 1.54687-3.875 2.51562 0 .64063.70313.9375 1.03125.9375.32813 0 .45313-.20312.53125-.51562.29688-1.28125 1.03125-2.28125 2.1875-2.28125 1.4375 0 1.85938 1.1875 1.85938 2.5625 0 2-1.01563 3.14062-2.65625 4.57812C1.65625-2.90625.85938-1.625.5-.17187m0 0"/><path id="e" d="m.35938-3.73437.15625.39062h5.09375v1.90625c0 .64063-.20313.73438-.65625.78125l-1.1875.125V0H8.6875v-.53125l-.82812-.10937c-.4375-.0625-.5625-.15626-.5625-.79688v-1.90625h1.90625v-.875H7.29688v-8.26562h-1.375c-1.75 2.57812-3.85938 5.82812-5.5625 8.75m1.34375-.48438c1.125-2.03125 2.4375-4.1875 3.85937-6.46875h.04688v6.46875Zm0 0"/><path id="f" d="M.8125-5.76562c0 4.03125 1.46875 5.98437 4.28125 5.98437C7.85938.21875 9.32813-1.45312 9.32813-4c0-2.53125-1.54688-3.89062-3.5625-3.89062-1.46875 0-2.5625.98437-3.0625 1.60937h-.03125c.01562-4.125 1.1875-5.76562 2.875-5.76562.85937 0 1.46875.70312 1.75 1.78125.0625.21875.20312.40625.48437.40625.40625 0 .98438-.34375.98438-.85938 0-.76562-.90625-1.98437-3.15625-1.98437-2.96875 0-4.79688 2.28125-4.79688 6.9375m1.89063 1.34375c0-1.125.85937-2.51563 2.42187-2.51563 1.1875 0 2.32813 1.0625 2.32813 3.21875 0 1.96875-.75 3.28125-2.32813 3.28125-1.625 0-2.42187-1.73437-2.42187-3.98437m0 0"/><path id="g" d="M.78125-3.40625c0 1.89063 1.14063 3.625 4.17188 3.625 3.01562 0 4.17187-1.73437 4.17187-3.625 0-1.90625-1.1875-3-2.46875-3.29687V-6.75c1.14063-.29687 2.0625-1.25 2.0625-2.78125 0-2.03125-1.625-3.17187-3.76562-3.17187-2.15625 0-3.76563 1.14062-3.76563 3.17187C1.1875-8 2.14063-7.04687 3.26563-6.75v.04688C2.01563-6.40625.78125-5.3125.78125-3.40625m1.85938.0625c0-1.70312.82812-2.98437 2.3125-2.98437 1.48437 0 2.3125 1.28125 2.3125 2.98437 0 1.65625-.73438 2.90625-2.3125 2.90625-1.57813 0-2.3125-1.25-2.3125-2.90625M3-9.5625c0-1.4375.6875-2.48437 1.95313-2.48437 1.26562 0 1.95312 1.04687 1.95312 2.48437C6.90625-8.29687 6.3125-7 4.95313-7 3.59375-7 3-8.29687 3-9.5625m0 0"/><path id="h" d="M0-.53125v-4.51562h-.64062l-.04688.32812c-.03125.35938-.07812.5625-.64062.5625h-4c-.375 0-.75-.0625-.98438-.1875-.4375-.21875-.84375-.67187-.84375-1.35937 0-.85938.53125-1.3125 1.53125-1.34375h4.29688c.5625 0 .60937.17187.64062.53125l.04688.35937H0v-4.53125h-.64062c-.0625.96875-.125 1.10938-.82813 1.10938h-4.375c-1.57812.03125-2.59375.79687-2.59375 2.53125 0 .98437.5 1.78125 1.15625 2.89062l-1.15625.21875.46875 3.3125h.60938l.09375-.59375c.03125-.26562.15625-.40625.84375-.40625h4.95312c.70313 0 .76563.125.82813 1.09375Zm0 0"/><path id="i" d="M-4.10937-.65625c2.67187 0 4.3125-1.29687 4.3125-4.35937 0-3.04688-1.64063-4.35938-4.3125-4.35938-2.6875 0-4.32813 1.3125-4.32813 4.35938 0 3.0625 1.64063 4.35937 4.32813 4.35937m0-2.67187c-2.26563 0-3.5625-.48438-3.5625-1.6875 0-1.1875 1.29687-1.67188 3.5625-1.67188 2.25 0 3.53125.48438 3.53125 1.67188 0 1.20312-1.28125 1.6875-3.53125 1.6875m0 0"/><path id="j" d="M-7.40625-.625v-.98437h5.4375c1.54688 0 2.17188-1.125 2.17188-2.07813 0-.70312-.3125-1.73437-.90625-2.6875l-.53125.1875c.10937.23438.17187.5625.17187.95313 0 .64062-.46875 1.07812-1.54687 1.07812h-4.79688v-1.75H-8.25v1.75h-2.10937v.96875L-8.25-1.70312V-.625Zm0 0"/><path id="k" d="M-4.10937-.65625c2.28125 0 4.3125-1 4.3125-4.125 0-2-.96875-3.09375-2.45313-3.65625l-.34375.59375c.96875.51563 1.5 1.21875 1.5 2.25 0 1.67188-1.375 2.26563-3.14062 2.26563V-7.6875c0-.60937-.17188-.90625-.70313-.90625-1.375 0-3.5.54688-3.5 3.78125 0 3.01563 1.96875 4.15625 4.32813 4.15625m-.9375-2.67187c-1.21875 0-2.625-.32813-2.625-1.40625 0-1.03125 1.28125-1.20313 2.07812-1.20313.45313 0 .54688.125.54688.51563Zm0 0"/><path id="l" d="m-3.10937-.73437 2.5-.20313c.59375-.64062.8125-1.90625.8125-2.85937C.20313-5.84375-.70312-7.25-2.51562-7.25c-1.45313 0-2.15625.9375-2.75 2.46875-.35938.98438-.75 1.70313-1.42188 1.70313-.51562 0-.98437-.375-.98437-1.07813 0-.85937.78125-1.5625 2.04687-1.89062v-.625h-2.23437c-.42188.70312-.57813 1.64062-.57813 2.51562 0 2.0625.95313 3.32813 2.65625 3.32813 1.23438 0 2.03125-.98438 2.57813-2.46875.3125-.85938.8125-1.6875 1.60937-1.6875.64063 0 1.01563.42187 1.01563 1.15625 0 1.10937-1.15625 2.01562-2.53125 2.45312Zm0 0"/><path id="m" d="M-3.96875-.65625c2.45313 0 4.17188-1.28125 4.17188-3.40625 0-.625-.32813-1.51562-1.04688-2.4375H0v-3.60937h-.64062c-.0625.96875-.125 1.09375-.82813 1.09375h-10.89062l-.10938.10937.45313 3.40625h.59375l.09375-.57812c.0625-.26563.20312-.42188.875-.42188h2.21875c-.15625.375-.20313.85938-.20313 1.4375 0 1.25.375 2.375 1.07813 3.14063C-6.625-1.125-5.5-.65625-3.96875-.65625m-.34375-2.67187c-2.46875 0-3.35937-.9375-3.35937-1.875 0-.64063.34375-.98438.67187-1.14063.25-.17187.60938-.15625.96875-.15625h3.46875c.6875 0 1.46875.25 1.46875 1.32813 0 1.09375-1.07812 1.84375-3.21875 1.84375m0 0"/><path id="n" d="M-4.0625-.65625C-1.21875-.65625.20313-2.25.20313-4.64062c0-1.39063-.46875-2.9375-2.5625-3.60938l-.26563.59375C-1.48437-7.07812-1.09375-6.42187-1.09375-5.5c0 1.09375-.73437 2.17188-3.35937 2.17188-2.25 0-3.21875-.73438-3.21875-1.4375 0-.57813.53125-.875 1.53125-1.15625.39062-.125.59375-.39063.59375-.82813 0-.57812-.29688-1.375-1.03125-1.375-1.20313 0-1.85938 1.65625-1.85938 3.1875 0 1.3125.39063 2.39063 1.125 3.125.6875.70313 1.78125 1.15625 3.25 1.15625m0 0"/><path id="o" d="M-10.64062-1.26562c.79687 0 1.48437-.57813 1.48437-1.53125 0-.92188-.6875-1.5625-1.48437-1.5625-.79688 0-1.46875.60937-1.46875 1.5625 0 .95312.67187 1.53125 1.46875 1.53125M0-.53125v-4.75h-.64062c-.0625.96875-.125 1.125-.82813 1.125h-6.875l-.09375.09375.46875 3.4375h.60938l.09375-.59375c.03125-.26562.15625-.40625.84375-.40625h4.95312c.70313 0 .76563.125.82813 1.09375Zm0 0"/><path id="p" d="M3.21875-.40625h.64063V-5.4375h-.64063c-.04687 1.23438-.125 1.375-.82812 1.375H0c.125-.28125.20313-.84375.20313-1.3125 0-2.48437-.85938-4.48437-4.54688-4.48437-2.79687 0-4.09375 1.46875-4.09375 3.04687 0 1.17188.53125 1.92188 1.15625 2.75L-8.4375-3.75l.46875 3.21875h.60938l.09375-.57812C-7.23437-1.375-7.10937-1.5-6.42187-1.5h8.8125c.70312 0 .78125.125.82812 1.09375M-2.5625-4.0625h-2.64062c-.35938 0-.70313 0-.9375-.09375-.625-.20312-1.01563-.67187-1.01563-1.375 0-.78125.45313-1.65625 3.17188-1.65625 2.09375 0 3.40625.45313 3.40625 1.75 0 .73438-.39063 1.14063-1.125 1.3125-.25.04688-.53125.0625-.85938.0625m0 0"/><path id="q" d="M0-.40625v-4.54687h-.64062l-.04688.375c-.03125.35937-.07812.51562-.64062.51562h-4c-.375 0-.75-.01562-.98438-.14062-.4375-.21875-.84375-.70313-.84375-1.39063 0-.85937.57813-1.32812 1.57813-1.32812h4.25c.5625 0 .60937.17187.64062.53125l.04688.35937H0v-4.53125h-.64062c-.0625.96875-.125 1.07813-.82813 1.07813h-4.35937c-1.57813 0-2.60938.82812-2.60938 2.59375 0 1 .5 1.78125 1.15625 2.82812h-5.07812l-.10938.14063.45313 3.39062h.59375l.09375-.57812c.0625-.26563.20312-.39063.875-.39063h8.98437c.70313 0 .76563.125.82813 1.09375Zm0 0"/><path id="r" d="m-7.625.09375.10938-.5625c.0625-.25.21875-.4375.6875-.625C-4.48437-2.07812-2-3.0625.32813-3.95312c.32812-.15625.76562-.21875 1.10937-.125.39063.10937.8125.26562.8125.67187 0 .1875-.07812.42188-.25.60938-.23437.32812-.375.46875-.375.75C1.625-1.5 2.35938-.96875 3-.96875c.67188 0 1.0625-.73437 1.0625-1.375C4.0625-3.5 3.42188-4.26562 1-5.17187c-2.60937-.98438-5.07812-1.98438-7.46875-2.96875-.71875-.29688-1.04687-.51563-1.09375-.98438l-.0625-.35937h-.625v3.40625h.625l.125-.70313c.04688-.23437.1875-.34375.5-.25C-5.40625-6.5625-3.82812-6.01562-2.25-5.5v.04688c-1.54687.54687-3.125 1.15625-4.6875 1.67187-.34375.125-.51562.09375-.5625-.17187l-.125-.64063h-.625v4.6875Zm0 0"/><path id="s" d="M-3.95312-.65625C-1.5-.65625.20313-1.98437.20313-4.09375c0-.79687-.21875-1.53125-.98438-2.40625h3.17188c.70312 0 .78125.125.82812 1.26563h.64063v-4.875h-.64063c-.04687.96875-.125 1.09375-.82812 1.09375H-8.4375V-8.25l.51563.73438c-.3125.57812-.51563 1.39062-.51563 2.35937 0 1.32813.375 2.51563 1.07813 3.23438.73437.73437 1.8125 1.26562 3.40625 1.26562m-.35938-2.67187c-2.26562 0-3.35937-.85938-3.35937-1.90625 0-.6875.35937-1.03125.89062-1.1875C-6.5625-6.5-6.26562-6.5-5.9375-6.5h3.375c.6875 0 1.46875.23438 1.46875 1.34375 0 1.09375-1.07812 1.82813-3.21875 1.82813m0 0"/><path id="t" d="m-7.35937-.5.09375-.59375c.03125-.26562.15625-.375.84375-.375h4.09375c1.96875 0 2.53125-1.21875 2.53125-2.4375 0-1.42187-.78125-2.29687-1.15625-2.98437L0-7.03125v-3.48437h-.64062c-.0625.96875-.125 1.0625-.82813 1.0625h-6.875l-.09375.15625.46875 3.39062h.60938L-7.26562-6.5c.03125-.26562.15625-.39062.84375-.39062h3.5625c.28125 0 .6875.01562.9375.125.40625.15625.79687.60937.79687 1.34375C-1.125-4.53125-1.64062-4-2.95312-4h-5.39063l-.09375.125.46875 3.375Zm0 0"/><path id="u" d="M.53125 0h4.51563v-.64062L4.71875-.6875c-.35937-.03125-.5625-.07812-.5625-.64062v-4c0-.375.0625-.75.1875-.98438.21875-.4375.67188-.84375 1.35938-.84375.85937 0 1.3125.53125 1.34375 1.53125v4.29688c0 .5625-.17188.60937-.53125.64062l-.35938.04688V0h4.53125v-.64062c-.96875-.0625-1.10937-.125-1.10937-.82813v-4.375C9.54688-7.42187 8.78125-8.4375 7.04688-8.4375c-.98438 0-1.78125.5-2.89063 1.15625L3.9375-8.4375.625-7.96875v.60938l.59375.09375c.26563.03125.40625.15625.40625.84375v4.95312c0 .70313-.125.76563-1.09375.82813Zm0 0"/><path id="v" d="M.65625-4.10937c0 2.67187 1.29688 4.3125 4.35938 4.3125C8.0625.20313 9.375-1.4375 9.375-4.10937c0-2.6875-1.3125-4.32813-4.35937-4.32813-3.0625 0-4.35938 1.64063-4.35938 4.32813m2.67188 0c0-2.26563.48437-3.5625 1.6875-3.5625 1.1875 0 1.67187 1.29687 1.67187 3.5625 0 2.25-.48437 3.53125-1.67187 3.53125-1.20313 0-1.6875-1.28125-1.6875-3.53125m0 0"/><path id="w" d="M.625-7.40625h.98438v5.4375c0 1.54688 1.125 2.17188 2.07812 2.17188.70313 0 1.73438-.3125 2.6875-.90625l-.1875-.53125c-.23437.10937-.5625.17187-.95312.17187-.64063 0-1.07813-.46875-1.07813-1.54687v-4.79688h1.75V-8.25h-1.75v-2.10937H3.1875L1.70313-8.25H.625Zm0 0"/><path id="x" d="M.65625-4.10937c0 2.28125 1 4.3125 4.125 4.3125 2 0 3.09375-.96875 3.65625-2.45313l-.59375-.34375c-.51562.96875-1.21875 1.5-2.25 1.5-1.67187 0-2.26562-1.375-2.26562-3.14062H7.6875c.60938 0 .90625-.17188.90625-.70313 0-1.375-.54687-3.5-3.78125-3.5-3.01562 0-4.15625 1.96875-4.15625 4.32813m2.67188-.9375c0-1.21875.32812-2.625 1.40625-2.625 1.03125 0 1.20312 1.28125 1.20312 2.07812 0 .45313-.125.54688-.51562.54688Zm0 0"/><path id="y" d="m.73438-3.10937.20312 2.5c.64063.59375 1.90625.8125 2.85938.8125C5.84375.20313 7.25-.70312 7.25-2.51562c0-1.45313-.9375-2.15625-2.46875-2.75-.98437-.35938-1.70312-.75-1.70312-1.42188 0-.51562.375-.98437 1.07812-.98437.85938 0 1.5625.78125 1.89063 2.04687h.625v-2.23437c-.70313-.42188-1.64063-.57813-2.51563-.57813-2.0625 0-3.32812.95313-3.32812 2.65625 0 1.23438.98437 2.03125 2.46875 2.57813.85937.3125 1.6875.8125 1.6875 1.60937 0 .64063-.42188 1.01563-1.15625 1.01563-1.10938 0-2.01563-1.15625-2.45313-2.53125Zm0 0"/><path id="z" d="M.65625-3.96875C.65625-1.51562 1.9375.20313 4.0625.20313c.625 0 1.51563-.32813 2.4375-1.04688V0h3.60938v-.64062c-.96875-.0625-1.09375-.125-1.09375-.82813v-10.89062l-.10938-.10938L5.5-12.01562v.59375l.57813.09375c.26562.0625.42187.20312.42187.875v2.21875c-.375-.15625-.85937-.20313-1.4375-.20313-1.25 0-2.375.375-3.14062 1.07813C1.125-6.625.65625-5.5.65625-3.96875m2.67188-.34375c0-2.46875.9375-3.35937 1.875-3.35937.64062 0 .98437.34375 1.14062.67187.17188.25.15625.60938.15625.96875v3.46875c0 .6875-.25 1.46875-1.32812 1.46875-1.09375 0-1.84375-1.07812-1.84375-3.21875m0 0"/><path id="A" d="M.53125 0h4.51563v-.64062L4.71875-.6875c-.35937-.03125-.5625-.07812-.5625-.64062v-3.875c0-1.46875.82813-1.95313 1.5625-1.95313.82813 0 1.21875.70313 1.21875 1.625v4.20313c0 .5625-.1875.60937-.54687.64062l-.34375.04688V0H10.375v-.64062l-.34375-.04688C9.67188-.71875 9.5-.76562 9.5-1.32812v-3.875c0-1.46875.75-1.95313 1.48438-1.95313.82812 0 1.26562.70313 1.26562 1.625v4.20313c0 .5625-.17187.60937-.53125.64062l-.35937.04688V0h4.53125v-.64062c-.96875-.0625-1.07813-.125-1.07813-.82813v-4.35937c0-1.5625-.85937-2.60938-2.64062-2.60938-1.17188 0-2.21875.79688-2.9375 1.26563-.34375-.60938-1.01563-1.26563-2.28125-1.26563-1.07813 0-1.875.5625-2.79688 1.15625L3.9375-8.4375.625-7.96875v.60938l.59375.09375c.26563.03125.40625.15625.40625.84375v4.95312c0 .70313-.125.76563-1.09375.82813Zm0 0"/><path id="B" d="M.8125-2.25c0 1.25.79688 2.45313 2.5 2.45313 1.07813 0 1.82813-.57813 2.40625-.96875C5.9375-.25 6.25.20313 7.04688.20313c.875 0 1.92187-.29688 2.46875-.5L9.5-.85937c-.21875.01562-.59375 0-.84375-.09376-.21875-.0625-.53125-.26562-.53125-1.25v-3.875c0-1.0625-.14062-2.35937-3.10937-2.35937C2.54688-8.4375 1-7.45312 1-6.375c0 .73438 1.07813 1.0625 1.5 1.0625.375 0 .5625-.26562.71875-.6875.46875-1.42187 1.01563-1.67187 1.48438-1.67187.48437 0 .95312.28125.95312 1.25v.89062c-.59375.42188-1.98437.8125-3.07812 1.1875C1.25-3.875.8125-3.21875.8125-2.25m2.54688-.26562c0-.79688.29687-1.1875.79687-1.46875.51563-.29688 1.07813-.53125 1.5-.70313V-2.25c-.03125.90625-.5625 1.14063-1.01562 1.14063-.67188 0-1.28125-.51563-1.28125-1.40625m0 0"/><path id="C" d="M.40625 0h4.54688v-.64062l-.375-.04688c-.35938-.03125-.51563-.07812-.51563-.64062v-4c0-.375.01563-.75.14063-.98438.21875-.4375.70312-.84375 1.39062-.84375.85938 0 1.32813.57813 1.32813 1.57813v4.25c0 .5625-.17188.60937-.53125.64062l-.35938.04688V0h4.53125v-.64062c-.96875-.0625-1.07812-.125-1.07812-.82813v-4.35937c0-1.57813-.82813-2.60938-2.59375-2.60938-1 0-1.78125.5-2.82813 1.15625v-5.07812l-.14062-.10938-3.39063.45313v.59375l.57813.09375c.26562.0625.39062.20312.39062.875v8.98437c0 .70313-.125.76563-1.09375.82813Zm0 0"/><path id="D" d="M1.6875-5.26562c0 2.14062 1.57813 3.71875 3.75 3.71875 2.07813 0 3.65625-1.57813 3.65625-3.71875 0-2.09375-1.57812-3.67188-3.65625-3.67188-2.17187 0-3.75 1.57813-3.75 3.67188m0 0"/></defs><path fill="none" stroke="#000" stroke-miterlimit="10" stroke-width=".3977" d="M83.07422 318.625h339.48447M83.07422 301.64843h339.48447M83.07422 284.67577h339.48447M83.07422 267.70311h339.48447M83.07422 250.72654h339.48447M83.07422 233.75388h339.48447M83.07422 216.77732h339.48447M83.07422 199.80465h339.48447M83.07422 182.8281h339.48447M83.07422 165.85543h339.48447M83.07422 148.88277h339.48447M83.07422 131.9062h339.48447M83.07422 114.93354h339.48447M83.07422 97.95697h339.48447M83.07422 80.98431h339.48447M83.07422 64.01165h339.48447M83.07422 47.03508h339.48447M83.07422 30.06242h339.48447M83.07422 13.09367h339.48447M83.07422 318.625V13.08585M100.04688 318.625V13.08585M117.02345 318.625V13.08585M133.9961 318.625V13.08585M150.96877 318.625V13.08585M167.94534 318.625V13.08585M184.918 318.625V13.08585M201.89456 318.625V13.08585M218.86723 318.625V13.08585M235.84379 318.625V13.08585M252.81645 318.625V13.08585M269.78911 318.625V13.08585M286.76568 318.625V13.08585M303.73834 318.625V13.08585M320.71491 318.625V13.08585M337.68757 318.625V13.08585M354.66023 318.625V13.08585M371.6368 318.625V13.08585M388.60946 318.625V13.08585M405.58603 318.625V13.08585M422.55478 318.625V13.08585"/><path fill="none" stroke="#000" stroke-miterlimit="10" stroke-width=".79542" d="M83.07422 316.92578v3.39453"/><use xlink:href="#a" x="78.12212" y="340.45166"/><path fill="none" stroke="#000" stroke-miterlimit="10" stroke-width=".79542" d="M100.04688 316.92578v3.39453m0-3.39453v3.39453m0-3.39453v3.39453m0-3.39453v3.39453m67.89846-3.39453v3.39453"/><use xlink:href="#b" x="162.99227" y="340.2331"/><path fill="none" stroke="#000" stroke-miterlimit="10" stroke-width=".79542" d="M100.04688 316.92578v3.39453m0-3.39453v3.39453m0-3.39453v3.39453m0-3.39453v3.39453m152.76957-3.39453v3.39453"/><use xlink:href="#c" x="242.91133" y="340.45166"/><use xlink:href="#a" x="252.8143" y="340.45166"/><path fill="none" stroke="#000" stroke-miterlimit="10" stroke-width=".79542" d="M100.04688 316.92578v3.39453m0-3.39453v3.39453m0-3.39453v3.39453m0-3.39453v3.39453m237.64069-3.39453v3.39453"/><use xlink:href="#c" x="327.78148" y="340.45166"/><use xlink:href="#b" x="337.68445" y="340.45166"/><path fill="none" stroke="#000" stroke-miterlimit="10" stroke-width=".79542" d="M100.04688 316.92578v3.39453m0-3.39453v3.39453m0-3.39453v3.39453m0-3.39453v3.39453m0-3.39453v3.39453m322.51181-3.39453v3.39453"/><use xlink:href="#d" x="412.65163" y="340.45166"/><use xlink:href="#a" x="422.5546" y="340.45166"/><path fill="none" stroke="#000" stroke-miterlimit="10" stroke-width=".79542" d="M83.92188 318.625h-1.69922"/><use xlink:href="#a" x="64.89858" y="324.86785"/><path fill="none" stroke="#000" stroke-miterlimit="10" stroke-width=".79542" d="M83.92188 284.67577h-1.69922"/><use xlink:href="#d" x="64.89858" y="291.02957"/><path fill="none" stroke="#000" stroke-miterlimit="10" stroke-width=".79542" d="M83.92188 250.72654h-1.69922"/><use xlink:href="#e" x="64.89858" y="256.97173"/><path fill="none" stroke="#000" stroke-miterlimit="10" stroke-width=".79542" d="M83.92188 216.77732h-1.69922"/><use xlink:href="#f" x="64.89858" y="223.02367"/><path fill="none" stroke="#000" stroke-miterlimit="10" stroke-width=".79542" d="M83.92188 182.82809h-1.69922"/><use xlink:href="#g" x="64.89858" y="189.07561"/><path fill="none" stroke="#000" stroke-miterlimit="10" stroke-width=".79542" d="M83.92188 148.88277h-1.69922"/><use xlink:href="#c" x="54.9954" y="155.12755"/><use xlink:href="#a" x="64.89837" y="155.12755"/><path fill="none" stroke="#000" stroke-miterlimit="10" stroke-width=".79542" d="M83.92188 114.93354h-1.69922"/><use xlink:href="#c" x="54.9954" y="121.28827"/><use xlink:href="#d" x="64.89837" y="121.28827"/><path fill="none" stroke="#000" stroke-miterlimit="10" stroke-width=".79542" d="M83.92188 80.98431h-1.69922"/><use xlink:href="#c" x="54.9954" y="87.34021"/><use xlink:href="#e" x="64.89837" y="87.34021"/><path fill="none" stroke="#000" stroke-miterlimit="10" stroke-width=".79542" d="M83.92188 47.03508h-1.69922"/><use xlink:href="#c" x="54.9954" y="53.28337"/><use xlink:href="#f" x="64.89837" y="53.28337"/><path fill="none" stroke="#000" stroke-miterlimit="10" stroke-width=".79542" d="M83.92188 13.08585h-1.69922"/><use xlink:href="#c" x="54.9954" y="19.33531"/><use xlink:href="#g" x="64.89837" y="19.33531"/><use xlink:href="#h" x="19.38367" y="291.54753"/><use xlink:href="#i" x="19.38367" y="280.6483"/><use xlink:href="#j" x="19.38367" y="270.6439"/><use xlink:href="#k" x="19.38367" y="264.2547"/><use xlink:href="#l" x="19.38367" y="255.37781"/><use xlink:href="#m" x="19.38367" y="244.01325"/><use xlink:href="#k" x="19.38367" y="233.68672"/><use xlink:href="#l" x="19.38367" y="221.10516"/><use xlink:href="#n" x="19.38367" y="213.44527"/><use xlink:href="#o" x="19.38367" y="204.96212"/><use xlink:href="#k" x="19.38367" y="199.46776"/><use xlink:href="#h" x="19.38367" y="190.59088"/><use xlink:href="#n" x="19.38367" y="179.69164"/><use xlink:href="#k" x="19.38367" y="171.20849"/><use xlink:href="#l" x="19.38367" y="162.3316"/><use xlink:href="#p" x="19.38367" y="150.96704"/><use xlink:href="#q" x="19.38367" y="140.44364"/><use xlink:href="#r" x="19.38367" y="129.65178"/><use xlink:href="#l" x="19.38367" y="120.66752"/><use xlink:href="#o" x="19.38367" y="113.00763"/><use xlink:href="#s" x="19.38367" y="107.51327"/><use xlink:href="#t" x="19.38367" y="97.29411"/><use xlink:href="#k" x="19.38367" y="86.53805"/><use xlink:href="#l" x="19.38367" y="77.66116"/><use xlink:href="#u" x="124.5512" y="358.71112"/><use xlink:href="#v" x="135.45044" y="358.71112"/><use xlink:href="#w" x="145.45483" y="358.71112"/><use xlink:href="#x" x="151.84404" y="358.71112"/><use xlink:href="#y" x="160.72092" y="358.71112"/><use xlink:href="#z" x="172.08548" y="358.71112"/><use xlink:href="#x" x="182.41202" y="358.71112"/><use xlink:href="#A" x="194.99357" y="358.71112"/><use xlink:href="#B" x="211.11872" y="358.71112"/><use xlink:href="#w" x="220.44302" y="358.71112"/><use xlink:href="#C" x="226.83223" y="358.71112"/><use xlink:href="#y" x="237.62409" y="358.71112"/><use xlink:href="#D" x="196.51319" y="187.29617"/><use xlink:href="#D" x="213.48722" y="144.86109"/><use xlink:href="#D" x="247.43528" y="144.86109"/><use xlink:href="#D" x="247.43528" y="119.39905"/><use xlink:href="#D" x="264.40931" y="110.91204"/><use xlink:href="#D" x="281.38334" y="178.80915"/><use xlink:href="#D" x="281.38334" y="144.86109"/><use xlink:href="#D" x="315.3314" y="110.91204"/><use xlink:href="#D" x="332.30543" y="43.01591"/></svg>