<svg xmlns="http://www.w3.org/2000/svg" xmlns:xlink="http://www.w3.org/1999/xlink" width="453.543pt" height="340.157pt" viewBox="0 0 453.543 340.157"><defs><path id="f" d="M1.60938-5.26562c0 4.21875.95312 8.84375 4.90625 9V3.1875C5.1875 2.92188 3.09375 1.26563 3.09375-5.26562c0-6.5 2-8.15625 3.42188-8.45313v-.54687c-3.95313.15625-4.90625 4.78125-4.90625 9m0 0"/><path id="g" d="M0 0h5.71875c3.73438 0 5.90625-1.34375 7.26563-3.375 1.0625-1.60937 1.25-3.1875 1.25-4.29687 0-1.51563-.54688-3.01563-1.60938-3.92188-1.09375-.90625-2.76562-1.32812-4.82812-1.32812H2.76563l-.125.54687 1.10937.07813c.32813.01562.4375.17187.4375.46875 0 .125-.01562.28125-.04687.45312L1.90625-1.54687c-.14062.60937-.29687.84375-.75.89062l-1.0625.125Zm3.70313-1.375c0-.07812 0-.15625.01562-.23437l2.25-9.98438c.15625-.625.40625-.6875 2.04688-.6875 3.89062.07813 4.20312 2.70313 4.20312 4.1875 0 1.60938-.375 3.125-1.20312 4.51563C9.9375-1.82812 8.34375-.65625 5.25-.65625c-.92187 0-1.54687-.125-1.54687-.71875m0 0"/><path id="h" d="M1.10938 3.1875v.54688c3.95312-.15625 4.90625-4.78125 4.90625-9s-.95313-8.84375-4.90625-9v.54687c1.4375.29688 3.42187 1.95313 3.42187 8.45313 0 6.53125-2.09375 8.1875-3.42187 8.45312m0 0"/><path id="i" d="M0 0h4.40625l.10938-.53125-.73438-.0625c-.5625-.04687-.85937-.1875-.85937-.57812 0-1 .17187-1.54688.39062-2.54688l1.71875-7.60937h.03125l2.25 11.10937h.51563l7.28125-11.10937h.03125l-2.28125 9.78125c-.15625.625-.34375.84375-.79688.89062l-1.01562.125L10.9375 0h5.07813l.10937-.53125-1.09375-.125c-.34375-.01562-.48437-.17187-.48437-.48437 0-.10938.01562-.25.0625-.40625l2.25-9.82813c.15624-.625.29687-.89062.76562-.92187l1.03125-.07813.14063-.54687h-3.65626c-.98437 1.71875-2.10937 3.375-3.23437 5.10937L8.60938-2.76562h-.0625L7.5-7.95312c-.39062-1.6875-.76562-3.29688-1.07812-4.96875h-3.625l-.10938.54687 1.09375.09375c.3125.01563.46875.17188.46875.5 0 .10938-.01562.25-.0625.40625L2.42188-3.71875c-.21875 1-.4375 1.71875-.65625 2.32813-.21876.59375-.54688.73437-1.09375.79687l-.57813.0625Zm0 0"/><path id="k" d="M0 0h5.3125l.09375-.53125-1.29687-.125c-.3125-.01562-.45313-.15625-.45313-.45312 0-.125.01563-.26563.0625-.4375l.82813-3.6875H5.9375c1.59375 0 3.0625-.21875 4.14063-.875 1.1875-.73438 1.89062-2 1.89062-3.39063 0-1.26562-.59375-2.25-1.51562-2.76562-.875-.5-2.0625-.65625-3.29688-.65625h-4.375l-.14062.54687 1.10937.07813c.32813.01562.46875.17187.46875.48437 0 .125-.03125.26563-.0625.4375l-2.25 9.82813c-.15625.625-.3125.84375-.76562.89062l-1.04688.125Zm4.8125-6.28125c0-.125.01563-.23437.0625-.39062L6-11.625c.125-.48437.23438-.65625 1.1875-.65625 1.85938 0 2.8125.875 2.8125 2.46875 0 2.65625-1.5 3.92188-4.01562 3.92188-.95313 0-1.17188-.09375-1.17188-.39063m0 0"/><path id="l" d="M1.1875-5.04687c0 2.78125 1.45313 4.875 4.4375 5.25.875 1.625 2.76563 3.59375 5.10938 3.59375.46875 0 1.07812-.125 1.39062-.29688l-.0625-.3125c-1.78125-.03125-3.17187-1.42187-4.25-2.98437 3.79688-.54688 6-4.29688 6-7.9375 0-3.82813-2.32812-5.48438-5.40625-5.48438-4.8125 0-7.21875 4.4375-7.21875 8.17188m1.96875.75c0-3.32813 1.60938-8.26563 5.32813-8.26563 2.04687 0 3.35937 1.21875 3.35937 3.85938C11.84375-4.15625 9.71875-.375 6.5-.375c-2.03125 0-3.34375-1.3125-3.34375-3.92187m0 0"/><path id="j" d="M1.42188 0h4.375v-.40625L4.75-.5c-.28125-.03125-.42187-.125-.42187-.60937V-8.8125l-.09375-.07812-2.79688.48437v.34375l1.125.15625c.25.03125.32813.125.32813.53125v6.26563c0 .48437-.125.57812-.42188.60937l-1.04687.09375Zm0 0"/><path id="m" d="M.375-.15625.53125 0H6.0625l.46875-1.85937-.39062-.07813c-.29688.70313-.53125.79688-1.0625.79688H1.73438c.21874-.625.90625-1.5 2.17187-2.34375C5.23438-4.375 6.17188-5 6.17188-6.42187c0-1.82813-1.23438-2.46875-2.6875-2.46875C1.70313-8.89062.6875-7.85937.6875-7.0625c0 .46875.54688.6875.82813.6875.25 0 .375-.14062.4375-.39062.20312-.90625.6875-1.64063 1.45312-1.64063.92188 0 1.20313.79688 1.20313 1.75 0 1.26563-.5625 2.09375-1.78125 3.15625C1.15625-2.07812.5625-1.125.375-.15625m0 0"/><path id="n" d="M.35938-1.39062c0 .54687.85937 1.54687 2.84375 1.54687 1.9375 0 3.15625-.95312 3.15625-2.625 0-1.76562-1.54688-2.25-2.21875-2.3125v-.0625c.71875-.125 1.84375-.64062 1.84375-1.92187 0-1.51563-1.25-2.125-2.64063-2.125-1.67187 0-2.65625.9375-2.65625 1.60937 0 .4375.51563.67188.75.67188.1875 0 .29688-.125.375-.3125.28125-.92188.73438-1.48438 1.4375-1.48438.98438 0 1.21875.92188 1.21875 1.625 0 .6875-.23437 1.76563-1.29687 1.76563-.59375 0-.98438-.14063-1.1875-.14063-.1875 0-.26563.15625-.26563.40625s.07813.39063.26563.39063c.20312 0 .59375-.125 1.1875-.125 1 0 1.625.82812 1.625 2.07812 0 1.5-.6875 2.07813-1.57813 2.07813-.79687 0-1.34375-.60938-1.625-1.45313-.07812-.25-.21875-.39062-.42187-.39062-.29688 0-.8125.28125-.8125.78125m0 0"/><path id="o" d="m.26563-2.625.15625.29688h3.5V-1c0 .42188-.15625.48438-.45313.51563l-.82812.07812V0h3.59375v-.40625L5.625-.46875C5.35938-.51562 5.25-.57812 5.25-1v-1.32812h1.34375V-3H5.25v-5.73437H4.14063C2.875-6.875 1.45313-4.65625.26563-2.625M1.32813-3c.73437-1.35937 1.64062-2.84375 2.59375-4.375V-3Zm0 0"/><clipPath id="a"><path d="M.33203 282H452v2H.33203Zm0 0"/></clipPath><clipPath id="b"><path d="M447 280h5.7539v5H447Zm0 0"/></clipPath><clipPath id="c"><path d="M446 280h6.7539v6H446Zm0 0"/></clipPath><clipPath id="d"><path d="M56 1h2v338.3164h-2Zm0 0"/></clipPath><clipPath id="e"><path d="M.33203 11h452.42188v261H.33203Zm0 0"/></clipPath></defs><g clip-path="url(#a)"><path fill="none" stroke="#000" stroke-miterlimit="10" stroke-width="1.19258" d="M.33202 282.76172h450.55866"/></g><g clip-path="url(#b)"><path d="M452.16406 282.76172c-1.58984-.3164-3.17969-.95313-5.08984-2.0664 1.91015 1.43359 1.91015 2.70312 0 4.13671 1.91015-1.11328 3.5-1.75 5.08984-2.07031m0 0"/></g><g clip-path="url(#c)"><path fill="none" stroke="#000" stroke-linejoin="round" stroke-miterlimit="10" stroke-width="1.19258" d="M452.16406 282.76172c-1.58984-.3164-3.17969-.95313-5.08984-2.0664 1.91015 1.43359 1.91015 2.70312 0 4.13671 1.91015-1.11328 3.5-1.75 5.08984-2.07031Zm0 0"/></g><g clip-path="url(#d)"><path fill="none" stroke="#000" stroke-miterlimit="10" stroke-width="1.19258" d="M56.88672 339.31641V1.86324"/></g><path stroke="#000" stroke-linejoin="round" stroke-miterlimit="10" stroke-width="1.19258" d="M56.88672.59375c-.32031 1.58984-.95703 3.17969-2.0664 5.08594 1.42968-1.90625 2.70312-1.90625 4.1328 0-1.11328-1.90625-1.75-3.4961-2.0664-5.08594Zm0 0"/><g clip-path="url(#e)"><path fill="none" stroke="red" stroke-miterlimit="10" stroke-width="1.19258" d="m.33202 254.48828 4.57032-2.28516 4.5664-2.28516 13.71094-6.85547 4.56641-2.28515 4.57031-2.28516 4.57032-2.28125 4.5703-2.28516 4.56642-2.28515 9.14062-4.57032 4.5664-2.28515 4.57032-2.28516 4.57032-2.28125 4.5703-2.28516 4.56642-2.28515 13.71093-6.85547 4.56641-2.28125 9.14063-4.57032 4.5664-2.28515 13.71094-6.85547 4.56641-2.28516 4.57031-2.28125 9.14063-4.57031 4.5664-2.28516 13.71095-6.85547 4.5664-2.28515 4.57032-2.28125 4.57031-2.28516 4.5664-2.28516 13.71095-6.85547 4.5664-2.28515 4.57032-2.28125 9.14062-4.57032 4.56641-2.28515 9.14063-4.57032 4.5664-2.28515 4.57032-2.28125 9.14062-4.57032 4.5664-2.28515 13.71095-6.85547 4.5664-2.28516 4.57032-2.28125 4.57031-2.28516 4.5664-2.28515 13.71095-6.85547 4.5664-2.28516 4.57032-2.28516 4.57031-2.28125 4.57031-2.28515 4.56641-2.28516 9.14063-4.57031 4.5664-2.28516 4.57032-2.28125 9.14062-4.57031 4.56641-2.28516 13.71094-6.85547 4.5664-2.28516 4.57032-2.28125 4.57031-2.28515 4.56641-2.28516 13.71094-6.85547 4.5664-2.28516 4.57032-2.28515 4.57031-2.28125 4.57032-2.28516 4.5664-2.28516 13.71094-6.85547 4.5664-2.28125 9.14064-4.5703 4.5664-2.28517 4.57032-2.28515"/></g><g fill="red"><use xlink:href="#f" x="414.13716" y="16.75847"/><use xlink:href="#g" x="421.76955" y="16.75847"/></g><use xlink:href="#h" x="437.23309" y="16.75847" fill="red"/><path fill="none" stroke="#00F" stroke-dasharray="2.9814475899 2.9814475899" stroke-miterlimit="10" stroke-width="1.19258" d="M113.4375 141.37889v-28.27735"/><use xlink:href="#i" x="100.70892" y="100.91491" fill="#00F"/><use xlink:href="#j" x="117.92026" y="105.28807" fill="#00F"/><path fill="none" stroke="#000" stroke-dasharray="2.9814475899 2.9814475899" stroke-miterlimit="10" stroke-width="1.19258" d="M113.4375 141.37889v67.86329"/><use xlink:href="#k" x="104.32595" y="213.51785"/><use xlink:href="#j" x="114.30323" y="217.89101"/><path fill="none" stroke="#000" stroke-dasharray="2.9814475899 2.9814475899" stroke-miterlimit="10" stroke-width="1.19258" d="M113.4375 113.10154h169.6602"/><use xlink:href="#l" x="272.166" y="100.91491"/><use xlink:href="#j" x="285.78026" y="105.28807"/><path fill="none" stroke="#00F" stroke-dasharray="2.9814475899 2.9814475899" stroke-miterlimit="10" stroke-width="1.19258" d="M169.9922 169.65623V56.55075"/><use xlink:href="#i" x="157.26176" y="44.36206" fill="#00F"/><use xlink:href="#m" x="174.47311" y="48.73522" fill="#00F"/><path fill="none" stroke="#000" stroke-dasharray="2.9814475899 2.9814475899" stroke-miterlimit="10" stroke-width="1.19258" d="M169.9922 56.55075v130.07033"/><use xlink:href="#k" x="160.8788" y="190.89691"/><use xlink:href="#m" x="170.85607" y="195.27007"/><path fill="none" stroke="#000" stroke-dasharray="2.9814475899 2.9814475899" stroke-miterlimit="10" stroke-width=".79504" d="M169.9922 56.55075h226.21488"/><use xlink:href="#l" x="385.2707" y="44.76007"/><use xlink:href="#m" x="398.88695" y="49.13323"/><path fill="none" stroke="#00F" stroke-dasharray="2.9814475899 2.9814475899" stroke-miterlimit="10" stroke-width="1.19258" d="M226.5469 141.37889v84.83204"/><use xlink:href="#i" x="234.36069" y="213.86798" fill="#00F"/><use xlink:href="#n" x="251.57403" y="218.23915" fill="#00F"/><path fill="none" stroke="#000" stroke-dasharray="2.9814475899 2.9814475899" stroke-miterlimit="10" stroke-width="1.19258" d="M226.5469 226.21093H56.88672"/><use xlink:href="#l" x="27.20707" y="213.86798"/><use xlink:href="#n" x="40.82133" y="218.23915"/><use xlink:href="#k" x="217.43165" y="129.03821"/><use xlink:href="#n" x="227.40892" y="133.41137"/><path fill="none" stroke="#00F" stroke-dasharray="2.9814475899 2.9814475899" stroke-miterlimit="10" stroke-width="1.19258" d="M367.92973 73.5156v96.14063"/><use xlink:href="#i" x="375.74231" y="157.46775" fill="#00F"/><use xlink:href="#o" x="392.95565" y="161.84091" fill="#00F"/><use xlink:href="#k" x="341.88422" y="61.32901"/><use xlink:href="#o" x="351.86149" y="65.70018"/><path fill="none" stroke="#00F" stroke-dasharray="2.9814475899 2.9814475899" stroke-miterlimit="10" stroke-width="1.19258" d="M367.92973 169.65623H169.9922"/><use xlink:href="#l" x="140.31177" y="157.46775" fill="#00F"/><use xlink:href="#o" x="153.92803" y="161.84091" fill="#00F"/></svg>