<svg xmlns="http://www.w3.org/2000/svg" xmlns:xlink="http://www.w3.org/1999/xlink" width="343.911pt" height="298.123pt" viewBox="0 0 343.911 298.123"><defs><path id="a" d="M.78125-6.23437C.78125-2.5 1.85938.21875 4.9375.21875S9.14063-2.5 9.14063-6.23437s-1.125-6.45313-4.20313-6.45313S.78125-9.96875.78125-6.23437m1.875 0c0-3.04688.51563-5.79688 2.28125-5.79688 1.78125 0 2.29688 2.75 2.29688 5.79688 0 3.03125-.51563 5.79687-2.29688 5.79687-1.76562 0-2.28125-2.76562-2.28125-5.79687m0 0"/><path id="b" d="M2.03125 0h6.125v-.53125l-1.5625-.14062c-.39062-.04688-.60937-.1875-.60937-.92188v-11L5.875-12.6875l-3.84375.65625v.45313l1.73438.21875c.32812.04687.4375.17187.4375.71875v9.04687c0 .35938-.03125.57813-.15625.71875-.09375.14063-.25.1875-.45313.20313l-1.5625.14062Zm0 0"/><path id="c" d="M.5-.17187.6875 0h7.73438l.64062-2.46875-.51562-.09375c-.40625 1.01563-.78125 1.15625-1.53125 1.15625H2.25c.29688-.98437 1.40625-2.3125 3.125-3.5625 1.79688-1.3125 3.1875-2.14062 3.1875-4.21875 0-2.60937-1.73437-3.5-3.70312-3.5C2.29688-12.6875 1-11.14062 1-10.17187c0 .64062.70313.9375 1.03125.9375.32813 0 .45313-.20313.53125-.51563.29688-1.26562 1.03125-2.28125 2.1875-2.28125 1.42188 0 1.84375 1.1875 1.84375 2.5625 0 2-1.01562 3.14063-2.64062 4.5625C1.64063-2.90625.85938-1.625.5-.17187m0 0"/><path id="d" d="M.5-1.90625c0 .79688 1.28125 2.125 3.92188 2.125 2.70312 0 4.42187-1.375 4.42187-3.75 0-2.5-2.15625-3.23437-3.1875-3.34375v-.07812c1.01563-.15625 2.625-.90625 2.625-2.76563 0-2.0625-1.60937-2.96875-3.60937-2.96875C2.20313-12.6875 1-11.26562 1-10.46875c0 .57813.64063.89063.90625.89063.23438 0 .375-.14063.45313-.375.42187-1.26563 1.10937-2.07813 2.17187-2.07813C6-12.03125 6.375-10.75 6.375-9.6875c0 1.10938-.39062 2.51563-1.98437 2.51563-.89063 0-1.40625-.17188-1.625-.17188-.25 0-.34375.17188-.34375.51563 0 .3125.09375.51562.34375.51562.21875 0 .73437-.1875 1.625-.1875C5.98438-6.5 6.875-5.0625 6.875-3.4375c0 2.21875-1.09375 3-2.42187 3-1.23438 0-2.04688-.90625-2.40625-1.96875-.125-.35937-.29688-.53125-.5625-.53125C1.15625-2.9375.5-2.57812.5-1.90625m0 0"/><path id="e" d="m.35938-3.73437.15625.39062h5.07812v1.90625c0 .64063-.1875.75-.65625.78125l-1.1875.125V0h4.92188v-.53125l-.82813-.10937c-.4375-.04688-.5625-.15626-.5625-.79688v-1.90625H9.1875v-.85937H7.28125v-8.26563H5.92188c-1.75 2.57813-3.85938 5.8125-5.5625 8.73438m1.34375-.46875C2.8125-6.23437 4.125-8.40625 5.5625-10.67187h.03125v6.46875Zm0 0"/><path id="f" d="M.75-1.90625c0 .85938 1.3125 2.125 3.73438 2.125 3.07812 0 4.46875-1.85937 4.46875-4.23437 0-2.625-1.625-3.95313-3.84375-3.95313-1.03125 0-2.15625.4375-2.75.98438l-.01563-.03125L2.76563-10.5c.04687-.48437.17187-.54687.53125-.54687H7.9375l.46875-1.26563-.10937-.15625H2.0625l-.17187.17188-.375 6.23437.45312.25C2.73438-6.71875 3.5-7.15625 4.51563-7.15625c1.1875 0 2.5.875 2.5 3.34375 0 1.92188-.78125 3.375-2.40625 3.375-1.3125 0-1.96875-.9375-2.34375-2-.09375-.28125-.28125-.46875-.53125-.46875-.39063 0-.98438.39063-.98438 1m0 0"/><path id="g" d="M.8125-5.76562c0 4.03125 1.46875 5.98437 4.26563 5.98437 2.76562 0 4.23437-1.67187 4.23437-4.20312S7.76563-7.89062 5.76563-7.89062c-1.46875 0-2.5625 1-3.0625 1.60937h-.04688c.03125-4.10937 1.20313-5.75 2.89063-5.75.84375 0 1.46875.71875 1.73437 1.78125.0625.21875.20313.40625.48438.40625.42187 0 1-.34375 1-.85937 0-.75-.92188-1.98438-3.17188-1.98438-2.95312 0-4.78125 2.28125-4.78125 6.92188m1.89063 1.35937c0-1.14062.85937-2.53125 2.42187-2.53125 1.17188 0 2.32813 1.07813 2.32813 3.21875C7.45313-1.75 6.6875-.4375 5.125-.4375c-1.625 0-2.42187-1.73437-2.42187-3.96875m0 0"/><path id="h" d="M0-.53125v-4.51562h-.64062l-.03126.32812c-.04687.35938-.09374.57813-.65624.57813h-4c-.375 0-.75-.07813-.98438-.20313C-6.73437-4.5625-7.15625-5-7.15625-5.70312c0-.85938.54688-1.29688 1.54688-1.34375h4.28125c.5625 0 .60937.1875.65625.54687l.03124.34375H0v-4.51562h-.64062c-.0625.96875-.125 1.10937-.82813 1.10937h-4.375c-1.57812.01563-2.59375.78125-2.59375 2.51563 0 .98437.5 1.79687 1.15625 2.90625l-1.15625.20312.48438 3.3125h.60937l.09375-.59375c.03125-.26562.15625-.40625.82813-.40625h4.95312c.70313 0 .76563.125.82813 1.09375Zm0 0"/><path id="i" d="m-11.40625-.34375.09375-.57812c.04688-.28126.1875-.4375.875-.4375H-.10937l.3125-.51563-.57813-.89062c.32813-.60938.57813-1.4375.57813-2.53125 0-2.39063-.8125-4.40625-4.59375-4.40625-2.73438 0-4.04688 1.48437-4.04688 3.15625 0 1.0625.54688 1.875 1.15625 2.67187h-5.07812l-.09375.10938.4375 3.42187Zm8.8125-3.53125h-2.64062c-.35938 0-.71875 0-.95313-.09375-.5625-.21875-.96875-.625-.96875-1.35937 0-.82813.4375-1.70313 3.17188-1.70313 2.10937 0 3.40625.46875 3.40625 1.71875 0 .82813-.42188 1.25-1.04688 1.375-.25.0625-.64062.0625-.96875.0625m0 0"/><path id="j" d="M0-.53125v-5.07812h-.64062c-.07813 1.28125-.125 1.46875-.82813 1.46875h-3.73437c-.875 0-1.28125-.17188-1.28125-.57813 0-.26562.14062-.51562.35937-.89062.15625-.21875.26563-.45313.26563-.76563 0-.34375-.1875-.6875-.4375-.85937C-6.54687-7.42187-6.875-7.5-7.25-7.5c-.71875 0-1.1875.45313-1.1875 1.15625 0 .6875.46875 1.23438 1.48438 2.21875l-1.48438.23438.48438 3.26562h.60937l.09375-.59375c.03125-.26562.15625-.40625.82813-.40625h4.95312c.70313 0 .76563.125.82813 1.09375Zm0 0"/><path id="k" d="M-4.10937-.65625c2.28125 0 4.3125-1 4.3125-4.10937 0-2.01563-.96875-3.09375-2.45313-3.67188l-.34375.60938c.96875.5 1.5 1.21875 1.5 2.23437 0 1.67188-1.375 2.26563-3.14062 2.26563V-7.6875c0-.60937-.15625-.89062-.70313-.89062-1.375 0-3.5.53125-3.5 3.76562 0 3.03125 1.96875 4.15625 4.32813 4.15625m-.9375-2.67187c-1.20313 0-2.625-.3125-2.625-1.40625 0-1.01563 1.29687-1.20313 2.07812-1.20313.46875 0 .54688.125.54688.51563Zm0 0"/><path id="l" d="M-3.96875-.65625c2.45313 0 4.17188-1.28125 4.17188-3.40625 0-.625-.32813-1.51562-1.04688-2.42187H0v-3.60938h-.64062c-.0625.95313-.125 1.07813-.82813 1.07813h-10.89062l-.09375.10937.4375 3.42188h.60937l.09375-.59375c.04688-.26563.1875-.40625.875-.40625h2.21875c-.17187.375-.21875.85937-.21875 1.42187 0 1.25.375 2.375 1.09375 3.15625.73438.78125 1.85938 1.25 3.375 1.25m-.34375-2.67187c-2.46875 0-3.35937-.92188-3.35937-1.875 0-.64063.34375-.98438.6875-1.14063.25-.15625.60937-.14062.95312-.14062h3.46875c.6875 0 1.46875.25 1.46875 1.3125 0 1.09375-1.0625 1.84375-3.21875 1.84375m0 0"/><path id="m" d="M3.21875-.40625h.64063V-5.4375h-.64063c-.0625 1.23438-.125 1.375-.82812 1.375H0c.125-.28125.20313-.82812.20313-1.29687 0-2.48438-.85938-4.48438-4.54688-4.48438-2.78125 0-4.09375 1.45313-4.09375 3.03125 0 1.1875.53125 1.9375 1.15625 2.75L-8.4375-3.75l.48438 3.21875h.60937l.09375-.57812C-7.21875-1.375-7.09375-1.5-6.42187-1.5h8.8125c.70312 0 .76562.125.82812 1.09375M-2.5625-4.0625h-2.64062c-.35938 0-.70313 0-.92188-.07812-.625-.21875-1.03125-.6875-1.03125-1.375 0-.79688.45313-1.67188 3.17188-1.67188 2.09375 0 3.40625.46875 3.40625 1.75 0 .73438-.39063 1.14063-1.125 1.3125-.25.04688-.53125.0625-.85938.0625m0 0"/><path id="n" d="M-10.64062-1.26562c.8125 0 1.48437-.57813 1.48437-1.51563s-.67187-1.57812-1.48437-1.57812c-.78125 0-1.45313.60937-1.45313 1.57812 0 .9375.67188 1.51563 1.45313 1.51563M0-.53125v-4.73437h-.64062c-.0625.95312-.125 1.125-.82813 1.125h-6.85937l-.10938.07812.48438 3.4375h.60937l.09375-.59375c.03125-.26562.15625-.40625.82813-.40625h4.95312c.70313 0 .76563.125.82813 1.09375Zm0 0"/><path id="o" d="M-4.10937-.65625c2.28125 0 4.3125-1 4.3125-4.10937 0-2.01563-.96875-3.09375-2.45313-3.67188l-.34375.60938c.96875.5 1.5 1.21875 1.5 2.23437 0 1.67188-1.375 2.26563-3.14062 2.26563V-7.6875c0-.60937-.15625-.89062-.70313-.89062-1.375 0-3.5.53125-3.5 3.76562 0 3.03125 1.96875 4.15625 4.32813 4.15625m-.9375-2.67187c-1.20313 0-2.625-.3125-2.625-1.40625 0-1.01563 1.29687-1.20313 2.07812-1.20313.46875 0 .54688.125.54688.51563Zm-6.375 1.46875c.42187 0 .76562-.53125 1.10937-1.14063l1.73438-3.07812-.51563-.35938-2.5 2.45313c-.65625.625-.84375.89062-.84375 1.23437 0 .40625.59375.89063 1.01563.89063m0 0"/><path id="p" d="M-4.0625-.65625C-1.21875-.65625.20313-2.25.20313-4.625c0-1.40625-.46875-2.95312-2.5625-3.60937l-.26563.57812c1.14063.57813 1.53125 1.23438 1.53125 2.17188 0 1.09375-.73437 2.15625-3.35937 2.15625-2.25 0-3.21875-.73438-3.21875-1.42188 0-.59375.54687-.875 1.54687-1.17187.39063-.125.57813-.39063.57813-.8125 0-.59375-.29688-1.375-1.03125-1.375-1.20313 0-1.85938 1.64062-1.85938 3.17187 0 1.3125.39063 2.40625 1.125 3.125.70313.70313 1.79688 1.15625 3.25 1.15625m0 0"/><path id="q" d="m-3.10937-.73437 2.5-.1875c.59375-.65625.8125-1.92188.8125-2.875 0-2.04688-.90625-3.4375-2.71875-3.4375-1.45313 0-2.15625.92187-2.73438 2.46875-.35937.96875-.75 1.6875-1.4375 1.6875-.51562 0-.98437-.375-.98437-1.0625 0-.85938.79687-1.57813 2.0625-1.90625v-.625h-2.23438c-.4375.70312-.59375 1.65625-.59375 2.53125 0 2.04687.96875 3.3125 2.65625 3.3125 1.23438 0 2.03125-.98438 2.57813-2.45313.3125-.85937.8125-1.70312 1.60937-1.70312.64063 0 1.01563.42187 1.01563 1.15625 0 1.10937-1.15625 2.01562-2.53125 2.45312Zm0 0"/><path id="r" d="M-6.95312-.78125-6.5-1.23437c-.84375-1.04688-2.17187-2.40625-3.59375-2.40625-1.10937 0-1.79687.625-1.79687 1.42187 0 .73438.54687 1.125 1.125 1.125.71875 0 1.0625-.625 1.79687-.625.73438 0 1.40625.375 2.01563.9375m0 0"/><path id="s" d="M0-.40625v-4.54687h-.64062l-.03126.375c-.04687.35937-.09374.51562-.65624.51562h-4c-.375 0-.75-.01562-.98438-.14062-.42187-.21875-.84375-.6875-.84375-1.39063 0-.85937.57813-1.32812 1.57813-1.32812h4.25c.5625 0 .60937.1875.65625.54687l.03124.34375H0v-4.51562h-.64062c-.0625.96875-.125 1.07812-.82813 1.07812h-4.35937c-1.57813 0-2.60938.8125-2.60938 2.59375 0 1 .5 1.76563 1.15625 2.8125h-5.07812l-.09375.14063.4375 3.39062h.60937l.09375-.57812c.04688-.26563.1875-.39063.875-.39063h8.96875c.70313 0 .76563.125.82813 1.09375Zm0 0"/><path id="t" d="M-2.25-.79687c1.25 0 2.45313-.8125 2.45313-2.51563 0-1.0625-.57813-1.8125-.96875-2.40625.51562-.21875.96875-.51562.96875-1.32812 0-.875-.29688-1.90625-.5-2.46875l-.5625.03125c.01562.20312 0 .57812-.09376.82812-.0625.21875-.26562.54688-1.25.54688h-3.875C-7.125-8.10937-8.4375-7.96875-8.4375-5c0 2.46875.98438 4 2.07813 4C-5.625-1-5.3125-2.07812-5.3125-2.5c0-.375-.26562-.5625-.67187-.71875-1.4375-.46875-1.6875-1.01562-1.6875-1.48437 0-.48438.29687-.95313 1.25-.95313h.90625c.40625.59375.79687 1.98438 1.17187 3.07813C-3.875-1.25-3.21875-.79687-2.25-.79687m-.26562-2.5625c-.79688 0-1.1875-.28125-1.46875-.78125-.28125-.53125-.51563-1.09375-.70313-1.51563H-2.25c.90625.04688 1.14063.5625 1.14063 1.03125 0 .65625-.51563 1.26563-1.40625 1.26563m0 0"/><path id="u" d="M-7.40625-.625v-.98437h5.4375c1.54688 0 2.17188-1.125 2.17188-2.07813 0-.6875-.3125-1.73437-.90625-2.67187l-.53125.17187c.10937.23438.1875.57813.1875.95313 0 .64062-.48438 1.09375-1.5625 1.09375h-4.79688v-1.76563h-.82812v1.76563h-2.10938v.95312l2.10938 1.48438V-.625Zm0 0"/><path id="v" d="M-4.10937-.65625C-1.4375-.65625.20313-1.95312.20313-5c0-3.0625-1.64063-4.35937-4.3125-4.35937C-6.79687-9.35937-8.4375-8.0625-8.4375-5c0 3.04688 1.64063 4.34375 4.32813 4.34375m0-2.67187c-2.25 0-3.5625-.48438-3.5625-1.67188 0-1.20312 1.3125-1.6875 3.5625-1.6875S-.57812-6.20312-.57812-5c0 1.1875-1.28125 1.67188-3.53125 1.67188m0 0"/><path id="w" d="M.54688 0H4.625v-.64062l-.95312-.07813c-.46875-.03125-.65625-.29687-.70313-.89062-.07812-.60938-.07812-1.25-.07812-2.625v-5.17188h.0625C5.01563-6.29687 7.04688-3.10937 9.04688 0h1.85937v-7.40625c0-1.375 0-2.01562.0625-2.60937.0625-.57813.21875-.82813.60938-.89063L12.17188-11v-.625h-4.0625V-11l.95312.09375c.46875.03125.65625.3125.71875.89063.0625.60937.0625 1.23437.0625 2.60937V-3.625h-.0625c-1.79687-2.67187-3.5625-5.32812-5.29687-8H.53125V-11c1.20313.0625 1.3125.15625 1.3125 1.01563v5.75c0 1.375-.01562 2.03125-.09375 2.625-.04687.59375-.21875.84375-.60937.89062l-.59375.07813Zm0 0"/><path id="x" d="M.65625-4.10937C.65625-1.4375 1.95313.20313 5 .20313c3.0625 0 4.35938-1.64063 4.35938-4.3125C9.35938-6.79687 8.0625-8.4375 5-8.4375c-3.04687 0-4.34375 1.64063-4.34375 4.32813m2.67188 0c0-2.25.48437-3.5625 1.67187-3.5625 1.20313 0 1.6875 1.3125 1.6875 3.5625S6.20313-.57812 5-.57812c-1.1875 0-1.67187-1.28125-1.67187-3.53125m0 0"/><path id="y" d="M.53125 0h4.51563v-.64062l-.32813-.03126c-.35937-.04687-.57812-.09374-.57812-.65624v-3.875c0-1.46875.84375-1.95313 1.57812-1.95313.82813 0 1.21875.70313 1.21875 1.64063v4.1875c0 .5625-.20312.60937-.5625.65625l-.32812.03124V0H10.375v-.64062l-.34375-.03126c-.35937-.04687-.54687-.09374-.54687-.65624v-3.875c0-1.46875.76562-1.95313 1.48437-1.95313.82813 0 1.28125.70313 1.28125 1.64063v4.1875c0 .5625-.1875.60937-.54687.65625l-.35938.03124V0H15.875v-.64062c-.96875-.0625-1.07812-.125-1.07812-.82813v-4.35937c0-1.54688-.85938-2.60938-2.64063-2.60938-1.15625 0-2.21875.8125-2.9375 1.26563-.32812-.60938-1.01562-1.26563-2.26562-1.26563-1.09375 0-1.875.57813-2.8125 1.15625L3.9375-8.4375.625-7.95312v.60937l.59375.09375c.26563.03125.40625.15625.40625.82813v4.95312c0 .70313-.125.76563-1.09375.82813Zm0 0"/><path id="z" d="m.34375-11.40625.57813.09375c.28124.04688.4375.1875.4375.875V-.10937l.51562.3125.89063-.57813c.60937.32813 1.4375.57813 2.53125.57813 2.39062 0 4.40625-.8125 4.40625-4.59375 0-2.73438-1.48438-4.04688-3.15625-4.04688-1.0625 0-1.875.54688-2.67188 1.15625v-5.07812l-.10937-.09375-3.42188.4375ZM3.875-2.59375v-2.64062c0-.35938 0-.71875.09375-.95313.21875-.5625.625-.96875 1.35938-.96875.82812 0 1.70312.4375 1.70312 3.17188 0 2.10937-.46875 3.40625-1.71875 3.40625-.82812 0-1.25-.42188-1.375-1.04688-.0625-.25-.0625-.64062-.0625-.96875m0 0"/><path id="A" d="M.53125 0h5.07813v-.64062c-1.28125-.07813-1.46875-.125-1.46875-.82813v-3.73437c0-.875.17187-1.28125.57812-1.28125.26563 0 .51563.14062.89063.35937.21875.15625.45312.26563.76562.26563.34375 0 .6875-.1875.85938-.4375.1875-.25.26562-.57813.26562-.95313 0-.71875-.45312-1.1875-1.15625-1.1875-.6875 0-1.23437.46875-2.21875 1.48438L3.89063-8.4375.625-7.95312v.60937l.59375.09375c.26563.03125.40625.15625.40625.82813v4.95312c0 .70313-.125.76563-1.09375.82813Zm0 0"/><path id="B" d="M.65625-4.10937c0 2.28125 1 4.3125 4.10938 4.3125 2.01562 0 3.09375-.96875 3.67187-2.45313l-.60937-.34375c-.5.96875-1.21875 1.5-2.23438 1.5-1.67187 0-2.26562-1.375-2.26562-3.14062H7.6875c.60938 0 .89063-.15625.89063-.70313 0-1.375-.53125-3.5-3.76563-3.5-3.03125 0-4.15625 1.96875-4.15625 4.32813m2.67188-.9375c0-1.20313.3125-2.625 1.40625-2.625C5.75-7.67187 5.9375-6.375 5.9375-5.59375c0 .46875-.125.54688-.51562.54688Zm0 0"/><path id="C" d="M.65625-3.96875C.65625-1.51562 1.9375.20313 4.0625.20313c.625 0 1.51563-.32813 2.42188-1.04688V0h3.60937v-.64062c-.95312-.0625-1.07812-.125-1.07812-.82813v-10.89062l-.10938-.09375-3.42187.4375v.60937l.59375.09375c.26562.04688.40625.1875.40625.875v2.21875c-.375-.17187-.85938-.21875-1.42188-.21875-1.25 0-2.375.375-3.15625 1.09375-.78125.73438-1.25 1.85938-1.25 3.375m2.67188-.34375c0-2.46875.92187-3.35937 1.875-3.35937.64062 0 .98437.34375 1.14062.6875.15625.25.14063.60937.14063.95312v3.46875c0 .6875-.25 1.46875-1.3125 1.46875-1.09375 0-1.84375-1.0625-1.84375-3.21875m0 0"/><path id="D" d="M.78125-6.95312 1.23438-6.5c1.04687-.84375 2.40625-2.17187 2.40625-3.59375 0-1.10937-.625-1.79687-1.42188-1.79687-.73437 0-1.125.54687-1.125 1.125 0 .71875.625 1.0625.625 1.79687 0 .73438-.375 1.40625-.9375 2.01563m0 0"/><path id="E" d="M.53125 0h4.51563v-.64062l-.32813-.03126c-.35937-.04687-.57812-.09374-.57812-.65624v-4c0-.375.07812-.75.20312-.98438.21875-.42187.65625-.84375 1.35938-.84375.85937 0 1.29687.54688 1.34375 1.54688v4.28125c0 .5625-.1875.60937-.54688.65625l-.34375.03124V0h4.51563v-.64062c-.96875-.0625-1.10938-.125-1.10938-.82813v-4.375C9.54688-7.42187 8.78125-8.4375 7.04688-8.4375c-.98438 0-1.79688.5-2.90625 1.15625L3.9375-8.4375.625-7.95312v.60937l.59375.09375c.26563.03125.40625.15625.40625.82813v4.95312c0 .70313-.125.76563-1.09375.82813Zm0 0"/><path id="F" d="M.54688 0h4.96875v-.64062c-1.1875-.0625-1.34375-.125-1.34375-.82813v-5.9375h1.75v-.82812h-1.75c0-.8125-.34375-2.20313-.34375-2.82813 0-.4375.17187-.625.375-.625.26562 0 .48437.29688.98437 1.25.15625.29688.32813.5.75.5.53125 0 1.23438-.39062 1.23438-.96875 0-.625-.625-1.54687-2.46875-1.54687-1.85938 0-3.07813 1.1875-3.07813 3.5v.71875H.57813v.82812H1.625v5.9375c0 .70313-.10937.76563-1.07812.82813Zm0 0"/><path id="G" d="M.79688-2.25c0 1.25.8125 2.45313 2.51562 2.45313 1.0625 0 1.8125-.57813 2.40625-.96875.21875.51562.51563.96875 1.32813.96875.875 0 1.90625-.29688 2.46875-.5l-.03125-.5625c-.20313.01562-.57813 0-.82813-.09376-.21875-.0625-.54687-.26562-.54687-1.25v-3.875C8.10938-7.125 7.96875-8.4375 5-8.4375c-2.46875 0-4 .98438-4 2.07813C1-5.625 2.07813-5.3125 2.5-5.3125c.375 0 .5625-.26562.71875-.67187.46875-1.4375 1.01563-1.6875 1.48438-1.6875.48437 0 .95312.29687.95312 1.25v.90625c-.59375.40625-1.98437.79687-3.07812 1.17187C1.25-3.875.79688-3.21875.79688-2.25m2.5625-.26562c0-.79688.28125-1.1875.78125-1.46875.53125-.28125 1.09375-.51563 1.51562-.70313V-2.25c-.04687.90625-.5625 1.14063-1.03125 1.14063-.65625 0-1.26562-.51563-1.26562-1.40625m0 0"/><path id="H" d="M.625-7.40625h.98438v5.4375c0 1.54688 1.125 2.17188 2.07812 2.17188.6875 0 1.73438-.3125 2.67188-.90625l-.17188-.53125c-.23437.10937-.57812.1875-.95312.1875-.64063 0-1.09375-.48438-1.09375-1.5625v-4.79688h1.76562v-.82812H4.14063v-2.10938H3.1875L1.70313-8.23437H.625Zm0 0"/><path id="I" d="m.73438-3.10937.1875 2.5c.65625.59375 1.92187.8125 2.875.8125 2.04687 0 3.4375-.90625 3.4375-2.71875 0-1.45313-.92188-2.15625-2.46875-2.73438-.96875-.35937-1.6875-.75-1.6875-1.4375 0-.51562.375-.98437 1.0625-.98437.85937 0 1.57812.79687 1.90625 2.0625h.625v-2.23438c-.70313-.4375-1.65625-.59375-2.53125-.59375-2.04688 0-3.3125.96875-3.3125 2.65625 0 1.23438.98437 2.03125 2.45312 2.57813.85938.3125 1.70313.8125 1.70313 1.60937 0 .64063-.42188 1.01563-1.15625 1.01563-1.10938 0-2.01563-1.15625-2.45313-2.53125Zm0 0"/><path id="J" d="M2.34375-3.76562c0 .10937.04688.26562.15625.46875.15625.29687.29688.42187.48438.42187.14062 0 .26562-.0625.46875-.1875.65625-.35937 1.73437-1.46875 1.96875-1.60937.04687-.01563.0625-.03125.07812-.03125.01563 0 .0625 0 .07813.01562.0625.04688.0625.09375.0625.14063 0 .29687-.42188 1.75-.42188 2.51562 0 .57813.14063.70313.70313.70313.46875 0 .67187-.07813.67187-.51563v-.23437c0-.78125-.42187-2.17188-.42187-2.45313 0-.0625 0-.10937.07812-.15625.03125-.01562.04688-.01562.0625-.01562.04688 0 .0625.01562.07813.03125.25.14062 1.32812 1.25 1.98437 1.65625.17188.10937.34375.14062.46875.14062.15625 0 .3125-.125.46875-.42187q.1875-.3047.1875-.46875c0-.1875-.125-.3125-.42187-.46875-.65625-.39063-2.14063-.75-2.39063-.89063-.04687-.01562-.09375-.0625-.09375-.14062 0-.09375.04688-.10938.09375-.15625.25-.14063 1.73438-.5 2.39063-.89063C9.375-6.46875 9.5-6.60937 9.5-6.79687c0-.10938-.0625-.25-.1875-.45313-.15625-.29687-.28125-.4375-.45312-.4375-.125 0-.28125.0625-.48438.20313C7.71875-7.125 6.64063-6.01562 6.39063-5.875c-.01563.01563-.01563.0625-.07813.0625-.01562 0-.03125 0-.0625-.04687-.07812-.03125-.07812-.07813-.07812-.15625 0-.26563.4375-1.76563.4375-2.5 0-.5625-.14063-.71875-.6875-.71875-.5625 0-.70313.15625-.70313.71875 0 .73437.42188 2.23437.42188 2.5 0 .07812 0 .125-.0625.15625-.01563.04687-.0625.04687-.07813.04687-.01562 0-.03125 0-.07812-.04687-.23438-.15625-1.3125-1.25-1.96875-1.625q-.3047-.1875-.46875-.1875c-.1875 0-.32813.125-.48438.42187-.10937.20313-.15625.34375-.15625.48438 0 .17187.125.29687.4375.45312.60938.39063 2.125.75 2.35938.89063.04687.04687.10937.0625.10937.15625 0 .07812-.0625.125-.10937.14062-.23438.14063-1.75.5-2.375.89063-.29688.15625-.42188.28125-.42188.46875m0 0"/></defs><path fill="none" stroke="#000" stroke-miterlimit="10" stroke-width=".39733" d="M60.46484 239.07422h271.33207M60.46484 193.85546h271.33207M60.46484 148.6328h271.33207M60.46484 103.41014h271.33207M60.46484 58.18748h271.33207M60.46484 12.98044h271.33207M60.46484 239.07422V12.96482m45.22267 226.1094V12.96482m45.22266 226.1094V12.96482m45.22266 226.1094V12.96482m45.22266 226.1094V12.96482m45.21875 226.1094V12.96482m45.20704 226.1094V12.96482"/><path fill="none" stroke="#000" stroke-miterlimit="10" stroke-width=".79467" d="M60.46484 234.55469v9.04297"/><use xlink:href="#a" x="55.51803" y="263.70924"/><path fill="none" stroke="#000" stroke-miterlimit="10" stroke-width=".79467" d="M105.6875 234.55469v9.04297"/><use xlink:href="#b" x="100.74" y="263.70924"/><path fill="none" stroke="#000" stroke-miterlimit="10" stroke-width=".79467" d="M150.91017 234.55469v9.04297"/><use xlink:href="#c" x="145.96097" y="263.70924"/><path fill="none" stroke="#000" stroke-miterlimit="10" stroke-width=".79467" d="M196.13283 234.55469v9.04297"/><use xlink:href="#d" x="191.18294" y="263.70924"/><path fill="none" stroke="#000" stroke-miterlimit="10" stroke-width=".79467" d="M241.35549 234.55469v9.04297"/><use xlink:href="#e" x="236.40391" y="263.49088"/><path fill="none" stroke="#000" stroke-miterlimit="10" stroke-width=".79467" d="M286.57424 234.55469v9.04297"/><use xlink:href="#f" x="281.62588" y="263.49088"/><path fill="none" stroke="#000" stroke-miterlimit="10" stroke-width=".79467" d="M331.7969 234.55469v9.04297"/><use xlink:href="#g" x="326.84685" y="263.70924"/><path fill="none" stroke="#000" stroke-miterlimit="10" stroke-width=".79467" d="M62.72656 239.07422h-4.52344"/><use xlink:href="#a" x="40.89405" y="245.31435"/><path fill="none" stroke="#000" stroke-miterlimit="10" stroke-width=".79467" d="M62.72656 193.85546h-4.52344"/><use xlink:href="#b" x="40.89405" y="200.20206"/><path fill="none" stroke="#000" stroke-miterlimit="10" stroke-width=".79467" d="M62.72656 148.6328h-4.52344"/><use xlink:href="#c" x="40.89405" y="154.98009"/><path fill="none" stroke="#000" stroke-miterlimit="10" stroke-width=".79467" d="M62.72656 103.41014h-4.52344"/><use xlink:href="#d" x="40.89405" y="109.64944"/><path fill="none" stroke="#000" stroke-miterlimit="10" stroke-width=".79467" d="M62.72656 58.18748h-4.52344"/><use xlink:href="#e" x="40.89405" y="64.42847"/><path fill="none" stroke="#000" stroke-miterlimit="10" stroke-width=".79467" d="M62.72656 12.96482h-4.52344"/><use xlink:href="#f" x="40.89405" y="19.09782"/><use xlink:href="#h" x="19.54485" y="260.50965"/><use xlink:href="#i" x="19.54485" y="249.62063"/><use xlink:href="#j" x="19.54485" y="239.30378"/><use xlink:href="#k" x="19.54485" y="232.08019"/><use xlink:href="#l" x="19.54485" y="219.51044"/><use xlink:href="#k" x="19.54485" y="209.19359"/><use xlink:href="#m" x="19.54485" y="196.62383"/><use xlink:href="#n" x="19.54485" y="186.1103"/><use xlink:href="#o" x="19.54485" y="180.62109"/><use xlink:href="#p" x="19.54485" y="171.75253"/><use xlink:href="#k" x="19.54485" y="163.27733"/><use xlink:href="#q" x="19.54485" y="154.40877"/><use xlink:href="#l" x="19.54485" y="143.05487"/><use xlink:href="#r" x="19.54485" y="133.14926"/><use xlink:href="#s" x="19.54485" y="128.76862"/><use xlink:href="#t" x="19.54485" y="117.98688"/><use xlink:href="#i" x="19.54485" y="108.67132"/><use xlink:href="#n" x="19.54485" y="98.35447"/><use xlink:href="#u" x="19.54485" y="92.86526"/><use xlink:href="#t" x="19.54485" y="86.48204"/><use xlink:href="#u" x="19.54485" y="77.16648"/><use xlink:href="#n" x="19.54485" y="70.78326"/><use xlink:href="#v" x="19.54485" y="65.29405"/><use xlink:href="#h" x="19.54485" y="55.29904"/><use xlink:href="#q" x="19.54485" y="44.41002"/><use xlink:href="#w" x="172.58365" y="290.43063"/><use xlink:href="#x" x="184.67064" y="290.43063"/><use xlink:href="#y" x="194.66565" y="290.43063"/><use xlink:href="#z" x="210.77568" y="290.43063"/><use xlink:href="#A" x="221.09253" y="290.43063"/><use xlink:href="#B" x="228.31611" y="290.43063"/><use xlink:href="#C" x="240.88587" y="290.43063"/><use xlink:href="#D" x="250.79148" y="290.43063"/><use xlink:href="#B" x="254.33175" y="290.43063"/><use xlink:href="#E" x="263.20031" y="290.43063"/><use xlink:href="#F" x="274.08933" y="290.43063"/><use xlink:href="#G" x="279.98978" y="290.43063"/><use xlink:href="#E" x="289.30534" y="290.43063"/><use xlink:href="#H" x="300.19436" y="290.43063"/><use xlink:href="#I" x="306.57758" y="290.43063"/><use xlink:href="#J" x="54.54489" y="198.47314"/><use xlink:href="#J" x="54.54489" y="153.25217"/><use xlink:href="#J" x="54.54489" y="108.0302"/><use xlink:href="#J" x="99.76686" y="198.47314"/><use xlink:href="#J" x="99.76686" y="153.25217"/><use xlink:href="#J" x="99.76686" y="108.0302"/><use xlink:href="#J" x="99.76686" y="62.80923"/><use xlink:href="#J" x="144.98783" y="198.47314"/><use xlink:href="#J" x="144.98783" y="153.25217"/><use xlink:href="#J" x="144.98783" y="108.0302"/><use xlink:href="#J" x="144.98783" y="62.80923"/><use xlink:href="#J" x="190.2098" y="153.25217"/><use xlink:href="#J" x="190.2098" y="108.0302"/><use xlink:href="#J" x="190.2098" y="62.80923"/><use xlink:href="#J" x="235.43077" y="153.25217"/><use xlink:href="#J" x="235.43077" y="108.0302"/><use xlink:href="#J" x="235.43077" y="62.80923"/><use xlink:href="#J" x="280.65174" y="108.0302"/><use xlink:href="#J" x="280.65174" y="62.80923"/></svg>