<svg xmlns="http://www.w3.org/2000/svg" xmlns:xlink="http://www.w3.org/1999/xlink" width="244.997pt" height="202.492pt" viewBox="0 0 244.997 202.492"><defs><path id="a" d="M1.6875-5.26562c0 2.14062 1.57813 3.71875 3.73438 3.71875 2.09375 0 3.65625-1.57813 3.65625-3.71875 0-2.09375-1.5625-3.65625-3.65625-3.65625-2.15625 0-3.73438 1.5625-3.73438 3.65625m0 0"/><path id="b" d="M.8125-2.64062c0 1.9375.53125 4.4375 2.34375 4.51562v-.34375C2.53125 1.40625 1.6875.375 1.6875-2.64062c0-3 .84375-4.03125 1.46875-4.15625v-.34375c-1.8125.07812-2.34375 2.5625-2.34375 4.5m0 0"/><path id="c" d="M.375-3.125C.375-1.32812.9375.10938 2.5625.10938S4.76563-1.32812 4.76563-3.125 4.1875-6.34375 2.5625-6.34375.375-4.92187.375-3.125m1.17188 0c0-1.3125.1875-2.85937 1.01562-2.85937.84375 0 1.01563 1.54687 1.01563 2.85937S3.40625-.26562 2.5625-.26562c-.82812 0-1.01562-1.54688-1.01562-2.85938m0 0"/><path id="d" d="m.48438 1.17188.23437.20312C1.1875.9375 1.98438.26563 1.98438-.48437c0-.48438-.28126-.89063-.71875-.89063-.375 0-.5625.28125-.5625.51563 0 .34375.26562.51562.26562.92187 0 .39063-.1875.78125-.48437 1.10938m0 0"/><path id="e" d="M.57813 1.53125V1.875C2.39063 1.79688 2.9375-.70312 2.9375-2.64062s-.54687-4.42188-2.35937-4.5v.34375c.65625.14062 1.46875 1.17187 1.46875 4.15625 0 3.01562-.85938 4.04687-1.46875 4.17187m0 0"/><path id="f" d="M1.01563 0H4.1875v-.3125L3.48438-.375c-.21875-.01562-.3125-.07812-.3125-.42187v-5.5l-.07813-.04688-2.0625.32813V-5.75l.75.10938c.20313.03125.26563.10937.26563.40625v4.4375c0 .34375-.09375.40625-.3125.42187l-.71875.0625Zm0 0"/></defs><path fill="none" stroke="#000" stroke-miterlimit="10" stroke-width=".3975" d="M157.2774 179.3164H44.17578V66.2109H157.2774"/><path fill="none" stroke="#000" stroke-miterlimit="10" stroke-width=".3975" d="m157.2774 179.3164 43.54299-43.54689V22.6679l-43.543 43.54299ZM44.17578 66.21089l43.543-43.543h113.1016"/><path fill="none" stroke="#000" stroke-dasharray="2.981357925 2.981357925" stroke-miterlimit="10" stroke-width=".3975" d="M200.82039 135.76951H87.71877V22.6679M44.17578 179.3164l43.543-43.54689"/><use xlink:href="#a" x="38.79748" y="183.77795" fill="#007F7F"/><g fill="#007F7F"><use xlink:href="#b" x="29.06291" y="193.4826"/><use xlink:href="#c" x="32.78955" y="193.4826"/><use xlink:href="#d" x="37.90747" y="193.4826"/></g><g fill="#007F7F"><use xlink:href="#c" x="41.61423" y="193.4826"/><use xlink:href="#d" x="46.73215" y="193.4826"/></g><g fill="#007F7F"><use xlink:href="#c" x="50.43892" y="193.4826"/><use xlink:href="#e" x="55.55684" y="193.4826"/></g><use xlink:href="#a" x="82.34124" y="27.13193" fill="#007F7F"/><g fill="#007F7F"><use xlink:href="#b" x="72.60667" y="13.76946"/><use xlink:href="#f" x="76.33331" y="13.76946"/><use xlink:href="#d" x="81.45123" y="13.76946"/></g><g fill="#007F7F"><use xlink:href="#f" x="85.15799" y="13.76946"/><use xlink:href="#d" x="90.27591" y="13.76946"/></g><g fill="#007F7F"><use xlink:href="#c" x="93.98268" y="13.76946"/><use xlink:href="#e" x="99.1006" y="13.76946"/></g><use xlink:href="#a" x="151.89974" y="70.67569" fill="#007F7F"/><g fill="#007F7F"><use xlink:href="#b" x="142.16516" y="57.31322"/><use xlink:href="#c" x="145.8918" y="57.31322"/><use xlink:href="#d" x="151.00972" y="57.31322"/></g><g fill="#007F7F"><use xlink:href="#f" x="154.71649" y="57.31322"/><use xlink:href="#d" x="159.83441" y="57.31322"/></g><g fill="#007F7F"><use xlink:href="#f" x="163.54117" y="57.31322"/><use xlink:href="#e" x="168.65909" y="57.31322"/></g><use xlink:href="#a" x="195.4435" y="140.23419" fill="#007F7F"/><g fill="#007F7F"><use xlink:href="#b" x="207.8414" y="138.40478"/><use xlink:href="#f" x="211.56804" y="138.40478"/><use xlink:href="#d" x="216.68596" y="138.40478"/></g><g fill="#007F7F"><use xlink:href="#c" x="220.39272" y="138.40478"/><use xlink:href="#d" x="225.51064" y="138.40478"/></g><g fill="#007F7F"><use xlink:href="#f" x="229.21741" y="138.40478"/><use xlink:href="#e" x="234.33533" y="138.40478"/></g><use xlink:href="#a" x="151.89974" y="183.77795"/><use xlink:href="#b" x="142.16516" y="193.4826"/><use xlink:href="#c" x="145.8918" y="193.4826"/><use xlink:href="#d" x="151.00972" y="193.4826"/><use xlink:href="#c" x="154.71649" y="193.4826"/><use xlink:href="#d" x="159.83441" y="193.4826"/><use xlink:href="#f" x="163.54117" y="193.4826"/><use xlink:href="#e" x="168.65909" y="193.4826"/><use xlink:href="#a" x="82.34124" y="140.23419"/><use xlink:href="#b" x="50.47319" y="138.40478"/><use xlink:href="#f" x="54.19983" y="138.40478"/><use xlink:href="#d" x="59.31775" y="138.40478"/><use xlink:href="#c" x="63.02452" y="138.40478"/><use xlink:href="#d" x="68.14244" y="138.40478"/><use xlink:href="#c" x="71.8492" y="138.40478"/><use xlink:href="#e" x="76.96712" y="138.40478"/><use xlink:href="#a" x="38.79748" y="70.67569"/><use xlink:href="#b" x="6.92943" y="68.84728"/><use xlink:href="#c" x="10.65607" y="68.84728"/><use xlink:href="#d" x="15.77399" y="68.84728"/><use xlink:href="#f" x="19.48076" y="68.84728"/><use xlink:href="#d" x="24.59868" y="68.84728"/><use xlink:href="#c" x="28.30544" y="68.84728"/><use xlink:href="#e" x="33.42336" y="68.84728"/><use xlink:href="#a" x="195.4435" y="27.13193"/><use xlink:href="#b" x="185.70792" y="13.76946"/><use xlink:href="#f" x="189.43456" y="13.76946"/><use xlink:href="#d" x="194.55248" y="13.76946"/><use xlink:href="#f" x="198.25925" y="13.76946"/><use xlink:href="#d" x="203.37717" y="13.76946"/><use xlink:href="#f" x="207.08394" y="13.76946"/><use xlink:href="#e" x="212.20186" y="13.76946"/></svg>