<svg xmlns="http://www.w3.org/2000/svg" xmlns:xlink="http://www.w3.org/1999/xlink" width="512.856pt" height="252.543pt" viewBox="0 0 512.856 252.543"><defs><path id="c" d="M-.53125 0h4.10938v-.53125l-.96875-.10937c-.5625-.0625-.64063-.25-.48438-.75C2.45313-2.5 2.82813-3.65625 3.26563-5h4.1875l1.26562 3.59375c.17188.53125.09375.73438-.5.79688l-.85937.07812V0h4.79687v-.53125c-1.09375-.10937-1.29687-.17187-1.64062-1.14062l-3.95313-11.25H5.17188L3.21875-7.40625c-.57812 1.64063-1.375 3.85938-2.03125 5.57813C.79688-.8125.64063-.59375-.53125-.53125Zm4.04688-5.70312c.60937-1.875 1.26562-3.70313 1.8125-5.35938h.0625l1.84375 5.35938Zm0 0"/><path id="d" d="M.59375 0h4.5625v-.53125C3.8125-.64062 3.76563-.67187 3.76563-1.625V-6c0-.48437.01562-.71875.17187-1.01562C4.34375-7.75 5.17188-8.375 6.17188-8.375c1.26562 0 1.96875.70313 1.96875 2.32813V-1.625c0 .95313-.0625.98438-1.42188 1.09375V0h4.57813v-.53125C9.96875-.64062 9.89063-.67187 9.89063-1.625v-4.78125c0-1.89062-1.04688-2.98437-2.75-2.98437-1.39063 0-2.25.67187-3.40625 1.4375l-.25-1.4375-2.78125.48437v.45313l.6875.09375c.48437.07812.625.17187.625.84375V-1.625c0 .95313-.0625.98438-1.42188 1.09375Zm0 0"/><path id="e" d="M.78125 1.79688c0 1.89062 1.89063 2.71875 4.04688 2.71875 1.125 0 2.29687-.21875 3.1875-.75C8.875 3.23438 9.5 2.34375 9.5 1.1875c0-2.01562-1.60937-2.71875-3.60937-2.71875h-1.5c-1.34375 0-1.54688-.45312-1.54688-.8125 0-.54687.71875-.84375.95313-.92187.35937.04687.76562.0625.95312.0625 1.78125 0 3.78125-.78125 3.78125-3.04688 0-.76562-.25-1.42187-.57812-1.75l1.5-.23437.375-1.17188-.15625-.15625-2.39063.75c-.51562-.35937-1.57812-.57812-2.42187-.57812C1.98438-9.39062 1-7.64062 1-6.25 1-4.5 2.14063-3.6875 3-3.46875v.04688c-1.01562.40625-1.70312.9375-1.70312 1.67187 0 .65625.75 1.35938 1.64062 1.45313v.03125C2.14063 0 .78125.4375.78125 1.79688m1.78125-.09376c0-.625.1875-1.10937.57813-1.40624.42187-.3125 1.03125-.4375 1.9375-.4375 1.64062 0 2.85937.42187 2.85937 1.8125C7.9375 3.15625 6.57813 3.875 5.25 3.875c-1.59375 0-2.6875-.8125-2.6875-2.17187M2.90625-6.25c0-1.84375.95313-2.48437 1.95313-2.48437.90625 0 1.85937.67187 1.85937 2.48437 0 1.57813-.79687 2.39063-1.89062 2.39063-1.04688 0-1.92188-.8125-1.92188-2.39063m0 0"/><path id="f" d="M.375 0h4.5625v-.53125C3.59375-.64062 3.54688-.67187 3.54688-1.625v-12.14062l-.14063-.09375-2.92187.45312v.48438l.6875.04687c.48437.0625.59375.17188.59375.875v10.375c0 .95313-.03126.98438-1.39063 1.09375Zm0 0"/><path id="g" d="M.92188-4.51562c0 2.96875 1.26562 4.73437 4.3125 4.73437 2.0625 0 3.14062-1.15625 3.64062-2.625l-.5625-.29687C7.79688-1.60937 7.07813-.73437 5.60938-.73437c-2.32813 0-2.78125-2.23438-2.75-4.17188H8.25c.40625 0 .73438-.10937.73438-.71875 0-1.09375-.35938-3.76562-3.76563-3.76562-2.9375 0-4.29687 2.07812-4.29687 4.875M2.89063-5.625c0-.78125.26562-3.10937 2.21875-3.10937 1.73437 0 1.9375 1.76562 1.9375 2.51562 0 .34375-.125.59375-.64063.59375Zm0 0"/><path id="h" d="M.92188-4.57812c0 3.03125 1.48437 4.79687 4.48437 4.79687s4.48438-1.76562 4.48438-4.79687c0-3.01563-1.48438-4.8125-4.48438-4.8125S.92188-7.59375.92188-4.57812m1.9375 0c0-2.57813.84375-4.15625 2.54687-4.15625 1.71875 0 2.54688 1.57812 2.54688 4.15625 0 2.59375-.82813 4.14062-2.54688 4.14062-1.70312 0-2.54687-1.54687-2.54687-4.14062m0 0"/><path id="i" d="m.375-12.92187.71875.04687c.48438.0625.59375.17188.59375.875V.07813l.34375.14062L2.76563-.5c.65625.375 1.45312.71875 2.84375.71875 2.48437 0 4.65625-1.1875 4.65625-5.01562 0-1.15625-.23438-4.59375-3.60938-4.59375-1.40625 0-2.51562.92187-3.21875 1.32812v-5.70312l-.14062-.09375-2.92188.45312Zm3.0625 9.875V-6c0-.48437.03125-.76562.1875-1.0625.45313-.89062 1.23438-1.3125 2.28125-1.3125.78125 0 2.40625.4375 2.40625 3.70313 0 2.75-.82812 4.23437-2.6875 4.23437-.98437 0-1.70312-.5-2.04687-1.4375-.10938-.32812-.14063-.70312-.14063-1.17187m0 0"/><path id="j" d="M.57813-8.40625h1.34375v6.5C1.92188 0 3.34375.21875 4 .21875c.95313 0 1.84375-.48437 2.39063-.8125L6.25-1c-.46875.1875-.85937.25-1.34375.25-.625 0-1.21875-.46875-1.21875-1.875v-5.78125h2.40625v-.76562H3.6875v-2.34375h-.54687l-1.125 2.34375H.57813Zm0 0"/><path id="k" d="m.48438-8.45312.70312.09375c.48438.07812.60938.17187.60938.84375v4.9375C1.79688-.4375 3.0625.21875 4.45313.21875c1.59375 0 2.89062-1.07812 3.42187-1.32812L8.0625 0h3v-.53125C9.76563-.64062 9.64063-.67187 9.64063-1.625v-7.64062L9.5-9.39062l-2.92187.48437v.45313l.71875.09375c.48437.07812.59375.17187.59375.84375v4.21875c0 .51562-.04688.9375-.15625 1.10937-.4375.85938-1.3125 1.40625-2.28125 1.40625-1.09375 0-1.89063-.6875-1.89063-2.14062v-6.34375l-.14062-.125-2.9375.48437Zm0 0"/><path id="l" d="m.875-3.125.20313 2.45313c.67187.59375 1.8125.89062 2.90625.89062 2.21875 0 3.5-1.17187 3.5-2.76562 0-1.65625-1.01563-2.39063-2.95313-2.98438-.76562-.23437-1.98437-.64062-1.98437-1.6875 0-.96875.73437-1.51562 1.67187-1.51562 1.32813 0 1.96875 1.03125 2.10938 2.17187h.53125V-8.75c-.60938-.45312-1.5625-.64062-2.40625-.64062-2.03125 0-3.40625.95312-3.40625 2.73437 0 1.54688 1.28125 2.23438 2.82812 2.71875.84375.25 2.01563.67188 2.01563 1.95313 0 .95312-.73438 1.54687-1.73438 1.54687-1.51562 0-2.35937-1.09375-2.75-2.6875Zm0 0"/><path id="m" d="M.96875-5.125c0 2.45313 1.21875 5.40625 5.85938 5.40625C8.15625.28125 9.42188.09375 10.625-.5l.90625-2.98437h-.54687C9.9375-1.60937 9.01563-.375 6.70313-.375c-2.17188 0-3.71875-1.39062-3.71875-4.28125 0-1.6875.4375-3.75 1.32812-5.25.9375-1.57812 2.40625-2.67187 4.42188-2.67187 2.35937 0 3.04687 1.09375 3.04687 3.15625h.57813l.67187-2.8125c-1.07812-.67188-2.82812-1-4.14062-1-3.51563 0-5.54688 1.65625-6.64063 3.40625C1.21875-8.15625.96875-6.42187.96875-5.125m0 0"/><path id="n" d="M1.6875-5.26562c0 2.14062 1.57813 3.71875 3.75 3.71875 2.07813 0 3.65625-1.57813 3.65625-3.71875 0-2.09375-1.57812-3.67188-3.65625-3.67188-2.17187 0-3.75 1.57813-3.75 3.67188m0 0"/><path id="o" d="M0 0h5.3125l.09375-.53125-1.28125-.125c-.32812-.01562-.46875-.15625-.46875-.45312 0-.125.03125-.26563.0625-.4375l.84375-3.6875h1.39063c1.57812 0 3.0625-.21875 4.125-.875 1.20312-.73438 1.89062-2 1.89062-3.39063 0-1.28125-.59375-2.25-1.5-2.76562-.875-.5-2.07812-.65625-3.3125-.65625h-4.375l-.14062.53125 1.125.07812c.3125.01563.45312.17188.45312.5 0 .10938-.01562.25-.0625.4375l-2.25 9.82813c-.15625.625-.3125.84375-.76562.89062l-1.04688.125Zm4.8125-6.28125c0-.125.01563-.25.0625-.40625L6-11.64062c.125-.46875.25-.65625 1.20313-.65625 1.84375 0 2.79687.875 2.79687 2.46875 0 2.67187-1.48437 3.9375-4.01562 3.9375-.95313 0-1.17188-.09375-1.17188-.39063m0 0"/><path id="q" d="M1.60938-5.26562c0 4.21875.95312 8.84375 4.92187 9V3.1875C5.1875 2.92188 3.10938 1.26563 3.10938-5.26562c0-6.51563 1.98437-8.15625 3.42187-8.45313v-.5625C2.5625-14.125 1.60938-9.48437 1.60938-5.26562m0 0"/><path id="r" d="M.59375-.73437c0 .53125.4375.95312 1.20313.95312 1.26562 0 1.98437-1.26562 2.76562-2.53125l.75-1.23437h.03125L5.6875-2.0625C6.04688-.57812 6.39063.21875 7.34375.21875c1.375 0 2.07813-1.40625 2.64063-2.54687l-.48438-.25C9.04688-1.75 8.53125-.75 8.01563-.75c-.35938 0-.5-.42187-.92188-2.09375L6.5-5.29687c.6875-1.1875 1.64063-2.67188 2.17188-2.67188.5625 0 .57812.29688 1.14062.29688.40625 0 .79688-.40625.79688-.90625 0-.57813-.4375-.8125-.96875-.8125-.98438 0-1.82813.89062-2.48438 1.95312l-.8125 1.26563H6.3125L5.54688-9.3125l-.09375-.07812-3.09375.9375L2.40625-8 3.875-8.09375c.29688 0 .4375.14063.625.9375l.65625 2.70313-.51562.89062c-.79688 1.375-1.5 2.34375-1.95313 2.34375-.54687 0-.67187-.45312-1.28125-.45312-.46875 0-.8125.48437-.8125.9375m0 0"/><path id="s" d="M1.10938 3.1875v.54688c3.96875-.15625 4.92187-4.78125 4.92187-9s-.95312-8.85938-4.92187-9.01563v.5625c1.4375.29688 3.42187 1.9375 3.42187 8.45313 0 6.53125-2.07812 8.1875-3.42187 8.45312m0 0"/><path id="t" d="M.79688-.34375c0 .25.09374.5625.42187.5625.25 0 .875-.125.875-.4375v-.82812c0-.20313.09375-.34375.25-.34375.29688 0 .95313.4375 2.04688.875 1 .39062 1.875.73437 2.75.73437 1.21875 0 1.79687-1.625 2.28125-3.59375l-.51563-.14062c-.46875 1.15625-.9375 2.28125-1.76562 2.28125-.57813 0-1.40625-.28126-2.10938-.53125-.60937-.21876-1.26562-.48438-1.75-.54688C5.34375-4.46875 7.48438-6.6875 9.75-8.89062l-.15625-.28125H3.51563c-.25.34375-.82813 1.375-1.25 2.67187l.45312.1875c.60938-1.09375.92188-1.64062 1.79688-1.64062h3.28125C5.4375-5.5625 3.26563-3.40625 1.23438-1.35937c-.29688.3125-.4375.71875-.4375 1.01562m0 0"/><path id="p" d="M.375-3.59375C.375-2 1.10938.1875 4.5.1875c.92188 0 1.85938-.125 2.70313-.53125l.65625-2.20312H7.4375c-.75 1.32812-1.42187 2.23437-3 2.23437-1.4375 0-2.45312-.92187-2.45312-2.90625 0-2.15625.98437-5.53125 3.92187-5.53125 1.625 0 2.0625.85938 2.0625 2.23438h.42188l.48437-2.0625c-.75-.46875-2.01562-.6875-2.89062-.6875-4 0-5.60938 2.95312-5.60938 5.67187m0 0"/><clipPath id="a"><path d="M.39063 82H341v170H.39063Zm0 0"/></clipPath><clipPath id="b"><path d="M.39063 76H346v176.08594H.39063Zm0 0"/></clipPath></defs><g clip-path="url(#a)"><path fill="#B2B2FF" fill-opacity=".3" d="M340.13672 167c0-46.8789-76.01172-84.88672-169.77344-84.88672C76.59766 82.11328.58984 120.1211.58984 167c0 46.88281 76.00782 84.88672 169.77344 84.88672 93.76172 0 169.77344-38.0039 169.77344-84.88672m0 0"/></g><g clip-path="url(#b)"><path fill="none" stroke="#000" stroke-miterlimit="10" stroke-width=".39778" d="M340.13677 167c0-46.87892-76.01174-84.88675-169.77349-84.88675C76.59763 82.11325.58978 120.12108.58978 167c0 46.88283 76.00785 84.88675 169.7735 84.88675 93.76175 0 169.7735-38.00392 169.7735-84.88675Zm0 0"/></g><path fill="none" stroke="red" stroke-miterlimit="10" stroke-width=".39778" d="m329.89849 137.96874 11.4336-8.33203 8.32422 11.4375-11.4336 8.33203-8.32422-11.4375"/><path fill="none" stroke="#00ADEF" stroke-miterlimit="10" stroke-width=".39778" d="M302.14067 173.73047c19.75 15.33204 48.19142 11.7461 63.51955-8.0039 12.3672-15.9297 12.69922-38.12893 1.0586-54.10159"/><path fill="none" stroke="#00ADEF" stroke-linecap="round" stroke-linejoin="round" stroke-miterlimit="10" stroke-width=".39777" d="M365.89063 114.54297c.93359-1.15235.98437-2.23047.71093-3.07813.72266.51954 1.76563.8047 3.14453.26563"/><g fill="#00ADEF"><use xlink:href="#c" x="393.09469" y="142.64387"/><use xlink:href="#d" x="404.94871" y="142.64387"/><use xlink:href="#e" x="416.50438" y="142.64387"/><use xlink:href="#f" x="426.21035" y="142.64387"/><use xlink:href="#g" x="431.42135" y="142.64387"/></g><g fill="#00ADEF"><use xlink:href="#h" x="445.22451" y="142.64387"/><use xlink:href="#i" x="456.00451" y="142.64387"/><use xlink:href="#j" x="467.18229" y="142.64387"/><use xlink:href="#k" x="473.60653" y="142.64387"/><use xlink:href="#l" x="484.92353" y="142.64387"/></g><use xlink:href="#m" x="164.05715" y="173.47608"/><use xlink:href="#n" x="324.51579" y="142.43425"/><use xlink:href="#o" x="275.7131" y="142.82455"/><use xlink:href="#p" x="285.69704" y="147.20063"/><use xlink:href="#q" x="295.75883" y="142.82455"/><use xlink:href="#r" x="303.39631" y="142.82455"/><use xlink:href="#s" x="315.23044" y="142.82455"/><use xlink:href="#n" x="481.88901" y="27.72782"/><use xlink:href="#r" x="494.29556" y="16.01702"/><use xlink:href="#n" x="266.84415" y="216.73979"/><use xlink:href="#t" x="254.65621" y="205.02898"/><path fill="none" stroke="#000" stroke-dasharray="2.9834202177 2.9834202177" stroke-miterlimit="10" stroke-width=".39778" d="M407.85555 245.07034 251.93753 30.86714m77.89455 107.00394 157.44146-114.6094M272.2266 212.27345l57.67189-74.3047"/></svg>