<svg xmlns="http://www.w3.org/2000/svg" xmlns:xlink="http://www.w3.org/1999/xlink" width="426.389pt" height="164.763pt" viewBox="0 0 426.389 164.763"><defs><path id="b" d="M1.39063-4.03125h4.57812v-1.3125H1.39063Zm0 0"/><path id="c" d="m.35938-3.73437.15625.39062h5.09375v1.90625c0 .64063-.20313.73438-.65625.78125l-1.1875.125V0H8.6875v-.53125l-.82812-.10937c-.4375-.0625-.5625-.15626-.5625-.79688v-1.90625h1.90625v-.875H7.29688v-8.26562h-1.375c-1.75 2.57812-3.85938 5.82812-5.5625 8.75m1.34375-.48438c1.125-2.03125 2.4375-4.1875 3.85937-6.46875h.04688v6.46875Zm0 0"/><path id="d" d="M.5-1.90625c0 .79688 1.29688 2.125 3.9375 2.125 2.70313 0 4.40625-1.375 4.40625-3.76562 0-2.5-2.14062-3.23438-3.17187-3.32813v-.09375c1.01562-.15625 2.625-.90625 2.625-2.75 0-2.07812-1.60938-2.98437-3.625-2.98437C2.20313-12.70312 1-11.28125 1-10.48437c0 .57812.65625.89062.90625.89062.23438 0 .375-.125.45313-.375.42187-1.26562 1.125-2.07812 2.17187-2.07812 1.46875 0 1.85938 1.28125 1.85938 2.34375 0 1.10937-.40625 2.51562-2 2.51562-.89063 0-1.40625-.17187-1.625-.17187-.23438 0-.34375.17187-.34375.51562 0 .3125.10937.51563.34375.51563.21875 0 .73437-.17188 1.625-.17188C5.98438-6.5 6.875-5.07812 6.875-3.4375c0 2.21875-1.09375 3-2.42187 3-1.23438 0-2.04688-.92187-2.40625-1.96875-.125-.35937-.29688-.53125-.5625-.53125C1.15625-2.9375.5-2.57812.5-1.90625m0 0"/><path id="e" d="M2.03125 0h6.14063v-.53125l-1.5625-.14062c-.40625-.04688-.625-.1875-.625-.92188v-11.01562l-.09375-.09375-3.85938.65625v.45312l1.75.21875c.3125.03125.4375.17188.4375.71875v9.0625c0 .35938-.04687.57813-.15625.71875-.10937.14063-.26562.17188-.46875.20313l-1.5625.14062Zm0 0"/><path id="f" d="M.78125-6.25C.78125-2.5 1.875.21875 4.95313.21875S9.15625-2.5 9.15625-6.25c0-3.73437-1.125-6.45312-4.20312-6.45312S.78125-9.98437.78125-6.25m1.89063 0c0-3.03125.51562-5.79687 2.28125-5.79687 1.76562 0 2.28125 2.76562 2.28125 5.79687 0 3.04688-.51563 5.8125-2.28125 5.8125-1.76563 0-2.28125-2.76562-2.28125-5.8125m0 0"/><path id="g" d="M1.3125-.95312c0 .67187.45313 1.17187 1.17188 1.17187.73437 0 1.15625-.5 1.17187-1.17187 0-.70313-.4375-1.21875-1.17187-1.21875-.71875 0-1.17188.51562-1.17188 1.21875m0 0"/><path id="h" d="M.5-.17187.70313 0H8.4375l.625-2.46875-.51562-.09375c-.39063 1.01563-.76563 1.15625-1.53125 1.15625H2.25c.29688-.98437 1.40625-2.3125 3.14063-3.5625 1.79687-1.3125 3.1875-2.15625 3.1875-4.23437 0-2.60938-1.73438-3.5-3.70313-3.5-2.5625 0-3.875 1.54687-3.875 2.51562 0 .64063.70313.9375 1.03125.9375.32813 0 .45313-.20312.53125-.51562.29688-1.28125 1.03125-2.28125 2.1875-2.28125 1.4375 0 1.85938 1.1875 1.85938 2.5625 0 2-1.01563 3.14062-2.65625 4.57812C1.65625-2.90625.85938-1.625.5-.17187m0 0"/><path id="i" d="M.75-1.90625c0 .85938 1.3125 2.125 3.75 2.125 3.07813 0 4.46875-1.875 4.46875-4.23437 0-2.625-1.625-3.95313-3.85937-3.95313-1.03125 0-2.14063.4375-2.75.96875l-.01563-.01562.42188-3.5c.0625-.48438.17187-.54688.53125-.54688h4.65625l.45312-1.26562-.09375-.15625h-6.25l-.17187.17187-.375 6.25.45312.23438C2.75-6.71875 3.5-7.15625 4.51563-7.15625c1.1875 0 2.5.875 2.5 3.34375 0 1.92188-.76563 3.375-2.40625 3.375-1.3125 0-1.96875-.9375-2.34375-2.01562-.09375-.26563-.28125-.45313-.53125-.45313-.375 0-.98438.375-.98438 1m0 0"/><path id="j" d="M.78125-9.85937h.48438l.1875-.40625c.23437-.51563.5-.79688 1.32812-.79688h5.0625c-.1875.67188-.54687 1.75-2.0625 3.92188C4.17188-4.82812 3.125-2.75 3.125-.53125c0 .60938.4375.75 1.01563.75.53125 0 .9375-.15625.90625-.70312-.09375-2.45313.40625-4.46875 1.39062-6.20313 1.20313-2.07812 2.1875-3.25 2.84375-5.60937l-.15625-.1875H1.35938Zm0 0"/><path id="l" d="M1.59375-4.60937 11.875-.21875v-1.17187l-8.64062-3.875L11.875-9.15625v-1.17187L1.59375-5.92187Zm0 0"/><clipPath id="a"><path d="M0 125h425.77734v2H0Zm0 0"/></clipPath><clipPath id="k"><path d="M283 12h142.77734v2H283Zm0 0"/></clipPath></defs><g clip-path="url(#a)"><path fill="none" stroke="#000" stroke-miterlimit="10" stroke-width=".79586" d="M.5976 126.21094h424.59"/></g><path fill="none" stroke="#000" stroke-miterlimit="10" stroke-width=".79586" d="M142.125 137.53516V12.98824M85.5156 114.88671v22.64845"/><use xlink:href="#b" x="76.89955" y="157.45751"/><use xlink:href="#c" x="84.22152" y="157.45751"/><path fill="none" stroke="#000" stroke-miterlimit="10" stroke-width=".79586" d="M156.28125 114.88671v22.64845m0-22.64845v22.64845m0-22.64845v22.64845m0-22.64845v22.64845m0-22.64845v22.64845m0-22.64845v22.64845m28.3047-22.64845v22.64845"/><use xlink:href="#d" x="179.63078" y="157.67619"/><path fill="none" stroke="#000" stroke-miterlimit="10" stroke-width=".79586" d="M156.28125 114.88671v22.64845m0-22.64845v22.64845m0-22.64845v22.64845m0-22.64845v22.64845m0-22.64845v22.64845m127.37505-22.64845v22.64845"/><use xlink:href="#e" x="273.7464" y="157.67619"/><use xlink:href="#f" x="283.65494" y="157.67619"/><path fill="none" stroke="#000" stroke-miterlimit="10" stroke-width=".79586" d="M143.54297 97.90624h-2.83203"/><use xlink:href="#f" x="98.60433" y="104.15318"/><use xlink:href="#g" x="108.51287" y="104.15318"/><use xlink:href="#h" x="113.46713" y="104.15318"/><use xlink:href="#i" x="123.37567" y="104.15318"/><path fill="none" stroke="#000" stroke-miterlimit="10" stroke-width=".79586" d="M143.54297 41.29294h-2.83203"/><use xlink:href="#f" x="98.60433" y="47.54162"/><use xlink:href="#g" x="108.51287" y="47.54162"/><use xlink:href="#j" x="113.46713" y="47.54162"/><use xlink:href="#i" x="123.37567" y="47.54162"/><path fill="none" stroke="#000" stroke-miterlimit="10" stroke-width=".79586" d="M143.54297 12.98824h-2.83203"/><use xlink:href="#e" x="123.3757" y="19.34617"/><path fill="none" stroke="#000" stroke-miterlimit="10" stroke-width="1.19381" d="M.5976 126.21094h84.918m-2.83203-28.3047h101.89848m.0039-56.6133h99.06644"/><g clip-path="url(#k)"><path fill="none" stroke="#000" stroke-miterlimit="10" stroke-width="1.19381" d="M283.6563 12.98824h141.5274"/></g><use xlink:href="#l" x="78.78983" y="131.37503"/><use xlink:href="#l" x="276.92982" y="46.45717"/><use xlink:href="#l" x="177.86033" y="103.06874"/></svg>