<svg xmlns="http://www.w3.org/2000/svg" xmlns:xlink="http://www.w3.org/1999/xlink" width="311.811pt" height="283.464pt" viewBox="0 0 311.811 283.464"><defs><path id="c" d="M2.03125 0h6.14063v-.53125l-1.5625-.14062c-.40625-.04688-.625-.1875-.625-.92188v-11.01562l-.09375-.09375-3.85938.65625v.45312l1.75.21875c.3125.03125.4375.17188.4375.71875v9.0625c0 .35938-.04687.57813-.15625.71875-.10937.14063-.26562.17188-.46875.20313l-1.5625.14062Zm0 0"/><path id="d" d="M.5-.17187.70313 0H8.4375l.625-2.46875-.51562-.09375c-.39063 1.01563-.76563 1.15625-1.53125 1.15625H2.25c.29688-.98437 1.40625-2.3125 3.14063-3.5625 1.79687-1.3125 3.1875-2.15625 3.1875-4.23437 0-2.60938-1.73438-3.5-3.70313-3.5-2.5625 0-3.875 1.54687-3.875 2.51562 0 .64063.70313.9375 1.03125.9375.32813 0 .45313-.20312.53125-.51562.29688-1.28125 1.03125-2.28125 2.1875-2.28125 1.4375 0 1.85938 1.1875 1.85938 2.5625 0 2-1.01563 3.14062-2.65625 4.57812C1.65625-2.90625.85938-1.625.5-.17187m0 0"/><path id="f" d="M.60938-9.32812c0 1.625 1.64062 2.92187 5.375 2.92187C5.375-5.3125 4.90625-4.17187 4.90625-2.9375c0 2.04688 1.29688 3.15625 3.64063 3.15625 2.29687 0 4.6875-1.65625 4.6875-3.78125 0-1.26562-1.0625-1.96875-2.39063-1.96875-1.46875 0-3.20312 1.65625-3.20312 2.96875 0 .39063.29687 1.15625.85937 1.15625.15625 0 .375-.125.375-.29687 0-.25-.4375-.26563-.4375-.84375 0-.92188 1.32813-2.39063 2.40625-2.39063.75 0 1.20313.29688 1.20313 1.03125 0 1.65625-1.57813 3.53125-3.5 3.53125C7.20313-.375 6.5-1.10937 6.5-2.34375c0-1.39062.98438-3.03125 1.71875-4.21875 4.15625-.64062 8.23438-2.6875 8.23438-5.29687 0-.98438-.79688-1.64063-1.875-1.64063-2.46875 0-6.1875 3.15625-8.23438 6.4375-1.6875-.01562-4.4375-.0625-4.4375-2.04687 0-1.82813 2.23438-3.25 3.625-3.25.25 0 .39063-.15625.39063-.3125s-.14063-.28125-.29688-.28125c-2.07812 0-5.01562 1.42187-5.01562 3.625m7.98437 2.03125c1.375-2.40625 4.28125-5.60938 5.98438-5.60938.65625 0 1.10937.375 1.10937.98438 0 2.09375-3.28125 4-7.09375 4.625m0 0"/><path id="g" d="M.26563 0h3.1875v-.375c-.9375-.07812-.96875-.09375-.96875-.76562v-8.5l-.10938-.0625-2.04687.3125v.34375l.5.04687c.32812.03125.40625.10938.40625.60938v7.25c0 .67187-.01563.6875-.96875.76562Zm0 0"/><path id="h" d="M.42188 0h3.1875v-.375c-.9375-.07812-.98438-.09375-.98438-.76562v-3.0625c0-.32813.01563-.5.125-.71875.28125-.5.875-.9375 1.5625-.9375.89063 0 1.375.48437 1.375 1.625v3.09375c0 .67187-.03125.6875-.98437.76562V0h3.20312v-.375c-.9375-.07812-.98437-.09375-.98437-.76562v-3.34375C6.92188-5.8125 6.1875-6.57812 5-6.57812c-.96875 0-1.57812.48437-2.375 1.01562l-.1875-1.01562-1.95312.34375v.3125l.48437.07812c.34375.04688.4375.10938.4375.57813v4.125c0 .67187-.04687.6875-.98437.76562Zm0 0"/><path id="i" d="M.64063-3.15625c0 2.07813.89062 3.3125 3.01562 3.3125 1.45313 0 2.20313-.8125 2.54688-1.84375l-.39063-.20312c-.35937.76562-.85937 1.375-1.89062 1.375-1.625 0-1.9375-1.5625-1.92188-2.92188h3.78125c.28125 0 .51563-.07812.51563-.5 0-.76562-.25-2.64062-2.65625-2.64062-2.04688 0-3 1.45312-3 3.42187m1.375-.78125c0-.54687.20312-2.17187 1.5625-2.17187 1.21875 0 1.34375 1.23437 1.34375 1.75 0 .25-.07813.42187-.4375.42187Zm0 0"/><path id="j" d="M.01563 0h2.5v-.375l-.53125-.07812c-.1875-.01563-.1875-.17188-.10938-.3125.29688-.5625.71875-1.1875 1.15625-1.85938h.03125L4.23438-.8125c.14062.23438.09375.34375-.09375.35938L3.59375-.375V0h3.0625v-.375c-.59375-.03125-.79687-.07812-1.125-.54687-.60937-.85938-1.23437-1.76563-1.79687-2.6875.42187-.65625.92187-1.3125 1.4375-1.9375.34375-.40625.51562-.45313 1.15625-.48438v-.39062h-2.4375v.39062l.51562.04688c.20313.03125.17188.17187.07813.29687-.3125.51563-.65625 1.04688-1.04688 1.65625h-.01562L2.32813-5.67187C2.21875-5.8125 2.25-5.96875 2.45313-6l.39062-.03125v-.39062H.10938v.39062C.64063-6 .75-5.98437 1.07813-5.5625c.53125.76563 1.10937 1.625 1.67187 2.45313-.5.71875-1 1.45312-1.53125 2.15625C.875-.48437.57813-.42187.01563-.375Zm0 0"/><path id="k" d="M.32813 2.625V3h3.39062v-.375c-1.09375-.0625-1.1875-.09375-1.1875-.76562v-2c.28125.15625.90625.29687 1.5.29687 1.78125 0 3.28125-.8125 3.28125-3.51562 0-.92188-.17187-3.21875-2.54687-3.21875-.96875 0-1.71875.64062-2.23438.98437l-.17187-.98437-1.96875.34375v.3125l.5.07812c.32812.04688.42187.10938.42187.57813v7.125c0 .67187-.0625.70312-.98437.76562m2.20312-4.6875v-2.14062c0-.32813.07813-.5.1875-.73438.29688-.60937.84375-.92187 1.54688-.92187.53125 0 1.6875.32812 1.6875 2.59375 0 1.92187-.60938 2.95312-1.92188 2.95312-.67187 0-1.1875-.34375-1.40625-.9375-.07812-.23437-.09375-.5-.09375-.8125m0 0"/><path id="m" d="M.92188-4.51562c0 2.96875 1.26562 4.73437 4.3125 4.73437 2.0625 0 3.14062-1.15625 3.64062-2.625l-.5625-.29687C7.79688-1.60937 7.07813-.73437 5.60938-.73437c-2.32813 0-2.78125-2.23438-2.75-4.17188H8.25c.40625 0 .73438-.10937.73438-.71875 0-1.09375-.35938-3.76562-3.76563-3.76562-2.9375 0-4.29687 2.07812-4.29687 4.875M2.89063-5.625c0-.78125.26562-3.10937 2.21875-3.10937 1.73437 0 1.9375 1.76562 1.9375 2.51562 0 .34375-.125.59375-.64063.59375Zm0 0"/><clipPath id="a"><path d="M.19922 197h311.22265v2H.19923Zm0 0"/></clipPath><clipPath id="b"><path d="M112 0h2v282.92969h-2Zm0 0"/></clipPath><clipPath id="e"><path d="M104 131h207.42188v144H104Zm0 0"/></clipPath><clipPath id="l"><path d="M17 0h294.42188v282.92969H17Zm0 0"/></clipPath></defs><path fill="none" stroke="#000" stroke-miterlimit="10" stroke-width=".7955" d="M113.3711 198.05078h26.86328"/><path stroke="#000" stroke-linejoin="round" stroke-miterlimit="10" stroke-width=".7955" d="M141.26563 198.05078c-1.28907-.25781-2.58204-.77734-4.13282-1.67969 1.55078 1.16407 1.55078 2.19532 0 3.35938 1.55078-.90625 2.84375-1.42188 4.13282-1.67969Zm0 0"/><path fill="none" stroke="#000" stroke-miterlimit="10" stroke-width=".7955" d="M113.3711 198.05078V171.1875"/><path stroke="#000" stroke-linejoin="round" stroke-miterlimit="10" stroke-width=".7955" d="M113.3711 170.15625c-.25782 1.29297-.77344 2.58594-1.6797 4.13672 1.16407-1.55078 2.19922-1.55078 3.35938 0-.90234-1.55078-1.42187-2.84375-1.67969-4.13672Zm0 0"/><g clip-path="url(#a)"><path fill="none" stroke="#000" stroke-miterlimit="10" stroke-width=".7955" d="M.19918 198.05078h311.22666"/></g><g clip-path="url(#b)"><path fill="none" stroke="#000" stroke-miterlimit="10" stroke-width=".7955" d="M113.3711 282.92972V-.00398"/></g><path fill="none" stroke="#000" stroke-miterlimit="10" stroke-width=".7955" d="M141.66407 195.22266v5.65625"/><use xlink:href="#c" x="136.71279" y="221.01209"/><path fill="none" stroke="#000" stroke-miterlimit="10" stroke-width=".7955" d="M169.95705 195.22266v5.65625"/><use xlink:href="#d" x="165.00529" y="221.01209"/><path fill="none" stroke="#000" stroke-miterlimit="10" stroke-width=".7955" d="M141.66407 195.22266v5.65625m-25.46094-31.12111h-5.66016"/><use xlink:href="#c" x="93.21404" y="176.11099"/><g clip-path="url(#e)"><path fill="none" stroke="#000" stroke-miterlimit="10" stroke-width=".7955" d="m116.20313 263.16018 1.96875-15.07032 1.97265-9.58985 1.97266-7.22656 1.97266-5.75391 1.96875-4.77735 1.97265-4.08984 1.97266-3.57031 1.97266-3.16797 1.96875-2.84766 1.97266-2.58984 1.97265-2.3711 1.97266-2.1875 1.96875-2.03516 1.97266-1.89453 1.97265-1.77734 1.97266-1.66797 1.96875-1.57813 1.97266-1.4961 1.97265-1.41796 1.97266-1.35156 1.96875-1.28907 1.97266-1.23437 1.97266-1.1836 1.97265-1.13281 1.96875-1.09375 1.97266-1.04688 1.97266-1.01562 1.97265-.98047 1.96876-.94531 1.97265-.91407 1.97266-.88672 1.97266-.85937 1.96875-.83203 1.97265-.8086 1.97266-.78906 1.96875-.76562 1.97266-.7461 1.97265-.72656 1.97266-.70703 1.96875-.6914 1.97266-.67579 1.97266-.65625 1.97265-.64844 1.96875-.6289 1.97266-.61329 1.97266-.60156 1.97265-.58984 1.96876-.57813 1.97265-.57031 1.97266-.55469 1.97266-.54297 1.96875-.53515 3.94531-1.03907 1.97266-.5039 1.96875-.5039 1.97265-.48438 1.97266-.48047 1.97266-.47266 1.96875-.46484 1.97266-.45703 1.97265-.44922 1.97266-.44141 1.96875-.4375 1.97266-.42969 1.97265-.42187 1.97266-.41797 1.96875-.41016 3.94532-.80469 1.97265-.39062 1.96875-.38672 1.97266-.38281 1.97266-.3789 1.97265-.3711 1.96875-.3711 3.94532-.71875 1.97266-.35547 1.96875-.34765 1.97265-.34766 1.97266-.33984 1.97266-.33594 1.96875-.33203 1.97265-.33203 1.97266-.32422 1.97266-.32031 1.96875-.32032 3.94531-.625 1.97266-.3086 1.96875-.30468 1.97266-.30078 3.94531-.59375 1.96875-.28906 1.97266-.28906 3.94531-.57032"/></g><use xlink:href="#f" x="273.79858" y="131.20291"/><use xlink:href="#g" x="291.04197" y="135.57863"/><use xlink:href="#h" x="294.68937" y="135.57863"/><path fill="none" stroke="#000" stroke-miterlimit="10" stroke-width=".7955" d="m28.49216 196.64453 1.36719-.07031 1.36328-.07422 2.73438-.15625 1.36328-.08594 1.36719-.08984 1.36718-.09375 1.36328-.09375 1.3672-.10156 1.36718-.10938 1.36719-.11328 1.36328-.11719 1.36719-.125 1.36719-.1289 1.36328-.14063 1.36719-.14062 1.36718-.15235 1.36328-.16015 1.3672-.16407 1.36718-.17578 1.36328-.1836 1.3672-.1914 1.36718-.19922 1.36328-.21484 1.36719-.21875 1.36719-.23438 1.36718-.24609 1.36329-.25781 1.36718-.26563 1.3672-.28515 1.36327-.29297 1.3672-.3125 1.36718-.32813 1.36328-.34375 1.36719-.35937 1.36719-.37891 1.36328-.39453 1.36719-.41406 1.36718-.4375 1.36329-.45703 1.36718-.48047 1.3672-.50391 1.36718-.53125 1.36328-.55469 1.36719-.58203 1.36719-.61328 1.36328-.64063 1.36719-.67578 1.36719-.70703 1.36328-.74219 1.36718-.77734 1.3672-.8164 1.36327-.85938 1.3672-.89844 1.36718-.94531 1.36328-.9922 1.36719-1.03905 1.36719-1.09375 1.36719-1.14844 1.36328-1.20313 1.36719-1.26172 1.36718-1.32422 1.36328-1.38672 1.3672-1.46093 1.36718-1.53125 1.36328-1.60547 1.36719-1.6875 1.36719-1.76954 1.36328-1.85546 1.36719-1.94922 1.36719-2.04688 1.36328-2.14453 1.36719-2.2539 1.36718-2.3633 1.3672-2.48046 1.36327-2.60547 1.3672-2.73047 1.36718-2.86719 1.36328-3.01172 1.36719-3.16015 1.36719-3.3125 1.36328-3.47657 1.36719-3.65234 1.36718-3.83204 1.36329-4.01953 1.36718-4.21875 1.3672-4.42969 1.36327-4.64844 1.3672-4.875 1.36718-5.1211 1.36719-5.3711 1.36328-5.63671 1.36719-5.91797 1.36718-6.20704 1.36329-6.51953 1.36718-6.83594 1.3672-7.17578 1.36327-7.53126 1.3672-7.90625"/><use xlink:href="#f" x="116.84037" y="15.54461"/><use xlink:href="#i" x="134.08376" y="19.92033"/><use xlink:href="#j" x="140.80779" y="19.92033"/><use xlink:href="#k" x="147.15593" y="19.92033"/><g clip-path="url(#l)"><path fill="none" stroke="#000" stroke-dasharray="2.9831811113000004 2.9831811113000004" stroke-miterlimit="10" stroke-width=".7955" d="m28.49216 282.92972 5.71485-5.71485 2.85937-2.85547 2.85547-2.85938 2.85938-2.85547 2.85547-2.85937 25.71875-25.71876 2.85938-2.85547 2.85547-2.85938 2.85938-2.85547 2.85547-2.85937 25.71875-25.71876 2.85938-2.85547 2.85547-2.85937 2.85938-2.85547 2.85547-2.85938 31.4336-31.4336 2.85938-2.85547 2.85547-2.85938 2.85937-2.85547 2.85547-2.85938 25.71876-25.71875 2.85937-2.85547 2.85547-2.85938 2.85938-2.85547 2.85547-2.85938 25.71876-25.71875 2.85937-2.85547 2.85547-2.85938 2.85938-2.85547 2.85547-2.85937 31.4336-31.4336 2.85938-2.85548 2.85547-2.85937 31.4336-31.4336 2.85938-2.85548L311.39069.0312"/></g><path fill="none" stroke="#000" stroke-dasharray="2.9831811113000004 2.9831811113000004" stroke-miterlimit="10" stroke-width=".7955" d="M189.76565 198.05078V169.7578m0 0h-76.39456"/><use xlink:href="#m" x="184.95956" y="213.95144"/><use xlink:href="#m" x="97.25141" y="126.24329"/><path fill="none" stroke="#000" stroke-dasharray="2.9831811113000004 2.9831811113000004" stroke-miterlimit="10" stroke-width=".7955" d="M113.3711 121.66013h28.29297m0 0v76.39065"/></svg>