<svg xmlns="http://www.w3.org/2000/svg" xmlns:xlink="http://www.w3.org/1999/xlink" width="620.036pt" height="295.464pt" viewBox="0 0 620.036 295.464"><defs><path id="a" d="M.59375-.73437c0 .53125.4375.95312 1.20313.95312 1.26562 0 1.98437-1.26562 2.76562-2.53125l.75-1.23437h.03125L5.6875-2.0625C6.04688-.57812 6.39063.21875 7.34375.21875c1.375 0 2.07813-1.40625 2.64063-2.54687l-.48438-.25C9.04688-1.75 8.53125-.75 8.01563-.75c-.35938 0-.5-.42187-.92188-2.09375L6.5-5.29687c.6875-1.1875 1.64063-2.67188 2.17188-2.67188.5625 0 .57812.29688 1.14062.29688.40625 0 .79688-.40625.79688-.90625 0-.57813-.4375-.8125-.96875-.8125-.98438 0-1.82813.89062-2.48438 1.95312l-.8125 1.26563H6.3125L5.54688-9.3125l-.09375-.07812-3.09375.9375L2.40625-8 3.875-8.09375c.29688 0 .4375.14063.625.9375l.65625 2.70313-.51562.89062c-.79688 1.375-1.5 2.34375-1.95313 2.34375-.54687 0-.67187-.45312-1.28125-.45312-.46875 0-.8125.48437-.8125.9375m0 0"/><path id="b" d="M0 3.5c0 .5.5625 1.01563 1.375 1.01563 1.59375 0 2.26563-1.17188 3.92188-4.01563.375-.64062 1.5-2.60937 2.65625-4.51562 1.07812-1.75 2.25-3.5625 2.25-4.3125 0-.65625-.20313-1.0625-.34375-1.0625-.35938 0-.98438.15625-1.46875.48437 0 0-.0625 1.90625-.23438 2.5625-.29687 1.04688-1.39062 3.07813-2.625 5.20313h-.0625c-.14062-2.85938-.5-6.79688-.75-8.17188l-.14062-.07812L1.4375-8.5l.04688.48438 1.29687-.04688c.375 0 .45313.32813.625 1.28125.1875 1.45313.60938 5.04688.60938 6.54688 0 .54687-.01563 1.3125-.4375 2.29687-.34375.78125-.8125 1.34375-1.1875 1.34375-.6875 0-.76563-1.04687-1.4375-1.04687C.48438 2.35938 0 2.96875 0 3.5m0 0"/><path id="c" d="M.96875-5.125c0 2.45313 1.21875 5.40625 5.85938 5.40625C8.15625.28125 9.42188.09375 10.625-.5l.90625-2.98437h-.54687C9.9375-1.60937 9.01563-.375 6.70313-.375c-2.17188 0-3.71875-1.39062-3.71875-4.28125 0-1.6875.4375-3.75 1.32812-5.25.9375-1.57812 2.40625-2.67187 4.42188-2.67187 2.35937 0 3.04687 1.09375 3.04687 3.15625h.57813l.67187-2.8125c-1.07812-.67188-2.82812-1-4.14062-1-3.51563 0-5.54688 1.65625-6.64063 3.40625C1.21875-8.15625.96875-6.42187.96875-5.125m0 0"/><path id="k" d="M-.35937 0h4.21875l.125-.53125L2.9375-.64062c-.23437-.01563-.32812-.14063-.32812-.3125 0-.09376.03125-.23438.09375-.375C3.32813-2.53125 3.92188-3.73437 4.60938-5H8.8125l.45313 3.85938s-.09375.46875-.5.5l-.98438.10937L7.67188 0h4.59375l.125-.53125-.71875-.0625c-.57813-.0625-.65625-.32812-.75-1.09375l-1.375-11.23437H8.21875l-3.14062 5.5C4.125-5.75 2.5625-2.96875 1.875-1.84375 1.26563-.875.95313-.67187.375-.60937l-.60937.07812ZM5-5.70312l3.03125-5.5.6875 5.5Zm0 0"/><path id="l" d="M1.3125-2.01562c0 1.125.51563 2.23437 1.79688 2.23437 2 0 3.73437-2.3125 4.82812-4.21875h.03125l-.625 2.125c-.125.42188-.20312.78125-.20312 1.07813 0 .65625.3125 1.01562 1.01562 1.01562 1.40625 0 2.46875-1.26562 3.10938-2.6875l-.4375-.25C10.48438-2.0625 9.64063-.75 9.125-.75c-.21875 0-.29687-.14062-.29687-.35937 0-.1875.0625-.40625.125-.65625l1.96875-7.46875H9.34375l-.07812.25c-.3125-.21875-.875-.40625-1.375-.40625-4.45313 0-6.57813 4.92187-6.57813 7.375m1.84375-.03125c0-2.04688 1.84375-6.6875 4.78125-6.6875.45313 0 .85938.15625 1.125.42187-.32812 1.39063-.98437 3.23438-1.98437 4.73438C6.03125-1.98437 4.875-.75 3.98438-.75c-.625 0-.82813-.5625-.82813-1.29687m0 0"/><path id="m" d="M-.39062 3.4375c.01562.625.82812 1.07813 1.70312 1.07813C3.1875 4.51563 3.98438 3 4.75-.57812l1.73438-7.875h2.35937l.1875-.71875H6.60938l.51562-2.10938c.35938-1.40625.71875-1.95312 1.23438-1.95312.48437 0 .82812.42187 1.25 1.3125.09375.1875.23437.32812.51562.32812.375 0 .92188-.34375.92188-.8125 0-.79687-1.01563-1.45312-2.14063-1.45312-2.20312 0-3.125 1.54687-3.82812 4.01562l-.20313.67188H3.26563l-.21875.71875h1.67187L2.54688 2.5625c-.21875 1.15625-.42188 1.28125-.59375 1.28125-.20313 0-.5-.14062-1-.92187C.8125 2.75.70313 2.5.45313 2.5c-.40625 0-.84375.46875-.84375.9375m0 0"/><path id="n" d="M1.60938-5.26562c0 4.21875.95312 8.84375 4.92187 9V3.1875C5.1875 2.92188 3.10938 1.26563 3.10938-5.26562c0-6.51563 1.98437-8.15625 3.42187-8.45313v-.5625C2.5625-14.125 1.60938-9.48437 1.60938-5.26562m0 0"/><path id="o" d="M1.10938 3.1875v.54688c3.96875-.15625 4.92187-4.78125 4.92187-9s-.95312-8.85938-4.92187-9.01563v.5625c1.4375.29688 3.42187 1.9375 3.42187 8.45313 0 6.53125-2.07812 8.1875-3.42187 8.45312m0 0"/><path id="p" d="M.8125 0h11.79688l-5.3125-12.96875H5.90625Zm1.15625-1.01562 4.01563-10.21875 4.23437 10.21875Zm0 0"/><path id="d" d="M-.28125 2.35938c.01563.45312.57813.79687 1.28125.79687 1.35938 0 2-1.07812 2.53125-3.54687L4.76563-5.875h1.64062l.14063-.54687H4.84375L5.23438-8C5.45313-8.875 5.6875-9.21875 6-9.21875s.53125.25.82813.92188c.09375.14062.20312.26562.42187.26562.3125 0 .71875-.26562.71875-.625 0-.57812-.73437-1.04687-1.59375-1.04687-1.64062 0-2.3125 1.1875-2.78125 2.85937l-.125.42188h-1.125l-.17187.54687h1.17187L1.8125 1.89063c-.125.67187-.25.76562-.375.76562-.14062 0-.35937-.125-.6875-.67187-.09375-.125-.1875-.3125-.39062-.3125-.3125 0-.64063.32812-.64063.6875m0 0"/><path id="q" d="M.57813-.1875C.57813-.125.73437 0 .92188 0c.10937 0 .3125-.03125.34375-.10937l2.34375-5.98438c.07812-.20312.09375-.3125.09375-.35937 0-.28125-.4375-.39063-.82813-.39063-.39062 0-1.01562.14063-1.0625.39063Zm0 0"/><path id="e" d="M.57813-8.40625h1.34375v6.5C1.92188 0 3.34375.21875 4 .21875c.95313 0 1.84375-.48437 2.39063-.8125L6.25-1c-.46875.1875-.85937.25-1.34375.25-.625 0-1.21875-.46875-1.21875-1.875v-5.78125h2.40625v-.76562H3.6875v-2.34375h-.54687l-1.125 2.34375H.57813Zm0 0"/><path id="f" d="M.92188-2.42187c0 1.39062.92187 2.64062 2.67187 2.64062C4.6875.21875 5.78125-.5 6.39063-.89062c.25.6875.57812 1.10937 1.23437 1.10937.6875 0 1.48438-.20312 2.20313-.5625l-.125-.4375c-.25.0625-.67188.07813-.95313 0-.34375-.07812-.65625-.40625-.65625-1.57812v-4.54688c0-1.09375-.23437-2.48437-3.0625-2.48437-2.10937 0-3.78125 1.09375-3.78125 2.125 0 .60937.70313.875 1.0625.875.39063 0 .48438-.1875.59375-.51563.42188-1.39062 1.17188-1.82812 1.92188-1.82812.73437 0 1.57812.375 1.57812 1.875v.76562c-.48437.48438-2.28125.96875-3.76562 1.4375C1.29688-4.23437.92188-3.29687.92188-2.42187m1.875-.26563c0-.875.40625-1.32812 1.45312-1.73437.76563-.26563 1.73438-.625 2.15625-.89063v2.64063c0 1.51562-1.15625 1.89062-1.89062 1.89062-1.15625 0-1.71875-.8125-1.71875-1.90625m0 0"/><path id="g" d="M.59375 0h4.5625v-.53125C3.8125-.64062 3.76563-.67187 3.76563-1.625V-6c0-.48437.01562-.71875.17187-1.01562C4.34375-7.75 5.17188-8.375 6.17188-8.375c1.26562 0 1.96875.70313 1.96875 2.32813V-1.625c0 .95313-.0625.98438-1.42188 1.09375V0h4.57813v-.53125C9.96875-.64062 9.89063-.67187 9.89063-1.625v-4.78125c0-1.89062-1.04688-2.98437-2.75-2.98437-1.39063 0-2.25.67187-3.40625 1.4375l-.25-1.4375-2.78125.48437v.45313l.6875.09375c.48437.07812.625.17187.625.84375V-1.625c0 .95313-.0625.98438-1.42188 1.09375Zm0 0"/><path id="h" d="M.78125 1.79688c0 1.89062 1.89063 2.71875 4.04688 2.71875 1.125 0 2.29687-.21875 3.1875-.75C8.875 3.23438 9.5 2.34375 9.5 1.1875c0-2.01562-1.60937-2.71875-3.60937-2.71875h-1.5c-1.34375 0-1.54688-.45312-1.54688-.8125 0-.54687.71875-.84375.95313-.92187.35937.04687.76562.0625.95312.0625 1.78125 0 3.78125-.78125 3.78125-3.04688 0-.76562-.25-1.42187-.57812-1.75l1.5-.23437.375-1.17188-.15625-.15625-2.39063.75c-.51562-.35937-1.57812-.57812-2.42187-.57812C1.98438-9.39062 1-7.64062 1-6.25 1-4.5 2.14063-3.6875 3-3.46875v.04688c-1.01562.40625-1.70312.9375-1.70312 1.67187 0 .65625.75 1.35938 1.64062 1.45313v.03125C2.14063 0 .78125.4375.78125 1.79688m1.78125-.09376c0-.625.1875-1.10937.57813-1.40624.42187-.3125 1.03125-.4375 1.9375-.4375 1.64062 0 2.85937.42187 2.85937 1.8125C7.9375 3.15625 6.57813 3.875 5.25 3.875c-1.59375 0-2.6875-.8125-2.6875-2.17187M2.90625-6.25c0-1.84375.95313-2.48437 1.95313-2.48437.90625 0 1.85937.67187 1.85937 2.48437 0 1.57813-.79687 2.39063-1.89062 2.39063-1.04688 0-1.92188-.8125-1.92188-2.39063m0 0"/><path id="i" d="M.92188-4.51562c0 2.96875 1.26562 4.73437 4.3125 4.73437 2.0625 0 3.14062-1.15625 3.64062-2.625l-.5625-.29687C7.79688-1.60937 7.07813-.73437 5.60938-.73437c-2.32813 0-2.78125-2.23438-2.75-4.17188H8.25c.40625 0 .73438-.10937.73438-.71875 0-1.09375-.35938-3.76562-3.76563-3.76562-2.9375 0-4.29687 2.07812-4.29687 4.875M2.89063-5.625c0-.78125.26562-3.10937 2.21875-3.10937 1.73437 0 1.9375 1.76562 1.9375 2.51562 0 .34375-.125.59375-.64063.59375Zm0 0"/><path id="j" d="M2.0625-12.70312c0 .39062.5.70312 1.0625 1L5.95313-10.125l.26562-.375L4-12.75c-.5625-.57812-.875-.78125-1.20312-.78125-.26563 0-.73438.4375-.73438.82813M.92188-2.42187c0 1.39062.92187 2.64062 2.67187 2.64062C4.6875.21875 5.78125-.5 6.39063-.89062c.25.6875.57812 1.10937 1.23437 1.10937.6875 0 1.48438-.20312 2.20313-.5625l-.125-.4375c-.25.0625-.67188.07813-.95313 0-.34375-.07812-.65625-.40625-.65625-1.57812v-4.54688c0-1.09375-.23437-2.48437-3.0625-2.48437-2.10937 0-3.78125 1.09375-3.78125 2.125 0 .60937.70313.875 1.0625.875.39063 0 .48438-.1875.59375-.51563.42188-1.39062 1.17188-1.82812 1.92188-1.82812.73437 0 1.57812.375 1.57812 1.875v.76562c-.48437.48438-2.28125.96875-3.76562 1.4375C1.29688-4.23437.92188-3.29687.92188-2.42187m1.875-.26563c0-.875.40625-1.32812 1.45312-1.73437.76563-.26563 1.73438-.625 2.15625-.89063v2.64063c0 1.51562-1.15625 1.89062-1.89062 1.89062-1.15625 0-1.71875-.8125-1.71875-1.90625m0 0"/></defs><path fill="none" stroke="#000" stroke-miterlimit="10" stroke-width=".39778" d="M24.87892 257.51953h452.33194"/><path fill="none" stroke="#000" stroke-linecap="round" stroke-linejoin="round" stroke-miterlimit="10" stroke-width=".39778" d="M475.33984 255.13281c.37891 1.42969 1.22266 2.10938 2.07032 2.38672-.84766.27734-1.69141.95313-2.07032 2.38672"/><path fill="none" stroke="#000" stroke-miterlimit="10" stroke-width=".39778" d="M81.47266 285.8125V31.55472"/><path fill="none" stroke="#000" stroke-linecap="round" stroke-linejoin="round" stroke-miterlimit="10" stroke-width=".39778" d="M79.08594 33.42187c1.42969-.3789 2.10547-1.21874 2.38672-2.0664.27734.84766.95312 1.6875 2.38671 2.0664"/><use xlink:href="#a" x="460.58685" y="282.42266"/><use xlink:href="#b" x="46.11075" y="33.59506"/><path fill="none" stroke="red" stroke-miterlimit="10" stroke-width=".79557" d="M92.78906 178.00783s2.8086 1.25 3.88672 1.71484c1.07812.46875 2.8086 1.20313 3.88672 1.65234 1.07812.44532 2.80859 1.15235 3.88671 1.58204 1.07813.42968 2.8086 1.10156 3.88672 1.51171 1.07813.41407 2.8086 1.0586 3.88672 1.44922 1.07812.39453 2.8086 1.00781 3.88672 1.38281s2.8086.96094 3.88672 1.31641 2.80859.91016 3.88671 1.2461c1.07813.33984 2.8086.86328 3.88672 1.18359 1.07813.32031 2.8086.8164 3.88672 1.11328 1.07813.30078 2.8086.76953 3.88672 1.05078s2.8086.71875 3.88672.98047 2.80859.67187 3.88671.91406c1.07813.2461 2.8086.625 3.88672.84766 1.07813.22656 2.8086.57421 3.88672.78125 1.07813.21093 2.8086.52734 3.88672.71484 1.07812.1914 2.8086.48047 3.88672.64844 1.07812.17187 2.80859.42968 3.88671.58203 1.07813.15234 2.8086.38281 3.88672.51562 1.07813.13282 2.8086.33203 3.88672.44532 1.07813.11718 2.8086.28515 3.88672.3828 1.07812.09766 2.8086.23438 3.88672.3125 1.07812.07813 2.80859.1875 3.88671.25 1.07813.0586 2.8086.14063 3.88672.1797 1.07813.03906 2.8086.08984 3.88672.11328 1.07813.02343 2.8086.04297 3.88672.04687s2.8086-.0039 3.88672-.01953 2.80859-.05078 3.88671-.08594c1.07813-.03125 2.8086-.10156 3.88672-.15234 1.07813-.05078 2.8086-.14844 3.88672-.21875 1.07813-.07031 2.8086-.19922 3.88672-.28906 1.07812-.08594 2.8086-.2461 3.88672-.35157s2.80859-.29296 3.88671-.41796c1.07813-.12891 2.8047-.34375 3.88672-.48828 1.07813-.14454 2.80469-.39063 3.88672-.5547 1.07813-.16015 2.80469-.4375 3.88672-.61718 1.07812-.1836 2.80469-.48828 3.88672-.6875 1.07812-.19922 2.80468-.53516 3.88671-.7539 1.07813-.21876 2.8047-.58204 3.88672-.82032 1.07813-.23828 2.80469-.63281 3.88672-.88672 1.07813-.25781 2.80469-.67968 3.88281-.95312 1.08203-.27344 2.8086-.73047 3.88672-1.01953 1.08203-.29297 2.8086-.77735 3.88672-1.08985 1.08203-.3086 2.8086-.82422 3.88672-1.15234 1.08203-.33203 2.80859-.875 3.88671-1.22266 1.08204-.34765 2.8086-.91796 3.88672-1.28515 1.07813-.36719 2.8086-.96875 3.88672-1.35547 1.07813-.38281 2.8086-1.01563 3.88672-1.42187 1.07812-.40235 2.8086-1.0625 3.88672-1.48438 1.07812-.42187 2.80859-1.11719 3.88672-1.55469 1.07812-.4414 2.80859-1.16406 3.88671-1.62109 1.07813-.46094 2.8086-1.21094 3.88672-1.6875 1.07813-.48047 2.8086-1.26172 3.88672-1.75781s2.8086-1.30469 3.88672-1.82031 2.80859-1.35547 3.88672-1.88672c1.07812-.53516 2.80859-1.40235 3.88671-1.95703 1.07813-.55078 2.8086-1.44922 3.88672-2.01954 1.07813-.5703 2.8086-1.5 3.88672-2.08984 1.07812-.58594 2.8086-1.54687 3.88672-2.15234 1.07812-.60938 2.80859-1.59766 3.88671-2.22266 1.07813-.625 2.8086-1.64453 3.88672-2.28906 1.07813-.64453 2.8086-1.6914 3.88672-2.35547 1.07813-.66015 2.8086-1.73828 3.88672-2.42187 1.07812-.67969 2.8086-1.78906 3.88672-2.48828s2.80859-1.83594 3.88671-2.55469c1.07813-.71875 2.8086-1.88672 3.88672-2.6211 1.07813-.73827 2.8086-1.93359 3.88672-2.6914 1.07813-.7539 2.8086-1.98047 3.88672-2.7539 1.07812-.77344 2.8086-2.03125 3.88672-2.82422 1.07812-.78906 2.80859-2.07813 3.88671-2.88672 1.07813-.8125 2.8086-2.125 3.88672-2.95703 1.07813-.82813 2.8086-2.17188 3.88672-3.01953 1.07813-.85156 2.8086-2.22656 3.88672-3.08985 1.07812-.86718 2.8086-2.27343 3.88672-3.15624 1.07812-.88672 2.8086-2.32032 3.88671-3.22266 1.07813-.90625 2.8086-2.36719 3.88672-3.28906 1.07813-.92188 2.8086-2.41797 3.88672-3.35938 1.07813-.9375 2.8086-2.46093 3.88672-3.42187 1.07812-.95703 2.8086-2.51172 3.88672-3.48828s2.8086-2.5625 3.88671-3.5586c1.07813-.99609 2.8086-2.60546 3.88672-3.62109 1.07813-1.01562 2.8086-2.65625 3.88672-3.6914 1.07813-1.03125 2.8086-2.70313 3.88672-3.7539 1.07812-1.0547 2.8086-2.75391 3.88672-3.82423 1.07812-1.07031 2.8086-2.80078 3.88672-3.89062s2.80859-2.84766 3.88671-3.95703c1.07813-1.10547 2.8086-2.89844 3.88672-4.02344 1.07813-1.125 2.8086-2.94531 3.88672-4.08984s2.8086-2.99219 3.88672-4.15625 2.8086-3.04297 3.88672-4.22266c1.07812-1.18359 2.80859-3.09375 3.88671-4.29296 1.07813-1.19922 2.8086-3.13672 3.88672-4.35547 1.07813-1.21875 2.8086-3.1875 3.88672-4.42578 1.07812-1.23438 2.8086-3.23438 3.88672-4.48828 1.07812-1.25781 2.80859-3.28516 3.88672-4.5586 1.07812-1.27343 2.80468-3.33203 3.88671-4.625 1.07813-1.29296 2.80469-3.3789 3.88672-4.6914 1.07813-1.3086 2.80469-3.42578 3.88672-4.7539 1.07812-1.33204 3.88672-4.82813 3.88672-4.82813"/><use xlink:href="#c" x="495.31984" y="19.85598"/><use xlink:href="#d" x="507.33405" y="24.23204"/><path fill="none" stroke="#00F" stroke-miterlimit="10" stroke-width=".79557" d="m138.06249 222.14844 6.92969-1.73046 6.92968-1.73438 6.92578-1.73047 6.92969-1.73047 6.92968-1.73437 6.92969-1.73047 6.92578-1.73437 6.92969-1.73047 6.92968-1.73438 6.92969-1.73047 6.92968-1.73437 6.92579-1.73047 6.92968-1.73047 6.92969-1.73437 6.92968-1.73047 6.92578-1.73437 6.92969-1.73047 6.92969-1.73438 6.92968-1.73047 6.92578-1.73437 13.85937-3.46094 6.9297-1.73437 6.92968-1.73047 6.92578-1.73437 6.92968-1.73047 6.92969-1.73438 6.92969-1.73047 6.92578-1.73437 13.85937-3.46094 6.92968-1.73437 6.92969-1.73047 6.92578-1.73438 6.92969-1.73046 6.92968-1.73438 6.92969-1.73047 6.92578-1.73437 13.85937-3.46094 6.92969-1.73437 6.92578-1.73047 6.92968-1.73438 6.92969-1.73047 6.92969-1.73437 6.92968-1.73047 6.92578-1.73437 13.85937-3.46094"/><use xlink:href="#e" x="456.02213" y="140.25956"/><use xlink:href="#f" x="462.44635" y="140.25956"/><use xlink:href="#g" x="472.21194" y="140.25956"/><use xlink:href="#h" x="483.76757" y="140.25956"/><use xlink:href="#i" x="493.4735" y="140.25956"/><use xlink:href="#g" x="503.07998" y="140.25956"/><use xlink:href="#e" x="514.6356" y="140.25956"/><use xlink:href="#i" x="521.05982" y="140.25956"/><use xlink:href="#j" x="534.86292" y="140.25956"/><use xlink:href="#c" x="548.82378" y="140.25956"/><use xlink:href="#d" x="560.83799" y="144.63362"/><use xlink:href="#i" x="574.17779" y="140.25956"/><use xlink:href="#g" x="583.78427" y="140.25956"/><use xlink:href="#k" x="599.53579" y="140.25956"/><path d="M255.77344 193.85547c0-1.25-2.02735-2.26563-4.52735-2.26563-2.5039 0-4.52734 1.01563-4.52734 2.26563s2.02344 2.26172 4.52734 2.26172c2.5 0 4.52735-1.01172 4.52735-2.26172m0 0"/><use xlink:href="#k" x="246.95141" y="174.09518"/><path fill="none" stroke="#000" stroke-dasharray="2.9834202177 2.9834202177" stroke-miterlimit="10" stroke-width=".39778" d="M251.24606 193.85548v63.66405m0-63.66405H81.47266"/><use xlink:href="#l" x="245.4142" y="288.08139"/><use xlink:href="#m" x="6.70923" y="198.73747"/><use xlink:href="#n" x="18.38419" y="198.73747"/><use xlink:href="#l" x="26.02164" y="198.73747"/><use xlink:href="#o" x="38.51206" y="198.73747"/><path fill="none" stroke="#000" stroke-dasharray="2.9834202177 2.9834202177" stroke-miterlimit="10" stroke-width=".39778" d="M251.24606 193.85548h169.37497"/><path fill="none" stroke="#000" stroke-linecap="round" stroke-linejoin="round" stroke-miterlimit="10" stroke-width=".39778" d="M418.75 191.46875c.3789 1.42969 1.21875 2.10547 2.07031 2.38672-.85156.27734-1.6914.95312-2.07031 2.38672"/><use xlink:href="#p" x="323.76606" y="223.75309"/><use xlink:href="#a" x="337.09182" y="223.75309"/><path fill="none" stroke="#000" stroke-dasharray="2.9834202177 2.9834202177" stroke-miterlimit="10" stroke-width=".39778" d="M421.01556 193.85548v-42.04687"/><path fill="none" stroke="#000" stroke-linecap="round" stroke-linejoin="round" stroke-miterlimit="10" stroke-width=".39778" d="M418.6289 153.67969c1.4336-.3789 2.10938-1.22266 2.38673-2.07032.28125.84766.95703 1.69141 2.38671 2.07032"/><use xlink:href="#m" x="456.33457" y="177.77949"/><use xlink:href="#q" x="468.00939" y="169.82392"/><use xlink:href="#n" x="473.06023" y="177.77949"/><use xlink:href="#l" x="480.69768" y="177.77949"/><use xlink:href="#o" x="493.18809" y="177.77949"/><path fill="#00F" d="M424.41406 151.41016c0-.9375-1.52344-1.69532-3.39844-1.69532s-3.39453.75782-3.39453 1.69532 1.51954 1.69922 3.39454 1.69922 3.39843-.76172 3.39843-1.69922m0 0"/></svg>