<svg xmlns="http://www.w3.org/2000/svg" xmlns:xlink="http://www.w3.org/1999/xlink" width="255.516pt" height="170.477pt" viewBox="0 0 255.516 170.477"><defs><path id="a" d="M.59375-.73437c0 .53125.4375.95312 1.1875.95312 1.28125 0 1.98438-1.26562 2.76563-2.51562l.75-1.23438h.04687L5.6875-2.0625C6.03125-.57812 6.375.21875 7.32813.21875c1.375 0 2.07812-1.40625 2.64062-2.54687l-.46875-.25C9.03125-1.75 8.51563-.75 8-.75c-.35937 0-.5-.42187-.90625-2.09375L6.5-5.28125c.67188-1.1875 1.625-2.6875 2.15625-2.6875.5625 0 .57813.29688 1.14063.29688.40625 0 .78125-.39063.78125-.89063 0-.57812-.4375-.8125-.95313-.8125-.98437 0-1.8125.89063-2.46875 1.95313l-.82812 1.26562h-.03125l-.75-3.14062L5.4375-9.375l-3.07812.9375.04687.45313L3.875-8.07812c.29688 0 .4375.14062.60938.92187l.65625 2.70313-.51563.89062c-.79687 1.375-1.48437 2.34375-1.9375 2.34375-.54687 0-.6875-.45312-1.28125-.45312-.46875 0-.8125.48437-.8125.9375m0 0"/><path id="b" d="M-.39062 3.4375C-.375 4.04688.4375 4.51563 1.3125 4.51563 3.17188 4.51563 3.96875 3 4.75-.57812L6.46875-8.4375h2.375l.17188-.71875H6.59375l.51563-2.10937c.35937-1.40625.71875-1.9375 1.23437-1.9375.5 0 .82813.40625 1.25 1.3125.09375.17187.23438.3125.51563.3125.375 0 .90625-.34375.90625-.8125 0-.79688-1-1.45313-2.125-1.45313-2.20313 0-3.10938 1.54688-3.82813 4.01563l-.20312.67187H3.25l-.21875.71875h1.67188l-2.15625 11c-.21875 1.15625-.42188 1.26563-.59375 1.26563-.20313 0-.5-.14063-1-.90625C.8125 2.73438.6875 2.5.45313 2.5c-.40625 0-.84375.45313-.84375.9375m0 0"/><path id="d" d="M1.60938-5.26562c0 4.21875.95312 8.84375 4.90625 9v-.5625c-1.32813-.25-3.42188-1.90625-3.42188-8.4375 0-6.48438 1.98438-8.14063 3.42188-8.4375v-.5625c-3.95313.17187-4.90625 4.79687-4.90625 9m0 0"/><path id="e" d="M1.10938 3.17188v.5625c3.95312-.15625 4.90625-4.78125 4.90625-9 0-4.20313-.95313-8.82813-4.90625-9v.5625c1.4375.29687 3.42187 1.95312 3.42187 8.4375 0 6.53125-2.09375 8.1875-3.42187 8.4375m0 0"/><path id="k" d="M1.59375-4.71875h10.26563V-5.8125H1.59375Zm0 0"/><path id="l" d="M.29688-3.95312C.29688-1.73437 2.5.20313 4.5625.20313c2.625 0 4.29688-2.625 4.60938-3.14063.35937.67188 2.17187 3.15625 5.0625 3.15625 3.45312 0 4.45312-2.625 4.45312-4.82812 0-2.21875-2.07812-3.98438-4.15625-3.98438-2.48437 0-3.82812 1.78125-4.625 2.875-.73437-1.1875-2.35937-2.84375-4.9375-2.84375-3.40625 0-4.67187 2.40625-4.67187 4.60938m1.17187.0625c0-1.875 1.3125-3.34375 2.875-3.34375 1.875 0 3.4375 1.96875 4.3125 3.35937C7.9375-2.60937 6.60938-.65625 4.51563-.65625c-1.35938 0-3.04688-1.54687-3.04688-3.23437m8.98438-1c.70312-1.26563 2.0625-2.82813 4.15625-2.82813 1.35937 0 2.98437 1.34375 2.98437 3.03125 0 1.89063-1.01562 3.60938-2.8125 3.60938-1.9375 0-3.46875-2.14063-4.32812-3.8125m0 0"/><path id="m" d="M2.03125 0h6.125v-.53125l-1.5625-.14062c-.39062-.04688-.60937-.1875-.60937-.92188v-11L5.875-12.6875l-3.84375.65625v.45313l1.73438.21875c.32812.04687.4375.17187.4375.71875v9.04687c0 .73438-.17188.875-.60938.92188l-1.5625.14062Zm0 0"/><path id="n" d="M.5-.17187.6875 0h7.73438l.64062-2.46875-.51562-.09375c-.40625 1.01563-.78125 1.15625-1.53125 1.15625H2.25c.29688-.98437 1.40625-2.3125 3.125-3.5625 1.79688-1.3125 3.1875-2.14062 3.1875-4.21875 0-2.60937-1.73437-3.5-3.70312-3.5C2.29688-12.6875 1-11.14062 1-10.17187c0 .64062.70313.9375 1.03125.9375.32813 0 .45313-.20313.53125-.51563.29688-1.26562 1.03125-2.28125 2.1875-2.28125 1.42188 0 1.84375 1.1875 1.84375 2.5625 0 2-1.01562 3.14063-2.64062 4.5625C1.64063-2.90625.85938-1.625.5-.17187m0 0"/><path id="o" d="M1.59375-4.71875h4.57813v4.57813h1.09375v-4.57813h4.59375V-5.8125H7.26563v-4.59375H6.17188v4.59375H1.59375Zm0 0"/><path id="p" d="M.78125-6.23437C.78125-2.5 1.85938.21875 4.9375.21875S9.14063-2.5 9.14063-6.23437s-1.125-6.45313-4.20313-6.45313S.78125-9.96875.78125-6.23437m1.875 0c0-3.04688.51563-5.79688 2.28125-5.79688 1.78125 0 2.29688 2.75 2.29688 5.79688 0 3.03125-.51563 5.79687-2.29688 5.79687-1.76562 0-2.28125-2.76562-2.28125-5.79687m0 0"/><path id="c" d="M.57813-.1875C.57813-.125.73437 0 .92188 0c.10937 0 .3125-.03125.34375-.10937l2.34375-5.98438c.07812-.1875.09375-.29687.09375-.35937 0-.28125-.4375-.39063-.84375-.39063-.39063 0-1.01563.15625-1.04688.40625Zm0 0"/><path id="q" d="M1.01563 0h3.0625v-.26562l-.78125-.07813c-.20313-.01562-.3125-.07812-.3125-.45312v-5.5l-.04688-.04688-1.92187.32813v.21875l.875.10937c.15624.01563.21874.09375.21874.35938v4.53125c0 .375-.09375.4375-.3125.45312l-.78124.07813Zm0 0"/><clipPath id="f"><path d="M.14844 56H254.8828v1H.14844Zm0 0"/></clipPath><clipPath id="g"><path d="M.14844 113H254.8828v1H.14844Zm0 0"/></clipPath><clipPath id="h"><path d="M.14844 169H254.8828v.95703H.14844Zm0 0"/></clipPath><clipPath id="i"><path d="M.14844 0H254.8828v169.95703H.14844Zm0 0"/></clipPath><clipPath id="j"><path d="M84 0h2v169.95703h-2Zm0 0"/></clipPath></defs><use xlink:href="#a" x="37.04629" y="33.03665"/><use xlink:href="#b" x="20.84799" y="90.11653"/><use xlink:href="#c" x="32.50821" y="82.17091"/><use xlink:href="#d" x="37.55274" y="90.11653"/><use xlink:href="#a" x="45.18064" y="90.11653"/><use xlink:href="#e" x="56.99992" y="90.11653"/><use xlink:href="#b" x="23.37025" y="146.37394"/><use xlink:href="#d" x="35.03061" y="146.37394"/><use xlink:href="#a" x="42.65852" y="146.37394"/><use xlink:href="#e" x="54.4778" y="146.37394"/><g clip-path="url(#f)"><path fill="none" stroke="#000" stroke-miterlimit="10" stroke-width=".39728" d="M.34766 56.71878h254.33996"/></g><g clip-path="url(#g)"><path fill="none" stroke="#000" stroke-miterlimit="10" stroke-width=".39728" d="M.34766 113.23834h254.33996"/></g><g clip-path="url(#h)"><path fill="none" stroke="#000" stroke-miterlimit="10" stroke-width=".39728" d="M.34766 169.7579h254.33996"/></g><g clip-path="url(#i)"><path fill="none" stroke="#000" stroke-miterlimit="10" stroke-width=".39728" d="M.34766.19922v169.55867h254.33996V.19922Zm0 0"/></g><g clip-path="url(#j)"><path fill="none" stroke="#000" stroke-miterlimit="10" stroke-width=".39728" d="M85.12895.19922v169.55867"/></g><use xlink:href="#k" x="97.14791" y="32.64984"/><use xlink:href="#l" x="110.5762" y="32.64984"/><use xlink:href="#k" x="155.86278" y="34.7155"/><use xlink:href="#m" x="171.67427" y="20.96967"/><path fill="none" stroke="#000" stroke-miterlimit="10" stroke-width="1.09265" d="M171.67578 29.45312h9.89063"/><use xlink:href="#n" x="171.67427" y="48.64078"/><use xlink:href="#o" x="210.18712" y="33.55306"/><use xlink:href="#l" x="223.61541" y="33.55306"/><use xlink:href="#k" x="134.93299" y="87.88737"/><path fill="none" stroke="#000" stroke-dasharray=".39728059000000004 1.986452797" stroke-miterlimit="10" stroke-width=".39728" d="M169.91024 56.71878v56.51956"/><use xlink:href="#p" x="164.96087" y="91.21516"/><use xlink:href="#o" x="191.45259" y="90.18233"/><path fill="#FFF" d="M111.40234 121.1836h3.97266v-3.97266h-3.97266Zm0 0"/><path fill="#FFF" d="M111.40234 121.1836h3.97266v-3.97266h-3.97266Zm54.04688 44.60156h8.91797v-10.32032h-8.91797Zm0 0"/><use xlink:href="#q" x="167.43328" y="163.79749"/><path fill="#FFF" d="M165.44922 165.78516h8.91797v-10.32032h-8.91797Zm0 0"/><use xlink:href="#q" x="167.43328" y="163.79749"/><path fill="none" stroke="#000" stroke-miterlimit="10" stroke-width=".39728" d="m118.9649 123.2813 40.97268 30.03909"/><path d="M161.85938 154.73047c-.6836-.7461-1.89063-2.125-2.32032-3.55078.15235 1.46875-.3164 2.10937-1.76172 2.40234 1.48828-.01562 3.16407.72266 4.08203 1.14844m0 0"/><path fill="#FFF" d="M224.4414 121.1836h3.97266v-3.97266h-3.97265Zm0 0"/><path fill="#FFF" d="M224.4414 121.1836h3.97266v-3.97266h-3.97265Zm0 0"/><path fill="none" stroke="#000" stroke-miterlimit="10" stroke-width=".39728" d="m177.95712 154.73054 40.97267-30.03907"/><path d="M220.85547 123.28125c-.92188.42969-2.59766 1.16406-4.08594 1.14844 1.44531.29297 1.91797.9336 1.76172 2.40234.4336-1.42578 1.64063-2.80078 2.32422-3.55078m0 0"/></svg>