<svg xmlns="http://www.w3.org/2000/svg" xmlns:xlink="http://www.w3.org/1999/xlink" width="113.386pt" height="170.079pt" viewBox="0 0 113.386 170.079"><defs><path id="d" d="M2.01563 0h6.125v-.53125l-1.5625-.14062c-.39063-.04688-.60938-.1875-.60938-.90625V-12.5625l-.10937-.09375L2.01563-12v.45313l1.75.21875c.3125.03125.4375.17187.4375.70312v9.04688c0 .34375-.04688.5625-.15625.70312-.10938.14063-.26563.1875-.45313.20313l-1.57812.14062Zm0 0"/><path id="e" d="M.5-.17187.6875 0h7.71875l.625-2.45312-.51562-.10938C8.125-1.54687 7.75-1.40625 7-1.40625H2.23438C2.53125-2.375 3.64063-3.70312 5.375-4.95312c1.78125-1.3125 3.17188-2.14063 3.17188-4.21875 0-2.59375-1.73438-3.48438-3.6875-3.48438-2.5625 0-3.875 1.54688-3.875 2.51563 0 .625.71875.92187 1.03125.92187.34375 0 .46875-.1875.54687-.51562C2.85938-11 3.59375-12 4.73438-12c1.42187 0 1.84375 1.1875 1.84375 2.54688 0 2-1.01563 3.14062-2.64063 4.5625C1.64063-2.89062.85938-1.625.5-.17187m0 0"/><path id="h" d="M1.125-5.53125c0 4.20313 1.03125 9.09375 4.98438 9.25v-.54687C4.78125 2.90625 2.6875.98438 2.6875-5.53125c0-6.46875 1.98438-8.39062 3.42188-8.6875v-.5625C2.15625-14.625 1.125-9.73437 1.125-5.53125m0 0"/><path id="i" d="M.65625 0h5.79688c5.73437 0 7.15625-3.34375 7.15625-6.67187 0-3.0625-1.34375-6.20313-6.78125-6.20313H.65625v.53125c1.64063.125 1.6875.14063 1.6875 1.1875v9.4375c0 1.04688-.04687 1.0625-1.6875 1.1875ZM4.1875-2.34375v-8.82812c0-.96875.15625-1.07813 2.15625-1.07813 3.9375 0 5.1875 2.5 5.1875 5.65625 0 4.6875-2.29687 5.9375-5.42187 5.9375-1.625 0-1.92188-.21875-1.92188-1.6875m0 0"/><path id="j" d="M5.71875-5.53125c0-4.20312-1.01562-9.09375-4.96875-9.25v.5625C2.17188-13.92187 4.15625-12 4.15625-5.53125c0 6.51563-2.07812 8.4375-3.40625 8.70313v.54687c3.95313-.15625 4.96875-5.04687 4.96875-9.25m0 0"/><path id="f" d="M.60938-9.29687c0 1.625 1.625 2.92187 5.35937 2.92187-.625 1.07813-1.07812 2.21875-1.07812 3.4375 0 2.04688 1.29687 3.15625 3.625 3.15625 2.28125 0 4.65625-1.64062 4.65625-3.76562 0-1.26563-1.04688-1.96875-2.375-1.96875-1.46875 0-3.1875 1.65625-3.1875 2.95312 0 .40625.29687 1.15625.84375 1.15625.17187 0 .39062-.125.39062-.29687 0-.23438-.4375-.26563-.4375-.82813 0-.92187 1.32813-2.375 2.39063-2.375.75 0 1.20312.29688 1.20312 1.01563C12-2.23437 10.42188-.375 8.51563-.375c-1.34375 0-2.03125-.73437-2.03125-1.96875 0-1.375.96875-3 1.70312-4.1875 4.14063-.64062 8.20313-2.6875 8.20313-5.28125 0-.98437-.79688-1.64062-1.875-1.64062-2.45313 0-6.15625 3.15625-8.20313 6.42187-1.67187-.01562-4.40625-.0625-4.40625-2.04687 0-1.8125 2.21875-3.21875 3.60938-3.21875.25 0 .39062-.17188.39062-.32813s-.14062-.26562-.29687-.26562c-2.07813 0-5 1.40625-5 3.59375M8.5625-7.26562c1.35938-2.40625 4.25-5.59375 5.95313-5.59375.65625 0 1.10937.375 1.10937.98437 0 2.09375-3.26562 3.98438-7.0625 4.60938m0 0"/><clipPath id="a"><path d="M108 82h4.77344v5H108Zm0 0"/></clipPath><clipPath id="b"><path d="M107 82h5.77344v5H107Zm0 0"/></clipPath><clipPath id="c"><path d="M27 1h2v168.16406h-2Zm0 0"/></clipPath><clipPath id="g"><path d="M34 0h2v169.16406h-2Zm0 0"/></clipPath></defs><path fill="none" stroke="#000" stroke-miterlimit="10" stroke-width=".79271" d="M0 84.58203h111.34765"/><g clip-path="url(#a)"><path d="M112.3789 84.58203c-1.28906-.25781-2.57421-.77344-4.12109-1.67578 1.54688 1.16016 1.54688 2.1914 0 3.35156 1.54688-.90234 2.83203-1.41797 4.1211-1.67578m0 0"/></g><g clip-path="url(#b)"><path fill="none" stroke="#000" stroke-linejoin="round" stroke-miterlimit="10" stroke-width=".79271" d="M112.3789 84.58203c-1.28906-.25781-2.57421-.77344-4.12109-1.67578 1.54688 1.16016 1.54688 2.1914 0 3.35156 1.54688-.90234 2.83203-1.41797 4.1211-1.67578Zm0 0"/></g><g clip-path="url(#c)"><path fill="none" stroke="#000" stroke-miterlimit="10" stroke-width=".79271" d="M28.1914 169.16406V1.42578"/></g><path stroke="#000" stroke-linejoin="round" stroke-miterlimit="10" stroke-width=".79271" d="M28.1914.39453c-.2539 1.28906-.76953 2.57813-1.67187 4.125 1.16016-1.54687 2.1875-1.54687 3.34766 0-.90235-1.54687-1.41797-2.83594-1.67578-4.125Zm0 0"/><path fill="none" stroke="#000" stroke-miterlimit="10" stroke-width=".79271" d="M56.38672 81.76172v5.64062"/><use xlink:href="#d" x="51.45238" y="107.46307"/><path fill="none" stroke="#000" stroke-miterlimit="10" stroke-width=".79271" d="M84.58203 81.76172v5.64062"/><use xlink:href="#e" x="79.6467" y="107.46307"/><path fill="none" stroke="#000" stroke-miterlimit="10" stroke-width=".79271" d="M31.01172 56.38672H25.375"/><use xlink:href="#d" x="8.1071" y="62.71937"/><path fill="none" stroke="#00007F" stroke-miterlimit="10" stroke-width=".79271" d="m35.52344-987.32418.4961 674.14841.49608 149.33984.4922 65.65234.49609 36.91406L38-37.60546l.4961 16.45703.49218 12.10156.4961 9.28125.49609 7.34375.4961 5.94922.49218 4.92187.4961 4.14063.49609 3.53125.4961 3.04687.49608 2.65235.4922 2.33203.49609 2.0703.49609 1.84766.4961 1.65625.49218 1.4922.4961 1.35546.49609 1.23828.4961 1.13281.49218 1.03907.4961.95703.49609.88672.4961.82422.49218.76171.4961.71094.49609.66797.49609.6211.49219.58593.49609.55078.4961.51953.49609.48829.4961.46484.49218.4375.4961.41797.49609.39062.49609.3789.49219.35548.4961.33984.49609.32422.49609.3086.49219.29687.49609.28516.4961.26953.49609.26172.49219.25.49609.24218.99219.45313.49609.21094.49219.20703.4961.19922.49608.1914.4961.1836.49219.17968.49609.17188.4961.16797.49609.16015.49218.15625.4961.15235.4961.14843.49609.14063.49218.13672.99219.26562.4961.125.49218.1211.4961.12109.99218.22656.4961.10938.49218.10937 1.48829.30469.49218.09375.99219.1875.4961.08984.49218.08594.4961.08594.99218.16406.49219.07813.99219.15625.4961.07422.49609.0703.49218.07032.99219.14063.4961.0664.49218.0625.4961.0664.49609.0625.4961.0586"/><use xlink:href="#f" x="59.96528" y="56.82329" fill="#00007F"/><g clip-path="url(#g)"><path fill="none" stroke="red" stroke-miterlimit="10" stroke-width=".79271" d="M35.24219 0v169.16406"/></g><g fill="red"><use xlink:href="#h" x="42.6401" y="158.0392"/><use xlink:href="#i" x="49.49711" y="158.0392"/><use xlink:href="#j" x="64.00386" y="158.0392"/></g></svg>