<svg xmlns="http://www.w3.org/2000/svg" xmlns:xlink="http://www.w3.org/1999/xlink" width="396.85pt" height="255.118pt" viewBox="0 0 396.85 255.118"><defs><clipPath id="a"><path d="M.60938 140H396v2H.60938Zm0 0"/></clipPath><clipPath id="b"><path d="M391 139h5.08984v5H391Zm0 0"/></clipPath><clipPath id="c"><path d="M197 1h2v253.23828h-2Zm0 0"/></clipPath><clipPath id="e"><path d="M.60938 0h395.48046v254.23828H.60938Zm0 0"/></clipPath><path id="d" d="M2.03125 0h6.125v-.53125l-1.5625-.14062c-.39062-.04688-.60937-.1875-.60937-.92188v-11L5.875-12.6875l-3.84375.65625v.45313l1.73438.21875c.32812.04687.4375.17187.4375.71875v9.04687c0 .35938-.03125.57813-.15625.71875-.09375.14063-.25.1875-.45313.20313l-1.5625.14062Zm0 0"/><path id="f" d="M.65625 0h5.8125c5.75 0 7.17188-3.35937 7.17188-6.6875 0-3.0625-1.34375-6.21875-6.79688-6.21875H.65625v.53125c1.64063.125 1.6875.14063 1.6875 1.1875v9.45313c0 1.0625-.04687 1.07812-1.6875 1.20312ZM4.1875-2.34375v-8.85937c0-.96875.15625-1.0625 2.17188-1.0625 3.95312 0 5.20312 2.5 5.20312 5.65625 0 4.70312-2.3125 5.95312-5.45312 5.95312-1.625 0-1.92188-.21875-1.92188-1.6875m0 0"/></defs><g clip-path="url(#a)"><path fill="none" stroke="#000" stroke-miterlimit="10" stroke-width=".79426" d="M.6054 141.24219h394.05872"/></g><path d="M395.69531 141.24219c-1.28906-.25781-2.57812-.77344-4.1289-1.67578 1.55078 1.16015 1.55078 2.1953 0 3.35547 1.55078-.90235 2.83984-1.42188 4.1289-1.6797m0 0"/><g clip-path="url(#b)"><path fill="none" stroke="#000" stroke-linejoin="round" stroke-miterlimit="10" stroke-width=".79426" d="M395.69531 141.24219c-1.28906-.25781-2.57812-.77344-4.1289-1.67578 1.55078 1.16015 1.55078 2.1953 0 3.35547 1.55078-.90235 2.83984-1.42188 4.1289-1.6797Zm0 0"/></g><g clip-path="url(#c)"><path fill="none" stroke="#000" stroke-miterlimit="10" stroke-width=".79426" d="M198.35156 254.24222V1.42574"/></g><path stroke="#000" stroke-linejoin="round" stroke-miterlimit="10" stroke-width=".79426" d="M198.35156.39453c-.25781 1.29297-.77734 2.58203-1.67969 4.1289 1.16407-1.54687 2.19532-1.54687 3.35547 0-.90234-1.54687-1.41797-2.83593-1.67578-4.1289Zm0 0"/><path fill="none" stroke="#000" stroke-miterlimit="10" stroke-width=".79426" d="M226.59766 138.41797v5.65234"/><use xlink:href="#d" x="221.65469" y="164.16943"/><path fill="none" stroke="#000" stroke-miterlimit="10" stroke-width=".79426" d="M201.17578 112.99609h-5.65234"/><use xlink:href="#d" x="178.22384" y="119.33942"/><g clip-path="url(#e)"><path fill="none" stroke="#00007F" stroke-miterlimit="10" stroke-width=".79426" d="m.6054 340.04694 3.9961-3.97657 3.99219-3.97265 3.9961-3.97657 3.99609-3.97266 3.99219-3.97265 3.9961-3.96875 3.99218-3.97266 7.9922-7.9375 3.99218-3.96875 3.9961-3.96485 3.99218-3.96485 3.9961-3.96484 3.9961-3.96094 3.99218-3.96094 3.9961-3.96094 3.99219-3.95703 7.99219-7.90625 3.99219-3.95313 3.9961-3.94922 3.99218-3.9414 3.9961-3.94532 3.99609-3.9414 3.99219-3.9336 3.9961-3.9336 3.99218-3.92968 3.9961-3.92188 3.9961-3.91797 3.99218-3.91406 3.9961-3.90626 3.99219-3.89843 3.99609-3.89063 3.99219-3.88281 3.9961-3.8711 3.99609-3.85938 3.99219-3.84375 3.9961-3.83203 3.99218-3.8086 3.9961-3.78906 3.9961-3.76562 3.99218-3.73047 3.9961-3.69141 3.99218-3.64453 3.9961-3.58204 3.9961-3.50781 3.99218-3.39844 3.9961-3.26563 3.99219-3.07421 3.9961-2.78907 3.99609-2.35937 3.99219-1.64454 3.99609-.33203 3.99219 2.51172 3.9961 10.77344 3.99609 62.05862 3.99219-249.37508 3.9961 95.21878 3.99218 13.36328 3.9961 3.22266 3.9961-.03516 3.99218-1.49609 3.9961-2.27734 3.99218-2.73829 3.9961-3.03515 3.9961-3.23829 3.99218-3.38671 3.9961-3.48829 3.99219-3.57812 3.9961-3.63282 3.99609-3.6836 3.99219-3.72265 3.9961-3.76172 3.99218-3.78516 3.9961-3.8086 3.99609-3.82421 3.99219-3.84375 3.9961-3.85938 3.99218-3.86719 3.9961-3.88281 3.9961-3.89063 3.99218-3.89453 3.9961-3.90625 3.99218-3.91406 3.9961-3.91797 3.9961-3.92188 3.99218-3.92578 3.9961-3.9336 3.99219-3.9336 7.99219-7.8828 3.99218-3.94532 3.9961-3.94922 3.99219-3.94922 3.9961-3.95313 3.99609-3.95703 3.99219-3.95703 3.9961-3.95704 3.99218-3.96093"/></g><path fill="none" stroke="red" stroke-miterlimit="10" stroke-width=".79426" d="M339.5977-.00395 113.60154 225.9922"/><use xlink:href="#f" x="91.65612" y="218.57733" fill="red"/></svg>