<svg xmlns="http://www.w3.org/2000/svg" xmlns:xlink="http://www.w3.org/1999/xlink" width="170.079pt" height="170.079pt" viewBox="0 0 170.079 170.079"><defs><path id="c" d="M2.01563 0h6.125v-.53125l-1.5625-.14062c-.39063-.04688-.60938-.1875-.60938-.90625V-12.5625l-.10937-.09375L2.01563-12v.45313l1.75.21875c.3125.03125.4375.17187.4375.70312v9.04688c0 .34375-.04688.5625-.15625.70312-.10938.14063-.26563.1875-.45313.20313l-1.57812.14062Zm0 0"/><path id="d" d="M.5-.17187.6875 0h7.71875l.625-2.45312-.51562-.10938C8.125-1.54687 7.75-1.40625 7-1.40625H2.23438C2.53125-2.375 3.64063-3.70312 5.375-4.95312c1.78125-1.3125 3.17188-2.14063 3.17188-4.21875 0-2.59375-1.73438-3.48438-3.6875-3.48438-2.5625 0-3.875 1.54688-3.875 2.51563 0 .625.71875.92187 1.03125.92187.34375 0 .46875-.1875.54687-.51562C2.85938-11 3.59375-12 4.73438-12c1.42187 0 1.84375 1.1875 1.84375 2.54688 0 2-1.01563 3.14062-2.64063 4.5625C1.64063-2.89062.85938-1.625.5-.17187m0 0"/><path id="e" d="M1.39063-4.01562H5.9375v-1.3125H1.39063Zm0 0"/><path id="h" d="M1.125-5.53125c0 4.20313 1.03125 9.09375 4.98438 9.25v-.54687C4.78125 2.90625 2.6875.98438 2.6875-5.53125c0-6.46875 1.98438-8.39062 3.42188-8.6875v-.5625C2.15625-14.625 1.125-9.73437 1.125-5.53125m0 0"/><path id="i" d="M.65625 0h5.79688c5.73437 0 7.15625-3.34375 7.15625-6.67187 0-3.0625-1.34375-6.20313-6.78125-6.20313H.65625v.53125c1.64063.125 1.6875.14063 1.6875 1.1875v9.4375c0 1.04688-.04687 1.0625-1.6875 1.1875ZM4.1875-2.34375v-8.82812c0-.96875.15625-1.07813 2.15625-1.07813 3.9375 0 5.1875 2.5 5.1875 5.65625 0 4.6875-2.29687 5.9375-5.42187 5.9375-1.625 0-1.92188-.21875-1.92188-1.6875m0 0"/><path id="j" d="M5.71875-5.53125c0-4.20312-1.01562-9.09375-4.96875-9.25v.5625C2.17188-13.92187 4.15625-12 4.15625-5.53125c0 6.51563-2.07812 8.4375-3.40625 8.70313v.54687c3.95313-.15625 4.96875-5.04687 4.96875-9.25m0 0"/><clipPath id="a"><path d="M164 82h5.16406v5H164Zm0 0"/></clipPath><clipPath id="b"><path d="M84 1h1v168.16406h-1Zm0 0"/></clipPath><clipPath id="f"><path d="M0 62h103v107.16406H0Zm0 0"/></clipPath><clipPath id="g"><path d="M91 0h2v169.16406h-2Zm0 0"/></clipPath></defs><path fill="none" stroke="#000" stroke-miterlimit="10" stroke-width=".79271" d="M0 84.58203h167.73828"/><path d="M168.76563 84.58203c-1.28516-.25781-2.57422-.77344-4.1211-1.67578 1.54688 1.16016 1.54688 2.1914 0 3.35156 1.54688-.90234 2.83594-1.41797 4.1211-1.67578m0 0"/><g clip-path="url(#a)"><path fill="none" stroke="#000" stroke-linejoin="round" stroke-miterlimit="10" stroke-width=".79271" d="M168.76563 84.58203c-1.28516-.25781-2.57422-.77344-4.1211-1.67578 1.54688 1.16016 1.54688 2.1914 0 3.35156 1.54688-.90234 2.83594-1.41797 4.1211-1.67578Zm0 0"/></g><g clip-path="url(#b)"><path fill="none" stroke="#000" stroke-miterlimit="10" stroke-width=".79271" d="M84.58203 169.16406V1.42578"/></g><path stroke="#000" stroke-linejoin="round" stroke-miterlimit="10" stroke-width=".79271" d="M84.58203.39453c-.25781 1.28906-.77344 2.57813-1.67578 4.125 1.16016-1.54687 2.1914-1.54687 3.34766 0-.89844-1.54687-1.41407-2.83594-1.67188-4.125Zm0 0"/><path fill="none" stroke="#000" stroke-miterlimit="10" stroke-width=".79271" d="M112.77344 81.76172v5.64062"/><use xlink:href="#c" x="107.84003" y="107.46307"/><path fill="none" stroke="#000" stroke-miterlimit="10" stroke-width=".79271" d="M140.96875 81.76172v5.64062"/><use xlink:href="#d" x="136.03436" y="107.46307"/><path fill="none" stroke="#000" stroke-miterlimit="10" stroke-width=".79271" d="M87.40234 112.77734h-5.64062"/><use xlink:href="#e" x="57.20125" y="119.10702"/><use xlink:href="#c" x="64.49426" y="119.10702"/><path fill="none" stroke="#000" stroke-miterlimit="10" stroke-width=".79271" d="M87.40234 56.38672h-5.64062"/><use xlink:href="#c" x="64.49475" y="62.71937"/><g clip-path="url(#f)"><path fill="none" stroke="#00007F" stroke-miterlimit="10" stroke-width=".79271" d="m0 73.73828.92188.03125 4.60937.17578.92578.03907 2.76563.11718.92187.04297.92188.03906.92187.04297.92188.04688.92578.04297 2.76562.14062 2.76563.15235.92187.05468.92579.0547.92187.05468 1.84375.11719 2.76563.1875.92187.0664.92578.07031 1.84375.14063.92188.07422 1.84375.15625.92187.08203.92188.08594.92578.08593.92187.08985.92188.09375.92187.09765 1.84375.20313 1.84375.21875.92578.11719 1.84375.24218 1.84375.26563 1.84375.28906.92188.15625.92578.16016.92188.16797.92187.17578.92187.1836.92188.1953.92187.20313.92188.21484.92187.22657.92579.23828.92187.25.92188.26562.92187.28516.92188.29687.92187.32032.92188.33984.92187.36328.92578.38672.92188.41797.92187.44922.92188.48437.92187.52344.92188.5664.92187.6211.92188.67578.92578.7461.92187.8203.92188.91016.92187 1.01563.92188 1.14062.92187 1.28906.92188 1.46876.92187 1.6914.92578 1.96094.92188 2.3086.92187 2.7539.92188 3.34375.92187 4.14453.92188 5.27344.92187 6.9414.92188 9.53125.92578 13.92578.92188 22.25781.92187 41.25391.92187 102.67187.92188 700.88279"/></g><g clip-path="url(#g)"><path fill="none" stroke="red" stroke-miterlimit="10" stroke-width=".79271" d="M91.6289 0v169.16406"/></g><g fill="red"><use xlink:href="#h" x="99.02775" y="158.0392"/><use xlink:href="#i" x="105.88477" y="158.0392"/><use xlink:href="#j" x="120.39152" y="158.0392"/></g></svg>