<svg xmlns="http://www.w3.org/2000/svg" xmlns:xlink="http://www.w3.org/1999/xlink" width="198.824pt" height="170.477pt" viewBox="0 0 198.824 170.477"><defs><path id="a" d="M.59375-.73437c0 .53125.4375.95312 1.1875.95312 1.28125 0 1.98438-1.26562 2.76563-2.51562l.75-1.23438h.04687L5.6875-2.0625C6.03125-.57812 6.375.21875 7.32813.21875c1.375 0 2.07812-1.40625 2.64062-2.54687l-.46875-.25C9.03125-1.75 8.51563-.75 8-.75c-.35937 0-.5-.42187-.90625-2.09375L6.5-5.28125c.67188-1.1875 1.625-2.6875 2.15625-2.6875.5625 0 .57813.29688 1.14063.29688.40625 0 .78125-.39063.78125-.89063 0-.57812-.4375-.8125-.95313-.8125-.98437 0-1.8125.89063-2.46875 1.95313l-.82812 1.26562h-.03125l-.75-3.14062L5.4375-9.375l-3.07812.9375.04687.45313L3.875-8.07812c.29688 0 .4375.14062.60938.92187l.65625 2.70313-.51563.89062c-.79687 1.375-1.48437 2.34375-1.9375 2.34375-.54687 0-.6875-.45312-1.28125-.45312-.46875 0-.8125.48437-.8125.9375m0 0"/><path id="b" d="M-.39062 3.4375C-.375 4.04688.4375 4.51563 1.3125 4.51563 3.17188 4.51563 3.96875 3 4.75-.57812L6.46875-8.4375h2.375l.17188-.71875H6.59375l.51563-2.10937c.35937-1.40625.71875-1.9375 1.23437-1.9375.5 0 .82813.40625 1.25 1.3125.09375.17187.23438.3125.51563.3125.375 0 .90625-.34375.90625-.8125 0-.79688-1-1.45313-2.125-1.45313-2.20313 0-3.10938 1.54688-3.82813 4.01563l-.20312.67187H3.25l-.21875.71875h1.67188l-2.15625 11c-.21875 1.15625-.42188 1.26563-.59375 1.26563-.20313 0-.5-.14063-1-.90625C.8125 2.73438.6875 2.5.45313 2.5c-.40625 0-.84375.45313-.84375.9375m0 0"/><path id="d" d="M1.60938-5.26562c0 4.21875.95312 8.84375 4.90625 9v-.5625c-1.32813-.25-3.42188-1.90625-3.42188-8.4375 0-6.48438 1.98438-8.14063 3.42188-8.4375v-.5625c-3.95313.17187-4.90625 4.79687-4.90625 9m0 0"/><path id="e" d="M1.10938 3.17188v.5625c3.95312-.15625 4.90625-4.78125 4.90625-9 0-4.20313-.95313-8.82813-4.90625-9v.5625c1.4375.29687 3.42187 1.95312 3.42187 8.4375 0 6.53125-2.09375 8.1875-3.42187 8.4375m0 0"/><path id="k" d="M1.59375-4.71875h10.26563V-5.8125H1.59375Zm0 0"/><path id="l" d="M.29688-3.95312C.29688-1.73437 2.5.20313 4.5625.20313c2.625 0 4.29688-2.625 4.60938-3.14063.35937.67188 2.17187 3.15625 5.0625 3.15625 3.45312 0 4.45312-2.625 4.45312-4.82812 0-2.21875-2.07812-3.98438-4.15625-3.98438-2.48437 0-3.82812 1.78125-4.625 2.875-.73437-1.1875-2.35937-2.84375-4.9375-2.84375-3.40625 0-4.67187 2.40625-4.67187 4.60938m1.17187.0625c0-1.875 1.3125-3.34375 2.875-3.34375 1.875 0 3.4375 1.96875 4.3125 3.35937C7.9375-2.60937 6.60938-.65625 4.51563-.65625c-1.35938 0-3.04688-1.54687-3.04688-3.23437m8.98438-1c.70312-1.26563 2.0625-2.82813 4.15625-2.82813 1.35937 0 2.98437 1.34375 2.98437 3.03125 0 1.89063-1.01562 3.60938-2.8125 3.60938-1.9375 0-3.46875-2.14063-4.32812-3.8125m0 0"/><path id="m" d="M1.59375-4.71875h4.57813v4.57813h1.09375v-4.57813h4.59375V-5.8125H7.26563v-4.59375H6.17188v4.59375H1.59375Zm0 0"/><path id="c" d="M.57813-.1875C.57813-.125.73437 0 .92188 0c.10937 0 .3125-.03125.34375-.10937l2.34375-5.98438c.07812-.1875.09375-.29687.09375-.35937 0-.28125-.4375-.39063-.84375-.39063-.39063 0-1.01563.15625-1.04688.40625Zm0 0"/><path id="n" d="M.79688-2.35937H5.9375v-.54688H.79688Zm0 0"/><path id="o" d="M.15625-1.98437c0 1.125 1.09375 2.07812 2.125 2.07812 1.3125 0 2.15625-1.3125 2.3125-1.5625C4.76563-1.14062 5.67188.10938 7.125.10938c1.73438 0 2.21875-1.3125 2.21875-2.42188S8.3125-4.29687 7.28125-4.29687c-1.25 0-1.92187.89062-2.32812 1.4375-.35938-.59375-1.17188-1.42188-2.46875-1.42188-1.70313 0-2.32813 1.20313-2.32813 2.29688m.57813.03124c0-.92187.65625-1.67187 1.4375-1.67187.9375 0 1.71875.98438 2.15625 1.6875C3.96875-1.29687 3.3125-.32812 2.25-.32812c-.67187 0-1.51562-.78125-1.51562-1.625m4.5-.48437c.34375-.64062 1.03125-1.42187 2.07812-1.42187.67188 0 1.48438.67187 1.48438 1.51562 0 .9375-.5 1.8125-1.40625 1.8125-.96875 0-1.71875-1.07812-2.15625-1.90625m0 0"/><path id="p" d="M.79688-2.35937h2.29687V-.0625h.54688v-2.29687H5.9375v-.54688H3.64063v-2.29687h-.54688v2.29687H.79688Zm0 0"/><clipPath id="f"><path d="M.21484 56H198.4336v1H.21484Zm0 0"/></clipPath><clipPath id="g"><path d="M.21484 113H198.4336v1H.21484Zm0 0"/></clipPath><clipPath id="h"><path d="M.21484 169H198.4336v.95703H.21484Zm0 0"/></clipPath><clipPath id="i"><path d="M.21484 0H198.4336v169.95703H.21484Zm0 0"/></clipPath><clipPath id="j"><path d="M84 0h2v169.95703h-2Zm0 0"/></clipPath></defs><use xlink:href="#a" x="37.11312" y="33.03665"/><use xlink:href="#b" x="20.91482" y="90.11653"/><use xlink:href="#c" x="32.57505" y="82.17091"/><use xlink:href="#d" x="37.61957" y="90.11653"/><use xlink:href="#a" x="45.24748" y="90.11653"/><use xlink:href="#e" x="57.06676" y="90.11653"/><use xlink:href="#b" x="23.43708" y="146.37394"/><use xlink:href="#d" x="35.09745" y="146.37394"/><use xlink:href="#a" x="42.72535" y="146.37394"/><use xlink:href="#e" x="54.54463" y="146.37394"/><g clip-path="url(#f)"><path fill="none" stroke="#000" stroke-miterlimit="10" stroke-width=".39728" d="M.41406 56.71878h197.82041"/></g><g clip-path="url(#g)"><path fill="none" stroke="#000" stroke-miterlimit="10" stroke-width=".39728" d="M.41406 113.23834h197.82041"/></g><g clip-path="url(#h)"><path fill="none" stroke="#000" stroke-miterlimit="10" stroke-width=".39728" d="M.41406 169.7579h197.82041"/></g><g clip-path="url(#i)"><path fill="none" stroke="#000" stroke-miterlimit="10" stroke-width=".39728" d="M.41406.19922v169.55867h197.82041V.19922Zm0 0"/></g><g clip-path="url(#j)"><path fill="none" stroke="#000" stroke-miterlimit="10" stroke-width=".39728" d="M85.19535.19922v169.55867"/></g><use xlink:href="#k" x="97.21474" y="32.64984"/><use xlink:href="#l" x="110.64303" y="32.64984"/><use xlink:href="#m" x="153.73435" y="33.55306"/><use xlink:href="#l" x="167.16264" y="33.55306"/><use xlink:href="#m" x="134.99982" y="90.18233"/><path fill="#FFF" d="M103.34766 165.78516h20.21484v-8.38282h-20.21484Zm0 0"/><use xlink:href="#n" x="105.33483" y="163.68883"/><use xlink:href="#o" x="112.04898" y="163.68883"/><path fill="#FFF" d="M103.34766 165.78516h20.21484v-8.38282h-20.21484Zm0 0"/><use xlink:href="#n" x="105.33483" y="163.68883"/><use xlink:href="#o" x="112.04898" y="163.68883"/><path fill="#FFF" d="M159.8711 126.5h20.21093v-9.28906H159.8711Zm0 0"/><use xlink:href="#p" x="161.85344" y="124.40135"/><use xlink:href="#o" x="168.56759" y="124.40135"/><path fill="#FFF" d="M159.8711 126.5h20.21093v-9.28906H159.8711Zm0 0"/><use xlink:href="#p" x="161.85344" y="124.40135"/><use xlink:href="#o" x="168.56759" y="124.40135"/><path fill="none" stroke="#000" stroke-miterlimit="10" stroke-width=".39728" d="m123.86334 154.27351 33.1133-23.27735"/><path d="M158.92578 129.6289c-.92578.40626-2.61719 1.10938-4.10547 1.0625 1.4414.32423 1.89844.97266 1.71094 2.4375.46484-1.41406 1.69531-2.76952 2.39453-3.5m0 0"/></svg>