<svg xmlns="http://www.w3.org/2000/svg" xmlns:xlink="http://www.w3.org/1999/xlink" width="191.737pt" height="114.869pt" viewBox="0 0 191.737 114.869"><defs><clipPath id="a"><path d="M0 84h191.47266v2H0Zm0 0"/></clipPath><clipPath id="b"><path d="M188 82h3.47266v6H188Zm0 0"/></clipPath><clipPath id="c"><path d="M42 .01172h1V107h-1Zm0 0"/></clipPath><clipPath id="d"><path d="M40 .01172h6V3h-6Zm0 0"/></clipPath><clipPath id="i"><path d="M42 .01172h80v114.71484H42Zm0 0"/></clipPath><path id="e" d="M.59375-5.04687c0 3.07812 1.76563 5.32812 5.5 5.32812 3.29688 0 4.90625-1.6875 5.9375-3.54687C13.04688-5.09375 13.23438-7 13.23438-7.73437c0-3.84375-2.32813-5.5-5.42188-5.5-2.98437 0-4.82812 1.65625-5.92187 3.45312C.85938-8.0625.59375-6.28125.59375-5.04687m1.96875.75c0-1.57813.29688-3.32813 1.15625-5.125.85938-1.78125 2.1875-3.15625 4.17188-3.15625 2.04687 0 3.375 1.21875 3.375 3.85937 0 1.07813-.10938 2.60938-.875 4.59375-.78125 2.01563-2.0625 3.75-4.48438 3.75C3.875-.375 2.5625-1.6875 2.5625-4.29687m0 0"/><path id="j" d="M.96875-5.125c0 2.45313 1.21875 5.40625 5.85938 5.40625C8.15625.28125 9.42188.09375 10.625-.5l.90625-2.98437h-.54687C9.9375-1.60937 9.01563-.375 6.70313-.375c-2.17188 0-3.71875-1.39062-3.71875-4.28125 0-1.6875.4375-3.75 1.32812-5.25.9375-1.57812 2.40625-2.67187 4.42188-2.67187 2.35937 0 3.04687 1.09375 3.04687 3.15625h.57813l.67187-2.8125c-1.07812-.67188-2.82812-1-4.14062-1-3.51563 0-5.54688 1.65625-6.64063 3.40625C1.21875-8.15625.96875-6.42187.96875-5.125m0 0"/><path id="f" d="M-6.45312-11.1875h3.42187l-.67187 1.07813.48437.42187c.67188-.75 1.46875-1.28125 2.5-1.73437v-.46875c-1.04687-.45313-1.82812-.98438-2.5-1.73438l-.48437.46875.67187 1.0625h-3.42187Zm0 0"/><path id="g" d="M1.9375-.76562c0 .59375.28125.96875.96875.96875C4.125.20313 5.04688-.95312 5.625-2.21875l-.42187-.23437c-.29688.59375-1.03125 1.76562-1.5 1.76562-.1875 0-.26563-.125-.26563-.32812 0-.17188.03125-.35938.09375-.57813L5.375-8.35937l-.09375-.09375-3.0625.46875-.10937.40625.96875.09375c.3125.01562.4375.10937.4375.34375 0 .10937-.03125.25-.07813.42187L2.01563-1.45312c-.0625.25-.07813.46875-.07813.6875m0 0"/><path id="h" d="M-1.25 2.98438c0 .90625 1.17188 1.07812 1.78125 1.07812.5625 0 1.09375-.17187 1.51563-.54687.76562-.70313 1.23437-1.78125 1.67187-3.79688l1.76563-8.07812-.09375-.09375-3.20313.5-.10937.4375c1.10937.04687 1.48437.07812 1.48437.35937 0 .125-.01562.21875-.04687.375L1.54688 2.67188c-.10938.51562-.25.76562-.46875.76562-.6875 0-1.03125-1.3125-1.53125-1.3125-.42188 0-.79688.54688-.79688.85938m0 0"/></defs><g clip-path="url(#a)"><path fill="none" stroke="#000" stroke-miterlimit="10" stroke-width=".39795" d="M.19923 85.13281h190.67965"/></g><g clip-path="url(#b)"><path fill="none" stroke="#000" stroke-linecap="round" stroke-linejoin="round" stroke-miterlimit="10" stroke-width=".39795" d="M189.00781 82.7461c.3789 1.43359 1.22266 2.10937 2.07031 2.38671-.84765.28125-1.6914.95703-2.0703 2.39063"/></g><g clip-path="url(#c)"><path fill="none" stroke="#000" stroke-miterlimit="10" stroke-width=".39795" d="M42.66016 106.36718V.6094"/></g><g clip-path="url(#d)"><path fill="none" stroke="#000" stroke-linecap="round" stroke-linejoin="round" stroke-miterlimit="10" stroke-width=".39795" d="M40.27344 2.48047c1.4336-.3789 2.10937-1.22266 2.38672-2.07031.27734.84765.95703 1.6914 2.38671 2.0703"/></g><path fill="none" stroke="#000" stroke-miterlimit="10" stroke-width=".39795" d="M21.4297 83.01172v4.2461m42.46092-4.2461v4.2461m21.23047-4.2461v4.2461m21.23046-4.2461v4.2461m21.23437-4.2461v4.2461m21.23046-4.2461v4.2461m21.23047-4.2461v4.2461M44.78516 63.90235h-4.2461m4.2461-21.23047h-4.2461m4.2461-21.23046h-4.2461"/><use xlink:href="#e" x="21.8011" y="105.39671"/><path fill="none" stroke="#000" stroke-miterlimit="10" stroke-width=".79592" d="M42.66016 85.13281h20.43359"/><path fill="none" stroke="#000" stroke-linecap="round" stroke-linejoin="round" stroke-miterlimit="10" stroke-width=".79592" d="M60.94531 82.02734c.46485 1.86329 1.50391 2.7461 2.54688 3.10547-1.04297.36328-2.08203 1.2461-2.54688 3.10938"/><use xlink:href="#f" x="58.31601" y="105.79217"/><use xlink:href="#g" x="50.61657" y="105.9899"/><path fill="none" stroke="#000" stroke-miterlimit="10" stroke-width=".79592" d="M42.66016 85.13281V64.69922"/><path fill="none" stroke="#000" stroke-linecap="round" stroke-linejoin="round" stroke-miterlimit="10" stroke-width=".79592" d="M39.55469 66.84766c1.86328-.46485 2.74218-1.5 3.10547-2.54688.36328 1.04688 1.24218 2.08203 3.10546 2.54688"/><use xlink:href="#f" x="37.08014" y="79.20164"/><use xlink:href="#h" x="29.3807" y="79.39937"/><g clip-path="url(#i)"><path fill="none" stroke="red" stroke-miterlimit="10" stroke-width=".79592" d="M53.27734 114.32812s.41797-2.79297.57813-3.83984c.16015-1.04297.41797-2.6914.57812-3.69532.16016-1.0078.41797-2.59374.57813-3.5625.16015-.96874.41797-2.49218.57812-3.42578.16406-.93359.42188-2.39843.58203-3.29296.16016-.89844.41797-2.30469.57813-3.16797.16015-.85938.41797-2.21094.57812-3.03906.16016-.82422.41797-2.1211.57813-2.91407.16015-.79296.41797-2.03515.57812-2.79296.16406-.75782.42188-1.94922.58203-2.67578s.41797-1.86328.57813-2.5586c.16015-.6914.41797-1.78125.57812-2.4453.16016-.66017.41797-1.69923.57813-2.33204.16015-.63281.41797-1.6211.57812-2.22656.16406-.60156.42188-1.54297.58203-2.11719s.41797-1.46875.57813-2.01562c.16015-.54688.41797-1.39844.57812-1.91407.16016-.51953.41797-1.32812.57813-1.8203.16015-.48829.41797-1.25391.57812-1.71876.16407-.46484.42188-1.1914.58203-1.6289.16016-.44141.41797-1.125.57813-1.53907s.41797-1.05859.57812-1.44921c.16016-.39063.41797-1 .57813-1.3672.16016-.36718.41797-.9375.58203-1.28124.16016-.34375.41797-.8789.57813-1.20313.16015-.3203.41796-.8203.57812-1.12109.16016-.30469.41797-.76953.57812-1.05078.16016-.28125.41797-.71875.57813-.97656.16016-.26172.41797-.66797.58203-.91016.16016-.24219.41797-.61719.57813-.83984.16015-.22266.41796-.57031.57812-.77735.16016-.20703.41797-.52343.57813-.71093.16015-.19141.41796-.48047.57812-.65625.16016-.17188.41797-.4375.58203-.59766.16016-.15625.41797-.39844.57813-.54297.16015-.14453.41796-.36328.57812-.49219.16016-.1289.41797-.32421.57813-.4414.16015-.11719.41796-.29297.57812-.39844.16016-.10156.41797-.25781.58203-.35156.16016-.08985.41797-.23047.57813-.3086.16015-.08203.41797-.20312.57812-.27343.16016-.07031.41797-.17578.57813-.23438.16015-.0625.41797-.15234.57812-.20312.16016-.05078.41797-.1289.58203-.17188.16016-.04297.41797-.10547.57813-.14062.16015-.03906.41797-.08985.57812-.11719.16016-.03125.41797-.07031.57813-.09375.16015-.02344.41797-.05469.57812-.07422.16016-.01562.41797-.04297.58203-.05469.16016-.01171.41797-.03125.57813-.03906.16015-.00781.41797-.01953.57812-.02734.16016-.0039.41797-.01172.57813-.01563.16015-.0039.41797-.00781.57812-.00781.16016 0 .41797-.0039.58203-.0039h1.15625c.16016 0 .41797 0 .57813-.00391.16015 0 .41797-.0039.57812-.00781.16016-.00391.41797-.00782.58203-.01563.16016-.0039.41797-.01562.57813-.02344.16016-.01172.41797-.02734.57812-.03906.16016-.01562.41797-.03906.57813-.05469.16016-.01953.41797-.05078.57812-.07422.16407-.02343.41797-.0625.58203-.09375.16016-.02734.41797-.07812.57813-.11718.16016-.03516.41797-.09766.57812-.14063.16016-.04297.41797-.11719.57813-.17187.16016-.05078.41797-.14063.57812-.19922.16407-.0625.41797-.16406.58204-.23438.16015-.0703.41796-.1914.57812-.27343s.41797-.21875.57813-.3086c.16015-.09375.41796-.25.57812-.35156.16016-.10547.41797-.28125.57813-.39453.16406-.11719.41796-.3125.58203-.4414.16015-.12891.41797-.34766.57812-.4922.16016-.14453.41797-.3828.57813-.54296.16015-.15625.41797-.42188.57812-.59375.16016-.17578.41797-.46485.57813-.65625.16406-.1875.41796-.50391.58203-.71094.16015-.20703.41797-.55078.57812-.77344.16016-.22656.41797-.59765.57813-.83984.16015-.24219.41797-.64453.57812-.90625.16016-.26172.41797-.69531.57813-.97656.16406-.28125.42187-.7461.58203-1.04688.16015-.30078.41797-.80078.57812-1.125.16016-.32031.41797-.85547.57813-1.19922.16015-.34375.41797-.91406.57812-1.28125.16016-.36718.41797-.97265.57813-1.36328.16406-.39062.42187-1.03515.58203-1.44922.16015-.41406.41797-1.09765.57812-1.53515.16016-.4375.41797-1.16016.57813-1.625.16015-.46485.41797-1.23047.57812-1.71875.16016-.49219.41797-1.30078.57813-1.8164.16406-.51563.42187-1.3672.58203-1.91407.16016-.54297.41797-1.4414.57812-2.01172.16016-.57422.41797-1.51562.57813-2.11719s.41797-1.59374.57812-2.22265c.16016-.63281.41797-1.67188.57813-2.33203.16406-.66406.58203-2.4414.58203-2.4414"/></g><path d="M87.2461 42.67188c0-1.17188-.94922-2.1211-2.125-2.1211-1.17188 0-2.1211.94922-2.1211 2.1211 0 1.17187.94922 2.125 2.1211 2.125 1.17578 0 2.125-.95313 2.125-2.125m0 0"/><use xlink:href="#j" x="78.81389" y="24.74933"/><path fill="none" stroke="#0F0" stroke-miterlimit="10" stroke-width=".79592" d="M64.6875 42.67188h51.48436"/><path fill="none" stroke="#0F0" stroke-linecap="round" stroke-linejoin="round" stroke-miterlimit="10" stroke-width=".79592" d="M66.83594 45.77734c-.46485-1.86328-1.5-2.74218-2.54688-3.10546 1.04688-.36329 2.08203-1.2422 2.54688-3.10547m47.1875-.00001c.46484 1.86329 1.5039 2.7422 2.54687 3.10548-1.04297.36328-2.08203 1.24218-2.54687 3.10546"/></svg>