<svg xmlns="http://www.w3.org/2000/svg" xmlns:xlink="http://www.w3.org/1999/xlink" width="212.305pt" height="240.729pt" viewBox="0 0 212.305 240.729"><defs><path id="b" d="M.59375-5.04687c0 3.07812 1.76563 5.32812 5.48438 5.32812 3.29687 0 4.90625-1.6875 5.9375-3.53125 1.01562-1.82812 1.1875-3.73437 1.1875-4.46875 0-3.84375-2.3125-5.48437-5.39063-5.48437-2.98437 0-4.82812 1.64062-5.92187 3.4375C.85938-8.04687.59375-6.28125.59375-5.04687m1.96875.75c0-1.5625.29688-3.3125 1.15625-5.10938.84375-1.78125 2.17188-3.14062 4.17188-3.14062 2.03125 0 3.34375 1.20312 3.34375 3.84375 0 1.07812-.09375 2.60937-.875 4.59375-.76563 2-2.03125 3.73437-4.46875 3.73437C3.875-.375 2.5625-1.6875 2.5625-4.29687m0 0"/><path id="c" d="M-6.4375-11.17187h3.42188l-.6875 1.07812.48437.42188c.6875-.75 1.46875-1.28125 2.5-1.73438v-.46875c-1.04687-.4375-1.8125-.98437-2.5-1.73437l-.48437.46875.6875 1.07812H-6.4375Zm0 0"/><path id="d" d="M1.9375-.76562c0 .59375.28125.96875.95313.96875 1.21875 0 2.15625-1.15625 2.71875-2.42188l-.40625-.23437c-.3125.59375-1.03125 1.78125-1.5 1.78125-.20313 0-.26563-.125-.26563-.34375 0-.17188.03125-.35938.07813-.57813l1.84375-6.75-.09375-.09375-3.04688.46875-.10937.40625.96875.09375C3.375-7.45312 3.5-7.35937 3.5-7.125c0 .09375-.01562.25-.0625.42188l-1.42187 5.25c-.0625.25-.07813.46875-.07813.6875m0 0"/><path id="e" d="M-1.25 2.98438C-1.25 3.875-.07812 4.0625.53125 4.0625c.5625 0 1.09375-.1875 1.5-.5625.78125-.6875 1.23438-1.76562 1.6875-3.78125l1.75-8.0625L5.375-8.4375l-3.1875.5-.10937.4375c1.10937.04688 1.48437.07813 1.48437.34375 0 .125-.01562.23438-.0625.375l-1.96875 9.4375c-.09375.53125-.25.78125-.45312.78125-.6875 0-1.03125-1.3125-1.53125-1.3125-.42188 0-.79688.53125-.79688.85938m0 0"/><clipPath id="a"><path d="M56 14h1v226.20313h-1Zm0 0"/></clipPath><clipPath id="f"><path d="M31 16h94v224.20313H31Zm0 0"/></clipPath></defs><path fill="none" stroke="#000" stroke-miterlimit="10" stroke-width=".3972" d="M.19922 98.65625h197.3828"/><path fill="none" stroke="#000" stroke-linecap="round" stroke-linejoin="round" stroke-miterlimit="10" stroke-width=".3972" d="M195.71484 96.27344c.375 1.42968 1.21875 2.10547 2.06641 2.38281-.84766.27734-1.6914.95312-2.0664 2.38281"/><g clip-path="url(#a)"><path fill="none" stroke="#000" stroke-miterlimit="10" stroke-width=".3972" d="M56.70703 239.92577V14.28907"/></g><path fill="none" stroke="#000" stroke-linecap="round" stroke-linejoin="round" stroke-miterlimit="10" stroke-width=".3972" d="M54.32422 16.15625c1.42969-.375 2.10547-1.21875 2.38281-2.0664.27734.84765.95313 1.6914 2.38281 2.0664"/><use xlink:href="#b" x="35.88752" y="118.87936"/><path fill="none" stroke="#000" stroke-miterlimit="10" stroke-width=".79441" d="M56.70703 98.65625h27.46094"/><path fill="none" stroke="#000" stroke-linecap="round" stroke-linejoin="round" stroke-miterlimit="10" stroke-width=".79441" d="M82.01953 95.55469c.46485 1.85937 1.5 2.73828 2.54297 3.10156-1.04297.35937-2.07812 1.23828-2.54297 3.10156"/><use xlink:href="#c" x="75.86565" y="119.27407"/><use xlink:href="#d" x="68.17881" y="119.47142"/><path fill="none" stroke="#000" stroke-miterlimit="10" stroke-width=".79441" d="M56.70703 98.65625V71.19532"/><path fill="none" stroke="#000" stroke-linecap="round" stroke-linejoin="round" stroke-miterlimit="10" stroke-width=".79441" d="M53.60547 73.33984c1.85937-.46484 2.73828-1.5 3.10156-2.54297.35938 1.04297 1.23828 2.07813 3.10156 2.54297"/><use xlink:href="#c" x="51.13859" y="89.20251"/><use xlink:href="#e" x="43.45176" y="89.39987"/><path fill="none" stroke="red" stroke-miterlimit="10" stroke-width=".79441" d="m28.45313 211.67186 1.14062-9.99609 1.14063-9.45312 1.14062-8.92578 1.14063-8.40235L34.15625 167l1.14453-7.39843 1.14063-6.91407 1.14062-6.43359 1.14063-5.97656 1.14062-5.51953 1.14063-5.07813 1.14062-4.64843 1.14453-4.23047 1.14063-3.82422 1.14062-3.42187 1.14063-3.04297 1.14062-2.66406 1.14063-2.30079 1.14062-1.94921 1.14453-1.61329 1.14063-1.27734 1.14062-.96094 1.14063-.65234 1.14062-.35938 1.14063-.0703 1.14062.19921 1.14453.46484 1.14063.71485L61.54687 101l1.14063 1.1875 1.14062 1.40234 1.14063 1.60938 1.14453 1.80469 1.14062 1.99218 1.14063 2.16406 1.14062 2.32422 1.14063 2.47657 1.14062 2.61718 1.14063 2.7461 1.14453 2.86328 1.14063 2.96875 1.14062 3.0625 1.14063 3.14843 1.14062 3.22266 1.14063 3.28125 1.14062 3.33203 1.14453 3.3711 1.14063 3.40234 1.14062 3.41797 1.14063 3.42187 1.14062 3.41797 1.14063 3.40234 1.14062 3.3711 1.14453 3.33593 1.14063 3.28516 1.14062 3.22266L93.5 180.0039l1.14062 3.0664 1.14063 2.97266 1.14062 2.86328 1.14453 2.75 1.14063 2.6211 1.14062 2.48437 1.14063 2.33203 1.14062 2.16797 1.14063 1.9961 1.14062 1.8125 1.14453 1.61718 1.14063 1.41016 1.14062 1.1914 1.14063.96485 1.14062.72265 1.14063.47656 1.14062.21094 1.14453-.0625 1.14063-.34765 1.14062-.64454 1.14063-.94921 1.14062-1.26953 1.14063-1.59766 1.14062-1.9375 1.14453-2.28906 1.14063-2.65625 1.14062-3.02344 1.14063-3.41406 1.14062-3.8086 1.14063-4.21484 1.14453-4.63281 1.14062-5.0664 1.14063-5.50391 1.14062-5.95703 1.14063-6.42188 1.14062-6.89453 1.14063-7.38281 1.14453-7.8789 1.14062-8.38282 1.14063-8.90625 1.14062-9.4375 1.14063-9.97656"/><g clip-path="url(#f)"><path fill="none" stroke="#00F" stroke-miterlimit="10" stroke-width=".79441" d="m42.57813 28.01954.71484 2.14062.71094 2.13672.71484 2.14063.71094 2.14062.71484 2.13672.71484 2.14062.71094 2.14063.71485 2.13672.71093 2.14062.71485 2.14063.71094 2.13672.71484 2.14062.71094 2.13672 1.42968 4.28125.71094 2.13672.71484 2.14062.71094 2.14063.71485 2.13671.71093 2.14063.71485 2.14062.71093 2.13672.71485 2.14063.71094 2.14062.71484 2.13672.71484 2.14063.71094 2.14062.71484 2.13672.71094 2.14062.71485 2.14063.71093 2.13672.71485 2.14062.71093 2.13672 1.4297 4.28125.71093 2.13672.71484 2.14062.71094 2.14063.71484 2.13672.71094 2.14062.71484 2.14063.71094 2.13672.71485 2.14062.71093 2.14062.71485 2.13672.71484 2.14063.71094 2.14062.71484 2.13672.71094 2.14063.71484 2.13671.71094 2.14063.71484 2.14063.71094 2.13671.71485 2.14063.71093 2.14062.71485 2.13672.71484 2.14063.71094 2.14062.71484 2.13672.71094 2.14062.71484 2.14063.71094 2.13672.71484 2.14062.71094 2.14063.71484 2.13672.71485 2.14062.71094 2.13672.71484 2.14062.71094 2.14063.71484 2.13672.71094 2.14062.71484 2.14063.71094 2.13672.71484 2.14062.71094 2.14063.71484 2.13671.71485 2.14063.71093 2.14062.71485 2.13672.71094 2.14063.71484 2.14062.71094 2.13672.71484 2.14063.71094 2.14062.71484 2.13672.71485 2.14062.71093 2.13672.71485 2.14063.71093 2.14062.71485 2.13672.71094 2.14063.71484 2.14062.71094 2.13672.71484 2.14062.71094 2.14063.71484 2.13672.71484 2.14062.71094 2.14063.71485 2.13671"/></g></svg>