<svg xmlns="http://www.w3.org/2000/svg" xmlns:xlink="http://www.w3.org/1999/xlink" width="397.647pt" height="142.529pt" viewBox="0 0 397.647 142.529"><defs><clipPath id="a"><path d="M.48047 84H396v2H.48047Zm0 0"/></clipPath><clipPath id="b"><path d="M391 83h5.8164v4H391Zm0 0"/></clipPath><clipPath id="c"><path d="M391 83h5.8164v5H391Zm0 0"/></clipPath><clipPath id="d"><path d="M198 1h2v141.0586h-2Zm0 0"/></clipPath><clipPath id="i"><path d="M.48047 14H396.8164v123H.48047Zm0 0"/></clipPath><clipPath id="k"><path d="M.48047 28H396.8164v2H.48047Zm0 0"/></clipPath><path id="e" d="M1.39063-4.03125h4.5625v-1.3125h-4.5625Zm0 0"/><path id="f" d="M.5-.17187.6875 0h7.73438l.64062-2.46875-.51562-.09375c-.40625 1.01563-.78125 1.15625-1.53125 1.15625H2.25c.29688-.98437 1.40625-2.3125 3.125-3.5625 1.79688-1.3125 3.1875-2.14062 3.1875-4.21875 0-2.60937-1.73437-3.5-3.70312-3.5C2.29688-12.6875 1-11.14062 1-10.17187c0 .64062.70313.9375 1.03125.9375.32813 0 .45313-.20313.53125-.51563.29688-1.26562 1.03125-2.28125 2.1875-2.28125 1.42188 0 1.84375 1.1875 1.84375 2.5625 0 2-1.01562 3.14063-2.64062 4.5625C1.64063-2.90625.85938-1.625.5-.17187m0 0"/><path id="g" d="M2.03125 0h6.125v-.53125l-1.5625-.14062c-.39062-.04688-.60937-.1875-.60937-.92188v-11L5.875-12.6875l-3.84375.65625v.45313l1.73438.21875c.32812.04687.4375.17187.4375.71875v9.04687c0 .35938-.03125.57813-.15625.71875-.09375.14063-.25.1875-.45313.20313l-1.5625.14062Zm0 0"/><path id="h" d="M.65625 0h9.6875l.21875-3.34375h-.54687C9.625-.89062 8.625-.65625 6.65625-.65625c-.9375 0-1.60937-.01562-2.01562-.17187C4.25-1 4.1875-1.32812 4.1875-2.25v-8.9375c0-1.04687.0625-1.0625 1.79688-1.1875v-.53125H.65625v.53125c1.64063.125 1.6875.14063 1.6875 1.1875v9.45313c0 1.0625-.04687 1.07812-1.6875 1.20312Zm0 0"/><path id="l" d="M.65625 0h5.8125c5.75 0 7.17188-3.35937 7.17188-6.6875 0-3.0625-1.34375-6.21875-6.79688-6.21875H.65625v.53125c1.64063.125 1.6875.14063 1.6875 1.1875v9.45313c0 1.0625-.04687 1.07812-1.6875 1.20312ZM4.1875-2.34375v-8.85937c0-.96875.15625-1.0625 2.17188-1.0625 3.95312 0 5.20312 2.5 5.20312 5.65625 0 4.70312-2.3125 5.95312-5.45312 5.95312-1.625 0-1.92188-.21875-1.92188-1.6875m0 0"/><path id="j" d="M.60938-9.3125c0 1.625 1.64062 2.92188 5.375 2.92188-.625 1.09375-1.07813 2.21875-1.07813 3.45312 0 2.04688 1.29688 3.15625 3.64063 3.15625 2.28125 0 4.65625-1.65625 4.65625-3.78125 0-1.26562-1.04688-1.95312-2.375-1.95312C9.35938-5.51562 7.625-3.875 7.625-2.5625c0 .39063.29688 1.15625.85938 1.15625.15625 0 .375-.125.375-.29687 0-.25-.4375-.26563-.4375-.84375 0-.90625 1.32812-2.375 2.40625-2.375.75 0 1.20312.29687 1.20312 1.03125C12.03125-2.25 10.45313-.375 8.54688-.375 7.1875-.375 6.5-1.10937 6.5-2.34375c0-1.39062.96875-3.01562 1.70313-4.20312 4.15625-.64063 8.21875-2.6875 8.21875-5.29688 0-.98437-.79688-1.64062-1.85938-1.64062-2.46875 0-6.1875 3.15625-8.23437 6.4375-1.6875-.01563-4.42188-.0625-4.42188-2.04688 0-1.82812 2.21875-3.23437 3.60938-3.23437.26562 0 .40625-.15625.40625-.32813 0-.15625-.14063-.26562-.29688-.26562-2.09375 0-5.01562 1.40625-5.01562 3.60937m7.96875 2.03125c1.375-2.40625 4.26562-5.60937 5.98437-5.60937.65625 0 1.10938.375 1.10938 1 0 2.07812-3.28125 3.98437-7.09375 4.60937m0 0"/></defs><g clip-path="url(#a)"><path fill="none" stroke="#000" stroke-miterlimit="10" stroke-width=".79439" d="M.87506 85.15625h394.11707"/></g><g clip-path="url(#b)"><path d="M396.02344 85.15625c-1.28906-.25781-2.58203-.77344-4.1289-1.67969 1.54687 1.16406 1.54687 2.19531 0 3.35938 1.54687-.90625 2.83983-1.42188 4.1289-1.67969m0 0"/></g><g clip-path="url(#c)"><path fill="none" stroke="#000" stroke-linejoin="round" stroke-miterlimit="10" stroke-width=".79439" d="M396.02344 85.15625c-1.28907-.25781-2.58203-.77344-4.1289-1.67969 1.54687 1.16407 1.54687 2.19531 0 3.35938 1.54687-.90625 2.83983-1.42188 4.1289-1.67969Zm0 0"/></g><g clip-path="url(#d)"><path fill="none" stroke="#000" stroke-miterlimit="10" stroke-width=".79439" d="M198.64844 141.66405V1.82425"/></g><path stroke="#000" stroke-linejoin="round" stroke-miterlimit="10" stroke-width=".79439" d="M198.64844.79297c-.25781 1.29297-.77344 2.58203-1.67969 4.13281 1.16406-1.55078 2.19531-1.55078 3.35937 0-.90625-1.55078-1.42187-2.83984-1.67968-4.13281Zm0 0"/><path fill="none" stroke="#000" stroke-miterlimit="10" stroke-width=".79439" d="M142.14064 82.33203v5.64844"/><use xlink:href="#e" x="133.54223" y="108.08582"/><use xlink:href="#f" x="140.85058" y="108.08582"/><path fill="none" stroke="#000" stroke-miterlimit="10" stroke-width=".79439" d="M226.90234 82.33203v5.64844"/><use xlink:href="#g" x="221.95606" y="108.08582"/><use xlink:href="#h" x="187.70424" y="35.104"/><path fill="none" stroke="#000" stroke-miterlimit="10" stroke-width=".79439" d="M201.47266 56.90235h-5.64844"/><use xlink:href="#g" x="178.5186" y="63.24799"/><g clip-path="url(#i)"><path fill="none" stroke="#00007F" stroke-miterlimit="10" stroke-width=".79439" d="m.87506 26.02345 3.99218-.01953 3.9961-.01953 11.98828-.04687 3.99218-.01172 7.99219-.01563 3.99609-.0039h3.99219l3.99609.0039 3.99609.00782 3.9961.01562 3.99218.02344 3.9961.02734 3.99608.04297 3.9961.05078 3.99218.0625 3.9961.08203 3.99609.10157 3.9961.12109 3.99218.15234 3.99609.1836 3.9961.22265 3.99609.26953 3.99218.32813 3.9961.40234 3.99609.48438 3.99609.59765 3.99219.73438 3.99609.90234 3.99609 1.11719 3.9961 1.38672 3.99218 1.73828 3.9961 2.1836 3.99608 2.7617 3.9961 3.5 3.99218 4.45313 3.9961 5.65625 3.99609 7.13281 3.9961 8.84375 3.99218 10.60156 3.99609 12.01953 3.9961 12.39452 3.99609 10.99219 3.99218 7.48828 3.9961 2.58203 3.99609-2.33594 3.99609-5.98047 3.99219-7.92578 3.99609-8.45702 3.9961-8.11328 3.99608-7.33203 3.99219-6.42188 3.9961-5.53906 3.99608-4.74218 3.9961-4.04297 3.99218-3.46484 3.9961-2.97266 3.99609-2.5664 3.9961-2.22266 3.99218-1.9375 3.9961-1.69922 3.99608-1.49609 3.9961-1.32422 3.99218-1.17578 3.9961-1.05469 3.99609-.9453 3.99609-.85157 3.99219-.77344 3.99609-.69922 3.9961-.63672 3.99608-.58593 3.99219-.53516 3.9961-.49219 3.99609-.45312 3.99609-.41797 3.99218-.39063 3.9961-.35937 3.99609-.33984 3.9961-.3125 3.99218-.29297 3.9961-.27344 3.99608-.25781 3.9961-.24219 3.99218-.23047 3.9961-.21484 3.99609-.20313 3.99609-.1914 3.99219-.1797 3.99609-.17577 3.9961-.16016 3.99608-.15625 3.9922-.14844 3.99608-.14062 3.9961-.13281 3.99609-.1289 3.99218-.125 3.9961-.11329"/></g><use xlink:href="#j" x="371.75702" y="25.97616" fill="#00007F"/><g clip-path="url(#k)"><path fill="none" stroke="red" stroke-miterlimit="10" stroke-width=".79439" d="M396.42182 28.64845H.87506"/></g><use xlink:href="#l" x="8.29013" y="48.97217" fill="red"/></svg>