<svg xmlns="http://www.w3.org/2000/svg" xmlns:xlink="http://www.w3.org/1999/xlink" width="340.556pt" height="170.477pt" viewBox="0 0 340.556 170.477"><defs><path id="a" d="M.59375-.73437c0 .53125.4375.95312 1.1875.95312 1.28125 0 1.98438-1.26562 2.76563-2.51562l.75-1.23438h.04687L5.6875-2.0625C6.03125-.57812 6.375.21875 7.32813.21875c1.375 0 2.07812-1.40625 2.64062-2.54687l-.46875-.25C9.03125-1.75 8.51563-.75 8-.75c-.35937 0-.5-.42187-.90625-2.09375L6.5-5.28125c.67188-1.1875 1.625-2.6875 2.15625-2.6875.5625 0 .57813.29688 1.14063.29688.40625 0 .78125-.39063.78125-.89063 0-.57812-.4375-.8125-.95313-.8125-.98437 0-1.8125.89063-2.46875 1.95313l-.82812 1.26562h-.03125l-.75-3.14062L5.4375-9.375l-3.07812.9375.04687.45313L3.875-8.07812c.29688 0 .4375.14062.60938.92187l.65625 2.70313-.51563.89062c-.79687 1.375-1.48437 2.34375-1.9375 2.34375-.54687 0-.6875-.45312-1.28125-.45312-.46875 0-.8125.48437-.8125.9375m0 0"/><path id="b" d="M-.39062 3.4375C-.375 4.04688.4375 4.51563 1.3125 4.51563 3.17188 4.51563 3.96875 3 4.75-.57812L6.46875-8.4375h2.375l.17188-.71875H6.59375l.51563-2.10937c.35937-1.40625.71875-1.9375 1.23437-1.9375.5 0 .82813.40625 1.25 1.3125.09375.17187.23438.3125.51563.3125.375 0 .90625-.34375.90625-.8125 0-.79688-1-1.45313-2.125-1.45313-2.20313 0-3.10938 1.54688-3.82813 4.01563l-.20312.67187H3.25l-.21875.71875h1.67188l-2.15625 11c-.21875 1.15625-.42188 1.26563-.59375 1.26563-.20313 0-.5-.14063-1-.90625C.8125 2.73438.6875 2.5.45313 2.5c-.40625 0-.84375.45313-.84375.9375m0 0"/><path id="d" d="M1.60938-5.26562c0 4.21875.95312 8.84375 4.90625 9v-.5625c-1.32813-.25-3.42188-1.90625-3.42188-8.4375 0-6.48438 1.98438-8.14063 3.42188-8.4375v-.5625c-3.95313.17187-4.90625 4.79687-4.90625 9m0 0"/><path id="e" d="M1.10938 3.17188v.5625c3.95312-.15625 4.90625-4.78125 4.90625-9 0-4.20313-.95313-8.82813-4.90625-9v.5625c1.4375.29687 3.42187 1.95312 3.42187 8.4375 0 6.53125-2.09375 8.1875-3.42187 8.4375m0 0"/><path id="k" d="M1.95313-5.9375c0 .67188.45312 1.17188 1.17187 1.17188.73438 0 1.14063-.5 1.17188-1.17188 0-.70312-.4375-1.21875-1.17188-1.21875-.71875 0-1.17187.51563-1.17187 1.21875m6.20312 0c0 .67188.46875 1.17188 1.17188 1.17188.73437 0 1.15625-.5 1.17187-1.17188 0-.70312-.4375-1.21875-1.17187-1.21875-.70313 0-1.17188.51563-1.17188 1.21875m6.21875 0c0 .67188.45313 1.17188 1.17188 1.17188.73437 0 1.15625-.5 1.17187-1.17188 0-.70312-.4375-1.21875-1.17187-1.21875-.71875 0-1.17188.51563-1.17188 1.21875m0 0"/><path id="l" d="M1.40625-2.8125c0 1.625.73438 3.03125 2.76563 3.03125 1.39062 0 2.51562-1.375 3.32812-2.54687C7.5-.5625 7.78125.21875 8.67188.21875c1.89062 0 2.89062-1.98437 3.17187-2.6875l-.46875-.25C10.90625-1.76562 10.125-.75 9.71875-.75c-.53125 0-.54687-.95312-.54687-1.42187 0-.8125.10937-1.90625.21875-2.85938l2.82812-4.125h-1.375L9.3125-6.17187c0-2.5-.67187-3.20313-2.70312-3.20313-3.59375 0-5.20313 3.85938-5.20313 6.5625m1.8125.04688c0-2.15625 1.15625-5.95313 3.42188-5.95313.89062 0 1.14062 1.25 1.14062 2.64063 0 .78125-.0625 1.60937-.15625 2.32812C6.65625-2.1875 5.6875-.78125 4.45313-.78125c-.9375 0-1.23438-.92187-1.23438-1.98437m0 0"/><path id="m" d="M1.59375-4.71875h4.57813v4.57813h1.09375v-4.57813h4.59375V-5.8125H7.26563v-4.59375H6.17188v4.59375H1.59375Zm0 0"/><path id="n" d="M.78125-6.23437C.78125-2.5 1.85938.21875 4.9375.21875S9.14063-2.5 9.14063-6.23437s-1.125-6.45313-4.20313-6.45313S.78125-9.96875.78125-6.23437m1.875 0c0-3.04688.51563-5.79688 2.28125-5.79688 1.78125 0 2.29688 2.75 2.29688 5.79688 0 3.03125-.51563 5.79687-2.29688 5.79687-1.76562 0-2.28125-2.76562-2.28125-5.79687m0 0"/><path id="o" d="M1.59375-4.71875h10.26563V-5.8125H1.59375Zm0 0"/><path id="c" d="M.57813-.1875C.57813-.125.73437 0 .92188 0c.10937 0 .3125-.03125.34375-.10937l2.34375-5.98438c.07812-.1875.09375-.29687.09375-.35937 0-.28125-.4375-.39063-.84375-.39063-.39063 0-1.01563.15625-1.04688.40625Zm0 0"/><path id="p" d="M-.20312 1.71875c.01562.3125.42187.53125.85937.53125.9375 0 1.32813-.75 1.71875-2.53125l.85938-3.9375h1.1875l.09375-.35937H3.29688l.26562-1.0625c.17188-.70313.35938-.96875.60938-.96875s.42187.20312.625.65625c.04687.09375.125.15625.26562.15625.1875 0 .45313-.17188.45313-.40625 0-.39063-.5-.71875-1.0625-.71875-1.10938 0-1.5625.76562-1.92188 2l-.09375.34375H1.625l-.10937.35937h.84375l-1.09375 5.5c-.10938.57813-.20313.64063-.29688.64063s-.25-.07813-.48437-.46875C.40625 1.375.34375 1.25.23438 1.25c-.21875 0-.4375.23438-.4375.46875m0 0"/><path id="q" d="M.8125-2.64062c0 2.10937.46875 4.42187 2.45313 4.51562v-.28125c-.67188-.14062-1.71875-.95312-1.71875-4.23437 0-3.25 1-4.0625 1.71875-4.21875v-.28125C1.28125-7.0625.8125-4.73437.8125-2.64062m0 0"/><path id="r" d="M.70313-1.40625c0 .8125.375 1.51563 1.39062 1.51563.6875 0 1.25-.6875 1.65625-1.26563 0 .875.14063 1.26563.59375 1.26563.9375 0 1.4375-1 1.57813-1.34375l-.23438-.125c-.23437.46875-.625.98437-.82812.98437-.26563 0-.26563-.48437-.26563-.70312 0-.40625.04688-.95313.10938-1.4375l1.40625-2.0625h-.6875l-.76563 1.48437c0-1.25-.32812-1.59375-1.34375-1.59375-1.79687 0-2.60937 1.92188-2.60937 3.28125m.90625.03125c0-1.09375.57812-2.98437 1.70312-2.98437.45313 0 .57813.625.57813 1.3125 0 .39062-.03125.8125-.07813 1.17187-.48437.78125-.96875 1.48438-1.59375 1.48438-.45312 0-.60937-.46875-.60937-.98438m0 0"/><path id="s" d="M.5625 1.59375V1.875c1.96875-.09375 2.45313-2.40625 2.45313-4.51562 0-2.09375-.48438-4.42188-2.45313-4.5v.28125c.70313.15625 1.70313.96875 1.70313 4.21875 0 3.28125-1.04688 4.09375-1.70313 4.23437m0 0"/><path id="t" d="M.79688.07813H5.9375v-.54688H.79688Zm0-3.09375 5.14062 1.6875v-.59375L1.625-3.34375 5.9375-4.75v-.59375L.79688-3.65625Zm0 0"/><path id="u" d="M.29688-2.53125c0 1.54688.89062 2.67188 2.75 2.67188C4.6875.14063 5.5-.70312 6.01563-1.625c.5-.92187.59375-1.875.59375-2.23437 0-1.92188-1.15625-2.75-2.70313-2.75-1.48437 0-2.42187.82812-2.96875 1.71875-.51562.85937-.64062 1.75-.64062 2.35937m.98437.39063c0-.79688.15625-1.67188.57813-2.5625.42187-.89063 1.09375-1.57813 2.07812-1.57813 1.03125 0 1.6875.60938 1.6875 1.92188 0 .54687-.04687 1.3125-.4375 2.29687-.39062 1.01563-1.03125 1.875-2.23437 1.875-1.01563 0-1.67188-.65625-1.67188-1.95312m0 0"/><clipPath id="f"><path d="M.30078 56H339.8125v1H.30078Zm0 0"/></clipPath><clipPath id="g"><path d="M.30078 113H339.8125v1H.30078Zm0 0"/></clipPath><clipPath id="h"><path d="M.30078 169H339.8125v.95703H.30078Zm0 0"/></clipPath><clipPath id="i"><path d="M.30078 0H339.8125v169.95703H.30078Zm0 0"/></clipPath><clipPath id="j"><path d="M56 0h2v169.95703h-2Zm0 0"/></clipPath></defs><use xlink:href="#a" x="23.06563" y="33.03665"/><use xlink:href="#b" x="11.80218" y="90.11653"/><use xlink:href="#c" x="23.46241" y="82.17091"/><use xlink:href="#d" x="28.50494" y="90.11653"/><use xlink:href="#a" x="36.13285" y="90.11653"/><use xlink:href="#e" x="47.95213" y="90.11653"/><use xlink:href="#b" x="11.80218" y="146.37394"/><use xlink:href="#d" x="23.46255" y="146.37394"/><use xlink:href="#a" x="31.09045" y="146.37394"/><use xlink:href="#e" x="42.90974" y="146.37394"/><g clip-path="url(#f)"><path fill="none" stroke="#000" stroke-miterlimit="10" stroke-width=".39728" d="M.4961 56.71878h339.12516"/></g><g clip-path="url(#g)"><path fill="none" stroke="#000" stroke-miterlimit="10" stroke-width=".39728" d="M.4961 113.23834h339.12516"/></g><g clip-path="url(#h)"><path fill="none" stroke="#000" stroke-miterlimit="10" stroke-width=".39728" d="M.4961 169.7579h339.12516"/></g><g clip-path="url(#i)"><path fill="none" stroke="#000" stroke-miterlimit="10" stroke-width=".39728" d="M.4961.19922v169.55867h339.12516V.19922Zm0 0"/></g><g clip-path="url(#j)"><path fill="none" stroke="#000" stroke-miterlimit="10" stroke-width=".39728" d="M57.01956.19922v169.55867"/></g><use xlink:href="#k" x="75.94141" y="32.03372"/><use xlink:href="#l" x="191.791" y="33.03665"/><use xlink:href="#k" x="302.01884" y="32.03372"/><use xlink:href="#m" x="135.08297" y="90.18233"/><path fill="none" stroke="#000" stroke-dasharray=".39728059000000004 1.986452797" stroke-miterlimit="10" stroke-width=".39728" d="M198.3204 56.71878v56.51956"/><use xlink:href="#n" x="193.37016" y="91.21516"/><use xlink:href="#o" x="248.12119" y="87.88737"/><path fill="#FFF" d="M83.29297 165.78516h3.97266v-3.97266h-3.97266Zm0 0"/><path fill="#FFF" d="M83.29297 165.78516h3.97266v-3.97266h-3.97266Zm94.22266-35.21485h41.60546v-13.35937h-41.60547Zm0 0"/><use xlink:href="#p" x="179.50071" y="126.32844"/><use xlink:href="#q" x="185.33089" y="126.32844"/><use xlink:href="#r" x="189.14484" y="126.32844"/><use xlink:href="#s" x="195.83912" y="126.32844"/><use xlink:href="#t" x="201.57992" y="126.32844"/><use xlink:href="#u" x="210.22091" y="126.32844"/><path fill="#FFF" d="M177.51563 130.57031h41.60546v-13.35937h-41.60547Zm0 0"/><use xlink:href="#p" x="179.50071" y="126.32844"/><use xlink:href="#q" x="185.33089" y="126.32844"/><use xlink:href="#r" x="189.14484" y="126.32844"/><use xlink:href="#s" x="195.83912" y="126.32844"/><use xlink:href="#t" x="201.57992" y="126.32844"/><use xlink:href="#u" x="210.22091" y="126.32844"/><path fill="none" stroke="#000" stroke-miterlimit="10" stroke-width=".39728" d="m91.12504 161.73445 80.2852-28.35548"/><path d="M173.65625 132.58594c-1.0039.14453-2.82031.36328-4.24219-.08203 1.30078.69922 1.5664 1.44922.99219 2.80859.82813-1.23828 2.3789-2.20703 3.25-2.72656m0 0"/><path fill="#FFF" d="M309.3711 165.78516h3.97265v-3.97266h-3.97266Zm0 0"/><path fill="#FFF" d="M309.3711 165.78516h3.97265v-3.97266h-3.97266Zm0 0"/><path fill="none" stroke="#000" stroke-miterlimit="10" stroke-width=".39728" d="m222.98058 132.586 80.2852 28.35939"/><path d="M305.51172 161.73828c-.86719-.51953-2.42188-1.48828-3.25-2.72656.57422 1.35937.3086 2.10937-.99219 2.8086 1.42188-.44532 3.24219-.22657 4.24219-.08204m0 0"/></svg>