<svg xmlns="http://www.w3.org/2000/svg" xmlns:xlink="http://www.w3.org/1999/xlink" width="191.737pt" height="143.402pt" viewBox="0 0 191.737 143.402"><defs><path id="c" d="M.59375-5.04687c0 3.07812 1.76563 5.32812 5.48438 5.32812C9.35938.28125 10.96875-1.40625 12-3.25c1.01563-1.82812 1.20313-3.73437 1.20313-4.46875 0-3.82812-2.32813-5.48437-5.40625-5.48437-2.96875 0-4.8125 1.65625-5.90625 3.4375C.85938-8.03125.59375-6.26562.59375-5.04687m1.96875.76562c0-1.57812.29688-3.3125 1.14063-5.125.85937-1.76562 2.1875-3.14062 4.17187-3.14062 2.04688 0 3.35938 1.21875 3.35938 3.85937 0 1.0625-.10938 2.59375-.875 4.57813-.78125 2-2.04688 3.73437-4.46875 3.73437C3.875-.375 2.5625-1.6875 2.5625-4.28125m0 0"/><path id="g" d="M-.35937 0h4.20312l.125-.53125L2.9375-.64062c-.23437-.01563-.34375-.14063-.34375-.3125 0-.09376.04688-.23438.10938-.375.60937-1.1875 1.20312-2.40625 1.90625-3.65625h4.1875L9.25-1.125s-.10937.45313-.5.48438l-.98437.10937L7.65625 0H12.25l.10938-.53125-.71875-.0625c-.5625-.0625-.64063-.3125-.75-1.09375L9.53125-12.90625H8.20313l-3.14063 5.5c-.95312 1.67188-2.5 4.45313-3.20312 5.5625C1.26563-.875.95313-.67187.375-.60937l-.60937.07812Zm5.34375-5.6875 3.03125-5.48437.67187 5.48437Zm0 0"/><path id="d" d="M-6.42187-11.15625h3.40625l-.6875 1.0625.48437.4375c.6875-.75 1.46875-1.29687 2.5-1.73437v-.46875c-1.04687-.45313-1.8125-.98438-2.5-1.73438l-.48437.46875.6875 1.0625h-3.40625Zm0 0"/><path id="e" d="M1.92188-.76562c0 .59375.29687.96875.96875.96875 1.21875 0 2.14062-1.15625 2.71875-2.42188l-.40625-.23437c-.3125.59375-1.04688 1.78125-1.5 1.78125-.20313 0-.28125-.125-.28125-.34375 0-.15626.04687-.35938.09375-.57813l1.84375-6.75-.09375-.07812-3.04688.45312-.10937.42188.96875.07812C3.375-7.45312 3.5-7.35937 3.5-7.125c0 .10938-.01562.25-.07812.42188l-1.40625 5.25c-.0625.25-.09375.46875-.09375.6875m0 0"/><path id="f" d="M-1.25 2.98438c0 .89062 1.17188 1.0625 1.78125 1.0625.5625 0 1.09375-.17188 1.5-.54688.76563-.70312 1.23438-1.76562 1.6875-3.78125l1.75-8.0625-.09375-.07812-3.20312.5L2.07813-7.5c1.09375.04688 1.46875.09375 1.46875.35938 0 .125-.01563.23437-.04688.375L1.53125 2.65625c-.10937.51563-.25.76563-.45312.76563-.6875 0-1.03125-1.29688-1.53125-1.29688-.42188 0-.79688.53125-.79688.85938m0 0"/><clipPath id="a"><path d="M.26563 115H191v1H.26563Zm0 0"/></clipPath><clipPath id="b"><path d="M188 112h3.20703v6H188Zm0 0"/></clipPath></defs><g clip-path="url(#a)"><path fill="none" stroke="#000" stroke-miterlimit="10" stroke-width=".39685" d="M.46485 115.19922h190.1484"/></g><g clip-path="url(#b)"><path fill="none" stroke="#000" stroke-linecap="round" stroke-linejoin="round" stroke-miterlimit="10" stroke-width=".39685" d="M188.75 112.82031c.375 1.42578 1.21484 2.10157 2.0625 2.3789-.84766.27735-1.6875.95313-2.0625 2.38282"/></g><path fill="none" stroke="#000" stroke-miterlimit="10" stroke-width=".39685" d="M42.8086 136.37109V30.91018"/><path fill="none" stroke="#000" stroke-linecap="round" stroke-linejoin="round" stroke-miterlimit="10" stroke-width=".39685" d="M40.42578 32.77344c1.42969-.375 2.10547-1.21485 2.38281-2.0625.27735.84765.95313 1.6875 2.38282 2.0625"/><path fill="none" stroke="#000" stroke-miterlimit="10" stroke-width=".39685" d="M21.63672 113.08203v4.23438m42.34374-4.23438v4.23438m21.17187-4.23438v4.23438m21.17187-4.23438v4.23438m21.17187-4.23438v4.23438m21.17188-4.23438v4.23438m21.17186-4.23438v4.23438M44.92578 94.02735h-4.23437m4.23437-21.17187h-4.23437m4.23437-21.17188h-4.23437"/><use xlink:href="#c" x="22.00751" y="135.40535"/><path fill="none" stroke="#000" stroke-miterlimit="10" stroke-width=".7937" d="M42.8086 115.19922h20.3789"/><path fill="none" stroke="#000" stroke-linecap="round" stroke-linejoin="round" stroke-miterlimit="10" stroke-width=".7937" d="M61.04297 112.10156c.46484 1.85938 1.5 2.73828 2.53906 3.09766-1.03906.36328-2.07422 1.23828-2.53906 3.09765"/><use xlink:href="#d" x="58.42066" y="135.7997"/><use xlink:href="#e" x="50.74268" y="135.99688"/><path fill="none" stroke="#000" stroke-miterlimit="10" stroke-width=".7937" d="M42.8086 115.19922v-20.3789"/><path fill="none" stroke="#000" stroke-linecap="round" stroke-linejoin="round" stroke-miterlimit="10" stroke-width=".7937" d="M39.71094 96.96484c1.85937-.46484 2.73828-1.5 3.09765-2.53906.36328 1.03906 1.23828 2.07422 3.09766 2.53906"/><use xlink:href="#d" x="37.24397" y="109.28328"/><use xlink:href="#f" x="29.56599" y="109.48046"/><path fill="none" stroke="red" stroke-miterlimit="10" stroke-width=".7937" d="M45.98437.39456s.51563 1.90625.71485 2.625c.19922.72265.51953 1.87109.71875 2.57812.19922.71094.51562 1.83594.71484 2.53125.19922.6914.51953 1.79688.71484 2.48047.19922.67969.51954 1.76172.71875 2.42969.19922.66796.51563 1.73046.71485 2.3828.19922.65626.51953 1.69532.71484 2.33594.19922.64063.51953 1.66016.71875 2.28516.19922.6289.51563 1.625.71485 2.23828.19921.61719.51953 1.58984.71875 2.1914.1953.60157.51562 1.5547.71484 2.14063.19922.58594.51562 1.51953.71484 2.09375s.51953 1.48438.71875 2.04297c.19531.5625.51563 1.44922.71485 1.9961.19921.54687.51562 1.41405.71484 1.94921.19922.53125.51953 1.3789.71875 1.89844s.51562 1.34375.71484 1.84765c.19922.50782.51563 1.3086.71485 1.8047.19921.49218.51953 1.27343.71875 1.7539.19921.47656.51562 1.23828.71484 1.70312.19922.46875.51562 1.20313.71484 1.65625.19922.45313.51953 1.16797.71875 1.60938.19922.4375.51563 1.1328.71485 1.55859s.51953 1.09765.71484 1.51172c.19922.41406.51953 1.0625.71875 1.46484.19922.39844.51562 1.02734.71484 1.41406.19922.38282.51954.9922.71485 1.36328.19922.375.51953.96094.71875 1.32032.19922.35546.51562.92187.71484 1.26562.19922.34766.51953.89063.71875 1.22266.19531.33203.51563.85156.71484 1.17187.19922.3164.51563.8164.71485 1.125.19922.30469.51953.78125.71875 1.07422.19531.28906.51562.7461.71484 1.02734.19922.27735.51563.71094.71484.97657.19922.26562.51954.67968.71875.92968.19922.25.51563.64453.71485.88281.19922.23829.51562.60938.71484.83204s.51953.57422.71875.78515.51563.53906.71485.73438c.19921.19922.51953.5039.71484.6875.19922.1836.51953.46875.71875.64062.19922.16797.51562.4336.71484.58985s.51953.39843.71485.54296c.19921.14063.51953.36329.71875.4922.19921.1289.51562.32812.71484.4453.19922.1172.51953.29297.71875.39844.19531.10156.51562.25781.71484.34766.19922.08984.51563.22265.71485.30078.19921.07422.51953.1875.71875.25.1953.0625.51562.15234.71484.20312.19922.05079.51562.1172.71484.15235.19922.03906.51953.08594.71875.10937.19922.01953.51563.04688.71485.05469.19922.01172.51562.01563.71484.01172.19922-.00781.51953-.02344.71875-.04297.19922-.01563.51563-.05469.71484-.08594.19922-.03125.51563-.08984.71485-.13672.19922-.04297.51953-.125.71875-.18359s.51562-.16406.71484-.23437c.19922-.07032.51953-.19532.71484-.28125.19922-.08594.51954-.23047.71875-.33204.19922-.09765.51563-.26562.71485-.375.19922-.11328.51953-.30468.71484-.42968.19922-.125.51953-.33594.71875-.47657.19922-.13671.51563-.37109.71484-.52343.19922-.14844.51954-.40625.71875-.57032.19532-.16796.51563-.4414.71485-.62109s.51562-.47656.71484-.66797c.19922-.19531.51953-.51172.71875-.71875.19531-.20703.51563-.54687.71485-.76562.19921-.22266.51562-.58203.71484-.8164.19922-.23048.51953-.6172.71875-.86329s.51562-.65234.71484-.91016c.19922-.26171.51563-.6875.71485-.96093.19921-.27344.51953-.72266.71875-1.00782.19921-.28906.51562-.7578.71484-1.05859s.51953-.78906.71484-1.10547c.19922-.3125.51953-.82422.71875-1.15234.19922-.32813.51563-.86328.71485-1.20313.19921-.33984.51953-.89843.71484-1.25.19922-.35546.51953-.93359.71875-1.30078.19922-.36718.51562-.96484.71484-1.34765.19922-.3789.51953-1 .71875-1.39453.19532-.39453.51563-1.03907.71485-1.44532.19922-.40624.51562-1.07421.71484-1.49218.19922-.42188.51953-1.10938.71875-1.54297.19531-.4336.51563-1.14063.71484-1.58984.19922-.44922.51563-1.17578.71485-1.63672.19922-.46485.51953-1.21485.71875-1.6875.19531-.47656.51562-1.25.71484-1.73828s.51563-1.28125.71484-1.78125c.19922-.5039.51954-1.3164.71875-1.83203.19922-.51563.51563-1.35157.71485-1.88282.19922-.52734.51562-1.38671.71484-1.92968.19922-.53907.51953-1.42188.71875-1.97656.19922-.5547.51563-1.45704.71484-2.02735.19922-.5664.51954-1.49218.71485-2.07422.19922-.58203.71875-2.12109.71875-2.12109"/><path d="M87.26953 72.85547c0-1.16797-.94922-2.11719-2.11719-2.11719s-2.11718.94922-2.11718 2.11719.94921 2.11719 2.11718 2.11719 2.1172-.94922 2.1172-2.1172m0 0"/><use xlink:href="#g" x="78.75287" y="55.26056"/><path fill="none" stroke="#0F0" stroke-miterlimit="10" stroke-width=".7937" d="M64.77343 72.85548h51.34374"/><path fill="none" stroke="#0F0" stroke-linecap="round" stroke-linejoin="round" stroke-miterlimit="10" stroke-width=".7937" d="M66.91797 75.95312c-.46485-1.85937-1.5-2.73437-2.53906-3.09765 1.03906-.35938 2.07421-1.23828 2.53906-3.09766m47.05469 0c.46484 1.85938 1.5 2.73828 2.53906 3.09766-1.03906.36328-2.07422 1.23828-2.53906 3.09765"/></svg>