<svg xmlns="http://www.w3.org/2000/svg" xmlns:xlink="http://www.w3.org/1999/xlink" width="234.257pt" height="212.997pt" viewBox="0 0 234.257 212.997"><defs><path id="e" d="M.59375-5.04687c0 3.07812 1.76563 5.32812 5.48438 5.32812 3.29687 0 4.90625-1.6875 5.9375-3.53125 1.01562-1.82812 1.1875-3.73437 1.1875-4.46875 0-3.84375-2.3125-5.48437-5.39063-5.48437-2.98437 0-4.82812 1.64062-5.92187 3.4375C.85938-8.04687.59375-6.28125.59375-5.04687m1.96875.75c0-1.5625.29688-3.3125 1.15625-5.10938.84375-1.78125 2.17188-3.14062 4.17188-3.14062 2.03125 0 3.34375 1.20312 3.34375 3.84375 0 1.07812-.09375 2.60937-.875 4.59375-.76563 2-2.03125 3.73437-4.46875 3.73437C3.875-.375 2.5625-1.6875 2.5625-4.29687m0 0"/><path id="i" d="M1.3125-2c0 1.10938.51563 2.21875 1.78125 2.21875 2.01563 0 3.73438-2.29687 4.82813-4.20312h.04687l-.64062 2.125c-.125.40625-.20313.76562-.20313 1.0625 0 .65625.32813 1.01562 1.01563 1.01562 1.40625 0 2.46875-1.26562 3.09375-2.6875l-.4375-.25C10.46875-2.0625 9.625-.75 9.10938-.75c-.21875 0-.29688-.14062-.29688-.35937 0-.1875.0625-.40625.125-.65625l1.96875-7.45313H9.32813l-.07813.25C8.9375-9.1875 8.375-9.375 7.89063-9.375 3.4375-9.375 1.3125-4.46875 1.3125-2m1.84375-.04687c0-2.04688 1.82813-6.67188 4.76563-6.67188.45312 0 .85937.15625 1.14062.42188-.34375 1.39062-1 3.23437-2 4.71875C6.01563-1.98437 4.85938-.75 3.96875-.75c-.60937 0-.8125-.5625-.8125-1.29687m0 0"/><path id="j" d="M-.39062 3.4375C-.375 4.04688.4375 4.51563 1.3125 4.51563 3.17188 4.51563 3.96875 3 4.75-.57812L6.46875-8.4375h2.375l.17188-.71875H6.59375l.51563-2.10937c.35937-1.40625.71875-1.9375 1.23437-1.9375.5 0 .82813.40625 1.25 1.3125.09375.17187.23438.3125.51563.3125.375 0 .90625-.34375.90625-.8125 0-.79688-1-1.45313-2.125-1.45313-2.20313 0-3.10938 1.54688-3.82813 4.01563l-.20312.67187H3.25l-.21875.71875h1.67188l-2.15625 11c-.21875 1.15625-.42188 1.26563-.59375 1.26563-.20313 0-.5-.14063-1-.90625C.8125 2.73438.6875 2.5.45313 2.5c-.40625 0-.84375.45313-.84375.9375m0 0"/><path id="k" d="M1.60938-5.26562c0 4.21875.95312 8.84375 4.90625 9v-.5625c-1.32813-.25-3.42188-1.90625-3.42188-8.4375 0-6.48438 1.98438-8.14063 3.42188-8.4375v-.5625c-3.95313.17187-4.90625 4.79687-4.90625 9m0 0"/><path id="l" d="M1.10938 3.17188v.5625c3.95312-.15625 4.90625-4.78125 4.90625-9 0-4.20313-.95313-8.82813-4.90625-9v.5625c1.4375.29687 3.42187 1.95312 3.42187 8.4375 0 6.53125-2.09375 8.1875-3.42187 8.4375m0 0"/><path id="f" d="M-6.4375-11.17187h3.42188l-.6875 1.07812.48437.42188c.6875-.75 1.46875-1.28125 2.5-1.73438v-.46875c-1.04687-.4375-1.8125-.98437-2.5-1.73437l-.48437.46875.6875 1.07812H-6.4375Zm0 0"/><path id="g" d="M1.9375-.76562c0 .59375.28125.96875.95313.96875 1.21875 0 2.15625-1.15625 2.71875-2.42188l-.40625-.23437c-.3125.59375-1.03125 1.78125-1.5 1.78125-.20313 0-.26563-.125-.26563-.34375 0-.17188.03125-.35938.07813-.57813l1.84375-6.75-.09375-.09375-3.04688.46875-.10937.40625.96875.09375C3.375-7.45312 3.5-7.35937 3.5-7.125c0 .09375-.01562.25-.0625.42188l-1.42187 5.25c-.0625.25-.07813.46875-.07813.6875m0 0"/><path id="h" d="M-1.25 2.98438C-1.25 3.875-.07812 4.0625.53125 4.0625c.5625 0 1.09375-.1875 1.5-.5625.78125-.6875 1.23438-1.76562 1.6875-3.78125l1.75-8.0625L5.375-8.4375l-3.1875.5-.10937.4375c1.10937.04688 1.48437.07813 1.48437.34375 0 .125-.01562.23438-.0625.375l-1.96875 9.4375c-.09375.53125-.25.78125-.45312.78125-.6875 0-1.03125-1.3125-1.53125-1.3125-.42188 0-.79688.53125-.79688.85938m0 0"/><clipPath id="a"><path d="M0 169h233.51563v2H0Zm0 0"/></clipPath><clipPath id="b"><path d="M230 167h3.51563v6H230Zm0 0"/></clipPath><clipPath id="c"><path d="M105 .33594h2v212.32422h-2Zm0 0"/></clipPath><clipPath id="d"><path d="M103 .33594h6V3h-6Zm0 0"/></clipPath></defs><g clip-path="url(#a)"><path fill="none" stroke="#000" stroke-miterlimit="10" stroke-width=".39724" d="M.19534 170.07422h232.7265"/></g><g clip-path="url(#b)"><path fill="none" stroke="#000" stroke-linecap="round" stroke-linejoin="round" stroke-miterlimit="10" stroke-width=".39724" d="M231.05469 167.6914c.3789 1.4297 1.21875 2.10547 2.0664 2.38282-.84765.27734-1.6875.95312-2.0664 2.38281"/></g><g clip-path="url(#c)"><path fill="none" stroke="#000" stroke-miterlimit="10" stroke-width=".39724" d="M106.16016 212.46093V.92973"/></g><g clip-path="url(#d)"><path fill="none" stroke="#000" stroke-linecap="round" stroke-linejoin="round" stroke-miterlimit="10" stroke-width=".39724" d="M103.77734 2.79687c1.4297-.3789 2.10547-1.21875 2.38282-2.0664.27734.84765.95312 1.6875 2.3828 2.0664"/></g><path fill="none" stroke="#000" stroke-miterlimit="10" stroke-width=".39724" d="M21.39065 167.95703v4.23828m21.1914-4.23828v4.23828m21.19531-4.23828v4.23828m21.1914-4.23828v4.23828m42.3867-4.23828v4.23828m21.1914-4.23828v4.23828m21.1914-4.23828v4.23828m21.19531-4.23828v4.23828m21.1914-4.23828v4.23828m-103.84372 19.07421h-4.23828m4.23828-42.3867h-4.23828m4.23828-21.19531h-4.23828m4.23828-21.1914h-4.23828m4.23828-21.1914h-4.23828m4.23828-21.19531h-4.23828m4.23828-21.1914h-4.23828m4.23828-21.1914h-4.23828"/><use xlink:href="#e" x="85.34032" y="190.3007"/><path fill="none" stroke="#000" stroke-miterlimit="10" stroke-width=".79449" d="M106.16016 170.07422h20.39843"/><path fill="none" stroke="#000" stroke-linecap="round" stroke-linejoin="round" stroke-miterlimit="10" stroke-width=".79449" d="M124.41406 166.97266c.46485 1.86328 1.5 2.74218 2.54297 3.10156-1.04297.36328-2.07812 1.24219-2.54297 3.10156"/><use xlink:href="#f" x="121.79071" y="190.69545"/><use xlink:href="#g" x="114.1031" y="190.89282"/><path fill="none" stroke="#000" stroke-miterlimit="10" stroke-width=".79449" d="M106.16016 170.07422v-20.39843"/><path fill="none" stroke="#000" stroke-linecap="round" stroke-linejoin="round" stroke-miterlimit="10" stroke-width=".79449" d="M103.0586 151.82031c1.86328-.46484 2.74218-1.5 3.10156-2.54297.36328 1.04297 1.24218 2.07813 3.10156 2.54297"/><use xlink:href="#f" x="100.59295" y="164.15264"/><use xlink:href="#h" x="92.90533" y="164.35001"/><path fill="none" stroke="red" stroke-miterlimit="10" stroke-width=".79449" d="m21.39065 127.68751.85547.21485.85547.21875.85547.21484 1.71093.4375.85938.21875 2.5664.66797 2.5664.67969.85548.23046.85937.23047.85547.23047 2.5664.70313 1.71094.47656.85938.23828.85547.24219.85546.2461.85547.24218.85547.2461 2.5664.75.85938.2539 2.5664.77344 1.71094.52343 1.71094.53125.85938.26953 1.71093.54688 1.71094.55469 1.71094.5625.85937.28515.85547.28906 1.71094.58594.85547.29688 1.71093.60156.85547.30469.85938.30859.85546.3125.85547.3164 1.71094.64063.85547.32813.85547.33203.85937.33203.85547.33984.85547.34375.85547.34766.85547.35156.85546.35547.85547.36328.85547.36719.85938.375.85546.3789.85547.38672.85547.39063.85547.39843.85547.40625.85547.41407.85547.42187.85937.42969.85547.4375.85547.44922.85547.45703.85546.47265.85547.48047.85547.4961.85938.5078.85546.52345.85547.53906.85547.5586.85547.58202.85547.60157.85547.625.85546.65625.85938.6914.85547.73047.85547.77344.85547.83593.85546.90625.85547 1 .85547 1.13672.85547 1.34375.85937 1.74219.85547 3.54297m1.08985-60.72264.6289 1.17969.63281 1.14453.62891 1.10546.63281 1.06641.63281 1.03125.62891.99219.63281.95312.6289.91797.63282.8789.63281.84376.62891.80468.63281.76563.6289.73047.63282.6914.63281.65625.6289.61328.63282.58203.6289.53907.63282.5039.6289.46485.63282.42969.63281.39062.6289.35547.63282.3125.6289.28125.63282.23828.63281.20312.6289.16407.63282.1289.6289.08985.63282.05468.6328.01172.62891-.01953.63282-.0625.6289-.09766.63282-.13671.6328-.17188.62891-.21094.63282-.25.6289-.28515.63281-.32422.63282-.35938.6289-.39843.63282-.4375.6289-.47266.63281-.51172.63282-.55078.6289-.58594.63281-.625.62891-.66015.63281-.69922.63281-.73828.62891-.77344.63281-.8125.6289-.85156.63282-.88672.63281-.92578.62891-.96484.63281-1 .6289-1.03516.63282-1.07812.63281-1.11328.6289-1.14844.63282-1.1914.6289-1.22266.63282-1.26563.6289-1.30078.63282-1.33984.63281-1.375.6289-1.41406.63282-1.45313.6289-1.48828.63282-1.52734.63281-1.5625.6289-1.60547.63282-1.63672.6289-1.67969.63282-1.71484.6328-1.75.62891-1.79297.63282-1.82812.6289-1.86328.63282-1.90235.6328-1.9414.62891-1.97656.63282-2.01563.6289-2.05468.63281-2.08985.63282-2.1289.6289-2.16797.63281-2.20313.62891-2.24218.63281-2.27735.63282-2.3164.6289-2.35547.63281-2.39062.62891-2.42969.63281-2.46484.63281-2.50781"/><path fill="none" stroke="#000" stroke-dasharray="2.9793852972 2.9793852972" stroke-miterlimit="10" stroke-width=".39724" d="M165.49998 170.07422V59.02347m-59.33982 0h59.33982"/><use xlink:href="#i" x="159.68153" y="186.46686"/><use xlink:href="#j" x="59.75747" y="63.90161"/><use xlink:href="#k" x="71.41662" y="63.90161"/><use xlink:href="#i" x="79.04374" y="63.90161"/><use xlink:href="#l" x="91.51726" y="63.90161"/><path fill="red" d="M107.85547 106.4961c0-.9375-.75781-1.69532-1.69531-1.69532-.9336 0-1.69532.75781-1.69532 1.69531s.76172 1.69532 1.69532 1.69532c.9375 0 1.6953-.75782 1.6953-1.69532m0 0"/><path fill="#FFF" stroke="red" stroke-miterlimit="10" stroke-width=".39724" d="M107.85547 170.07422c0-.9375-.75781-1.69531-1.69531-1.69531-.9336 0-1.69532.7578-1.69532 1.6953s.76172 1.69532 1.69532 1.69532c.9375 0 1.6953-.75781 1.6953-1.69531Zm0 0"/></svg>