<svg xmlns="http://www.w3.org/2000/svg" xmlns:xlink="http://www.w3.org/1999/xlink" width="397.249pt" height="227.17pt" viewBox="0 0 397.249 227.17"><defs><path id="a" d="M.59375-.73437c0 .53125.4375.95312 1.1875.95312 1.28125 0 1.98438-1.26562 2.76563-2.51562l.75-1.23438h.04687L5.6875-2.0625C6.03125-.57812 6.375.21875 7.32813.21875c1.375 0 2.07812-1.40625 2.64062-2.54687l-.46875-.25C9.03125-1.75 8.51563-.75 8-.75c-.35937 0-.5-.42187-.90625-2.09375L6.5-5.28125c.67188-1.1875 1.625-2.6875 2.15625-2.6875.5625 0 .57813.29688 1.14063.29688.40625 0 .78125-.39063.78125-.89063 0-.57812-.4375-.8125-.95313-.8125-.98437 0-1.8125.89063-2.46875 1.95313l-.82812 1.26562h-.03125l-.75-3.14062L5.4375-9.375l-3.07812.9375.04687.45313L3.875-8.07812c.29688 0 .4375.14062.60938.92187l.65625 2.70313-.51563.89062c-.79687 1.375-1.48437 2.34375-1.9375 2.34375-.54687 0-.6875-.45312-1.28125-.45312-.46875 0-.8125.48437-.8125.9375m0 0"/><path id="b" d="M-.39062 3.4375C-.375 4.04688.4375 4.51563 1.3125 4.51563 3.17188 4.51563 3.96875 3 4.75-.57812L6.46875-8.4375h2.375l.17188-.71875H6.59375l.51563-2.10937c.35937-1.40625.71875-1.9375 1.23437-1.9375.5 0 .82813.40625 1.25 1.3125.09375.17187.23438.3125.51563.3125.375 0 .90625-.34375.90625-.8125 0-.79688-1-1.45313-2.125-1.45313-2.20313 0-3.10938 1.54688-3.82813 4.01563l-.20312.67187H3.25l-.21875.71875h1.67188l-2.15625 11c-.21875 1.15625-.42188 1.26563-.59375 1.26563-.20313 0-.5-.14063-1-.90625C.8125 2.73438.6875 2.5.45313 2.5c-.40625 0-.84375.45313-.84375.9375m0 0"/><path id="d" d="M1.60938-5.26562c0 4.21875.95312 8.84375 4.90625 9v-.5625c-1.32813-.25-3.42188-1.90625-3.42188-8.4375 0-6.48438 1.98438-8.14063 3.42188-8.4375v-.5625c-3.95313.17187-4.90625 4.79687-4.90625 9m0 0"/><path id="e" d="M1.10938 3.17188v.5625c3.95312-.15625 4.90625-4.78125 4.90625-9 0-4.20313-.95313-8.82813-4.90625-9v.5625c1.4375.29687 3.42187 1.95312 3.42187 8.4375 0 6.53125-2.09375 8.1875-3.42187 8.4375m0 0"/><path id="k" d="M1.95313-5.9375c0 .67188.45312 1.17188 1.17187 1.17188.73438 0 1.14063-.5 1.17188-1.17188 0-.70312-.4375-1.21875-1.17188-1.21875-.71875 0-1.17187.51563-1.17187 1.21875m6.20312 0c0 .67188.46875 1.17188 1.17188 1.17188.73437 0 1.15625-.5 1.17187-1.17188 0-.70312-.4375-1.21875-1.17187-1.21875-.70313 0-1.17188.51563-1.17188 1.21875m6.21875 0c0 .67188.45313 1.17188 1.17188 1.17188.73437 0 1.15625-.5 1.17187-1.17188 0-.70312-.4375-1.21875-1.17187-1.21875-.71875 0-1.17188.51563-1.17188 1.21875m0 0"/><path id="l" d="M1.40625-2.8125c0 1.625.73438 3.03125 2.76563 3.03125 1.39062 0 2.51562-1.375 3.32812-2.54687C7.5-.5625 7.78125.21875 8.67188.21875c1.89062 0 2.89062-1.98437 3.17187-2.6875l-.46875-.25C10.90625-1.76562 10.125-.75 9.71875-.75c-.53125 0-.54687-.95312-.54687-1.42187 0-.8125.10937-1.90625.21875-2.85938l2.82812-4.125h-1.375L9.3125-6.17187c0-2.5-.67187-3.20313-2.70312-3.20313-3.59375 0-5.20313 3.85938-5.20313 6.5625m1.8125.04688c0-2.15625 1.15625-5.95313 3.42188-5.95313.89062 0 1.14062 1.25 1.14062 2.64063 0 .78125-.0625 1.60937-.15625 2.32812C6.65625-2.1875 5.6875-.78125 4.45313-.78125c-.9375 0-1.23438-.92187-1.23438-1.98437m0 0"/><path id="m" d="M1.59375-4.71875h4.57813v4.57813h1.09375v-4.57813h4.59375V-5.8125H7.26563v-4.59375H6.17188v4.59375H1.59375Zm0 0"/><path id="c" d="M.57813-.1875C.57813-.125.73437 0 .92188 0c.10937 0 .3125-.03125.34375-.10937l2.32812-5.96875c.09375-.20313.09375-.3125.09375-.35938 0-.28125-.42187-.39062-.82812-.39062-.39063 0-1.01563.14062-1.04688.39062Zm0 0"/><path id="n" d="M.78125-6.23437C.78125-2.5 1.85938.21875 4.9375.21875S9.14063-2.5 9.14063-6.23437s-1.125-6.45313-4.20313-6.45313S.78125-9.96875.78125-6.23437m1.875 0c0-3.04688.51563-5.79688 2.28125-5.79688 1.78125 0 2.29688 2.75 2.29688 5.79688 0 3.03125-.51563 5.79687-2.29688 5.79687-1.76562 0-2.28125-2.76562-2.28125-5.79687m0 0"/><clipPath id="f"><path d="M.34766 56h395.80468v1H.34766Zm0 0"/></clipPath><clipPath id="g"><path d="M.34766 112h395.80468v2H.34766Zm0 0"/></clipPath><clipPath id="h"><path d="M.34766 225h395.80468v1.34375H.34766Zm0 0"/></clipPath><clipPath id="i"><path d="M.34766 0h395.80468v226.34375H.34766Zm0 0"/></clipPath><clipPath id="j"><path d="M169 0h2v226.34375h-2Zm0 0"/></clipPath></defs><use xlink:href="#a" x="79.58941" y="33.01737"/><use xlink:href="#b" x="63.40056" y="90.06394"/><use xlink:href="#c" x="75.05398" y="82.12295"/><use xlink:href="#d" x="80.09357" y="90.06394"/><use xlink:href="#a" x="87.71703" y="90.06394"/><use xlink:href="#e" x="99.52941" y="90.06394"/><use xlink:href="#b" x="65.92135" y="174.53232"/><use xlink:href="#d" x="77.57491" y="174.53232"/><use xlink:href="#a" x="85.19837" y="174.53232"/><use xlink:href="#e" x="97.01075" y="174.53232"/><g clip-path="url(#f)"><path fill="none" stroke="#000" stroke-miterlimit="10" stroke-width=".39705" d="M.54687 56.68361h395.4103"/></g><g clip-path="url(#g)"><path fill="none" stroke="#000" stroke-miterlimit="10" stroke-width=".39705" d="M.54687 113.17192h395.4103"/></g><g clip-path="url(#h)"><path fill="none" stroke="#000" stroke-miterlimit="10" stroke-width=".39705" d="M.54687 226.14852h395.4103"/></g><g clip-path="url(#i)"><path fill="none" stroke="#000" stroke-miterlimit="10" stroke-width=".39705" d="M.54687.19922v225.9493h395.4103V.19922Zm0 0"/></g><g clip-path="url(#j)"><path fill="none" stroke="#000" stroke-miterlimit="10" stroke-width=".39705" d="M170.00787.19922v225.9493"/></g><use xlink:href="#k" x="188.91896" y="32.01503"/><use xlink:href="#l" x="276.45812" y="33.01737"/><use xlink:href="#k" x="358.37881" y="32.01503"/><use xlink:href="#m" x="276.26981" y="90.1297"/><path fill="#FFF" d="M196.26563 222.17578h3.97265v-3.96875h-3.97266Zm0 0"/><path fill="#FFF" d="M196.26563 222.17578h3.97265v-3.96875h-3.97266Zm169.46484-101.0625h3.96875v-3.96875h-3.96875Zm0 0"/><path fill="#FFF" d="M365.73047 121.11328h3.96875v-3.96875h-3.96875Zm0 0"/><path fill="none" stroke="#000" stroke-miterlimit="10" stroke-width=".39705" d="m203.92976 216.80867 156.06255-93.08206"/><path d="M362.03906 122.50781c-.95312.33985-2.6914.91406-4.17187.7539 1.41015.4297 1.8164 1.11329 1.52344 2.5586.5664-1.3789 1.89843-2.63281 2.64843-3.3125m0 0"/><path fill="#FFF" d="M291.8789 159.23047h-17.82812v20.84766h17.82813Zm0 0"/><use xlink:href="#n" x="278.01942" y="175.88538"/></svg>