<svg xmlns="http://www.w3.org/2000/svg" xmlns:xlink="http://www.w3.org/1999/xlink" width="191.737pt" height="150.745pt" viewBox="0 0 191.737 150.745"><defs><path id="c" d="M.59375-5.04687c0 3.07812 1.76563 5.32812 5.5 5.32812 3.29688 0 4.90625-1.6875 5.9375-3.54687C13.04688-5.09375 13.23438-7 13.23438-7.73437c0-3.84375-2.32813-5.5-5.42188-5.5-2.98437 0-4.82812 1.65625-5.92187 3.45312C.85938-8.0625.59375-6.28125.59375-5.04687m1.96875.75c0-1.57813.29688-3.32813 1.15625-5.125.85938-1.78125 2.1875-3.15625 4.17188-3.15625 2.04687 0 3.375 1.21875 3.375 3.85937 0 1.07813-.10938 2.60938-.875 4.59375-.78125 2.01563-2.0625 3.75-4.48438 3.75C3.875-.375 2.5625-1.6875 2.5625-4.29687m0 0"/><path id="h" d="M0 0h5.67188c4.51562 0 5.42187-2.32812 5.42187-3.875 0-1.96875-1.45312-2.82812-2.8125-3.09375L8.29688-7c2.48437-.29687 3.53125-1.71875 3.53125-3.125 0-1.51562-.89063-2.79687-4.32813-2.79687H2.76563l-.125.53125 1.125.09375c.3125.03125.45312.15625.45312.46875 0 .10937-.04687.26562-.07812.45312L1.92188-1.54687c-.125.60937-.3125.82812-.76563.89062l-1.0625.125Zm3.73438-1.4375c0-.14062.03125-.26562.0625-.40625L4.875-6.64062h.73438c1.84375 0 3.48437.53125 3.48437 2.65625 0 1.67187-1.01562 3.32812-3.53125 3.32812-1.46875 0-1.82812-.29687-1.82812-.78125m1.28125-5.85937.96875-4.34375c.14062-.54688.23437-.65625 1.5-.65625 1.5625 0 2.4375.79687 2.4375 2.10937 0 1.95313-1.625 2.89063-3.70313 2.89063Zm0 0"/><path id="d" d="M-6.45312-11.1875h3.42187l-.67187 1.07813.48437.42187c.67188-.75 1.46875-1.28125 2.5-1.73437v-.46875c-1.04687-.45313-1.82812-.98438-2.5-1.73438l-.48437.46875.67187 1.0625h-3.42187Zm0 0"/><path id="e" d="M1.9375-.76562c0 .59375.28125.96875.96875.96875C4.125.20313 5.04688-.95312 5.625-2.21875l-.42187-.23437c-.29688.59375-1.03125 1.76562-1.5 1.76562-.1875 0-.26563-.125-.26563-.32812 0-.17188.03125-.35938.09375-.57813L5.375-8.35937l-.09375-.09375-3.0625.46875-.10937.40625.96875.09375c.3125.01562.4375.10937.4375.34375 0 .10937-.03125.25-.07813.42187L2.01563-1.45312c-.0625.25-.07813.46875-.07813.6875m0 0"/><path id="f" d="M-1.25 2.98438c0 .90625 1.17188 1.07812 1.78125 1.07812.5625 0 1.09375-.17187 1.51563-.54687.76562-.70313 1.23437-1.78125 1.67187-3.79688l1.76563-8.07812-.09375-.09375-3.20313.5-.10937.4375c1.10937.04687 1.48437.07812 1.48437.35937 0 .125-.01562.21875-.04687.375L1.54688 2.67188c-.10938.51562-.25.76562-.46875.76562-.6875 0-1.03125-1.3125-1.53125-1.3125-.42188 0-.79688.54688-.79688.85938m0 0"/><clipPath id="a"><path d="M.03125 84h191.41406v2H.03125Zm0 0"/></clipPath><clipPath id="b"><path d="M188 82h3.44531v6H188Zm0 0"/></clipPath><clipPath id="g"><path d="M26 31h103v119.49219H26Zm0 0"/></clipPath></defs><g clip-path="url(#a)"><path fill="none" stroke="#000" stroke-miterlimit="10" stroke-width=".39783" d="M.23048 85.09375h190.61714"/></g><g clip-path="url(#b)"><path fill="none" stroke="#000" stroke-linecap="round" stroke-linejoin="round" stroke-miterlimit="10" stroke-width=".39783" d="M188.98047 82.70703c.375 1.4336 1.21875 2.10938 2.0664 2.38672-.84765.27734-1.6914.95703-2.0664 2.38672"/></g><path fill="none" stroke="#000" stroke-miterlimit="10" stroke-width=".39783" d="M42.67578 106.3164V.59377"/><path fill="none" stroke="#000" stroke-linecap="round" stroke-linejoin="round" stroke-miterlimit="10" stroke-width=".39783" d="M40.28906 2.46484c1.4336-.3789 2.10938-1.21875 2.38672-2.0703.28125.85155.95703 1.6914 2.39063 2.0703"/><path fill="none" stroke="#000" stroke-miterlimit="10" stroke-width=".39783" d="M21.45313 82.97266v4.24218m42.44921-4.24218v4.24218m21.22265-4.24218v4.24218m21.22656-4.24218v4.24218m21.22265-4.24218v4.24218m21.22265-4.24218v4.24218m21.22655-4.24218v4.24218M44.80078 63.8711h-4.2461m4.2461-21.22656h-4.2461m4.2461-21.22264h-4.2461"/><use xlink:href="#c" x="21.82475" y="105.34979"/><path fill="none" stroke="#000" stroke-miterlimit="10" stroke-width=".79566" d="M42.67578 85.09375h20.42968"/><path fill="none" stroke="#000" stroke-linecap="round" stroke-linejoin="round" stroke-miterlimit="10" stroke-width=".79566" d="M60.95703 81.98828c.46485 1.86328 1.5039 2.74219 2.54688 3.10547-1.04297.36328-2.08203 1.24219-2.54688 3.10547"/><use xlink:href="#d" x="58.328" y="105.74512"/><use xlink:href="#e" x="50.63102" y="105.94279"/><path fill="none" stroke="#000" stroke-miterlimit="10" stroke-width=".79566" d="M42.67578 85.09375V64.66407"/><path fill="none" stroke="#000" stroke-linecap="round" stroke-linejoin="round" stroke-miterlimit="10" stroke-width=".79566" d="M39.57031 66.8125c1.86328-.46484 2.7461-1.5 3.10547-2.54297.36328 1.04297 1.24219 2.07813 3.10547 2.54297"/><use xlink:href="#d" x="37.09891" y="79.16309"/><use xlink:href="#f" x="29.40194" y="79.36075"/><g clip-path="url(#g)"><path fill="none" stroke="red" stroke-miterlimit="10" stroke-width=".79566" d="M37.3711 150.09373s.58203-2.60156.80468-3.58593c.22266-.98828.58203-2.5586.80469-3.52735s.57812-2.51171.80078-3.46484c.22656-.95312.58203-2.46875.80469-3.40234.22265-.9375.58203-2.42578.80469-3.34375.22265-.92188.58203-2.38281.80468-3.28516.22266-.90234.57813-2.33593.80469-3.21875.22266-.88671.57813-2.29296.80078-3.16015.22266-.8711.58203-2.25.80469-3.10156s.58203-2.20313.80469-3.03906.58203-2.16016.80468-2.97657c.22266-.8203.57813-2.11718.80078-2.91796s.58203-2.07032.8047-2.85547c.22265-.78516.58202-2.02735.80468-2.79688.22265-.76562.58203-1.98437.80469-2.73437s.57812-1.9375.80078-2.67188c.22656-.73437.58203-1.89453.80468-2.61328.22266-.71484.58204-1.85156.8047-2.55078s.58202-1.80859.80468-2.49218c.22266-.67969.57812-1.76172.80469-2.42969.22265-.66406.57812-1.71875.80078-2.36719.22265-.64843.58203-1.67578.80468-2.30859.22266-.63281.58204-1.63281.8047-2.2461.22265-.61718.58202-1.58984.80468-2.1875.22265-.59765.57812-1.54296.80078-2.125.22656-.58202.58203-1.5.80469-2.0664.22265-.5625.58203-1.45312.80469-2.0039.22265-.54688.58203-1.41016.80468-1.94141.22266-.53125.57813-1.36719.80469-1.88281.22266-.51172.57812-1.32422.80078-1.82031s.58203-1.28125.80469-1.76172c.22265-.47656.58203-1.23438.80468-1.69922.22266-.46094.58204-1.1914.8047-1.63672s.57812-1.14844.80077-1.57812c.22657-.42969.58203-1.10547.8047-1.51563.22265-.41406.58202-1.0625.80468-1.45703s.58203-1.01562.80469-1.39453c.22265-.3789.57812-.97265.80468-1.33203.22266-.36328.57813-.92969.80078-1.27344.22266-.34765.58203-.88672.80469-1.21484.22266-.32813.58203-.83984.80469-1.14844.22265-.3125.58203-.79687.80469-1.09375.22265-.29297.57812-.75.80078-1.02734.22656-.27735.58203-.70703.80468-.96875.22266-.26172.58203-.66406.8047-.90625.22265-.2461.58202-.6211.80468-.84766s.57812-.57812.80469-.78906c.22265-.20703.57812-.53125.80078-.72266.22265-.1953.58203-.48828.80468-.66406.22266-.17578.58204-.44531.8047-.60547.22265-.15625.58202-.39843.80468-.54296.22265-.14063.57812-.35547.80078-.48047s.58203-.3125.80469-.42188c.22265-.10547.58203-.26562.80468-.35937.22266-.08985.58203-.22266.8047-.29688.22265-.07422.57812-.17969.80077-.23828.22656-.0586.58203-.13672.80469-.17578.22266-.04297.58203-.09375.80469-.11719s.58203-.05078.80468-.05469c.22266-.0078.57813-.0078.8047.00391.22265.00781.57812.03906.80077.0664s.58203.08204.80469.12891c.22266.04297.58203.125.80469.1875.22265.0586.58203.17188.80468.2461.22266.07812.57813.21875.80079.3125.22656.09375.58203.25781.80468.37109.22266.10938.58203.30078.80469.42969.22266.1289.58203.34765.80469.49219.22265.14453.57812.39062.80469.55468.22265.16016.57812.4336.80078.61328.22265.1797.58203.48047.80468.67579.22266.1953.58203.52343.80469.73828.22266.21093.58203.5664.80469.79687.22265.22656.57812.60938.80078.85547.22656.2461.58203.65625.80469.91797.22265.26562.58203.69922.80468.98047.22266.28125.58203.74218.8047 1.03906.22265.30078.57812.78906.80468 1.10156.22265.3164.57812.83203.80078 1.16406s.58203.875.80469 1.22266c.22265.34765.58203.91797.80468 1.28515.22266.36329.58203.96094.80469 1.34375.22266.38282.57813 1.00782.80078 1.40625.22656.39844.58203 1.05079.80469 1.46485.22266.41797.58203 1.09765.80469 1.53125.22265.42968.58203 1.13672.80468 1.58593.22266.44922.57813 1.1836.8047 1.64844.22265.46875.57812 1.23047.80077 1.71094.22266.48437.58203 1.27344.80469 1.77343s.58203 1.3125.80469 1.83204c.22265.51562.58203 1.35937.80468 1.89062.22266.53516.57813 1.40234.80079 1.95313.22656.55078.58203 1.44921.80468 2.01562.22266.5664.58203 1.49219.80469 2.07422.22266.58594.58203 1.53515.80469 2.13672s.57812 1.58203.80468 2.19921c.22266.6172.57813 1.6211.80078 2.25782.22266.63671.58204 1.66796.8047 2.3203.22265.65235.80468 2.37891.80468 2.37891"/></g><path d="M87.25 42.64453c0-1.17187-.95312-2.1211-2.125-2.1211-1.17187 0-2.1211.94923-2.1211 2.1211s.94922 2.125 2.1211 2.125 2.125-.95312 2.125-2.125m0 0"/><use xlink:href="#h" x="79.00902" y="66.84792"/><path fill="none" stroke="#0F0" stroke-miterlimit="10" stroke-width=".79566" d="M64.69921 42.64454h51.46874"/><path fill="none" stroke="#0F0" stroke-linecap="round" stroke-linejoin="round" stroke-miterlimit="10" stroke-width=".79566" d="M66.84375 45.75c-.46484-1.86328-1.5-2.74219-2.54297-3.10547 1.04297-.35937 2.07813-1.24219 2.54297-3.10547m47.17578 0c.46485 1.86328 1.5 2.7461 2.54297 3.10547-1.04297.36328-2.07812 1.24219-2.54297 3.10547"/></svg>