<svg xmlns="http://www.w3.org/2000/svg" xmlns:xlink="http://www.w3.org/1999/xlink" width="516.325pt" height="492.017pt" viewBox="0 0 516.325 492.017"><defs><path id="b" d="M.65625 0h4.9375v-.53125C4.8125-.60937 4.375-.60937 4.23438-.82812c-.0625-.09376-.03125-.10938-.03125-.90625v-4.35938h1.26562c1.10938 0 1.98438.34375 2.3125 1.625.14063.51563.32813 2 .53125 2.85938C8.59375-.42187 9.32813 0 10.42188 0h1.51562v-.53125C10.48438-.70312 10.17188-1.73437 10-3c-.21875-1.67187-.54687-2.92187-2.54687-3.40625v-.03125C9.20313-6.78125 10.5-7.96875 10.5-9.75s-1.125-3.17187-4.39062-3.17187H.65625v.53125c1.65625.125 1.6875.14062 1.6875 1.1875v9.46875c0 1.0625-.03125 1.07812-1.6875 1.20312Zm3.54688-6.75v-4.60937c0-.78125.10937-.9375 1.34375-.9375 1.39062 0 2.96875.51562 2.96875 2.73437 0 1.96875-1.03125 2.8125-2.84375 2.8125Zm0 0"/><path id="c" d="M.92188-4.51562c0 2.96875 1.26562 4.73437 4.3125 4.73437 2.0625 0 3.14062-1.15625 3.64062-2.625l-.5625-.29687C7.79688-1.60937 7.07813-.73437 5.60938-.73437c-2.32813 0-2.78125-2.23438-2.75-4.17188H8.25c.40625 0 .73438-.10937.73438-.71875 0-1.09375-.35938-3.76562-3.76563-3.76562-2.9375 0-4.29687 2.07812-4.29687 4.875M2.89063-5.625c0-.78125.26562-3.10937 2.21875-3.10937 1.73437 0 1.9375 1.76562 1.9375 2.51562 0 .34375-.125.59375-.64063.59375Zm0 0"/><path id="e" d="M.65625 0H5.875v-.53125c-1.64062-.125-1.67187-.14062-1.67187-1.20312v-9.46875c0-1.04688.03125-1.0625 1.67187-1.1875v-.53125H.65625v.53125c1.65625.125 1.6875.14062 1.6875 1.1875v9.46875c0 1.0625-.03125 1.07812-1.6875 1.20312Zm0 0"/><path id="f" d="M.59375 0h4.5625v-.53125C3.8125-.64062 3.76563-.67187 3.76563-1.625V-6c0-.48437 0-.75.14062-1C4.25-7.75 5.07813-8.375 6.10938-8.375c1.60937 0 1.8125 1.17188 1.8125 2.32813V-1.625c0 .95313-.0625.98438-1.42188 1.09375V0h4.5625v-.53125C9.71875-.64062 9.67188-.67187 9.67188-1.625V-6c0-.48437.01562-.71875.14062-1.01562.26563-.76563 1.0625-1.35938 2.125-1.35938 1.17188 0 1.89063.65625 1.89063 2.32813V-1.625c0 .95313-.0625.98438-1.42188 1.09375V0h4.57813v-.53125c-1.32813-.10937-1.40626-.14062-1.40626-1.09375v-4.78125c0-1.89062-1.01562-2.98437-2.78124-2.98437-1.53125 0-2.625 1.01562-3.29688 1.4375-.45312-.875-1.17187-1.4375-2.48437-1.4375-1.42188 0-2.59375.95312-3.25 1.4375l-.1875-1.4375-2.875.48437v.45313l.6875.09375c.48437.07812.625.17187.625.84375V-1.625c0 .95313-.0625.98438-1.42188 1.09375Zm0 0"/><path id="g" d="M-.53125 0h4.10938v-.53125l-.96875-.10937c-.5625-.0625-.64063-.25-.48438-.75C2.45313-2.5 2.82813-3.65625 3.26563-5h4.1875l1.26562 3.59375c.17188.53125.09375.73438-.5.79688l-.85937.07812V0h4.79687v-.53125c-1.09375-.10937-1.29687-.17187-1.64062-1.14062l-3.95313-11.25H5.17188L3.21875-7.40625c-.57812 1.64063-1.375 3.85938-2.03125 5.57813C.79688-.8125.64063-.59375-.53125-.53125Zm4.04688-5.70312c.60937-1.875 1.26562-3.70313 1.8125-5.35938h.0625l1.84375 5.35938Zm0 0"/><path id="h" d="M.01563 0h3.57812v-.53125l-.76562-.10937c-.26563-.03126-.26563-.25-.14063-.45313.42188-.79687 1.01563-1.6875 1.65625-2.67187H4.375l1.67188 2.60937c.20312.32813.14062.48438-.14063.51563L5.125-.53125V0H9.5v-.53125c-.82812-.04687-1.125-.10937-1.60937-.78125-.84375-1.23437-1.75-2.53125-2.5625-3.84375.625-.9375 1.32812-1.89062 2.07812-2.76562.46875-.59375.73438-.65625 1.625-.6875v-.5625H5.54688v.5625l.73437.0625c.29688.03125.26563.23437.125.4375q-.65625 1.05468-1.5 2.34375h-.01562l-1.5625-2.32813c-.17188-.21875-.10938-.4375.17187-.48437l.5625-.03125v-.5625H.15625v.5625c.76563.03125.92188.0625 1.375.67187.78125 1.09375 1.59375 2.3125 2.39063 3.5C3.21875-3.42187 2.5-2.35937 1.73438-1.35937 1.25-.70312.82813-.59375.01563-.53125Zm0 0"/><path id="i" d="M.59375 0h4.9375v-.53125C3.85938-.64062 3.76563-.67187 3.76563-1.625V-6c0-1.4375.625-1.9375 1.0625-1.9375.29687 0 .625.125 1.15625.42188.14062.07812.28125.09375.375.09375.46875 0 .85937-.46875.85937-1.04688 0-.42187-.25-.92187-1-.92187-.67187 0-1.21875.40625-2.45312 1.5l-.21875-1.5-2.84375.48437v.45313l.6875.09375c.48437.07812.625.17187.625.84375V-1.625c0 .95313-.10938.98438-1.42188 1.09375Zm0 0"/><path id="j" d="m3.76563-10.5.26562.375 2.82813-1.57812c.5625-.29688 1.0625-.60938 1.0625-1 0-.39063-.46875-.82813-.73438-.82813-.32812 0-.64062.20313-1.20312.78125ZM.92188-4.51562c0 2.96875 1.26562 4.73437 4.3125 4.73437 2.0625 0 3.14062-1.15625 3.64062-2.625l-.5625-.29687C7.79688-1.60937 7.07813-.73437 5.60938-.73437c-2.32813 0-2.78125-2.23438-2.75-4.17188H8.25c.40625 0 .73438-.10937.73438-.71875 0-1.09375-.35938-3.76562-3.76563-3.76562-2.9375 0-4.29687 2.07812-4.29687 4.875M2.89063-5.625c0-.78125.26562-3.10937 2.21875-3.10937 1.73437 0 1.9375 1.76562 1.9375 2.51562 0 .34375-.125.59375-.64063.59375Zm0 0"/><path id="k" d="M.375 0h4.5625v-.53125C3.59375-.64062 3.54688-.67187 3.54688-1.625v-12.14062l-.14063-.09375-2.92187.45312v.48438l.6875.04687c.48437.0625.59375.17188.59375.875v10.375c0 .95313-.03126.98438-1.39063 1.09375Zm0 0"/><path id="l" d="M1.70313-12.23437c0 .67187.48437 1.15625 1.15625 1.15625.6875 0 1.14062-.48438 1.14062-1.15625 0-.67188-.45312-1.125-1.14062-1.125-.67188 0-1.15625.45312-1.15625 1.125M.59375 0h4.5625v-.53125C3.8125-.64062 3.76563-.67187 3.76563-1.625v-7.64062l-.14063-.125-2.92187.48437v.45313l.6875.09375c.48437.07812.625.17187.625.84375V-1.625c0 .95313-.0625.98438-1.42188 1.09375Zm0 0"/><path id="m" d="M.92188-2.42187c0 1.39062.92187 2.64062 2.67187 2.64062C4.6875.21875 5.78125-.5 6.39063-.89062c.25.6875.57812 1.10937 1.23437 1.10937.6875 0 1.48438-.20312 2.20313-.5625l-.125-.4375c-.25.0625-.67188.07813-.95313 0-.34375-.07812-.65625-.40625-.65625-1.57812v-4.54688c0-1.09375-.23437-2.48437-3.0625-2.48437-2.10937 0-3.78125 1.09375-3.78125 2.125 0 .60937.70313.875 1.0625.875.39063 0 .48438-.1875.59375-.51563.42188-1.39062 1.17188-1.82812 1.92188-1.82812.73437 0 1.57812.375 1.57812 1.875v.76562c-.48437.48438-2.28125.96875-3.76562 1.4375C1.29688-4.23437.92188-3.29687.92188-2.42187m1.875-.26563c0-.875.40625-1.32812 1.45312-1.73437.76563-.26563 1.73438-.625 2.15625-.89063v2.64063c0 1.51562-1.15625 1.89062-1.89062 1.89062-1.15625 0-1.71875-.8125-1.71875-1.90625m0 0"/><path id="n" d="M.78125 1.79688c0 1.89062 1.89063 2.71875 4.04688 2.71875 1.125 0 2.29687-.21875 3.1875-.75C8.875 3.23438 9.5 2.34375 9.5 1.1875c0-2.01562-1.60937-2.71875-3.60937-2.71875h-1.5c-1.34375 0-1.54688-.45312-1.54688-.8125 0-.54687.71875-.84375.95313-.92187.35937.04687.76562.0625.95312.0625 1.78125 0 3.78125-.78125 3.78125-3.04688 0-.76562-.25-1.42187-.57812-1.75l1.5-.23437.375-1.17188-.15625-.15625-2.39063.75c-.51562-.35937-1.57812-.57812-2.42187-.57812C1.98438-9.39062 1-7.64062 1-6.25 1-4.5 2.14063-3.6875 3-3.46875v.04688c-1.01562.40625-1.70312.9375-1.70312 1.67187 0 .65625.75 1.35938 1.64062 1.45313v.03125C2.14063 0 .78125.4375.78125 1.79688m1.78125-.09376c0-.625.1875-1.10937.57813-1.40624.42187-.3125 1.03125-.4375 1.9375-.4375 1.64062 0 2.85937.42187 2.85937 1.8125C7.9375 3.15625 6.57813 3.875 5.25 3.875c-1.59375 0-2.6875-.8125-2.6875-2.17187M2.90625-6.25c0-1.84375.95313-2.48437 1.95313-2.48437.90625 0 1.85937.67187 1.85937 2.48437 0 1.57813-.79687 2.39063-1.89062 2.39063-1.04688 0-1.92188-.8125-1.92188-2.39063m0 0"/><path id="o" d="M.59375 0h4.5625v-.53125C3.8125-.64062 3.76563-.67187 3.76563-1.625V-6c0-.48437.01562-.71875.17187-1.01562C4.34375-7.75 5.17188-8.375 6.17188-8.375c1.26562 0 1.96875.70313 1.96875 2.32813V-1.625c0 .95313-.0625.98438-1.42188 1.09375V0h4.57813v-.53125C9.96875-.64062 9.89063-.67187 9.89063-1.625v-4.78125c0-1.89062-1.04688-2.98437-2.75-2.98437-1.39063 0-2.25.67187-3.40625 1.4375l-.25-1.4375-2.78125.48437v.45313l.6875.09375c.48437.07812.625.17187.625.84375V-1.625c0 .95313-.0625.98438-1.42188 1.09375Zm0 0"/><path id="p" d="M.89063-6.46875c0 2.09375.57812 3.82813 1.59375 4.9375C3.54688-.35937 5.07813.28125 7.125.28125s3.57813-.64062 4.625-1.8125c1.01563-1.10937 1.59375-2.84375 1.59375-4.9375 0-2.07812-.57812-3.8125-1.59375-4.92187-1.04687-1.1875-2.57812-1.84375-4.625-1.84375s-3.57812.65625-4.64062 1.84375C1.46875-10.28125.89063-8.54687.89063-6.46875m2.09375 0c0-2.73437.8125-6.10937 4.14062-6.10937 3.3125 0 4.14063 3.375 4.14063 6.10937 0 2.75-.82813 6.09375-4.14063 6.09375-3.32812 0-4.14062-3.34375-4.14062-6.09375m0 0"/><path id="q" d="M0 0h4.42188l.09375-.53125-.73438-.0625c-.5625-.04687-.85937-.1875-.85937-.57812 0-1 .1875-1.54688.40625-2.54688l1.70312-7.625h.04688L7.3125-.21875h.53125l7.26563-11.125h.04687L12.875-1.54687c-.17187.625-.34375.84375-.79687.89062l-1.01563.125L10.9375 0h5.09375l.09375-.53125-1.09375-.125c-.32812-.01562-.46875-.17187-.46875-.48437 0-.10938.01563-.25.0625-.40625l2.23438-9.82813c.17187-.64062.3125-.89062.78124-.9375l1.03126-.07812.14062-.53125h-3.65625c-1 1.70312-2.10937 3.375-3.23437 5.10937l-3.3125 5.04688h-.0625L7.5-7.95312c-.375-1.6875-.75-3.3125-1.07812-4.96875h-3.625l-.10938.53125 1.09375.09375c.3125.03125.46875.1875.46875.5q0 .1875-.04687.42187L2.42188-3.71875c-.21875 1-.4375 1.70313-.65625 2.32813-.21876.59375-.54688.73437-1.09375.79687l-.57813.0625Zm0 0"/><path id="r" d="M1.60938-5.26562c0 4.21875.95312 8.84375 4.92187 9V3.1875C5.1875 2.92188 3.10938 1.26563 3.10938-5.26562c0-6.51563 1.98437-8.15625 3.42187-8.45313v-.5625C2.5625-14.125 1.60938-9.48437 1.60938-5.26562m0 0"/><path id="s" d="M.59375-.73437c0 .53125.4375.95312 1.20313.95312 1.26562 0 1.98437-1.26562 2.76562-2.53125l.75-1.23437h.03125L5.6875-2.0625C6.04688-.57812 6.39063.21875 7.34375.21875c1.375 0 2.07813-1.40625 2.64063-2.54687l-.48438-.25C9.04688-1.75 8.53125-.75 8.01563-.75c-.35938 0-.5-.42187-.92188-2.09375L6.5-5.29687c.6875-1.1875 1.64063-2.67188 2.17188-2.67188.5625 0 .57812.29688 1.14062.29688.40625 0 .79688-.40625.79688-.90625 0-.57813-.4375-.8125-.96875-.8125-.98438 0-1.82813.89062-2.48438 1.95312l-.8125 1.26563H6.3125L5.54688-9.3125l-.09375-.07812-3.09375.9375L2.40625-8 3.875-8.09375c.29688 0 .4375.14063.625.9375l.65625 2.70313-.51562.89062c-.79688 1.375-1.5 2.34375-1.95313 2.34375-.54687 0-.67187-.45312-1.28125-.45312-.46875 0-.8125.48437-.8125.9375m0 0"/><path id="t" d="m.95313 2.28125.35937.35938c.9375-.875 2.28125-2.125 2.28125-3.59375 0-1-.53125-1.6875-1.25-1.6875-.57812 0-.9375.45312-.9375.9375 0 .67187.625 1.03125.625 1.82812 0 .76563-.48437 1.5-1.07812 2.15625m0 0"/><path id="u" d="M0 3.5c0 .5.5625 1.01563 1.375 1.01563 1.59375 0 2.26563-1.17188 3.92188-4.01563.375-.64062 1.5-2.60937 2.65625-4.51562 1.07812-1.75 2.25-3.5625 2.25-4.3125 0-.65625-.20313-1.0625-.34375-1.0625-.35938 0-.98438.15625-1.46875.48437 0 0-.0625 1.90625-.23438 2.5625-.29687 1.04688-1.39062 3.07813-2.625 5.20313h-.0625c-.14062-2.85938-.5-6.79688-.75-8.17188l-.14062-.07812L1.4375-8.5l.04688.48438 1.29687-.04688c.375 0 .45313.32813.625 1.28125.1875 1.45313.60938 5.04688.60938 6.54688 0 .54687-.01563 1.3125-.4375 2.29687-.34375.78125-.8125 1.34375-1.1875 1.34375-.6875 0-.76563-1.04687-1.4375-1.04687C.48438 2.35938 0 2.96875 0 3.5m0 0"/><path id="v" d="M1.10938 3.1875v.54688c3.96875-.15625 4.92187-4.78125 4.92187-9s-.95312-8.85938-4.92187-9.01563v.5625c1.4375.29688 3.42187 1.9375 3.42187 8.45313 0 6.53125-2.07812 8.1875-3.42187 8.45312m0 0"/><path id="w" d="M0-12.32812h4.96875v-1.20313H0Zm0 0"/><path id="x" d="M0-12.32812h12.35938l-.76563 1.20312.54688.46875c.75-.84375 1.625-1.42187 2.78125-1.92187v-.70313c-1.17188-.5-2.03125-1.07812-2.78125-1.92187l-.54688.46875.76563 1.20312H0Zm0 0"/><path id="y" d="M.59375-5.04687c0 3.07812 1.76563 5.32812 5.5 5.32812 3.29688 0 4.90625-1.6875 5.9375-3.54687C13.04688-5.09375 13.23438-7 13.23438-7.73437c0-3.84375-2.32813-5.5-5.42188-5.5-2.98437 0-4.82812 1.65625-5.92187 3.45312C.85938-8.0625.59375-6.28125.59375-5.04687m1.96875.75c0-1.57813.29688-3.32813 1.15625-5.125.85938-1.78125 2.1875-3.15625 4.17188-3.15625 2.04687 0 3.375 1.21875 3.375 3.85937 0 1.07813-.10938 2.60938-.875 4.59375-.78125 2.01563-2.0625 3.75-4.48438 3.75C3.875-.375 2.5625-1.6875 2.5625-4.29687m0 0"/><path id="z" d="M.79688-.34375c0 .25.09374.5625.42187.5625.25 0 .875-.125.875-.4375v-.82812c0-.20313.09375-.34375.25-.34375.29688 0 .95313.4375 2.04688.875 1 .39062 1.875.73437 2.75.73437 1.21875 0 1.79687-1.625 2.28125-3.59375l-.51563-.14062c-.46875 1.15625-.9375 2.28125-1.76562 2.28125-.57813 0-1.40625-.28126-2.10938-.53125-.60937-.21876-1.26562-.48438-1.75-.54688C5.34375-4.46875 7.48438-6.6875 9.75-8.89062l-.15625-.28125H3.51563c-.25.34375-.82813 1.375-1.25 2.67187l.45312.1875c.60938-1.09375.92188-1.64062 1.79688-1.64062h3.28125C5.4375-5.5625 3.26563-3.40625 1.23438-1.35937c-.29688.3125-.4375.71875-.4375 1.01562m0 0"/><path id="B" d="M1.59375-2.67187H11.875v-1.09375H1.59375Zm0-4.10938H11.875V-7.875H1.59375Zm0 0"/><path id="C" d="M1.59375-4.73437H6.1875v4.59375h1.09375v-4.59375H11.875v-1.09375H7.28125v-4.59375H6.1875v4.59375H1.59375Zm0 0"/><path id="D" d="M2.1875-.85937c0 .65625.3125 1.07812 1.07813 1.07812 1.34375 0 2.39062-1.26562 3.01562-2.6875l-.45312-.25C5.48438-2.0625 4.67188-.75 4.15625-.75c-.21875 0-.29687-.14062-.29687-.39062 0-.17188.04687-.39063.09375-.625L6-9.28125l-.09375-.10937L2.5-8.875l-.10937.46875 1.07812.09375c.32813.01563.46875.125.46875.375 0 .125-.01562.28125-.07812.48438L2.28125-1.60937c-.07812.28124-.09375.51562-.09375.75m2.40625-11.28125c0 .70312.48438 1.0625 1.03125 1.0625.73438 0 1.20313-.5 1.20313-1.25 0-.73438-.5-1.03125-1.01563-1.03125-.79687 0-1.21875.625-1.21875 1.21875m0 0"/><path id="A" d="M.0625 0h3.10938L3.25-.40625l-.54687-.04687c-.375-.01563-.57813-.125-.57813-.42188 0-.57812.14063-1.09375.3125-1.85937l1.125-5.125h.03125L5.07813-.15625h.48437l4.90625-7.70312H10.5L8.9375-1.14062c-.10937.4375-.21875.64062-.5625.67187l-.67187.0625L7.59375 0h3.67188l.07812-.40625-.73437-.0625c-.23438-.01562-.32813-.14062-.32813-.34375 0-.07812.01563-.20312.04688-.32812l1.53125-6.76563c.10937-.45312.21875-.65625.5625-.6875l.6875-.04687.10937-.40625h-2.75c-.64062 1.14062-1.375 2.28125-2.10937 3.4375L6.14063-2.125h-.04688l-.6875-3.5625c-.25-1.14062-.48437-2.23437-.70312-3.35937H2l-.07812.40625.73437.0625C2.875-8.5625 3-8.46875 3-8.23437c0 .07812-.03125.20312-.0625.32812L1.75-2.73437c-.15625.76562-.29687 1.26562-.4375 1.70312-.14062.42188-.375.54688-.73437.57813l-.4375.04687Zm0 0"/><clipPath id="a"><path d="M.17969 264H452v1H.17969Zm0 0"/></clipPath><clipPath id="d"><path d="M226 39h1v452.03516h-1Zm0 0"/></clipPath></defs><g clip-path="url(#a)"><path fill="none" stroke="#000" stroke-miterlimit="10" stroke-width=".39771" d="M.37502 264.51563h450.65621"/></g><path d="m453.01953 264.51563-3.1836-1.58985 1.19532 1.58985-1.19531 1.59375"/><use xlink:href="#b" x="460.04117" y="270.87083"/><use xlink:href="#c" x="471.6941" y="270.87083"/><g clip-path="url(#d)"><path fill="none" stroke="#000" stroke-miterlimit="10" stroke-width=".39771" d="M226.69531 490.83982V40.18362"/></g><path d="m226.69531 38.19531-1.58984 3.17969 1.58984-1.1914 1.59375 1.1914"/><use xlink:href="#e" x="214.98377" y="31.17272"/><use xlink:href="#f" x="221.16817" y="31.17272"/><use xlink:href="#g" x="442.44832" y="271.33889"/><use xlink:href="#h" x="454.3001" y="271.33889"/><use xlink:href="#c" x="463.36791" y="271.33889"/><use xlink:href="#i" x="477.16849" y="271.33889"/><use xlink:href="#j" x="484.42671" y="271.33889"/><use xlink:href="#c" x="494.03143" y="271.33889"/><use xlink:href="#k" x="503.63615" y="271.33889"/><use xlink:href="#g" x="163.93775" y="19.99106"/><use xlink:href="#h" x="175.78954" y="19.99106"/><use xlink:href="#c" x="184.85735" y="19.99106"/><use xlink:href="#l" x="198.65792" y="19.99106"/><use xlink:href="#f" x="204.08668" y="19.99106"/><use xlink:href="#m" x="221.32745" y="19.99106"/><use xlink:href="#n" x="231.09126" y="19.99106"/><use xlink:href="#l" x="240.7954" y="19.99106"/><use xlink:href="#o" x="246.22416" y="19.99106"/><use xlink:href="#m" x="257.77767" y="19.99106"/><use xlink:href="#l" x="267.54147" y="19.99106"/><use xlink:href="#i" x="272.97023" y="19.99106"/><use xlink:href="#c" x="279.85063" y="19.99106"/><path stroke="#000" stroke-miterlimit="10" stroke-width=".39771" d="M230.67187 264.51563c0-2.19532-1.77734-3.97657-3.97656-3.97657-2.19531 0-3.97656 1.78125-3.97656 3.97657 0 2.19921 1.78125 3.98046 3.97656 3.98046 2.19922 0 3.97656-1.78125 3.97656-3.98046Zm0 0"/><use xlink:href="#p" x="205.43285" y="284.76706"/><path stroke="#000" stroke-miterlimit="10" stroke-width=".39771" d="M400.41405 151.35548c0-2.19531-1.78125-3.97656-3.97657-3.97656-2.1953 0-3.97656 1.78125-3.97656 3.97656 0 2.19922 1.78125 3.97656 3.97656 3.97656 2.19532 0 3.97657-1.77734 3.97657-3.97656Zm0 0"/><use xlink:href="#q" x="403.46121" y="139.81866"/><use xlink:href="#r" x="423.50584" y="139.81866"/><use xlink:href="#s" x="431.14189" y="139.81866"/><use xlink:href="#t" x="442.9738" y="139.81866"/><use xlink:href="#u" x="450.13259" y="139.81866"/><use xlink:href="#v" x="461.48724" y="139.81866"/><use xlink:href="#s" x="390.73863" y="291.73315"/><use xlink:href="#u" x="198.38693" y="153.79374"/><path fill="none" stroke="#000" stroke-miterlimit="10" stroke-width=".79542" d="m226.69531 264.51563 167.59374-111.72656"/><path d="m396.4375 151.35547-4.58594.57422 2.4375.85937-.14453 2.58203"/><use xlink:href="#w" x="318.98897" y="196.18005"/><use xlink:href="#w" x="323.48311" y="196.18005"/><use xlink:href="#w" x="327.97724" y="196.18005"/><use xlink:href="#w" x="332.47138" y="196.18005"/><use xlink:href="#x" x="336.94563" y="196.18005"/><use xlink:href="#y" x="318.98897" y="200.23595"/><use xlink:href="#q" x="333.64463" y="200.23595"/><use xlink:href="#z" x="349.00401" y="110.51919"/><use xlink:href="#A" x="358.54894" y="114.89445"/><use xlink:href="#B" x="376.33141" y="110.51919"/><use xlink:href="#s" x="393.65172" y="110.51919"/><use xlink:href="#C" x="408.24772" y="110.51919"/><use xlink:href="#D" x="424.45444" y="110.51919"/><use xlink:href="#u" x="432.50809" y="110.51919"/></svg>