<svg xmlns="http://www.w3.org/2000/svg" xmlns:xlink="http://www.w3.org/1999/xlink" width="227.17pt" height="170.477pt" viewBox="0 0 227.17 170.477"><defs><path id="a" d="M.59375-.73437c0 .53125.4375.95312 1.1875.95312 1.28125 0 1.98438-1.26562 2.76563-2.51562l.75-1.23438h.04687L5.6875-2.0625C6.03125-.57812 6.375.21875 7.32813.21875c1.375 0 2.07812-1.40625 2.64062-2.54687l-.46875-.25C9.03125-1.75 8.51563-.75 8-.75c-.35937 0-.5-.42187-.90625-2.09375L6.5-5.28125c.67188-1.1875 1.625-2.6875 2.15625-2.6875.5625 0 .57813.29688 1.14063.29688.40625 0 .78125-.39063.78125-.89063 0-.57812-.4375-.8125-.95313-.8125-.98437 0-1.8125.89063-2.46875 1.95313l-.82812 1.26562h-.03125l-.75-3.14062L5.4375-9.375l-3.07812.9375.04687.45313L3.875-8.07812c.29688 0 .4375.14062.60938.92187l.65625 2.70313-.51563.89062c-.79687 1.375-1.48437 2.34375-1.9375 2.34375-.54687 0-.6875-.45312-1.28125-.45312-.46875 0-.8125.48437-.8125.9375m0 0"/><path id="b" d="M1.60938-5.26562c0 4.21875.95312 8.84375 4.90625 9v-.5625c-1.32813-.25-3.42188-1.90625-3.42188-8.4375 0-6.48438 1.98438-8.14063 3.42188-8.4375v-.5625c-3.95313.17187-4.90625 4.79687-4.90625 9m0 0"/><path id="e" d="M1.10938 3.17188v.5625c3.95312-.15625 4.90625-4.78125 4.90625-9 0-4.20313-.95313-8.82813-4.90625-9v.5625c1.4375.29687 3.42187 1.95312 3.42187 8.4375 0 6.53125-2.09375 8.1875-3.42187 8.4375m0 0"/><path id="l" d="M1.59375-4.71875h10.26563V-5.8125H1.59375Zm0 0"/><path id="m" d="M.29688-3.95312C.29688-1.73437 2.5.20313 4.5625.20313c2.625 0 4.29688-2.625 4.60938-3.14063.35937.67188 2.17187 3.15625 5.0625 3.15625 3.45312 0 4.45312-2.625 4.45312-4.82812 0-2.21875-2.07812-3.98438-4.15625-3.98438-2.48437 0-3.82812 1.78125-4.625 2.875-.73437-1.1875-2.35937-2.84375-4.9375-2.84375-3.40625 0-4.67187 2.40625-4.67187 4.60938m1.17187.0625c0-1.875 1.3125-3.34375 2.875-3.34375 1.875 0 3.4375 1.96875 4.3125 3.35937C7.9375-2.60937 6.60938-.65625 4.51563-.65625c-1.35938 0-3.04688-1.54687-3.04688-3.23437m8.98438-1c.70312-1.26563 2.0625-2.82813 4.15625-2.82813 1.35937 0 2.98437 1.34375 2.98437 3.03125 0 1.89063-1.01562 3.60938-2.8125 3.60938-1.9375 0-3.46875-2.14063-4.32812-3.8125m0 0"/><path id="n" d="M1.59375-4.71875h4.57813v4.57813h1.09375v-4.57813h4.59375V-5.8125H7.26563v-4.59375H6.17188v4.59375H1.59375Zm0 0"/><path id="c" d="M.375 0h4.54688v-.53125C3.59375-.64062 3.53125-.67187 3.53125-1.625V-13.75l-.14062-.09375-2.90625.45313v.48437l.6875.0625c.46875.04688.59375.15625.59375.875V-1.625c0 .95313-.03126.98438-1.39063 1.09375Zm0 0"/><path id="d" d="M.59375 0h4.54688v-.53125C3.8125-.64062 3.75-.67187 3.75-1.625V-6c0-.46875.01563-.71875.1875-1.01562.39063-.73438 1.21875-1.34375 2.21875-1.34375 1.26563 0 1.96875.6875 1.96875 2.32812V-1.625c0 .95313-.0625.98438-1.40625 1.09375V0h4.5625v-.53125C9.95313-.64062 9.875-.67187 9.875-1.625v-4.76562c0-1.89063-1.03125-2.98438-2.75-2.98438-1.39062 0-2.23437.67188-3.39062 1.4375L3.46875-9.375.6875-8.89062v.45312l.70313.09375C1.85938-8.26562 2-8.1875 2-7.5v5.875C2-.67187 1.95313-.64062.59375-.53125Zm0 0"/><path id="f" d="M.57813-.1875C.57813-.125.73437 0 .92188 0c.10937 0 .3125-.03125.34375-.10937l2.32812-5.96875c.09375-.20313.09375-.3125.09375-.35938 0-.28125-.42187-.39062-.82812-.39062-.39063 0-1.01563.14062-1.04688.39062Zm0 0"/><path id="o" d="M.39063-3.10937C.39063-1.25.9375.10938 2.46875.10938 4.01563.10938 4.5625-1.25 4.5625-3.10937c0-1.875-.54687-3.23438-2.09375-3.23438-1.53125 0-2.07812 1.35938-2.07812 3.23438m.9375 0c0-1.53125.26562-2.90625 1.14062-2.90625.89063 0 1.14063 1.375 1.14063 2.90625 0 1.51562-.25 2.89062-1.14063 2.89062-.875 0-1.14062-1.375-1.14062-2.89062m0 0"/><path id="p" d="M.79688-2.35937h2.28125V-.0625H3.625v-2.29687h2.29688v-.54688H3.625v-2.29687h-.54687v2.29687H.79688Zm0 0"/><path id="q" d="M.15625-1.96875c0 1.10938 1.09375 2.0625 2.125 2.0625 1.3125 0 2.14063-1.29687 2.29688-1.5625C4.76563-1.125 5.67188.10938 7.10938.10938c1.73437 0 2.23437-1.3125 2.23437-2.40625 0-1.10938-1.04687-2-2.07812-2-1.25 0-1.92188.89062-2.3125 1.4375-.375-.59375-1.1875-1.42188-2.46875-1.42188-1.70313 0-2.32813 1.20313-2.32813 2.3125m.57813.03125c0-.9375.65625-1.67187 1.4375-1.67187.9375 0 1.71875.98437 2.15625 1.67187C3.96875-1.29687 3.29688-.32812 2.25-.32812c-.67187 0-1.51562-.76563-1.51562-1.60938m4.48437-.5C5.57813-3.07812 6.25-3.85937 7.29688-3.85937c.6875 0 1.5.67187 1.5 1.51562 0 .9375-.51563 1.8125-1.42188 1.8125-.95312 0-1.71875-1.07812-2.15625-1.90625m0 0"/><clipPath id="g"><path d="M0 56h226.34375v1H0Zm0 0"/></clipPath><clipPath id="h"><path d="M0 113h226.34375v1H0Zm0 0"/></clipPath><clipPath id="i"><path d="M0 169h226.34375v.90625H0Zm0 0"/></clipPath><clipPath id="j"><path d="M0 .05078h226.34375v169.85547H0Zm0 0"/></clipPath><clipPath id="k"><path d="M56 .05078h1v169.85547h-1Zm0 0"/></clipPath></defs><use xlink:href="#a" x="22.75287" y="33.06712"/><use xlink:href="#b" x="11.496" y="90.50127"/><use xlink:href="#c" x="19.11815" y="90.50127"/><use xlink:href="#d" x="24.31957" y="90.50127"/><use xlink:href="#b" x="35.855" y="90.50127"/><use xlink:href="#a" x="43.47845" y="90.50127"/><use xlink:href="#e" x="55.29084" y="90.50127"/><use xlink:href="#e" x="62.91429" y="90.50127"/><use xlink:href="#f" x="70.53828" y="82.56028"/><use xlink:href="#c" x="11.496" y="146.72485"/><use xlink:href="#d" x="16.69742" y="146.72485"/><use xlink:href="#b" x="28.23085" y="146.72485"/><use xlink:href="#a" x="35.85431" y="146.72485"/><use xlink:href="#e" x="47.66669" y="146.72485"/><g clip-path="url(#g)"><path fill="none" stroke="#000" stroke-miterlimit="10" stroke-width=".39705" d="M.19922 56.7344h225.9493"/></g><g clip-path="url(#h)"><path fill="none" stroke="#000" stroke-miterlimit="10" stroke-width=".39705" d="M.19922 113.2227h225.9493"/></g><g clip-path="url(#i)"><path fill="none" stroke="#000" stroke-miterlimit="10" stroke-width=".39705" d="M.19922 169.711h225.9493"/></g><g clip-path="url(#j)"><path fill="none" stroke="#000" stroke-miterlimit="10" stroke-width=".39705" d="M.19922.2461V169.711h225.9493V.2461Zm0 0"/></g><g clip-path="url(#k)"><path fill="none" stroke="#000" stroke-miterlimit="10" stroke-width=".39705" d="M56.68361.2461V169.711"/></g><use xlink:href="#l" x="68.699" y="32.68053"/><use xlink:href="#m" x="82.11945" y="32.68053"/><use xlink:href="#n" x="181.67124" y="33.58323"/><use xlink:href="#m" x="195.09169" y="33.58323"/><use xlink:href="#n" x="134.70484" y="90.17945"/><path fill="#FFF" d="M80.47266 165.73828h8.91406v-10.42187h-8.91406Zm0 0"/><use xlink:href="#o" x="82.45673" y="163.64304"/><path fill="#FFF" d="M80.47266 165.73828h8.91406v-10.42187h-8.91406Zm0 0"/><use xlink:href="#o" x="82.45673" y="163.64304"/><path fill="#FFF" d="M187.80469 126.47266h20.19922v-9.28125h-20.19922Zm0 0"/><use xlink:href="#p" x="189.78659" y="124.3785"/><use xlink:href="#q" x="196.49681" y="124.3785"/><path fill="#FFF" d="M187.80469 126.47266h20.19922v-9.28125h-20.19922Zm0 0"/><use xlink:href="#p" x="189.78659" y="124.3785"/><use xlink:href="#q" x="196.49681" y="124.3785"/><path fill="none" stroke="#000" stroke-miterlimit="10" stroke-width=".39705" d="m93.25003 157.67974 88.43753-30.29688"/><path d="M183.9414 126.60938c-1.0039.13671-2.82421.33984-4.23827-.1211 1.28906.71094 1.54687 1.46094.96484 2.8164.83594-1.23046 2.39844-2.18359 3.27344-2.6953m0 0"/></svg>