<svg xmlns="http://www.w3.org/2000/svg" xmlns:xlink="http://www.w3.org/1999/xlink" width="318.278pt" height="227.569pt" viewBox="0 0 318.278 227.569"><defs><clipPath id="a"><path d="M0 .04297h317.5586V182H0Zm0 0"/></clipPath><clipPath id="b"><path d="M45 68h227v68H45Zm0 0"/></clipPath><clipPath id="c"><path d="m45.64844 102.25781 1.3711-2.1875 1.36718-2.10547 1.3711-2.01953L51.1289 94 52.5 92.13672l1.3711-1.78516 1.37109-1.70703 1.3711-1.6289 1.37109-1.5547 1.37109-1.48437 1.36719-1.40625 1.37109-1.33594 1.3711-1.26171 1.37109-1.19141 1.3711-1.125 1.37108-1.05078 1.3711-.98828 1.3711-.91797 1.36718-.85156 1.3711-.78907 1.37109-.72265 1.3711-.66016 1.37108-.59766 1.3711-.53515 1.3711-.47656 1.37109-.41797 1.37109-.35938 1.36719-.30078 1.3711-.24219 1.37108-.1875 1.3711-.13671 1.3711-.07813 1.37109-.02734 1.37109.02734 1.3711.07422 1.36718.125 1.3711.17578 1.37109.22266 1.3711.26953 1.37109.3164 1.37109.36329 1.3711.40624 1.37109.44922 1.3711.4922 1.36718.53515 1.3711.57422 1.37109.61328 1.37109.65234 1.3711.6914 1.37109.72657 1.3711.76172 1.37108.80078 1.3672.83203 1.37109.86328 1.37109.89844 1.3711.92969 1.37109.95703 1.3711.98828 1.37108 1.01563 1.3711 1.04296 1.3711 1.07032 1.36718 1.09765 1.3711 1.11719 1.37109 1.14453 1.3711 1.16797 1.37108 1.1875 1.3711 1.20703 1.3711 1.23047 1.37109 1.2461 1.37109 1.26562 1.36719 1.28516 1.3711 1.29687 1.37108 1.3125 1.3711 1.32813 1.3711 1.34374 1.37109 1.35157 1.37109 1.36719 1.3711 1.375 1.36718 1.3828 1.3711 1.39454 1.37109 1.40234 1.3711 1.40625 1.37109 1.41406 1.37109 1.41797 2.74219 2.84375 1.3711 1.4297 1.36718 1.42577 1.3711 1.42578 1.37109 1.4297 1.37109 1.42577 1.3711 1.42188 1.37109 1.41797 1.3711 1.41406 1.37108 1.40625 1.3672 1.40234 1.37109 1.39453 1.37109 1.38282 1.3711 1.3789 90.5703.0625H45.64845"/></clipPath><clipPath id="e"><path d="M45 99h245v39H45Zm0 0"/></clipPath><clipPath id="f"><path d="m181.40625 136.19531 1.09375-1.09375 1.09766-1.08594 1.09765-1.07812 1.09375-1.07031 1.09766-1.0625 1.09766-1.05078 1.09375-1.04297 1.09765-1.03516 1.09766-1.02344 1.09765-1.01171 1.09375-1 1.09766-.98829 1.09766-.97265 1.09375-.96485 1.09765-.94921 1.09766-.9336 1.09766-.92187 1.09375-.90625 1.09765-.89063 1.09766-.8789 1.09375-.85547 1.09765-.84375 1.09766-.82422 1.09375-.8086 1.09766-.78906 1.09765-.76953 1.09766-.75 1.09375-.73047 1.09766-.71094 1.09765-.6914 1.09375-.66797 1.09766-.64844 1.09765-.625 1.09766-.60547 1.09375-.57812 1.09766-.55469 1.09765-.53516 1.09375-.5078 1.09766-.48438 1.09766-.45704 1.09765-.42968 1.09375-.40625 1.09766-.3789 1.09765-.34767 1.09375-.32421 1.09766-.29297 1.09766-.26563 1.09375-.23828 1.09765-.20703 1.09766-.17578 1.09766-.14453 1.09375-.11328 1.09765-.08204 1.09766-.05078 1.09375-.01953 1.09765.01563 1.09766.05078 1.09766.08594 1.09375.11718 1.09765.15235 1.09766.1875 1.09375.22656 1.09766.26172 1.09765.30078 1.09375.33203 1.09766.3789 1.09765.41016 1.09766.45313 1.09375.48828 1.09766.53516 1.09765.5703 1.09375.61329 1.09766.65234 1.09765.69922 1.09766.73438 1.09375.78515 1.09766.82032 1.09765.87109 1.09375.91016 1.09766.96093 1.09766 1 1.09375 1.05079 1.09765 1.09374 1.09766 1.14063 1.09765 1.1875 1.09375 1.23828 1.09766 1.28125 1.09766 1.33594 1.09375 1.3789 1.09765 1.4375 1.09766 1.48047 1.09766 1.53125 1.09375 1.58204 1.09765 1.63671 1.09766 1.6875 1.09375 1.7422 1.09765 1.78905 1.09766 1.84766 1.09375 1.89844-18.04687-2.07813H45.64844"/></clipPath><clipPath id="h"><path d="M312 134h5.5586v5H312Zm0 0"/></clipPath><clipPath id="i"><path d="M179 .04297h5V5h-5Zm0 0"/></clipPath><clipPath id="j"><path d="M179 .04297h5V6h-5Zm0 0"/></clipPath><clipPath id="l"><path d="M0 57h302v170.09766H0Zm0 0"/></clipPath><path id="k" d="M.45313-3.23437c0 1.04687.28125 1.90625.79687 2.46875.51563.59375 1.28125.90625 2.3125.90625 1.01563 0 1.78125-.3125 2.3125-.90625.5-.5625.79688-1.42188.79688-2.46875 0-1.03125-.29688-1.90625-.79688-2.45313-.53125-.59375-1.29687-.92187-2.3125-.92187-1.03125 0-1.79687.32812-2.3125.92187-.51562.54688-.79687 1.42188-.79687 2.45313m1.03125 0c0-1.35938.40625-3.04688 2.07812-3.04688 1.65625 0 2.0625 1.6875 2.0625 3.04688 0 1.375-.40625 3.04687-2.0625 3.04687-1.67187 0-2.07812-1.67187-2.07812-3.04687m0 0"/><path id="m" d="M1.3125-2c0 1.10938.51563 2.21875 1.78125 2.21875 2.01563 0 3.75-2.3125 4.84375-4.21875h.03125l-.64062 2.125c-.10938.42188-.1875.78125-.1875 1.07813 0 .65625.3125 1.01562 1.01562 1.01562 1.40625 0 2.45313-1.26562 3.09375-2.6875l-.4375-.25C10.46875-2.0625 9.64063-.75 9.125-.75c-.21875 0-.29687-.14062-.29687-.35937 0-.1875.0625-.40625.10937-.65625l1.96875-7.45313h-1.5625l-.07812.23438c-.32813-.21875-.875-.39063-1.375-.39063C3.4375-9.375 1.3125-4.46875 1.3125-2m1.84375-.04687c0-2.04688 1.82813-6.67188 4.78125-6.67188.45313 0 .84375.15625 1.125.40625-.34375 1.39063-1 3.25-1.98437 4.73438C6.01563-1.98437 4.875-.75 3.96875-.75c-.60937 0-.8125-.5625-.8125-1.29687m0 0"/><path id="n" d="M1.625 0h.6875l.5625-1.09375C3.21875-.3125 4.15625.21875 5.23438.21875 7.40625.21875 9-1.23437 9.92188-2.875c.9375-1.65625 1.23437-3.3125 1.23437-4.14062 0-1.39063-.60937-2.35938-2-2.35938-1.40625 0-3.26562 1.28125-4.70312 3.84375h-.04688l2.07813-8.23437-.07813-.09375-3.34375.4375-.125.4375 1.0625.125c.3125.04687.45313.09375.45313.375 0 .14062-.01563.29687-.07813.54687Zm2.3125-2.03125c0-.89062.39063-2.1875.98438-3.28125.84375-1.48437 2.25-3.09375 3.40625-3.09375.6875 0 1 .46875 1 1.54688 0 1.35937-1.125 6.42187-3.85938 6.42187-.95312 0-1.53125-.65625-1.53125-1.59375m0 0"/><linearGradient id="d" x1="0" x2="0" y1="25.00292" y2="74.9971" gradientTransform="matrix(4.5258 0 0 -1.35773 -67.5114 170.14287)" gradientUnits="userSpaceOnUse"><stop offset="0" stop-color="#BFBFFF" stop-opacity=".5"/><stop offset=".00391" stop-color="#BEBEFE" stop-opacity=".5"/><stop offset=".00781" stop-color="#BEBEFE" stop-opacity=".5"/><stop offset=".01172" stop-color="#BDBDFD" stop-opacity=".5"/><stop offset=".01563" stop-color="#BCBCFC" stop-opacity=".5"/><stop offset=".01953" stop-color="#BCBCFC" stop-opacity=".5"/><stop offset=".02344" stop-color="#BBBBFB" stop-opacity=".5"/><stop offset=".02734" stop-color="#BABAFA" stop-opacity=".5"/><stop offset=".03125" stop-color="#B9B9FA" stop-opacity=".5"/><stop offset=".03516" stop-color="#B9B9F9" stop-opacity=".5"/><stop offset=".03906" stop-color="#B8B8F9" stop-opacity=".5"/><stop offset=".04297" stop-color="#B7B7F8" stop-opacity=".5"/><stop offset=".04688" stop-color="#B6B6F7" stop-opacity=".5"/><stop offset=".05078" stop-color="#B6B6F7" stop-opacity=".5"/><stop offset=".05469" stop-color="#B5B5F6" stop-opacity=".5"/><stop offset=".05859" stop-color="#B4B4F5" stop-opacity=".5"/><stop offset=".0625" stop-color="#B3B3F5" stop-opacity=".5"/><stop offset=".06641" stop-color="#B3B3F4" stop-opacity=".5"/><stop offset=".07031" stop-color="#B2B2F3" stop-opacity=".5"/><stop offset=".07422" stop-color="#B1B1F3" stop-opacity=".5"/><stop offset=".07813" stop-color="#B0B0F2" stop-opacity=".5"/><stop offset=".08203" stop-color="#B0B0F1" stop-opacity=".5"/><stop offset=".08594" stop-color="#AFAFF1" stop-opacity=".5"/><stop offset=".08984" stop-color="#AEAEF0" stop-opacity=".5"/><stop offset=".09375" stop-color="#ADADEF" stop-opacity=".5"/><stop offset=".09766" stop-color="#ADADEF" stop-opacity=".5"/><stop offset=".10156" stop-color="#ACACEE" stop-opacity=".5"/><stop offset=".10547" stop-color="#ABABEE" stop-opacity=".5"/><stop offset=".10938" stop-color="#AAAAED" stop-opacity=".5"/><stop offset=".11328" stop-color="#AAAAEC" stop-opacity=".5"/><stop offset=".11719" stop-color="#A9A9EC" stop-opacity=".5"/><stop offset=".12109" stop-color="#A8A8EB" stop-opacity=".5"/><stop offset=".125" stop-color="#A7A7EA" stop-opacity=".5"/><stop offset=".12891" stop-color="#A7A7EA" stop-opacity=".5"/><stop offset=".13281" stop-color="#A6A6E9" stop-opacity=".5"/><stop offset=".13672" stop-color="#A5A5E8" stop-opacity=".5"/><stop offset=".14063" stop-color="#A4A4E8" stop-opacity=".5"/><stop offset=".14453" stop-color="#A4A4E7" stop-opacity=".5"/><stop offset=".14844" stop-color="#A3A3E6" stop-opacity=".5"/><stop offset=".15234" stop-color="#A2A2E6" stop-opacity=".5"/><stop offset=".15625" stop-color="#A1A1E5" stop-opacity=".5"/><stop offset=".16016" stop-color="#A1A1E4" stop-opacity=".5"/><stop offset=".16406" stop-color="#A0A0E4" stop-opacity=".5"/><stop offset=".16797" stop-color="#9F9FE3" stop-opacity=".5"/><stop offset=".17188" stop-color="#9E9EE3" stop-opacity=".5"/><stop offset=".17578" stop-color="#9E9EE2" stop-opacity=".5"/><stop offset=".17969" stop-color="#9D9DE1" stop-opacity=".5"/><stop offset=".18359" stop-color="#9C9CE1" stop-opacity=".5"/><stop offset=".1875" stop-color="#9B9BE0" stop-opacity=".5"/><stop offset=".19141" stop-color="#9B9BDF" stop-opacity=".5"/><stop offset=".19531" stop-color="#9A9ADF" stop-opacity=".5"/><stop offset=".19922" stop-color="#9999DE" stop-opacity=".5"/><stop offset=".20313" stop-color="#9898DD" stop-opacity=".5"/><stop offset=".20703" stop-color="#9898DD" stop-opacity=".5"/><stop offset=".21094" stop-color="#9797DC" stop-opacity=".5"/><stop offset=".21484" stop-color="#9696DB" stop-opacity=".5"/><stop offset=".21875" stop-color="#9595DB" stop-opacity=".5"/><stop offset=".22266" stop-color="#9595DA" stop-opacity=".5"/><stop offset=".22656" stop-color="#9494D9" stop-opacity=".5"/><stop offset=".23047" stop-color="#9393D9" stop-opacity=".5"/><stop offset=".23438" stop-color="#9292D8" stop-opacity=".5"/><stop offset=".23828" stop-color="#9292D7" stop-opacity=".5"/><stop offset=".24219" stop-color="#9191D7" stop-opacity=".5"/><stop offset=".24609" stop-color="#9090D6" stop-opacity=".5"/><stop offset=".25" stop-color="#8F8FD6" stop-opacity=".5"/><stop offset=".25391" stop-color="#8F8FD5" stop-opacity=".5"/><stop offset=".25781" stop-color="#8E8ED4" stop-opacity=".5"/><stop offset=".26172" stop-color="#8D8DD4" stop-opacity=".5"/><stop offset=".26563" stop-color="#8C8CD3" stop-opacity=".5"/><stop offset=".26953" stop-color="#8C8CD2" stop-opacity=".5"/><stop offset=".27344" stop-color="#8B8BD2" stop-opacity=".5"/><stop offset=".27734" stop-color="#8A8AD1" stop-opacity=".5"/><stop offset=".28125" stop-color="#8989D0" stop-opacity=".5"/><stop offset=".28516" stop-color="#8989D0" stop-opacity=".5"/><stop offset=".28906" stop-color="#8888CF" stop-opacity=".5"/><stop offset=".29297" stop-color="#8787CE" stop-opacity=".5"/><stop offset=".29688" stop-color="#8686CE" stop-opacity=".5"/><stop offset=".30078" stop-color="#8686CD" stop-opacity=".5"/><stop offset=".30469" stop-color="#8585CC" stop-opacity=".5"/><stop offset=".30859" stop-color="#8484CC" stop-opacity=".5"/><stop offset=".3125" stop-color="#8383CB" stop-opacity=".5"/><stop offset=".31641" stop-color="#8383CB" stop-opacity=".5"/><stop offset=".32031" stop-color="#8282CA" stop-opacity=".5"/><stop offset=".32422" stop-color="#8181C9" stop-opacity=".5"/><stop offset=".32813" stop-color="#8080C9" stop-opacity=".5"/><stop offset=".33203" stop-color="#8080C8" stop-opacity=".5"/><stop offset=".33594" stop-color="#7F7FC7" stop-opacity=".5"/><stop offset=".33984" stop-color="#7E7EC7" stop-opacity=".5"/><stop offset=".34375" stop-color="#7E7EC6" stop-opacity=".5"/><stop offset=".34766" stop-color="#7D7DC5" stop-opacity=".5"/><stop offset=".35156" stop-color="#7C7CC5" stop-opacity=".5"/><stop offset=".35547" stop-color="#7B7BC4" stop-opacity=".5"/><stop offset=".35938" stop-color="#7B7BC3" stop-opacity=".5"/><stop offset=".36328" stop-color="#7A7AC3" stop-opacity=".5"/><stop offset=".36719" stop-color="#7979C2" stop-opacity=".5"/><stop offset=".37109" stop-color="#7878C1" stop-opacity=".5"/><stop offset=".375" stop-color="#7878C1" stop-opacity=".5"/><stop offset=".37891" stop-color="#7777C0" stop-opacity=".5"/><stop offset=".38281" stop-color="#7676C0" stop-opacity=".5"/><stop offset=".38672" stop-color="#7575BF" stop-opacity=".5"/><stop offset=".39063" stop-color="#7575BE" stop-opacity=".5"/><stop offset=".39453" stop-color="#7474BE" stop-opacity=".5"/><stop offset=".39844" stop-color="#7373BD" stop-opacity=".5"/><stop offset=".40234" stop-color="#7272BC" stop-opacity=".5"/><stop offset=".40625" stop-color="#7272BC" stop-opacity=".5"/><stop offset=".41016" stop-color="#7171BB" stop-opacity=".5"/><stop offset=".41406" stop-color="#7070BA" stop-opacity=".5"/><stop offset=".41797" stop-color="#6F6FBA" stop-opacity=".5"/><stop offset=".42188" stop-color="#6F6FB9" stop-opacity=".5"/><stop offset=".42578" stop-color="#6E6EB8" stop-opacity=".5"/><stop offset=".42969" stop-color="#6D6DB8" stop-opacity=".5"/><stop offset=".43359" stop-color="#6C6CB7" stop-opacity=".5"/><stop offset=".4375" stop-color="#6C6CB6" stop-opacity=".5"/><stop offset=".44141" stop-color="#6B6BB6" stop-opacity=".5"/><stop offset=".44531" stop-color="#6A6AB5" stop-opacity=".5"/><stop offset=".44922" stop-color="#6969B5" stop-opacity=".5"/><stop offset=".45313" stop-color="#6969B4" stop-opacity=".5"/><stop offset=".45703" stop-color="#6868B3" stop-opacity=".5"/><stop offset=".46094" stop-color="#6767B3" stop-opacity=".5"/><stop offset=".46484" stop-color="#6666B2" stop-opacity=".5"/><stop offset=".46875" stop-color="#6666B1" stop-opacity=".5"/><stop offset=".47266" stop-color="#6565B1" stop-opacity=".5"/><stop offset=".47656" stop-color="#6464B0" stop-opacity=".5"/><stop offset=".48047" stop-color="#6363AF" stop-opacity=".5"/><stop offset=".48438" stop-color="#6363AF" stop-opacity=".5"/><stop offset=".48828" stop-color="#6262AE" stop-opacity=".5"/><stop offset=".49219" stop-color="#6161AD" stop-opacity=".5"/><stop offset=".49609" stop-color="#6060AD" stop-opacity=".5"/><stop offset=".5" stop-color="#6060AC" stop-opacity=".5"/><stop offset=".50391" stop-color="#5F5FAB" stop-opacity=".5"/><stop offset=".50781" stop-color="#5E5EAB" stop-opacity=".5"/><stop offset=".51172" stop-color="#5D5DAA" stop-opacity=".5"/><stop offset=".51563" stop-color="#5D5DAA" stop-opacity=".5"/><stop offset=".51953" stop-color="#5C5CA9" stop-opacity=".5"/><stop offset=".52344" stop-color="#5B5BA8" stop-opacity=".5"/><stop offset=".52734" stop-color="#5A5AA8" stop-opacity=".5"/><stop offset=".53125" stop-color="#5A5AA7" stop-opacity=".5"/><stop offset=".53516" stop-color="#5959A6" stop-opacity=".5"/><stop offset=".53906" stop-color="#5858A6" stop-opacity=".5"/><stop offset=".54297" stop-color="#5757A5" stop-opacity=".5"/><stop offset=".54688" stop-color="#5757A4" stop-opacity=".5"/><stop offset=".55078" stop-color="#5656A4" stop-opacity=".5"/><stop offset=".55469" stop-color="#5555A3" stop-opacity=".5"/><stop offset=".55859" stop-color="#5454A2" stop-opacity=".5"/><stop offset=".5625" stop-color="#5454A2" stop-opacity=".5"/><stop offset=".56641" stop-color="#5353A1" stop-opacity=".5"/><stop offset=".57031" stop-color="#5252A0" stop-opacity=".5"/><stop offset=".57422" stop-color="#5151A0" stop-opacity=".5"/><stop offset=".57813" stop-color="#51519F" stop-opacity=".5"/><stop offset=".58203" stop-color="#50509F" stop-opacity=".5"/><stop offset=".58594" stop-color="#4F4F9E" stop-opacity=".5"/><stop offset=".58984" stop-color="#4E4E9D" stop-opacity=".5"/><stop offset=".59375" stop-color="#4E4E9D" stop-opacity=".5"/><stop offset=".59766" stop-color="#4D4D9C" stop-opacity=".5"/><stop offset=".60156" stop-color="#4C4C9B" stop-opacity=".5"/><stop offset=".60547" stop-color="#4B4B9B" stop-opacity=".5"/><stop offset=".60938" stop-color="#4B4B9A" stop-opacity=".5"/><stop offset=".61328" stop-color="#4A4A99" stop-opacity=".5"/><stop offset=".61719" stop-color="#494999" stop-opacity=".5"/><stop offset=".62109" stop-color="#484898" stop-opacity=".5"/><stop offset=".625" stop-color="#484897" stop-opacity=".5"/><stop offset=".62891" stop-color="#474797" stop-opacity=".5"/><stop offset=".63281" stop-color="#464696" stop-opacity=".5"/><stop offset=".63672" stop-color="#454595" stop-opacity=".5"/><stop offset=".64063" stop-color="#454595" stop-opacity=".5"/><stop offset=".64453" stop-color="#444494" stop-opacity=".5"/><stop offset=".64844" stop-color="#434394" stop-opacity=".5"/><stop offset=".65234" stop-color="#424293" stop-opacity=".5"/><stop offset=".65625" stop-color="#424292" stop-opacity=".5"/><stop offset=".66016" stop-color="#414192" stop-opacity=".5"/><stop offset=".66406" stop-color="#404091" stop-opacity=".5"/><stop offset=".66797" stop-color="#404090" stop-opacity=".5"/><stop offset=".67188" stop-color="#3F3F90" stop-opacity=".5"/><stop offset=".67578" stop-color="#3E3E8F" stop-opacity=".5"/><stop offset=".67969" stop-color="#3D3D8E" stop-opacity=".5"/><stop offset=".68359" stop-color="#3D3D8E" stop-opacity=".5"/><stop offset=".6875" stop-color="#3C3C8D" stop-opacity=".5"/><stop offset=".69141" stop-color="#3B3B8C" stop-opacity=".5"/><stop offset=".69531" stop-color="#3A3A8C" stop-opacity=".5"/><stop offset=".69922" stop-color="#3A3A8B" stop-opacity=".5"/><stop offset=".70313" stop-color="#39398A" stop-opacity=".5"/><stop offset=".70703" stop-color="#38388A" stop-opacity=".5"/><stop offset=".71094" stop-color="#373789" stop-opacity=".5"/><stop offset=".71484" stop-color="#373789" stop-opacity=".5"/><stop offset=".71875" stop-color="#363688" stop-opacity=".5"/><stop offset=".72266" stop-color="#353587" stop-opacity=".5"/><stop offset=".72656" stop-color="#343487" stop-opacity=".5"/><stop offset=".73047" stop-color="#343486" stop-opacity=".5"/><stop offset=".73438" stop-color="#333385" stop-opacity=".5"/><stop offset=".73828" stop-color="#323285" stop-opacity=".5"/><stop offset=".74219" stop-color="#313184" stop-opacity=".5"/><stop offset=".74609" stop-color="#313183" stop-opacity=".5"/><stop offset=".75" stop-color="#303083" stop-opacity=".5"/><stop offset=".75391" stop-color="#2F2F82" stop-opacity=".5"/><stop offset=".75781" stop-color="#2E2E81" stop-opacity=".5"/><stop offset=".76172" stop-color="#2E2E81" stop-opacity=".5"/><stop offset=".76563" stop-color="#2D2D80" stop-opacity=".5"/><stop offset=".76953" stop-color="#2C2C7F" stop-opacity=".5"/><stop offset=".77344" stop-color="#2B2B7F" stop-opacity=".5"/><stop offset=".77734" stop-color="#2B2B7E" stop-opacity=".5"/><stop offset=".78125" stop-color="#2A2A7E" stop-opacity=".5"/><stop offset=".78516" stop-color="#29297D" stop-opacity=".5"/><stop offset=".78906" stop-color="#28287C" stop-opacity=".5"/><stop offset=".79297" stop-color="#28287C" stop-opacity=".5"/><stop offset=".79688" stop-color="#27277B" stop-opacity=".5"/><stop offset=".80078" stop-color="#26267A" stop-opacity=".5"/><stop offset=".80469" stop-color="#25257A" stop-opacity=".5"/><stop offset=".80859" stop-color="#252579" stop-opacity=".5"/><stop offset=".8125" stop-color="#242478" stop-opacity=".5"/><stop offset=".81641" stop-color="#232378" stop-opacity=".5"/><stop offset=".82031" stop-color="#227" stop-opacity=".5"/><stop offset=".82422" stop-color="#222276" stop-opacity=".5"/><stop offset=".82813" stop-color="#212176" stop-opacity=".5"/><stop offset=".83203" stop-color="#202075" stop-opacity=".5"/><stop offset=".83594" stop-color="#1F1F74" stop-opacity=".5"/><stop offset=".83984" stop-color="#1F1F74" stop-opacity=".5"/><stop offset=".84375" stop-color="#1E1E73" stop-opacity=".5"/><stop offset=".84766" stop-color="#1D1D73" stop-opacity=".5"/><stop offset=".85156" stop-color="#1C1C72" stop-opacity=".5"/><stop offset=".85547" stop-color="#1C1C71" stop-opacity=".5"/><stop offset=".85938" stop-color="#1B1B71" stop-opacity=".5"/><stop offset=".86328" stop-color="#1A1A70" stop-opacity=".5"/><stop offset=".86719" stop-color="#19196F" stop-opacity=".5"/><stop offset=".87109" stop-color="#19196F" stop-opacity=".5"/><stop offset=".875" stop-color="#18186E" stop-opacity=".5"/><stop offset=".87891" stop-color="#17176D" stop-opacity=".5"/><stop offset=".88281" stop-color="#16166D" stop-opacity=".5"/><stop offset=".88672" stop-color="#16166C" stop-opacity=".5"/><stop offset=".89063" stop-color="#15156B" stop-opacity=".5"/><stop offset=".89453" stop-color="#14146B" stop-opacity=".5"/><stop offset=".89844" stop-color="#13136A" stop-opacity=".5"/><stop offset=".90234" stop-color="#131369" stop-opacity=".5"/><stop offset=".90625" stop-color="#121269" stop-opacity=".5"/><stop offset=".91016" stop-color="#111168" stop-opacity=".5"/><stop offset=".91406" stop-color="#101068" stop-opacity=".5"/><stop offset=".91797" stop-color="#101067" stop-opacity=".5"/><stop offset=".92188" stop-color="#0F0F66" stop-opacity=".5"/><stop offset=".92578" stop-color="#0E0E66" stop-opacity=".5"/><stop offset=".92969" stop-color="#0D0D65" stop-opacity=".5"/><stop offset=".93359" stop-color="#0D0D64" stop-opacity=".5"/><stop offset=".9375" stop-color="#0C0C64" stop-opacity=".5"/><stop offset=".94141" stop-color="#0B0B63" stop-opacity=".5"/><stop offset=".94531" stop-color="#0A0A62" stop-opacity=".5"/><stop offset=".94922" stop-color="#0A0A62" stop-opacity=".5"/><stop offset=".95313" stop-color="#090961" stop-opacity=".5"/><stop offset=".95703" stop-color="#080860" stop-opacity=".5"/><stop offset=".96094" stop-color="#070760" stop-opacity=".5"/><stop offset=".96484" stop-color="#07075F" stop-opacity=".5"/><stop offset=".96875" stop-color="#06065E" stop-opacity=".5"/><stop offset=".97266" stop-color="#05055E" stop-opacity=".5"/><stop offset=".97656" stop-color="#04045D" stop-opacity=".5"/><stop offset=".98047" stop-color="#04045C" stop-opacity=".5"/><stop offset=".98438" stop-color="#03035C" stop-opacity=".5"/><stop offset=".98828" stop-color="#02025B" stop-opacity=".5"/><stop offset=".99219" stop-color="#02025B" stop-opacity=".5"/><stop offset=".99609" stop-color="#01015A" stop-opacity=".5"/><stop offset="1" stop-color="#000059" stop-opacity=".5"/></linearGradient><linearGradient id="g" x1="0" x2="0" y1="25.0028" y2="74.9972" gradientTransform="matrix(4.88681 0 0 -.77913 -76.53764 157.75452)" gradientUnits="userSpaceOnUse"><stop offset="0" stop-color="#BFBFFF" stop-opacity=".5"/><stop offset=".00391" stop-color="#BEBEFE" stop-opacity=".5"/><stop offset=".00781" stop-color="#BEBEFE" stop-opacity=".5"/><stop offset=".01172" stop-color="#BDBDFD" stop-opacity=".5"/><stop offset=".01563" stop-color="#BCBCFC" stop-opacity=".5"/><stop offset=".01953" stop-color="#BCBCFC" stop-opacity=".5"/><stop offset=".02344" stop-color="#BBBBFB" stop-opacity=".5"/><stop offset=".02734" stop-color="#BABAFA" stop-opacity=".5"/><stop offset=".03125" stop-color="#B9B9FA" stop-opacity=".5"/><stop offset=".03516" stop-color="#B9B9F9" stop-opacity=".5"/><stop offset=".03906" stop-color="#B8B8F9" stop-opacity=".5"/><stop offset=".04297" stop-color="#B7B7F8" stop-opacity=".5"/><stop offset=".04688" stop-color="#B6B6F7" stop-opacity=".5"/><stop offset=".05078" stop-color="#B6B6F7" stop-opacity=".5"/><stop offset=".05469" stop-color="#B5B5F6" stop-opacity=".5"/><stop offset=".05859" stop-color="#B4B4F5" stop-opacity=".5"/><stop offset=".0625" stop-color="#B3B3F5" stop-opacity=".5"/><stop offset=".06641" stop-color="#B3B3F4" stop-opacity=".5"/><stop offset=".07031" stop-color="#B2B2F3" stop-opacity=".5"/><stop offset=".07422" stop-color="#B1B1F3" stop-opacity=".5"/><stop offset=".07813" stop-color="#B0B0F2" stop-opacity=".5"/><stop offset=".08203" stop-color="#B0B0F1" stop-opacity=".5"/><stop offset=".08594" stop-color="#AFAFF1" stop-opacity=".5"/><stop offset=".08984" stop-color="#AEAEF0" stop-opacity=".5"/><stop offset=".09375" stop-color="#ADADEF" stop-opacity=".5"/><stop offset=".09766" stop-color="#ADADEF" stop-opacity=".5"/><stop offset=".10156" stop-color="#ACACEE" stop-opacity=".5"/><stop offset=".10547" stop-color="#ABABEE" stop-opacity=".5"/><stop offset=".10938" stop-color="#AAAAED" stop-opacity=".5"/><stop offset=".11328" stop-color="#AAAAEC" stop-opacity=".5"/><stop offset=".11719" stop-color="#A9A9EC" stop-opacity=".5"/><stop offset=".12109" stop-color="#A8A8EB" stop-opacity=".5"/><stop offset=".125" stop-color="#A7A7EA" stop-opacity=".5"/><stop offset=".12891" stop-color="#A7A7EA" stop-opacity=".5"/><stop offset=".13281" stop-color="#A6A6E9" stop-opacity=".5"/><stop offset=".13672" stop-color="#A5A5E8" stop-opacity=".5"/><stop offset=".14063" stop-color="#A4A4E8" stop-opacity=".5"/><stop offset=".14453" stop-color="#A4A4E7" stop-opacity=".5"/><stop offset=".14844" stop-color="#A3A3E6" stop-opacity=".5"/><stop offset=".15234" stop-color="#A2A2E6" stop-opacity=".5"/><stop offset=".15625" stop-color="#A1A1E5" stop-opacity=".5"/><stop offset=".16016" stop-color="#A1A1E4" stop-opacity=".5"/><stop offset=".16406" stop-color="#A0A0E4" stop-opacity=".5"/><stop offset=".16797" stop-color="#9F9FE3" stop-opacity=".5"/><stop offset=".17188" stop-color="#9E9EE3" stop-opacity=".5"/><stop offset=".17578" stop-color="#9E9EE2" stop-opacity=".5"/><stop offset=".17969" stop-color="#9D9DE1" stop-opacity=".5"/><stop offset=".18359" stop-color="#9C9CE1" stop-opacity=".5"/><stop offset=".1875" stop-color="#9B9BE0" stop-opacity=".5"/><stop offset=".19141" stop-color="#9B9BDF" stop-opacity=".5"/><stop offset=".19531" stop-color="#9A9ADF" stop-opacity=".5"/><stop offset=".19922" stop-color="#9999DE" stop-opacity=".5"/><stop offset=".20313" stop-color="#9898DD" stop-opacity=".5"/><stop offset=".20703" stop-color="#9898DD" stop-opacity=".5"/><stop offset=".21094" stop-color="#9797DC" stop-opacity=".5"/><stop offset=".21484" stop-color="#9696DB" stop-opacity=".5"/><stop offset=".21875" stop-color="#9595DB" stop-opacity=".5"/><stop offset=".22266" stop-color="#9595DA" stop-opacity=".5"/><stop offset=".22656" stop-color="#9494D9" stop-opacity=".5"/><stop offset=".23047" stop-color="#9393D9" stop-opacity=".5"/><stop offset=".23438" stop-color="#9292D8" stop-opacity=".5"/><stop offset=".23828" stop-color="#9292D7" stop-opacity=".5"/><stop offset=".24219" stop-color="#9191D7" stop-opacity=".5"/><stop offset=".24609" stop-color="#9090D6" stop-opacity=".5"/><stop offset=".25" stop-color="#8F8FD6" stop-opacity=".5"/><stop offset=".25391" stop-color="#8F8FD5" stop-opacity=".5"/><stop offset=".25781" stop-color="#8E8ED4" stop-opacity=".5"/><stop offset=".26172" stop-color="#8D8DD4" stop-opacity=".5"/><stop offset=".26563" stop-color="#8C8CD3" stop-opacity=".5"/><stop offset=".26953" stop-color="#8C8CD2" stop-opacity=".5"/><stop offset=".27344" stop-color="#8B8BD2" stop-opacity=".5"/><stop offset=".27734" stop-color="#8A8AD1" stop-opacity=".5"/><stop offset=".28125" stop-color="#8989D0" stop-opacity=".5"/><stop offset=".28516" stop-color="#8989D0" stop-opacity=".5"/><stop offset=".28906" stop-color="#8888CF" stop-opacity=".5"/><stop offset=".29297" stop-color="#8787CE" stop-opacity=".5"/><stop offset=".29688" stop-color="#8686CE" stop-opacity=".5"/><stop offset=".30078" stop-color="#8686CD" stop-opacity=".5"/><stop offset=".30469" stop-color="#8585CC" stop-opacity=".5"/><stop offset=".30859" stop-color="#8484CC" stop-opacity=".5"/><stop offset=".3125" stop-color="#8383CB" stop-opacity=".5"/><stop offset=".31641" stop-color="#8383CB" stop-opacity=".5"/><stop offset=".32031" stop-color="#8282CA" stop-opacity=".5"/><stop offset=".32422" stop-color="#8181C9" stop-opacity=".5"/><stop offset=".32813" stop-color="#8080C9" stop-opacity=".5"/><stop offset=".33203" stop-color="#8080C8" stop-opacity=".5"/><stop offset=".33594" stop-color="#7F7FC7" stop-opacity=".5"/><stop offset=".33984" stop-color="#7E7EC7" stop-opacity=".5"/><stop offset=".34375" stop-color="#7E7EC6" stop-opacity=".5"/><stop offset=".34766" stop-color="#7D7DC5" stop-opacity=".5"/><stop offset=".35156" stop-color="#7C7CC5" stop-opacity=".5"/><stop offset=".35547" stop-color="#7B7BC4" stop-opacity=".5"/><stop offset=".35938" stop-color="#7B7BC3" stop-opacity=".5"/><stop offset=".36328" stop-color="#7A7AC3" stop-opacity=".5"/><stop offset=".36719" stop-color="#7979C2" stop-opacity=".5"/><stop offset=".37109" stop-color="#7878C1" stop-opacity=".5"/><stop offset=".375" stop-color="#7878C1" stop-opacity=".5"/><stop offset=".37891" stop-color="#7777C0" stop-opacity=".5"/><stop offset=".38281" stop-color="#7676C0" stop-opacity=".5"/><stop offset=".38672" stop-color="#7575BF" stop-opacity=".5"/><stop offset=".39063" stop-color="#7575BE" stop-opacity=".5"/><stop offset=".39453" stop-color="#7474BE" stop-opacity=".5"/><stop offset=".39844" stop-color="#7373BD" stop-opacity=".5"/><stop offset=".40234" stop-color="#7272BC" stop-opacity=".5"/><stop offset=".40625" stop-color="#7272BC" stop-opacity=".5"/><stop offset=".41016" stop-color="#7171BB" stop-opacity=".5"/><stop offset=".41406" stop-color="#7070BA" stop-opacity=".5"/><stop offset=".41797" stop-color="#6F6FBA" stop-opacity=".5"/><stop offset=".42188" stop-color="#6F6FB9" stop-opacity=".5"/><stop offset=".42578" stop-color="#6E6EB8" stop-opacity=".5"/><stop offset=".42969" stop-color="#6D6DB8" stop-opacity=".5"/><stop offset=".43359" stop-color="#6C6CB7" stop-opacity=".5"/><stop offset=".4375" stop-color="#6C6CB6" stop-opacity=".5"/><stop offset=".44141" stop-color="#6B6BB6" stop-opacity=".5"/><stop offset=".44531" stop-color="#6A6AB5" stop-opacity=".5"/><stop offset=".44922" stop-color="#6969B5" stop-opacity=".5"/><stop offset=".45313" stop-color="#6969B4" stop-opacity=".5"/><stop offset=".45703" stop-color="#6868B3" stop-opacity=".5"/><stop offset=".46094" stop-color="#6767B3" stop-opacity=".5"/><stop offset=".46484" stop-color="#6666B2" stop-opacity=".5"/><stop offset=".46875" stop-color="#6666B1" stop-opacity=".5"/><stop offset=".47266" stop-color="#6565B1" stop-opacity=".5"/><stop offset=".47656" stop-color="#6464B0" stop-opacity=".5"/><stop offset=".48047" stop-color="#6363AF" stop-opacity=".5"/><stop offset=".48438" stop-color="#6363AF" stop-opacity=".5"/><stop offset=".48828" stop-color="#6262AE" stop-opacity=".5"/><stop offset=".49219" stop-color="#6161AD" stop-opacity=".5"/><stop offset=".49609" stop-color="#6060AD" stop-opacity=".5"/><stop offset=".5" stop-color="#6060AC" stop-opacity=".5"/><stop offset=".50391" stop-color="#5F5FAB" stop-opacity=".5"/><stop offset=".50781" stop-color="#5E5EAB" stop-opacity=".5"/><stop offset=".51172" stop-color="#5D5DAA" stop-opacity=".5"/><stop offset=".51563" stop-color="#5D5DAA" stop-opacity=".5"/><stop offset=".51953" stop-color="#5C5CA9" stop-opacity=".5"/><stop offset=".52344" stop-color="#5B5BA8" stop-opacity=".5"/><stop offset=".52734" stop-color="#5A5AA8" stop-opacity=".5"/><stop offset=".53125" stop-color="#5A5AA7" stop-opacity=".5"/><stop offset=".53516" stop-color="#5959A6" stop-opacity=".5"/><stop offset=".53906" stop-color="#5858A6" stop-opacity=".5"/><stop offset=".54297" stop-color="#5757A5" stop-opacity=".5"/><stop offset=".54688" stop-color="#5757A4" stop-opacity=".5"/><stop offset=".55078" stop-color="#5656A4" stop-opacity=".5"/><stop offset=".55469" stop-color="#5555A3" stop-opacity=".5"/><stop offset=".55859" stop-color="#5454A2" stop-opacity=".5"/><stop offset=".5625" stop-color="#5454A2" stop-opacity=".5"/><stop offset=".56641" stop-color="#5353A1" stop-opacity=".5"/><stop offset=".57031" stop-color="#5252A0" stop-opacity=".5"/><stop offset=".57422" stop-color="#5151A0" stop-opacity=".5"/><stop offset=".57813" stop-color="#51519F" stop-opacity=".5"/><stop offset=".58203" stop-color="#50509F" stop-opacity=".5"/><stop offset=".58594" stop-color="#4F4F9E" stop-opacity=".5"/><stop offset=".58984" stop-color="#4E4E9D" stop-opacity=".5"/><stop offset=".59375" stop-color="#4E4E9D" stop-opacity=".5"/><stop offset=".59766" stop-color="#4D4D9C" stop-opacity=".5"/><stop offset=".60156" stop-color="#4C4C9B" stop-opacity=".5"/><stop offset=".60547" stop-color="#4B4B9B" stop-opacity=".5"/><stop offset=".60938" stop-color="#4B4B9A" stop-opacity=".5"/><stop offset=".61328" stop-color="#4A4A99" stop-opacity=".5"/><stop offset=".61719" stop-color="#494999" stop-opacity=".5"/><stop offset=".62109" stop-color="#484898" stop-opacity=".5"/><stop offset=".625" stop-color="#484897" stop-opacity=".5"/><stop offset=".62891" stop-color="#474797" stop-opacity=".5"/><stop offset=".63281" stop-color="#464696" stop-opacity=".5"/><stop offset=".63672" stop-color="#454595" stop-opacity=".5"/><stop offset=".64063" stop-color="#454595" stop-opacity=".5"/><stop offset=".64453" stop-color="#444494" stop-opacity=".5"/><stop offset=".64844" stop-color="#434394" stop-opacity=".5"/><stop offset=".65234" stop-color="#424293" stop-opacity=".5"/><stop offset=".65625" stop-color="#424292" stop-opacity=".5"/><stop offset=".66016" stop-color="#414192" stop-opacity=".5"/><stop offset=".66406" stop-color="#404091" stop-opacity=".5"/><stop offset=".66797" stop-color="#404090" stop-opacity=".5"/><stop offset=".67188" stop-color="#3F3F90" stop-opacity=".5"/><stop offset=".67578" stop-color="#3E3E8F" stop-opacity=".5"/><stop offset=".67969" stop-color="#3D3D8E" stop-opacity=".5"/><stop offset=".68359" stop-color="#3D3D8E" stop-opacity=".5"/><stop offset=".6875" stop-color="#3C3C8D" stop-opacity=".5"/><stop offset=".69141" stop-color="#3B3B8C" stop-opacity=".5"/><stop offset=".69531" stop-color="#3A3A8C" stop-opacity=".5"/><stop offset=".69922" stop-color="#3A3A8B" stop-opacity=".5"/><stop offset=".70313" stop-color="#39398A" stop-opacity=".5"/><stop offset=".70703" stop-color="#38388A" stop-opacity=".5"/><stop offset=".71094" stop-color="#373789" stop-opacity=".5"/><stop offset=".71484" stop-color="#373789" stop-opacity=".5"/><stop offset=".71875" stop-color="#363688" stop-opacity=".5"/><stop offset=".72266" stop-color="#353587" stop-opacity=".5"/><stop offset=".72656" stop-color="#343487" stop-opacity=".5"/><stop offset=".73047" stop-color="#343486" stop-opacity=".5"/><stop offset=".73438" stop-color="#333385" stop-opacity=".5"/><stop offset=".73828" stop-color="#323285" stop-opacity=".5"/><stop offset=".74219" stop-color="#313184" stop-opacity=".5"/><stop offset=".74609" stop-color="#313183" stop-opacity=".5"/><stop offset=".75" stop-color="#303083" stop-opacity=".5"/><stop offset=".75391" stop-color="#2F2F82" stop-opacity=".5"/><stop offset=".75781" stop-color="#2E2E81" stop-opacity=".5"/><stop offset=".76172" stop-color="#2E2E81" stop-opacity=".5"/><stop offset=".76563" stop-color="#2D2D80" stop-opacity=".5"/><stop offset=".76953" stop-color="#2C2C7F" stop-opacity=".5"/><stop offset=".77344" stop-color="#2B2B7F" stop-opacity=".5"/><stop offset=".77734" stop-color="#2B2B7E" stop-opacity=".5"/><stop offset=".78125" stop-color="#2A2A7E" stop-opacity=".5"/><stop offset=".78516" stop-color="#29297D" stop-opacity=".5"/><stop offset=".78906" stop-color="#28287C" stop-opacity=".5"/><stop offset=".79297" stop-color="#28287C" stop-opacity=".5"/><stop offset=".79688" stop-color="#27277B" stop-opacity=".5"/><stop offset=".80078" stop-color="#26267A" stop-opacity=".5"/><stop offset=".80469" stop-color="#25257A" stop-opacity=".5"/><stop offset=".80859" stop-color="#252579" stop-opacity=".5"/><stop offset=".8125" stop-color="#242478" stop-opacity=".5"/><stop offset=".81641" stop-color="#232378" stop-opacity=".5"/><stop offset=".82031" stop-color="#227" stop-opacity=".5"/><stop offset=".82422" stop-color="#222276" stop-opacity=".5"/><stop offset=".82813" stop-color="#212176" stop-opacity=".5"/><stop offset=".83203" stop-color="#202075" stop-opacity=".5"/><stop offset=".83594" stop-color="#1F1F74" stop-opacity=".5"/><stop offset=".83984" stop-color="#1F1F74" stop-opacity=".5"/><stop offset=".84375" stop-color="#1E1E73" stop-opacity=".5"/><stop offset=".84766" stop-color="#1D1D73" stop-opacity=".5"/><stop offset=".85156" stop-color="#1C1C72" stop-opacity=".5"/><stop offset=".85547" stop-color="#1C1C71" stop-opacity=".5"/><stop offset=".85938" stop-color="#1B1B71" stop-opacity=".5"/><stop offset=".86328" stop-color="#1A1A70" stop-opacity=".5"/><stop offset=".86719" stop-color="#19196F" stop-opacity=".5"/><stop offset=".87109" stop-color="#19196F" stop-opacity=".5"/><stop offset=".875" stop-color="#18186E" stop-opacity=".5"/><stop offset=".87891" stop-color="#17176D" stop-opacity=".5"/><stop offset=".88281" stop-color="#16166D" stop-opacity=".5"/><stop offset=".88672" stop-color="#16166C" stop-opacity=".5"/><stop offset=".89063" stop-color="#15156B" stop-opacity=".5"/><stop offset=".89453" stop-color="#14146B" stop-opacity=".5"/><stop offset=".89844" stop-color="#13136A" stop-opacity=".5"/><stop offset=".90234" stop-color="#131369" stop-opacity=".5"/><stop offset=".90625" stop-color="#121269" stop-opacity=".5"/><stop offset=".91016" stop-color="#111168" stop-opacity=".5"/><stop offset=".91406" stop-color="#101068" stop-opacity=".5"/><stop offset=".91797" stop-color="#101067" stop-opacity=".5"/><stop offset=".92188" stop-color="#0F0F66" stop-opacity=".5"/><stop offset=".92578" stop-color="#0E0E66" stop-opacity=".5"/><stop offset=".92969" stop-color="#0D0D65" stop-opacity=".5"/><stop offset=".93359" stop-color="#0D0D64" stop-opacity=".5"/><stop offset=".9375" stop-color="#0C0C64" stop-opacity=".5"/><stop offset=".94141" stop-color="#0B0B63" stop-opacity=".5"/><stop offset=".94531" stop-color="#0A0A62" stop-opacity=".5"/><stop offset=".94922" stop-color="#0A0A62" stop-opacity=".5"/><stop offset=".95313" stop-color="#090961" stop-opacity=".5"/><stop offset=".95703" stop-color="#080860" stop-opacity=".5"/><stop offset=".96094" stop-color="#070760" stop-opacity=".5"/><stop offset=".96484" stop-color="#07075F" stop-opacity=".5"/><stop offset=".96875" stop-color="#06065E" stop-opacity=".5"/><stop offset=".97266" stop-color="#05055E" stop-opacity=".5"/><stop offset=".97656" stop-color="#04045D" stop-opacity=".5"/><stop offset=".98047" stop-color="#04045C" stop-opacity=".5"/><stop offset=".98438" stop-color="#03035C" stop-opacity=".5"/><stop offset=".98828" stop-color="#02025B" stop-opacity=".5"/><stop offset=".99219" stop-color="#02025B" stop-opacity=".5"/><stop offset=".99609" stop-color="#01015A" stop-opacity=".5"/><stop offset="1" stop-color="#000059" stop-opacity=".5"/></linearGradient></defs><g clip-path="url(#a)"><path fill="none" stroke="#DFDFDF" stroke-miterlimit="10" stroke-width=".3976" d="M.39447 181.44923H317.1602M.39447 136.19531H317.1602M.39447 90.9414H317.1602M.39447 45.69138H317.1602M.39447.45308H317.1602M.39447 181.44923V.43746M45.6484 181.44923V.43746m45.25002 181.01177V.43746m45.25392 181.01177V.43746m45.25392 181.01177V.43746m45.25001 181.01177V.43746m45.25393 181.01177V.43746m45.23439 181.01177V.43746"/></g><path fill-opacity=".5" d="m45.64844 102.25781 1.3711-2.1875 1.36718-2.10547 1.3711-2.01953L51.1289 94 52.5 92.13672l1.3711-1.78516 1.37109-1.70703 1.3711-1.6289 1.37109-1.5547 1.37109-1.48437 1.36719-1.40625 1.37109-1.33594 1.3711-1.26171 1.37109-1.19141 1.3711-1.125 1.37108-1.05078 1.3711-.98828 1.3711-.91797 1.36718-.85156 1.3711-.78907 1.37109-.72265 1.3711-.66016 1.37108-.59766 1.3711-.53515 1.3711-.47656 1.37109-.41797 1.37109-.35938 1.36719-.30078 1.3711-.24219 1.37108-.1875 1.3711-.13671 1.3711-.07813 1.37109-.02734 1.37109.02734 1.3711.07422 1.36718.125 1.3711.17578 1.37109.22266 1.3711.26953 1.37109.3164 1.37109.36329 1.3711.40624 1.37109.44922 1.3711.4922 1.36718.53515 1.3711.57422 1.37109.61328 1.37109.65234 1.3711.6914 1.37109.72657 1.3711.76172 1.37108.80078 1.3672.83203 1.37109.86328 1.37109.89844 1.3711.92969 1.37109.95703 1.3711.98828 1.37108 1.01563 1.3711 1.04296 1.3711 1.07032 1.36718 1.09765 1.3711 1.11719 1.37109 1.14453 1.3711 1.16797 1.37108 1.1875 1.3711 1.20703 1.3711 1.23047 1.37109 1.2461 1.37109 1.26562 1.36719 1.28516 1.3711 1.29687 1.37108 1.3125 1.3711 1.32813 1.3711 1.34374 1.37109 1.35157 1.37109 1.36719 1.3711 1.375 1.36718 1.3828 1.3711 1.39454 1.37109 1.40234 1.3711 1.40625 1.37109 1.41406 1.37109 1.41797 2.74219 2.84375 1.3711 1.4297 1.36718 1.42577 1.3711 1.42578 1.37109 1.4297 1.37109 1.42577 1.3711 1.42188 1.37109 1.41797 1.3711 1.41406 1.37108 1.40625 1.3672 1.40234 1.37109 1.39453 1.37109 1.38282 1.3711 1.3789 90.5703.0625H45.64845"/><g clip-path="url(#b)"><g clip-path="url(#c)"><path fill="url(#d)" d="M45.64844 136.19531v-67.8789h226.26172v67.8789Zm0 0"/></g></g><path fill-opacity=".5" d="m181.40625 136.19531 1.09375-1.09375 1.09766-1.08594 1.09765-1.07812 1.09375-1.07031 1.09766-1.0625 1.09766-1.05078 1.09375-1.04297 1.09765-1.03516 1.09766-1.02344 1.09765-1.01171 1.09375-1 1.09766-.98829 1.09766-.97265 1.09375-.96485 1.09765-.94921 1.09766-.9336 1.09766-.92187 1.09375-.90625 1.09765-.89063 1.09766-.8789 1.09375-.85547 1.09765-.84375 1.09766-.82422 1.09375-.8086 1.09766-.78906 1.09765-.76953 1.09766-.75 1.09375-.73047 1.09766-.71094 1.09765-.6914 1.09375-.66797 1.09766-.64844 1.09765-.625 1.09766-.60547 1.09375-.57812 1.09766-.55469 1.09765-.53516 1.09375-.5078 1.09766-.48438 1.09766-.45704 1.09765-.42968 1.09375-.40625 1.09766-.3789 1.09765-.34767 1.09375-.32421 1.09766-.29297 1.09766-.26563 1.09375-.23828 1.09765-.20703 1.09766-.17578 1.09766-.14453 1.09375-.11328 1.09765-.08204 1.09766-.05078 1.09375-.01953 1.09765.01563 1.09766.05078 1.09766.08594 1.09375.11718 1.09765.15235 1.09766.1875 1.09375.22656 1.09766.26172 1.09765.30078 1.09375.33203 1.09766.3789 1.09765.41016 1.09766.45313 1.09375.48828 1.09766.53516 1.09765.5703 1.09375.61329 1.09766.65234 1.09765.69922 1.09766.73438 1.09375.78515 1.09766.82032 1.09765.87109 1.09375.91016 1.09766.96093 1.09766 1 1.09375 1.05079 1.09765 1.09374 1.09766 1.14063 1.09765 1.1875 1.09375 1.23828 1.09766 1.28125 1.09766 1.33594 1.09375 1.3789 1.09765 1.4375 1.09766 1.48047 1.09766 1.53125 1.09375 1.58204 1.09765 1.63671 1.09766 1.6875 1.09375 1.7422 1.09765 1.78905 1.09766 1.84766 1.09375 1.89844-18.04687-2.07813H45.64844"/><g clip-path="url(#e)"><g clip-path="url(#f)"><path fill="url(#g)" d="M45.64844 138.27344V99.3203h244.3086v38.95313Zm0 0"/></g></g><path fill="none" stroke="#000" stroke-miterlimit="10" stroke-width=".79521" d="M.39447 136.19531h315.33604"/><path d="M316.76563 136.19531c-1.29297-.25781-2.58594-.77344-4.13672-1.67969 1.55078 1.16407 1.55078 2.19532 0 3.35938 1.55078-.90234 2.84375-1.42187 4.13671-1.67969m0 0"/><g clip-path="url(#h)"><path fill="none" stroke="#000" stroke-linejoin="round" stroke-miterlimit="10" stroke-width=".79521" d="M316.76562 136.19531c-1.29296-.25781-2.58593-.77344-4.13671-1.67969 1.55078 1.16407 1.55078 2.19532 0 3.35938 1.55078-.90234 2.84375-1.42187 4.13671-1.67969Zm0 0"/></g><path fill="none" stroke="#000" stroke-miterlimit="10" stroke-width=".79521" d="M181.40625 181.44923V1.87105"/><g clip-path="url(#i)"><path d="M181.40625.83594c-.26172 1.29297-.77734 2.58594-1.67969 4.13672 1.16016-1.55079 2.19531-1.55079 3.35938 0-.90625-1.55079-1.42188-2.84375-1.67969-4.13672m0 0"/></g><g clip-path="url(#j)"><path fill="none" stroke="#000" stroke-linejoin="round" stroke-miterlimit="10" stroke-width=".79521" d="M181.40625.83594c-.26172 1.29297-.77734 2.58594-1.67969 4.13672 1.16016-1.55078 2.19532-1.55078 3.35938 0-.90625-1.55078-1.42188-2.84375-1.67969-4.13672Zm0 0"/></g><use xlink:href="#k" x="167.26457" y="149.82873"/><g clip-path="url(#l)"><path fill="none" stroke="#00007F" stroke-miterlimit="10" stroke-width=".79521" d="m.39447 226.69925 2.92578-11.44141 2.92579-10.9297 2.92187-10.42968 2.92579-9.9375 2.92578-9.45314 2.92578-8.97656 2.92578-8.51563 2.92188-8.0586 2.92578-7.61328 2.92578-7.17188 2.92578-6.75 2.92579-6.32422 2.92187-5.91797 2.92579-5.51563 2.92578-5.125 2.92578-4.74219 2.92188-4.3711 2.92578-4.0039 2.92578-3.65235 2.92578-3.30468 2.92578-2.96485 2.92188-2.64062 2.92578-2.32422 2.92578-2.01172 2.92579-1.71485 2.92578-1.42187 2.92188-1.14063 2.92578-.86719 2.92578-.60546 2.92578-.35157 2.92188-.10547 2.92578.13282 2.92578.35547 2.92578.57421 2.92579.78125 2.92187.98047 2.92578 1.17188 2.92579 1.35156 2.92578 1.52344 2.92578 1.6875 2.92188 1.83985 2.92578 1.98437 2.92578 2.11719 2.92578 2.2461 2.92188 2.35937 2.92578 2.47266 2.92578 2.5664 2.92579 2.65625 2.92578 2.73438 2.92187 2.8086 2.92579 2.86718 2.92578 2.92188 2.92578 2.96484 2.92578 3 2.92188 3.02344 2.92578 3.03907 2.92578 3.04687 2.92579 3.04297 2.92187 3.03125 2.92578 3.01172 2.92579 2.98047 2.92578 2.94141 2.92578 2.89453 2.92188 2.83594 2.92578 2.76953 2.92578 2.69532 2.92578 2.60937 2.92578 2.51563 2.92188 2.41015 2.92578 2.30079 2.92579 2.17578 2.92578 2.04687 2.92187 1.90625 2.92579 1.75782 2.92578 1.59765 2.92578 1.4336 2.92578 1.2539 2.92188 1.06641 2.92578.8789 2.92578.66798 2.92578.45703 2.92579.23437 2.92187.00391 2.92578-.23828 2.92579-.48828 2.92578-.75 2.92188-1.01172 2.92578-1.29688 2.92578-1.57812 2.92578-1.875 2.92578-2.1797 2.92188-2.49609 2.92578-2.8164 2.92578-3.14844 2.92579-3.49219 2.92578-3.84375 2.92187-4.19922 2.92579-4.57422 2.92578-4.94532"/></g><path fill="none" stroke="#FFF" stroke-dasharray="2.9820752442 2.9820752442" stroke-miterlimit="10" stroke-width=".79521" d="m181.40625 136.19531 1.09375-1.09375 1.09766-1.08594 1.09765-1.07812 1.09375-1.07031 1.09766-1.0625 1.09766-1.05079 1.09375-1.04297 1.09765-1.03515 1.09766-1.02344 1.09766-1.01172 1.09375-1 1.09765-.98828 1.09766-.97266 1.09375-.96484 1.09766-.94922 1.09766-.9336 1.09765-.92187 1.09375-.90625 1.09766-.89063 1.09765-.8789 1.09375-.85547 1.09766-.84375 1.09766-.82422 1.09375-.8086 1.09766-.78906 1.09765-.76953 1.09766-.75 1.09375-.73047 1.09766-.71094 1.09765-.6914 1.09375-.66797 1.09766-.64844 1.09766-.625 1.09765-.60547 1.09375-.57812 1.09766-.55469 1.09766-.53516 1.09375-.5078 1.09765-.48438 1.09766-.45704 1.09766-.42968 1.09375-.40625 1.09765-.37891 1.09766-.34766 1.09375-.32422 1.09766-.29296 1.09765-.26563 1.09375-.23828 1.09766-.20703 1.09766-.17578 1.09765-.14453 1.09375-.11329 1.09766-.08203 1.09766-.05078 1.09375-.01953 1.09765.01563 1.09766.05078 1.09766.08593 1.09375.1172 1.09765.15234 1.09766.1875 1.09375.22656 1.09766.26172 1.09765.30078 1.09375.33203 1.09766.3789 1.09766.41016 1.09765.45313 1.09375.48828 1.09766.53516 1.09766.5703 1.09375.61329 1.09765.65234 1.09766.69922 1.09766.73438 1.09375.78515 1.09766.82032 1.09765.8711 1.09375.91015 1.09766.96094 1.09766 1 1.09375 1.05078 1.09765 1.09375 1.09766 1.14062 1.09766 1.1875 1.09375 1.23829 1.09765 1.28125 1.09766 1.33593 1.09375 1.37891 1.09766 1.4375 1.09765 1.48047 1.09766 1.53125 1.09375 1.58203 1.09766 1.63672 1.09765 1.6875 1.09375 1.74219 1.09766 1.78906 1.09766 1.84766 1.09375 1.89844"/><use xlink:href="#m" x="39.82466" y="163.40394"/><use xlink:href="#n" x="279.70949" y="165.63987"/></svg>