<svg xmlns="http://www.w3.org/2000/svg" xmlns:xlink="http://www.w3.org/1999/xlink" width="272.039pt" height="113.686pt" viewBox="0 0 272.039 113.686"><defs><path id="b" d="M.54688-4.35937C.54688-1.75 1.3125.15625 3.46875.15625S6.39063-1.75 6.39063-4.35937c0-2.625-.76563-4.53125-2.92188-4.53125S.54688-6.98437.54688-4.35937m1.3125 0c0-2.14063.35937-4.0625 1.60937-4.0625 1.23438 0 1.59375 1.92187 1.59375 4.0625 0 2.125-.35937 4.04687-1.59375 4.04687-1.25 0-1.60937-1.92187-1.60937-4.04687m0 0"/><path id="c" d="M1.42188 0h4.29687v-.375L4.60938-.46875C4.34375-.5 4.1875-.59375 4.1875-1.10937V-8.8125l-.07812-.07812-2.6875.46875v.3125l1.21875.15625c.21875.03125.3125.125.3125.5v6.34375c0 .25-.03125.40625-.10938.5-.07812.09374-.1875.125-.32812.14062L1.42188-.375Zm0 0"/><path id="d" d="M.64063-3.07812c0 1.9375 1.01562 3.23437 2.73437 3.23437.71875 0 1.3125-.32812 2.01563-.89062v.64062L5.5 0h2.125v-.375c-.9375-.0625-.98437-.09375-.98437-.76562V-9.625l-.09375-.0625-2.0625.3125v.34375L5-9c.32813.04688.40625.10938.40625.60938V-6.25c-.35937-.1875-.84375-.3125-1.4375-.3125-1.07812 0-1.89062.34375-2.42187.90625-.5625.57813-.90625 1.4375-.90625 2.57813M2-3.21875c0-1.70312.60938-2.89062 1.95313-2.89062.60937 0 1.10937.28125 1.34375.82812.10937.21875.10937.42188.10937.76563v2.29687c0 .28125 0 .51563-.07812.73438-.26563.67187-.84375.9375-1.51563.9375C2.60938-.54687 2-1.71875 2-3.21875m0 0"/><path id="e" d="M1.20313-8.54687c0 .46875.32812.79687.79687.79687s.79688-.32812.79688-.79687c0-.48438-.32813-.79688-.79688-.79688s-.79687.3125-.79687.79688M.42188 0h3.1875v-.375c-.9375-.0625-.98438-.09375-.98438-.76562v-5.34375l-.09375-.07813-2.04687.32813v.32812l.48437.0625c.34375.0625.4375.10938.4375.59375v4.10938c0 .67187-.04687.70312-.98437.76562Zm0 0"/><path id="f" d="M.60938-2.1875.75-.46875c.46875.40625 1.26563.625 2.03125.625 1.5625 0 2.45313-.82812 2.45313-1.9375 0-1.15625-.71875-1.67187-2.0625-2.07812-.54688-.17188-1.39063-.45313-1.39063-1.1875 0-.6875.51563-1.0625 1.17188-1.0625.92187 0 1.375.73437 1.46875 1.51562h.375V-6.125c-.4375-.3125-1.09375-.4375-1.6875-.4375-1.40625 0-2.375.67188-2.375 1.90625 0 1.07813.89062 1.5625 1.98437 1.90625.57813.17188 1.39063.46875 1.39063 1.35938 0 .67187-.5 1.07812-1.20313 1.07812-1.0625 0-1.65625-.76562-1.92187-1.875Zm0 0"/><path id="g" d="M.64063-3.04687c0 2.09375 1.14062 3.20312 2.71875 3.20312.75 0 1.375-.34375 2.04687-.84375v2.54688c0 .67187-.0625.70312-1.04687.76562V3H7.625v-.375c-.90625-.0625-.98437-.09375-.98437-.76562V-6.5625h-.35938l-.54687.40625C5.23438-6.4375 4.5625-6.5625 4-6.5625c-1.03125 0-1.875.3125-2.4375.90625-.57812.57813-.92187 1.42188-.92187 2.60938M2-3.21875c0-1.60937.5625-2.89062 1.89063-2.89062.6875 0 1.17187.23437 1.42187.90625.07813.20312.09375.4375.09375.75v2.21875c0 .28125 0 .51562-.07812.71875-.25.6875-.75.96875-1.46875.96875C2.5625-.54687 2-1.73437 2-3.21875m0 0"/><path id="h" d="m.32813-5.90625.5.0625c.34375.0625.42187.10938.42187.59375v3.4375c0 1.5.89063 1.96875 1.85938 1.96875 1.125 0 2.01562-.75 2.39062-.9375L5.625 0h2.10938v-.375C6.82813-.4375 6.75-.46875 6.75-1.14062v-5.34375l-.10937-.07813-2.03125.32813v.32812l.5.0625c.32812.0625.40625.10938.40625.59375v2.9375c0 .35938-.03125.65625-.10938.78125-.29687.59375-.92187.98438-1.59375.98438-.76562 0-1.32812-.48438-1.32812-1.5v-4.4375l-.09375-.07813-2.0625.32813Zm0 0"/><path id="i" d="M.64063-3.15625c0 2.07813.89062 3.3125 3.01562 3.3125 1.45313 0 2.20313-.8125 2.54688-1.84375l-.39063-.20312c-.35937.76562-.85937 1.375-1.89062 1.375-1.625 0-1.95313-1.5625-1.92188-2.92188h3.76563c.28125 0 .51562-.0625.51562-.5 0-.76562-.25-2.625-2.64062-2.625-2.04688 0-3 1.4375-3 3.40625m1.375-.78125c0-.54687.20312-2.17187 1.5625-2.17187 1.20312 0 1.34375 1.25 1.34375 1.75 0 .25-.07813.42187-.4375.42187Zm0 0"/><path id="j" d="M.42188 0h3.4375v-.375C2.70313-.4375 2.625-.46875 2.625-1.14062v-3.0625c0-1 .45313-1.34375.75-1.34375.21875 0 .4375.07812.8125.29687.09375.04688.1875.0625.26563.0625.3125 0 .59375-.32812.59375-.73437 0-.29688-.1875-.64063-.6875-.64063-.48438 0-.875.28125-1.73438 1.04688L2.46875-6.5625l-1.98437.32813v.32812l.48437.0625c.34375.0625.4375.10938.4375.59375v4.10938c0 .67187-.07812.70312-.98437.76562Zm0 0"/><path id="k" d="M.64063-1.70312c0 .98437.65625 1.85937 1.875 1.85937.76562 0 1.53125-.5 1.95312-.78125.17188.48438.39063.78125.85938.78125.48437 0 1.04687-.14062 1.54687-.39062l-.09375-.3125c-.17187.04687-.46875.0625-.65625 0-.25-.04688-.46875-.28126-.46875-1.10938v-3.17187c0-.76563-.15625-1.73438-2.14062-1.73438C2.04688-6.5625.875-5.79687.875-5.07812c0 .42187.48438.60937.73438.60937.28124 0 .34375-.14062.42187-.35937.29688-.96875.8125-1.28125 1.34375-1.28125.51563 0 1.10938.26562 1.10938 1.3125V-4.25c-.34375.32813-1.60938.65625-2.64063 1-.9375.28125-1.20312.9375-1.20312 1.54688m1.3125-.17188c0-.60937.28124-.9375 1.01562-1.21875.53125-.1875 1.21875-.4375 1.51563-.625v1.85938c0 1.04687-.8125 1.3125-1.32813 1.3125-.8125 0-1.20312-.5625-1.20312-1.32813m0 0"/><path id="l" d="M-.0625-6.01562c.625.01562.75.10937 1 .67187C1.57813-3.76562 2.65625-1 2.96875-.09375c.09375.21875.125.40625.125.64063 0 .29687-.125.6875-.32812 1.10937-.1875.42188-.42188.5625-.5625.5625-.125 0-.25-.04687-.5-.28125-.125-.10937-.23438-.1875-.375-.1875-.25 0-.57813.35938-.57813.73438 0 .32812.35938.67187.90625.67187.53125 0 1.1875-.15625 1.85938-2.07812C4.32813-1.25 5.53125-4.4375 5.9375-5.35937c.23438-.51563.3125-.625.95313-.65625v-.39063h-2.5v.39063l.6875.04687c.21875.03125.25.1875.17187.45313-.1875.78125-.875 2.75-1.4375 4.3125h-.03125C3.1875-2.78125 2.65625-4.1875 2.17188-5.5625c-.09375-.23437-.10938-.39062.1875-.42187l.57812-.03125v-.39063h-3Zm0 0"/><path id="m" d="M.64063-3.20312c0 2.125 1.04687 3.35937 3.14062 3.35937s3.125-1.23437 3.125-3.35937c0-2.10938-1.03125-3.35938-3.125-3.35938S.64063-5.3125.64063-3.20312m1.35937 0C2-5 2.59375-6.10937 3.78125-6.10937 4.98438-6.10937 5.5625-5 5.5625-3.20312c0 1.8125-.57812 2.89062-1.78125 2.89062C2.59375-.3125 2-1.39062 2-3.20312m0 0"/><path id="n" d="M.42188 0h3.1875v-.375c-.9375-.0625-.98438-.09375-.98438-.76562v-3.0625c0-.32813.01563-.5.125-.70313.28125-.51562.85938-.95312 1.5625-.95312.89063 0 1.375.48437 1.375 1.625v3.09375c0 .67187-.04687.70312-.98437.76562V0h3.20312v-.375c-.9375-.0625-1-.09375-1-.76562v-3.34375C6.90625-5.79687 6.1875-6.5625 5-6.5625c-.98437 0-1.57812.46875-2.39062 1l-.17188-1-1.95312.32813v.32812l.48437.0625c.34375.0625.4375.10938.4375.59375v4.10938c0 .67187-.04687.70312-.98437.76562Zm0 0"/><path id="o" d="M-.28125 2.40625c.01563.4375.59375.75 1.20313.75 1.29687 0 1.85937-1.0625 2.40625-3.5625l1.20312-5.5H6.1875l.125-.5H4.60938l.375-1.48437c.25-.98438.5-1.35938.85937-1.35938.34375 0 .57813.29688.875.92188.0625.125.17188.21875.35938.21875.26562 0 .64062-.23438.64062-.5625 0-.5625-.70312-1.01563-1.48437-1.01563-1.54688 0-2.1875 1.07813-2.6875 2.79688l-.14063.48437h-1.125l-.15625.5h1.17188L1.78125 1.79688c-.15625.79687-.29687.89062-.42187.89062-.14063 0-.34375-.09375-.6875-.64062C.5625 1.92188.48438 1.75.3125 1.75c-.28125 0-.59375.32813-.59375.65625m0 0"/><path id="p" d="M1.125-3.6875c0 2.95313.67188 6.1875 3.4375 6.29688v-.39063C3.625 2.04688 2.17188.89063 2.17188-3.6875c0-4.54687 1.39062-5.70312 2.39062-5.90625v-.39062C1.79688-9.875 1.125-6.64062 1.125-3.6875m0 0"/><path id="q" d="M.42188-.51562c0 .375.29687.67187.82812.67187.89063 0 1.39063-.89062 1.9375-1.76562l.53125-.85938h.01563l.25 1.01563C4.23438-.40625 4.46875.15624 5.125.15624c.96875 0 1.46875-.98437 1.85938-1.78125l-.34375-.1875c-.3125.59375-.67188 1.28125-1.03125 1.28125-.25 0-.35938-.29687-.64063-1.45312l-.42187-1.71875c.46875-.82813 1.14062-1.875 1.51562-1.875.39063 0 .40625.20312.79688.20312.28125 0 .54687-.26562.54687-.625 0-.39062-.29687-.5625-.65625-.5625-.70312 0-1.28125.625-1.75 1.35938l-.5625.89062h-.03125L3.875-6.51562l-.0625-.04688-2.15625.65625.03125.3125 1.03125-.0625c.20313 0 .29688.09375.42188.65625l.46875 1.89063-.375.625C2.6875-1.53125 2.20313-.84375 1.875-.84375c-.375 0-.46875-.32812-.89062-.32812-.32813 0-.5625.34375-.5625.65625m0 0"/><path id="r" d="M.78125 2.21875v.39063C3.54688 2.5 4.21875-.73437 4.21875-3.6875S3.54688-9.875.78125-9.98437v.39062c1 .20313 2.39063 1.35938 2.39063 5.90625 0 4.57813-1.46875 5.73438-2.39063 5.90625m0 0"/><clipPath id="a"><path d="M16 12h1v101.32813h-1Zm0 0"/></clipPath></defs><path fill="none" stroke="#000" stroke-miterlimit="10" stroke-width=".7942" d="M16.46484 62.08594h252.79301"/><path stroke="#000" stroke-linejoin="round" stroke-miterlimit="10" stroke-width=".7942" d="M270.28906 62.08594c-1.28906-.25782-2.58203-.77344-4.1289-1.67578 1.54687 1.16015 1.54687 2.1953 0 3.35547 1.54687-.90235 2.83984-1.42188 4.1289-1.6797Zm0 0"/><g clip-path="url(#a)"><path fill="none" stroke="#000" stroke-miterlimit="10" stroke-width=".7942" d="M16.46484 112.9336V12.67187"/></g><path stroke="#000" stroke-linejoin="round" stroke-miterlimit="10" stroke-width=".7942" d="M16.46484 11.64062c-.2578 1.28907-.77343 2.57813-1.67968 4.12891 1.16406-1.55078 2.1953-1.55078 3.35546 0-.90234-1.55078-1.41796-2.83984-1.67578-4.1289Zm0 0"/><path fill="none" stroke="#000" stroke-miterlimit="10" stroke-width="1.19132" d="m16.46484 62.08594 2.45313-17.9375 2.45312-5.9922 2.45704-4.03124 2.45312-3.00782 2.45313-2.36328 2.45312-1.89844 2.45703-1.54687 2.45313-1.26953 2.45312-1.04688 2.45313-.85547 2.45703-.69531 2.45313-.55469 2.45312-.42578 2.45703-.32422 2.45313-.22265 2.45312-.13672 2.45313-.0586 2.45703.01953 2.45313.08204 2.45312.14453 2.45703.19922 2.45313.2578 2.45312.3047 2.45313.35156 2.45703.39062 2.45313.4375 2.45312.47266 2.45313.50781 2.45703.54297 2.45312.57813 2.45313.60547L95 25.24999l2.45313.66797 2.45312.69532 2.45313.71484 2.45703.74219 2.45312.76953 2.45313.78515 2.45312.8125 2.45704.83204 2.45312.85156 2.45313.8711 2.45703.89062 2.45312.91015 2.45313.92188 2.45313.94531 2.45703.95703 2.45312.97657 2.45313.98828 2.45703 1.0039 2.45312 1.01954 2.45313 1.03515 2.45313 1.04297 2.45703 1.0625 2.45312 1.07422 2.45313 1.08594L156.35158 48l2.45703 1.10937 2.45313 1.1211 2.45313 1.13281 2.45703 1.14453 2.45312 1.15234 2.45313 1.16407L173.53127 56l2.45703 1.1836 2.45313 1.1953 2.45313 1.20313 2.45312 1.21094 2.45703 1.22656"/><path fill="none" stroke="#000" stroke-miterlimit="10" stroke-width=".3971" d="m16.46484 62.08594 2.45313 17.9414 2.45312 5.9922 2.45704 4.02734 2.45312 3.01172 2.45313 2.35937 2.45312 1.89844 2.45703 1.55078 2.45313 1.26953 2.45312 1.04688 2.45313.85547 2.45703.69531 2.45313.55078 2.45312.42969 2.45703.32422 2.45313.22265 2.45312.13672 2.45313.0586 2.45703-.01953 2.45313-.08204 2.45312-.14453 2.45703-.19922 2.45313-.2578 2.45312-.3047 2.45313-.35156 2.45703-.39453 2.45313-.4336 2.45312-.47265 2.45313-.50781 2.45703-.54297 2.45312-.57813 2.45313-.60937L95 98.92188l2.45313-.66406 2.45312-.69532 2.45313-.71484 2.45703-.74219 2.45312-.76953 2.45313-.78906 2.45312-.8086 2.45704-.83203 2.45312-.85546 2.45313-.8711 2.45703-.88672 2.45312-.91015 2.45313-.92188 2.45313-.94531 2.45703-.95703 2.45312-.97657 2.45313-.98828 2.45703-1.0039 2.45312-1.01954 2.45313-1.03515 2.45313-1.04688 2.45703-1.05859 2.45312-1.07422 2.45313-1.08594 2.45312-1.09375 2.45703-1.11328 2.45313-1.11719 2.45313-1.1328 2.45703-1.14454 2.45312-1.15234 2.45313-1.16797 2.45312-1.17188 2.45703-1.1836 2.45313-1.1953 2.45313-1.20313 2.45312-1.21484 2.45703-1.22266"/><path fill="none" stroke="#000" stroke-miterlimit="10" stroke-width=".3971" d="M135.10158 38.92578c-4.67969 0-8.47656 10.39453-8.47656 23.21875s3.79687 23.21875 8.47656 23.21875"/><path fill="none" stroke="#000" stroke-dasharray=".39709728000000005 1.985536224" stroke-miterlimit="10" stroke-width=".3971" d="M135.10158 85.25c4.67969 0 8.47266-10.39453 8.47266-23.21875s-3.79297-23.21875-8.47266-23.21875m0 23.27344V38.92578"/><path fill="none" stroke="#000" stroke-miterlimit="10" stroke-width=".3971" d="M84.25392 22.6914c-4.6797 0-8.47266 17.60156-8.47266 39.32032 0 21.71485 3.79297 39.31641 8.47266 39.31641"/><path fill="none" stroke="#000" stroke-dasharray=".39709728000000005 1.985536224" stroke-miterlimit="10" stroke-width=".3971" d="M84.25392 101.48438c4.6836 0 8.47656-17.60547 8.47656-39.32032s-3.79297-39.31641-8.47656-39.31641m0 39.23829V22.6914"/><use xlink:href="#b" x="4.63263" y="75.87975"/><use xlink:href="#c" x="190.85479" y="75.87975"/><path fill="none" stroke="#000" stroke-miterlimit="10" stroke-width=".3971" d="M84.5508 41.48046c5.07421-16.20703 16.0625-26.3125 33.60156-30.23828"/><path stroke="#000" stroke-linejoin="round" stroke-miterlimit="10" stroke-width=".39708" d="M84.3164 42.23828c.48438-.88672 1.16016-1.71484 2.1797-2.64453-1.20704.86719-1.96876.63281-2.46485-.77344.3086 1.34375.39062 2.41016.28516 3.41797Zm0 0"/><use xlink:href="#d" x="123.06327" y="14.65503"/><use xlink:href="#e" x="130.87428" y="14.65503"/><use xlink:href="#f" x="134.6686" y="14.65503"/><use xlink:href="#g" x="140.35313" y="14.65503"/><use xlink:href="#h" x="148.06685" y="14.65503"/><use xlink:href="#i" x="155.97515" y="14.65503"/><use xlink:href="#d" x="165.62078" y="14.65503"/><use xlink:href="#i" x="173.43179" y="14.65503"/><use xlink:href="#j" x="183.07742" y="14.65503"/><use xlink:href="#k" x="188.02532" y="14.65503"/><use xlink:href="#l" x="194.84953" y="14.65503"/><use xlink:href="#m" x="201.36797" y="14.65503"/><use xlink:href="#n" x="208.90101" y="14.65503"/><use xlink:href="#o" x="219.90915" y="14.65503"/><use xlink:href="#p" x="228.06763" y="14.65503"/><use xlink:href="#q" x="233.40469" y="14.65503"/><use xlink:href="#r" x="241.67436" y="14.65503"/></svg>