<svg xmlns="http://www.w3.org/2000/svg" xmlns:xlink="http://www.w3.org/1999/xlink" width="356.342pt" height="182.215pt" viewBox="0 0 356.342 182.215"><defs><path id="g" d="M.45313-3.21875c0 1.03125.28125 1.90625.78125 2.45313.53125.59375 1.29687.90625 2.3125.90625 1.03125 0 1.79687-.3125 2.3125-.90625.51562-.54688.79687-1.42188.79687-2.45313 0-1.04687-.28125-1.90625-.79687-2.46875-.51563-.57812-1.28125-.90625-2.3125-.90625-1.01563 0-1.78125.32813-2.3125.90625-.5.5625-.78125 1.42188-.78125 2.46875m1.03125 0c0-1.375.40625-3.04687 2.0625-3.04687s2.0625 1.67187 2.0625 3.04687c0 1.35938-.40625 3.03125-2.0625 3.03125s-2.0625-1.67187-2.0625-3.03125m0 0"/><path id="i" d="M.60938-9.3125c0 1.64063 1.64062 2.92188 5.35937 2.92188-.60937 1.09375-1.0625 2.21875-1.0625 3.45312 0 2.04688 1.28125 3.15625 3.625 3.15625 2.28125 0 4.67188-1.64062 4.67188-3.76562 0-1.28125-1.0625-1.96875-2.39063-1.96875-1.46875 0-3.1875 1.64062-3.1875 2.95312 0 .40625.29688 1.15625.84375 1.15625.15625 0 .375-.125.375-.29687 0-.23438-.4375-.26563-.4375-.84375 0-.90625 1.34375-2.375 2.40625-2.375.75 0 1.21875.29687 1.21875 1.03125 0 1.64062-1.59375 3.51562-3.5 3.51562-1.34375 0-2.04687-.73437-2.04687-1.96875 0-1.39062.98437-3.01562 1.71875-4.20312 4.14062-.64063 8.20312-2.6875 8.20312-5.28125 0-.98438-.79687-1.64063-1.85937-1.64063-2.46875 0-6.17188 3.15625-8.21875 6.42188-1.6875-.01563-4.42188-.0625-4.42188-2.04688 0-1.82812 2.21875-3.23437 3.60938-3.23437.26562 0 .39062-.15625.39062-.3125s-.125-.28125-.29687-.28125c-2.07813 0-5 1.40625-5 3.60937m7.96875 2.03125C9.9375-9.6875 12.84375-12.875 14.54688-12.875c.65625 0 1.10937.375 1.10937.98438 0 2.09375-3.28125 4-7.07812 4.60937m0 0"/><path id="k" d="M.79688 3.60938c0 .89062 1.04687 1.48437 2.125 1.48437 2.60937 0 3.64062-4.79687 4.21875-9.07812.71875-5.28125.67187-11 2.84375-11 .35937 0 .51562.14062.6875.4375-.3125.15625-.54688.35937-.54688.85937 0 .375.3125.78125.82813.78125.59375 0 1.03125-.51562 1.03125-1.10937 0-1.10938-1.0625-1.59375-2.14063-1.59375-2.625 0-3.46875 4.875-4.1875 9.125C4.70313-.75 4.9375 4.46875 2.78125 4.48438c-.35937 0-.51562-.14063-.70312-.4375.32812-.17188.5625-.375.5625-.875 0-.375-.3125-.79688-.82813-.79688-.625 0-1.01562.4375-1.01562 1.23438m0 0"/><path id="n" d="M-.39062 3.4375C-.375 4.04688.4375 4.5 1.3125 4.5 3.17188 4.5 3.96875 3 4.75-.57812L6.46875-8.4375h2.35938l.1875-.70312H6.59375L7.10938-11.25c.35937-1.40625.70312-1.95312 1.21875-1.95312.5 0 .84375.42187 1.25 1.3125.10937.1875.25.32812.51562.32812.39063 0 .92188-.34375.92188-.8125 0-.79687-1.01563-1.45312-2.125-1.45312-2.20313 0-3.10938 1.54687-3.82813 4l-.20312.6875H3.25l-.21875.70312h1.67188l-2.15625 11C2.32813 3.70313 2.125 3.82813 1.9375 3.82813s-.48437-.14063-.98437-.90625C.8125 2.73438.6875 2.5.45313 2.5c-.40625 0-.84375.45313-.84375.9375m0 0"/><path id="o" d="M1.60938-5.26562c0 4.21875.95312 8.84375 4.90625 9v-.5625c-1.34375-.25-3.42188-1.90625-3.42188-8.4375 0-6.48438 1.98438-8.125 3.42188-8.42188v-.5625c-3.95313.15625-4.90625 4.78125-4.90625 8.98438m0 0"/><path id="p" d="M.59375-.73437c0 .53125.4375.95312 1.1875.95312 1.28125 0 1.98438-1.26562 2.76563-2.51562l.75-1.23438h.04687l.32813 1.46875C6.03125-.57812 6.375.21875 7.32813.21875c1.35937 0 2.07812-1.40625 2.64062-2.54687l-.48437-.25C9.03125-1.75 8.51563-.75 8-.75c-.35937 0-.5-.42187-.92187-2.09375l-.59375-2.4375c.67187-1.1875 1.625-2.67187 2.17187-2.67187s.57813.29687 1.125.29687c.42188 0 .79688-.40625.79688-.89062 0-.57813-.4375-.8125-.95313-.8125-1 0-1.82812.89062-2.48437 1.9375l-.8125 1.26562h-.03125l-.76563-3.125-.09375-.07812-3.07812.92187.04687.45313L3.875-8.07812c.29688 0 .4375.14062.60938.9375l.65625 2.70312-.51563.89063C3.82813-2.1875 3.14063-1.20312 2.67188-1.20312c-.53125 0-.67188-.46875-1.26563-.46875-.46875 0-.8125.48437-.8125.9375m0 0"/><path id="q" d="M1.10938 3.17188v.5625c3.95312-.15625 4.90625-4.78125 4.90625-9 0-4.20313-.95313-8.82813-4.90625-8.98438v.5625c1.4375.29688 3.42187 1.9375 3.42187 8.42188 0 6.53125-2.09375 8.1875-3.42187 8.4375m0 0"/><path id="s" d="M1.3125-2c0 1.10938.51563 2.21875 1.78125 2.21875 2 0 3.73438-2.29687 4.82813-4.20312h.03125l-.625 2.125c-.125.40625-.20313.76562-.20313 1.0625 0 .65625.3125 1.01562 1.01563 1.01562 1.40625 0 2.45312-1.26562 3.09375-2.67187l-.4375-.26563C10.45313-2.0625 9.625-.75 9.10938-.75c-.21875 0-.29688-.14062-.29688-.35937 0-.1875.0625-.40625.125-.65625l1.95313-7.4375h-1.5625L9.25-8.96875c-.3125-.21875-.875-.39062-1.375-.39062-4.4375 0-6.5625 4.89062-6.5625 7.35937m1.84375-.04687c0-2.04688 1.82813-6.67188 4.76563-6.67188.45312 0 .84375.17188 1.125.42188C8.71875-6.90625 8.0625-5.0625 7.0625-3.57812 6.01563-1.98437 4.85938-.75 3.96875-.75c-.60937 0-.8125-.5625-.8125-1.29687m0 0"/><path id="t" d="M1.625 0h.67188L2.875-1.09375C3.21875-.3125 4.14063.21875 5.21875.21875c2.1875 0 3.76563-1.45312 4.6875-3.09375C10.82813-4.53125 11.125-6.17187 11.125-7c0-1.39062-.59375-2.35937-1.98437-2.35937-1.40625 0-3.26563 1.28125-4.70313 3.84375h-.03125L6.46875-13.75l-.07812-.07812-3.32813.4375-.125.4375 1.04688.10937c.32812.04688.45312.10938.45312.375 0 .14063-.01562.29688-.07812.54688Zm2.29688-2.03125c0-.89062.40625-2.17187 1-3.26562C5.75-6.78125 7.15625-8.39062 8.3125-8.39062c.70313 0 1 .46875 1 1.54687C9.3125-5.5 8.20313-.4375 5.45313-.4375c-.95313 0-1.53125-.65625-1.53125-1.59375m0 0"/><path id="j" d="M-.28125 2.34375c.01563.46875.57813.8125 1.28125.8125 1.35938 0 1.98438-1.09375 2.53125-3.54687L4.75-5.85937h1.64063l.14062-.54688H4.82813l.39062-1.57812c.21875-.875.45313-1.21875.76563-1.21875s.53125.25.84375.92187c.07812.14063.1875.26563.40625.26563.3125 0 .71875-.26563.71875-.625 0-.5625-.73438-1.04688-1.59375-1.04688-1.64063 0-2.29688 1.1875-2.78125 2.85938l-.125.42187h-1.125l-.15625.54688h1.15625l-1.51563 7.75c-.125.67187-.25.76562-.375.76562-.14062 0-.35937-.125-.6875-.67187-.09375-.14063-.1875-.3125-.39062-.3125-.3125 0-.64063.32812-.64063.67187m0 0"/><path id="l" d="m1.14063-.01562.5.01562.42187-.71875c.26563.51563.92188.875 1.70313.875 1.59375 0 2.67187-1.01562 3.3125-2.17187.65625-1.15625.875-2.3125.875-2.89063 0-.96875-.4375-1.65625-1.42188-1.65625-1.03125 0-2.28125.92188-3.25 2.67188h-.04687L4.6875-9.625l-.0625-.0625-2.48437.32813-.07813.32812.71875.07813c.20313.03125.29688.09375.29688.28125 0 .09375-.01563.20312-.04688.35937Zm1.76562-1.40625c0-.60938.28125-1.51563.70313-2.28125.57812-1.03125 1.48437-2.07813 2.23437-2.07813.45313 0 .64063.3125.64063 1 0 .96875-.78125 4.45313-2.57813 4.45313-.64062 0-1-.45313-1-1.09375m0 0"/><path id="m" d="M.9375-1.40625c0 .78125.35938 1.5625 1.25 1.5625 1.45313 0 2.59375-1.59375 3.34375-2.90625h.03125l-.40625 1.40625q-.14062.42188-.14062.75c0 .5.25.75.76562.75 1.04688 0 1.79688-.92187 2.28125-1.9375l-.34375-.1875c-.26562.48438-.8125 1.35938-1.15625 1.35938-.15625 0-.20312-.09376-.20312-.25 0-.10938.03125-.28126.07812-.45313l1.35938-5.125H6.53125l-.0625.14063C6.25-6.4375 5.85938-6.5625 5.51563-6.5625 2.40625-6.5625.9375-3.125.9375-1.40625m1.46875-.03125c0-1.42187 1.25-4.625 3.15625-4.625.3125 0 .5625.10938.75.26563-.23437.96875-.6875 2.25-1.375 3.29687C4.23438-1.42187 3.48438-.60937 2.92188-.60937c-.40625 0-.51563-.35938-.51563-.82813m0 0"/><path id="r" d="M.90625-4.39062C.90625-1.625 2.35938.21875 4.82813.21875c1 0 1.85937-.45312 2.875-1.26562v.90625L7.85938 0H10.875v-.53125C9.54688-.64062 9.48438-.67187 9.48438-1.625v-12.10937l-.14063-.09375-2.9375.45312v.46875l.71875.0625c.46875.0625.59375.15625.59375.875v3.0625c-.51562-.28125-1.20312-.45312-2.0625-.45312-1.53125 0-2.67187.48437-3.45312 1.28125C1.40625-7.25.90625-6.01562.90625-4.39062m1.95313-.21875c0-2.42188.875-4.10938 2.78125-4.10938.875 0 1.57812.40625 1.92187 1.17188.15625.32812.15625.59375.15625 1.09375v3.28125c0 .40625 0 .73437-.125 1.04687-.375.96875-1.1875 1.34375-2.15625 1.34375-1.70312 0-2.57812-1.67187-2.57812-3.82812m0 0"/><clipPath id="a"><path d="M.4375 0H318v181.4336H.4375Zm0 0"/></clipPath><clipPath id="b"><path d="M45 23h227v113H45Zm0 0"/></clipPath><clipPath id="c"><path d="m45.99219 56.84766 2.28125-3.59375 2.27734-3.36328 2.28125-3.14454 2.28125-2.92578 2.27734-2.71484 2.28126-2.5039 2.28124-2.30079 2.28126-2.10156 2.27734-1.90625 2.28125-1.71484 2.28125-1.52735 2.28125-1.34765 2.27734-1.16797 2.28125-.9922 2.28125-.82421 2.28125-.66016 2.27735-.5 2.28125-.34375 2.28125-.1914 2.27734-.04688 2.28125.10157 2.28125.23437 2.28125.375 2.27734.5 2.28125.6289 2.28125.7461 2.28125.86719 2.27735.97656 2.28125 1.08594 2.28125 1.1914 2.28125 1.28907 2.27734 1.38671 2.28125 1.47266 2.28125 1.5625 2.27734 1.64453 2.28126 1.72266 2.28125 1.79297 2.28125 1.86328 2.27734 1.92969 2.28125 1.98828 2.28125 2.04687 2.28125 2.09375 2.27734 2.14453 2.28125 2.1836 2.28125 2.22656 2.28125 2.25781 2.27735 2.28907 2.28125 2.3125 2.28125 2.33593 2.28125 2.35156 2.27734 2.35938 4.5625 4.75 2.27734 2.3711 2.28125 2.37109 2.28125 2.35937 2.28125 2.34375 2.27735 2.32813 2.28125 2.30469 2.28125 2.27734 2.28125 2.2461L187.36328 96.5l2.28125 2.17188 2.28125 2.125 2.28125 2.07812 2.27734 2.02344 2.28125 1.96875 2.28125 1.90234 2.27735 1.83984 2.28125 1.76954 2.28125 1.6914 2.28125 1.61328 2.27734 1.53125 2.28125 1.44141 2.28125 1.35156 2.28125 1.2539 2.27735 1.14845 2.28125 1.05078 2.28125.9336 2.28125.82421 2.27734.70313 2.28125.58203 2.28125.45703 2.27734.32031 2.28125.1836 2.28125.05078 2.28125-.10157 2.27735-.2461 2.28125-.40233 2.28125-.5586 2.28125-.71875 2.27734-.88672 2.28125-1.0586 2.28125-1.23437 2.28125-1.41406 2.27735-1.59766 2.28125-1.78515 2.28125-1.97656 2.28125-2.17188.05859 22.51172H45.99219Zm0 0"/></clipPath><clipPath id="e"><path d="M.4375 135H316v2H.4375Zm0 0"/></clipPath><clipPath id="f"><path d="M181 1h1v180.4336h-1Zm0 0"/></clipPath><clipPath id="h"><path d="M.4375 11H329v170.4336H.4375Zm0 0"/></clipPath><linearGradient id="d" x1="0" x2="0" y1="25.00301" y2="74.997" gradientTransform="matrix(4.5166 0 0 -2.25824 -66.93759 192.33945)" gradientUnits="userSpaceOnUse"><stop offset="0" stop-color="#BFBFFF" stop-opacity=".5"/><stop offset=".00391" stop-color="#BEBEFE" stop-opacity=".5"/><stop offset=".00781" stop-color="#BEBEFE" stop-opacity=".5"/><stop offset=".01172" stop-color="#BDBDFD" stop-opacity=".5"/><stop offset=".01563" stop-color="#BCBCFC" stop-opacity=".5"/><stop offset=".01953" stop-color="#BCBCFC" stop-opacity=".5"/><stop offset=".02344" stop-color="#BBBBFB" stop-opacity=".5"/><stop offset=".02734" stop-color="#BABAFA" stop-opacity=".5"/><stop offset=".03125" stop-color="#B9B9FA" stop-opacity=".5"/><stop offset=".03516" stop-color="#B9B9F9" stop-opacity=".5"/><stop offset=".03906" stop-color="#B8B8F9" stop-opacity=".5"/><stop offset=".04297" stop-color="#B7B7F8" stop-opacity=".5"/><stop offset=".04688" stop-color="#B6B6F7" stop-opacity=".5"/><stop offset=".05078" stop-color="#B6B6F7" stop-opacity=".5"/><stop offset=".05469" stop-color="#B5B5F6" stop-opacity=".5"/><stop offset=".05859" stop-color="#B4B4F5" stop-opacity=".5"/><stop offset=".0625" stop-color="#B3B3F5" stop-opacity=".5"/><stop offset=".06641" stop-color="#B3B3F4" stop-opacity=".5"/><stop offset=".07031" stop-color="#B2B2F3" stop-opacity=".5"/><stop offset=".07422" stop-color="#B1B1F3" stop-opacity=".5"/><stop offset=".07813" stop-color="#B0B0F2" stop-opacity=".5"/><stop offset=".08203" stop-color="#B0B0F1" stop-opacity=".5"/><stop offset=".08594" stop-color="#AFAFF1" stop-opacity=".5"/><stop offset=".08984" stop-color="#AEAEF0" stop-opacity=".5"/><stop offset=".09375" stop-color="#ADADEF" stop-opacity=".5"/><stop offset=".09766" stop-color="#ADADEF" stop-opacity=".5"/><stop offset=".10156" stop-color="#ACACEE" stop-opacity=".5"/><stop offset=".10547" stop-color="#ABABEE" stop-opacity=".5"/><stop offset=".10938" stop-color="#AAAAED" stop-opacity=".5"/><stop offset=".11328" stop-color="#AAAAEC" stop-opacity=".5"/><stop offset=".11719" stop-color="#A9A9EC" stop-opacity=".5"/><stop offset=".12109" stop-color="#A8A8EB" stop-opacity=".5"/><stop offset=".125" stop-color="#A7A7EA" stop-opacity=".5"/><stop offset=".12891" stop-color="#A7A7EA" stop-opacity=".5"/><stop offset=".13281" stop-color="#A6A6E9" stop-opacity=".5"/><stop offset=".13672" stop-color="#A5A5E8" stop-opacity=".5"/><stop offset=".14063" stop-color="#A4A4E8" stop-opacity=".5"/><stop offset=".14453" stop-color="#A4A4E7" stop-opacity=".5"/><stop offset=".14844" stop-color="#A3A3E6" stop-opacity=".5"/><stop offset=".15234" stop-color="#A2A2E6" stop-opacity=".5"/><stop offset=".15625" stop-color="#A1A1E5" stop-opacity=".5"/><stop offset=".16016" stop-color="#A1A1E4" stop-opacity=".5"/><stop offset=".16406" stop-color="#A0A0E4" stop-opacity=".5"/><stop offset=".16797" stop-color="#9F9FE3" stop-opacity=".5"/><stop offset=".17188" stop-color="#9E9EE3" stop-opacity=".5"/><stop offset=".17578" stop-color="#9E9EE2" stop-opacity=".5"/><stop offset=".17969" stop-color="#9D9DE1" stop-opacity=".5"/><stop offset=".18359" stop-color="#9C9CE1" stop-opacity=".5"/><stop offset=".1875" stop-color="#9B9BE0" stop-opacity=".5"/><stop offset=".19141" stop-color="#9B9BDF" stop-opacity=".5"/><stop offset=".19531" stop-color="#9A9ADF" stop-opacity=".5"/><stop offset=".19922" stop-color="#9999DE" stop-opacity=".5"/><stop offset=".20313" stop-color="#9898DD" stop-opacity=".5"/><stop offset=".20703" stop-color="#9898DD" stop-opacity=".5"/><stop offset=".21094" stop-color="#9797DC" stop-opacity=".5"/><stop offset=".21484" stop-color="#9696DB" stop-opacity=".5"/><stop offset=".21875" stop-color="#9595DB" stop-opacity=".5"/><stop offset=".22266" stop-color="#9595DA" stop-opacity=".5"/><stop offset=".22656" stop-color="#9494D9" stop-opacity=".5"/><stop offset=".23047" stop-color="#9393D9" stop-opacity=".5"/><stop offset=".23438" stop-color="#9292D8" stop-opacity=".5"/><stop offset=".23828" stop-color="#9292D7" stop-opacity=".5"/><stop offset=".24219" stop-color="#9191D7" stop-opacity=".5"/><stop offset=".24609" stop-color="#9090D6" stop-opacity=".5"/><stop offset=".25" stop-color="#8F8FD6" stop-opacity=".5"/><stop offset=".25391" stop-color="#8F8FD5" stop-opacity=".5"/><stop offset=".25781" stop-color="#8E8ED4" stop-opacity=".5"/><stop offset=".26172" stop-color="#8D8DD4" stop-opacity=".5"/><stop offset=".26563" stop-color="#8C8CD3" stop-opacity=".5"/><stop offset=".26953" stop-color="#8C8CD2" stop-opacity=".5"/><stop offset=".27344" stop-color="#8B8BD2" stop-opacity=".5"/><stop offset=".27734" stop-color="#8A8AD1" stop-opacity=".5"/><stop offset=".28125" stop-color="#8989D0" stop-opacity=".5"/><stop offset=".28516" stop-color="#8989D0" stop-opacity=".5"/><stop offset=".28906" stop-color="#8888CF" stop-opacity=".5"/><stop offset=".29297" stop-color="#8787CE" stop-opacity=".5"/><stop offset=".29688" stop-color="#8686CE" stop-opacity=".5"/><stop offset=".30078" stop-color="#8686CD" stop-opacity=".5"/><stop offset=".30469" stop-color="#8585CC" stop-opacity=".5"/><stop offset=".30859" stop-color="#8484CC" stop-opacity=".5"/><stop offset=".3125" stop-color="#8383CB" stop-opacity=".5"/><stop offset=".31641" stop-color="#8383CB" stop-opacity=".5"/><stop offset=".32031" stop-color="#8282CA" stop-opacity=".5"/><stop offset=".32422" stop-color="#8181C9" stop-opacity=".5"/><stop offset=".32813" stop-color="#8080C9" stop-opacity=".5"/><stop offset=".33203" stop-color="#8080C8" stop-opacity=".5"/><stop offset=".33594" stop-color="#7F7FC7" stop-opacity=".5"/><stop offset=".33984" stop-color="#7E7EC7" stop-opacity=".5"/><stop offset=".34375" stop-color="#7E7EC6" stop-opacity=".5"/><stop offset=".34766" stop-color="#7D7DC5" stop-opacity=".5"/><stop offset=".35156" stop-color="#7C7CC5" stop-opacity=".5"/><stop offset=".35547" stop-color="#7B7BC4" stop-opacity=".5"/><stop offset=".35938" stop-color="#7B7BC3" stop-opacity=".5"/><stop offset=".36328" stop-color="#7A7AC3" stop-opacity=".5"/><stop offset=".36719" stop-color="#7979C2" stop-opacity=".5"/><stop offset=".37109" stop-color="#7878C1" stop-opacity=".5"/><stop offset=".375" stop-color="#7878C1" stop-opacity=".5"/><stop offset=".37891" stop-color="#7777C0" stop-opacity=".5"/><stop offset=".38281" stop-color="#7676C0" stop-opacity=".5"/><stop offset=".38672" stop-color="#7575BF" stop-opacity=".5"/><stop offset=".39063" stop-color="#7575BE" stop-opacity=".5"/><stop offset=".39453" stop-color="#7474BE" stop-opacity=".5"/><stop offset=".39844" stop-color="#7373BD" stop-opacity=".5"/><stop offset=".40234" stop-color="#7272BC" stop-opacity=".5"/><stop offset=".40625" stop-color="#7272BC" stop-opacity=".5"/><stop offset=".41016" stop-color="#7171BB" stop-opacity=".5"/><stop offset=".41406" stop-color="#7070BA" stop-opacity=".5"/><stop offset=".41797" stop-color="#6F6FBA" stop-opacity=".5"/><stop offset=".42188" stop-color="#6F6FB9" stop-opacity=".5"/><stop offset=".42578" stop-color="#6E6EB8" stop-opacity=".5"/><stop offset=".42969" stop-color="#6D6DB8" stop-opacity=".5"/><stop offset=".43359" stop-color="#6C6CB7" stop-opacity=".5"/><stop offset=".4375" stop-color="#6C6CB6" stop-opacity=".5"/><stop offset=".44141" stop-color="#6B6BB6" stop-opacity=".5"/><stop offset=".44531" stop-color="#6A6AB5" stop-opacity=".5"/><stop offset=".44922" stop-color="#6969B5" stop-opacity=".5"/><stop offset=".45313" stop-color="#6969B4" stop-opacity=".5"/><stop offset=".45703" stop-color="#6868B3" stop-opacity=".5"/><stop offset=".46094" stop-color="#6767B3" stop-opacity=".5"/><stop offset=".46484" stop-color="#6666B2" stop-opacity=".5"/><stop offset=".46875" stop-color="#6666B1" stop-opacity=".5"/><stop offset=".47266" stop-color="#6565B1" stop-opacity=".5"/><stop offset=".47656" stop-color="#6464B0" stop-opacity=".5"/><stop offset=".48047" stop-color="#6363AF" stop-opacity=".5"/><stop offset=".48438" stop-color="#6363AF" stop-opacity=".5"/><stop offset=".48828" stop-color="#6262AE" stop-opacity=".5"/><stop offset=".49219" stop-color="#6161AD" stop-opacity=".5"/><stop offset=".49609" stop-color="#6060AD" stop-opacity=".5"/><stop offset=".5" stop-color="#6060AC" stop-opacity=".5"/><stop offset=".50391" stop-color="#5F5FAB" stop-opacity=".5"/><stop offset=".50781" stop-color="#5E5EAB" stop-opacity=".5"/><stop offset=".51172" stop-color="#5D5DAA" stop-opacity=".5"/><stop offset=".51563" stop-color="#5D5DAA" stop-opacity=".5"/><stop offset=".51953" stop-color="#5C5CA9" stop-opacity=".5"/><stop offset=".52344" stop-color="#5B5BA8" stop-opacity=".5"/><stop offset=".52734" stop-color="#5A5AA8" stop-opacity=".5"/><stop offset=".53125" stop-color="#5A5AA7" stop-opacity=".5"/><stop offset=".53516" stop-color="#5959A6" stop-opacity=".5"/><stop offset=".53906" stop-color="#5858A6" stop-opacity=".5"/><stop offset=".54297" stop-color="#5757A5" stop-opacity=".5"/><stop offset=".54688" stop-color="#5757A4" stop-opacity=".5"/><stop offset=".55078" stop-color="#5656A4" stop-opacity=".5"/><stop offset=".55469" stop-color="#5555A3" stop-opacity=".5"/><stop offset=".55859" stop-color="#5454A2" stop-opacity=".5"/><stop offset=".5625" stop-color="#5454A2" stop-opacity=".5"/><stop offset=".56641" stop-color="#5353A1" stop-opacity=".5"/><stop offset=".57031" stop-color="#5252A0" stop-opacity=".5"/><stop offset=".57422" stop-color="#5151A0" stop-opacity=".5"/><stop offset=".57813" stop-color="#51519F" stop-opacity=".5"/><stop offset=".58203" stop-color="#50509F" stop-opacity=".5"/><stop offset=".58594" stop-color="#4F4F9E" stop-opacity=".5"/><stop offset=".58984" stop-color="#4E4E9D" stop-opacity=".5"/><stop offset=".59375" stop-color="#4E4E9D" stop-opacity=".5"/><stop offset=".59766" stop-color="#4D4D9C" stop-opacity=".5"/><stop offset=".60156" stop-color="#4C4C9B" stop-opacity=".5"/><stop offset=".60547" stop-color="#4B4B9B" stop-opacity=".5"/><stop offset=".60938" stop-color="#4B4B9A" stop-opacity=".5"/><stop offset=".61328" stop-color="#4A4A99" stop-opacity=".5"/><stop offset=".61719" stop-color="#494999" stop-opacity=".5"/><stop offset=".62109" stop-color="#484898" stop-opacity=".5"/><stop offset=".625" stop-color="#484897" stop-opacity=".5"/><stop offset=".62891" stop-color="#474797" stop-opacity=".5"/><stop offset=".63281" stop-color="#464696" stop-opacity=".5"/><stop offset=".63672" stop-color="#454595" stop-opacity=".5"/><stop offset=".64063" stop-color="#454595" stop-opacity=".5"/><stop offset=".64453" stop-color="#444494" stop-opacity=".5"/><stop offset=".64844" stop-color="#434394" stop-opacity=".5"/><stop offset=".65234" stop-color="#424293" stop-opacity=".5"/><stop offset=".65625" stop-color="#424292" stop-opacity=".5"/><stop offset=".66016" stop-color="#414192" stop-opacity=".5"/><stop offset=".66406" stop-color="#404091" stop-opacity=".5"/><stop offset=".66797" stop-color="#404090" stop-opacity=".5"/><stop offset=".67188" stop-color="#3F3F90" stop-opacity=".5"/><stop offset=".67578" stop-color="#3E3E8F" stop-opacity=".5"/><stop offset=".67969" stop-color="#3D3D8E" stop-opacity=".5"/><stop offset=".68359" stop-color="#3D3D8E" stop-opacity=".5"/><stop offset=".6875" stop-color="#3C3C8D" stop-opacity=".5"/><stop offset=".69141" stop-color="#3B3B8C" stop-opacity=".5"/><stop offset=".69531" stop-color="#3A3A8C" stop-opacity=".5"/><stop offset=".69922" stop-color="#3A3A8B" stop-opacity=".5"/><stop offset=".70313" stop-color="#39398A" stop-opacity=".5"/><stop offset=".70703" stop-color="#38388A" stop-opacity=".5"/><stop offset=".71094" stop-color="#373789" stop-opacity=".5"/><stop offset=".71484" stop-color="#373789" stop-opacity=".5"/><stop offset=".71875" stop-color="#363688" stop-opacity=".5"/><stop offset=".72266" stop-color="#353587" stop-opacity=".5"/><stop offset=".72656" stop-color="#343487" stop-opacity=".5"/><stop offset=".73047" stop-color="#343486" stop-opacity=".5"/><stop offset=".73438" stop-color="#333385" stop-opacity=".5"/><stop offset=".73828" stop-color="#323285" stop-opacity=".5"/><stop offset=".74219" stop-color="#313184" stop-opacity=".5"/><stop offset=".74609" stop-color="#313183" stop-opacity=".5"/><stop offset=".75" stop-color="#303083" stop-opacity=".5"/><stop offset=".75391" stop-color="#2F2F82" stop-opacity=".5"/><stop offset=".75781" stop-color="#2E2E81" stop-opacity=".5"/><stop offset=".76172" stop-color="#2E2E81" stop-opacity=".5"/><stop offset=".76563" stop-color="#2D2D80" stop-opacity=".5"/><stop offset=".76953" stop-color="#2C2C7F" stop-opacity=".5"/><stop offset=".77344" stop-color="#2B2B7F" stop-opacity=".5"/><stop offset=".77734" stop-color="#2B2B7E" stop-opacity=".5"/><stop offset=".78125" stop-color="#2A2A7E" stop-opacity=".5"/><stop offset=".78516" stop-color="#29297D" stop-opacity=".5"/><stop offset=".78906" stop-color="#28287C" stop-opacity=".5"/><stop offset=".79297" stop-color="#28287C" stop-opacity=".5"/><stop offset=".79688" stop-color="#27277B" stop-opacity=".5"/><stop offset=".80078" stop-color="#26267A" stop-opacity=".5"/><stop offset=".80469" stop-color="#25257A" stop-opacity=".5"/><stop offset=".80859" stop-color="#252579" stop-opacity=".5"/><stop offset=".8125" stop-color="#242478" stop-opacity=".5"/><stop offset=".81641" stop-color="#232378" stop-opacity=".5"/><stop offset=".82031" stop-color="#227" stop-opacity=".5"/><stop offset=".82422" stop-color="#222276" stop-opacity=".5"/><stop offset=".82813" stop-color="#212176" stop-opacity=".5"/><stop offset=".83203" stop-color="#202075" stop-opacity=".5"/><stop offset=".83594" stop-color="#1F1F74" stop-opacity=".5"/><stop offset=".83984" stop-color="#1F1F74" stop-opacity=".5"/><stop offset=".84375" stop-color="#1E1E73" stop-opacity=".5"/><stop offset=".84766" stop-color="#1D1D73" stop-opacity=".5"/><stop offset=".85156" stop-color="#1C1C72" stop-opacity=".5"/><stop offset=".85547" stop-color="#1C1C71" stop-opacity=".5"/><stop offset=".85938" stop-color="#1B1B71" stop-opacity=".5"/><stop offset=".86328" stop-color="#1A1A70" stop-opacity=".5"/><stop offset=".86719" stop-color="#19196F" stop-opacity=".5"/><stop offset=".87109" stop-color="#19196F" stop-opacity=".5"/><stop offset=".875" stop-color="#18186E" stop-opacity=".5"/><stop offset=".87891" stop-color="#17176D" stop-opacity=".5"/><stop offset=".88281" stop-color="#16166D" stop-opacity=".5"/><stop offset=".88672" stop-color="#16166C" stop-opacity=".5"/><stop offset=".89063" stop-color="#15156B" stop-opacity=".5"/><stop offset=".89453" stop-color="#14146B" stop-opacity=".5"/><stop offset=".89844" stop-color="#13136A" stop-opacity=".5"/><stop offset=".90234" stop-color="#131369" stop-opacity=".5"/><stop offset=".90625" stop-color="#121269" stop-opacity=".5"/><stop offset=".91016" stop-color="#111168" stop-opacity=".5"/><stop offset=".91406" stop-color="#101068" stop-opacity=".5"/><stop offset=".91797" stop-color="#101067" stop-opacity=".5"/><stop offset=".92188" stop-color="#0F0F66" stop-opacity=".5"/><stop offset=".92578" stop-color="#0E0E66" stop-opacity=".5"/><stop offset=".92969" stop-color="#0D0D65" stop-opacity=".5"/><stop offset=".93359" stop-color="#0D0D64" stop-opacity=".5"/><stop offset=".9375" stop-color="#0C0C64" stop-opacity=".5"/><stop offset=".94141" stop-color="#0B0B63" stop-opacity=".5"/><stop offset=".94531" stop-color="#0A0A62" stop-opacity=".5"/><stop offset=".94922" stop-color="#0A0A62" stop-opacity=".5"/><stop offset=".95313" stop-color="#090961" stop-opacity=".5"/><stop offset=".95703" stop-color="#080860" stop-opacity=".5"/><stop offset=".96094" stop-color="#070760" stop-opacity=".5"/><stop offset=".96484" stop-color="#07075F" stop-opacity=".5"/><stop offset=".96875" stop-color="#06065E" stop-opacity=".5"/><stop offset=".97266" stop-color="#05055E" stop-opacity=".5"/><stop offset=".97656" stop-color="#04045D" stop-opacity=".5"/><stop offset=".98047" stop-color="#04045C" stop-opacity=".5"/><stop offset=".98438" stop-color="#03035C" stop-opacity=".5"/><stop offset=".98828" stop-color="#02025B" stop-opacity=".5"/><stop offset=".99219" stop-color="#02025B" stop-opacity=".5"/><stop offset=".99609" stop-color="#01015A" stop-opacity=".5"/><stop offset="1" stop-color="#000059" stop-opacity=".5"/></linearGradient></defs><g clip-path="url(#a)"><path fill="none" stroke="#DFDFDF" stroke-miterlimit="10" stroke-width=".39679" d="M.8321 181.03904h316.12097M.8321 135.875h316.12097M.8321 90.71486h316.12097M.8321 45.55472h316.12097M.8321.41021h316.12097M.8321 181.03904V.39458m45.16014 180.64446V.39458m45.16014 180.64446V.39458m45.16014 180.64446V.39458m45.16014 180.64446V.39458m45.16014 180.64446V.39458m45.16013 180.64446V.39458m45.14452 180.64446V.39458"/></g><path fill-opacity=".5" d="m45.99219 56.84766 2.28125-3.59375 2.27734-3.36328 2.28125-3.14454 2.28125-2.92578 2.27734-2.71484 2.28126-2.5039 2.28124-2.30079 2.28126-2.10156 2.27734-1.90625 2.28125-1.71484 2.28125-1.52735 2.28125-1.34765 2.27734-1.16797 2.28125-.9922 2.28125-.82421 2.28125-.66016 2.27735-.5 2.28125-.34375 2.28125-.1914 2.27734-.04688 2.28125.10157 2.28125.23437 2.28125.375 2.27734.5 2.28125.6289 2.28125.7461 2.28125.86719 2.27735.97656 2.28125 1.08594 2.28125 1.1914 2.28125 1.28907 2.27734 1.38671 2.28125 1.47266 2.28125 1.5625 2.27734 1.64453 2.28126 1.72266 2.28125 1.79297 2.28125 1.86328 2.27734 1.92969 2.28125 1.98828 2.28125 2.04687 2.28125 2.09375 2.27734 2.14453 2.28125 2.1836 2.28125 2.22656 2.28125 2.25781 2.27735 2.28907 2.28125 2.3125 2.28125 2.33593 2.28125 2.35156 2.27734 2.35938 4.5625 4.75 2.27734 2.3711 2.28125 2.37109 2.28125 2.35937 2.28125 2.34375 2.27735 2.32813 2.28125 2.30469 2.28125 2.27734 2.28125 2.2461L187.36328 96.5l2.28125 2.17188 2.28125 2.125 2.28125 2.07812 2.27734 2.02344 2.28125 1.96875 2.28125 1.90234 2.27735 1.83984 2.28125 1.76954 2.28125 1.6914 2.28125 1.61328 2.27734 1.53125 2.28125 1.44141 2.28125 1.35156 2.28125 1.2539 2.27735 1.14845 2.28125 1.05078 2.28125.9336 2.28125.82421 2.27734.70313 2.28125.58203 2.28125.45703 2.27734.32031 2.28125.1836 2.28125.05078 2.28125-.10157 2.27735-.2461 2.28125-.40233 2.28125-.5586 2.28125-.71875 2.27734-.88672 2.28125-1.0586 2.28125-1.23437 2.28125-1.41406 2.27735-1.59766 2.28125-1.78515 2.28125-1.97656 2.28125-2.17188.05859 22.51172H45.99219Zm0 0"/><g clip-path="url(#b)"><g clip-path="url(#c)"><path fill="url(#d)" d="M45.99219 135.875V22.97656h225.80078V135.875Zm0 0"/></g></g><g clip-path="url(#e)"><path fill="none" stroke="#000" stroke-miterlimit="10" stroke-width=".79359" d="M.8321 135.875h314.6952"/></g><path stroke="#000" stroke-linejoin="round" stroke-miterlimit="10" stroke-width=".79359" d="M316.5586 135.875c-1.28907-.25781-2.58204-.77344-4.12891-1.67578 1.54687 1.16015 1.54687 2.1914 0 3.35547 1.54687-.90625 2.83984-1.42188 4.1289-1.67969Zm0 0"/><g clip-path="url(#f)"><path fill="none" stroke="#000" stroke-miterlimit="10" stroke-width=".79359" d="M181.47266 181.03904V1.82427"/></g><path stroke="#000" stroke-linejoin="round" stroke-miterlimit="10" stroke-width=".79359" d="M181.47266.79297c-.25782 1.28906-.77344 2.57812-1.67578 4.125 1.16015-1.54688 2.1914-1.54688 3.35156 0-.90235-1.54688-1.41797-2.83594-1.67578-4.125Zm0 0"/><use xlink:href="#g" x="167.36157" y="149.48301"/><g clip-path="url(#h)"><path fill="none" stroke="#00007F" stroke-miterlimit="10" stroke-width=".79359" d="m.8321 181.03904 3.1914-12.46483 3.19141-11.85156 3.19531-11.25781 3.1914-10.67187 3.19141-10.09765 3.1914-9.53906 3.19532-8.98828 3.1914-8.45312 3.1914-7.92578 3.19532-7.41797 3.1914-6.91015 3.19141-6.42578 3.19531-5.94921 3.1914-5.48047 3.19141-5.03125 3.1914-4.58594 3.19532-4.16015 3.1914-3.74219 3.1914-3.33593 3.19532-2.9414 3.1914-2.5625 3.1914-2.19141 3.19532-1.83594 3.1914-1.48828 3.19141-1.15625 3.1914-.83203 3.19532-.52734 3.1914-.22657 3.1914.0586 3.19532.33203 3.1914.59375 3.1914.83984 3.19532 1.08203 3.1914 1.3086 3.1914 1.51953 3.19141 1.72265 3.19532 1.91016 3.1914 2.08984 3.1914 2.25781 3.19532 2.41016 3.1914 2.55078 3.1914 2.6836 3.19532 2.80077 3.1914 2.90625 3.1914 3 3.19141 3.08203 3.19531 3.15234 3.1914 3.21094 3.19142 3.25781 3.1953 3.29297 3.19141 3.3125 3.1914 3.32421 3.19532 3.32422 3.1914 3.3086 3.1914 3.28124 3.19141 3.2461 3.19531 3.19921L186 95.1797l3.19141 3.0625 3.19531 2.97656 3.19141 2.88281 3.1914 2.76953 3.19532 2.64844 3.1914 2.51563 3.1914 2.36718 3.19141 2.21484 3.19531 2.04297 3.1914 1.86328 3.19141 1.67188 3.19531 1.46484 3.1914 1.2461 3.19141 1.01953 3.19532.77734 3.1914.52344 3.1914.26171 3.19141-.01562 3.19531-.3086 3.1914-.60156 3.19141-.92187 3.19531-1.2461 3.1914-1.57812 3.19141-1.92969 3.19531-2.28906 3.1914-2.66015 3.19141-3.04688 3.19141-3.4414 3.19531-3.85156 3.1914-4.27734 3.19141-4.70313 3.19531-5.14453 3.1914-5.60546 3.19141-6.07422 3.19531-6.55468 3.1914-7.04297 3.19141-7.54687 3.1914-8.07031 3.19532-8.59766 3.1914-9.1328 3.19141-9.6836"/></g><use xlink:href="#i" x="324.30046" y="26.14038" fill="#00007F"/><use xlink:href="#j" x="339.51691" y="30.50558" fill="#00007F"/><path fill="none" stroke="#00007F" stroke-miterlimit="10" stroke-width="1.1904" d="m45.99224 56.84769 2.28125-3.59375 2.27734-3.36328 2.28125-3.14453 2.28125-2.92578 2.27734-2.71485 2.28125-2.5039 2.28125-2.30078 2.28125-2.10156 2.27734-1.90625 2.28125-1.71484 2.28125-1.52735 2.28125-1.34765 2.27734-1.16797 2.28125-.99219 2.28125-.82422 2.28125-.66015 2.27734-.5 2.28125-.34375 2.28125-.1914 2.27735-.04688 2.28124.10156 2.28125.23437 2.28125.375 2.27735.5 2.28124.6289 2.28125.7461 2.28125.86719 2.27735.97656 2.28124 1.08594 2.28125 1.1914 2.28125 1.28907 2.27735 1.38671 2.28125 1.47266 2.28124 1.5625 2.27735 1.64453 2.28125 1.72266 2.28125 1.79296 2.28124 1.86328 2.27735 1.9297 2.28125 1.98827 2.28125 2.04688 2.28124 2.09374 2.27735 2.14454 2.28125 2.18359 2.28125 2.22656 2.28124 2.25781 2.27735 2.28906 2.28125 2.3125 2.28125 2.33594 2.28125 2.35156 2.27734 2.35938 4.5625 4.75 2.27734 2.37109 2.28125 2.37109 2.28125 2.35937 2.28125 2.34375 2.27734 2.32813 2.28125 2.30468 2.28125 2.27735 2.28125 2.24609L187.36328 96.5l2.28125 2.17188 2.28125 2.125 2.28125 2.07812 2.27734 2.02344 2.28125 1.96875 2.28125 1.90234 2.27734 1.83984 2.28125 1.76954 2.28125 1.6914 2.28125 1.61328 2.27734 1.53125 2.28125 1.4414 2.28125 1.35157 2.28125 1.2539 2.27734 1.14844 2.28125 1.05078 2.28125.9336 2.28125.82421 2.27734.70313 2.28125.58203 2.28125.45703 2.27734.32031 2.28125.1836 2.28125.05078 2.28125-.10156 2.27734-.2461 2.28125-.40234 2.28125-.5586 2.28125-.71874 2.27734-.88672 2.28125-1.0586 2.28125-1.23437 2.28125-1.41406 2.27734-1.59766 2.28125-1.78515 2.28125-1.97657 2.28125-2.17187"/><use xlink:href="#k" x="69.83871" y="96.39273" fill="#FFF"/><use xlink:href="#l" x="82.61566" y="88.45692" fill="#FFF"/><use xlink:href="#m" x="78.64676" y="102.5044" fill="#FFF"/><use xlink:href="#n" x="94.21768" y="96.39273" fill="#FFF"/><g fill="#FFF"><use xlink:href="#o" x="105.86365" y="96.39273"/><use xlink:href="#p" x="113.48213" y="96.39273"/></g><use xlink:href="#q" x="125.28682" y="96.39273" fill="#FFF"/><use xlink:href="#r" x="135.10951" y="96.39273" fill="#FFF"/><use xlink:href="#p" x="146.25948" y="96.39273" fill="#FFF"/><use xlink:href="#s" x="40.18048" y="163.02965"/><use xlink:href="#t" x="266.0295" y="165.26203"/></svg>