<svg xmlns="http://www.w3.org/2000/svg" xmlns:xlink="http://www.w3.org/1999/xlink" width="318.677pt" height="183.012pt" viewBox="0 0 318.677 183.012"><defs><path id="c" d="M.45313-3.21875c0 1.04688.28125 1.90625.78125 2.45313.53125.59375 1.29687.90625 2.3125.90625 1.01562 0 1.78125-.3125 2.3125-.90625.5-.54688.78125-1.40625.78125-2.45313S6.35938-5.125 5.85938-5.67187c-.53125-.59375-1.29688-.92188-2.3125-.92188-1.01563 0-1.78125.32813-2.3125.92188-.5.54687-.78125 1.40625-.78125 2.45312m1.03125 0c0-1.375.40625-3.04687 2.0625-3.04687s2.0625 1.67187 2.0625 3.04687c0 1.35938-.40625 3.03125-2.0625 3.03125s-2.0625-1.67187-2.0625-3.03125m0 0"/><path id="e" d="M1.3125-2c0 1.10938.51563 2.21875 1.78125 2.21875 2 0 3.71875-2.29687 4.8125-4.20312h.03125l-.625 2.125c-.125.40625-.20312.76562-.20312 1.0625 0 .65625.32812 1.01562 1.01562 1.01562 1.40625 0 2.45313-1.26562 3.09375-2.67187l-.4375-.26563C10.4375-2.0625 9.60938-.75 9.09375-.75c-.21875 0-.29687-.14062-.29687-.35937 0-.17188.0625-.39063.125-.65625L10.875-9.1875H9.3125l-.07812.23438c-.3125-.21875-.875-.39063-1.375-.39063C3.42188-9.34375 1.3125-4.45312 1.3125-2m1.84375-.04687c0-2.03125 1.8125-6.65625 4.75-6.65625.45313 0 .84375.15625 1.125.42187-.32812 1.39063-.98437 3.23438-1.98437 4.71875C6-1.98437 4.85938-.75 3.96875-.75c-.625 0-.8125-.5625-.8125-1.29687m0 0"/><path id="f" d="M1.625 0h.67188L2.875-1.09375C3.20313-.3125 4.14063.21875 5.20313.21875c2.1875 0 3.76562-1.45312 4.6875-3.09375.92187-1.64062 1.21875-3.28125 1.21875-4.125 0-1.375-.59375-2.34375-1.96875-2.34375-1.40625 0-3.28125 1.28125-4.70313 3.82813h-.04687l2.0625-8.21875-.07813-.07813-3.32812.4375-.10938.4375 1.04688.125c.3125.03125.45312.09375.45312.375 0 .14063-.01562.29688-.07812.53125Zm2.29688-2.01562c0-.89063.39062-2.1875.98437-3.28125C5.75-6.78125 7.15625-8.375 8.29688-8.375c.70312 0 1 .46875 1 1.54688 0 1.34375-1.10938 6.39062-3.84375 6.39062-.95313 0-1.53125-.65625-1.53125-1.57812m0 0"/><path id="g" d="M.60938-9.29687c0 1.625 1.625 2.92187 5.35937 2.92187-.625 1.07813-1.07812 2.21875-1.07812 3.4375 0 2.04688 1.29687 3.15625 3.625 3.15625 2.28125 0 4.65625-1.64062 4.65625-3.76562 0-1.26563-1.04688-1.96875-2.375-1.96875-1.46875 0-3.1875 1.65625-3.1875 2.95312 0 .40625.29687 1.15625.84375 1.15625.17187 0 .39062-.125.39062-.29687 0-.23438-.4375-.26563-.4375-.82813 0-.92187 1.32813-2.375 2.39063-2.375.75 0 1.20312.29688 1.20312 1.01563C12-2.23437 10.42188-.375 8.51563-.375c-1.34375 0-2.03125-.73437-2.03125-1.96875 0-1.375.96875-3 1.70312-4.1875 4.14063-.64062 8.20313-2.6875 8.20313-5.28125 0-.98437-.79688-1.64062-1.875-1.64062-2.45313 0-6.15625 3.15625-8.20313 6.42187-1.67187-.01562-4.40625-.0625-4.40625-2.04687 0-1.8125 2.21875-3.21875 3.60938-3.21875.25 0 .39062-.17188.39062-.32813s-.14062-.26562-.29687-.26562c-2.07813 0-5 1.40625-5 3.59375M8.5625-7.26562c1.35938-2.40625 4.25-5.59375 5.95313-5.59375.65625 0 1.10937.375 1.10937.98437 0 2.09375-3.26562 3.98438-7.0625 4.60938m0 0"/><path id="h" d="M-.28125 2.34375c.01563.45313.57813.8125 1.28125.8125 1.35938 0 1.98438-1.09375 2.53125-3.54687L4.75-5.85937h1.625l.14063-.53125h-1.6875l.39062-1.59375c.21875-.875.4375-1.20313.76563-1.20313.29687 0 .51562.25.82812.92188C6.89063-8.125 7-8 7.23438-8c.29687 0 .70312-.26562.70312-.625 0-.57812-.71875-1.04687-1.57812-1.04687-1.64063 0-2.3125 1.1875-2.78125 2.84375l-.125.4375h-1.125l-.15625.53125h1.15625l-1.53125 7.75c-.125.65625-.25.76562-.375.76562s-.34375-.125-.67188-.67187c-.09375-.14063-.1875-.3125-.39062-.3125-.3125 0-.64063.32812-.64063.67187m0 0"/><path id="i" d="M.42188 1.28125c0 1.14063 1.21875 1.875 2.92187 1.875 1.84375 0 3.26563-.75 3.26563-2.20312 0-1.01563-.8125-1.71875-2.3125-2.0625-1.125-.28126-1.57813-.4375-1.57813-.78125 0-.25.23438-.40625.53125-.48438.28125.04688.51563.04688.71875.04688 1.82813 0 2.90625-.96875 2.90625-2.32813 0-.35937-.10937-.65625-.25-.875l1.04688-.17187.4375-.85938-.09375-.10937-1.89063.51562c-.35937-.21875-1.01562-.39062-1.65625-.39062-2.21875 0-2.89062 1.40625-2.89062 2.39062 0 .92188.71875 1.5 1.14062 1.64063-.46875.17187-1.28125.48437-1.28125 1.03125 0 .45312.54688.84375 1 1.01562-.89062.14063-2.01562.65625-2.01562 1.75m1.35937-.125c0-.92187.76563-1.32812 1.25-1.40625.8125.10938 2.32813.4375 2.32813 1.53125 0 .96875-.8125 1.375-1.70313 1.375-1.0625 0-1.875-.57812-1.875-1.5M3-3.90625c0-.84375.40625-2.14062 1.54688-2.14062.375 0 .96875.17187.96875 1.01562 0 1.1875-.60938 2.20313-1.51563 2.20313-.65625 0-1-.45313-1-1.07813m0 0"/><clipPath id="a"><path d="M.69531 0h316.96485v182H.6953Zm0 0"/></clipPath><clipPath id="b"><path d="M.69531 135H316v2H.69531Zm0 0"/></clipPath><clipPath id="d"><path d="M1 0h316.66016v182.03125H1Zm0 0"/></clipPath></defs><g clip-path="url(#a)"><path fill="none" stroke="#DFDFDF" stroke-miterlimit="10" stroke-width=".39636" d="M1.08992 181.23826h315.78111M1.08993 136.125h315.7811M1.08993 91.01174h315.7811M1.08993 45.90238h315.7811M1.08993.80475h315.7811M1.08993 181.23826V.78912m45.10935 180.44914V.78912m45.11326 180.44914V.78912m45.10935 180.44914V.78912m45.11327 180.44914V.78912m45.10935 180.44914V.78912m45.11326 180.44914V.78912m45.09373 180.44914V.78912"/></g><g clip-path="url(#b)"><path fill="none" stroke="#000" stroke-miterlimit="10" stroke-width=".79273" d="M1.08992 136.125h314.35143"/></g><path stroke="#000" stroke-linejoin="round" stroke-miterlimit="10" stroke-width=".79273" d="M316.47266 136.125c-1.28907-.25781-2.57422-.77344-4.1211-1.67578 1.54688 1.16015 1.54688 2.1914 0 3.35156 1.54688-.90234 2.83203-1.41797 4.1211-1.67578Zm0 0"/><path fill="none" stroke="#000" stroke-miterlimit="10" stroke-width=".79273" d="M181.53516 181.23826V2.21881"/><path stroke="#000" stroke-linejoin="round" stroke-miterlimit="10" stroke-width=".79273" d="M181.53516 1.1875c-.25782 1.28906-.77344 2.57422-1.67578 4.1211 1.16015-1.54688 2.1914-1.54688 3.35156 0-.90235-1.54688-1.41797-2.83204-1.67578-4.1211Zm0 0"/><use xlink:href="#c" x="167.43877" y="149.71675"/><g clip-path="url(#d)"><path fill="none" stroke="red" stroke-miterlimit="10" stroke-width="1.58548" d="M23.6446 181.23826C46.22272 53.17582 186.83594 23.34771 316.87103 23.34771"/></g><path fill="none" stroke="#00F" stroke-miterlimit="10" stroke-width="1.58548" d="M23.6446 91.01174C75.23442 180.37107 271.75777 103.97267 271.75777.78912"/><use xlink:href="#e" x="40.39562" y="163.24969"/><use xlink:href="#f" x="265.99968" y="165.47866"/><path fill="none" stroke="#000" stroke-dasharray="2.9727799829 2.9727799829" stroke-miterlimit="10" stroke-width=".39636" d="M271.75777 136.125V45.90238"/><use xlink:href="#g" x="79.15736" y="53.38878"/><use xlink:href="#h" x="94.35929" y="57.74924"/><use xlink:href="#g" x="281.9277" y="44.36648"/><use xlink:href="#i" x="297.12963" y="48.72496"/></svg>