<svg xmlns="http://www.w3.org/2000/svg" xmlns:xlink="http://www.w3.org/1999/xlink" width="389.186pt" height="284.894pt" viewBox="0 0 389.186 284.894"><defs><path id="a" d="M.59375-.73437c0 .53125.4375.95312 1.20313.95312 1.26562 0 1.98437-1.26562 2.76562-2.53125l.75-1.23437h.03125L5.6875-2.0625C6.04688-.57812 6.39063.21875 7.34375.21875c1.375 0 2.07813-1.40625 2.64063-2.54687l-.48438-.25C9.04688-1.75 8.53125-.75 8.01563-.75c-.35938 0-.5-.42187-.92188-2.09375L6.5-5.29687c.6875-1.1875 1.64063-2.67188 2.17188-2.67188.5625 0 .57812.29688 1.14062.29688.40625 0 .79688-.40625.79688-.90625 0-.57813-.4375-.8125-.96875-.8125-.98438 0-1.82813.89062-2.48438 1.95312l-.8125 1.26563H6.3125L5.54688-9.3125l-.09375-.07812-3.09375.9375L2.40625-8 3.875-8.09375c.29688 0 .4375.14063.625.9375l.65625 2.70313-.51562.89062c-.79688 1.375-1.5 2.34375-1.95313 2.34375-.54687 0-.67187-.45312-1.28125-.45312-.46875 0-.8125.48437-.8125.9375m0 0"/><path id="b" d="M0 3.5c0 .5.5625 1.01563 1.375 1.01563 1.59375 0 2.26563-1.17188 3.92188-4.01563.375-.64062 1.5-2.60937 2.65625-4.51562 1.07812-1.75 2.25-3.5625 2.25-4.3125 0-.65625-.20313-1.0625-.34375-1.0625-.35938 0-.98438.15625-1.46875.48437 0 0-.0625 1.90625-.23438 2.5625-.29687 1.04688-1.39062 3.07813-2.625 5.20313h-.0625c-.14062-2.85938-.5-6.79688-.75-8.17188l-.14062-.07812L1.4375-8.5l.04688.48438 1.29687-.04688c.375 0 .45313.32813.625 1.28125.1875 1.45313.60938 5.04688.60938 6.54688 0 .54687-.01563 1.3125-.4375 2.29687-.34375.78125-.8125 1.34375-1.1875 1.34375-.6875 0-.76563-1.04687-1.4375-1.04687C.48438 2.35938 0 2.96875 0 3.5m0 0"/><path id="c" d="M.79688-.34375c0 .25.09374.5625.42187.5625.25 0 .875-.125.875-.4375v-.82812c0-.20313.09375-.34375.25-.34375.29688 0 .95313.4375 2.04688.875 1 .39062 1.875.73437 2.75.73437 1.21875 0 1.79687-1.625 2.28125-3.59375l-.51563-.14062c-.46875 1.15625-.9375 2.28125-1.76562 2.28125-.57813 0-1.40625-.28126-2.10938-.53125-.60937-.21876-1.26562-.48438-1.75-.54688C5.34375-4.46875 7.48438-6.6875 9.75-8.89062l-.15625-.28125H3.51563c-.25.34375-.82813 1.375-1.25 2.67187l.45312.1875c.60938-1.09375.92188-1.64062 1.79688-1.64062h3.28125C5.4375-5.5625 3.26563-3.40625 1.23438-1.35937c-.29688.3125-.4375.71875-.4375 1.01562m0 0"/><path id="d" d="M1.625 0h.6875l.57813-1.09375C3.21875-.3125 4.15625.21875 5.23438.21875c2.1875 0 3.78125-1.45312 4.6875-3.10937.9375-1.64063 1.23437-3.29688 1.23437-4.125 0-1.39063-.59375-2.375-1.98437-2.375-1.42188 0-3.28125 1.29687-4.71875 3.85937h-.03125l2.0625-8.25-.07813-.07812-3.34375.4375-.125.4375L4-12.875c.3125.04688.45313.10938.45313.39063 0 .125-.01563.29687-.07813.53125Zm2.3125-2.03125c0-.89062.40625-2.1875 1-3.28125.82813-1.48437 2.25-3.09375 3.39063-3.09375.70312 0 1 .46875 1 1.54688 0 1.34375-1.10938 6.42187-3.85938 6.42187-.95312 0-1.53125-.65625-1.53125-1.59375m0 0"/><path id="e" d="M2.1875-.82812c0 .625.29688 1.04687 1 1.04687 1.48438 0 2.6875-1.23437 3.4375-2.625l-.42187-.3125C5.76563-1.98437 4.8125-.75 4.23438-.75c-.25 0-.32813-.1875-.32813-.42187 0-.14063.01563-.3125.04688-.48438L5.625-8.45312h2.32813l.21875-.71875H5.78125l.64063-2.20313-.21875-.14062-1.8125 1.4375-.23438.90625H2.625l-.20312.71875h1.5625L2.3125-1.60937c-.07812.28124-.125.53125-.125.78125m0 0"/><path id="f" d="M1.3125-2.01562c0 1.125.51563 2.23437 1.79688 2.23437 2 0 3.73437-2.3125 4.82812-4.21875h.03125l-.625 2.125c-.125.42188-.20312.78125-.20312 1.07813 0 .65625.3125 1.01562 1.01562 1.01562 1.40625 0 2.46875-1.26562 3.10938-2.6875l-.4375-.25C10.48438-2.0625 9.64063-.75 9.125-.75c-.21875 0-.29687-.14062-.29687-.35937 0-.1875.0625-.40625.125-.65625l1.96875-7.46875H9.34375l-.07812.25c-.3125-.21875-.875-.40625-1.375-.40625-4.45313 0-6.57813 4.92187-6.57813 7.375m1.84375-.03125c0-2.04688 1.84375-6.6875 4.78125-6.6875.45313 0 .85938.15625 1.125.42187-.32812 1.39063-.98437 3.23438-1.98437 4.73438C6.03125-1.98437 4.875-.75 3.98438-.75c-.625 0-.82813-.5625-.82813-1.29687m0 0"/><path id="g" d="M.42188-1.57812C.42188-.17187 2.34375.21874 3.5625.21874c3.34375 0 6.9375-2.01562 8.75-5.17187.15625.01562.34375.0625.5.0625 2.625 0 5.45313-1.45313 5.45313-4.29688 0-1.09375-.60938-1.98437-1.45313-2.70312.14063-.15625.8125-.71875.8125-.875 0-.1875-.14062-.42188-.35937-.42188-.20313 0-1.0625.64063-1.23438.79688-1.57812-.85938-3.5-1.10938-5.26562-1.10938-3.64063 0-8.79688 2.32813-8.79688 6.35938 0 1.375.95313 2.20312 2.46875 2.20312 2.40625 0 5.46875-2.84375 5.46875-5.14062 0-.32813-.14062-1.79688-.625-1.79688-.17187 0-.375.125-.375.29688 0 .23437.14063.57812.14063.84375 0 2.01562-2.35938 5.20312-4.60938 5.20312-1.09375 0-1.73437-.51562-1.73437-1.48437 0-3.90625 5.32812-5.875 8.0625-5.875 1.53125 0 3.28125.21875 4.5625 1.0625-1.92188 1.6875-3.32813 3.76562-4.59375 5.875-.25-.14063-.51563-.375-.51563-.67188 0-.375.51563-1.1875 1-1.1875.15625 0 .29688-.15625.29688-.29687 0-.17188-.125-.29688-.28125-.29688-.82813 0-1.78125.98438-1.78125 1.71875 0 .57813.45312 1.03125.98437 1.28125C9.26563-3.15625 6.53125-.375 3.5625-.375c-1.76562 0-2.375-.54687-2.375-1.42187.17188.09374.35938.10937.51563.10937.4375 0 1.07812-.28125 1.07812-.73437 0-.48438-.42187-.8125-.89062-.8125-.96875 0-1.46875.875-1.46875 1.65625m12.28125-3.95313c.78125-1.59375 2.32812-3.92187 3.5-5.53125.32812.45313.42187 1.01563.42187 1.5625 0 1.9375-1.23437 3.96875-3.92187 3.96875m0 0"/><path id="h" d="m1.14063-.01562.5.01562.4375-.71875c.26562.51563.92187.875 1.6875.875 1.60937 0 2.6875-1.01562 3.32812-2.17187.65625-1.15625.875-2.32813.875-2.90625 0-.96875-.4375-1.65625-1.42187-1.65625-1.03125 0-2.28125.92187-3.26563 2.6875H3.25l1.4375-5.75-.04687-.0625-2.5.3125-.0625.34375.70312.07812c.21875.03125.3125.09375.3125.28125 0 .09375-.01562.1875-.0625.35938Zm1.76562-1.40625c0-.60938.29688-1.53125.71875-2.29688C4.1875-4.75 5.10938-5.79687 5.85938-5.79687c.45312 0 .64062.3125.64062 1 0 .98437-.78125 4.46875-2.59375 4.46875-.64062 0-1-.45313-1-1.09375m0 0"/><path id="i" d="M.9375-1.40625c0 .78125.35938 1.5625 1.26563 1.5625 1.4375 0 2.59375-1.60937 3.34375-2.90625h.01562l-.39062 1.40625q-.14063.42188-.14063.75c0 .5.25.75.76563.75 1.04687 0 1.79687-.92187 2.28125-1.9375l-.34375-.20312c-.26563.5-.8125 1.375-1.15625 1.375-.15625 0-.20313-.09376-.20313-.25 0-.10938.03125-.28126.07813-.45313L7.8125-6.45312H6.54688l-.0625.14062c-.21875-.14062-.60938-.26562-.95313-.26562-3.125 0-4.59375 3.45312-4.59375 5.17187m1.46875-.04687c0-1.42188 1.25-4.60938 3.17188-4.60938.3125 0 .5625.09375.75.25-.23438.96875-.6875 2.26563-1.375 3.3125C4.25-1.42187 3.5-.60937 2.92188-.60937c-.40625 0-.51563-.35938-.51563-.84375m0 0"/><path id="j" d="M1.53125-.64062c0 .5.26563.79687.78125.79687 1.07813 0 1.9375-.85937 2.48438-1.89062l-.29688-.25c-.34375.5625-.96875 1.375-1.35937 1.375-.17188 0-.23438-.125-.23438-.29688 0-.09375.01563-.20312.04688-.3125L4.09375-5.875h1.60938l.14062-.54687H4.20313l.48437-1.625-.15625-.09375-1.4375 1-.20312.71875h-1.0625L1.6875-5.875h1.07813L1.60938-1.21875C1.5625-1 1.53125-.8125 1.53125-.64062m0 0"/></defs><path fill="none" stroke="#000" stroke-miterlimit="10" stroke-width=".39767" d="m57.40625 249.57813-32.03907 23.30469"/><path fill="none" stroke="#000" stroke-linecap="round" stroke-linejoin="round" stroke-miterlimit="10" stroke-width=".39766" d="M28.28125 273.71094c-1.14844-.9336-2.22656-.98828-3.07422-.71094.51953-.72656.80469-1.76953.26563-3.14844"/><use xlink:href="#a" x="6.62714" y="277.69812"/><path fill="none" stroke="#000" stroke-miterlimit="10" stroke-width=".39767" d="M57.40625 249.57813h225.90238"/><path fill="none" stroke="#000" stroke-linecap="round" stroke-linejoin="round" stroke-miterlimit="10" stroke-width=".39767" d="M281.4414 247.19531c.375 1.42969 1.21876 2.10547 2.06641 2.38282-.84765.28125-1.6914.95703-2.0664 2.38671"/><use xlink:href="#b" x="290.72992" y="252.01583"/><path fill="none" stroke="#000" stroke-miterlimit="10" stroke-width=".39767" d="M57.40625 249.57813V23.67574"/><path fill="none" stroke="#000" stroke-linecap="round" stroke-linejoin="round" stroke-miterlimit="10" stroke-width=".39767" d="M55.01953 25.54688c1.4336-.37891 2.10938-1.22266 2.38672-2.07032.27734.84766.95313 1.6914 2.38672 2.07032"/><use xlink:href="#c" x="52.13695" y="16.03739"/><path fill="none" stroke="#000" stroke-miterlimit="10" stroke-width=".39767" d="M340.2813 221.29296H113.98048l56.57423-28.28906h169.7266"/><use xlink:href="#d" x="40.31568" y="58.38881"/><path fill="none" stroke="#000" stroke-dasharray="2.9825833453 2.9825833453" stroke-miterlimit="10" stroke-width=".39767" d="M57.40625 51.56637h169.7266"/><use xlink:href="#e" x="41.80656" y="130.76244"/><path fill="none" stroke="#000" stroke-dasharray="2.9825833453 2.9825833453" stroke-miterlimit="10" stroke-width=".39767" d="M57.40625 125.11326H255.418"/><use xlink:href="#f" x="40.26578" y="208.903"/><path fill="none" stroke="#000" stroke-dasharray="2.9825833453 2.9825833453" stroke-miterlimit="10" stroke-width=".39767" d="M57.40625 204.3203h203.67191"/><path fill="none" stroke="#000" stroke-miterlimit="10" stroke-width=".39767" d="M340.2813 79.85544H113.98048L170.5547 23.2773h169.7266m0 135.78128H113.98048l56.57423-50.91798h169.7266"/><path fill="none" stroke="#000" stroke-miterlimit="10" stroke-width=".39767" d="M269.90238 47.71871c0-6.25-22.79688-11.3125-50.91798-11.3125s-50.91797 5.0625-50.91797 11.3125 22.79687 11.31641 50.91797 11.31641 50.91798-5.0664 50.91798-11.3164Zm0 0"/><path fill="none" stroke="#000" stroke-dasharray="2.9825833453 2.9825833453" stroke-miterlimit="10" stroke-width=".39767" d="M309.50395 126.92576c0-6.25-22.79688-11.3164-50.91798-11.3164s-50.91797 5.0664-50.91797 11.3164 22.79687 11.3125 50.91797 11.3125 50.91798-5.0625 50.91798-11.3125Zm0 0"/><path fill="none" stroke="#000" stroke-miterlimit="10" stroke-width=".39767" d="M298.18754 206.1289c0-6.25-22.79297-11.3125-50.91407-11.3125s-50.91798 5.0625-50.91798 11.3125 22.79688 11.3164 50.91798 11.3164 50.91407-5.0664 50.91407-11.3164Zm0 0"/><path fill="none" stroke="#000" stroke-miterlimit="10" stroke-width=".79534" d="M269.56254 51.56637c28.75782 16.60157 25.83203 44.79298 42.4336 73.54689M164.89846 51.56637c27.39844 15.81641 13.60937 49.31251 33.94532 73.54689m113.15236 0c0 31.25391-26.94141 52.14063-11.3164 79.20704m-101.83596-79.20704c26.75 15.44531 15.44531 52.45704 0 79.20704"/><use xlink:href="#g" x="327.23857" y="56.05569"/><use xlink:href="#h" x="343.90171" y="60.43054"/><use xlink:href="#g" x="355.38669" y="208.80621"/><use xlink:href="#i" x="372.04984" y="213.18106"/><use xlink:href="#g" x="356.57621" y="129.60286"/><use xlink:href="#j" x="373.23935" y="133.97572"/></svg>