<svg xmlns="http://www.w3.org/2000/svg" xmlns:xlink="http://www.w3.org/1999/xlink" width="228.399pt" height="195.093pt" viewBox="0 0 228.399 195.093"><defs><path id="a" d="M.59375-.73437c0 .53125.4375.95312 1.1875.95312 1.26563 0 1.98438-1.26562 2.76563-2.51562l.75-1.23438h.03125l.34375 1.46875C6.03125-.57812 6.35938.21875 7.3125.21875c1.375 0 2.09375-1.40625 2.64063-2.53125l-.46875-.26562C9.01563-1.75 8.5-.75 7.98438-.75c-.34375 0-.48438-.42187-.90625-2.07812l-.59375-2.45313c.67187-1.1875 1.625-2.67187 2.15625-2.67187.5625 0 .57812.29687 1.14062.29687.40625 0 .78125-.39062.78125-.89062 0-.57813-.4375-.8125-.95312-.8125-.98438 0-1.8125.89062-2.46875 1.9375l-.8125 1.28125h-.04688l-.75-3.14063-.09375-.07812-3.07812.9375.04687.45312 1.45313-.09375c.29687 0 .4375.125.625.92188l.65625 2.70312-.51563.89063C3.82813-2.1875 3.14063-1.20312 2.67188-1.20312c-.53125 0-.67188-.46875-1.26563-.46875-.46875 0-.8125.48437-.8125.9375m0 0"/><path id="b" d="M0 3.48438C0 3.98438.5625 4.5 1.375 4.5c1.57813 0 2.25-1.17187 3.90625-4 .375-.64062 1.5-2.60937 2.65625-4.5C9-5.75 10.17188-7.54687 10.17188-8.3125c0-.65625-.20313-1.04687-.34375-1.04687-.34375 0-.98438.15625-1.45313.46875 0 0-.0625 1.90625-.25 2.5625C7.82813-5.28125 6.73438-3.25 5.51563-1.125h-.0625c-.14063-2.85937-.5-6.78125-.75-8.15625l-.14063-.07812-3.14062.89062.0625.48438 1.29687-.04688c.375 0 .45313.3125.60938 1.26563C3.59375-5.3125 4-1.71875 4-.23437c0 .54687-.01562 1.3125-.4375 2.29687-.32812.76563-.8125 1.32813-1.1875 1.32813-.67187 0-.75-1.03125-1.42187-1.03125-.48438 0-.95313.59375-.95313 1.125m0 0"/><path id="c" d="M.79688-.34375c0 .25.09374.5625.40625.5625.26562 0 .875-.125.875-.4375v-.82812c0-.20313.10937-.34375.26562-.34375.29688 0 .95313.4375 2.03125.875 1 .39062 1.875.73437 2.75.73437 1.20313 0 1.78125-1.625 2.28125-3.59375l-.51562-.14062c-.48438 1.15625-.9375 2.28125-1.76563 2.28125-.57812 0-1.42187-.26563-2.10937-.53125-.60938-.21876-1.26563-.46875-1.75-.53125 2.0625-2.17188 4.1875-4.35938 6.45312-6.5625l-.15625-.28125H3.51563c-.26563.34375-.84375 1.375-1.25 2.65625l.45312.20312C3.3125-7.375 3.625-7.9375 4.5-7.9375h3.26563C5.40625-5.54687 3.25-3.39062 1.23438-1.34375c-.29688.29688-.4375.70313-.4375 1m0 0"/><path id="d" d="M.65625 0h5.1875v-.53125c-1.625-.125-1.65625-.14062-1.65625-1.1875v-9.4375c0-1.0625.03125-1.07812 1.65625-1.20312v-.53125H.65625v.53125c1.64063.125 1.6875.14062 1.6875 1.20312v9.4375c0 1.04688-.04687 1.0625-1.6875 1.1875Zm0 0"/><path id="e" d="m0 1.67188.09375.45312c.73438-.04687 1.60938-.23437 2.34375-.57812C4.125.76563 4.34375-.75 4.34375-2.65625v-8.5c0-1.0625.0625-1.07812 1.6875-1.20312v-.53125H.8125v.53125c1.64063.125 1.6875.14062 1.6875 1.20312v8.59375C2.5-.75 2.1875.15625 1.71875.6875 1.3125 1.17188.65625 1.5 0 1.67188m0 0"/><path id="f" d="M.65625 0h5.1875v-.53125c-1.625-.125-1.65625-.14062-1.65625-1.1875v-4.9375h.01563l.01562.07813c1.07813 1.625 2.35938 3.35937 3.8125 5.01562C9.125-.34375 10.10938 0 11.26563.04688l1.17187.04687v-.45312c-.78125-.15625-1.375-.6875-2.17187-1.53125-1.65625-1.75-3.23438-3.64063-4.5-5.54688C7-8.79687 8.45313-10.21875 9.57813-11.20312c.96875-.85938 1.34375-1.04688 2.9375-1.15625v-.53125H7.96875v.53125l.71875.0625c.39063.04687.4375.26562.01563.73437-1.09375 1.21875-3.17188 3.40625-4.51563 4.79688v-4.39063c0-1.0625.03125-1.07812 1.65625-1.20312v-.53125H.65625v.53125c1.64063.125 1.6875.14062 1.6875 1.20312v9.4375c0 1.04688-.04687 1.0625-1.6875 1.1875Zm0 0"/><path id="g" d="M.89063-6.4375c0 2.07813.57812 3.79688 1.59375 4.90625C3.53125-.35937 5.0625.28125 7.09375.28125c2.04688 0 3.57813-.64062 4.625-1.8125 1.01563-1.10937 1.57813-2.82812 1.57813-4.90625 0-2.09375-.5625-3.8125-1.57813-4.92187-1.04687-1.17188-2.57812-1.82813-4.625-1.82813-2.03125 0-3.5625.65625-4.60937 1.82813C1.46875-10.25.89063-8.53125.89063-6.4375m2.07812 0c0-2.75.8125-6.09375 4.125-6.09375s4.125 3.34375 4.125 6.09375c0 2.73438-.8125 6.0625-4.125 6.0625s-4.125-3.32812-4.125-6.0625m0 0"/></defs><path fill="none" stroke="#000" stroke-miterlimit="10" stroke-width=".39665" d="m89.76953 135.83984-64.23825 46.71873"/><path fill="none" stroke="#000" stroke-linecap="round" stroke-linejoin="round" stroke-miterlimit="10" stroke-width=".39665" d="M28.4375 183.38672c-1.14453-.9336-2.21875-.98438-3.0664-.71485.51953-.71874.80468-1.7578.26953-3.13671"/><use xlink:href="#a" x="6.83962" y="187.36194"/><path fill="none" stroke="#000" stroke-miterlimit="10" stroke-width=".39665" d="M89.76953 135.83984h112.4648"/><path fill="none" stroke="#000" stroke-linecap="round" stroke-linejoin="round" stroke-miterlimit="10" stroke-width=".39665" d="M200.3711 133.46094c.375 1.42578 1.21484 2.10156 2.0625 2.3789-.84766.27735-1.6875.95313-2.0625 2.3789"/><use xlink:href="#b" x="209.63581" y="138.26918"/><path fill="none" stroke="#000" stroke-miterlimit="10" stroke-width=".39665" d="M89.76953 135.83984V23.37505"/><path fill="none" stroke="#000" stroke-linecap="round" stroke-linejoin="round" stroke-miterlimit="10" stroke-width=".39665" d="M87.38672 25.23828c1.42969-.3789 2.10547-1.21875 2.38281-2.0625.27734.84375.94922 1.6836 2.3789 2.0625"/><use xlink:href="#c" x="84.51252" y="15.75376"/><path fill="none" stroke="#000" stroke-miterlimit="10" stroke-width=".39665" d="M89.76953 135.83984 57.4883 159.3164h56.43356l32.27733-23.47656Zm0-28.21483L57.4883 131.09766h56.43356L146.1992 107.625Zm0 28.21483v-28.21483M57.4883 159.3164v-28.21874m88.7109 4.74218v-28.21483m-32.27734 51.69139v-28.21874"/><use xlink:href="#d" x="47.78128" y="159.17001"/><use xlink:href="#e" x="154.22243" y="129.93891"/><use xlink:href="#f" x="72.35404" y="108.37715"/><use xlink:href="#g" x="71.38156" y="142.29546"/></svg>