<svg xmlns="http://www.w3.org/2000/svg" xmlns:xlink="http://www.w3.org/1999/xlink" width="734.629pt" height="403.958pt" viewBox="0 0 734.629 403.958"><defs><path id="b" d="M1.6875-5.28125c0 2.15625 1.57813 3.73438 3.75 3.73438 2.09375 0 3.67188-1.57813 3.67188-3.73438 0-2.09375-1.57813-3.65625-3.67188-3.65625-2.17187 0-3.75 1.5625-3.75 3.65625m0 0"/><path id="c" d="M1.3125-2.01562c0 1.125.51563 2.23437 1.79688 2.23437 2.01562 0 3.75-2.3125 4.84375-4.21875h.03125l-.64063 2.125c-.10937.42188-.1875.78125-.1875 1.07813 0 .65625.3125 1.01562 1.01563 1.01562 1.40625 0 2.46875-1.28125 3.10937-2.6875l-.4375-.26562C10.5-2.07812 9.65625-.75 9.14063-.75c-.21875 0-.29688-.14062-.29688-.35937 0-.1875.0625-.40625.125-.65625L10.9375-9.25H9.35938L9.28125-9c-.3125-.21875-.875-.40625-1.375-.40625-4.45312 0-6.59375 4.92188-6.59375 7.39063m1.85938-.03125C3.17188-4.10937 5-8.75 7.95313-8.75c.45312 0 .85937.15625 1.125.42188-.32813 1.39062-.98438 3.25-1.98438 4.75C6.03125-1.98437 4.875-.75 3.98438-.75c-.625 0-.8125-.5625-.8125-1.29687m0 0"/><path id="d" d="m1.39063-12.40625.76562.07813c.4375.0625.59375.21875.6875.89062.21875 1.71875.4375 3.5625.6875 5.4375l.79688 6H5.625l3.78125-6.45312c1.21875-2.07813 2.375-3.98438 3.125-5.14063.42188-.64062.70313-.73437 1.6875-.8125l.10938-.54687h-4.125l-.10938.54687 1.04688.07813c.21875.01562.3125.09375.3125.25 0 .32812-1.39063 2.8125-2.96875 5.54687L5.79688-1.875 5.125-6.85937c-.21875-1.64063-.57812-4.67188-.57812-5.04688 0-.21875.07812-.35937.32812-.40625l1.20313-.09375.09375-.54687H1.5Zm0 0"/><path id="e" d="M-.39062 3.45313c.01562.60937.82812 1.0625 1.70312 1.0625 1.875 0 2.67188-1.5 3.45313-5.09375L6.5-8.46875h2.35938l.1875-.71875h-2.4375l.51562-2.10937c.35938-1.40625.71875-1.95313 1.23438-1.95313.5 0 .84375.42188 1.26562 1.3125.09375.1875.23438.32813.51563.32813.375 0 .92187-.34375.92187-.82813 0-.79687-1.01562-1.45312-2.14062-1.45312-2.20313 0-3.125 1.5625-3.84375 4.03125L4.875-9.1875H3.26563l-.21875.71875h1.67187L2.54688 2.5625c-.21875 1.15625-.42188 1.28125-.59375 1.28125-.20313 0-.5-.14062-1-.92187-.14063-.17188-.25-.40625-.5-.40625-.40625 0-.84375.45312-.84375.9375m0 0"/><path id="f" d="M1.60938-5.28125c0 4.21875.95312 8.85938 4.92187 9.03125v-.5625c-1.32812-.26562-3.42187-1.90625-3.42187-8.46875 0-6.51562 1.98437-8.17187 3.42187-8.46875v-.54687C2.5625-14.14062 1.60938-9.5 1.60938-5.28125m0 0"/><path id="g" d="M1.10938 3.1875V3.75c3.96875-.17187 4.92187-4.8125 4.92187-9.03125s-.95312-8.85937-4.92187-9.01562v.54687c1.4375.29688 3.4375 1.95313 3.4375 8.46875 0 6.5625-2.09375 8.20313-3.4375 8.46875m0 0"/><path id="h" d="m1.39063-12.40625.82812.07813c.40625.03125.48438.23437.53125.79687L3.57813 0h1.32812l5.10938-10.3125h.10937L11.09375 0h1.29688l3.26562-6.6875c1.0625-2.14062 2.01563-4.03125 2.35938-4.60937.51562-.89063.65624-1 1.8125-1.10938l.07812-.54687h-4.1875l-.09375.54687 1.20313.10938c.1875.03125.28124.125.28124.26562 0 .29688-1.09374 2.67188-2.23437 5.03125l-2.25 4.70313h-.07812L11.59375-12.625h-1.3125L5.21875-2.29687H5.125l-.625-9.5625c0-.3125.14063-.4375.40625-.45313l1.20313-.09375.125-.54687H1.5Zm0 0"/><path id="m" d="M1.53125-3.20312c0 2.53125 1.85938 3.48437 4.5625 3.48437 2.54688 0 4.89063-.54687 5.92188-4.90625l1.59375-6.76562c.15625-.64063.3125-.90625.79687-.9375l1.03125-.07813.125-.54687h-5.125l-.14062.54687 1.09375.07813c.32812.01562.48437.17187.48437.51562 0 .125-.01562.26563-.0625.42188l-1.51562 6.53125C9.71875-2.375 8.8125-.375 6.20313-.375c-1.65625 0-2.8125-.71875-2.8125-2.79687 0-.51563.07812-1.15625.23437-1.875l1.5-6.34375c.15625-.64063.29688-.90625.76563-.9375l1.04687-.07813.10938-.54687H1.9375l-.14062.54687 1.10937.07813c.32813.01562.45313.17187.45313.5 0 .10937-.01563.25-.04688.4375L1.73438-4.79687c-.14063.59375-.20313 1.10937-.20313 1.59375m0 0"/><path id="i" d="M1.0625-3.26562h7.29688V-4.125H1.0625Zm0 0"/><path id="j" d="M1.42188 0H5.8125v-.40625L4.76563-.5c-.29688-.03125-.4375-.125-.4375-.60937v-7.73438L4.25-8.90625l-2.8125.46875v.35938l1.125.14062c.25.04688.34375.14063.34375.54688v6.28125c0 .48437-.125.57812-.4375.60937l-1.04687.09375Zm0 0"/><path id="k" d="M1.67188 2.625h.875V-10h-.875Zm0 0"/><path id="l" d="m.67188-8.65625.5.0625c.29687.03125.40625.17188.46875.625.14062 1.10938.29687 2.42188.46875 3.8125L2.64063 0h1.0625l2.59375-4.46875C7.14063-5.90625 7.9375-7.25 8.45313-8.04687c.25-.40625.42187-.54688 1.17187-.60938l.09375-.40625h-2.9375l-.07812.40625.71875.0625c.15625.01563.23437.0625.23437.17188 0 .25-1 2.04687-2 3.8125l-1.82812 3.1875-.42188-3.40625c-.125-.9375-.39062-3.23438-.39062-3.48438 0-.14062.04687-.25.23437-.26562l.8125-.07813.09375-.40625H.73438Zm0 0"/><clipPath id="a"><path d="M453 68h281.25781v330H453Zm0 0"/></clipPath></defs><path fill="#007F7F" fill-opacity=".05" stroke="#000" stroke-miterlimit="10" stroke-width=".79661" d="M68.06646 100.9141s34.65234-25.03125 56.66405-28.33203c22.01562-3.30078 32.44921 5.82813 56.66405 11.33203s51.48827 2.6914 67.99998 17c16.51172 14.30859 8.19531 29.14843 17 56.66405 8.80468 27.51952 22.82812 46.47264 28.33202 84.99998 5.5039 38.52342 16.51172 85.81247 0 113.3281-16.51171 27.51561-40.96874 28.33202-84.99607 28.33202s-103.1406-6.3164-141.66403-28.33203c-38.52343-22.01171-45.66014-51.97655-56.66405-84.99607-11.0078-33.02343-11.0078-51.97655 0-84.99998 11.0039-33.01952 56.66405-84.99607 56.66405-84.99607"/><path fill="#007F7F" fill-opacity=".05" d="M464.72266 185.91016s28.35937-59.52344 56.66406-84.9961c28.30078-25.47265 28.36328-24.07422 56.66406-17 28.30469 7.07422 35.4375 12.78516 56.66406 45.33203 21.23047 32.55078 14.1836 56.69532 28.33204 84.9961 14.15234 28.30469 14.18359 7.10547 28.33593 28.33594 14.14844 21.22656 42.48047 28.35937 28.33203 56.66406-14.15234 28.30078-35.46875 35.4375-85 56.66406-49.52734 21.22656-77.94921 35.41016-113.32812 28.33203-35.3789-7.07422-14.17969-7.13281-28.33203-56.66406-14.15235-49.53125-28.33203-141.66406-28.33203-141.66406"/><g clip-path="url(#a)"><path fill="none" stroke="#000" stroke-miterlimit="10" stroke-width=".79661" d="M464.72262 185.91017s28.35936-59.52342 56.66404-84.99607c28.30078-25.47265 28.36328-24.07422 56.66405-17 28.30468 7.07422 35.4375 12.78515 56.66405 45.33202 21.23047 32.55077 14.1836 56.6953 28.33203 84.99608 14.15234 28.30468 14.18359 7.10546 28.33593 28.33593 14.14843 21.22655 42.48046 28.35936 28.33202 56.66404-14.15234 28.30078-35.46874 35.4375-84.99998 56.66405-49.52733 21.22656-77.9492 35.41015-113.3281 28.33203-35.3789-7.07422-14.17968-7.13281-28.33202-56.66405s-28.33202-141.66403-28.33202-141.66403"/></g><path fill="#007F7F" fill-opacity=".2" stroke="#000" stroke-miterlimit="10" stroke-width=".79661" d="M112.55082 296.76561s-26.84765-19.1328-36.93358-35.28124c-10.08203-16.14843-9.39062-16.05859-3.44922-29.3789 5.9414-13.32421 9.3711-16.33984 27.24218-23.96874 17.8711-7.625 29.14843-2.0586 44.3125-6.57031 15.16405-4.51172 4.73046-6.36719 16.41014-11.49219 11.6836-5.125 17.65625-18.45703 30.36328-9.03125s14.37109 20.54297 20.52343 46.77343c6.15234 26.23437 10.66797 41.45702 4.10937 58.26561-6.55468 16.80468-4.74218 6.36328-30.35936 9.03125s-72.21874 1.65234-72.21874 1.65234"/><use xlink:href="#b" x="122.75301" y="253.63691"/><use xlink:href="#c" x="122.30523" y="241.91083"/><use xlink:href="#d" x="169.80924" y="264.24755"/><path fill="#007F7F" fill-opacity=".2" stroke="#000" stroke-miterlimit="10" stroke-width=".79661" d="M549.71869 228.41016s14.17968-17.71875 28.33202-28.33202 14.17969-14.16797 28.33203-14.16797 17.71874 3.55469 28.33202 14.16797 7.08984 14.17968 14.16797 28.33202c7.07422 14.15234 14.16406 10.64453 14.16406 28.33202 0 17.6914-.01172 28.34765-14.16406 42.5-14.15234 14.15233-21.27343 14.16405-42.5 14.16405-21.22655 0-21.26952-7.08984-42.49608-14.16406-21.23046-7.07812-31.8867 3.52344-42.49999-14.16796-10.61327-17.6875-7.07812-42.51171 0-56.66405 7.07422-14.15234 28.33203 0 28.33203 0"/><use xlink:href="#b" x="593.91007" y="261.21409"/><use xlink:href="#e" x="579.55132" y="245.18618"/><use xlink:href="#f" x="591.24155" y="245.18618"/><use xlink:href="#c" x="598.889" y="245.18618"/><use xlink:href="#g" x="611.39576" y="245.18618"/><use xlink:href="#h" x="539.76841" y="270.2985"/><path fill="none" stroke="#000" stroke-miterlimit="10" stroke-width=".3983" d="M124.7305 129.24612C249.7344 4.24224 453.04685 4.24224 577.76947 128.96487"/><path fill="none" stroke="#000" stroke-linecap="round" stroke-linejoin="round" stroke-miterlimit="10" stroke-width=".3983" d="M578.13672 125.95313c-.7461 1.28124-.6289 2.35546-.22656 3.15234-.79688-.40235-1.8711-.51953-3.15235.22656"/><path fill="none" stroke="#000" stroke-miterlimit="10" stroke-width=".3983" d="M125.01176 271.1914c124.72263 124.72263 328.03508 124.72263 453.03895-.28125"/><path fill="none" stroke="#000" stroke-linecap="round" stroke-linejoin="round" stroke-miterlimit="10" stroke-width=".3983" d="M124.64844 274.20312c.7461-1.28125.6289-2.35546.22265-3.15234.79688.40234 1.875.51953 3.15625-.22656"/><use xlink:href="#e" x="345.86433" y="20.5996"/><use xlink:href="#e" x="336.70196" y="388.15198"/><use xlink:href="#i" x="348.39206" y="380.186"/><use xlink:href="#j" x="357.81594" y="380.186"/><use xlink:href="#k" x="343.77239" y="394.57673"/><use xlink:href="#l" x="347.99641" y="394.57673"/><use xlink:href="#m" x="145.55749" y="362.23807"/></svg>