<svg xmlns="http://www.w3.org/2000/svg" xmlns:xlink="http://www.w3.org/1999/xlink" width="680.77pt" height="181.996pt" viewBox="0 0 680.77 181.996"><defs><path id="a" d="M.59375-.73437c0 .53125.4375.95312 1.20313.95312 1.26562 0 1.98437-1.28125 2.76562-2.53125l.75-1.23437h.04688l.34375 1.46875c.35937 1.5.6875 2.29687 1.64062 2.29687C8.71875.21875 9.4375-1.1875 10-2.32812l-.48437-.26563C9.0625-1.75 8.54688-.75 8.03125-.75c-.35937 0-.5-.42187-.92187-2.09375l-.59375-2.45312C7.1875-6.5 8.14063-7.98437 8.6875-7.98437c.5625 0 .57813.29687 1.14063.29687.40625 0 .79687-.40625.79687-.90625 0-.5625-.4375-.8125-.96875-.8125-.98437 0-1.82812.90625-2.48437 1.95313l-.8125 1.28125H6.3125l-.75-3.15625-.10937-.07813-3.07813.9375.03125.45313 1.48438-.09375c.29687 0 .4375.14062.60937.9375l.65625 2.70312-.51562.90625c-.79688 1.375-1.5 2.34375-1.95313 2.34375-.53125 0-.67187-.45312-1.26562-.45312-.48438 0-.82813.48437-.82813.9375m0 0"/><path id="b" d="M.59375 1.79688c0 1.67187 1.75 2.71875 4.125 2.71875 2.53125 0 4.5625-1.0625 4.5625-3.125 0-1.39063-1.04687-2.40625-3.26562-2.92188C4.4375-1.90625 3.75-2.17187 3.75-2.6875c0-.35937.35938-.625.8125-.73437.375.0625.73438.0625 1.01563.0625 2.60937 0 4.04687-1.42188 4.04687-3.35938 0-.5-.14062-.96875-.375-1.29687L10.79688-8.25l.64062-1.17187-.125-.15625-2.70312.73437c-.48438-.3125-1.42188-.5625-2.32813-.5625-3.07812 0-3.98437 2.10938-3.98437 3.45313 0 1.39062 1.03125 2.125 1.59375 2.32812-.57813.23438-1.73438.65625-1.73438 1.40625 0 .6875.8125 1.21875 1.32813 1.42188C2.21875-.57814.59375.23438.59375 1.79688m1.73438-.15626c0-1.35937 1.20312-2 1.96875-2.125C5.48438-.3125 7.6875.17188 7.6875 1.75c0 1.42188-1.15625 2.14063-2.54687 2.14063-1.64063 0-2.8125-.90625-2.8125-2.25m1.71875-7.28124c0-1.17188.59375-3.10938 2.375-3.10938.54687 0 1.48437.28125 1.48437 1.57813 0 1.73437-.90625 3.14062-2.3125 3.14062-.98437 0-1.54687-.67187-1.54687-1.60937m0 0"/><path id="d" d="M1.60938-5.28125c0 4.21875.95312 8.85938 4.92187 9.03125v-.5625c-1.32812-.26562-3.42187-1.90625-3.42187-8.46875 0-6.51562 1.98437-8.17187 3.42187-8.46875v-.54687C2.5625-14.14062 1.60938-9.5 1.60938-5.28125m0 0"/><path id="e" d="M1.10938 3.1875V3.75c3.96875-.17187 4.92187-4.8125 4.92187-9.03125s-.95312-8.85937-4.92187-9.01562v.54687c1.4375.29688 3.4375 1.95313 3.4375 8.46875 0 6.5625-2.09375 8.20313-3.4375 8.46875m0 0"/><path id="k" d="M1.59375-4.73437h10.29688v-1.10938H1.59375Zm0 0"/><path id="l" d="M.29688-3.96875c0 2.23438 2.21875 4.17188 4.28125 4.17188 2.64062 0 4.3125-2.64063 4.625-3.15625.35937.6875 2.17187 3.17187 5.07812 3.17187C17.75.21875 18.75-2.40625 18.75-4.625c0-2.23437-2.09375-4-4.17187-4-2.48438 0-3.84375 1.79688-4.64063 2.89063-.73437-1.20313-2.375-2.85938-4.95312-2.85938-3.40625 0-4.6875 2.42188-4.6875 4.625m1.17187.0625c0-1.875 1.3125-3.34375 2.89063-3.34375 1.875 0 3.45312 1.96875 4.32812 3.35938C7.96875-2.60937 6.64063-.65625 4.51563-.65625c-1.34375 0-3.04688-1.5625-3.04688-3.25m9.01563-1C11.20313-6.17187 12.54688-7.75 14.65625-7.75c1.35938 0 3 1.35938 3 3.04688 0 1.89062-1.01562 3.625-2.82812 3.625-1.9375 0-3.46875-2.15625-4.34375-3.82813m0 0"/><path id="m" d="M.78125-6.25C.78125-2.51562 1.875.21875 4.95313.21875c3.09375 0 4.20312-2.73437 4.20312-6.46875 0-3.75-1.10937-6.48437-4.20312-6.48437C1.875-12.73437.78125-10 .78125-6.25m1.89063 0c0-3.04687.51562-5.82812 2.28125-5.82812C6.73438-12.07812 7.25-9.29687 7.25-6.25S6.73438-.4375 4.95313-.4375c-1.76563 0-2.28125-2.76562-2.28125-5.8125m0 0"/><path id="n" d="M2.03125 0H8.1875v-.53125L6.60938-.67187C6.21875-.71875 6-.85937 6-1.59375V-12.625l-.10937-.10937-3.85938.65625v.46875l1.75.21875c.32813.03125.4375.17187.4375.71875v9.07812c0 .73438-.17187.875-.60937.92188l-1.57813.14062Zm0 0"/><path id="o" d="M.5-.17187.70313 0h7.75l.625-2.46875-.51563-.09375c-.39062 1.01563-.76562 1.14063-1.53125 1.14063H2.25c.29688-.96875 1.42188-2.29688 3.15625-3.5625 1.78125-1.3125 3.1875-2.14063 3.1875-4.23438 0-2.60937-1.73437-3.51562-3.71875-3.51562-2.5625 0-3.875 1.5625-3.875 2.53125 0 .64062.71875.9375 1.03125.9375.34375 0 .45313-.20313.53125-.51563.3125-1.28125 1.04688-2.29687 2.20313-2.29687 1.4375 0 1.84375 1.20312 1.84375 2.57812 0 2.01563-1.01563 3.14063-2.64063 4.57813C1.65625-2.90625.85938-1.64062.5-.17187m0 0"/><path id="p" d="M1.59375-4.73437h4.60938v4.59375h1.09375v-4.59375h4.59375v-1.10938H7.29688v-4.59375H6.20313v4.59375H1.59375Zm0 0"/><path id="c" d="M.57813-.1875C.57813-.125.73437 0 .92188 0c.10937 0 .3125-.03125.34375-.10937l2.34375-6c.07812-.1875.09375-.29688.09375-.35938 0-.28125-.42188-.39062-.82813-.39062-.39062 0-1.01562.15625-1.0625.40625Zm0 0"/><path id="q" d="M.79688-2.375H5.9375v-.54687H.79688Zm0 0"/><path id="r" d="M.15625-1.98437C.15625-.85937 1.25.09375 2.29688.09375c1.3125 0 2.14062-1.3125 2.29687-1.5625.1875.32813 1.09375 1.57813 2.54688 1.57813 1.73437 0 2.21875-1.3125 2.21875-2.42188s-1.03125-2-2.07813-2c-1.23437 0-1.92187.90625-2.3125 1.45313-.375-.60938-1.1875-1.4375-2.48437-1.4375-1.70313 0-2.32813 1.21875-2.32813 2.3125m.57813.03124c0-.9375.65625-1.67187 1.45312-1.67187.92188 0 1.71875.98438 2.15625 1.6875-.35937.64063-1.03125 1.60938-2.07812 1.60938-.6875 0-1.53125-.78125-1.53125-1.625m4.5-.5c.35937-.625 1.03125-1.42187 2.09375-1.42187.67187 0 1.48437.6875 1.48437 1.53125 0 .9375-.5 1.8125-1.40625 1.8125-.96875 0-1.73437-1.07812-2.17187-1.92187m0 0"/><path id="s" d="M1.01563 0h3.07812v-.26562l-.79687-.07813C3.10938-.35937 3-.42187 3-.79687V-6.3125l-.04687-.04687-1.9375.32812v.23438l.875.10937c.15624.01563.21874.07813.21874.35938v4.53125c0 .375-.09375.4375-.3125.45312l-.78124.07813Zm0 0"/><path id="v" d="M.79688-2.375h2.29687v2.3125h.54688V-2.375H5.9375v-.54687H3.64063v-2.29688h-.54688v2.29688H.79688Zm0 0"/><path id="w" d="M.375-.95312c0 .42187.65625 1.0625 1.875 1.0625 1.54688 0 2.23438-.9375 2.23438-2.125 0-1.3125-.8125-1.96875-1.92188-1.96875-.51562 0-1.09375.21875-1.39062.48437l.21874-1.76562c.01563-.23438.07813-.26563.26563-.26563h2.32813l.21875-.64062L4.15625-6.25h-3.125l-.07812.09375L.75-3.03125l.23438.10938c.39062-.4375.76562-.65625 1.28125-.65625.59375 0 1.25.4375 1.25 1.67187 0 .95313-.39063 1.6875-1.20313 1.6875-.65625 0-.98437-.46875-1.17187-1C1.07813-1.35937 1-1.45312.85937-1.45312c-.1875 0-.48437.1875-.48437.5m0 0"/><clipPath id="f"><path d="M0 45h680.53906v1H0Zm0 0"/></clipPath><clipPath id="g"><path d="M0 90h680.53906v2H0Zm0 0"/></clipPath><clipPath id="h"><path d="M0 181h680.53906v.96484H0Zm0 0"/></clipPath><clipPath id="i"><path d="M0 .02734h680.53906v181.9375H0Zm0 0"/></clipPath><clipPath id="j"><path d="M90 .02734h2v181.9375h-2Zm0 0"/></clipPath><clipPath id="t"><path d="M384 90h3v91.96484h-3Zm0 0"/></clipPath><clipPath id="u"><path d="M385 90h1v91.96484h-1Zm0 0"/></clipPath></defs><use xlink:href="#a" x="39.83154" y="27.48846"/><use xlink:href="#b" x="23.1012" y="73.38895"/><use xlink:href="#c" x="35.76891" y="65.42164"/><use xlink:href="#d" x="40.82721" y="73.38895"/><use xlink:href="#a" x="48.47593" y="73.38895"/><use xlink:href="#e" x="60.32747" y="73.38895"/><use xlink:href="#b" x="25.63034" y="141.13506"/><use xlink:href="#d" x="38.29854" y="141.13506"/><use xlink:href="#a" x="45.94726" y="141.13506"/><use xlink:href="#e" x="57.7988" y="141.13506"/><g clip-path="url(#f)"><path fill="none" stroke="#000" stroke-miterlimit="10" stroke-width=".39836" d="M.19922 45.5664H680.2967"/></g><g clip-path="url(#g)"><path fill="none" stroke="#000" stroke-miterlimit="10" stroke-width=".39836" d="M.19922 90.90623H680.2967"/></g><g clip-path="url(#h)"><path fill="none" stroke="#000" stroke-miterlimit="10" stroke-width=".39836" d="M.19922 181.58589H680.2967"/></g><g clip-path="url(#i)"><path fill="none" stroke="#000" stroke-miterlimit="10" stroke-width=".39836" d="M.19922.22656V181.5859H680.2967V.22656Zm0 0"/></g><g clip-path="url(#j)"><path fill="none" stroke="#000" stroke-miterlimit="10" stroke-width=".39836" d="M90.87888.22656V181.5859"/></g><use xlink:href="#k" x="97.26414" y="27.09959"/><use xlink:href="#l" x="110.72908" y="27.09959"/><use xlink:href="#m" x="244.60536" y="29.15189"/><use xlink:href="#n" x="380.62241" y="29.26086"/><use xlink:href="#o" x="516.64045" y="29.26086"/><use xlink:href="#p" x="641.33432" y="28.00628"/><use xlink:href="#l" x="654.79926" y="28.00628"/><use xlink:href="#p" x="174.82494" y="73.45593"/><path fill="none" stroke="#000" stroke-dasharray=".39836451 1.991872533" stroke-miterlimit="10" stroke-width=".39836" d="M249.57025 45.5664v45.33983"/><use xlink:href="#m" x="244.60636" y="74.49158"/><use xlink:href="#k" x="310.84398" y="71.1547"/><path fill="none" stroke="#000" stroke-miterlimit="10" stroke-width="1.39431" d="M385.58974 45.8867v44.70312"/><path fill="none" stroke="#FFF" stroke-miterlimit="10" stroke-width=".59756" d="M385.58974 45.8867v44.70312"/><use xlink:href="#k" x="446.86303" y="71.1547"/><path fill="none" stroke="#000" stroke-dasharray=".39836451 1.991872533" stroke-miterlimit="10" stroke-width=".39836" d="M521.60924 45.5664v45.33983"/><use xlink:href="#m" x="516.64345" y="74.49158"/><use xlink:href="#p" x="582.88207" y="73.45593"/><path fill="#FFF" d="M103.41406 177.60547h20.26953v-8.40625h-20.26953Zm0 0"/><use xlink:href="#q" x="105.40539" y="175.49945"/><use xlink:href="#r" x="112.13786" y="175.49945"/><path fill="#FFF" d="M103.41406 177.60547h20.26953v-8.40625h-20.26953Zm0 0"/><use xlink:href="#q" x="105.40539" y="175.49945"/><use xlink:href="#r" x="112.13786" y="175.49945"/><path fill="#FFF" d="M245.09766 105.23828h8.9414V94.89062h-8.9414Zm0 0"/><use xlink:href="#s" x="247.08552" y="103.24586"/><path fill="#FFF" d="M245.09766 105.23828h8.9414V94.89062h-8.9414Zm0 0"/><use xlink:href="#s" x="247.08552" y="103.24586"/><path fill="none" stroke="#000" stroke-miterlimit="10" stroke-width=".39836" d="m126.78512 166.26168 112.46482-60.6367"/><path d="M241.35156 104.48828c-.96875.29688-2.73828.79688-4.21484.57813 1.39844.49218 1.77344 1.1914 1.41797 2.6289.6289-1.35547 2.01562-2.5586 2.79687-3.20703m0 0"/><g clip-path="url(#t)"><path fill="none" stroke="#000" stroke-miterlimit="10" stroke-width="1.39431" d="M385.58974 91.22654v90.04294"/></g><g clip-path="url(#u)"><path fill="none" stroke="#FFF" stroke-miterlimit="10" stroke-width=".59756" d="M385.58974 91.22654v90.04294"/></g><path fill="#FFF" d="M361.92188 178.1875h20.26562v-8.40625h-20.26562Zm0 0"/><use xlink:href="#q" x="363.90805" y="176.08325"/><use xlink:href="#r" x="370.64052" y="176.08325"/><path fill="#FFF" d="M388.98828 103.6211h20.26953v-9.3125h-20.26953Zm0 0"/><use xlink:href="#v" x="390.97591" y="101.51645"/><use xlink:href="#r" x="397.70838" y="101.51645"/><path fill="none" stroke="#000" stroke-miterlimit="10" stroke-width=".39836" d="M257.73821 104.99216 358.0507 165.5273"/><path d="M360.09766 166.76172c-.75-.6875-2.07813-1.95313-2.64063-3.33984.28906 1.45312-.125 2.13671-1.54297 2.55859 1.48828-.14844 3.22656.4375 4.1836.78125m0 0"/><path fill="#FFF" d="M517.13672 177.60547h8.9414V167.2539h-8.9414Zm0 0"/><use xlink:href="#w" x="519.12161" y="175.49945"/><path fill="#FFF" d="M517.13672 177.60547h8.9414V167.2539h-8.9414Zm0 0"/><use xlink:href="#w" x="519.12161" y="175.49945"/><path fill="none" stroke="#000" stroke-miterlimit="10" stroke-width=".39836" d="m411.90614 106.6367 99.48045 59.66794"/><path d="M513.4375 167.53516c-.75-.6836-2.08203-1.94532-2.64844-3.32813.29297 1.44922-.11719 2.13281-1.53515 2.5586 1.48437-.15235 3.22656.42968 4.18359.76953m0 0"/><path fill="#FFF" d="M647.49219 104.20313h20.26953v-9.3125h-20.26953Zm0 0"/><use xlink:href="#v" x="649.47757" y="102.10025"/><use xlink:href="#r" x="656.21004" y="102.10025"/><path fill="#FFF" d="M647.49219 104.20313h20.26953v-9.3125h-20.26953Zm0 0"/><use xlink:href="#v" x="649.47757" y="102.10025"/><use xlink:href="#r" x="656.21004" y="102.10025"/><path fill="none" stroke="#000" stroke-miterlimit="10" stroke-width=".39836" d="m529.82799 168.0312 111.81247-59.92967"/><path d="M643.75 106.97266c-.97266.29687-2.74219.79296-4.21875.5664 1.39453.4961 1.77344 1.19922 1.41406 2.63281.6289-1.35546 2.01953-2.55078 2.80469-3.19921m0 0"/></svg>