<svg xmlns="http://www.w3.org/2000/svg" xmlns:xlink="http://www.w3.org/1999/xlink" width="267.966pt" height="228.366pt" viewBox="0 0 267.966 228.366"><defs><path id="d" d="M-.53125 0h4.10938v-.53125l-.96875-.10937c-.5625-.0625-.64063-.25-.48438-.75.3125-1.10938.70313-2.26563 1.14063-3.59375h4.1875l1.25 3.57812c.1875.53125.09375.73438-.5.79688l-.84375.07812V0h4.78125v-.53125c-1.09375-.10937-1.28125-.17187-1.625-1.14062l-3.95313-11.25H5.17188L3.21875-7.39062c-.57812 1.625-1.375 3.85937-2.03125 5.5625C.79688-.8125.64063-.59375-.53125-.53125Zm4.04688-5.70312c.59375-1.875 1.25-3.70313 1.8125-5.34375h.0625l1.84375 5.34375Zm0 0"/><path id="j" d="M.42188-9.8125h.54687c.21875-2.03125.625-2.46875 2.8125-2.46875H4.875v10.54688c0 1.0625-.04687 1.07812-2.04687 1.20312V0h5.95312v-.53125c-2-.125-2.0625-.14062-2.0625-1.20312v-10.54688h1.10938c2.1875 0 2.59375.4375 2.8125 2.46875h.54687v-3.10937H.42188Zm0 0"/><path id="k" d="M.89063-6.45312c0 2.07812.57812 3.8125 1.59375 4.92187C3.53125-.35937 5.0625.28125 7.10938.28125S10.6875-.35937 11.75-1.53125c1.01563-1.10937 1.59375-2.84375 1.59375-4.92187 0-2.09375-.57812-3.82813-1.59375-4.9375-1.0625-1.17188-2.59375-1.82813-4.64062-1.82813s-3.57813.65625-4.625 1.82813C1.46875-10.28125.89063-8.54687.89063-6.45312m2.09375 0c0-2.75.8125-6.10938 4.125-6.10938 3.32812 0 4.14062 3.35938 4.14062 6.10938 0 2.73437-.8125 6.07812-4.14062 6.07812-3.3125 0-4.125-3.34375-4.125-6.07812m0 0"/><path id="e" d="M1.3125-2c0 1.10938.51563 2.21875 1.78125 2.21875 2.01563 0 3.75-2.3125 4.84375-4.21875h.03125l-.64062 2.125c-.10938.42188-.1875.78125-.1875 1.07813 0 .65625.3125 1.01562 1.01562 1.01562 1.40625 0 2.45313-1.26562 3.09375-2.6875l-.4375-.25C10.46875-2.0625 9.64063-.75 9.125-.75c-.21875 0-.29687-.14062-.29687-.35937 0-.1875.0625-.40625.10937-.65625l1.96875-7.45313h-1.5625l-.07812.23438c-.32813-.21875-.875-.39063-1.375-.39063C3.4375-9.375 1.3125-4.46875 1.3125-2m1.84375-.04687c0-2.04688 1.82813-6.67188 4.78125-6.67188.45313 0 .84375.15625 1.125.40625-.34375 1.39063-1 3.25-1.98437 4.73438C6.01563-1.98437 4.875-.75 3.96875-.75c-.60937 0-.8125-.5625-.8125-1.29687m0 0"/><path id="f" d="M-.39062 3.4375C-.375 4.04688.4375 4.51563 1.3125 4.51563 3.1875 4.51563 3.96875 3 4.75-.57812l1.73438-7.875h2.35937l.17188-.70313H6.59375l.51563-2.10937c.35937-1.42188.71875-1.95313 1.23437-1.95313.5 0 .84375.42188 1.25 1.3125.10938.1875.25.3125.51563.3125.39062 0 .92187-.32812.92187-.8125 0-.79687-1.01562-1.45312-2.125-1.45312-2.20312 0-3.125 1.5625-3.84375 4.01562l-.1875.6875H3.26563l-.21875.70313h1.65625L2.54688 2.5625c-.21875 1.15625-.42188 1.26563-.59375 1.26563-.20313 0-.5-.125-1-.90625C.8125 2.75.70313 2.5.45313 2.5c-.40625 0-.84375.46875-.84375.9375m0 0"/><path id="g" d="M1.60938-5.26562c0 4.21875.95312 8.84375 4.90625 9V3.1875C5.1875 2.92188 3.09375 1.26563 3.09375-5.26562c0-6.5 2-8.15625 3.42188-8.45313v-.54687c-3.95313.15625-4.90625 4.78125-4.90625 9m0 0"/><path id="h" d="M1.10938 3.1875v.54688c3.95312-.15625 4.90625-4.78125 4.90625-9s-.95313-8.84375-4.90625-9v.54687c1.4375.29688 3.42187 1.95313 3.42187 8.45313 0 6.53125-2.09375 8.1875-3.42187 8.45312m0 0"/><path id="i" d="M.60938-9.32812c0 1.64062 1.64062 2.92187 5.375 2.92187-.625 1.09375-1.07813 2.23438-1.07813 3.46875 0 2.04688 1.29688 3.15625 3.64063 3.15625 2.28125 0 4.67187-1.65625 4.67187-3.78125 0-1.26562-1.0625-1.96875-2.39062-1.96875C9.35938-5.53125 7.625-3.875 7.625-2.5625c0 .39063.3125 1.15625.85938 1.15625.15625 0 .375-.125.375-.29687 0-.25-.4375-.26563-.4375-.84375 0-.90625 1.34375-2.375 2.40625-2.375.76562 0 1.21875.29687 1.21875 1.03125 0 1.64062-1.59375 3.51562-3.5 3.51562C7.1875-.375 6.5-1.10937 6.5-2.34375c0-1.39062.96875-3.01562 1.70313-4.21875 4.15625-.625 8.23437-2.67187 8.23437-5.28125 0-1-.79687-1.65625-1.875-1.65625-2.45312 0-6.17187 3.17188-8.21875 6.4375-1.6875-.01562-4.4375-.04687-4.4375-2.04687 0-1.82813 2.23438-3.23438 3.625-3.23438.25 0 .39063-.15625.39063-.3125s-.14063-.28125-.29688-.28125c-2.09375 0-5.01562 1.40625-5.01562 3.60938m7.98437 2.03125c1.35938-2.40625 4.26563-5.60938 5.96875-5.60938.65625 0 1.125.39063 1.125 1 0 2.09375-3.28125 4-7.09375 4.60938m0 0"/><clipPath id="a"><path d="M.35547 170H255v1H.35547Zm0 0"/></clipPath><clipPath id="b"><path d="M6 6h261.57813v221.73438H6Zm0 0"/></clipPath><clipPath id="c"><path d="M6 0h261.57813v158H6Zm0 0"/></clipPath></defs><g clip-path="url(#a)"><path fill="none" stroke="#000" stroke-miterlimit="10" stroke-width=".7948" d="M.75003 170.40234H254.371"/></g><path fill="none" stroke="#000" stroke-linecap="round" stroke-linejoin="round" stroke-miterlimit="10" stroke-width=".7948" d="M252.22266 167.30078c.46484 1.85938 1.5 2.73828 2.54687 3.10156-1.04687.36328-2.08203 1.2422-2.54687 3.10157"/><path fill="none" stroke="#000" stroke-miterlimit="10" stroke-width=".7948" d="M57.28516 198.67186V1.58601"/><path fill="none" stroke="#000" stroke-linecap="round" stroke-linejoin="round" stroke-miterlimit="10" stroke-width=".7948" d="M54.1836 3.73437c1.86328-.46484 2.74218-1.5 3.10156-2.54296.36328 1.04296 1.24218 2.07812 3.10546 2.54296"/><g clip-path="url(#b)"><path fill="none" stroke="#00F" stroke-miterlimit="10" stroke-width="1.58962" d="M29.01954 226.94138 255.16398 29.06256"/></g><g clip-path="url(#c)"><path fill="none" stroke="red" stroke-miterlimit="10" stroke-width="1.58962" d="M29.01954 108.21097C91.8164 183.05077 204.8476 84.53129 255.16398.79304"/></g><path fill="none" stroke="#000" stroke-dasharray="2.9805509409 2.9805509409" stroke-miterlimit="10" stroke-width=".7948" d="M184.49604 170.40234v-79.1523"/><use xlink:href="#d" x="198.35928" y="111.84449"/><use xlink:href="#e" x="178.67093" y="186.28981"/><use xlink:href="#f" x="12.14525" y="96.13112"/><use xlink:href="#g" x="23.80901" y="96.13112"/><use xlink:href="#e" x="31.43913" y="96.13112"/><use xlink:href="#h" x="43.91757" y="96.13112"/><path fill="none" stroke="#000" stroke-dasharray="2.9805509409 2.9805509409" stroke-miterlimit="10" stroke-width=".7948" d="M57.28516 91.25003h118.73041"/><use xlink:href="#i" x="204.14721" y="35.69989" fill="red"/><use xlink:href="#j" x="249.37066" y="49.65514" fill="#00F"/><use xlink:href="#k" x="41.69322" y="185.35142"/></svg>