<svg xmlns="http://www.w3.org/2000/svg" xmlns:xlink="http://www.w3.org/1999/xlink" width="283.464pt" height="198.425pt" viewBox="0 0 283.464 198.425"><defs><path id="c" d="M2.03125 0h6.14063v-.53125L6.59375-.67187c-.39062-.04688-.60937-.1875-.60937-.92188v-11l-.09375-.10937-3.85938.65625v.45312l1.75.21875c.3125.04688.4375.1875.4375.71875v9.0625c0 .35938-.04687.57813-.17187.71875-.09375.14063-.25.17188-.45313.20313l-1.5625.14062Zm0 0"/><path id="d" d="M.5-.17187.70313 0h7.71875l.64062-2.46875-.51562-.09375c-.39063 1.01563-.78125 1.15625-1.53125 1.15625H2.25c.29688-.98437 1.40625-2.3125 3.14063-3.5625C7.17188-6.28125 8.5625-7.10937 8.5625-9.20312c0-2.60938-1.71875-3.5-3.6875-3.5-2.5625 0-3.875 1.54687-3.875 2.53125 0 .625.70313.9375 1.03125.9375.32813 0 .45313-.20313.53125-.53125.29688-1.26563 1.03125-2.28125 2.1875-2.28125 1.4375 0 1.84375 1.1875 1.84375 2.5625 0 2.01562-1.01562 3.14062-2.64062 4.57812C1.65625-2.90625.85938-1.625.5-.17187m0 0"/><path id="f" d="M.60938-9.32812c0 1.64062 1.64062 2.92187 5.375 2.92187-.625 1.09375-1.07813 2.23438-1.07813 3.46875 0 2.04688 1.29688 3.15625 3.64063 3.15625 2.28125 0 4.67187-1.65625 4.67187-3.78125 0-1.26562-1.0625-1.96875-2.39062-1.96875C9.35938-5.53125 7.625-3.875 7.625-2.5625c0 .39063.3125 1.15625.85938 1.15625.15625 0 .375-.125.375-.29687 0-.25-.4375-.26563-.4375-.84375 0-.90625 1.34375-2.375 2.40625-2.375.76562 0 1.21875.29687 1.21875 1.03125 0 1.64062-1.59375 3.51562-3.5 3.51562C7.1875-.375 6.5-1.10937 6.5-2.34375c0-1.39062.96875-3.01562 1.70313-4.21875 4.15625-.625 8.23437-2.67187 8.23437-5.28125 0-1-.79687-1.65625-1.875-1.65625-2.45312 0-6.17187 3.17188-8.21875 6.4375-1.6875-.01562-4.4375-.04687-4.4375-2.04687 0-1.82813 2.23438-3.23438 3.625-3.23438.25 0 .39063-.15625.39063-.3125s-.14063-.28125-.29688-.28125c-2.09375 0-5.01562 1.40625-5.01562 3.60938m7.98437 2.03125c1.35938-2.40625 4.26563-5.60938 5.96875-5.60938.65625 0 1.125.39063 1.125 1 0 2.09375-3.28125 4-7.09375 4.60938m0 0"/><path id="h" d="M1.39063-9.8125h.5625c.59375-1.90625 1.26562-2.46875 3.09375-2.46875h1.29687L3.92188-1.51562c-.14063.57812-.34375.85937-.90625.90625l-1.23438.07812L1.67188 0h5.73437l.14063-.53125L6.1875-.60937c-.39062-.03126-.54687-.1875-.54687-.5 0-.125.03125-.23438.0625-.40625L8.125-12.28125h1.17188c1.8125 0 2.1875.46875 2.1875 1.48438 0 .28125-.01563.59375-.0625.98437H12l.70313-3.10937H2.09375Zm0 0"/><path id="g" d="M.92188-4.51562c0 2.96875 1.26562 4.73437 4.3125 4.73437 2.0625 0 3.14062-1.15625 3.625-2.625l-.54688-.29687C7.79688-1.60937 7.07813-.73437 5.60938-.73437c-2.32813 0-2.78125-2.23438-2.75-4.17188H8.25c.39063 0 .73438-.10937.73438-.71875 0-1.09375-.35938-3.75-3.78125-3.75-2.92188 0-4.28125 2.0625-4.28125 4.85938M2.875-5.625c0-.78125.28125-3.09375 2.23438-3.09375 1.73437 0 1.92187 1.76563 1.92187 2.5 0 .35938-.10937.59375-.625.59375Zm0 0"/><path id="i" d="M.375-.15625.53125 0H6.0625l.46875-1.85937-.39062-.07813c-.29688.70313-.53125.79688-1.0625.79688H1.73438c.21874-.625.90625-1.5 2.17187-2.34375C5.23438-4.375 6.17188-5 6.17188-6.42187c0-1.82813-1.23438-2.46875-2.6875-2.46875C1.70313-8.89062.6875-7.85937.6875-7.0625c0 .46875.54688.6875.82813.6875.25 0 .375-.14062.4375-.39062.20312-.90625.6875-1.64063 1.45312-1.64063.92188 0 1.20313.79688 1.20313 1.75 0 1.26563-.5625 2.09375-1.78125 3.15625C1.15625-2.07812.5625-1.125.375-.15625m0 0"/><path id="j" d="M1.42188 0h4.375v-.40625L4.75-.5c-.28125-.03125-.42187-.125-.42187-.60937V-8.8125l-.09375-.07812-2.79688.48437v.34375l1.125.15625c.25.03125.32813.125.32813.53125v6.26563c0 .48437-.125.57812-.42188.60937l-1.04687.09375Zm0 0"/><clipPath id="a"><path d="M.14063 112h282.64843v2H.14063Zm0 0"/></clipPath><clipPath id="b"><path d="M56 0h2v197.85156h-2Zm0 0"/></clipPath><clipPath id="e"><path d="M45 46h221v151.85156H45Zm0 0"/></clipPath></defs><path fill="none" stroke="#000" stroke-miterlimit="10" stroke-width=".79471" d="M56.67187 113.0586h26.83595"/><path stroke="#000" stroke-linejoin="round" stroke-miterlimit="10" stroke-width=".79471" d="M84.53906 113.0586c-1.29297-.25782-2.58203-.77344-4.13281-1.6797 1.55078 1.16407 1.55078 2.19532 0 3.35938 1.55078-.90625 2.83984-1.42187 4.13281-1.67969Zm0 0"/><path fill="none" stroke="#000" stroke-miterlimit="10" stroke-width=".79471" d="M56.67187 113.0586V86.22263"/><path stroke="#000" stroke-linejoin="round" stroke-miterlimit="10" stroke-width=".79471" d="M56.67187 85.1914c-.2578 1.28907-.77343 2.58204-1.67968 4.13282 1.16406-1.55078 2.19531-1.55078 3.35937 0-.90625-1.55078-1.42187-2.84375-1.67969-4.13281Zm0 0"/><g clip-path="url(#a)"><path fill="none" stroke="#000" stroke-miterlimit="10" stroke-width=".79471" d="M.1406 113.0586h282.64856"/></g><g clip-path="url(#b)"><path fill="none" stroke="#000" stroke-miterlimit="10" stroke-width=".79471" d="M56.67187 197.8516V-.00005"/></g><path fill="none" stroke="#000" stroke-miterlimit="10" stroke-width=".79471" d="M84.93751 110.23047v5.65625"/><use xlink:href="#c" x="79.98892" y="135.9969"/><path fill="none" stroke="#000" stroke-miterlimit="10" stroke-width=".79471" d="M113.20315 110.23047v5.65625"/><use xlink:href="#d" x="108.25302" y="135.9969"/><path fill="none" stroke="#000" stroke-miterlimit="10" stroke-width=".79471" d="M84.93751 110.23047v5.65625M59.5 84.79296h-5.65625"/><use xlink:href="#c" x="36.53384" y="91.14089"/><g clip-path="url(#e)"><path fill="none" stroke="red" stroke-miterlimit="10" stroke-width=".79471" d="m56.95312 243.0235 1.9961-58.98831 1.9961-17.87892 1.99609-10.54297 1.9961-7.80078 1.99609-6.11329 1.99219-5.01953 1.9961-4.26563 1.99609-3.70703 1.99609-3.27344 1.9961-2.9336 1.99609-2.65625 1.9961-2.42969 1.99218-2.23437 1.9961-2.07422 1.9961-1.9336 1.99609-1.8086 1.9961-1.69921 1.99609-1.60156 1.9961-1.51563 1.99609-1.4414 1.99218-1.3672 1.9961-1.30859 1.9961-1.2461 1.99609-1.1953 1.9961-1.14844 1.99609-1.10157 1.9961-1.0586 1.99218-1.01952 1.9961-.99219 1.99609-.95313 1.9961-.92578 1.99609-.89062 1.9961-.86719 1.99609-.83985 1.9961-.8164 1.99218-.79297 1.9961-.76953 1.99609-.7539 1.9961-.73048 1.99609-.71484 1.9961-.6914 1.99609-.6797 1.99219-.66406 1.9961-.64844 1.99609-.63281 1.9961-.6211 1.99609-.60156 1.99609-.59375 1.9961-.58203 1.99609-.57031 1.99219-.5586 1.9961-.54296 1.99609-.53907 1.9961-.52734 1.99609-.51563 1.9961-.5078 1.99609-.50392 1.99218-.48828 1.9961-.48437 1.9961-.47266 1.99609-.46484 1.9961-.46094 1.99609-.44922 1.9961-.44531 1.99609-.4375 1.99219-.42969 1.99609-.42578 1.9961-.41797 1.99609-.41016 1.9961-.40625 1.99609-.39843 1.9961-.39454 1.99218-.39062 1.9961-.38281 1.9961-.37891 1.99609-.375 1.99609-.36719 1.9961-.36328 1.99609-.35937 1.9961-.35547 1.99218-.35157 3.9922-.6875 3.99218-.67187 3.99219-.65625 1.99219-.32422 3.99219-.63281 1.9961-.3125 1.99609-.3086 1.9961-.30078 1.99609-.30469 1.99218-.30078 3.9922-.58594 1.99609-.28906 1.9961-.28515"/></g><use xlink:href="#f" x="261.92969" y="78.96816" fill="red"/><path fill="none" stroke="#0F0" stroke-miterlimit="10" stroke-width=".79471" d="m28.40624 169.58987 5.9961-5.9961 1.99609-2 2-1.9961 1.9961-2 2-1.99609 1.99609-2 2-1.9961 1.9961-2 2-1.99609 1.9961-2 2-1.9961 1.99609-2 2-1.9961 9.99219-9.99218 1.9961-2 2-1.9961 1.99609-2 2-1.9961 1.9961-2 2-1.99609 1.99609-2 2-1.9961 1.9961-2 2-1.9961 1.9961-2 2-1.99609 9.99218-9.99219 1.9961-2 2-1.9961 1.9961-2 2-1.99609 1.99609-2 2-1.9961 1.9961-2 2-1.99609 1.9961-2 2-1.9961 1.99609-2 2-1.9961 13.98828-13.98828 1.9961-2 2-1.9961 1.9961-2 2-1.99609 1.9961-2 2-1.9961 1.99609-2 2-1.9961 1.9961-2 2-1.99609 1.99609-2 2-1.9961 9.99219-9.99218 1.9961-2 2-1.9961 1.9961-2 2-1.9961 1.99609-2 2-1.9961 1.9961-2 2-1.99609 1.99609-2 2-1.9961 1.9961-2 2-1.99609 9.99219-9.99219 1.99609-2 2-1.9961 1.9961-2 2-1.9961 1.9961-2 2-1.99609 1.99609-2 2-1.9961 1.9961-2"/><path fill="none" stroke="#0F0" stroke-miterlimit="10" stroke-width=".79471" d="m28.40624 124.36329 2-.79688 1.9961-.80078 2-.80078 1.99609-.79688 2-.80078 1.9961-.80078 2-.79688 1.99609-.80078 2-.79687 1.9961-.80079 2-.79687 1.9961-.80078 2-.80078 1.99609-.79688 2-.80078 2-.79688 1.9961-.80078 2-.80078 1.99609-.79687 2-.80079 1.9961-.79687 2-.80078 1.99609-.80078 2-.79688 1.9961-.80078 2-.80078 1.99609-.79688 2-.80078 1.9961-.79688 2-.80078 1.9961-.80078 2-.79687 2-.80079 1.99609-.79687 2-.80078 1.9961-.80078 2-.79688 1.99609-.80078 2-.79688 1.9961-.80078 2-.80078 1.99609-.79688 2-.80078 1.9961-.79687 2-.80078 1.9961-.80078 2-.79688 1.99609-.80078 2-.80078 2-.79688 1.9961-.80078 2-.79688 1.99609-.80078 2-.80078 1.9961-.79687 2-.80079 1.99609-.79687 2-.80078 1.9961-.80079 2-.79687 1.9961-.80078 2-.79688 1.99609-.80078 2-.80078 1.9961-.79688 2-.80078 1.99609-.79687 4-1.60157 1.9961-.79687 2-.80078 1.99609-.80078 2-.79688 1.9961-.80078 2-.79688 1.9961-.80078 2-.80078 1.99609-.79688 2-.80078 1.9961-.79687 2-.80078 1.99609-.80079 2-.79687 1.9961-.80078 2-.79688 2-.80078 1.99609-.80078 2-.79688 1.9961-.80078 2-.79687 1.99609-.80079 2-.80078 1.9961-.79687 2-.80078 1.9961-.80078 2-.79688 1.99609-.80078 2-.79688 1.9961-.80078"/><path fill="none" stroke="#000" stroke-dasharray="2.9801922813000004 2.9801922813000004" stroke-miterlimit="10" stroke-width=".79471" d="M132.98832 113.0586V84.79295m0 .00001H56.67187"/><use xlink:href="#g" x="128.18725" y="128.94334"/><use xlink:href="#h" x="245.54417" y="43.84195"/><use xlink:href="#i" x="255.25802" y="48.21129"/><use xlink:href="#h" x="174.88294" y="32.53572"/><use xlink:href="#j" x="184.59679" y="36.90705"/></svg>