<svg xmlns="http://www.w3.org/2000/svg" xmlns:xlink="http://www.w3.org/1999/xlink" width="323.62pt" height="342.334pt" viewBox="0 0 323.62 342.334"><defs><path id="c" d="M1.6875-5.26562c0 2.14062 1.57813 3.71875 3.75 3.71875 2.07813 0 3.65625-1.57813 3.65625-3.71875 0-2.09375-1.57812-3.67188-3.65625-3.67188-2.17187 0-3.75 1.57813-3.75 3.67188m0 0"/><path id="o" d="M0 0h5.10938l.125-.53125L4.125-.60937c-.32812-.03126-.46875-.20313-.46875-.5 0-.125.03125-.28126.0625-.4375L4.89063-6.75h.04687C5.78125-5 6.70313-3.125 7.84375-1.57812 8.73438-.35937 9.54688.04688 10.98438.07813l.90625.01562.14062-.54687c-1.07812-.10938-1.51562-.59375-2.1875-1.4375-1.25-1.57813-2.53125-3.84375-3.29687-5.48438 1.6875-1.42187 3.23437-2.70312 4.95312-3.90625 1.07813-.75 1.51563-1.01562 3.01563-1.10937l.07812-.53125H9.9375l-.07812.53125.71875.0625c.20312.01562.26562.09375.26562.21875 0 .09375-.10937.23437-.28125.39062l-5.53125 4.75h-.07812l1-4.40625c.14062-.57812.3125-.89062.79687-.9375l1.03125-.07812.10938-.53125H2.78125l-.14062.53125 1.125.07812c.3125.01563.45312.21875.45312.51563 0 .125-.01562.26562-.0625.42187l-2.25 9.82813c-.14062.59375-.3125.84375-.76562.89062l-1.04688.125Zm0 0"/><path id="p" d="M.20313 0H9.9375l.96875-3.28125h-.5625C9.39063-.96875 8.54688-.65625 6.25-.65625c-2.21875 0-2.32812-.28125-2.32812-.78125 0-.1875.0625-.46875.14062-.84375l.95313-4.10937h2.4375c1.39062 0 1.65625.28125 1.65625 1.09375 0 .17187 0 .32812-.01563.51562h.54688l.875-3.89062H9.9375C9.46875-7.375 9.26563-7.07812 7.625-7.07812H5.17188l1.04687-4.65625c.10938-.45313.21875-.5625.54688-.5625h2.25c1.82812 0 2.20312.48437 2.20312 1.5 0 .45312-.0625.96875-.0625.96875h.5625l.6875-3.09375h-9.4375l-.14062.53125 1.125.07812c.32812.01563.46875.15625.46875.45313 0 .125-.03125.26562-.0625.4375L2.125-1.54687c-.15625.625-.3125.84375-.76562.89062l-1.0625.125Zm0 0"/><path id="d" d="M.34375-.42187c0 .29687.25.53125.65625.53125.625 0 .96875-.5625 1.32813-1.1875l.35937-.60938h.01563L2.85938-1c.15625.6875.34375 1.10938.875 1.10938.76562 0 1.20312-.76563 1.48437-1.4375l-.26562-.125C4.73438-1 4.45313-.5 4.20313-.5c-.17188 0-.23438-.17187-.39063-.82812l-.35937-1.39063c.29687-.54687.6875-1.14062.95312-1.14062.28125 0 .35938.17187.64063.17187.23437 0 .45312-.23437.45312-.53125 0-.32812-.25-.46875-.51562-.46875-.46875 0-.875.34375-1.20313.85938l-.40625.65625h-.03125l-.32812-1.48438-.0625-.03125-1.71875.46875.01562.25L1.90625-4c.1875 0 .26563.0625.34375.375l.32813 1.42188-.25.46875C2-1.15625 1.70313-.71875 1.5-.71875c-.28125 0-.375-.26562-.6875-.26562-.25 0-.46875.28124-.46875.5625m0 0"/><path id="e" d="M.375-3.125C.375-1.32812.9375.10938 2.5625.10938S4.76563-1.32812 4.76563-3.125 4.1875-6.34375 2.5625-6.34375.375-4.92187.375-3.125m1.17188 0c0-1.3125.1875-2.85937 1.01562-2.85937.84375 0 1.01563 1.54687 1.01563 2.85937S3.40625-.26562 2.5625-.26562c-.82812 0-1.01562-1.54688-1.01562-2.85938m0 0"/><path id="f" d="M1.09375-.625c0 .4375.1875.73438.71875.73438.95313 0 1.85938-.98438 2.42188-2.0625h.03125l-.29688 1.0625c-.04687.15624-.07812.29687-.07812.42187 0 .375.21875.57813.57812.57813.78125 0 1.32813-.67188 1.6875-1.40625l-.23437-.15626c-.20313.375-.59375.95313-.82813.95313-.125 0-.17187-.07812-.17187-.20312 0-.07813.01562-.15626.04687-.26563L5.9375-4.6875l-1.04687.10938C4.625-3.625 4.46875-3.125 4.25-2.60937 3.85938-1.71875 3.07813-.5 2.4375-.5c-.1875 0-.26562-.10937-.26562-.3125 0-.10937.03125-.23437.07812-.375l.875-3.45312-.04687-.04688-1.90625.25-.0625.26563.5625.04687c.14062.01563.20312.07813.20312.1875 0 .07813-.03125.15625-.0625.25L1.1875-1.25c-.0625.21875-.09375.4375-.09375.625m0 0"/><path id="g" d="M.89063.10938 1.95313 0c.26562-.95312.4375-1.45312.65625-2.01562.32812-.75 1.20312-2.0625 1.8125-2.0625.20312 0 .29687.125.29687.32812 0 .07813-.01562.1875-.04687.28125l-.75 2.57813c-.04688.14062-.07813.28124-.07813.40625 0 .375.20313.59375.625.59375.79688 0 1.32813-.67188 1.6875-1.40625l-.25-.15626c-.20312.375-.57812.95313-.82812.95313-.10938 0-.15625-.0625-.15625-.1875 0-.07812.03125-.17187.0625-.28125l.71875-2.375c.0625-.20312.09375-.39062.09375-.57812 0-.4375-.21875-.76563-.78125-.76563-.92188 0-1.82813.98438-2.40625 2.07813h-.03125l.60937-2.03125-.04687-.04688-1.92188.25-.0625.28125.57813.04688c.125 0 .1875.07812.1875.17187 0 .07813-.03126.15625-.04688.25Zm0 0"/><path id="h" d="M1.01563 0H4.1875v-.3125L3.48438-.375c-.21875-.01562-.3125-.07812-.3125-.42187v-5.5l-.07813-.04688-2.0625.32813V-5.75l.75.10938c.20313.03125.26563.10937.26563.40625v4.4375c0 .34375-.09375.40625-.3125.42187l-.71875.0625Zm0 0"/><path id="i" d="M0 1.70313C0 2.03125.17188 2.25.75 2.25c.875 0 1.28125-.65625 2.07813-1.98437C3.01563-.0625 3.5625-1.04687 4.14063-2 4.67188-2.875 5.25-3.79687 5.25-4.17187c0-.28125-.10937-.51563-.1875-.51563-.1875 0-.54687.07813-.84375.23438 0 0-.01562.92187-.10937 1.29687-.14063.54688-.5625 1.4375-1.1875 2.54688h-.03125c-.03125-1.42188-.23438-3.4375-.35938-4.04688l-.0625-.03125L.70313-4.25v.26563L1.32813-4c.1875 0 .23437.17188.32812.60938C1.76563-2.65625 2-.84375 2-.03125c0 .3125-.01562.67188-.15625 1.0625-.14062.39063-.34375.625-.51562.625-.34375 0-.40625-.59375-.78125-.59375C.26562 1.0625 0 1.39063 0 1.70313m0 0"/><path id="j" d="M.28125-.125.39063 0H4.4375l.35938-1.40625-.3125-.04687c-.21875.48437-.39063.5625-.76563.5625h-2.375C1.48438-1.3125 1.92188-1.92187 2.875-2.5c.98438-.625 1.64063-1.07812 1.64063-2.09375 0-1.29687-.89063-1.75-1.96875-1.75-1.25 0-2.04688.6875-2.04688 1.32813 0 .35937.42188.53125.64063.53125.1875 0 .28124-.10938.32812-.3125.15625-.67188.48438-1.1875 1.01563-1.1875.60937 0 .8125.53125.8125 1.20312 0 .82813-.32813 1.46875-1.25 2.23438C.82813-1.5.39063-.8125.28124-.125m0 0"/><path id="k" d="M.73438-2.3125H6v-.65625H.73438Zm0 0"/><path id="l" d="M-.32812 0h3.79687l.10938-.48437-.9375-.09375c-.20313-.01563-.29688-.125-.29688-.28126 0-.09374.03125-.21874.09375-.34374.54688-1.0625 1.09375-2.15625 1.71875-3.28125h3.76563l.42187 3.46875s-.09375.40625-.45312.4375L7-.48438 6.90625 0h4.125l.10938-.48437L10.5-.53125c-.51562-.0625-.59375-.29687-.67187-.98437L8.59375-11.625H7.39063L4.5625-6.67187c-.85937 1.5-2.25 4-2.875 5.01562C1.14063-.78125.85938-.60937.34375-.54687l-.5625.0625Zm4.8125-5.14062 2.75-4.9375.60937 4.9375Zm0 0"/><path id="n" d="M0 0h5.09375c4.0625 0 4.89063-2.09375 4.89063-3.48437 0-1.78125-1.3125-2.54688-2.54688-2.78125l.01563-.03125c2.25-.26563 3.1875-1.54688 3.1875-2.8125 0-1.35938-.79688-2.51563-3.89063-2.51563H2.48438l-.10938.48438 1 .07812c.29688.03125.42188.15625.42188.42188 0 .10937-.04688.25-.07813.40625L1.73438-1.39062c-.125.54687-.28126.75-.70313.79687l-.9375.10938Zm3.35938-1.28125c0-.125.01562-.25.0625-.375l.96875-4.3125h.65625c1.65625 0 3.125.46875 3.125 2.39063 0 1.5-.90625 2.98437-3.15625 2.98437-1.32813 0-1.65625-.26562-1.65625-.6875M4.51563-6.5625l.875-3.90625c.125-.5.20312-.59375 1.34375-.59375 1.40625 0 2.1875.71875 2.1875 1.90625 0 1.75-1.46875 2.59375-3.32813 2.59375Zm0 0"/><path id="m" d="M.42188-.17187c0 .04687.10937.1875.28125.1875.09374 0 .32812-.03126.375-.10938l2-5.14062c.07812-.15625.07812-.25.07812-.29688 0-.25-.39062-.34375-.73437-.34375-.32813 0-1 .15625-1.04688.40625Zm0 0"/><clipPath id="a"><path d="M5 29h314v312.66797H5Zm0 0"/></clipPath><clipPath id="b"><path d="M.125 18h322.99219v323.66797H.125Zm0 0"/></clipPath></defs><g clip-path="url(#a)"><path fill-opacity=".05" d="M62.59766 58.35547s34.60156-24.9961 56.58203-28.29297c21.98437-3.29687 32.40625 5.82031 56.58594 11.3164 24.17968 5.4961 51.41406 2.6875 67.89843 16.97657 16.48828 14.28906 2.6875 29.10547 16.97656 56.58203 14.28907 27.48047 51.08594 46.40625 56.58204 84.875s-6.3086 85.6914-28.28907 113.16797c-21.98437 27.47656-40.91406 28.29297-84.8789 28.29297-43.96094 0-119.47656-6.3086-141.45703-28.29297C40.61719 291 101.8789 261.07812 90.89063 228.10547c-10.9922-32.97266-79.38282-51.90234-84.875-84.875-5.4961-32.97266 56.58203-84.875 56.58203-84.875"/></g><g clip-path="url(#b)"><path fill="none" stroke="#000" stroke-miterlimit="10" stroke-width=".79546" d="M62.59773 58.35551s34.60155-24.99608 56.58201-28.29296c21.98437-3.29687 32.40624 5.82031 56.58592 11.3164 24.17968 5.4961 51.41405 2.6875 67.89842 16.97656 16.48827 14.28906 2.6875 29.10546 16.97655 56.58202 14.28906 27.48046 51.08593 46.40623 56.58202 84.87497s-6.3086 85.69138-28.28906 113.16793c-21.98436 27.47656-40.91405 28.29296-84.87888 28.29296-43.96092 0-119.47652-6.30859-141.45698-28.29296-21.98047-21.98046 39.28123-51.90232 28.29296-84.87497-10.99219-32.97265-79.3828-51.90233-84.87498-84.87497C.51962 110.25784 62.59773 58.3555 62.59773 58.3555"/></g><path fill="#66E066" fill-opacity=".3" stroke="#000" stroke-miterlimit="10" stroke-width=".79546" d="M119.17974 58.35551s-15.10156.48828-28.28905 16.97656c-13.1914 16.48437-56.09764 52.5117-39.60937 67.89842 16.48437 15.38671 91.5117 22.30858 124.48434 11.3164 32.97265-10.99218 56.2578-49.21483 45.26561-67.89842-10.99218-18.6875-101.85153-28.29296-101.85153-28.29296"/><path fill="#0C0" fill-opacity=".3" stroke="#000" stroke-miterlimit="10" stroke-width=".79546" d="M123.42583 72.50004s-11.32812.36719-21.21874 12.73437c-9.89453 12.36328-42.0703 39.3828-29.70702 50.92186 12.36327 11.54297 68.63279 16.73046 93.36325 8.48828s42.1914-36.91015 33.9492-50.92577c-8.24218-14.01171-76.38669-21.21874-76.38669-21.21874"/><path fill="#66E066" fill-opacity=".3" stroke="#000" stroke-miterlimit="10" stroke-width=".79546" d="M178.59378 219.61718s-15.18358 2.76953-31.12108 19.80468-67.41013 53.61327-50.92576 67.90233c16.48827 14.28515 99.53121 25.99218 135.80073 5.65624 36.26952-20.33202 61.36717-92.2031 50.92577-110.3359-10.4414-18.13671-104.67966 16.97265-104.67966 16.97265"/><path fill="#0C0" fill-opacity=".3" stroke="#000" stroke-miterlimit="10" stroke-width=".79546" d="M180.71488 233.76562s-11.38672 2.07421-23.33984 14.85155-50.55858 40.20702-38.1953 50.92577c12.36718 10.71484 74.64841 19.49218 101.85153 4.24218s46.02342-69.15232 38.1953-82.75388c-7.83203-13.59765-78.5117 12.73438-78.5117 12.73438"/><use xlink:href="#c" x="113.80439" y="130.72169"/><use xlink:href="#d" x="100.7428" y="127.20153"/><use xlink:href="#e" x="106.43972" y="129.89629"/><use xlink:href="#c" x="108.1454" y="157.88085"/><use xlink:href="#f" x="87.66624" y="153.32172"/><use xlink:href="#g" x="94.02986" y="155.50946"/><use xlink:href="#h" x="100.18389" y="158.20422"/><use xlink:href="#c" x="215.65325" y="243.88653"/><use xlink:href="#i" x="228.05812" y="240.36737"/><use xlink:href="#e" x="232.59329" y="243.06013"/><use xlink:href="#c" x="209.99426" y="221.25456"/><use xlink:href="#f" x="189.5151" y="216.69543"/><use xlink:href="#g" x="195.87872" y="218.88317"/><use xlink:href="#j" x="202.03474" y="221.57593"/><use xlink:href="#c" x="142.09535" y="161.84214"/><use xlink:href="#f" x="154.50022" y="156.97461"/><use xlink:href="#g" x="160.86384" y="159.66937"/><use xlink:href="#e" x="167.01986" y="162.36413"/><use xlink:href="#k" x="172.73674" y="159.66937"/><use xlink:href="#h" x="179.45841" y="159.66937"/><use xlink:href="#c" x="153.41134" y="181.64661"/><use xlink:href="#f" x="165.8172" y="177.03259"/><use xlink:href="#g" x="172.18082" y="179.22033"/><use xlink:href="#e" x="178.33485" y="181.91509"/><use xlink:href="#l" x="141.70312" y="120.75707"/><use xlink:href="#l" x="204.22548" y="101.65124"/><use xlink:href="#m" x="216.48563" y="94.49117"/><use xlink:href="#n" x="192.89552" y="273.53085"/><use xlink:href="#n" x="190.32952" y="323.45573"/><use xlink:href="#m" x="202.08864" y="316.29765"/><use xlink:href="#o" x="242.32436" y="166.61985"/><use xlink:href="#p" x="141.17115" y="19.55396"/></svg>