<svg xmlns="http://www.w3.org/2000/svg" xmlns:xlink="http://www.w3.org/1999/xlink" width="205.725pt" height="331.077pt" viewBox="0 0 205.725 331.077"><defs><path id="a" d="m0 0 4.75 2.375.3125-.42187L3.96875 1.25C3.6875 1.10938 3.625.90625 3.76563.64063c.04687-.10938.125-.23438.25-.375l2.39062-2.92188 1.25.625c1.42188.71875 2.82813 1.1875 4.09375 1.0625 1.39063-.125 2.57813-.92187 3.20313-2.17187.5625-1.125.46875-2.28125-.125-3.15625-.5625-.84375-1.54688-1.51563-2.64063-2.0625L8.26563-10.3125l-.375.4375.96875.54688c.28125.17187.32812.375.1875.65625-.04688.10937-.14063.21875-.23438.35937L2.39063-.53125c-.42188.48438-.65625.625-1.07813.45313l-1-.34375Zm7.10938-3.46875c.04687-.10937.10937-.20312.23437-.3125l3.21875-3.92187c.34375-.39063.51563-.5 1.35938-.0625 1.67187.82812 2.10937 2.03125 1.40625 3.45312C12.14063-1.9375 10.25-1.46875 8-2.59375c-.85937-.42187-1.03125-.60937-.89062-.875m0 0"/><path id="c" d="M3.79688-3.98437C1.90625-.21875.70313 4.34375 4.15625 6.25l.25-.5c-1.07812-.82812-2.20312-3.23437.71875-9.0625 2.90625-5.82812 5.4375-6.40625 6.84375-6.04687l.23438-.5c-3.59375-1.625-6.53125 2.09375-8.40625 5.875m0 0"/><path id="d" d="m0 0 5.07813 2.53125c4.01562 2.01563 5.89062.35938 6.57812-1.03125.875-1.76562-.03125-3.1875-1.15625-4.01562l.03125-.04688c2.35938.84375 3.9375.07813 4.5625-1.1875.6875-1.34375.46875-2.92187-2.60937-4.45312L8.25-10.32812l-.35937.45312.96875.5625c.26562.17188.32812.35938.20312.625-.0625.10938-.17187.21875-.26562.375L2.40625-.53125c-.39062.48438-.64062.60938-1.07812.45313L.3125-.42187Zm3.98438.39063c.0625-.10938.14062-.23438.23437-.34375L7.32813-3.75l.65625.32813c1.65625.8125 2.875 2.01562 1.92187 3.9375-.75 1.48437-2.39062 2.5-4.64062 1.375-1.3125-.65625-1.5-1.07813-1.28125-1.5M7.75-4.28125l2.8125-3.4375c.375-.45312.5-.48437 1.625.07813 1.40625.70312 1.82813 1.8125 1.23438 2.98437-.85938 1.73438-2.75 1.82813-4.59375.90625Zm0 0"/><path id="e" d="m-.42187 3.34375-.25.5C2.9375 5.46875 5.84375 1.75 7.73438-2.01562c1.875-3.78125 3.10937-8.34375-.35938-10.25l-.23437.5C8.28125-10.85937 9.3125-8.5 6.40625-2.67187 3.48438 3.15625.875 3.70313-.42187 3.34375m0 0"/><path id="b" d="M-.21875-.10937 2.4375 1.21875l.26563-.32812L2.0625.5c-.125-.07812-.17187-.1875-.10937-.29687.09374-.21875 2.40625-1.8125 2.4375-1.82813L6.9375-.35937l-.89062 2.46875s-.20313.25-.48438.15625l-.625-.25-.25.32812 3.03125 1.51563.25-.32813-.42187-.25c-.35938-.23437-.28125-.48437-.10938-.96875l2.64063-7.35937-.95313-.48438-3.71875 2.48438c-1.17187.78125-3 2.03125-3.73437 2.46875-.625.39062-.875.40625-1.26563.28124l-.375-.14062Zm5.09375-1.875 3.53125-2.42188L7.125-.85937Zm0 0"/><path id="f" d="m0 0 4.75-2.375-.15625-.51562L3.375-2.4375c-.28125.14063-.46875.0625-.60937-.20312-.04688-.10938-.09375-.23438-.125-.40625l-.92188-3.67188 1.25-.625c1.42188-.71875 2.64063-1.5625 3.3125-2.625.73438-1.1875.79688-2.64062.17188-3.89062-.5625-1.125-1.53125-1.75-2.59375-1.78125-1-.0625-2.14063.32812-3.23438.875l-3.92187 1.95312.125.5625 1.03125-.42187c.28125-.14063.48437-.0625.625.21875.04687.10937.10937.25.14062.42187L1.01563-2.25c.14062.64063.09374.90625-.29688 1.14063l-.875.59375Zm1.48438-7.78125c-.04688-.10937-.07813-.20312-.10938-.375L.15625-13.07812c-.09375-.48438-.07812-.6875.76563-1.125 1.67187-.82813 2.92187-.46875 3.625.95312 1.1875 2.375.42187 4.1875-1.82813 5.3125-.85937.42188-1.09375.42188-1.23437.15625m0 0"/><path id="h" d="M-.92187-5.42187C.96875-1.65625 3.89063 2.0625 7.5.4375l-.25-.5C5.95313.29688 3.32813-.26562.40625-6.09375-2.5-11.92187-1.4375-14.28125-.3125-15.17187l-.23437-.5c-3.46875 1.90625-2.25 6.46875-.375 10.25m0 0"/><path id="i" d="m0 0 5.07813-2.53125C9.09375-4.54687 8.875-7.04687 8.1875-8.4375c-.875-1.76562-2.5625-1.875-3.90625-1.48437v-.04688c2.07813-1.375 2.40625-3.10937 1.78125-4.375C5.375-15.6875 4-16.45312.92188-14.92187l-4.23438 2.125.14063.54687 1.03125-.40625c.29687-.14062.48437-.07812.60937.1875.0625.10938.10938.28125.14063.4375L1.03125-2.25c.14063.60938.07813.89063-.29687 1.14063l-.89063.59375Zm2.70313-2.95312c-.0625-.10938-.10938-.23438-.14063-.40625L1.39063-8.125l.65625-.32812c1.65625-.8125 3.34375-1.07813 4.29687.84375.75 1.48437.57813 3.40625-1.67187 4.53125-1.3125.65625-1.75.54687-1.96875.125M1.21875-8.78125.15625-13.0625c-.125-.57812-.09375-.70312 1.03125-1.26562 1.40625-.70313 2.54688-.375 3.14063.79687.85937 1.73438-.1875 3.29688-2.03125 4.21875Zm0 0"/><path id="j" d="m2.42188 2.34375.25.5C6.125.9375 4.90625-3.625 3.01563-7.39062c-1.875-3.78125-4.79688-7.5-8.39063-5.875l.23438.5c1.42187-.375 3.92187.20312 6.82812 6.03125 2.92188 5.82812 1.8125 8.25.73438 9.07812m0 0"/><path id="g" d="M-.21875.10938 2.4375-1.21875l-.10937-.39062-.67188.26562c-.15625.04688-.26562.03125-.32812-.07812-.09376-.21876 0-3.03125 0-3.07813L3.875-5.76562l1.42188 2.1875s.10937.3125-.14063.46875l-.59375.375.125.39062 3.03125-1.51562-.125-.39063-.45312.1875c-.39063.14063-.53125-.07812-.82813-.5l-4.29687-6.54687-.95313.48437-.25 4.48438C.73438-4.76562.625-2.54687.54688-1.67187.48438-.96875.35938-.73437 0-.51562l-.34375.23437Zm1.5625-5.1875.1875-4.29688 2.0625 3.17188Zm0 0"/><path id="l" d="m0 0 3.75 3.75.45313-.29687L3.375 2.4375c-.21875-.21875-.21875-.4375-.01562-.64062.09375-.09376.20312-.17188.35937-.26563L6.92188-.48437 7.90625.5c1.125 1.125 2.3125 2 3.53125 2.3125 1.375.3125 2.76563-.07812 3.75-1.0625.89063-.89062 1.17188-2.01562.875-3.03125-.26562-.98437-.98437-1.92187-1.85937-2.79687l-3.09375-3.09375-.5.28125.73437.85937c.23438.23438.21875.4375 0 .65625-.09375.09375-.20312.17188-.35937.26563L2.4375.25c-.54687.32813-.8125.375-1.15625.09375L.4375-.3125Zm7.84375-1.03125c.09375-.09375.17188-.17187.32813-.23437l4.29687-2.70313c.42188-.26562.625-.3125 1.29688.35938 1.3125 1.3125 1.375 2.625.25 3.75-1.875 1.875-3.82813 1.70312-5.60938-.07813-.67187-.67187-.76562-.89062-.5625-1.09375m0 0"/><path id="m" d="M4.85938-2.57812C1.875.40625-.71875 4.34375 1.96875 7.25l.39063-.39062c-.75-1.125-1.0625-3.78125 3.54687-8.39063C10.5-6.125 13.09375-5.875 14.3125-5.09375l.39063-.39062c-2.90625-2.6875-6.85938-.07813-9.84375 2.90625m0 0"/><path id="n" d="m-.25-.25 2.98438 2.98438.45312-.29688-.65625-.8125c-.15625-.1875-.14062-.32812-.01562-.45312.0625-.0625.1875-.15626.32812-.20313C4.14063.54688 5.40625.125 6.79688-.26562L9.75 2.6875 7.35938 5.73438S6.9375 6 6.65625 5.75l-.79687-.64062-.4375.3125 3.25 3.25L9.125 8.375l-.45312-.54687c-.35938-.45313-.21875-.6875.23437-1.29688l6.98438-8.92187-.95313-.95313-6.125 1.6875c-1.84375.5-4.90625 1.375-6.1875 1.6875C1.51563.26563 1.14063.20313.70313-.17187l-.5-.375ZM7.5625-.5l6.01563-1.73437L10.1875 2.125Zm0 0"/><path id="o" d="m-1.46875 3.03125-.39062.39063c2.90625 2.6875 6.84375.09375 9.82812-2.89063S13.5625-6.40625 10.875-9.3125l-.39062.39063c.79687 1.23437 1.03125 3.8125-3.5625 8.40625C2.3125 4.09375-.34375 3.78125-1.46875 3.03125m0 0"/><path id="q" d="m0 0 3.75-3.75-.29687-.45312L2.4375-3.375c-.21875.21875-.4375.21875-.64062.01563-.09376-.09375-.17188-.20313-.26563-.35938L-.48437-6.92187.5-7.90625c1.125-1.125 2-2.3125 2.3125-3.53125.3125-1.375-.07812-2.76562-1.0625-3.75-.89062-.89062-2.01562-1.17187-3.03125-.875-.98437.26563-1.92187.98438-2.79687 1.85938l-3.09375 3.09375.28125.5.85937-.73438c.23438-.23437.4375-.21875.65625 0 .09375.09375.17188.20313.26563.35938L.25-2.4375c.32813.54688.375.8125.09375 1.15625L-.3125-.4375Zm-1.03125-7.84375c-.09375-.09375-.17187-.17187-.23437-.32812l-2.70313-4.29688c-.26562-.42187-.3125-.625.35938-1.29687 1.3125-1.3125 2.625-1.375 3.75-.25 1.875 1.875 1.70312 3.82812-.07813 5.60937-.67187.67188-.89062.76563-1.09375.5625m0 0"/><path id="r" d="M-2.57812-4.85937C.40625-1.875 4.34375.71875 7.25-1.96875l-.39062-.39062c-1.125.75-3.78125 1.0625-8.39063-3.54688C-6.125-10.5-5.875-13.09375-5.09375-14.3125l-.39062-.39062c-2.6875 2.90625-.07813 6.85937 2.90625 9.84375m0 0"/><path id="s" d="m-.25.25 2.98438-2.98437-.29688-.45313-.8125.65625c-.1875.15625-.32812.14063-.45312.01563-.0625-.0625-.15626-.1875-.20313-.32813C.54688-4.14062.125-5.40625-.26562-6.79687L2.6875-9.75l3.04688 2.39063S6-6.9375 5.75-6.65625l-.64062.79688.3125.4375 3.25-3.25L8.375-9.125l-.54687.45313c-.45313.35937-.6875.21875-1.29688-.23438l-8.92187-6.98437-.95313.95312 1.6875 6.125c.5 1.84375 1.375 4.90625 1.6875 6.1875.23438 1.10938.17188 1.48438-.20312 1.92188l-.375.5ZM-.5-7.5625l-1.73437-6.01562L2.125-10.1875Zm0 0"/><path id="t" d="m3.03125 1.46875.39063.39063c2.6875-2.90625.09375-6.84375-2.89063-9.82813S-6.40625-13.5625-9.3125-10.875l.39063.39063c1.23437-.79688 3.8125-1.03125 8.40625 3.5625C4.09375-2.3125 3.78125.34375 3.03125 1.46875m0 0"/><path id="v" d="M0 0h5.67188c4.5 0 5.42187-2.32812 5.42187-3.875 0-1.96875-1.45312-2.82812-2.82812-3.07812L8.28125-7c2.48438-.29687 3.54688-1.70312 3.54688-3.10937 0-1.51563-.89063-2.8125-4.32813-2.8125H2.76563l-.125.54687 1.10937.09375c.32813.01563.46875.15625.46875.45313 0 .125-.04687.28125-.07812.45312L1.92188-1.54687c-.14063.60937-.3125.82812-.76563.89062l-1.0625.125Zm3.73438-1.4375c0-.125.01562-.26562.0625-.40625L4.875-6.64062h.73438c1.84375 0 3.46875.53125 3.46875 2.67187 0 1.65625-1.01563 3.3125-3.51563 3.3125-1.46875 0-1.82812-.29687-1.82812-.78125m1.28125-5.85937.96875-4.32813c.14062-.5625.23437-.65625 1.48437-.65625 1.57813 0 2.45313.79688 2.45313 2.10938 0 1.9375-1.64063 2.875-3.70313 2.875Zm0 0"/><path id="z" d="M-.35937 0h4.21875l.10937-.53125L2.9375-.64062c-.23437-.01563-.32812-.14063-.32812-.3125 0-.09376.03125-.23438.09375-.375.60937-1.20313 1.21875-2.40625 1.90625-3.65625h4.1875l.46875 3.84375s-.10938.46875-.5.5l-1 .10937L7.67188 0h4.59375l.10937-.53125-.70312-.0625c-.57813-.0625-.65625-.32812-.76563-1.09375L9.54688-12.92187H8.20313L5.0625-7.40625c-.95312 1.65625-2.5 4.4375-3.1875 5.5625C1.26563-.875.95313-.67187.375-.60937l-.60937.07812Zm5.34375-5.70312 3.04687-5.48438.67188 5.48438Zm0 0"/><clipPath id="k"><path d="M.14844 157H103v108H.14844Zm0 0"/></clipPath><clipPath id="p"><path d="M.14844 61H103v108H.14844Zm0 0"/></clipPath><clipPath id="u"><path d="M179 291h26.30078v32H179Zm0 0"/></clipPath><clipPath id="w"><path d="M179 197h26.30078v27H179Zm0 0"/></clipPath><clipPath id="x"><path d="M179 98h26.30078v33H179Zm0 0"/></clipPath><clipPath id="y"><path d="M179 5h26.30078v27H179Zm0 0"/></clipPath></defs><path fill="none" stroke="#000" stroke-miterlimit="10" stroke-width=".39739" d="m192.5664 306.96875-96.1094-48.0547"/><use xlink:href="#a" x="111.86141" y="295.01155"/><path fill="none" stroke="#000" stroke-miterlimit="10" stroke-width=".76581" d="m123.53906 293.95703 9.08985 4.54688"/><use xlink:href="#b" x="118.29814" y="304.43952"/><use xlink:href="#c" x="129.87201" y="304.01669"/><path fill="none" stroke="#000" stroke-miterlimit="10" stroke-width="1.09287" d="m144.1836 292.45703 10.92968 5.46485"/><use xlink:href="#d" x="136.69666" y="307.42896"/><use xlink:href="#e" x="147.62578" y="312.89343"/><path fill="none" stroke="#000" stroke-miterlimit="10" stroke-width=".39739" d="m192.5664 210.85545-96.1094 48.0586"/><use xlink:href="#f" x="117.22346" y="234.47432"/><path fill="none" stroke="#000" stroke-miterlimit="10" stroke-width=".76581" d="m123.39062 224.5 9.08985-4.54688"/><use xlink:href="#g" x="128.62966" y="234.98098"/><use xlink:href="#h" x="135.23406" y="225.46917"/><use xlink:href="#i" x="142.0581" y="222.05721"/><use xlink:href="#j" x="153.7336" y="216.21956"/><path fill="none" stroke="#000" stroke-miterlimit="10" stroke-width=".39739" d="M192.5664 114.74607 96.457 66.69137"/><use xlink:href="#a" x="111.86141" y="102.79043"/><use xlink:href="#b" x="118.82702" y="111.16064"/><use xlink:href="#c" x="129.87201" y="111.79558"/><path fill="none" stroke="#000" stroke-miterlimit="10" stroke-width="1.09287" d="m144.1836 100.23437 10.92968 5.46485"/><use xlink:href="#d" x="136.69666" y="115.20785"/><use xlink:href="#e" x="147.62578" y="120.67232"/><path fill="none" stroke="#000" stroke-miterlimit="10" stroke-width=".39739" d="M192.5664 18.63277 96.457 66.69137"/><use xlink:href="#f" x="117.75199" y="43.31026"/><use xlink:href="#g" x="128.62931" y="42.75915"/><use xlink:href="#h" x="135.76437" y="34.30422"/><use xlink:href="#i" x="142.58841" y="30.89226"/><use xlink:href="#j" x="154.26391" y="25.0546"/><g clip-path="url(#k)"><path fill="none" stroke="#000" stroke-miterlimit="10" stroke-width=".39739" d="M96.457 258.91405.34372 162.80076"/></g><use xlink:href="#l" x="15.85108" y="214.22776"/><use xlink:href="#m" x="25.18041" y="223.55709"/><path fill="none" stroke="#000" stroke-miterlimit="10" stroke-width="1.09296" d="m42.41406 217.11719 9.0625 9.0625"/><use xlink:href="#n" x="30.5759" y="228.95258"/><use xlink:href="#o" x="39.63827" y="238.01496"/><g clip-path="url(#p)"><path fill="none" stroke="#000" stroke-miterlimit="10" stroke-width=".39739" d="M96.457 66.69137.34372 162.80077"/></g><use xlink:href="#q" x="25.92599" y="122.01484"/><use xlink:href="#r" x="35.25532" y="112.68551"/><use xlink:href="#s" x="40.65059" y="107.29023"/><use xlink:href="#t" x="50.26093" y="97.6799"/><g clip-path="url(#u)"><path fill="#FFF" d="M205.30078 291.15625h-25.46484v31.625h25.46484Zm0 0"/></g><path fill="none" stroke="#000" stroke-miterlimit="10" stroke-width="1.09295" d="M186.45703 299.41797h12.22266"/><use xlink:href="#v" x="186.45845" y="316.15959"/><g clip-path="url(#w)"><path fill="#FFF" d="M205.30078 197.77734h-25.46484v26.16016h25.46484Zm0 0"/></g><use xlink:href="#v" x="186.45845" y="217.31615"/><g clip-path="url(#x)"><path fill="#FFF" d="M205.30078 98.9336h-25.46484v31.625h25.46484Zm0 0"/></g><path fill="none" stroke="#000" stroke-miterlimit="10" stroke-width="1.09295" d="M186.45703 107.19531h12.22266"/><use xlink:href="#v" x="186.45845" y="123.93848"/><g clip-path="url(#y)"><path fill="#FFF" d="M205.30078 5.55469h-25.46484v26.16015h25.46484Zm0 0"/></g><use xlink:href="#v" x="186.45845" y="25.09504"/><path fill="#FFF" d="M109.48828 243.10156h-26.0625v31.625h26.0625Zm0 0"/><path fill="none" stroke="#000" stroke-miterlimit="10" stroke-width="1.09295" d="M90.05078 251.36328h12.8164"/><use xlink:href="#z" x="90.05022" y="268.10356"/><path fill="#FFF" d="M109.48828 53.60938h-26.0625v26.16015h26.0625Zm0 0"/><use xlink:href="#z" x="90.05022" y="73.15106"/></svg>