<svg xmlns="http://www.w3.org/2000/svg" xmlns:xlink="http://www.w3.org/1999/xlink" width="202.033pt" height="301.1pt" viewBox="0 0 202.033 301.1"><defs><path id="a" d="M.96875-5.10937c0 2.45312 1.21875 5.39062 5.82813 5.39062C8.125.28125 9.40625.09375 10.59375-.5L11.5-3.46875h-.5625C9.90625-1.60937 8.98438-.375 6.6875-.375c-2.17187 0-3.71875-1.39062-3.71875-4.26562 0-1.6875.4375-3.75 1.32813-5.23438.9375-1.5625 2.40625-2.65625 4.40625-2.65625 2.35937 0 3.03125 1.09375 3.03125 3.125h.57812l.67188-2.78125c-1.0625-.6875-2.8125-1-4.125-1-3.5 0-5.53125 1.64063-6.625 3.39063C1.20313-8.125.96875-6.40625.96875-5.10937m0 0"/><path id="b" d="M0 0h5.70313c3.73437 0 5.89062-1.34375 7.25-3.375 1.0625-1.60937 1.25-3.17187 1.25-4.28125 0-1.5-.54688-3.01562-1.60938-3.90625-1.09375-.90625-2.76562-1.32812-4.82812-1.32812H2.75l-.10937.53125 1.10937.07812c.3125.03125.4375.1875.4375.48438 0 .125-.03125.28125-.0625.45312L1.90625-1.54687c-.14062.60937-.29687.85937-.75.89062l-1.0625.125Zm3.6875-1.375c0-.07812 0-.15625.01563-.23437l2.25-9.95313c.15625-.625.40625-.6875 2.03125-.6875 3.89062.07813 4.20312 2.6875 4.20312 4.1875 0 1.59375-.375 3.10938-1.20312 4.5-1.07813 1.73438-2.65625 2.90625-5.75 2.90625-.90625 0-1.54688-.10937-1.54688-.71875m0 0"/><path id="h" d="M0 0h5.65625c4.5 0 5.40625-2.3125 5.40625-3.85937 0-1.96875-1.45312-2.82813-2.8125-3.07813l.01563-.04687c2.48437-.29688 3.53125-1.70313 3.53125-3.10938 0-1.5-.89063-2.79687-4.32813-2.79687H2.75l-.10937.53125L3.75-12.25c.3125.01563.45313.15625.45313.45313 0 .125-.04688.28125-.07813.45312L1.92188-1.54687c-.14063.60937-.3125.82812-.76563.89062l-1.0625.125Zm3.73438-1.42187q0-.21095.04687-.42188L4.85938-6.625h.73437c1.84375 0 3.46875.53125 3.46875 2.65625 0 1.67188-1.01562 3.3125-3.51562 3.3125-1.46875 0-1.8125-.29687-1.8125-.76562M5-7.28125l.96875-4.3125c.14063-.5625.23438-.65625 1.48438-.65625 1.5625 0 2.4375.79688 2.4375 2.09375 0 1.95313-1.625 2.875-3.6875 2.875Zm0 0"/><path id="l" d="M-.35937 0h4.20312l.125-.53125L2.9375-.64062c-.23437-.01563-.34375-.125-.34375-.3125 0-.09376.04688-.23438.10938-.375.60937-1.1875 1.20312-2.40625 1.89062-3.65625h4.1875L9.23438-1.125s-.09375.45313-.48438.48438l-1 .10937L7.65625 0h4.57813l.125-.53125-.71875-.0625c-.57813-.0625-.65625-.3125-.75-1.09375l-1.375-11.20312H8.1875l-3.125 5.5c-.95312 1.65625-2.5 4.4375-3.20312 5.54687C1.26563-.875.95313-.67187.375-.60937l-.60937.07812Zm5.34375-5.6875 3.03125-5.46875.67187 5.46875Zm0 0"/><path id="c" d="M.35938-3.10937C.35938-1.3125.9375.10938 2.5625.10938S4.75-1.3125 4.75-3.10937c0-1.79688-.5625-3.23438-2.1875-3.23438S.35938-4.90625.35938-3.10937m1.1875 0c0-1.3125.17187-2.85938 1.01562-2.85938.82813 0 1.01563 1.54688 1.01563 2.85938 0 1.29687-.1875 2.84375-1.01563 2.84375-.84375 0-1.01562-1.54688-1.01562-2.84375m0 0"/><path id="d" d="m.46875 1.17188.25.20312c.46875-.4375 1.25-1.10937 1.25-1.84375 0-.5-.26562-.90625-.70312-.90625-.375 0-.5625.28125-.5625.51563 0 .34375.26562.51562.26562.92187 0 .39063-.1875.78125-.5 1.10938m0 0"/><path id="e" d="M.34375-4.20312c0 1.28125.79688 1.9375 1.79688 1.9375.67187 0 1.1875-.42188 1.48437-.78125 0 1.45312-.35937 2.78125-1.23437 2.78125-.40625 0-.70313-.35938-.85938-.9375-.03125-.125-.125-.23438-.29687-.23438-.21876 0-.59375.17188-.59375.48438 0 .42187.5 1.0625 1.67187 1.0625 1.60938 0 2.48438-1.21875 2.48438-3.39063 0-1.95312-.67188-3.0625-2.23438-3.0625-1.51562 0-2.21875.9375-2.21875 2.14063M1.5-4.39062c0-.92188.3125-1.57813 1.03125-1.57813.75 0 1.09375.85938 1.09375 1.9375 0 .54688-.375 1.15625-1.0625 1.15625C2-2.875 1.5-3.32812 1.5-4.39062m0 0"/><path id="f" d="M.42188-1.01562c0 .375.54687 1.125 1.95312 1.125C4.01563.10938 4.65625-.84375 4.65625-2c0-1.10937-.625-2-1.98437-2-.5625 0-1.10938.25-1.4375.51563l.1875-1.53125c.04687-.28125.09374-.3125.29687-.3125H4.125l.28125-.79688-.0625-.10937H1.01563l-.07813.09375L.75-3.04687l.29688.20312c.375-.45312.75-.65625 1.21875-.65625.625 0 1.20312.45313 1.20312 1.60938 0 .95312-.32812 1.625-1.03125 1.625-.54687 0-.85937-.39063-1.09375-1.04688-.04687-.17187-.15625-.28125-.35937-.28125-.23438 0-.5625.21875-.5625.57813m0 0"/><path id="g" d="M.28125-.125.39063 0h4.03125l.35937-1.40625-.29687-.04687c-.23438.48437-.39063.5625-.78125.5625H1.34375C1.48438-1.3125 1.92188-1.92187 2.875-2.5 3.84375-3.125 4.5-3.57812 4.5-4.57812c0-1.3125-.89062-1.76563-1.95312-1.76563C1.29688-6.34375.5-5.64062.5-5.01562c0 .35937.40625.53125.64063.53125.17187 0 .28124-.09375.32812-.29688.15625-.6875.48438-1.1875 1.01563-1.1875.59375 0 .8125.53125.8125 1.20313 0 .8125-.34375 1.45312-1.25 2.21875C.82813-1.5.39063-.79687.28124-.125m0 0"/><path id="i" d="M1.01563 0H4.1875v-.3125l-.71875-.04687c-.20312-.03125-.29687-.09375-.29687-.4375v-5.48438l-.07813-.0625L1.03125-6v.26563l.75.10937c.1875.03125.26563.10938.26563.40625v4.42188c0 .34375-.10938.40625-.32813.4375l-.70312.04687Zm0 0"/><path id="j" d="M.65625-.60937c0 .4375.28125.75.75.75.45313 0 .73438-.3125.73438-.75S1.85938-1.375 1.40625-1.375c-.46875 0-.75.32813-.75.76563m0 0"/><path id="k" d="M.28125-1.01562c0 .375.5625 1.125 2.04688 1.125C3.75.10938 4.64063-.5625 4.64063-1.75c0-1.28125-1.14063-1.60937-1.57813-1.65625v-.03125c.5-.10937 1.29688-.45312 1.29688-1.35937 0-1.15625-.95313-1.54688-1.9375-1.54688C1.25-6.34375.5-5.70312.5-5.17187c0 .34375.40625.51562.57813.51562.15624 0 .25-.09375.29687-.25.21875-.67187.51563-1.0625 1-1.0625.65625 0 .8125.67188.8125 1.14063 0 .45312-.125 1.25-.875 1.25-.40625 0-.6875-.10938-.85937-.10938-.15626 0-.20313.10938-.20313.29688 0 .20312.04688.32812.20313.32812.17187 0 .4375-.10937.85937-.10937.64063 0 1.09375.5 1.09375 1.45312 0 1.03125-.4375 1.45313-1.0625 1.45313-.51562 0-.89062-.39063-1.10937-1.0625q-.07032-.28126-.32813-.28126c-.25 0-.625.20313-.625.59376m0 0"/><path id="m" d="M.34375-1.71875c0 1.14063.84375 1.82813 2.21875 1.82813 1.39063 0 2.20313-.6875 2.20313-1.82813 0-.90625-.54688-1.45312-1.23438-1.64062.54688-.15625 1.01563-.625 1.01563-1.35938 0-1.04687-.8125-1.625-1.98438-1.625-1.1875 0-2 .59375-2 1.625 0 .73438.48438 1.20313 1.03125 1.35938-.6875.1875-1.25.73437-1.25 1.64062m1.1875.01563c0-.8125.35938-1.42188 1.03125-1.42188.67188 0 1.01563.60938 1.01563 1.42188 0 .82812-.32813 1.4375-1.01563 1.4375-.70312 0-1.03125-.60938-1.03125-1.4375M1.6875-4.75c0-.70312.3125-1.21875.875-1.21875.57813 0 .875.51563.875 1.21875 0 .65625-.29687 1.23438-.875 1.23438-.57812 0-.875-.57813-.875-1.23438m0 0"/><path id="n" d="m.20313-1.875.125.23438h2.45312v.9375c0 .26562-.09375.32812-.28125.34375l-.60937.04687V0h2.64062v-.3125l-.4375-.03125c-.1875-.03125-.25-.09375-.25-.35937v-.9375h.9375v-.53125h-.9375v-4.0625h-.89062c-.92188 1.375-1.90625 2.92187-2.75 4.35937m.8125-.29687c.5-.9375 1.125-1.96875 1.76562-3.03125v3.03125Zm0 0"/></defs><use xlink:href="#a" x="90.60035" y="268.03965"/><path fill="none" stroke="#000" stroke-miterlimit="10" stroke-width=".3966" d="m12.21484 155.7461 73.44137 91.79292"/><path fill="none" stroke="#000" stroke-linecap="round" stroke-linejoin="round" stroke-miterlimit="10" stroke-width=".39658" d="M86.34766 244.59766c-.8789 1.18359-.8789 2.26171-.57032 3.09375-.74218-.48438-1.79296-.71875-3.14453-.1211"/><path fill="none" stroke="#000" stroke-miterlimit="10" stroke-width="1.09078" d="M179.86719 276.61719h14.59375"/><use xlink:href="#b" x="179.8661" y="293.32563"/><path fill="none" stroke="#000" stroke-miterlimit="10" stroke-width=".3966" d="m110.17964 264.9062 62.29685 15.57812"/><path fill="none" stroke="#000" stroke-linecap="round" stroke-linejoin="round" stroke-miterlimit="10" stroke-width=".3966" d="M171.2461 277.72265c.01953 1.47657.66796 2.33594 1.42187 2.8086-.88672.0664-1.86328.51562-2.57813 1.8086"/><path fill="#FFF" d="M157.64063 262.28125h-32.23829v20.92578h32.23829Zm0 0"/><use xlink:href="#c" x="132.01015" y="275.22725"/><use xlink:href="#d" x="137.11647" y="275.22725"/><use xlink:href="#e" x="140.81484" y="275.22725"/><use xlink:href="#f" x="145.92115" y="275.22725"/><use xlink:href="#b" x="179.8661" y="245.46072"/><path fill="none" stroke="#000" stroke-miterlimit="10" stroke-width=".3966" d="m110.17964 258.26558 62.29685-15.57812"/><path fill="none" stroke="#000" stroke-linecap="round" stroke-linejoin="round" stroke-miterlimit="10" stroke-width=".3966" d="M170.08984 240.83203c.71485 1.29297 1.69141 1.74219 2.57813 1.8086-.7539.47265-1.40234 1.33203-1.42188 2.80859"/><path fill="#FFF" d="M157.64063 239.96484h-32.23829v20.92578h32.23829Zm0 0"/><use xlink:href="#c" x="132.01015" y="252.91007"/><use xlink:href="#d" x="137.11647" y="252.91007"/><use xlink:href="#c" x="140.81484" y="252.91007"/><use xlink:href="#f" x="145.92115" y="252.91007"/><path fill="#FFF" d="M65.17578 191.33594H32.9375v20.92187h32.23828Zm0 0"/><use xlink:href="#c" x="39.54871" y="204.27883"/><use xlink:href="#d" x="44.65503" y="204.27883"/><use xlink:href="#g" x="48.35339" y="204.27883"/><use xlink:href="#f" x="53.45971" y="204.27883"/><use xlink:href="#h" x="90.78845" y="155.18382"/><path fill="none" stroke="#000" stroke-miterlimit="10" stroke-width=".3966" d="M13.61328 148.73828h69.7734"/><path fill="none" stroke="#000" stroke-linecap="round" stroke-linejoin="round" stroke-miterlimit="10" stroke-width=".3966" d="M81.52344 146.35938c.375 1.42578 1.21484 2.10156 2.0625 2.3789-.84766.27735-1.6875.95313-2.0625 2.3789"/><path fill="none" stroke="#000" stroke-miterlimit="10" stroke-width="1.09078" d="M179.86719 163.77344h14.59375"/><use xlink:href="#b" x="179.8661" y="180.47975"/><path fill="none" stroke="#000" stroke-miterlimit="10" stroke-width=".3966" d="m109.99214 152.01172 62.48435 15.625"/><path fill="none" stroke="#000" stroke-linecap="round" stroke-linejoin="round" stroke-miterlimit="10" stroke-width=".3966" d="M171.2461 164.875c.01953 1.47656.66796 2.33594 1.42187 2.8125-.88672.0625-1.86328.51172-2.57813 1.80469"/><path fill="#FFF" d="M154.99219 149.41016h-27.13281v20.92578h27.1328Zm0 0"/><use xlink:href="#c" x="134.46839" y="162.35748"/><use xlink:href="#d" x="139.57471" y="162.35748"/><use xlink:href="#e" x="143.27307" y="162.35748"/><use xlink:href="#b" x="179.8661" y="132.61385"/><path fill="none" stroke="#000" stroke-miterlimit="10" stroke-width=".3966" d="m109.99214 145.46485 62.48435-15.625"/><path fill="none" stroke="#000" stroke-linecap="round" stroke-linejoin="round" stroke-miterlimit="10" stroke-width=".3966" d="M170.08984 127.98437c.71485 1.29297 1.69141 1.7422 2.57813 1.8086-.7539.47266-1.40235 1.33203-1.42188 2.8086"/><path fill="#FFF" d="M154.99219 127.14063h-27.13281v20.92578h27.1328Zm0 0"/><use xlink:href="#c" x="134.46839" y="140.08807"/><use xlink:href="#d" x="139.57471" y="140.08807"/><use xlink:href="#i" x="143.27307" y="140.08807"/><path fill="#FFF" d="M64.35547 138.89063h-31.3125v19.6953h31.3125Zm0 0"/><use xlink:href="#c" x="39.65122" y="151.83684"/><use xlink:href="#j" x="44.75753" y="151.83684"/><use xlink:href="#k" x="47.53379" y="151.83684"/><use xlink:href="#f" x="52.6401" y="151.83684"/><use xlink:href="#l" x="90.49088" y="42.33695"/><path fill="none" stroke="#000" stroke-miterlimit="10" stroke-width=".3966" d="m12.21093 141.73438 73.67575-92.08199"/><path fill="none" stroke="#000" stroke-linecap="round" stroke-linejoin="round" stroke-miterlimit="10" stroke-width=".39658" d="M82.86328 49.6211c1.34766.59765 2.40235.36328 3.14453-.125-.3086.83593-.3086 1.91015.57032 3.09765"/><path fill="none" stroke="#000" stroke-miterlimit="10" stroke-width="1.09078" d="M179.86719 50.92578h14.59375"/><use xlink:href="#b" x="179.8661" y="67.63287"/><path fill="none" stroke="#000" stroke-miterlimit="10" stroke-width=".3966" d="M110.28901 39.24224 172.4765 54.7891"/><path fill="none" stroke="#000" stroke-linecap="round" stroke-linejoin="round" stroke-miterlimit="10" stroke-width=".3966" d="M171.2461 52.02734c.01953 1.47657.66796 2.33594 1.42187 2.8125-.88672.0625-1.86328.51172-2.57813 1.8047"/><path fill="#FFF" d="M157.69531 36.60156h-32.23828v20.92188h32.23828Zm0 0"/><use xlink:href="#c" x="132.0639" y="49.54843"/><use xlink:href="#d" x="137.17022" y="49.54843"/><use xlink:href="#m" x="140.86858" y="49.54843"/><use xlink:href="#f" x="145.9749" y="49.54843"/><use xlink:href="#b" x="179.8661" y="19.76797"/><path fill="none" stroke="#000" stroke-miterlimit="10" stroke-width=".3966" d="m110.28901 32.54302 62.18748-15.55077"/><path fill="none" stroke="#000" stroke-linecap="round" stroke-linejoin="round" stroke-miterlimit="10" stroke-width=".3966" d="M170.08984 15.13672c.71485 1.29297 1.69141 1.74219 2.57813 1.8086-.7539.47265-1.40235 1.33203-1.42188 2.80859"/><path fill="#FFF" d="M157.69531 14.25781h-32.23828V35.1797h32.23828Zm0 0"/><use xlink:href="#c" x="132.0639" y="27.20437"/><use xlink:href="#d" x="137.17022" y="27.20437"/><use xlink:href="#i" x="140.86858" y="27.20437"/><use xlink:href="#f" x="145.9749" y="27.20437"/><path fill="#FFF" d="M62.73828 85.07422H35.60547V106h27.13281Zm0 0"/><use xlink:href="#c" x="42.21594" y="98.02241"/><use xlink:href="#d" x="47.32226" y="98.02241"/><use xlink:href="#n" x="51.02062" y="98.02241"/></svg>