<svg xmlns="http://www.w3.org/2000/svg" xmlns:xlink="http://www.w3.org/1999/xlink" width="393.931pt" height="367.965pt" viewBox="0 0 393.931 367.965"><defs><path id="a" d="M.59375-.73437c0 .53125.4375.95312 1.20313.95312 1.26562 0 1.98437-1.28125 2.76562-2.53125l.75-1.23437h.04688l.34375 1.46875c.35937 1.5.6875 2.29687 1.64062 2.29687C8.71875.21875 9.4375-1.1875 10-2.32812l-.48437-.26563C9.0625-1.75 8.54688-.75 8.03125-.75c-.35937 0-.5-.42187-.92187-2.09375l-.59375-2.45312C7.1875-6.5 8.14063-7.98437 8.6875-7.98437c.5625 0 .57813.29687 1.14063.29687.40625 0 .79687-.40625.79687-.90625 0-.5625-.4375-.8125-.96875-.8125-.98437 0-1.82812.90625-2.48437 1.95313l-.8125 1.28125H6.3125l-.75-3.15625-.10937-.07813-3.07813.9375.03125.45313 1.48438-.09375c.29687 0 .4375.14062.60937.9375l.65625 2.70312-.51562.90625c-.79688 1.375-1.5 2.34375-1.95313 2.34375-.53125 0-.67187-.45312-1.26562-.45312-.48438 0-.82813.48437-.82813.9375m0 0"/><path id="c" d="M0 3.5c0 .5.5625 1.01563 1.375 1.01563 1.59375 0 2.26563-1.17188 3.92188-4.01563.375-.64062 1.51562-2.60937 2.67187-4.53125 1.07813-1.75 2.25-3.5625 2.25-4.3125 0-.65625-.20312-1.0625-.34375-1.0625-.35937 0-.98437.15625-1.46875.48438 0 0-.0625 1.90625-.23437 2.5625-.29688 1.0625-1.40625 3.09375-2.64063 5.21875h-.04687c-.14063-2.85938-.5-6.8125-.76563-8.1875l-.14062-.07813L1.4375-8.5l.0625.46875 1.28125-.03125c.39063 0 .46875.3125.625 1.26563.20313 1.45312.625 5.0625.625 6.5625 0 .54687-.03125 1.3125-.45312 2.3125-.32813.76562-.8125 1.32812-1.1875 1.32812-.67188 0-.75-1.03125-1.4375-1.03125C.48438 2.375 0 2.96875 0 3.5m0 0"/><path id="d" d="M1.6875-5.28125c0 2.15625 1.57813 3.73438 3.75 3.73438 2.09375 0 3.67188-1.57813 3.67188-3.73438 0-2.09375-1.57813-3.65625-3.67188-3.65625-2.17187 0-3.75 1.5625-3.75 3.65625m0 0"/><path id="e" d="M2.03125 0H8.1875v-.53125L6.60938-.67187C6.21875-.71875 6-.85937 6-1.59375V-12.625l-.10937-.10937-3.85938.65625v.46875l1.75.21875c.32813.03125.4375.17187.4375.71875v9.07812c0 .73438-.17187.875-.60937.92188l-1.57813.14062Zm0 0"/><path id="k" d="M.59375-3.46875c0 2.14063.73438 3.70313 3.04688 3.70313 3.4375 0 4.90625-3.46875 5.70312-7.04688.21875-1.09375.39063-2.25.39063-3.3125 0-2.0625-.67188-3.76562-3.01563-3.76562-4.48437 0-6.125 6.67187-6.125 10.42187m1.70313.65625c0-1.29687.29687-2.82812.51562-3.90625h4.67188C7.01563-4.5 5.96875-.3125 3.76563-.3125c-1.14063 0-1.46875-1.10937-1.46875-2.5m.67187-4.57812c.34375-1.59375 1.35938-5.875 3.60938-5.875 1.17187 0 1.51562 1.15625 1.51562 2.51562 0 1.20313-.28125 2.57813-.4375 3.35938Zm0 0"/><path id="m" d="M.8125 0H12.625L7.3125-12.98437H5.92188Zm1.15625-1.01562L6-11.25l4.23438 10.23438Zm0 0"/><path id="l" d="M.53125-4.375c0 2.5625.78125 4.53125 3.01563 4.53125 2.21875 0 3-1.96875 3-4.53125s-.78125-4.53125-3-4.53125C1.3125-8.90625.53125-6.9375.53125-4.375m1.5 0c0-1.98437.3125-4.04687 1.51563-4.04687 1.1875 0 1.5 2.0625 1.5 4.04687s-.3125 4.04688-1.5 4.04688c-1.20313 0-1.51563-2.0625-1.51563-4.04688m0 0"/><path id="n" d="M.42188-2.46875c0 1.51563.53125 2.64063 2.21875 2.64063 2.39062 0 3.42187-2.28125 4.03125-4.84375.1875-.79688.3125-1.60938.3125-2.35938 0-1.46875-.5-2.6875-2.21875-2.6875-3.04688 0-4.34375 4.32813-4.34375 7.25m1.34375.54688c0-.90625.23437-2 .375-2.75h3.07812C4.875-3.14062 4.1875-.25 2.73438-.25 2-.25 1.76563-.98437 1.76563-1.92187m.5-3.28125C2.5-6.29687 3.1875-9.25 4.67188-9.25c.75 0 .98437.76563.98437 1.67188 0 .84375-.20312 1.82812-.3125 2.375Zm0 0"/><path id="o" d="M.40625-3.4375c0 1.98438.625 3.5625 2.42188 3.5625S5.25-1.45312 5.25-3.4375C5.25-5.42187 4.625-7 2.82813-7S.40625-5.42187.40625-3.4375m1.29688 0c0-1.45312.20312-3.15625 1.125-3.15625.92187 0 1.10937 1.70313 1.10937 3.15625C3.9375-2 3.75-.28125 2.82813-.28125c-.92188 0-1.125-1.71875-1.125-3.15625m0 0"/><clipPath id="b"><path d="M198 27h1v340.91406h-1Zm0 0"/></clipPath><clipPath id="f"><path d="M85 84h228v228H85Zm0 0"/></clipPath><clipPath id="g"><path d="M312.08594 197.66797c0-62.61328-50.7539-113.36719-113.36719-113.36719S85.35156 135.05468 85.35156 197.66797c0 62.60937 50.7539 113.36719 113.36719 113.36719s113.36719-50.75782 113.36719-113.3672m0 0"/></clipPath><clipPath id="h"><path d="M71.19531 45.6914v303.95313l240.89063-151.97656Zm0 0"/></clipPath><clipPath id="i"><path d="M249 135h64v63h-64Zm0 0"/></clipPath><clipPath id="j"><path d="M71.19531 45.6914.32812 197.66798h311.75782Zm0 0"/></clipPath></defs><path fill="none" stroke="#000" stroke-miterlimit="10" stroke-width=".39843" d="M28.66795 197.66797h339.70317"/><path fill="none" stroke="#000" stroke-linecap="round" stroke-linejoin="round" stroke-miterlimit="10" stroke-width=".39843" d="M366.5 195.27734c.3789 1.4336 1.22266 2.10938 2.07031 2.39063-.84765.27734-1.6914.95703-2.07031 2.39062"/><use xlink:href="#a" x="375.80717" y="202.2593"/><g clip-path="url(#b)"><path fill="none" stroke="#000" stroke-miterlimit="10" stroke-width=".39843" d="M198.71875 367.71877V28.0156"/></g><path fill="none" stroke="#000" stroke-linecap="round" stroke-linejoin="round" stroke-miterlimit="10" stroke-width=".39843" d="M196.32812 29.88672c1.4336-.3789 2.11329-1.22266 2.39063-2.07031.28125.84765.95703 1.6914 2.39063 2.0703"/><use xlink:href="#c" x="193.03219" y="16.05791"/><use xlink:href="#d" x="193.33114" y="88.77418"/><use xlink:href="#e" x="205.75796" y="77.26319"/><use xlink:href="#d" x="306.69628" y="202.13932"/><use xlink:href="#e" x="319.1241" y="217.43564"/><path fill="none" stroke="#000" stroke-miterlimit="10" stroke-width=".39843" d="M312.08595 197.66797c0-62.6133-50.75391-113.3672-113.3672-113.3672s-113.3672 50.7539-113.3672 113.3672c0 62.60938 50.75391 113.3672 113.3672 113.3672s113.3672-50.75782 113.3672-113.3672Zm0 0"/><g clip-path="url(#f)"><g clip-path="url(#g)"><g clip-path="url(#h)"><path fill="#B2B2FF" fill-opacity=".3" d="M822.23828 197.66797c0-281.7539-228.39844-510.15234-510.15234-510.15234S-198.06641-84.08595-198.06641 197.66796c0 281.7539 228.39844 510.15234 510.15235 510.15234 281.7539 0 510.15234-228.39843 510.15234-510.15234m0 0"/></g></g></g><g clip-path="url(#i)"><g clip-path="url(#j)"><path fill="none" stroke="#000" stroke-miterlimit="10" stroke-width=".39843" d="M368.76955 197.66797c0-31.3086-25.3789-56.6836-56.6836-56.6836s-56.6836 25.375-56.6836 56.6836c0 31.3047 25.37891 56.6836 56.6836 56.6836 31.3047 0 56.6836-25.3789 56.6836-56.6836Zm0 0"/></g></g><use xlink:href="#k" x="229.57279" y="182.50276"/><use xlink:href="#l" x="238.95714" y="186.88399"/><path fill="none" stroke="#000" stroke-miterlimit="10" stroke-width=".39843" d="M312.08595 197.66797 71.1953 45.69139m240.89065 151.97658L71.1953 349.64455M26.90623 296.8633c40.1836-47.89064 99.26564-115.06252 143.18752-71.13673"/><path fill="none" stroke="#000" stroke-linecap="round" stroke-linejoin="round" stroke-miterlimit="10" stroke-width=".39843" d="M170.46094 222.71094c-.7461 1.28515-.6289 2.35937-.22266 3.15625-.80078-.40235-1.875-.51953-3.15625.22656"/><use xlink:href="#m" x="6.63984" y="311.51516"/><use xlink:href="#n" x="19.9875" y="315.89639"/><use xlink:href="#o" x="27.4062" y="318.96586"/></svg>